G04 #@! TF.GenerationSoftware,KiCad,Pcbnew,(2018-01-21 revision 6b9866de8)-makepkg*
G04 #@! TF.CreationDate,2018-06-15T05:11:16+02:00*
G04 #@! TF.ProjectId,Roboy_motorboard,526F626F795F6D6F746F72626F617264,rev?*
G04 #@! TF.SameCoordinates,Original*
G04 #@! TF.FileFunction,Paste,Bot*
G04 #@! TF.FilePolarity,Positive*
%FSLAX46Y46*%
G04 Gerber Fmt 4.6, Leading zero omitted, Abs format (unit mm)*
G04 Created by KiCad (PCBNEW (2018-01-21 revision 6b9866de8)-makepkg) date 06/15/18 05:11:16*
%MOMM*%
%LPD*%
G01*
G04 APERTURE LIST*
%ADD10C,0.450000*%
%ADD11R,0.400000X0.700000*%
%ADD12C,0.230000*%
%ADD13C,0.100000*%
%ADD14R,0.910000X0.750000*%
%ADD15R,0.450000X0.580000*%
%ADD16R,0.688000X0.520000*%
%ADD17R,0.850000X0.750000*%
%ADD18R,0.850000X1.650000*%
%ADD19R,0.750000X0.700000*%
%ADD20R,0.950000X1.200000*%
%ADD21R,1.500000X0.550000*%
%ADD22R,0.580000X0.450000*%
%ADD23R,0.520000X0.688000*%
%ADD24R,0.613000X0.175000*%
%ADD25R,0.175000X0.513000*%
%ADD26R,0.513000X0.175000*%
%ADD27R,0.550000X0.650000*%
%ADD28R,0.650000X0.550000*%
%ADD29R,0.480000X0.150000*%
%ADD30C,0.150000*%
%ADD31C,0.430000*%
G04 APERTURE END LIST*
D10*
X131896453Y-88634674D02*
G75*
G02X131945000Y-88910000I-756453J-275326D01*
G01*
X131756666Y-89427444D02*
G75*
G02X131542500Y-89607150I-616666J517444D01*
G01*
X131000213Y-89702770D02*
G75*
G02X130737500Y-89607150I139787J792770D01*
G01*
X130383547Y-89185326D02*
G75*
G02X130335000Y-88910000I756453J275326D01*
G01*
X130523334Y-88392556D02*
G75*
G02X130737500Y-88212850I616666J-517444D01*
G01*
X131279787Y-88117230D02*
G75*
G02X131542500Y-88212850I-139787J-792770D01*
G01*
D11*
X133320000Y-88060000D03*
X133320000Y-89760000D03*
X132620000Y-89760000D03*
X132620000Y-88060000D03*
D12*
X127125000Y-98625000D03*
D13*
G36*
X126790000Y-98764831D02*
X126783131Y-98764831D01*
X126769458Y-98763485D01*
X126755983Y-98760804D01*
X126742835Y-98756816D01*
X126730142Y-98751559D01*
X126718026Y-98745082D01*
X126706602Y-98737449D01*
X126695982Y-98728733D01*
X126686267Y-98719018D01*
X126677551Y-98708398D01*
X126669918Y-98696974D01*
X126663441Y-98684858D01*
X126658184Y-98672165D01*
X126654196Y-98659017D01*
X126651515Y-98645542D01*
X126650169Y-98631869D01*
X126650169Y-98618131D01*
X126651515Y-98604458D01*
X126654196Y-98590983D01*
X126658184Y-98577835D01*
X126663441Y-98565142D01*
X126669918Y-98553026D01*
X126677551Y-98541602D01*
X126686267Y-98530982D01*
X126695982Y-98521267D01*
X126706602Y-98512551D01*
X126718026Y-98504918D01*
X126730142Y-98498441D01*
X126742835Y-98493184D01*
X126755983Y-98489196D01*
X126769458Y-98486515D01*
X126783131Y-98485169D01*
X126790000Y-98485169D01*
X126790000Y-98485000D01*
X127600000Y-98485000D01*
X127600000Y-98765000D01*
X126790000Y-98765000D01*
X126790000Y-98764831D01*
X126790000Y-98764831D01*
G37*
D12*
X127125000Y-99125000D03*
D13*
G36*
X126790000Y-99264831D02*
X126783131Y-99264831D01*
X126769458Y-99263485D01*
X126755983Y-99260804D01*
X126742835Y-99256816D01*
X126730142Y-99251559D01*
X126718026Y-99245082D01*
X126706602Y-99237449D01*
X126695982Y-99228733D01*
X126686267Y-99219018D01*
X126677551Y-99208398D01*
X126669918Y-99196974D01*
X126663441Y-99184858D01*
X126658184Y-99172165D01*
X126654196Y-99159017D01*
X126651515Y-99145542D01*
X126650169Y-99131869D01*
X126650169Y-99118131D01*
X126651515Y-99104458D01*
X126654196Y-99090983D01*
X126658184Y-99077835D01*
X126663441Y-99065142D01*
X126669918Y-99053026D01*
X126677551Y-99041602D01*
X126686267Y-99030982D01*
X126695982Y-99021267D01*
X126706602Y-99012551D01*
X126718026Y-99004918D01*
X126730142Y-98998441D01*
X126742835Y-98993184D01*
X126755983Y-98989196D01*
X126769458Y-98986515D01*
X126783131Y-98985169D01*
X126790000Y-98985169D01*
X126790000Y-98985000D01*
X127600000Y-98985000D01*
X127600000Y-99265000D01*
X126790000Y-99265000D01*
X126790000Y-99264831D01*
X126790000Y-99264831D01*
G37*
D12*
X127125000Y-99625000D03*
D13*
G36*
X126790000Y-99764831D02*
X126783131Y-99764831D01*
X126769458Y-99763485D01*
X126755983Y-99760804D01*
X126742835Y-99756816D01*
X126730142Y-99751559D01*
X126718026Y-99745082D01*
X126706602Y-99737449D01*
X126695982Y-99728733D01*
X126686267Y-99719018D01*
X126677551Y-99708398D01*
X126669918Y-99696974D01*
X126663441Y-99684858D01*
X126658184Y-99672165D01*
X126654196Y-99659017D01*
X126651515Y-99645542D01*
X126650169Y-99631869D01*
X126650169Y-99618131D01*
X126651515Y-99604458D01*
X126654196Y-99590983D01*
X126658184Y-99577835D01*
X126663441Y-99565142D01*
X126669918Y-99553026D01*
X126677551Y-99541602D01*
X126686267Y-99530982D01*
X126695982Y-99521267D01*
X126706602Y-99512551D01*
X126718026Y-99504918D01*
X126730142Y-99498441D01*
X126742835Y-99493184D01*
X126755983Y-99489196D01*
X126769458Y-99486515D01*
X126783131Y-99485169D01*
X126790000Y-99485169D01*
X126790000Y-99485000D01*
X127600000Y-99485000D01*
X127600000Y-99765000D01*
X126790000Y-99765000D01*
X126790000Y-99764831D01*
X126790000Y-99764831D01*
G37*
D12*
X127125000Y-100125000D03*
D13*
G36*
X126790000Y-100264831D02*
X126783131Y-100264831D01*
X126769458Y-100263485D01*
X126755983Y-100260804D01*
X126742835Y-100256816D01*
X126730142Y-100251559D01*
X126718026Y-100245082D01*
X126706602Y-100237449D01*
X126695982Y-100228733D01*
X126686267Y-100219018D01*
X126677551Y-100208398D01*
X126669918Y-100196974D01*
X126663441Y-100184858D01*
X126658184Y-100172165D01*
X126654196Y-100159017D01*
X126651515Y-100145542D01*
X126650169Y-100131869D01*
X126650169Y-100118131D01*
X126651515Y-100104458D01*
X126654196Y-100090983D01*
X126658184Y-100077835D01*
X126663441Y-100065142D01*
X126669918Y-100053026D01*
X126677551Y-100041602D01*
X126686267Y-100030982D01*
X126695982Y-100021267D01*
X126706602Y-100012551D01*
X126718026Y-100004918D01*
X126730142Y-99998441D01*
X126742835Y-99993184D01*
X126755983Y-99989196D01*
X126769458Y-99986515D01*
X126783131Y-99985169D01*
X126790000Y-99985169D01*
X126790000Y-99985000D01*
X127600000Y-99985000D01*
X127600000Y-100265000D01*
X126790000Y-100265000D01*
X126790000Y-100264831D01*
X126790000Y-100264831D01*
G37*
D12*
X124325000Y-100125000D03*
D13*
G36*
X124660000Y-99985169D02*
X124666869Y-99985169D01*
X124680542Y-99986515D01*
X124694017Y-99989196D01*
X124707165Y-99993184D01*
X124719858Y-99998441D01*
X124731974Y-100004918D01*
X124743398Y-100012551D01*
X124754018Y-100021267D01*
X124763733Y-100030982D01*
X124772449Y-100041602D01*
X124780082Y-100053026D01*
X124786559Y-100065142D01*
X124791816Y-100077835D01*
X124795804Y-100090983D01*
X124798485Y-100104458D01*
X124799831Y-100118131D01*
X124799831Y-100131869D01*
X124798485Y-100145542D01*
X124795804Y-100159017D01*
X124791816Y-100172165D01*
X124786559Y-100184858D01*
X124780082Y-100196974D01*
X124772449Y-100208398D01*
X124763733Y-100219018D01*
X124754018Y-100228733D01*
X124743398Y-100237449D01*
X124731974Y-100245082D01*
X124719858Y-100251559D01*
X124707165Y-100256816D01*
X124694017Y-100260804D01*
X124680542Y-100263485D01*
X124666869Y-100264831D01*
X124660000Y-100264831D01*
X124660000Y-100265000D01*
X123850000Y-100265000D01*
X123850000Y-99985000D01*
X124660000Y-99985000D01*
X124660000Y-99985169D01*
X124660000Y-99985169D01*
G37*
D12*
X124325000Y-99625000D03*
D13*
G36*
X124660000Y-99485169D02*
X124666869Y-99485169D01*
X124680542Y-99486515D01*
X124694017Y-99489196D01*
X124707165Y-99493184D01*
X124719858Y-99498441D01*
X124731974Y-99504918D01*
X124743398Y-99512551D01*
X124754018Y-99521267D01*
X124763733Y-99530982D01*
X124772449Y-99541602D01*
X124780082Y-99553026D01*
X124786559Y-99565142D01*
X124791816Y-99577835D01*
X124795804Y-99590983D01*
X124798485Y-99604458D01*
X124799831Y-99618131D01*
X124799831Y-99631869D01*
X124798485Y-99645542D01*
X124795804Y-99659017D01*
X124791816Y-99672165D01*
X124786559Y-99684858D01*
X124780082Y-99696974D01*
X124772449Y-99708398D01*
X124763733Y-99719018D01*
X124754018Y-99728733D01*
X124743398Y-99737449D01*
X124731974Y-99745082D01*
X124719858Y-99751559D01*
X124707165Y-99756816D01*
X124694017Y-99760804D01*
X124680542Y-99763485D01*
X124666869Y-99764831D01*
X124660000Y-99764831D01*
X124660000Y-99765000D01*
X123850000Y-99765000D01*
X123850000Y-99485000D01*
X124660000Y-99485000D01*
X124660000Y-99485169D01*
X124660000Y-99485169D01*
G37*
D12*
X124325000Y-99125000D03*
D13*
G36*
X124660000Y-98985169D02*
X124666869Y-98985169D01*
X124680542Y-98986515D01*
X124694017Y-98989196D01*
X124707165Y-98993184D01*
X124719858Y-98998441D01*
X124731974Y-99004918D01*
X124743398Y-99012551D01*
X124754018Y-99021267D01*
X124763733Y-99030982D01*
X124772449Y-99041602D01*
X124780082Y-99053026D01*
X124786559Y-99065142D01*
X124791816Y-99077835D01*
X124795804Y-99090983D01*
X124798485Y-99104458D01*
X124799831Y-99118131D01*
X124799831Y-99131869D01*
X124798485Y-99145542D01*
X124795804Y-99159017D01*
X124791816Y-99172165D01*
X124786559Y-99184858D01*
X124780082Y-99196974D01*
X124772449Y-99208398D01*
X124763733Y-99219018D01*
X124754018Y-99228733D01*
X124743398Y-99237449D01*
X124731974Y-99245082D01*
X124719858Y-99251559D01*
X124707165Y-99256816D01*
X124694017Y-99260804D01*
X124680542Y-99263485D01*
X124666869Y-99264831D01*
X124660000Y-99264831D01*
X124660000Y-99265000D01*
X123850000Y-99265000D01*
X123850000Y-98985000D01*
X124660000Y-98985000D01*
X124660000Y-98985169D01*
X124660000Y-98985169D01*
G37*
D12*
X124325000Y-98625000D03*
D13*
G36*
X124660000Y-98485169D02*
X124666869Y-98485169D01*
X124680542Y-98486515D01*
X124694017Y-98489196D01*
X124707165Y-98493184D01*
X124719858Y-98498441D01*
X124731974Y-98504918D01*
X124743398Y-98512551D01*
X124754018Y-98521267D01*
X124763733Y-98530982D01*
X124772449Y-98541602D01*
X124780082Y-98553026D01*
X124786559Y-98565142D01*
X124791816Y-98577835D01*
X124795804Y-98590983D01*
X124798485Y-98604458D01*
X124799831Y-98618131D01*
X124799831Y-98631869D01*
X124798485Y-98645542D01*
X124795804Y-98659017D01*
X124791816Y-98672165D01*
X124786559Y-98684858D01*
X124780082Y-98696974D01*
X124772449Y-98708398D01*
X124763733Y-98719018D01*
X124754018Y-98728733D01*
X124743398Y-98737449D01*
X124731974Y-98745082D01*
X124719858Y-98751559D01*
X124707165Y-98756816D01*
X124694017Y-98760804D01*
X124680542Y-98763485D01*
X124666869Y-98764831D01*
X124660000Y-98764831D01*
X124660000Y-98765000D01*
X123850000Y-98765000D01*
X123850000Y-98485000D01*
X124660000Y-98485000D01*
X124660000Y-98485169D01*
X124660000Y-98485169D01*
G37*
D14*
X125725000Y-99875000D03*
X125725000Y-98875000D03*
D15*
X98887000Y-104627500D03*
X98247000Y-104627500D03*
X97587000Y-104627500D03*
X96947000Y-104627500D03*
X96947000Y-101747500D03*
X97587000Y-101747500D03*
X98247000Y-101747500D03*
X98887000Y-101747500D03*
D16*
X97307000Y-102327500D03*
X98527000Y-102327500D03*
X97307000Y-103277500D03*
X98527000Y-103277500D03*
D17*
X120700000Y-103050000D03*
X120700000Y-104950000D03*
X118700000Y-104000000D03*
D18*
X109781200Y-94664000D03*
X106881200Y-94664000D03*
D19*
X114400000Y-92975000D03*
X115900000Y-92975000D03*
D20*
X98599750Y-81883250D03*
X100599750Y-81883250D03*
X98599750Y-83724750D03*
X100599750Y-83724750D03*
X98599750Y-91090750D03*
X100599750Y-91090750D03*
X98599750Y-87407750D03*
X100599750Y-87407750D03*
X98599750Y-89249250D03*
X100599750Y-89249250D03*
X98599750Y-94773750D03*
X100599750Y-94773750D03*
X98599750Y-85566250D03*
X100599750Y-85566250D03*
X98599750Y-92932250D03*
X100599750Y-92932250D03*
D21*
X128100000Y-108205000D03*
X128100000Y-106935000D03*
X128100000Y-105665000D03*
X128100000Y-104395000D03*
X133500000Y-104395000D03*
X133500000Y-105665000D03*
X133500000Y-106935000D03*
X133500000Y-108205000D03*
D22*
X104463250Y-97145250D03*
X104463250Y-97785250D03*
X104463250Y-98445250D03*
X104463250Y-99085250D03*
X101583250Y-99085250D03*
X101583250Y-98445250D03*
X101583250Y-97785250D03*
X101583250Y-97145250D03*
D23*
X102163250Y-98725250D03*
X102163250Y-97505250D03*
X103113250Y-98725250D03*
X103113250Y-97505250D03*
D22*
X111384750Y-97145250D03*
X111384750Y-97785250D03*
X111384750Y-98445250D03*
X111384750Y-99085250D03*
X108504750Y-99085250D03*
X108504750Y-98445250D03*
X108504750Y-97785250D03*
X108504750Y-97145250D03*
D23*
X109084750Y-98725250D03*
X109084750Y-97505250D03*
X110034750Y-98725250D03*
X110034750Y-97505250D03*
D22*
X104399750Y-102225250D03*
X104399750Y-102865250D03*
X104399750Y-103525250D03*
X104399750Y-104165250D03*
X101519750Y-104165250D03*
X101519750Y-103525250D03*
X101519750Y-102865250D03*
X101519750Y-102225250D03*
D23*
X102099750Y-103805250D03*
X102099750Y-102585250D03*
X103049750Y-103805250D03*
X103049750Y-102585250D03*
D22*
X111384750Y-102225250D03*
X111384750Y-102865250D03*
X111384750Y-103525250D03*
X111384750Y-104165250D03*
X108504750Y-104165250D03*
X108504750Y-103525250D03*
X108504750Y-102865250D03*
X108504750Y-102225250D03*
D23*
X109084750Y-103805250D03*
X109084750Y-102585250D03*
X110034750Y-103805250D03*
X110034750Y-102585250D03*
D22*
X104387050Y-109070550D03*
X104387050Y-109710550D03*
X104387050Y-110370550D03*
X104387050Y-111010550D03*
X101507050Y-111010550D03*
X101507050Y-110370550D03*
X101507050Y-109710550D03*
X101507050Y-109070550D03*
D23*
X102087050Y-110650550D03*
X102087050Y-109430550D03*
X103037050Y-110650550D03*
X103037050Y-109430550D03*
D15*
X108935800Y-108592800D03*
X109575800Y-108592800D03*
X110235800Y-108592800D03*
X110875800Y-108592800D03*
X110875800Y-111472800D03*
X110235800Y-111472800D03*
X109575800Y-111472800D03*
X108935800Y-111472800D03*
D16*
X110515800Y-110892800D03*
X109295800Y-110892800D03*
X110515800Y-109942800D03*
X109295800Y-109942800D03*
D24*
X126331500Y-88750000D03*
D25*
X126450000Y-89318500D03*
X126850000Y-89318500D03*
X127250000Y-89318500D03*
D26*
X127418500Y-88750000D03*
X127418500Y-88350000D03*
D25*
X127250000Y-87781500D03*
X126850000Y-87781500D03*
X126450000Y-87781500D03*
D26*
X126281500Y-88350000D03*
D24*
X126381500Y-92000000D03*
D25*
X126500000Y-92568500D03*
X126900000Y-92568500D03*
X127300000Y-92568500D03*
D26*
X127468500Y-92000000D03*
X127468500Y-91600000D03*
D25*
X127300000Y-91031500D03*
X126900000Y-91031500D03*
X126500000Y-91031500D03*
D26*
X126331500Y-91600000D03*
D27*
X116050000Y-94600000D03*
X115050000Y-94600000D03*
X118650000Y-88700000D03*
X117650000Y-88700000D03*
X125150000Y-96800000D03*
X124150000Y-96800000D03*
X104449500Y-100647500D03*
X103449500Y-100647500D03*
X110460750Y-100655250D03*
X111460750Y-100655250D03*
X106370000Y-105730000D03*
X105370000Y-105730000D03*
X108835500Y-106050000D03*
X107835500Y-106050000D03*
X108800000Y-91850000D03*
X107800000Y-91850000D03*
X103894000Y-112585500D03*
X104894000Y-112585500D03*
D28*
X112400000Y-107750000D03*
X112400000Y-108750000D03*
X122050000Y-104200000D03*
X122050000Y-105200000D03*
X113100000Y-93200000D03*
X113100000Y-92200000D03*
X112000000Y-93200000D03*
X112000000Y-92200000D03*
D27*
X117650000Y-87600000D03*
X118650000Y-87600000D03*
X101544500Y-100647500D03*
X102544500Y-100647500D03*
X108365250Y-100655250D03*
X109365250Y-100655250D03*
D28*
X105664000Y-99639500D03*
X105664000Y-100639500D03*
X112600000Y-99700000D03*
X112600000Y-100700000D03*
D27*
X103410000Y-105730000D03*
X104410000Y-105730000D03*
D28*
X106770000Y-106750000D03*
X106770000Y-107750000D03*
D27*
X104350000Y-106800000D03*
X105350000Y-106800000D03*
X107835500Y-107200000D03*
X108835500Y-107200000D03*
X109750000Y-92900000D03*
X108750000Y-92900000D03*
X107850000Y-92900000D03*
X106850000Y-92900000D03*
X102989000Y-112649000D03*
X101989000Y-112649000D03*
D28*
X114750000Y-107750000D03*
X114750000Y-108750000D03*
D27*
X104894000Y-113728500D03*
X103894000Y-113728500D03*
D28*
X113550000Y-108750000D03*
X113550000Y-107750000D03*
D27*
X121800000Y-106400000D03*
X120800000Y-106400000D03*
D28*
X122050000Y-102000000D03*
X122050000Y-103000000D03*
X128650000Y-88450000D03*
X128650000Y-89450000D03*
D27*
X128600000Y-92800000D03*
X129600000Y-92800000D03*
D28*
X121650000Y-90150000D03*
X121650000Y-89150000D03*
D27*
X119700000Y-88000000D03*
X120700000Y-88000000D03*
X124950000Y-102475000D03*
X123950000Y-102475000D03*
X107800000Y-83200000D03*
X106800000Y-83200000D03*
D28*
X109100000Y-82600000D03*
X109100000Y-81600000D03*
X134900000Y-91300000D03*
X134900000Y-92300000D03*
D29*
X132740000Y-94100000D03*
X132740000Y-93750000D03*
X132740000Y-93400000D03*
X132740000Y-93050000D03*
X133410000Y-93050000D03*
X133410000Y-93400000D03*
X133410000Y-93750000D03*
X133410000Y-94100000D03*
D27*
X126220000Y-95650000D03*
X125220000Y-95650000D03*
D28*
X129270000Y-96600000D03*
X129270000Y-95600000D03*
D30*
X127190000Y-95390000D03*
D13*
G36*
X127310000Y-95540000D02*
X127090000Y-95540000D01*
X127090000Y-95290000D01*
X127490000Y-95290000D01*
X127490000Y-95360000D01*
X127310000Y-95540000D01*
X127310000Y-95540000D01*
G37*
D31*
X127740000Y-95740000D03*
D13*
G36*
X128044056Y-95740000D02*
X127740000Y-95435944D01*
X127435944Y-95740000D01*
X127740000Y-96044056D01*
X128044056Y-95740000D01*
X128044056Y-95740000D01*
X128044056Y-95740000D01*
G37*
D30*
X128290000Y-96090000D03*
D13*
G36*
X128170000Y-95940000D02*
X128390000Y-95940000D01*
X128390000Y-96190000D01*
X127990000Y-96190000D01*
X127990000Y-96120000D01*
X128170000Y-95940000D01*
X128170000Y-95940000D01*
G37*
D30*
X127190000Y-96090000D03*
D13*
G36*
X127090000Y-96190000D02*
X127090000Y-95940000D01*
X127310000Y-95940000D01*
X127490000Y-96120000D01*
X127490000Y-96190000D01*
X127090000Y-96190000D01*
X127090000Y-96190000D01*
G37*
D30*
X128290000Y-95390000D03*
D13*
G36*
X128390000Y-95290000D02*
X128390000Y-95540000D01*
X128170000Y-95540000D01*
X127920000Y-95290000D01*
X128390000Y-95290000D01*
X128390000Y-95290000D01*
G37*
D27*
X131600000Y-86550000D03*
X132600000Y-86550000D03*
D28*
X131600000Y-93575000D03*
X131600000Y-94575000D03*
X133950000Y-96275000D03*
X133950000Y-95275000D03*
X122575000Y-99725000D03*
X122575000Y-98725000D03*
X128725000Y-98675000D03*
X128725000Y-99675000D03*
M02*
