G04 #@! TF.GenerationSoftware,KiCad,Pcbnew,5.0.2-bee76a0~70~ubuntu18.04.1*
G04 #@! TF.CreationDate,2018-12-08T03:17:05+01:00*
G04 #@! TF.ProjectId,Roboy_motorboard,526f626f-795f-46d6-9f74-6f72626f6172,rev?*
G04 #@! TF.SameCoordinates,Original*
G04 #@! TF.FileFunction,Soldermask,Top*
G04 #@! TF.FilePolarity,Negative*
%FSLAX46Y46*%
G04 Gerber Fmt 4.6, Leading zero omitted, Abs format (unit mm)*
G04 Created by KiCad (PCBNEW 5.0.2-bee76a0~70~ubuntu18.04.1) date Sat 08 Dec 2018 03:17:05 CET*
%MOMM*%
%LPD*%
G01*
G04 APERTURE LIST*
%ADD10C,0.150000*%
%ADD11C,0.100000*%
G04 APERTURE END LIST*
D10*
G36*
X136000000Y-113650000D02*
X136000000Y-104400000D01*
X140500000Y-104400000D01*
X140500000Y-113650000D01*
X136000000Y-113650000D01*
G37*
X136000000Y-113650000D02*
X136000000Y-104400000D01*
X140500000Y-104400000D01*
X140500000Y-113650000D01*
X136000000Y-113650000D01*
D11*
G36*
X118376436Y-110699744D02*
X118736082Y-110848714D01*
X119057573Y-111063528D01*
X119059757Y-111064987D01*
X119335013Y-111340243D01*
X119335015Y-111340246D01*
X119551286Y-111663918D01*
X119700256Y-112023564D01*
X119776200Y-112405361D01*
X119776200Y-112794639D01*
X119700256Y-113176436D01*
X119551286Y-113536082D01*
X119336472Y-113857573D01*
X119335013Y-113859757D01*
X119059757Y-114135013D01*
X119059754Y-114135015D01*
X118736082Y-114351286D01*
X118376436Y-114500256D01*
X117994640Y-114576200D01*
X117605360Y-114576200D01*
X117223564Y-114500256D01*
X116863918Y-114351286D01*
X116540246Y-114135015D01*
X116540243Y-114135013D01*
X116264987Y-113859757D01*
X116263528Y-113857573D01*
X116048714Y-113536082D01*
X115899744Y-113176436D01*
X115823800Y-112794639D01*
X115823800Y-112405361D01*
X115899744Y-112023564D01*
X116048714Y-111663918D01*
X116264985Y-111340246D01*
X116264987Y-111340243D01*
X116540243Y-111064987D01*
X116542427Y-111063528D01*
X116863918Y-110848714D01*
X117223564Y-110699744D01*
X117605360Y-110623800D01*
X117994640Y-110623800D01*
X118376436Y-110699744D01*
X118376436Y-110699744D01*
G37*
G36*
X98426436Y-110699744D02*
X98786082Y-110848714D01*
X99107573Y-111063528D01*
X99109757Y-111064987D01*
X99385013Y-111340243D01*
X99385015Y-111340246D01*
X99601286Y-111663918D01*
X99750256Y-112023564D01*
X99826200Y-112405361D01*
X99826200Y-112794639D01*
X99750256Y-113176436D01*
X99601286Y-113536082D01*
X99386472Y-113857573D01*
X99385013Y-113859757D01*
X99109757Y-114135013D01*
X99109754Y-114135015D01*
X98786082Y-114351286D01*
X98426436Y-114500256D01*
X98044640Y-114576200D01*
X97655360Y-114576200D01*
X97273564Y-114500256D01*
X96913918Y-114351286D01*
X96590246Y-114135015D01*
X96590243Y-114135013D01*
X96314987Y-113859757D01*
X96313528Y-113857573D01*
X96098714Y-113536082D01*
X95949744Y-113176436D01*
X95873800Y-112794639D01*
X95873800Y-112405361D01*
X95949744Y-112023564D01*
X96098714Y-111663918D01*
X96314985Y-111340246D01*
X96314987Y-111340243D01*
X96590243Y-111064987D01*
X96592427Y-111063528D01*
X96913918Y-110848714D01*
X97273564Y-110699744D01*
X97655360Y-110623800D01*
X98044640Y-110623800D01*
X98426436Y-110699744D01*
X98426436Y-110699744D01*
G37*
G36*
X134826200Y-114076200D02*
X128673800Y-114076200D01*
X128673800Y-111923800D01*
X134826200Y-111923800D01*
X134826200Y-114076200D01*
X134826200Y-114076200D01*
G37*
G36*
X124326200Y-114076200D02*
X120673800Y-114076200D01*
X120673800Y-111923800D01*
X124326200Y-111923800D01*
X124326200Y-114076200D01*
X124326200Y-114076200D01*
G37*
G36*
X111251200Y-112276200D02*
X107598800Y-112276200D01*
X107598800Y-110523800D01*
X111251200Y-110523800D01*
X111251200Y-112276200D01*
X111251200Y-112276200D01*
G37*
G36*
X105851200Y-112276200D02*
X102198800Y-112276200D01*
X102198800Y-110523800D01*
X105851200Y-110523800D01*
X105851200Y-112276200D01*
X105851200Y-112276200D01*
G37*
G36*
X134826200Y-110076200D02*
X128673800Y-110076200D01*
X128673800Y-107923800D01*
X134826200Y-107923800D01*
X134826200Y-110076200D01*
X134826200Y-110076200D01*
G37*
G36*
X124326200Y-110076200D02*
X120673800Y-110076200D01*
X120673800Y-107923800D01*
X124326200Y-107923800D01*
X124326200Y-110076200D01*
X124326200Y-110076200D01*
G37*
G36*
X97286700Y-110040700D02*
X96134300Y-110040700D01*
X96134300Y-109288300D01*
X97286700Y-109288300D01*
X97286700Y-110040700D01*
X97286700Y-110040700D01*
G37*
G36*
X99876200Y-109776200D02*
X98723800Y-109776200D01*
X98723800Y-109023800D01*
X99876200Y-109023800D01*
X99876200Y-109776200D01*
X99876200Y-109776200D01*
G37*
G36*
X106222700Y-107042700D02*
X104470300Y-107042700D01*
X104470300Y-106190300D01*
X106222700Y-106190300D01*
X106222700Y-107042700D01*
X106222700Y-107042700D01*
G37*
G36*
X124326200Y-106076200D02*
X120673800Y-106076200D01*
X120673800Y-103923800D01*
X124326200Y-103923800D01*
X124326200Y-106076200D01*
X124326200Y-106076200D01*
G37*
G36*
X134826200Y-106076200D02*
X128673800Y-106076200D01*
X128673800Y-103923800D01*
X134826200Y-103923800D01*
X134826200Y-106076200D01*
X134826200Y-106076200D01*
G37*
G36*
X103657700Y-104363700D02*
X102005300Y-104363700D01*
X102005300Y-102011300D01*
X103657700Y-102011300D01*
X103657700Y-104363700D01*
X103657700Y-104363700D01*
G37*
G36*
X97257700Y-104363700D02*
X95605300Y-104363700D01*
X95605300Y-102011300D01*
X97257700Y-102011300D01*
X97257700Y-104363700D01*
X97257700Y-104363700D01*
G37*
G36*
X140026200Y-101426200D02*
X138155858Y-101426200D01*
X138131472Y-101428602D01*
X138108023Y-101435715D01*
X138086412Y-101447266D01*
X138067470Y-101462812D01*
X138051924Y-101481754D01*
X138040373Y-101503365D01*
X138033260Y-101526814D01*
X138030858Y-101551200D01*
X138033260Y-101575586D01*
X138040374Y-101599037D01*
X138044498Y-101608993D01*
X138076250Y-101768620D01*
X138076250Y-101931380D01*
X138044498Y-102091007D01*
X137982214Y-102241375D01*
X137891788Y-102376707D01*
X137776707Y-102491788D01*
X137641375Y-102582214D01*
X137553292Y-102618699D01*
X137491008Y-102644498D01*
X137411193Y-102660374D01*
X137331380Y-102676250D01*
X137168620Y-102676250D01*
X137088807Y-102660374D01*
X137008992Y-102644498D01*
X136946708Y-102618699D01*
X136858625Y-102582214D01*
X136723293Y-102491788D01*
X136608212Y-102376707D01*
X136517786Y-102241375D01*
X136455502Y-102091007D01*
X136423750Y-101931380D01*
X136423750Y-101768620D01*
X136455502Y-101608993D01*
X136469340Y-101575586D01*
X136481301Y-101546708D01*
X136517786Y-101458625D01*
X136608212Y-101323293D01*
X136723293Y-101208212D01*
X136858625Y-101117786D01*
X136946708Y-101081301D01*
X137008992Y-101055502D01*
X137088807Y-101039626D01*
X137168620Y-101023750D01*
X137331380Y-101023750D01*
X137411193Y-101039626D01*
X137491008Y-101055502D01*
X137553292Y-101081301D01*
X137641375Y-101117786D01*
X137776707Y-101208212D01*
X137860412Y-101291917D01*
X137879354Y-101307463D01*
X137900965Y-101319014D01*
X137924414Y-101326127D01*
X137948800Y-101328529D01*
X137973186Y-101326127D01*
X137996635Y-101319014D01*
X138018246Y-101307463D01*
X138037188Y-101291917D01*
X138052734Y-101272975D01*
X138064285Y-101251364D01*
X138071398Y-101227915D01*
X138073800Y-101203529D01*
X138073800Y-99473800D01*
X140026200Y-99473800D01*
X140026200Y-101426200D01*
X140026200Y-101426200D01*
G37*
G36*
X132576436Y-98649744D02*
X132936082Y-98798714D01*
X133126878Y-98926200D01*
X133259757Y-99014987D01*
X133535013Y-99290243D01*
X133535015Y-99290246D01*
X133751286Y-99613918D01*
X133900256Y-99973564D01*
X133976200Y-100355361D01*
X133976200Y-100744639D01*
X133900256Y-101126436D01*
X133751286Y-101486082D01*
X133669160Y-101608992D01*
X133535013Y-101809757D01*
X133259757Y-102085013D01*
X133259754Y-102085015D01*
X132936082Y-102301286D01*
X132576436Y-102450256D01*
X132194640Y-102526200D01*
X131805360Y-102526200D01*
X131614463Y-102488228D01*
X131423564Y-102450256D01*
X131063918Y-102301286D01*
X130740246Y-102085015D01*
X130740243Y-102085013D01*
X130464987Y-101809757D01*
X130330840Y-101608992D01*
X130248714Y-101486082D01*
X130099744Y-101126436D01*
X130023800Y-100744639D01*
X130023800Y-100355361D01*
X130099744Y-99973564D01*
X130248714Y-99613918D01*
X130464985Y-99290246D01*
X130464987Y-99290243D01*
X130740243Y-99014987D01*
X130873122Y-98926200D01*
X131063918Y-98798714D01*
X131423564Y-98649744D01*
X131805360Y-98573800D01*
X132194640Y-98573800D01*
X132576436Y-98649744D01*
X132576436Y-98649744D01*
G37*
G36*
X136794747Y-98241315D02*
X136972404Y-98314902D01*
X137132294Y-98421738D01*
X137268262Y-98557706D01*
X137375098Y-98717596D01*
X137448685Y-98895253D01*
X137486200Y-99083852D01*
X137486200Y-99276148D01*
X137448685Y-99464747D01*
X137375098Y-99642404D01*
X137268262Y-99802294D01*
X137132294Y-99938262D01*
X136972404Y-100045098D01*
X136794747Y-100118685D01*
X136606148Y-100156200D01*
X136413852Y-100156200D01*
X136225253Y-100118685D01*
X136047596Y-100045098D01*
X135887706Y-99938262D01*
X135751738Y-99802294D01*
X135644902Y-99642404D01*
X135571315Y-99464747D01*
X135533800Y-99276148D01*
X135533800Y-99083852D01*
X135571315Y-98895253D01*
X135644902Y-98717596D01*
X135751738Y-98557706D01*
X135887706Y-98421738D01*
X136047596Y-98314902D01*
X136225253Y-98241315D01*
X136413852Y-98203800D01*
X136606148Y-98203800D01*
X136794747Y-98241315D01*
X136794747Y-98241315D01*
G37*
G36*
X120576200Y-99326200D02*
X119723800Y-99326200D01*
X119723800Y-97573800D01*
X120576200Y-97573800D01*
X120576200Y-99326200D01*
X120576200Y-99326200D01*
G37*
G36*
X119176200Y-99326200D02*
X118323800Y-99326200D01*
X118323800Y-97573800D01*
X119176200Y-97573800D01*
X119176200Y-99326200D01*
X119176200Y-99326200D01*
G37*
G36*
X96885200Y-99024200D02*
X96032800Y-99024200D01*
X96032800Y-97571800D01*
X96885200Y-97571800D01*
X96885200Y-99024200D01*
X96885200Y-99024200D01*
G37*
G36*
X98785200Y-99024200D02*
X97932800Y-99024200D01*
X97932800Y-97571800D01*
X98785200Y-97571800D01*
X98785200Y-99024200D01*
X98785200Y-99024200D01*
G37*
G36*
X102872700Y-98985200D02*
X101470300Y-98985200D01*
X101470300Y-97832800D01*
X102872700Y-97832800D01*
X102872700Y-98985200D01*
X102872700Y-98985200D01*
G37*
G36*
X127136200Y-98926200D02*
X126313800Y-98926200D01*
X126313800Y-97773800D01*
X127136200Y-97773800D01*
X127136200Y-98926200D01*
X127136200Y-98926200D01*
G37*
G36*
X128886200Y-98926200D02*
X128063800Y-98926200D01*
X128063800Y-97773800D01*
X128886200Y-97773800D01*
X128886200Y-98926200D01*
X128886200Y-98926200D01*
G37*
G36*
X139334747Y-96971315D02*
X139512404Y-97044902D01*
X139672294Y-97151738D01*
X139808262Y-97287706D01*
X139915098Y-97447596D01*
X139988685Y-97625253D01*
X140026200Y-97813852D01*
X140026200Y-98006148D01*
X139988685Y-98194747D01*
X139915098Y-98372404D01*
X139808262Y-98532294D01*
X139672294Y-98668262D01*
X139512404Y-98775098D01*
X139334747Y-98848685D01*
X139146148Y-98886200D01*
X138953852Y-98886200D01*
X138765253Y-98848685D01*
X138587596Y-98775098D01*
X138427706Y-98668262D01*
X138291738Y-98532294D01*
X138184902Y-98372404D01*
X138111315Y-98194747D01*
X138073800Y-98006148D01*
X138073800Y-97813852D01*
X138111315Y-97625253D01*
X138184902Y-97447596D01*
X138291738Y-97287706D01*
X138427706Y-97151738D01*
X138587596Y-97044902D01*
X138765253Y-96971315D01*
X138953852Y-96933800D01*
X139146148Y-96933800D01*
X139334747Y-96971315D01*
X139334747Y-96971315D01*
G37*
G36*
X125926200Y-98776200D02*
X124173800Y-98776200D01*
X124173800Y-97923800D01*
X125926200Y-97923800D01*
X125926200Y-98776200D01*
X125926200Y-98776200D01*
G37*
G36*
X101015700Y-98025700D02*
X99263300Y-98025700D01*
X99263300Y-97173300D01*
X101015700Y-97173300D01*
X101015700Y-98025700D01*
X101015700Y-98025700D01*
G37*
G36*
X136794747Y-95701315D02*
X136972404Y-95774902D01*
X137132294Y-95881738D01*
X137268262Y-96017706D01*
X137375098Y-96177596D01*
X137448685Y-96355253D01*
X137486200Y-96543852D01*
X137486200Y-96736148D01*
X137448685Y-96924747D01*
X137375098Y-97102404D01*
X137268262Y-97262294D01*
X137132294Y-97398262D01*
X136972404Y-97505098D01*
X136794747Y-97578685D01*
X136606148Y-97616200D01*
X136413852Y-97616200D01*
X136225253Y-97578685D01*
X136047596Y-97505098D01*
X135887706Y-97398262D01*
X135751738Y-97262294D01*
X135644902Y-97102404D01*
X135571315Y-96924747D01*
X135533800Y-96736148D01*
X135533800Y-96543852D01*
X135571315Y-96355253D01*
X135644902Y-96177596D01*
X135751738Y-96017706D01*
X135887706Y-95881738D01*
X136047596Y-95774902D01*
X136225253Y-95701315D01*
X136413852Y-95663800D01*
X136606148Y-95663800D01*
X136794747Y-95701315D01*
X136794747Y-95701315D01*
G37*
G36*
X117426200Y-97276200D02*
X115673800Y-97276200D01*
X115673800Y-96423800D01*
X117426200Y-96423800D01*
X117426200Y-97276200D01*
X117426200Y-97276200D01*
G37*
G36*
X102872700Y-96985200D02*
X101470300Y-96985200D01*
X101470300Y-95832800D01*
X102872700Y-95832800D01*
X102872700Y-96985200D01*
X102872700Y-96985200D01*
G37*
G36*
X126276200Y-96876200D02*
X125223800Y-96876200D01*
X125223800Y-95023800D01*
X126276200Y-95023800D01*
X126276200Y-96876200D01*
X126276200Y-96876200D01*
G37*
G36*
X129676200Y-96876200D02*
X128623800Y-96876200D01*
X128623800Y-95023800D01*
X129676200Y-95023800D01*
X129676200Y-96876200D01*
X129676200Y-96876200D01*
G37*
G36*
X99157700Y-96805700D02*
X98405300Y-96805700D01*
X98405300Y-95853300D01*
X99157700Y-95853300D01*
X99157700Y-96805700D01*
X99157700Y-96805700D01*
G37*
G36*
X100857700Y-96805700D02*
X100105300Y-96805700D01*
X100105300Y-95853300D01*
X100857700Y-95853300D01*
X100857700Y-96805700D01*
X100857700Y-96805700D01*
G37*
G36*
X139334747Y-94431315D02*
X139512404Y-94504902D01*
X139672294Y-94611738D01*
X139808262Y-94747706D01*
X139915098Y-94907596D01*
X139988685Y-95085253D01*
X140026200Y-95273852D01*
X140026200Y-95466148D01*
X139988685Y-95654747D01*
X139915098Y-95832404D01*
X139808262Y-95992294D01*
X139672294Y-96128262D01*
X139512404Y-96235098D01*
X139334747Y-96308685D01*
X139146148Y-96346200D01*
X138953852Y-96346200D01*
X138765253Y-96308685D01*
X138587596Y-96235098D01*
X138427706Y-96128262D01*
X138291738Y-95992294D01*
X138184902Y-95832404D01*
X138111315Y-95654747D01*
X138073800Y-95466148D01*
X138073800Y-95273852D01*
X138111315Y-95085253D01*
X138184902Y-94907596D01*
X138291738Y-94747706D01*
X138427706Y-94611738D01*
X138587596Y-94504902D01*
X138765253Y-94431315D01*
X138953852Y-94393800D01*
X139146148Y-94393800D01*
X139334747Y-94431315D01*
X139334747Y-94431315D01*
G37*
G36*
X132926200Y-95876200D02*
X131173800Y-95876200D01*
X131173800Y-95023800D01*
X132926200Y-95023800D01*
X132926200Y-95876200D01*
X132926200Y-95876200D01*
G37*
G36*
X114266200Y-95816200D02*
X113413800Y-95816200D01*
X113413800Y-94063800D01*
X114266200Y-94063800D01*
X114266200Y-95816200D01*
X114266200Y-95816200D01*
G37*
G36*
X113001200Y-95476200D02*
X111248800Y-95476200D01*
X111248800Y-94623800D01*
X113001200Y-94623800D01*
X113001200Y-95476200D01*
X113001200Y-95476200D01*
G37*
G36*
X98707700Y-95087200D02*
X96555300Y-95087200D01*
X96555300Y-91434800D01*
X98707700Y-91434800D01*
X98707700Y-95087200D01*
X98707700Y-95087200D01*
G37*
G36*
X102707700Y-95087200D02*
X100555300Y-95087200D01*
X100555300Y-91434800D01*
X102707700Y-91434800D01*
X102707700Y-95087200D01*
X102707700Y-95087200D01*
G37*
G36*
X136794747Y-93161315D02*
X136972404Y-93234902D01*
X137132294Y-93341738D01*
X137268262Y-93477706D01*
X137375098Y-93637596D01*
X137448685Y-93815253D01*
X137486200Y-94003852D01*
X137486200Y-94196148D01*
X137448685Y-94384747D01*
X137375098Y-94562404D01*
X137268262Y-94722294D01*
X137132294Y-94858262D01*
X136972404Y-94965098D01*
X136794747Y-95038685D01*
X136606148Y-95076200D01*
X136413852Y-95076200D01*
X136225253Y-95038685D01*
X136047596Y-94965098D01*
X135887706Y-94858262D01*
X135751738Y-94722294D01*
X135644902Y-94562404D01*
X135571315Y-94384747D01*
X135533800Y-94196148D01*
X135533800Y-94003852D01*
X135571315Y-93815253D01*
X135644902Y-93637596D01*
X135751738Y-93477706D01*
X135887706Y-93341738D01*
X136047596Y-93234902D01*
X136225253Y-93161315D01*
X136413852Y-93123800D01*
X136606148Y-93123800D01*
X136794747Y-93161315D01*
X136794747Y-93161315D01*
G37*
G36*
X121483700Y-88071300D02*
X121486102Y-88095686D01*
X121493215Y-88119135D01*
X121504766Y-88140746D01*
X121520312Y-88159688D01*
X121539254Y-88175234D01*
X121560865Y-88186785D01*
X121584314Y-88193898D01*
X121608700Y-88196300D01*
X122358700Y-88196300D01*
X122358700Y-94098700D01*
X121608700Y-94098700D01*
X121584314Y-94101102D01*
X121560865Y-94108215D01*
X121539254Y-94119766D01*
X121520312Y-94135312D01*
X121504766Y-94154254D01*
X121493215Y-94175865D01*
X121486102Y-94199314D01*
X121483700Y-94223700D01*
X121483700Y-94973700D01*
X115581300Y-94973700D01*
X115581300Y-94223700D01*
X115578898Y-94199314D01*
X115571785Y-94175865D01*
X115560234Y-94154254D01*
X115544688Y-94135312D01*
X115525746Y-94119766D01*
X115504135Y-94108215D01*
X115480686Y-94101102D01*
X115456300Y-94098700D01*
X114706300Y-94098700D01*
X114706300Y-88298700D01*
X115558700Y-88298700D01*
X115558700Y-93996300D01*
X115561102Y-94020686D01*
X115568215Y-94044135D01*
X115579766Y-94065746D01*
X115595312Y-94084688D01*
X115614254Y-94100234D01*
X115635865Y-94111785D01*
X115659314Y-94118898D01*
X115683700Y-94121300D01*
X121381300Y-94121300D01*
X121405686Y-94118898D01*
X121429135Y-94111785D01*
X121450746Y-94100234D01*
X121469688Y-94084688D01*
X121485234Y-94065746D01*
X121496785Y-94044135D01*
X121503898Y-94020686D01*
X121506300Y-93996300D01*
X121506300Y-88298700D01*
X121503898Y-88274314D01*
X121496785Y-88250865D01*
X121485234Y-88229254D01*
X121469688Y-88210312D01*
X121450746Y-88194766D01*
X121429135Y-88183215D01*
X121405686Y-88176102D01*
X121381300Y-88173700D01*
X115683700Y-88173700D01*
X115659314Y-88176102D01*
X115635865Y-88183215D01*
X115614254Y-88194766D01*
X115595312Y-88210312D01*
X115579766Y-88229254D01*
X115568215Y-88250865D01*
X115561102Y-88274314D01*
X115558700Y-88298700D01*
X114706300Y-88298700D01*
X114706300Y-88196300D01*
X115456300Y-88196300D01*
X115480686Y-88193898D01*
X115504135Y-88186785D01*
X115525746Y-88175234D01*
X115544688Y-88159688D01*
X115560234Y-88140746D01*
X115571785Y-88119135D01*
X115578898Y-88095686D01*
X115581300Y-88071300D01*
X115581300Y-87321300D01*
X121483700Y-87321300D01*
X121483700Y-88071300D01*
X121483700Y-88071300D01*
G37*
G36*
X121183700Y-93798700D02*
X115881300Y-93798700D01*
X115881300Y-88496300D01*
X121183700Y-88496300D01*
X121183700Y-93798700D01*
X121183700Y-93798700D01*
G37*
G36*
X124426200Y-94826200D02*
X123573800Y-94826200D01*
X123573800Y-93073800D01*
X124426200Y-93073800D01*
X124426200Y-94826200D01*
X124426200Y-94826200D01*
G37*
G36*
X132751200Y-92173800D02*
X132753602Y-92198186D01*
X132760715Y-92221635D01*
X132772266Y-92243246D01*
X132787812Y-92262188D01*
X132806754Y-92277734D01*
X132828365Y-92289285D01*
X132851814Y-92296398D01*
X132876200Y-92298800D01*
X133726200Y-92298800D01*
X133726200Y-94201200D01*
X132876200Y-94201200D01*
X132851814Y-94203602D01*
X132828365Y-94210715D01*
X132806754Y-94222266D01*
X132787812Y-94237812D01*
X132772266Y-94256754D01*
X132760715Y-94278365D01*
X132753602Y-94301814D01*
X132751200Y-94326200D01*
X132751200Y-94676200D01*
X131348800Y-94676200D01*
X131348800Y-94326200D01*
X131346398Y-94301814D01*
X131339285Y-94278365D01*
X131327734Y-94256754D01*
X131312188Y-94237812D01*
X131293246Y-94222266D01*
X131271635Y-94210715D01*
X131248186Y-94203602D01*
X131223800Y-94201200D01*
X130373800Y-94201200D01*
X130373800Y-92776200D01*
X131201200Y-92776200D01*
X131201200Y-93723800D01*
X131203602Y-93748186D01*
X131210715Y-93771635D01*
X131222266Y-93793246D01*
X131237812Y-93812188D01*
X131256754Y-93827734D01*
X131278365Y-93839285D01*
X131301814Y-93846398D01*
X131326200Y-93848800D01*
X132773800Y-93848800D01*
X132798186Y-93846398D01*
X132821635Y-93839285D01*
X132843246Y-93827734D01*
X132862188Y-93812188D01*
X132877734Y-93793246D01*
X132889285Y-93771635D01*
X132896398Y-93748186D01*
X132898800Y-93723800D01*
X132898800Y-92776200D01*
X132896398Y-92751814D01*
X132889285Y-92728365D01*
X132877734Y-92706754D01*
X132862188Y-92687812D01*
X132843246Y-92672266D01*
X132821635Y-92660715D01*
X132798186Y-92653602D01*
X132773800Y-92651200D01*
X131326200Y-92651200D01*
X131301814Y-92653602D01*
X131278365Y-92660715D01*
X131256754Y-92672266D01*
X131237812Y-92687812D01*
X131222266Y-92706754D01*
X131210715Y-92728365D01*
X131203602Y-92751814D01*
X131201200Y-92776200D01*
X130373800Y-92776200D01*
X130373800Y-92298800D01*
X131223800Y-92298800D01*
X131248186Y-92296398D01*
X131271635Y-92289285D01*
X131293246Y-92277734D01*
X131312188Y-92262188D01*
X131327734Y-92243246D01*
X131339285Y-92221635D01*
X131346398Y-92198186D01*
X131348800Y-92173800D01*
X131348800Y-91823800D01*
X132751200Y-91823800D01*
X132751200Y-92173800D01*
X132751200Y-92173800D01*
G37*
G36*
X111476200Y-94176200D02*
X109723800Y-94176200D01*
X109723800Y-91423800D01*
X111476200Y-91423800D01*
X111476200Y-94176200D01*
X111476200Y-94176200D01*
G37*
G36*
X128591200Y-93966200D02*
X127678800Y-93966200D01*
X127678800Y-92213800D01*
X128591200Y-92213800D01*
X128591200Y-93966200D01*
X128591200Y-93966200D01*
G37*
G36*
X127321200Y-93966200D02*
X126408800Y-93966200D01*
X126408800Y-92213800D01*
X127321200Y-92213800D01*
X127321200Y-93966200D01*
X127321200Y-93966200D01*
G37*
G36*
X114001200Y-92826200D02*
X113148800Y-92826200D01*
X113148800Y-91073800D01*
X114001200Y-91073800D01*
X114001200Y-92826200D01*
X114001200Y-92826200D01*
G37*
G36*
X125226200Y-92376200D02*
X124373800Y-92376200D01*
X124373800Y-90623800D01*
X125226200Y-90623800D01*
X125226200Y-92376200D01*
X125226200Y-92376200D01*
G37*
G36*
X106156141Y-87745253D02*
X106494436Y-87812544D01*
X106854082Y-87961514D01*
X106947299Y-88023800D01*
X107177757Y-88177787D01*
X107453013Y-88453043D01*
X107453015Y-88453046D01*
X107669286Y-88776718D01*
X107818256Y-89136364D01*
X107894200Y-89518161D01*
X107894200Y-89907439D01*
X107818256Y-90289236D01*
X107669286Y-90648882D01*
X107474094Y-90941007D01*
X107453013Y-90972557D01*
X107177757Y-91247813D01*
X107177754Y-91247815D01*
X106854082Y-91464086D01*
X106494436Y-91613056D01*
X106112640Y-91689000D01*
X105723360Y-91689000D01*
X105532463Y-91651028D01*
X105341564Y-91613056D01*
X104981918Y-91464086D01*
X104658246Y-91247815D01*
X104658243Y-91247813D01*
X104382987Y-90972557D01*
X104361906Y-90941007D01*
X104166714Y-90648882D01*
X104017744Y-90289236D01*
X103941800Y-89907439D01*
X103941800Y-89518161D01*
X104017744Y-89136364D01*
X104166714Y-88776718D01*
X104382985Y-88453046D01*
X104382987Y-88453043D01*
X104658243Y-88177787D01*
X104888701Y-88023800D01*
X104981918Y-87961514D01*
X105341564Y-87812544D01*
X105679859Y-87745253D01*
X105723360Y-87736600D01*
X106112640Y-87736600D01*
X106156141Y-87745253D01*
X106156141Y-87745253D01*
G37*
G36*
X140026200Y-90276200D02*
X138155858Y-90276200D01*
X138131472Y-90278602D01*
X138108023Y-90285715D01*
X138086412Y-90297266D01*
X138067470Y-90312812D01*
X138051924Y-90331754D01*
X138040373Y-90353365D01*
X138033260Y-90376814D01*
X138030858Y-90401200D01*
X138033260Y-90425586D01*
X138040374Y-90449037D01*
X138044498Y-90458993D01*
X138076250Y-90618620D01*
X138076250Y-90781380D01*
X138044498Y-90941007D01*
X137982214Y-91091375D01*
X137891788Y-91226707D01*
X137776707Y-91341788D01*
X137641375Y-91432214D01*
X137553292Y-91468699D01*
X137491008Y-91494498D01*
X137411193Y-91510374D01*
X137331380Y-91526250D01*
X137168620Y-91526250D01*
X137008992Y-91494498D01*
X136946708Y-91468699D01*
X136858625Y-91432214D01*
X136723293Y-91341788D01*
X136608212Y-91226707D01*
X136517786Y-91091375D01*
X136455502Y-90941007D01*
X136423750Y-90781380D01*
X136423750Y-90618620D01*
X136455502Y-90458993D01*
X136469340Y-90425586D01*
X136481301Y-90396708D01*
X136517786Y-90308625D01*
X136608212Y-90173293D01*
X136723293Y-90058212D01*
X136858625Y-89967786D01*
X136946708Y-89931301D01*
X137008992Y-89905502D01*
X137088807Y-89889626D01*
X137168620Y-89873750D01*
X137331380Y-89873750D01*
X137491008Y-89905502D01*
X137553292Y-89931301D01*
X137641375Y-89967786D01*
X137776707Y-90058212D01*
X137860412Y-90141917D01*
X137879354Y-90157463D01*
X137900965Y-90169014D01*
X137924414Y-90176127D01*
X137948800Y-90178529D01*
X137973186Y-90176127D01*
X137996635Y-90169014D01*
X138018246Y-90157463D01*
X138037188Y-90141917D01*
X138052734Y-90122975D01*
X138064285Y-90101364D01*
X138071398Y-90077915D01*
X138073800Y-90053529D01*
X138073800Y-88323800D01*
X140026200Y-88323800D01*
X140026200Y-90276200D01*
X140026200Y-90276200D01*
G37*
G36*
X114001200Y-90776200D02*
X113148800Y-90776200D01*
X113148800Y-87023800D01*
X114001200Y-87023800D01*
X114001200Y-90776200D01*
X114001200Y-90776200D01*
G37*
G36*
X111476200Y-90576200D02*
X109723800Y-90576200D01*
X109723800Y-87823800D01*
X111476200Y-87823800D01*
X111476200Y-90576200D01*
X111476200Y-90576200D01*
G37*
G36*
X125226200Y-89526200D02*
X124373800Y-89526200D01*
X124373800Y-87773800D01*
X125226200Y-87773800D01*
X125226200Y-89526200D01*
X125226200Y-89526200D01*
G37*
G36*
X136794747Y-87091315D02*
X136972404Y-87164902D01*
X137132294Y-87271738D01*
X137268262Y-87407706D01*
X137375098Y-87567596D01*
X137448685Y-87745253D01*
X137486200Y-87933852D01*
X137486200Y-88126148D01*
X137448685Y-88314747D01*
X137375098Y-88492404D01*
X137268262Y-88652294D01*
X137132294Y-88788262D01*
X136972404Y-88895098D01*
X136794747Y-88968685D01*
X136606148Y-89006200D01*
X136413852Y-89006200D01*
X136225253Y-88968685D01*
X136047596Y-88895098D01*
X135887706Y-88788262D01*
X135751738Y-88652294D01*
X135644902Y-88492404D01*
X135571315Y-88314747D01*
X135533800Y-88126148D01*
X135533800Y-87933852D01*
X135571315Y-87745253D01*
X135644902Y-87567596D01*
X135751738Y-87407706D01*
X135887706Y-87271738D01*
X136047596Y-87164902D01*
X136225253Y-87091315D01*
X136413852Y-87053800D01*
X136606148Y-87053800D01*
X136794747Y-87091315D01*
X136794747Y-87091315D01*
G37*
G36*
X128591200Y-88886200D02*
X127678800Y-88886200D01*
X127678800Y-87133800D01*
X128591200Y-87133800D01*
X128591200Y-88886200D01*
X128591200Y-88886200D01*
G37*
G36*
X127321200Y-88886200D02*
X126408800Y-88886200D01*
X126408800Y-87133800D01*
X127321200Y-87133800D01*
X127321200Y-88886200D01*
X127321200Y-88886200D01*
G37*
G36*
X139334747Y-85821315D02*
X139512404Y-85894902D01*
X139672294Y-86001738D01*
X139808262Y-86137706D01*
X139915098Y-86297596D01*
X139988685Y-86475253D01*
X140026200Y-86663852D01*
X140026200Y-86856148D01*
X139988685Y-87044747D01*
X139915098Y-87222404D01*
X139808262Y-87382294D01*
X139672294Y-87518262D01*
X139512404Y-87625098D01*
X139334747Y-87698685D01*
X139146148Y-87736200D01*
X138953852Y-87736200D01*
X138765253Y-87698685D01*
X138587596Y-87625098D01*
X138427706Y-87518262D01*
X138291738Y-87382294D01*
X138184902Y-87222404D01*
X138111315Y-87044747D01*
X138073800Y-86856148D01*
X138073800Y-86663852D01*
X138111315Y-86475253D01*
X138184902Y-86297596D01*
X138291738Y-86137706D01*
X138427706Y-86001738D01*
X138587596Y-85894902D01*
X138765253Y-85821315D01*
X138953852Y-85783800D01*
X139146148Y-85783800D01*
X139334747Y-85821315D01*
X139334747Y-85821315D01*
G37*
G36*
X107576200Y-87226200D02*
X106723800Y-87226200D01*
X106723800Y-85473800D01*
X107576200Y-85473800D01*
X107576200Y-87226200D01*
X107576200Y-87226200D01*
G37*
G36*
X98707700Y-87087200D02*
X96555300Y-87087200D01*
X96555300Y-80934800D01*
X98707700Y-80934800D01*
X98707700Y-87087200D01*
X98707700Y-87087200D01*
G37*
G36*
X102707700Y-87087200D02*
X100555300Y-87087200D01*
X100555300Y-80934800D01*
X102707700Y-80934800D01*
X102707700Y-87087200D01*
X102707700Y-87087200D01*
G37*
G36*
X136794747Y-84551315D02*
X136972404Y-84624902D01*
X137132294Y-84731738D01*
X137268262Y-84867706D01*
X137375098Y-85027596D01*
X137448685Y-85205253D01*
X137486200Y-85393852D01*
X137486200Y-85586148D01*
X137448685Y-85774747D01*
X137375098Y-85952404D01*
X137268262Y-86112294D01*
X137132294Y-86248262D01*
X136972404Y-86355098D01*
X136794747Y-86428685D01*
X136606148Y-86466200D01*
X136413852Y-86466200D01*
X136225253Y-86428685D01*
X136047596Y-86355098D01*
X135887706Y-86248262D01*
X135751738Y-86112294D01*
X135644902Y-85952404D01*
X135571315Y-85774747D01*
X135533800Y-85586148D01*
X135533800Y-85393852D01*
X135571315Y-85205253D01*
X135644902Y-85027596D01*
X135751738Y-84867706D01*
X135887706Y-84731738D01*
X136047596Y-84624902D01*
X136225253Y-84551315D01*
X136413852Y-84513800D01*
X136606148Y-84513800D01*
X136794747Y-84551315D01*
X136794747Y-84551315D01*
G37*
G36*
X132101200Y-85926200D02*
X130948800Y-85926200D01*
X130948800Y-84773800D01*
X132101200Y-84773800D01*
X132101200Y-85926200D01*
X132101200Y-85926200D01*
G37*
G36*
X133851200Y-85926200D02*
X132698800Y-85926200D01*
X132698800Y-84773800D01*
X133851200Y-84773800D01*
X133851200Y-85926200D01*
X133851200Y-85926200D01*
G37*
G36*
X110434747Y-83951315D02*
X110612404Y-84024902D01*
X110772294Y-84131738D01*
X110908262Y-84267706D01*
X111015098Y-84427596D01*
X111088685Y-84605253D01*
X111126200Y-84793852D01*
X111126200Y-84986148D01*
X111088685Y-85174747D01*
X111015098Y-85352404D01*
X110908262Y-85512294D01*
X110772294Y-85648262D01*
X110612404Y-85755098D01*
X110434747Y-85828685D01*
X110246148Y-85866200D01*
X110053852Y-85866200D01*
X109865253Y-85828685D01*
X109687596Y-85755098D01*
X109527706Y-85648262D01*
X109391738Y-85512294D01*
X109284902Y-85352404D01*
X109211315Y-85174747D01*
X109173800Y-84986148D01*
X109173800Y-84793852D01*
X109211315Y-84605253D01*
X109284902Y-84427596D01*
X109391738Y-84267706D01*
X109527706Y-84131738D01*
X109687596Y-84024902D01*
X109865253Y-83951315D01*
X110053852Y-83913800D01*
X110246148Y-83913800D01*
X110434747Y-83951315D01*
X110434747Y-83951315D01*
G37*
G36*
X112974747Y-83951315D02*
X113152404Y-84024902D01*
X113312294Y-84131738D01*
X113448262Y-84267706D01*
X113555098Y-84427596D01*
X113628685Y-84605253D01*
X113666200Y-84793852D01*
X113666200Y-84986148D01*
X113628685Y-85174747D01*
X113555098Y-85352404D01*
X113448262Y-85512294D01*
X113312294Y-85648262D01*
X113152404Y-85755098D01*
X112974747Y-85828685D01*
X112786148Y-85866200D01*
X112593852Y-85866200D01*
X112405253Y-85828685D01*
X112227596Y-85755098D01*
X112067706Y-85648262D01*
X111931738Y-85512294D01*
X111824902Y-85352404D01*
X111751315Y-85174747D01*
X111713800Y-84986148D01*
X111713800Y-84793852D01*
X111751315Y-84605253D01*
X111824902Y-84427596D01*
X111931738Y-84267706D01*
X112067706Y-84131738D01*
X112227596Y-84024902D01*
X112405253Y-83951315D01*
X112593852Y-83913800D01*
X112786148Y-83913800D01*
X112974747Y-83951315D01*
X112974747Y-83951315D01*
G37*
G36*
X124174747Y-83951315D02*
X124352404Y-84024902D01*
X124512294Y-84131738D01*
X124648262Y-84267706D01*
X124755098Y-84427596D01*
X124828685Y-84605253D01*
X124866200Y-84793852D01*
X124866200Y-84986148D01*
X124828685Y-85174747D01*
X124755098Y-85352404D01*
X124648262Y-85512294D01*
X124512294Y-85648262D01*
X124352404Y-85755098D01*
X124174747Y-85828685D01*
X123986148Y-85866200D01*
X123793852Y-85866200D01*
X123605253Y-85828685D01*
X123427596Y-85755098D01*
X123267706Y-85648262D01*
X123131738Y-85512294D01*
X123024902Y-85352404D01*
X122951315Y-85174747D01*
X122913800Y-84986148D01*
X122913800Y-84793852D01*
X122951315Y-84605253D01*
X123024902Y-84427596D01*
X123131738Y-84267706D01*
X123267706Y-84131738D01*
X123427596Y-84024902D01*
X123605253Y-83951315D01*
X123793852Y-83913800D01*
X123986148Y-83913800D01*
X124174747Y-83951315D01*
X124174747Y-83951315D01*
G37*
G36*
X121634747Y-83951315D02*
X121812404Y-84024902D01*
X121972294Y-84131738D01*
X122108262Y-84267706D01*
X122215098Y-84427596D01*
X122288685Y-84605253D01*
X122326200Y-84793852D01*
X122326200Y-84986148D01*
X122288685Y-85174747D01*
X122215098Y-85352404D01*
X122108262Y-85512294D01*
X121972294Y-85648262D01*
X121812404Y-85755098D01*
X121634747Y-85828685D01*
X121446148Y-85866200D01*
X121253852Y-85866200D01*
X121065253Y-85828685D01*
X120887596Y-85755098D01*
X120727706Y-85648262D01*
X120591738Y-85512294D01*
X120484902Y-85352404D01*
X120411315Y-85174747D01*
X120373800Y-84986148D01*
X120373800Y-84793852D01*
X120411315Y-84605253D01*
X120484902Y-84427596D01*
X120591738Y-84267706D01*
X120727706Y-84131738D01*
X120887596Y-84024902D01*
X121065253Y-83951315D01*
X121253852Y-83913800D01*
X121446148Y-83913800D01*
X121634747Y-83951315D01*
X121634747Y-83951315D01*
G37*
G36*
X115514747Y-83951315D02*
X115692404Y-84024902D01*
X115852294Y-84131738D01*
X115988262Y-84267706D01*
X116095098Y-84427596D01*
X116168685Y-84605253D01*
X116206200Y-84793852D01*
X116206200Y-84986148D01*
X116168685Y-85174747D01*
X116095098Y-85352404D01*
X115988262Y-85512294D01*
X115852294Y-85648262D01*
X115692404Y-85755098D01*
X115514747Y-85828685D01*
X115326148Y-85866200D01*
X115133852Y-85866200D01*
X114945253Y-85828685D01*
X114767596Y-85755098D01*
X114607706Y-85648262D01*
X114471738Y-85512294D01*
X114364902Y-85352404D01*
X114291315Y-85174747D01*
X114253800Y-84986148D01*
X114253800Y-84793852D01*
X114291315Y-84605253D01*
X114364902Y-84427596D01*
X114471738Y-84267706D01*
X114607706Y-84131738D01*
X114767596Y-84024902D01*
X114945253Y-83951315D01*
X115133852Y-83913800D01*
X115326148Y-83913800D01*
X115514747Y-83951315D01*
X115514747Y-83951315D01*
G37*
G36*
X126714747Y-83951315D02*
X126892404Y-84024902D01*
X127052294Y-84131738D01*
X127188262Y-84267706D01*
X127295098Y-84427596D01*
X127368685Y-84605253D01*
X127406200Y-84793852D01*
X127406200Y-84986148D01*
X127368685Y-85174747D01*
X127295098Y-85352404D01*
X127188262Y-85512294D01*
X127052294Y-85648262D01*
X126892404Y-85755098D01*
X126714747Y-85828685D01*
X126526148Y-85866200D01*
X126333852Y-85866200D01*
X126145253Y-85828685D01*
X125967596Y-85755098D01*
X125807706Y-85648262D01*
X125671738Y-85512294D01*
X125564902Y-85352404D01*
X125491315Y-85174747D01*
X125453800Y-84986148D01*
X125453800Y-84793852D01*
X125491315Y-84605253D01*
X125564902Y-84427596D01*
X125671738Y-84267706D01*
X125807706Y-84131738D01*
X125967596Y-84024902D01*
X126145253Y-83951315D01*
X126333852Y-83913800D01*
X126526148Y-83913800D01*
X126714747Y-83951315D01*
X126714747Y-83951315D01*
G37*
G36*
X139334747Y-83281315D02*
X139512404Y-83354902D01*
X139672294Y-83461738D01*
X139808262Y-83597706D01*
X139915098Y-83757596D01*
X139988685Y-83935253D01*
X140026200Y-84123852D01*
X140026200Y-84316148D01*
X139988685Y-84504747D01*
X139915098Y-84682404D01*
X139808262Y-84842294D01*
X139672294Y-84978262D01*
X139512404Y-85085098D01*
X139334747Y-85158685D01*
X139146148Y-85196200D01*
X138953852Y-85196200D01*
X138765253Y-85158685D01*
X138587596Y-85085098D01*
X138427706Y-84978262D01*
X138291738Y-84842294D01*
X138184902Y-84682404D01*
X138111315Y-84504747D01*
X138073800Y-84316148D01*
X138073800Y-84123852D01*
X138111315Y-83935253D01*
X138184902Y-83757596D01*
X138291738Y-83597706D01*
X138427706Y-83461738D01*
X138587596Y-83354902D01*
X138765253Y-83281315D01*
X138953852Y-83243800D01*
X139146148Y-83243800D01*
X139334747Y-83281315D01*
X139334747Y-83281315D01*
G37*
G36*
X117476200Y-83244142D02*
X117478602Y-83268528D01*
X117485715Y-83291977D01*
X117497266Y-83313588D01*
X117512812Y-83332530D01*
X117531754Y-83348076D01*
X117553365Y-83359627D01*
X117576814Y-83366740D01*
X117601200Y-83369142D01*
X117625586Y-83366740D01*
X117649033Y-83359627D01*
X117658992Y-83355502D01*
X117818620Y-83323750D01*
X117981380Y-83323750D01*
X118141008Y-83355502D01*
X118203292Y-83381301D01*
X118291375Y-83417786D01*
X118426707Y-83508212D01*
X118541788Y-83623293D01*
X118632214Y-83758625D01*
X118668699Y-83846708D01*
X118694498Y-83908992D01*
X118726250Y-84068621D01*
X118726250Y-84231379D01*
X118694498Y-84391008D01*
X118668699Y-84453292D01*
X118632214Y-84541375D01*
X118541788Y-84676707D01*
X118426707Y-84791788D01*
X118291375Y-84882214D01*
X118203292Y-84918699D01*
X118141008Y-84944498D01*
X117981380Y-84976250D01*
X117818620Y-84976250D01*
X117658992Y-84944498D01*
X117596708Y-84918699D01*
X117508625Y-84882214D01*
X117373293Y-84791788D01*
X117258212Y-84676707D01*
X117167786Y-84541375D01*
X117131301Y-84453292D01*
X117105502Y-84391008D01*
X117073750Y-84231379D01*
X117073750Y-84068621D01*
X117105502Y-83908992D01*
X117131301Y-83846708D01*
X117167786Y-83758625D01*
X117258212Y-83623293D01*
X117341917Y-83539588D01*
X117357463Y-83520646D01*
X117369014Y-83499035D01*
X117376127Y-83475586D01*
X117378529Y-83451200D01*
X117376127Y-83426814D01*
X117369014Y-83403365D01*
X117357463Y-83381754D01*
X117341917Y-83362812D01*
X117322975Y-83347266D01*
X117301364Y-83335715D01*
X117277915Y-83328602D01*
X117253529Y-83326200D01*
X115523800Y-83326200D01*
X115523800Y-81373800D01*
X117476200Y-81373800D01*
X117476200Y-83244142D01*
X117476200Y-83244142D01*
G37*
G36*
X128676200Y-83244142D02*
X128678602Y-83268528D01*
X128685715Y-83291977D01*
X128697266Y-83313588D01*
X128712812Y-83332530D01*
X128731754Y-83348076D01*
X128753365Y-83359627D01*
X128776814Y-83366740D01*
X128801200Y-83369142D01*
X128825586Y-83366740D01*
X128849033Y-83359627D01*
X128858992Y-83355502D01*
X129018620Y-83323750D01*
X129181380Y-83323750D01*
X129341008Y-83355502D01*
X129403292Y-83381301D01*
X129491375Y-83417786D01*
X129626707Y-83508212D01*
X129741788Y-83623293D01*
X129832214Y-83758625D01*
X129868699Y-83846708D01*
X129894498Y-83908992D01*
X129926250Y-84068621D01*
X129926250Y-84231379D01*
X129894498Y-84391008D01*
X129868699Y-84453292D01*
X129832214Y-84541375D01*
X129741788Y-84676707D01*
X129626707Y-84791788D01*
X129491375Y-84882214D01*
X129403292Y-84918699D01*
X129341008Y-84944498D01*
X129181380Y-84976250D01*
X129018620Y-84976250D01*
X128858992Y-84944498D01*
X128796708Y-84918699D01*
X128708625Y-84882214D01*
X128573293Y-84791788D01*
X128458212Y-84676707D01*
X128367786Y-84541375D01*
X128331301Y-84453292D01*
X128305502Y-84391008D01*
X128273750Y-84231379D01*
X128273750Y-84068621D01*
X128305502Y-83908992D01*
X128331301Y-83846708D01*
X128367786Y-83758625D01*
X128458212Y-83623293D01*
X128541917Y-83539588D01*
X128557463Y-83520646D01*
X128569014Y-83499035D01*
X128576127Y-83475586D01*
X128578529Y-83451200D01*
X128576127Y-83426814D01*
X128569014Y-83403365D01*
X128557463Y-83381754D01*
X128541917Y-83362812D01*
X128522975Y-83347266D01*
X128501364Y-83335715D01*
X128477915Y-83328602D01*
X128453529Y-83326200D01*
X126723800Y-83326200D01*
X126723800Y-81373800D01*
X128676200Y-81373800D01*
X128676200Y-83244142D01*
X128676200Y-83244142D01*
G37*
G36*
X136794747Y-82011315D02*
X136972404Y-82084902D01*
X137132294Y-82191738D01*
X137268262Y-82327706D01*
X137375098Y-82487596D01*
X137448685Y-82665253D01*
X137486200Y-82853852D01*
X137486200Y-83046148D01*
X137448685Y-83234747D01*
X137375098Y-83412404D01*
X137268262Y-83572294D01*
X137132294Y-83708262D01*
X136972404Y-83815098D01*
X136794747Y-83888685D01*
X136606148Y-83926200D01*
X136413852Y-83926200D01*
X136225253Y-83888685D01*
X136047596Y-83815098D01*
X135887706Y-83708262D01*
X135751738Y-83572294D01*
X135644902Y-83412404D01*
X135571315Y-83234747D01*
X135533800Y-83046148D01*
X135533800Y-82853852D01*
X135571315Y-82665253D01*
X135644902Y-82487596D01*
X135751738Y-82327706D01*
X135887706Y-82191738D01*
X136047596Y-82084902D01*
X136225253Y-82011315D01*
X136413852Y-81973800D01*
X136606148Y-81973800D01*
X136794747Y-82011315D01*
X136794747Y-82011315D01*
G37*
G36*
X111704747Y-81411315D02*
X111882404Y-81484902D01*
X112042294Y-81591738D01*
X112178262Y-81727706D01*
X112285098Y-81887596D01*
X112358685Y-82065253D01*
X112396200Y-82253852D01*
X112396200Y-82446148D01*
X112358685Y-82634747D01*
X112285098Y-82812404D01*
X112178262Y-82972294D01*
X112042294Y-83108262D01*
X111882404Y-83215098D01*
X111704747Y-83288685D01*
X111516148Y-83326200D01*
X111323852Y-83326200D01*
X111135253Y-83288685D01*
X110957596Y-83215098D01*
X110797706Y-83108262D01*
X110661738Y-82972294D01*
X110554902Y-82812404D01*
X110481315Y-82634747D01*
X110443800Y-82446148D01*
X110443800Y-82253852D01*
X110481315Y-82065253D01*
X110554902Y-81887596D01*
X110661738Y-81727706D01*
X110797706Y-81591738D01*
X110957596Y-81484902D01*
X111135253Y-81411315D01*
X111323852Y-81373800D01*
X111516148Y-81373800D01*
X111704747Y-81411315D01*
X111704747Y-81411315D01*
G37*
G36*
X114244747Y-81411315D02*
X114422404Y-81484902D01*
X114582294Y-81591738D01*
X114718262Y-81727706D01*
X114825098Y-81887596D01*
X114898685Y-82065253D01*
X114936200Y-82253852D01*
X114936200Y-82446148D01*
X114898685Y-82634747D01*
X114825098Y-82812404D01*
X114718262Y-82972294D01*
X114582294Y-83108262D01*
X114422404Y-83215098D01*
X114244747Y-83288685D01*
X114056148Y-83326200D01*
X113863852Y-83326200D01*
X113675253Y-83288685D01*
X113497596Y-83215098D01*
X113337706Y-83108262D01*
X113201738Y-82972294D01*
X113094902Y-82812404D01*
X113021315Y-82634747D01*
X112983800Y-82446148D01*
X112983800Y-82253852D01*
X113021315Y-82065253D01*
X113094902Y-81887596D01*
X113201738Y-81727706D01*
X113337706Y-81591738D01*
X113497596Y-81484902D01*
X113675253Y-81411315D01*
X113863852Y-81373800D01*
X114056148Y-81373800D01*
X114244747Y-81411315D01*
X114244747Y-81411315D01*
G37*
G36*
X122904747Y-81411315D02*
X123082404Y-81484902D01*
X123242294Y-81591738D01*
X123378262Y-81727706D01*
X123485098Y-81887596D01*
X123558685Y-82065253D01*
X123596200Y-82253852D01*
X123596200Y-82446148D01*
X123558685Y-82634747D01*
X123485098Y-82812404D01*
X123378262Y-82972294D01*
X123242294Y-83108262D01*
X123082404Y-83215098D01*
X122904747Y-83288685D01*
X122716148Y-83326200D01*
X122523852Y-83326200D01*
X122335253Y-83288685D01*
X122157596Y-83215098D01*
X121997706Y-83108262D01*
X121861738Y-82972294D01*
X121754902Y-82812404D01*
X121681315Y-82634747D01*
X121643800Y-82446148D01*
X121643800Y-82253852D01*
X121681315Y-82065253D01*
X121754902Y-81887596D01*
X121861738Y-81727706D01*
X121997706Y-81591738D01*
X122157596Y-81484902D01*
X122335253Y-81411315D01*
X122523852Y-81373800D01*
X122716148Y-81373800D01*
X122904747Y-81411315D01*
X122904747Y-81411315D01*
G37*
G36*
X125444747Y-81411315D02*
X125622404Y-81484902D01*
X125782294Y-81591738D01*
X125918262Y-81727706D01*
X126025098Y-81887596D01*
X126098685Y-82065253D01*
X126136200Y-82253852D01*
X126136200Y-82446148D01*
X126098685Y-82634747D01*
X126025098Y-82812404D01*
X125918262Y-82972294D01*
X125782294Y-83108262D01*
X125622404Y-83215098D01*
X125444747Y-83288685D01*
X125256148Y-83326200D01*
X125063852Y-83326200D01*
X124875253Y-83288685D01*
X124697596Y-83215098D01*
X124537706Y-83108262D01*
X124401738Y-82972294D01*
X124294902Y-82812404D01*
X124221315Y-82634747D01*
X124183800Y-82446148D01*
X124183800Y-82253852D01*
X124221315Y-82065253D01*
X124294902Y-81887596D01*
X124401738Y-81727706D01*
X124537706Y-81591738D01*
X124697596Y-81484902D01*
X124875253Y-81411315D01*
X125063852Y-81373800D01*
X125256148Y-81373800D01*
X125444747Y-81411315D01*
X125444747Y-81411315D01*
G37*
G36*
X107076200Y-82501200D02*
X106323800Y-82501200D01*
X106323800Y-81298800D01*
X107076200Y-81298800D01*
X107076200Y-82501200D01*
X107076200Y-82501200D01*
G37*
G36*
X105476200Y-82501200D02*
X104723800Y-82501200D01*
X104723800Y-81298800D01*
X105476200Y-81298800D01*
X105476200Y-82501200D01*
X105476200Y-82501200D01*
G37*
G36*
X133851200Y-82426200D02*
X132698800Y-82426200D01*
X132698800Y-81273800D01*
X133851200Y-81273800D01*
X133851200Y-82426200D01*
X133851200Y-82426200D01*
G37*
G36*
X132101200Y-82426200D02*
X130948800Y-82426200D01*
X130948800Y-81273800D01*
X132101200Y-81273800D01*
X132101200Y-82426200D01*
X132101200Y-82426200D01*
G37*
M02*
