G04 #@! TF.GenerationSoftware,KiCad,Pcbnew,5.0.2-bee76a0~70~ubuntu18.04.1*
G04 #@! TF.CreationDate,2018-12-08T03:17:05+01:00*
G04 #@! TF.ProjectId,Roboy_motorboard,526f626f-795f-46d6-9f74-6f72626f6172,rev?*
G04 #@! TF.SameCoordinates,Original*
G04 #@! TF.FileFunction,Soldermask,Bot*
G04 #@! TF.FilePolarity,Negative*
%FSLAX46Y46*%
G04 Gerber Fmt 4.6, Leading zero omitted, Abs format (unit mm)*
G04 Created by KiCad (PCBNEW 5.0.2-bee76a0~70~ubuntu18.04.1) date Sat 08 Dec 2018 03:17:05 CET*
%MOMM*%
%LPD*%
G01*
G04 APERTURE LIST*
%ADD10C,0.010000*%
%ADD11C,0.060000*%
%ADD12C,0.450000*%
%ADD13C,0.100000*%
G04 APERTURE END LIST*
D10*
G04 #@! TO.C,G\002A\002A\002A*
G36*
X114688589Y-100997658D02*
X114639697Y-100999034D01*
X114598209Y-101001227D01*
X114595752Y-101001404D01*
X114429270Y-101018617D01*
X114265144Y-101045619D01*
X114103737Y-101082236D01*
X113945411Y-101128297D01*
X113790530Y-101183628D01*
X113639455Y-101248056D01*
X113492549Y-101321410D01*
X113350176Y-101403515D01*
X113212696Y-101494199D01*
X113080474Y-101593290D01*
X112953872Y-101700614D01*
X112833252Y-101815999D01*
X112788512Y-101862506D01*
X112677612Y-101987802D01*
X112575148Y-102118680D01*
X112481234Y-102254894D01*
X112395986Y-102396197D01*
X112319515Y-102542344D01*
X112251936Y-102693091D01*
X112193363Y-102848190D01*
X112143910Y-103007396D01*
X112103690Y-103170465D01*
X112072816Y-103337149D01*
X112058973Y-103437580D01*
X112056312Y-103465614D01*
X112053944Y-103502158D01*
X112051893Y-103545565D01*
X112050182Y-103594188D01*
X112048832Y-103646379D01*
X112047869Y-103700493D01*
X112047313Y-103754881D01*
X112047190Y-103807898D01*
X112047521Y-103857897D01*
X112048329Y-103903229D01*
X112049638Y-103942250D01*
X112051471Y-103973311D01*
X112051479Y-103973409D01*
X112069575Y-104137738D01*
X112097477Y-104299947D01*
X112134976Y-104459636D01*
X112181863Y-104616405D01*
X112237932Y-104769853D01*
X112302974Y-104919580D01*
X112376780Y-105065186D01*
X112459142Y-105206271D01*
X112549853Y-105342433D01*
X112648705Y-105473273D01*
X112755488Y-105598391D01*
X112869995Y-105717385D01*
X112992018Y-105829856D01*
X113036173Y-105867365D01*
X113167661Y-105970164D01*
X113304444Y-106064370D01*
X113446180Y-106149844D01*
X113592525Y-106226444D01*
X113743137Y-106294030D01*
X113897672Y-106352462D01*
X114055787Y-106401599D01*
X114217139Y-106441300D01*
X114381385Y-106471425D01*
X114548182Y-106491834D01*
X114563780Y-106493230D01*
X114595395Y-106495421D01*
X114634727Y-106497283D01*
X114679663Y-106498791D01*
X114728091Y-106499916D01*
X114777898Y-106500634D01*
X114826971Y-106500917D01*
X114873198Y-106500740D01*
X114914466Y-106500076D01*
X114948662Y-106498899D01*
X114961306Y-106498187D01*
X115130938Y-106482042D01*
X115297622Y-106456308D01*
X115461092Y-106421099D01*
X115621084Y-106376529D01*
X115777333Y-106322712D01*
X115929573Y-106259763D01*
X116077539Y-106187796D01*
X116220967Y-106106925D01*
X116359592Y-106017265D01*
X116493148Y-105918929D01*
X116621370Y-105812031D01*
X116682731Y-105756036D01*
X116801121Y-105637867D01*
X116911521Y-105513571D01*
X117013759Y-105383510D01*
X117107662Y-105248048D01*
X117193057Y-105107546D01*
X117269771Y-104962369D01*
X117337630Y-104812880D01*
X117396463Y-104659441D01*
X117446096Y-104502416D01*
X117486356Y-104342168D01*
X117517070Y-104179060D01*
X117538065Y-104013454D01*
X117543516Y-103949168D01*
X117545765Y-103908243D01*
X117547194Y-103859784D01*
X117547842Y-103805741D01*
X117547746Y-103748065D01*
X117547155Y-103704280D01*
X115864134Y-103704280D01*
X115863913Y-103764867D01*
X115863200Y-103817255D01*
X115861846Y-103863398D01*
X115859704Y-103905249D01*
X115856624Y-103944763D01*
X115852459Y-103983895D01*
X115847061Y-104024598D01*
X115840281Y-104068827D01*
X115833317Y-104110680D01*
X115808679Y-104235767D01*
X115776828Y-104365784D01*
X115738356Y-104499155D01*
X115693854Y-104634306D01*
X115643915Y-104769660D01*
X115589131Y-104903644D01*
X115530093Y-105034683D01*
X115467395Y-105161201D01*
X115401627Y-105281623D01*
X115377862Y-105322260D01*
X115352150Y-105364150D01*
X115327608Y-105401070D01*
X115302542Y-105435163D01*
X115275261Y-105468577D01*
X115244073Y-105503455D01*
X115207286Y-105541944D01*
X115193763Y-105555668D01*
X115125461Y-105622063D01*
X115059968Y-105680339D01*
X114995820Y-105731594D01*
X114931555Y-105776927D01*
X114865708Y-105817436D01*
X114796817Y-105854220D01*
X114794375Y-105855432D01*
X114727135Y-105886631D01*
X114659477Y-105913591D01*
X114590182Y-105936574D01*
X114518028Y-105955841D01*
X114441792Y-105971653D01*
X114360254Y-105984271D01*
X114272193Y-105993955D01*
X114176386Y-106000968D01*
X114095699Y-106004743D01*
X114081532Y-106004065D01*
X114060826Y-106001605D01*
X114036958Y-105997805D01*
X114023654Y-105995295D01*
X113917874Y-105968969D01*
X113813773Y-105932724D01*
X113711260Y-105886520D01*
X113610241Y-105830316D01*
X113531285Y-105778715D01*
X113495052Y-105752443D01*
X113454144Y-105721048D01*
X113409995Y-105685764D01*
X113364036Y-105647826D01*
X113317701Y-105608467D01*
X113272423Y-105568921D01*
X113229635Y-105530423D01*
X113190770Y-105494207D01*
X113157260Y-105461506D01*
X113130643Y-105433669D01*
X113080922Y-105376571D01*
X113031974Y-105315833D01*
X112984658Y-105252772D01*
X112939832Y-105188702D01*
X112898354Y-105124939D01*
X112861084Y-105062800D01*
X112828880Y-105003600D01*
X112802601Y-104948654D01*
X112784453Y-104903160D01*
X112772834Y-104866683D01*
X112766331Y-104836920D01*
X112764709Y-104811946D01*
X112767734Y-104789838D01*
X112769771Y-104782655D01*
X112778101Y-104749183D01*
X112784826Y-104705850D01*
X112789955Y-104652582D01*
X112791443Y-104630480D01*
X112793086Y-104607285D01*
X112794909Y-104587827D01*
X112796673Y-104574354D01*
X112783240Y-104580580D01*
X112742600Y-104583120D01*
X112712120Y-104580580D01*
X112686720Y-104567880D01*
X112663860Y-104547560D01*
X112646080Y-104527240D01*
X112623220Y-104499300D01*
X112590200Y-104453580D01*
X112539400Y-104385000D01*
X112503840Y-104308800D01*
X112447960Y-104143700D01*
X112404780Y-103970980D01*
X112376840Y-103805880D01*
X112384460Y-103676340D01*
X112397160Y-103511240D01*
X112425100Y-103343600D01*
X112465740Y-103175960D01*
X112503840Y-103061660D01*
X112526700Y-103013400D01*
X112550000Y-102990000D01*
X112574960Y-102975300D01*
X112620680Y-102967680D01*
X112671480Y-102967680D01*
X112700000Y-102980000D01*
X112720000Y-102990000D01*
X112750000Y-103020000D01*
X112790000Y-103070000D01*
X112850000Y-103190000D01*
X112882144Y-103292298D01*
X112882370Y-103282994D01*
X112883008Y-103275817D01*
X112883727Y-103259339D01*
X112884510Y-103234422D01*
X112885338Y-103201926D01*
X112886193Y-103162708D01*
X112887057Y-103117631D01*
X112887913Y-103067553D01*
X112888742Y-103013335D01*
X112889526Y-102955836D01*
X112889976Y-102919420D01*
X112890901Y-102844866D01*
X112891822Y-102779436D01*
X112892791Y-102722094D01*
X112893857Y-102671802D01*
X112895072Y-102627525D01*
X112896486Y-102588228D01*
X112898149Y-102552872D01*
X112900114Y-102520422D01*
X112902430Y-102489843D01*
X112905147Y-102460097D01*
X112908318Y-102430148D01*
X112911991Y-102398961D01*
X112916219Y-102365498D01*
X112917585Y-102354995D01*
X112926550Y-102292533D01*
X112937363Y-102227182D01*
X112949337Y-102162772D01*
X112961784Y-102103131D01*
X112966799Y-102081220D01*
X112972806Y-102055740D01*
X112978141Y-102033078D01*
X112982281Y-102015465D01*
X112984700Y-102005135D01*
X112984901Y-102004273D01*
X112990486Y-101994596D01*
X113003230Y-101980140D01*
X113021941Y-101961912D01*
X113045427Y-101940920D01*
X113072495Y-101918170D01*
X113101953Y-101894671D01*
X113132609Y-101871430D01*
X113163271Y-101849454D01*
X113187100Y-101833398D01*
X113280337Y-101778561D01*
X113379634Y-101731665D01*
X113485115Y-101692665D01*
X113596901Y-101661515D01*
X113715115Y-101638173D01*
X113725580Y-101636529D01*
X113770203Y-101630994D01*
X113822454Y-101626733D01*
X113879877Y-101623789D01*
X113940016Y-101622208D01*
X114000413Y-101622036D01*
X114058611Y-101623316D01*
X114112154Y-101626094D01*
X114144680Y-101628864D01*
X114281695Y-101646876D01*
X114413111Y-101672248D01*
X114538626Y-101704863D01*
X114657935Y-101744607D01*
X114770738Y-101791362D01*
X114876730Y-101845014D01*
X114975609Y-101905447D01*
X115067072Y-101972544D01*
X115087693Y-101989465D01*
X115120882Y-102018484D01*
X115153274Y-102049428D01*
X115186365Y-102083870D01*
X115221651Y-102123378D01*
X115260628Y-102169524D01*
X115269483Y-102180280D01*
X115373094Y-102312732D01*
X115466621Y-102445187D01*
X115550142Y-102577797D01*
X115623732Y-102710716D01*
X115687467Y-102844098D01*
X115741423Y-102978098D01*
X115785676Y-103112867D01*
X115820303Y-103248561D01*
X115835661Y-103325820D01*
X115843138Y-103368964D01*
X115849213Y-103407561D01*
X115854025Y-103443452D01*
X115857713Y-103478477D01*
X115860415Y-103514477D01*
X115862270Y-103553291D01*
X115863415Y-103596762D01*
X115863991Y-103646729D01*
X115864134Y-103704280D01*
X117547155Y-103704280D01*
X117546944Y-103688704D01*
X117545474Y-103629611D01*
X117543376Y-103572735D01*
X117540686Y-103520027D01*
X117537444Y-103473437D01*
X117533686Y-103434915D01*
X117533418Y-103432680D01*
X117507944Y-103263148D01*
X117473272Y-103097926D01*
X117429371Y-102936938D01*
X117376208Y-102780112D01*
X117313751Y-102627374D01*
X117241970Y-102478650D01*
X117160831Y-102333866D01*
X117070303Y-102192948D01*
X116970354Y-102055822D01*
X116902843Y-101971718D01*
X116877746Y-101942734D01*
X116846540Y-101908564D01*
X116810746Y-101870728D01*
X116771884Y-101830747D01*
X116731477Y-101790143D01*
X116691045Y-101750438D01*
X116652110Y-101713151D01*
X116616192Y-101679805D01*
X116584814Y-101651920D01*
X116573202Y-101642077D01*
X116456874Y-101549763D01*
X116339865Y-101466075D01*
X116220014Y-101389586D01*
X116095164Y-101318870D01*
X116042060Y-101291230D01*
X115896799Y-101222517D01*
X115749547Y-101163076D01*
X115599455Y-101112650D01*
X115445676Y-101070984D01*
X115287360Y-101037823D01*
X115123658Y-101012911D01*
X115112240Y-101011502D01*
X115074326Y-101007711D01*
X115028213Y-101004433D01*
X114975852Y-101001705D01*
X114919194Y-100999566D01*
X114860188Y-100998054D01*
X114800785Y-100997206D01*
X114742935Y-100997062D01*
X114688589Y-100997658D01*
X114688589Y-100997658D01*
G37*
X114688589Y-100997658D02*
X114639697Y-100999034D01*
X114598209Y-101001227D01*
X114595752Y-101001404D01*
X114429270Y-101018617D01*
X114265144Y-101045619D01*
X114103737Y-101082236D01*
X113945411Y-101128297D01*
X113790530Y-101183628D01*
X113639455Y-101248056D01*
X113492549Y-101321410D01*
X113350176Y-101403515D01*
X113212696Y-101494199D01*
X113080474Y-101593290D01*
X112953872Y-101700614D01*
X112833252Y-101815999D01*
X112788512Y-101862506D01*
X112677612Y-101987802D01*
X112575148Y-102118680D01*
X112481234Y-102254894D01*
X112395986Y-102396197D01*
X112319515Y-102542344D01*
X112251936Y-102693091D01*
X112193363Y-102848190D01*
X112143910Y-103007396D01*
X112103690Y-103170465D01*
X112072816Y-103337149D01*
X112058973Y-103437580D01*
X112056312Y-103465614D01*
X112053944Y-103502158D01*
X112051893Y-103545565D01*
X112050182Y-103594188D01*
X112048832Y-103646379D01*
X112047869Y-103700493D01*
X112047313Y-103754881D01*
X112047190Y-103807898D01*
X112047521Y-103857897D01*
X112048329Y-103903229D01*
X112049638Y-103942250D01*
X112051471Y-103973311D01*
X112051479Y-103973409D01*
X112069575Y-104137738D01*
X112097477Y-104299947D01*
X112134976Y-104459636D01*
X112181863Y-104616405D01*
X112237932Y-104769853D01*
X112302974Y-104919580D01*
X112376780Y-105065186D01*
X112459142Y-105206271D01*
X112549853Y-105342433D01*
X112648705Y-105473273D01*
X112755488Y-105598391D01*
X112869995Y-105717385D01*
X112992018Y-105829856D01*
X113036173Y-105867365D01*
X113167661Y-105970164D01*
X113304444Y-106064370D01*
X113446180Y-106149844D01*
X113592525Y-106226444D01*
X113743137Y-106294030D01*
X113897672Y-106352462D01*
X114055787Y-106401599D01*
X114217139Y-106441300D01*
X114381385Y-106471425D01*
X114548182Y-106491834D01*
X114563780Y-106493230D01*
X114595395Y-106495421D01*
X114634727Y-106497283D01*
X114679663Y-106498791D01*
X114728091Y-106499916D01*
X114777898Y-106500634D01*
X114826971Y-106500917D01*
X114873198Y-106500740D01*
X114914466Y-106500076D01*
X114948662Y-106498899D01*
X114961306Y-106498187D01*
X115130938Y-106482042D01*
X115297622Y-106456308D01*
X115461092Y-106421099D01*
X115621084Y-106376529D01*
X115777333Y-106322712D01*
X115929573Y-106259763D01*
X116077539Y-106187796D01*
X116220967Y-106106925D01*
X116359592Y-106017265D01*
X116493148Y-105918929D01*
X116621370Y-105812031D01*
X116682731Y-105756036D01*
X116801121Y-105637867D01*
X116911521Y-105513571D01*
X117013759Y-105383510D01*
X117107662Y-105248048D01*
X117193057Y-105107546D01*
X117269771Y-104962369D01*
X117337630Y-104812880D01*
X117396463Y-104659441D01*
X117446096Y-104502416D01*
X117486356Y-104342168D01*
X117517070Y-104179060D01*
X117538065Y-104013454D01*
X117543516Y-103949168D01*
X117545765Y-103908243D01*
X117547194Y-103859784D01*
X117547842Y-103805741D01*
X117547746Y-103748065D01*
X117547155Y-103704280D01*
X115864134Y-103704280D01*
X115863913Y-103764867D01*
X115863200Y-103817255D01*
X115861846Y-103863398D01*
X115859704Y-103905249D01*
X115856624Y-103944763D01*
X115852459Y-103983895D01*
X115847061Y-104024598D01*
X115840281Y-104068827D01*
X115833317Y-104110680D01*
X115808679Y-104235767D01*
X115776828Y-104365784D01*
X115738356Y-104499155D01*
X115693854Y-104634306D01*
X115643915Y-104769660D01*
X115589131Y-104903644D01*
X115530093Y-105034683D01*
X115467395Y-105161201D01*
X115401627Y-105281623D01*
X115377862Y-105322260D01*
X115352150Y-105364150D01*
X115327608Y-105401070D01*
X115302542Y-105435163D01*
X115275261Y-105468577D01*
X115244073Y-105503455D01*
X115207286Y-105541944D01*
X115193763Y-105555668D01*
X115125461Y-105622063D01*
X115059968Y-105680339D01*
X114995820Y-105731594D01*
X114931555Y-105776927D01*
X114865708Y-105817436D01*
X114796817Y-105854220D01*
X114794375Y-105855432D01*
X114727135Y-105886631D01*
X114659477Y-105913591D01*
X114590182Y-105936574D01*
X114518028Y-105955841D01*
X114441792Y-105971653D01*
X114360254Y-105984271D01*
X114272193Y-105993955D01*
X114176386Y-106000968D01*
X114095699Y-106004743D01*
X114081532Y-106004065D01*
X114060826Y-106001605D01*
X114036958Y-105997805D01*
X114023654Y-105995295D01*
X113917874Y-105968969D01*
X113813773Y-105932724D01*
X113711260Y-105886520D01*
X113610241Y-105830316D01*
X113531285Y-105778715D01*
X113495052Y-105752443D01*
X113454144Y-105721048D01*
X113409995Y-105685764D01*
X113364036Y-105647826D01*
X113317701Y-105608467D01*
X113272423Y-105568921D01*
X113229635Y-105530423D01*
X113190770Y-105494207D01*
X113157260Y-105461506D01*
X113130643Y-105433669D01*
X113080922Y-105376571D01*
X113031974Y-105315833D01*
X112984658Y-105252772D01*
X112939832Y-105188702D01*
X112898354Y-105124939D01*
X112861084Y-105062800D01*
X112828880Y-105003600D01*
X112802601Y-104948654D01*
X112784453Y-104903160D01*
X112772834Y-104866683D01*
X112766331Y-104836920D01*
X112764709Y-104811946D01*
X112767734Y-104789838D01*
X112769771Y-104782655D01*
X112778101Y-104749183D01*
X112784826Y-104705850D01*
X112789955Y-104652582D01*
X112791443Y-104630480D01*
X112793086Y-104607285D01*
X112794909Y-104587827D01*
X112796673Y-104574354D01*
X112783240Y-104580580D01*
X112742600Y-104583120D01*
X112712120Y-104580580D01*
X112686720Y-104567880D01*
X112663860Y-104547560D01*
X112646080Y-104527240D01*
X112623220Y-104499300D01*
X112590200Y-104453580D01*
X112539400Y-104385000D01*
X112503840Y-104308800D01*
X112447960Y-104143700D01*
X112404780Y-103970980D01*
X112376840Y-103805880D01*
X112384460Y-103676340D01*
X112397160Y-103511240D01*
X112425100Y-103343600D01*
X112465740Y-103175960D01*
X112503840Y-103061660D01*
X112526700Y-103013400D01*
X112550000Y-102990000D01*
X112574960Y-102975300D01*
X112620680Y-102967680D01*
X112671480Y-102967680D01*
X112700000Y-102980000D01*
X112720000Y-102990000D01*
X112750000Y-103020000D01*
X112790000Y-103070000D01*
X112850000Y-103190000D01*
X112882144Y-103292298D01*
X112882370Y-103282994D01*
X112883008Y-103275817D01*
X112883727Y-103259339D01*
X112884510Y-103234422D01*
X112885338Y-103201926D01*
X112886193Y-103162708D01*
X112887057Y-103117631D01*
X112887913Y-103067553D01*
X112888742Y-103013335D01*
X112889526Y-102955836D01*
X112889976Y-102919420D01*
X112890901Y-102844866D01*
X112891822Y-102779436D01*
X112892791Y-102722094D01*
X112893857Y-102671802D01*
X112895072Y-102627525D01*
X112896486Y-102588228D01*
X112898149Y-102552872D01*
X112900114Y-102520422D01*
X112902430Y-102489843D01*
X112905147Y-102460097D01*
X112908318Y-102430148D01*
X112911991Y-102398961D01*
X112916219Y-102365498D01*
X112917585Y-102354995D01*
X112926550Y-102292533D01*
X112937363Y-102227182D01*
X112949337Y-102162772D01*
X112961784Y-102103131D01*
X112966799Y-102081220D01*
X112972806Y-102055740D01*
X112978141Y-102033078D01*
X112982281Y-102015465D01*
X112984700Y-102005135D01*
X112984901Y-102004273D01*
X112990486Y-101994596D01*
X113003230Y-101980140D01*
X113021941Y-101961912D01*
X113045427Y-101940920D01*
X113072495Y-101918170D01*
X113101953Y-101894671D01*
X113132609Y-101871430D01*
X113163271Y-101849454D01*
X113187100Y-101833398D01*
X113280337Y-101778561D01*
X113379634Y-101731665D01*
X113485115Y-101692665D01*
X113596901Y-101661515D01*
X113715115Y-101638173D01*
X113725580Y-101636529D01*
X113770203Y-101630994D01*
X113822454Y-101626733D01*
X113879877Y-101623789D01*
X113940016Y-101622208D01*
X114000413Y-101622036D01*
X114058611Y-101623316D01*
X114112154Y-101626094D01*
X114144680Y-101628864D01*
X114281695Y-101646876D01*
X114413111Y-101672248D01*
X114538626Y-101704863D01*
X114657935Y-101744607D01*
X114770738Y-101791362D01*
X114876730Y-101845014D01*
X114975609Y-101905447D01*
X115067072Y-101972544D01*
X115087693Y-101989465D01*
X115120882Y-102018484D01*
X115153274Y-102049428D01*
X115186365Y-102083870D01*
X115221651Y-102123378D01*
X115260628Y-102169524D01*
X115269483Y-102180280D01*
X115373094Y-102312732D01*
X115466621Y-102445187D01*
X115550142Y-102577797D01*
X115623732Y-102710716D01*
X115687467Y-102844098D01*
X115741423Y-102978098D01*
X115785676Y-103112867D01*
X115820303Y-103248561D01*
X115835661Y-103325820D01*
X115843138Y-103368964D01*
X115849213Y-103407561D01*
X115854025Y-103443452D01*
X115857713Y-103478477D01*
X115860415Y-103514477D01*
X115862270Y-103553291D01*
X115863415Y-103596762D01*
X115863991Y-103646729D01*
X115864134Y-103704280D01*
X117547155Y-103704280D01*
X117546944Y-103688704D01*
X117545474Y-103629611D01*
X117543376Y-103572735D01*
X117540686Y-103520027D01*
X117537444Y-103473437D01*
X117533686Y-103434915D01*
X117533418Y-103432680D01*
X117507944Y-103263148D01*
X117473272Y-103097926D01*
X117429371Y-102936938D01*
X117376208Y-102780112D01*
X117313751Y-102627374D01*
X117241970Y-102478650D01*
X117160831Y-102333866D01*
X117070303Y-102192948D01*
X116970354Y-102055822D01*
X116902843Y-101971718D01*
X116877746Y-101942734D01*
X116846540Y-101908564D01*
X116810746Y-101870728D01*
X116771884Y-101830747D01*
X116731477Y-101790143D01*
X116691045Y-101750438D01*
X116652110Y-101713151D01*
X116616192Y-101679805D01*
X116584814Y-101651920D01*
X116573202Y-101642077D01*
X116456874Y-101549763D01*
X116339865Y-101466075D01*
X116220014Y-101389586D01*
X116095164Y-101318870D01*
X116042060Y-101291230D01*
X115896799Y-101222517D01*
X115749547Y-101163076D01*
X115599455Y-101112650D01*
X115445676Y-101070984D01*
X115287360Y-101037823D01*
X115123658Y-101012911D01*
X115112240Y-101011502D01*
X115074326Y-101007711D01*
X115028213Y-101004433D01*
X114975852Y-101001705D01*
X114919194Y-100999566D01*
X114860188Y-100998054D01*
X114800785Y-100997206D01*
X114742935Y-100997062D01*
X114688589Y-100997658D01*
G36*
X115275534Y-104679926D02*
X115260446Y-104691333D01*
X115258211Y-104693610D01*
X115242003Y-104714076D01*
X115228697Y-104737188D01*
X115218605Y-104761348D01*
X115212039Y-104784960D01*
X115209309Y-104806426D01*
X115210726Y-104824150D01*
X115216603Y-104836535D01*
X115227250Y-104841983D01*
X115229260Y-104842103D01*
X115236681Y-104839690D01*
X115248182Y-104833702D01*
X115249903Y-104832671D01*
X115266901Y-104817908D01*
X115282633Y-104796401D01*
X115296083Y-104770683D01*
X115306236Y-104743289D01*
X115312079Y-104716754D01*
X115312595Y-104693613D01*
X115309997Y-104682595D01*
X115302578Y-104675074D01*
X115290334Y-104674345D01*
X115275534Y-104679926D01*
X115275534Y-104679926D01*
G37*
X115275534Y-104679926D02*
X115260446Y-104691333D01*
X115258211Y-104693610D01*
X115242003Y-104714076D01*
X115228697Y-104737188D01*
X115218605Y-104761348D01*
X115212039Y-104784960D01*
X115209309Y-104806426D01*
X115210726Y-104824150D01*
X115216603Y-104836535D01*
X115227250Y-104841983D01*
X115229260Y-104842103D01*
X115236681Y-104839690D01*
X115248182Y-104833702D01*
X115249903Y-104832671D01*
X115266901Y-104817908D01*
X115282633Y-104796401D01*
X115296083Y-104770683D01*
X115306236Y-104743289D01*
X115312079Y-104716754D01*
X115312595Y-104693613D01*
X115309997Y-104682595D01*
X115302578Y-104675074D01*
X115290334Y-104674345D01*
X115275534Y-104679926D01*
G36*
X113836333Y-104401102D02*
X113823256Y-104404493D01*
X113811952Y-104411622D01*
X113809608Y-104413545D01*
X113790308Y-104435382D01*
X113780381Y-104459859D01*
X113780074Y-104485768D01*
X113789559Y-104511765D01*
X113803988Y-104530859D01*
X113822463Y-104542325D01*
X113846976Y-104547210D01*
X113857772Y-104547560D01*
X113875171Y-104546947D01*
X113886845Y-104543934D01*
X113897206Y-104536758D01*
X113906097Y-104528259D01*
X113922722Y-104505369D01*
X113930064Y-104480434D01*
X113928168Y-104455206D01*
X113917081Y-104431436D01*
X113903141Y-104415951D01*
X113891287Y-104406754D01*
X113879970Y-104402033D01*
X113864870Y-104400369D01*
X113855333Y-104400240D01*
X113836333Y-104401102D01*
X113836333Y-104401102D01*
G37*
X113836333Y-104401102D02*
X113823256Y-104404493D01*
X113811952Y-104411622D01*
X113809608Y-104413545D01*
X113790308Y-104435382D01*
X113780381Y-104459859D01*
X113780074Y-104485768D01*
X113789559Y-104511765D01*
X113803988Y-104530859D01*
X113822463Y-104542325D01*
X113846976Y-104547210D01*
X113857772Y-104547560D01*
X113875171Y-104546947D01*
X113886845Y-104543934D01*
X113897206Y-104536758D01*
X113906097Y-104528259D01*
X113922722Y-104505369D01*
X113930064Y-104480434D01*
X113928168Y-104455206D01*
X113917081Y-104431436D01*
X113903141Y-104415951D01*
X113891287Y-104406754D01*
X113879970Y-104402033D01*
X113864870Y-104400369D01*
X113855333Y-104400240D01*
X113836333Y-104401102D01*
G36*
X113881577Y-104151777D02*
X113843737Y-104155066D01*
X113823241Y-104158897D01*
X113771610Y-104175874D01*
X113726940Y-104199654D01*
X113689354Y-104229527D01*
X113658976Y-104264781D01*
X113635929Y-104304703D01*
X113620339Y-104348583D01*
X113612328Y-104395708D01*
X113612020Y-104445366D01*
X113619539Y-104496846D01*
X113635010Y-104549436D01*
X113658555Y-104602424D01*
X113690299Y-104655099D01*
X113728331Y-104704398D01*
X113777976Y-104755506D01*
X113832966Y-104800255D01*
X113892137Y-104838142D01*
X113954322Y-104868666D01*
X114018355Y-104891325D01*
X114083071Y-104905617D01*
X114147305Y-104911041D01*
X114201782Y-104908169D01*
X114256607Y-104897107D01*
X114305703Y-104878036D01*
X114348629Y-104851148D01*
X114367113Y-104835333D01*
X114398860Y-104801436D01*
X114422000Y-104766962D01*
X114437882Y-104729320D01*
X114447859Y-104685916D01*
X114449014Y-104678145D01*
X114451574Y-104623755D01*
X114444714Y-104568691D01*
X114429066Y-104513752D01*
X114415725Y-104483475D01*
X114050836Y-104483475D01*
X114048455Y-104505112D01*
X114035494Y-104549304D01*
X114014311Y-104588657D01*
X113985802Y-104622122D01*
X113950863Y-104648653D01*
X113910390Y-104667204D01*
X113909547Y-104667481D01*
X113889589Y-104671460D01*
X113862539Y-104673152D01*
X113844316Y-104672976D01*
X113820062Y-104671571D01*
X113801676Y-104668634D01*
X113784878Y-104663176D01*
X113767310Y-104655155D01*
X113730321Y-104631788D01*
X113699718Y-104601948D01*
X113676246Y-104567048D01*
X113660651Y-104528504D01*
X113653678Y-104487728D01*
X113656075Y-104446134D01*
X113656330Y-104444722D01*
X113669034Y-104402824D01*
X113690356Y-104364438D01*
X113719015Y-104331215D01*
X113753730Y-104304806D01*
X113772555Y-104294858D01*
X113802482Y-104285350D01*
X113837604Y-104280786D01*
X113874210Y-104281225D01*
X113908587Y-104286724D01*
X113926469Y-104292426D01*
X113961617Y-104311486D01*
X113992309Y-104337944D01*
X114017560Y-104370087D01*
X114036387Y-104406199D01*
X114047807Y-104444567D01*
X114050836Y-104483475D01*
X114415725Y-104483475D01*
X114405264Y-104459736D01*
X114373939Y-104407441D01*
X114335726Y-104357666D01*
X114291255Y-104311207D01*
X114241160Y-104268864D01*
X114186074Y-104231434D01*
X114126630Y-104199716D01*
X114063459Y-104174507D01*
X114045114Y-104168701D01*
X114008737Y-104160238D01*
X113967243Y-104154503D01*
X113923801Y-104151636D01*
X113881577Y-104151777D01*
X113881577Y-104151777D01*
G37*
X113881577Y-104151777D02*
X113843737Y-104155066D01*
X113823241Y-104158897D01*
X113771610Y-104175874D01*
X113726940Y-104199654D01*
X113689354Y-104229527D01*
X113658976Y-104264781D01*
X113635929Y-104304703D01*
X113620339Y-104348583D01*
X113612328Y-104395708D01*
X113612020Y-104445366D01*
X113619539Y-104496846D01*
X113635010Y-104549436D01*
X113658555Y-104602424D01*
X113690299Y-104655099D01*
X113728331Y-104704398D01*
X113777976Y-104755506D01*
X113832966Y-104800255D01*
X113892137Y-104838142D01*
X113954322Y-104868666D01*
X114018355Y-104891325D01*
X114083071Y-104905617D01*
X114147305Y-104911041D01*
X114201782Y-104908169D01*
X114256607Y-104897107D01*
X114305703Y-104878036D01*
X114348629Y-104851148D01*
X114367113Y-104835333D01*
X114398860Y-104801436D01*
X114422000Y-104766962D01*
X114437882Y-104729320D01*
X114447859Y-104685916D01*
X114449014Y-104678145D01*
X114451574Y-104623755D01*
X114444714Y-104568691D01*
X114429066Y-104513752D01*
X114415725Y-104483475D01*
X114050836Y-104483475D01*
X114048455Y-104505112D01*
X114035494Y-104549304D01*
X114014311Y-104588657D01*
X113985802Y-104622122D01*
X113950863Y-104648653D01*
X113910390Y-104667204D01*
X113909547Y-104667481D01*
X113889589Y-104671460D01*
X113862539Y-104673152D01*
X113844316Y-104672976D01*
X113820062Y-104671571D01*
X113801676Y-104668634D01*
X113784878Y-104663176D01*
X113767310Y-104655155D01*
X113730321Y-104631788D01*
X113699718Y-104601948D01*
X113676246Y-104567048D01*
X113660651Y-104528504D01*
X113653678Y-104487728D01*
X113656075Y-104446134D01*
X113656330Y-104444722D01*
X113669034Y-104402824D01*
X113690356Y-104364438D01*
X113719015Y-104331215D01*
X113753730Y-104304806D01*
X113772555Y-104294858D01*
X113802482Y-104285350D01*
X113837604Y-104280786D01*
X113874210Y-104281225D01*
X113908587Y-104286724D01*
X113926469Y-104292426D01*
X113961617Y-104311486D01*
X113992309Y-104337944D01*
X114017560Y-104370087D01*
X114036387Y-104406199D01*
X114047807Y-104444567D01*
X114050836Y-104483475D01*
X114415725Y-104483475D01*
X114405264Y-104459736D01*
X114373939Y-104407441D01*
X114335726Y-104357666D01*
X114291255Y-104311207D01*
X114241160Y-104268864D01*
X114186074Y-104231434D01*
X114126630Y-104199716D01*
X114063459Y-104174507D01*
X114045114Y-104168701D01*
X114008737Y-104160238D01*
X113967243Y-104154503D01*
X113923801Y-104151636D01*
X113881577Y-104151777D01*
G36*
X115506335Y-104342400D02*
X115488801Y-104344815D01*
X115472121Y-104350076D01*
X115453322Y-104358404D01*
X115403456Y-104386810D01*
X115353972Y-104424026D01*
X115305814Y-104468713D01*
X115259923Y-104519536D01*
X115217243Y-104575158D01*
X115178715Y-104634244D01*
X115145283Y-104695456D01*
X115117888Y-104757459D01*
X115097474Y-104818917D01*
X115084982Y-104878492D01*
X115084619Y-104881129D01*
X115081851Y-104924196D01*
X115085544Y-104962257D01*
X115095407Y-104994427D01*
X115111147Y-105019822D01*
X115132475Y-105037556D01*
X115136813Y-105039832D01*
X115164781Y-105048318D01*
X115196591Y-105049581D01*
X115228811Y-105043488D01*
X115229260Y-105043346D01*
X115272797Y-105025057D01*
X115317730Y-104997842D01*
X115363119Y-104962665D01*
X115408024Y-104920487D01*
X115451505Y-104872272D01*
X115492622Y-104818982D01*
X115530435Y-104761579D01*
X115564004Y-104701026D01*
X115564460Y-104700119D01*
X115589819Y-104645845D01*
X115598289Y-104623574D01*
X115444716Y-104623574D01*
X115444457Y-104651315D01*
X115441879Y-104679311D01*
X115437433Y-104702702D01*
X115427593Y-104732865D01*
X115413001Y-104767156D01*
X115395465Y-104801944D01*
X115376792Y-104833596D01*
X115361618Y-104855022D01*
X115330105Y-104890806D01*
X115298848Y-104918895D01*
X115268494Y-104939000D01*
X115239691Y-104950834D01*
X115213087Y-104954109D01*
X115189330Y-104948538D01*
X115173867Y-104938466D01*
X115159233Y-104921999D01*
X115149981Y-104902003D01*
X115145394Y-104876313D01*
X115144598Y-104850316D01*
X115148416Y-104811085D01*
X115158413Y-104770767D01*
X115173735Y-104730451D01*
X115193534Y-104691228D01*
X115216958Y-104654188D01*
X115243156Y-104620421D01*
X115271277Y-104591018D01*
X115300471Y-104567069D01*
X115329887Y-104549664D01*
X115358674Y-104539894D01*
X115385981Y-104538849D01*
X115387479Y-104539075D01*
X115409774Y-104547610D01*
X115428130Y-104564429D01*
X115438195Y-104581686D01*
X115442635Y-104599295D01*
X115444716Y-104623574D01*
X115598289Y-104623574D01*
X115608495Y-104596742D01*
X115621044Y-104550850D01*
X115628020Y-104506209D01*
X115629976Y-104468820D01*
X115629853Y-104443734D01*
X115628644Y-104425780D01*
X115625892Y-104411950D01*
X115621139Y-104399235D01*
X115618557Y-104393751D01*
X115607788Y-104376421D01*
X115594329Y-104360733D01*
X115588529Y-104355651D01*
X115578226Y-104348608D01*
X115568127Y-104344452D01*
X115555061Y-104342443D01*
X115535855Y-104341838D01*
X115529359Y-104341820D01*
X115506335Y-104342400D01*
X115506335Y-104342400D01*
G37*
X115506335Y-104342400D02*
X115488801Y-104344815D01*
X115472121Y-104350076D01*
X115453322Y-104358404D01*
X115403456Y-104386810D01*
X115353972Y-104424026D01*
X115305814Y-104468713D01*
X115259923Y-104519536D01*
X115217243Y-104575158D01*
X115178715Y-104634244D01*
X115145283Y-104695456D01*
X115117888Y-104757459D01*
X115097474Y-104818917D01*
X115084982Y-104878492D01*
X115084619Y-104881129D01*
X115081851Y-104924196D01*
X115085544Y-104962257D01*
X115095407Y-104994427D01*
X115111147Y-105019822D01*
X115132475Y-105037556D01*
X115136813Y-105039832D01*
X115164781Y-105048318D01*
X115196591Y-105049581D01*
X115228811Y-105043488D01*
X115229260Y-105043346D01*
X115272797Y-105025057D01*
X115317730Y-104997842D01*
X115363119Y-104962665D01*
X115408024Y-104920487D01*
X115451505Y-104872272D01*
X115492622Y-104818982D01*
X115530435Y-104761579D01*
X115564004Y-104701026D01*
X115564460Y-104700119D01*
X115589819Y-104645845D01*
X115598289Y-104623574D01*
X115444716Y-104623574D01*
X115444457Y-104651315D01*
X115441879Y-104679311D01*
X115437433Y-104702702D01*
X115427593Y-104732865D01*
X115413001Y-104767156D01*
X115395465Y-104801944D01*
X115376792Y-104833596D01*
X115361618Y-104855022D01*
X115330105Y-104890806D01*
X115298848Y-104918895D01*
X115268494Y-104939000D01*
X115239691Y-104950834D01*
X115213087Y-104954109D01*
X115189330Y-104948538D01*
X115173867Y-104938466D01*
X115159233Y-104921999D01*
X115149981Y-104902003D01*
X115145394Y-104876313D01*
X115144598Y-104850316D01*
X115148416Y-104811085D01*
X115158413Y-104770767D01*
X115173735Y-104730451D01*
X115193534Y-104691228D01*
X115216958Y-104654188D01*
X115243156Y-104620421D01*
X115271277Y-104591018D01*
X115300471Y-104567069D01*
X115329887Y-104549664D01*
X115358674Y-104539894D01*
X115385981Y-104538849D01*
X115387479Y-104539075D01*
X115409774Y-104547610D01*
X115428130Y-104564429D01*
X115438195Y-104581686D01*
X115442635Y-104599295D01*
X115444716Y-104623574D01*
X115598289Y-104623574D01*
X115608495Y-104596742D01*
X115621044Y-104550850D01*
X115628020Y-104506209D01*
X115629976Y-104468820D01*
X115629853Y-104443734D01*
X115628644Y-104425780D01*
X115625892Y-104411950D01*
X115621139Y-104399235D01*
X115618557Y-104393751D01*
X115607788Y-104376421D01*
X115594329Y-104360733D01*
X115588529Y-104355651D01*
X115578226Y-104348608D01*
X115568127Y-104344452D01*
X115555061Y-104342443D01*
X115535855Y-104341838D01*
X115529359Y-104341820D01*
X115506335Y-104342400D01*
D11*
G36*
X114175308Y-105781830D02*
X114171116Y-105787238D01*
X114170158Y-105795434D01*
X114174576Y-105800854D01*
X114186625Y-105808710D01*
X114204345Y-105818093D01*
X114225775Y-105828090D01*
X114248954Y-105837791D01*
X114271922Y-105846284D01*
X114292718Y-105852659D01*
X114294083Y-105853013D01*
X114337144Y-105860486D01*
X114385639Y-105862860D01*
X114436215Y-105860138D01*
X114482500Y-105852965D01*
X114509800Y-105847186D01*
X114528691Y-105842973D01*
X114540714Y-105839840D01*
X114547412Y-105837302D01*
X114550327Y-105834876D01*
X114551001Y-105832076D01*
X114551003Y-105831433D01*
X114549974Y-105823727D01*
X114546102Y-105819084D01*
X114537860Y-105817369D01*
X114523724Y-105818449D01*
X114502168Y-105822190D01*
X114485040Y-105825657D01*
X114426078Y-105835109D01*
X114372612Y-105837441D01*
X114322688Y-105832442D01*
X114274354Y-105819901D01*
X114225658Y-105799609D01*
X114220779Y-105797188D01*
X114198793Y-105786758D01*
X114184085Y-105781654D01*
X114175308Y-105781830D01*
X114175308Y-105781830D01*
G37*
X114175308Y-105781830D02*
X114171116Y-105787238D01*
X114170158Y-105795434D01*
X114174576Y-105800854D01*
X114186625Y-105808710D01*
X114204345Y-105818093D01*
X114225775Y-105828090D01*
X114248954Y-105837791D01*
X114271922Y-105846284D01*
X114292718Y-105852659D01*
X114294083Y-105853013D01*
X114337144Y-105860486D01*
X114385639Y-105862860D01*
X114436215Y-105860138D01*
X114482500Y-105852965D01*
X114509800Y-105847186D01*
X114528691Y-105842973D01*
X114540714Y-105839840D01*
X114547412Y-105837302D01*
X114550327Y-105834876D01*
X114551001Y-105832076D01*
X114551003Y-105831433D01*
X114549974Y-105823727D01*
X114546102Y-105819084D01*
X114537860Y-105817369D01*
X114523724Y-105818449D01*
X114502168Y-105822190D01*
X114485040Y-105825657D01*
X114426078Y-105835109D01*
X114372612Y-105837441D01*
X114322688Y-105832442D01*
X114274354Y-105819901D01*
X114225658Y-105799609D01*
X114220779Y-105797188D01*
X114198793Y-105786758D01*
X114184085Y-105781654D01*
X114175308Y-105781830D01*
D12*
G04 #@! TO.C,U8*
X131945000Y-88910000D02*
G75*
G03X131945000Y-88910000I-805000J0D01*
G01*
D13*
G36*
X118376436Y-110699744D02*
X118736082Y-110848714D01*
X119057573Y-111063528D01*
X119059757Y-111064987D01*
X119335013Y-111340243D01*
X119335015Y-111340246D01*
X119551286Y-111663918D01*
X119700256Y-112023564D01*
X119776200Y-112405361D01*
X119776200Y-112794639D01*
X119700256Y-113176436D01*
X119551286Y-113536082D01*
X119336472Y-113857573D01*
X119335013Y-113859757D01*
X119059757Y-114135013D01*
X119059754Y-114135015D01*
X118736082Y-114351286D01*
X118376436Y-114500256D01*
X117994640Y-114576200D01*
X117605360Y-114576200D01*
X117223564Y-114500256D01*
X116863918Y-114351286D01*
X116540246Y-114135015D01*
X116540243Y-114135013D01*
X116264987Y-113859757D01*
X116263528Y-113857573D01*
X116048714Y-113536082D01*
X115899744Y-113176436D01*
X115823800Y-112794639D01*
X115823800Y-112405361D01*
X115899744Y-112023564D01*
X116048714Y-111663918D01*
X116264985Y-111340246D01*
X116264987Y-111340243D01*
X116540243Y-111064987D01*
X116542427Y-111063528D01*
X116863918Y-110848714D01*
X117223564Y-110699744D01*
X117605360Y-110623800D01*
X117994640Y-110623800D01*
X118376436Y-110699744D01*
X118376436Y-110699744D01*
G37*
G36*
X98426436Y-110699744D02*
X98786082Y-110848714D01*
X99107573Y-111063528D01*
X99109757Y-111064987D01*
X99385013Y-111340243D01*
X99385015Y-111340246D01*
X99601286Y-111663918D01*
X99750256Y-112023564D01*
X99826200Y-112405361D01*
X99826200Y-112794639D01*
X99750256Y-113176436D01*
X99601286Y-113536082D01*
X99386472Y-113857573D01*
X99385013Y-113859757D01*
X99109757Y-114135013D01*
X99109754Y-114135015D01*
X98786082Y-114351286D01*
X98426436Y-114500256D01*
X98044640Y-114576200D01*
X97655360Y-114576200D01*
X97273564Y-114500256D01*
X96913918Y-114351286D01*
X96590246Y-114135015D01*
X96590243Y-114135013D01*
X96314987Y-113859757D01*
X96313528Y-113857573D01*
X96098714Y-113536082D01*
X95949744Y-113176436D01*
X95873800Y-112794639D01*
X95873800Y-112405361D01*
X95949744Y-112023564D01*
X96098714Y-111663918D01*
X96314985Y-111340246D01*
X96314987Y-111340243D01*
X96590243Y-111064987D01*
X96592427Y-111063528D01*
X96913918Y-110848714D01*
X97273564Y-110699744D01*
X97655360Y-110623800D01*
X98044640Y-110623800D01*
X98426436Y-110699744D01*
X98426436Y-110699744D01*
G37*
G36*
X105270200Y-114154700D02*
X103517800Y-114154700D01*
X103517800Y-113302300D01*
X105270200Y-113302300D01*
X105270200Y-114154700D01*
X105270200Y-114154700D01*
G37*
G36*
X105270200Y-113011700D02*
X103490200Y-113011700D01*
X103465814Y-113014102D01*
X103442365Y-113021215D01*
X103420754Y-113032766D01*
X103401812Y-113048312D01*
X103386266Y-113067254D01*
X103382019Y-113075200D01*
X101612800Y-113075200D01*
X101612800Y-112222800D01*
X103392800Y-112222800D01*
X103417186Y-112220398D01*
X103440635Y-112213285D01*
X103462246Y-112201734D01*
X103481188Y-112186188D01*
X103496734Y-112167246D01*
X103500981Y-112159300D01*
X105270200Y-112159300D01*
X105270200Y-113011700D01*
X105270200Y-113011700D01*
G37*
G36*
X111207000Y-111536049D02*
X111204402Y-111544614D01*
X111202000Y-111569000D01*
X111202000Y-111864000D01*
X108609600Y-111864000D01*
X108609600Y-111569000D01*
X108607198Y-111544614D01*
X108604600Y-111536049D01*
X108604600Y-109391600D01*
X111207000Y-109391600D01*
X111207000Y-111536049D01*
X111207000Y-111536049D01*
G37*
G36*
X103588250Y-111341750D02*
X101443801Y-111341750D01*
X101435236Y-111339152D01*
X101410850Y-111336750D01*
X101115850Y-111336750D01*
X101115850Y-108744350D01*
X101410850Y-108744350D01*
X101435236Y-108741948D01*
X101443801Y-108739350D01*
X103588250Y-108739350D01*
X103588250Y-111341750D01*
X103588250Y-111341750D01*
G37*
G36*
X104778250Y-111336750D02*
X103995850Y-111336750D01*
X103995850Y-108744350D01*
X104778250Y-108744350D01*
X104778250Y-111336750D01*
X104778250Y-111336750D01*
G37*
G36*
X112826200Y-109126200D02*
X111973800Y-109126200D01*
X111973800Y-107373800D01*
X112826200Y-107373800D01*
X112826200Y-109126200D01*
X112826200Y-109126200D01*
G37*
G36*
X113976200Y-109126200D02*
X113123800Y-109126200D01*
X113123800Y-107373800D01*
X113976200Y-107373800D01*
X113976200Y-109126200D01*
X113976200Y-109126200D01*
G37*
G36*
X115176200Y-109126200D02*
X114323800Y-109126200D01*
X114323800Y-107373800D01*
X115176200Y-107373800D01*
X115176200Y-109126200D01*
X115176200Y-109126200D01*
G37*
G36*
X111202000Y-108984000D02*
X108609600Y-108984000D01*
X108609600Y-108201600D01*
X111202000Y-108201600D01*
X111202000Y-108984000D01*
X111202000Y-108984000D01*
G37*
G36*
X106746200Y-106248800D02*
X106748602Y-106273186D01*
X106755715Y-106296635D01*
X106767266Y-106318246D01*
X106782812Y-106337188D01*
X106801754Y-106352734D01*
X106823365Y-106364285D01*
X106846814Y-106371398D01*
X106871200Y-106373800D01*
X107196200Y-106373800D01*
X107196200Y-108126200D01*
X106343800Y-108126200D01*
X106343800Y-106281200D01*
X106341398Y-106256814D01*
X106334285Y-106233365D01*
X106322734Y-106211754D01*
X106307188Y-106192812D01*
X106288246Y-106177266D01*
X106266635Y-106165715D01*
X106243186Y-106158602D01*
X106218800Y-106156200D01*
X105851200Y-106156200D01*
X105826814Y-106158602D01*
X105803365Y-106165715D01*
X105781754Y-106177266D01*
X105762812Y-106192812D01*
X105747266Y-106211754D01*
X105735715Y-106233365D01*
X105728602Y-106256814D01*
X105726200Y-106281200D01*
X105726200Y-107226200D01*
X103973800Y-107226200D01*
X103973800Y-106281200D01*
X103971398Y-106256814D01*
X103964285Y-106233365D01*
X103952734Y-106211754D01*
X103937188Y-106192812D01*
X103918246Y-106177266D01*
X103896635Y-106165715D01*
X103873186Y-106158602D01*
X103848800Y-106156200D01*
X103033800Y-106156200D01*
X103033800Y-105303800D01*
X106746200Y-105303800D01*
X106746200Y-106248800D01*
X106746200Y-106248800D01*
G37*
G36*
X109211700Y-107626200D02*
X107459300Y-107626200D01*
X107459300Y-106773800D01*
X109211700Y-106773800D01*
X109211700Y-107626200D01*
X109211700Y-107626200D01*
G37*
G36*
X135306200Y-106886200D02*
X133553800Y-106886200D01*
X133553800Y-106033800D01*
X135306200Y-106033800D01*
X135306200Y-106886200D01*
X135306200Y-106886200D01*
G37*
G36*
X122176200Y-106826200D02*
X120423800Y-106826200D01*
X120423800Y-105973800D01*
X122176200Y-105973800D01*
X122176200Y-106826200D01*
X122176200Y-106826200D01*
G37*
G36*
X109211700Y-106476200D02*
X107459300Y-106476200D01*
X107459300Y-105623800D01*
X109211700Y-105623800D01*
X109211700Y-106476200D01*
X109211700Y-106476200D01*
G37*
G36*
X122476200Y-105576200D02*
X121623800Y-105576200D01*
X121623800Y-103823800D01*
X122476200Y-103823800D01*
X122476200Y-105576200D01*
X122476200Y-105576200D01*
G37*
G36*
X135676200Y-105496200D02*
X134223800Y-105496200D01*
X134223800Y-104103800D01*
X135676200Y-104103800D01*
X135676200Y-105496200D01*
X135676200Y-105496200D01*
G37*
G36*
X121226200Y-105426200D02*
X120173800Y-105426200D01*
X120173800Y-104473800D01*
X121226200Y-104473800D01*
X121226200Y-105426200D01*
X121226200Y-105426200D01*
G37*
G36*
X99213200Y-105018700D02*
X96620800Y-105018700D01*
X96620800Y-104236300D01*
X99213200Y-104236300D01*
X99213200Y-105018700D01*
X99213200Y-105018700D01*
G37*
G36*
X103600950Y-104496450D02*
X101456501Y-104496450D01*
X101447936Y-104493852D01*
X101423550Y-104491450D01*
X101128550Y-104491450D01*
X101128550Y-101899050D01*
X101423550Y-101899050D01*
X101447936Y-101896648D01*
X101456501Y-101894050D01*
X103600950Y-101894050D01*
X103600950Y-104496450D01*
X103600950Y-104496450D01*
G37*
G36*
X110585950Y-104496450D02*
X108441501Y-104496450D01*
X108432936Y-104493852D01*
X108408550Y-104491450D01*
X108113550Y-104491450D01*
X108113550Y-101899050D01*
X108408550Y-101899050D01*
X108432936Y-101896648D01*
X108441501Y-101894050D01*
X110585950Y-101894050D01*
X110585950Y-104496450D01*
X110585950Y-104496450D01*
G37*
G36*
X104790950Y-104491450D02*
X104008550Y-104491450D01*
X104008550Y-101899050D01*
X104790950Y-101899050D01*
X104790950Y-104491450D01*
X104790950Y-104491450D01*
G37*
G36*
X111775950Y-104491450D02*
X110993550Y-104491450D01*
X110993550Y-101899050D01*
X111775950Y-101899050D01*
X111775950Y-104491450D01*
X111775950Y-104491450D01*
G37*
G36*
X119226200Y-104476200D02*
X118173800Y-104476200D01*
X118173800Y-103523800D01*
X119226200Y-103523800D01*
X119226200Y-104476200D01*
X119226200Y-104476200D01*
G37*
G36*
X124926200Y-104126200D02*
X122973800Y-104126200D01*
X122973800Y-102373800D01*
X124926200Y-102373800D01*
X124926200Y-104126200D01*
X124926200Y-104126200D01*
G37*
G36*
X129876200Y-104126200D02*
X129023800Y-104126200D01*
X129023800Y-102373800D01*
X129876200Y-102373800D01*
X129876200Y-104126200D01*
X129876200Y-104126200D01*
G37*
G36*
X126456200Y-104101200D02*
X125243800Y-104101200D01*
X125243800Y-101398800D01*
X126456200Y-101398800D01*
X126456200Y-104101200D01*
X126456200Y-104101200D01*
G37*
G36*
X128656200Y-104101200D02*
X127443800Y-104101200D01*
X127443800Y-101398800D01*
X128656200Y-101398800D01*
X128656200Y-104101200D01*
X128656200Y-104101200D01*
G37*
G36*
X99213200Y-101651300D02*
X99215602Y-101675686D01*
X99218200Y-101684251D01*
X99218200Y-103828700D01*
X96615800Y-103828700D01*
X96615800Y-101684251D01*
X96618398Y-101675686D01*
X96620800Y-101651300D01*
X96620800Y-101356300D01*
X99213200Y-101356300D01*
X99213200Y-101651300D01*
X99213200Y-101651300D01*
G37*
G36*
X121226200Y-103526200D02*
X120173800Y-103526200D01*
X120173800Y-102573800D01*
X121226200Y-102573800D01*
X121226200Y-103526200D01*
X121226200Y-103526200D01*
G37*
G36*
X122476200Y-103376200D02*
X121623800Y-103376200D01*
X121623800Y-101623800D01*
X122476200Y-101623800D01*
X122476200Y-103376200D01*
X122476200Y-103376200D01*
G37*
G36*
X140026200Y-101426200D02*
X138155858Y-101426200D01*
X138131472Y-101428602D01*
X138108023Y-101435715D01*
X138086412Y-101447266D01*
X138067470Y-101462812D01*
X138051924Y-101481754D01*
X138040373Y-101503365D01*
X138033260Y-101526814D01*
X138030858Y-101551200D01*
X138033260Y-101575586D01*
X138040373Y-101599033D01*
X138044498Y-101608992D01*
X138057764Y-101675686D01*
X138076250Y-101768620D01*
X138076250Y-101931380D01*
X138044498Y-102091007D01*
X137982214Y-102241375D01*
X137891788Y-102376707D01*
X137776707Y-102491788D01*
X137641375Y-102582214D01*
X137553292Y-102618699D01*
X137491008Y-102644498D01*
X137411193Y-102660374D01*
X137331380Y-102676250D01*
X137168620Y-102676250D01*
X137088807Y-102660374D01*
X137008992Y-102644498D01*
X136946708Y-102618699D01*
X136858625Y-102582214D01*
X136723293Y-102491788D01*
X136608212Y-102376707D01*
X136517786Y-102241375D01*
X136455502Y-102091007D01*
X136423750Y-101931380D01*
X136423750Y-101768620D01*
X136442236Y-101675686D01*
X136455502Y-101608992D01*
X136481301Y-101546708D01*
X136517786Y-101458625D01*
X136608212Y-101323293D01*
X136723293Y-101208212D01*
X136858625Y-101117786D01*
X136965059Y-101073700D01*
X137008992Y-101055502D01*
X137088807Y-101039626D01*
X137168620Y-101023750D01*
X137331380Y-101023750D01*
X137411193Y-101039626D01*
X137491008Y-101055502D01*
X137534941Y-101073700D01*
X137641375Y-101117786D01*
X137776707Y-101208212D01*
X137860412Y-101291917D01*
X137879354Y-101307463D01*
X137900965Y-101319014D01*
X137924414Y-101326127D01*
X137948800Y-101328529D01*
X137973186Y-101326127D01*
X137996635Y-101319014D01*
X138018246Y-101307463D01*
X138037188Y-101291917D01*
X138052734Y-101272975D01*
X138064285Y-101251364D01*
X138071398Y-101227915D01*
X138073800Y-101203529D01*
X138073800Y-99473800D01*
X140026200Y-99473800D01*
X140026200Y-101426200D01*
X140026200Y-101426200D01*
G37*
G36*
X132323958Y-98599523D02*
X132576436Y-98649744D01*
X132936082Y-98798714D01*
X133126878Y-98926200D01*
X133259757Y-99014987D01*
X133535013Y-99290243D01*
X133535015Y-99290246D01*
X133751286Y-99613918D01*
X133900256Y-99973564D01*
X133976200Y-100355361D01*
X133976200Y-100744639D01*
X133900256Y-101126436D01*
X133751286Y-101486082D01*
X133562500Y-101768620D01*
X133535013Y-101809757D01*
X133259757Y-102085013D01*
X133259754Y-102085015D01*
X132936082Y-102301286D01*
X132576436Y-102450256D01*
X132194640Y-102526200D01*
X131805360Y-102526200D01*
X131614463Y-102488228D01*
X131423564Y-102450256D01*
X131063918Y-102301286D01*
X130740246Y-102085015D01*
X130740243Y-102085013D01*
X130464987Y-101809757D01*
X130437500Y-101768620D01*
X130248714Y-101486082D01*
X130099744Y-101126436D01*
X130023800Y-100744639D01*
X130023800Y-100355361D01*
X130099744Y-99973564D01*
X130248714Y-99613918D01*
X130464985Y-99290246D01*
X130464987Y-99290243D01*
X130740243Y-99014987D01*
X130873122Y-98926200D01*
X131063918Y-98798714D01*
X131423564Y-98649744D01*
X131676042Y-98599523D01*
X131805360Y-98573800D01*
X132194640Y-98573800D01*
X132323958Y-98599523D01*
X132323958Y-98599523D01*
G37*
G36*
X109741450Y-101081450D02*
X107989050Y-101081450D01*
X107989050Y-100229050D01*
X109741450Y-100229050D01*
X109741450Y-101081450D01*
X109741450Y-101081450D01*
G37*
G36*
X111836950Y-101081450D02*
X110084550Y-101081450D01*
X110084550Y-100229050D01*
X111836950Y-100229050D01*
X111836950Y-101081450D01*
X111836950Y-101081450D01*
G37*
G36*
X113026200Y-101076200D02*
X112173800Y-101076200D01*
X112173800Y-99323800D01*
X113026200Y-99323800D01*
X113026200Y-101076200D01*
X113026200Y-101076200D01*
G37*
G36*
X104825700Y-101073700D02*
X101168300Y-101073700D01*
X101168300Y-100221300D01*
X104825700Y-100221300D01*
X104825700Y-101073700D01*
X104825700Y-101073700D01*
G37*
G36*
X106090200Y-101015700D02*
X105237800Y-101015700D01*
X105237800Y-99263300D01*
X106090200Y-99263300D01*
X106090200Y-101015700D01*
X106090200Y-101015700D01*
G37*
G36*
X127076200Y-99748800D02*
X127078602Y-99773186D01*
X127085715Y-99796635D01*
X127097266Y-99818246D01*
X127112812Y-99837188D01*
X127131754Y-99852734D01*
X127153365Y-99864285D01*
X127176814Y-99871398D01*
X127201200Y-99873800D01*
X127526200Y-99873800D01*
X127526200Y-100726200D01*
X125773800Y-100726200D01*
X125773800Y-99873800D01*
X125798800Y-99873800D01*
X125823186Y-99871398D01*
X125846635Y-99864285D01*
X125868246Y-99852734D01*
X125887188Y-99837188D01*
X125902734Y-99818246D01*
X125914285Y-99796635D01*
X125921398Y-99773186D01*
X125923800Y-99748800D01*
X125923800Y-98873800D01*
X127076200Y-98873800D01*
X127076200Y-99748800D01*
X127076200Y-99748800D01*
G37*
G36*
X125249523Y-99528608D02*
X125290560Y-99541056D01*
X125328382Y-99561272D01*
X125361526Y-99588474D01*
X125388728Y-99621618D01*
X125408944Y-99659440D01*
X125421392Y-99700477D01*
X125426200Y-99749291D01*
X125426200Y-100425709D01*
X125421392Y-100474523D01*
X125408944Y-100515560D01*
X125388728Y-100553382D01*
X125361526Y-100586526D01*
X125328382Y-100613728D01*
X125290560Y-100633944D01*
X125249523Y-100646392D01*
X125200709Y-100651200D01*
X124099291Y-100651200D01*
X124050477Y-100646392D01*
X124009440Y-100633944D01*
X123971618Y-100613728D01*
X123938474Y-100586526D01*
X123911272Y-100553382D01*
X123891056Y-100515560D01*
X123878608Y-100474523D01*
X123873800Y-100425709D01*
X123873800Y-99749291D01*
X123878608Y-99700477D01*
X123891056Y-99659440D01*
X123911272Y-99621618D01*
X123938474Y-99588474D01*
X123971618Y-99561272D01*
X124009440Y-99541056D01*
X124050477Y-99528608D01*
X124099291Y-99523800D01*
X125200709Y-99523800D01*
X125249523Y-99528608D01*
X125249523Y-99528608D01*
G37*
G36*
X136794747Y-98241315D02*
X136972404Y-98314902D01*
X137132294Y-98421738D01*
X137268262Y-98557706D01*
X137375098Y-98717596D01*
X137448685Y-98895253D01*
X137486200Y-99083852D01*
X137486200Y-99276148D01*
X137448685Y-99464747D01*
X137375098Y-99642404D01*
X137268262Y-99802294D01*
X137132294Y-99938262D01*
X136972404Y-100045098D01*
X136794747Y-100118685D01*
X136606148Y-100156200D01*
X136413852Y-100156200D01*
X136225253Y-100118685D01*
X136047596Y-100045098D01*
X135887706Y-99938262D01*
X135751738Y-99802294D01*
X135644902Y-99642404D01*
X135571315Y-99464747D01*
X135533800Y-99276148D01*
X135533800Y-99083852D01*
X135571315Y-98895253D01*
X135644902Y-98717596D01*
X135751738Y-98557706D01*
X135887706Y-98421738D01*
X136047596Y-98314902D01*
X136225253Y-98241315D01*
X136413852Y-98203800D01*
X136606148Y-98203800D01*
X136794747Y-98241315D01*
X136794747Y-98241315D01*
G37*
G36*
X122926200Y-99926200D02*
X122073800Y-99926200D01*
X122073800Y-98173800D01*
X122926200Y-98173800D01*
X122926200Y-99926200D01*
X122926200Y-99926200D01*
G37*
G36*
X110585950Y-99416450D02*
X108441501Y-99416450D01*
X108432936Y-99413852D01*
X108408550Y-99411450D01*
X108113550Y-99411450D01*
X108113550Y-96819050D01*
X108408550Y-96819050D01*
X108432936Y-96816648D01*
X108441501Y-96814050D01*
X110585950Y-96814050D01*
X110585950Y-99416450D01*
X110585950Y-99416450D01*
G37*
G36*
X103664450Y-99416450D02*
X101520001Y-99416450D01*
X101511436Y-99413852D01*
X101487050Y-99411450D01*
X101192050Y-99411450D01*
X101192050Y-96819050D01*
X101487050Y-96819050D01*
X101511436Y-96816648D01*
X101520001Y-96814050D01*
X103664450Y-96814050D01*
X103664450Y-99416450D01*
X103664450Y-99416450D01*
G37*
G36*
X104854450Y-99411450D02*
X104072050Y-99411450D01*
X104072050Y-96819050D01*
X104854450Y-96819050D01*
X104854450Y-99411450D01*
X104854450Y-99411450D01*
G37*
G36*
X111775950Y-99411450D02*
X110993550Y-99411450D01*
X110993550Y-96819050D01*
X111775950Y-96819050D01*
X111775950Y-99411450D01*
X111775950Y-99411450D01*
G37*
G36*
X129526200Y-99376200D02*
X128673800Y-99376200D01*
X128673800Y-97623800D01*
X129526200Y-97623800D01*
X129526200Y-99376200D01*
X129526200Y-99376200D01*
G37*
G36*
X139334747Y-96971315D02*
X139512404Y-97044902D01*
X139672294Y-97151738D01*
X139808262Y-97287706D01*
X139915098Y-97447596D01*
X139988685Y-97625253D01*
X140026200Y-97813852D01*
X140026200Y-98006148D01*
X139988685Y-98194747D01*
X139915098Y-98372404D01*
X139808262Y-98532294D01*
X139672294Y-98668262D01*
X139512404Y-98775098D01*
X139334747Y-98848685D01*
X139146148Y-98886200D01*
X138953852Y-98886200D01*
X138765253Y-98848685D01*
X138587596Y-98775098D01*
X138427706Y-98668262D01*
X138291738Y-98532294D01*
X138184902Y-98372404D01*
X138111315Y-98194747D01*
X138073800Y-98006148D01*
X138073800Y-97813852D01*
X138111315Y-97625253D01*
X138184902Y-97447596D01*
X138291738Y-97287706D01*
X138427706Y-97151738D01*
X138587596Y-97044902D01*
X138765253Y-96971315D01*
X138953852Y-96933800D01*
X139146148Y-96933800D01*
X139334747Y-96971315D01*
X139334747Y-96971315D01*
G37*
G36*
X125249523Y-97653608D02*
X125290560Y-97666056D01*
X125328382Y-97686272D01*
X125361526Y-97713474D01*
X125388728Y-97746618D01*
X125408944Y-97784440D01*
X125421392Y-97825477D01*
X125426200Y-97874291D01*
X125426200Y-98550709D01*
X125421392Y-98599523D01*
X125408944Y-98640560D01*
X125388728Y-98678382D01*
X125361526Y-98711526D01*
X125328382Y-98738728D01*
X125290560Y-98758944D01*
X125249523Y-98771392D01*
X125200709Y-98776200D01*
X124099291Y-98776200D01*
X124050477Y-98771392D01*
X124009440Y-98758944D01*
X123971618Y-98738728D01*
X123938474Y-98711526D01*
X123911272Y-98678382D01*
X123891056Y-98640560D01*
X123878608Y-98599523D01*
X123873800Y-98550709D01*
X123873800Y-97874291D01*
X123878608Y-97825477D01*
X123891056Y-97784440D01*
X123911272Y-97746618D01*
X123938474Y-97713474D01*
X123971618Y-97686272D01*
X124009440Y-97666056D01*
X124050477Y-97653608D01*
X124099291Y-97648800D01*
X125200709Y-97648800D01*
X125249523Y-97653608D01*
X125249523Y-97653608D01*
G37*
G36*
X127626200Y-98576200D02*
X125873800Y-98576200D01*
X125873800Y-97723800D01*
X127626200Y-97723800D01*
X127626200Y-98576200D01*
X127626200Y-98576200D01*
G37*
G36*
X123476200Y-97826200D02*
X122323800Y-97826200D01*
X122323800Y-97073800D01*
X123476200Y-97073800D01*
X123476200Y-97826200D01*
X123476200Y-97826200D01*
G37*
G36*
X136794747Y-95701315D02*
X136972404Y-95774902D01*
X137132294Y-95881738D01*
X137268262Y-96017706D01*
X137375098Y-96177596D01*
X137448685Y-96355253D01*
X137486200Y-96543852D01*
X137486200Y-96736148D01*
X137448685Y-96924747D01*
X137375098Y-97102404D01*
X137268262Y-97262294D01*
X137132294Y-97398262D01*
X136972404Y-97505098D01*
X136794747Y-97578685D01*
X136606148Y-97616200D01*
X136413852Y-97616200D01*
X136225253Y-97578685D01*
X136047596Y-97505098D01*
X135887706Y-97398262D01*
X135751738Y-97262294D01*
X135644902Y-97102404D01*
X135571315Y-96924747D01*
X135533800Y-96736148D01*
X135533800Y-96543852D01*
X135571315Y-96355253D01*
X135644902Y-96177596D01*
X135751738Y-96017706D01*
X135887706Y-95881738D01*
X136047596Y-95774902D01*
X136225253Y-95701315D01*
X136413852Y-95663800D01*
X136606148Y-95663800D01*
X136794747Y-95701315D01*
X136794747Y-95701315D01*
G37*
G36*
X127496104Y-95214032D02*
X127504938Y-95214902D01*
X127519302Y-95219259D01*
X127525685Y-95222671D01*
X127532539Y-95226334D01*
X127544143Y-95235857D01*
X127553664Y-95247459D01*
X127553665Y-95247461D01*
X127560741Y-95260698D01*
X127560743Y-95260703D01*
X127565107Y-95268869D01*
X127578721Y-95289244D01*
X127596047Y-95306571D01*
X127616421Y-95320186D01*
X127639060Y-95329564D01*
X127663093Y-95334345D01*
X127687598Y-95334345D01*
X127711625Y-95329567D01*
X127725062Y-95325491D01*
X127740000Y-95324020D01*
X127740001Y-95324020D01*
X127751517Y-95322886D01*
X127753063Y-95322885D01*
X127777095Y-95318098D01*
X127799731Y-95308714D01*
X127820102Y-95295094D01*
X127837424Y-95277761D01*
X127851016Y-95257412D01*
X127856335Y-95247461D01*
X127865857Y-95235857D01*
X127877461Y-95226334D01*
X127884315Y-95222671D01*
X127890698Y-95219259D01*
X127905062Y-95214902D01*
X127913896Y-95214032D01*
X127926141Y-95212826D01*
X128383859Y-95212826D01*
X128396104Y-95214032D01*
X128404938Y-95214902D01*
X128419302Y-95219259D01*
X128425685Y-95222671D01*
X128432539Y-95226334D01*
X128444143Y-95235857D01*
X128453666Y-95247461D01*
X128457329Y-95254315D01*
X128460741Y-95260698D01*
X128465098Y-95275062D01*
X128465098Y-95275064D01*
X128467174Y-95296141D01*
X128467174Y-95533859D01*
X128466569Y-95540000D01*
X128465098Y-95554938D01*
X128460741Y-95569302D01*
X128457996Y-95574437D01*
X128453666Y-95582539D01*
X128444143Y-95594143D01*
X128432539Y-95603666D01*
X128425685Y-95607329D01*
X128419302Y-95610741D01*
X128404938Y-95615098D01*
X128399816Y-95615602D01*
X128375785Y-95620383D01*
X128353146Y-95629760D01*
X128332771Y-95643374D01*
X128315444Y-95660701D01*
X128301830Y-95681076D01*
X128292453Y-95703715D01*
X128287673Y-95727749D01*
X128287673Y-95752253D01*
X128292454Y-95776286D01*
X128301831Y-95798925D01*
X128315445Y-95819300D01*
X128332772Y-95836627D01*
X128353147Y-95850241D01*
X128375786Y-95859618D01*
X128399816Y-95864398D01*
X128404938Y-95864902D01*
X128419302Y-95869259D01*
X128425685Y-95872671D01*
X128432539Y-95876334D01*
X128444143Y-95885857D01*
X128453666Y-95897461D01*
X128457329Y-95904315D01*
X128460741Y-95910698D01*
X128465098Y-95925062D01*
X128465098Y-95925064D01*
X128467174Y-95946141D01*
X128467174Y-96183859D01*
X128466569Y-96190000D01*
X128465098Y-96204938D01*
X128460741Y-96219302D01*
X128457996Y-96224437D01*
X128453666Y-96232539D01*
X128444143Y-96244143D01*
X128432539Y-96253666D01*
X128425685Y-96257329D01*
X128419302Y-96260741D01*
X128404938Y-96265098D01*
X128396104Y-96265968D01*
X128383859Y-96267174D01*
X127996141Y-96267174D01*
X127983896Y-96265968D01*
X127975062Y-96265098D01*
X127960698Y-96260741D01*
X127954315Y-96257329D01*
X127947461Y-96253666D01*
X127935857Y-96244143D01*
X127926336Y-96232541D01*
X127925936Y-96231792D01*
X127919259Y-96219302D01*
X127919257Y-96219297D01*
X127914893Y-96211131D01*
X127901279Y-96190756D01*
X127883953Y-96173429D01*
X127863579Y-96159814D01*
X127840940Y-96150436D01*
X127816907Y-96145655D01*
X127792402Y-96145655D01*
X127768375Y-96150433D01*
X127754938Y-96154509D01*
X127740000Y-96155980D01*
X127725062Y-96154509D01*
X127711625Y-96150433D01*
X127687601Y-96145655D01*
X127663097Y-96145655D01*
X127639063Y-96150436D01*
X127616424Y-96159813D01*
X127596050Y-96173427D01*
X127578723Y-96190754D01*
X127565107Y-96211131D01*
X127560743Y-96219297D01*
X127560741Y-96219302D01*
X127554064Y-96231792D01*
X127553664Y-96232541D01*
X127544143Y-96244143D01*
X127532539Y-96253666D01*
X127525685Y-96257329D01*
X127519302Y-96260741D01*
X127504938Y-96265098D01*
X127496104Y-96265968D01*
X127483859Y-96267174D01*
X127096141Y-96267174D01*
X127083896Y-96265968D01*
X127075062Y-96265098D01*
X127060698Y-96260741D01*
X127054315Y-96257329D01*
X127047461Y-96253666D01*
X127035857Y-96244143D01*
X127026334Y-96232539D01*
X127016730Y-96214570D01*
X127011440Y-96201799D01*
X126997827Y-96181424D01*
X126980500Y-96164097D01*
X126960125Y-96150483D01*
X126937486Y-96141106D01*
X126913453Y-96136325D01*
X126888949Y-96136325D01*
X126864915Y-96141105D01*
X126842276Y-96150483D01*
X126821901Y-96164096D01*
X126804574Y-96181423D01*
X126790960Y-96201798D01*
X126781583Y-96224437D01*
X126776802Y-96248470D01*
X126776200Y-96260723D01*
X126776200Y-96976200D01*
X125923800Y-96976200D01*
X125923800Y-95610723D01*
X126776200Y-95610723D01*
X126776200Y-95869277D01*
X126778602Y-95893663D01*
X126785715Y-95917112D01*
X126797266Y-95938723D01*
X126812812Y-95957665D01*
X126831754Y-95973211D01*
X126853365Y-95984762D01*
X126876814Y-95991875D01*
X126901200Y-95994277D01*
X126925586Y-95991875D01*
X126949035Y-95984762D01*
X126970646Y-95973211D01*
X126989588Y-95957665D01*
X127005134Y-95938723D01*
X127016685Y-95917112D01*
X127018414Y-95912279D01*
X127026334Y-95897461D01*
X127035857Y-95885857D01*
X127047461Y-95876334D01*
X127054315Y-95872671D01*
X127060698Y-95869259D01*
X127075062Y-95864902D01*
X127080184Y-95864398D01*
X127104215Y-95859617D01*
X127126854Y-95850240D01*
X127147229Y-95836626D01*
X127164556Y-95819299D01*
X127178170Y-95798924D01*
X127187547Y-95776285D01*
X127192327Y-95752251D01*
X127192327Y-95727747D01*
X127187546Y-95703714D01*
X127178169Y-95681075D01*
X127164555Y-95660700D01*
X127147228Y-95643373D01*
X127126853Y-95629759D01*
X127104214Y-95620382D01*
X127080184Y-95615602D01*
X127075062Y-95615098D01*
X127060698Y-95610741D01*
X127054315Y-95607329D01*
X127047461Y-95603666D01*
X127035857Y-95594143D01*
X127026334Y-95582539D01*
X127016730Y-95564570D01*
X127011440Y-95551799D01*
X126997827Y-95531424D01*
X126980500Y-95514097D01*
X126960125Y-95500483D01*
X126937486Y-95491106D01*
X126913453Y-95486325D01*
X126888949Y-95486325D01*
X126864915Y-95491105D01*
X126842276Y-95500483D01*
X126821901Y-95514096D01*
X126804574Y-95531423D01*
X126790960Y-95551798D01*
X126781583Y-95574437D01*
X126776802Y-95598470D01*
X126776200Y-95610723D01*
X125923800Y-95610723D01*
X125923800Y-95223800D01*
X126776646Y-95223800D01*
X126778602Y-95243663D01*
X126785715Y-95267112D01*
X126797266Y-95288723D01*
X126812812Y-95307665D01*
X126831754Y-95323211D01*
X126853365Y-95334762D01*
X126876814Y-95341875D01*
X126901200Y-95344277D01*
X126925586Y-95341875D01*
X126949035Y-95334762D01*
X126970646Y-95323211D01*
X126989588Y-95307665D01*
X127005134Y-95288723D01*
X127016685Y-95267112D01*
X127018414Y-95262279D01*
X127026334Y-95247461D01*
X127035857Y-95235857D01*
X127047461Y-95226334D01*
X127054315Y-95222671D01*
X127060698Y-95219259D01*
X127075062Y-95214902D01*
X127083896Y-95214032D01*
X127096141Y-95212826D01*
X127483859Y-95212826D01*
X127496104Y-95214032D01*
X127496104Y-95214032D01*
G37*
G36*
X129696200Y-96976200D02*
X128843800Y-96976200D01*
X128843800Y-95223800D01*
X129696200Y-95223800D01*
X129696200Y-96976200D01*
X129696200Y-96976200D01*
G37*
G36*
X125476200Y-96926200D02*
X124723800Y-96926200D01*
X124723800Y-95773800D01*
X125476200Y-95773800D01*
X125476200Y-96926200D01*
X125476200Y-96926200D01*
G37*
G36*
X134376200Y-96651200D02*
X133523800Y-96651200D01*
X133523800Y-94898800D01*
X134376200Y-94898800D01*
X134376200Y-96651200D01*
X134376200Y-96651200D01*
G37*
G36*
X139334747Y-94431315D02*
X139512404Y-94504902D01*
X139672294Y-94611738D01*
X139808262Y-94747706D01*
X139915098Y-94907596D01*
X139988685Y-95085253D01*
X140026200Y-95273852D01*
X140026200Y-95466148D01*
X139988685Y-95654747D01*
X139915098Y-95832404D01*
X139808262Y-95992294D01*
X139672294Y-96128262D01*
X139512404Y-96235098D01*
X139334747Y-96308685D01*
X139146148Y-96346200D01*
X138953852Y-96346200D01*
X138765253Y-96308685D01*
X138587596Y-96235098D01*
X138427706Y-96128262D01*
X138291738Y-95992294D01*
X138184902Y-95832404D01*
X138111315Y-95654747D01*
X138073800Y-95466148D01*
X138073800Y-95273852D01*
X138111315Y-95085253D01*
X138184902Y-94907596D01*
X138291738Y-94747706D01*
X138427706Y-94611738D01*
X138587596Y-94504902D01*
X138765253Y-94431315D01*
X138953852Y-94393800D01*
X139146148Y-94393800D01*
X139334747Y-94431315D01*
X139334747Y-94431315D01*
G37*
G36*
X107407400Y-95590200D02*
X106355000Y-95590200D01*
X106355000Y-93737800D01*
X107407400Y-93737800D01*
X107407400Y-95590200D01*
X107407400Y-95590200D01*
G37*
G36*
X110307400Y-95590200D02*
X109255000Y-95590200D01*
X109255000Y-93737800D01*
X110307400Y-93737800D01*
X110307400Y-95590200D01*
X110307400Y-95590200D01*
G37*
G36*
X99175950Y-95474950D02*
X98023550Y-95474950D01*
X98023550Y-94072550D01*
X99175950Y-94072550D01*
X99175950Y-95474950D01*
X99175950Y-95474950D01*
G37*
G36*
X101175950Y-95474950D02*
X100023550Y-95474950D01*
X100023550Y-94072550D01*
X101175950Y-94072550D01*
X101175950Y-95474950D01*
X101175950Y-95474950D01*
G37*
G36*
X136794747Y-93161315D02*
X136972404Y-93234902D01*
X137132294Y-93341738D01*
X137268262Y-93477706D01*
X137375098Y-93637596D01*
X137448685Y-93815253D01*
X137486200Y-94003852D01*
X137486200Y-94196148D01*
X137448685Y-94384747D01*
X137375098Y-94562404D01*
X137268262Y-94722294D01*
X137132294Y-94858262D01*
X136972404Y-94965098D01*
X136794747Y-95038685D01*
X136606148Y-95076200D01*
X136413852Y-95076200D01*
X136225253Y-95038685D01*
X136047596Y-94965098D01*
X135887706Y-94858262D01*
X135751738Y-94722294D01*
X135644902Y-94562404D01*
X135571315Y-94384747D01*
X135533800Y-94196148D01*
X135533800Y-94003852D01*
X135571315Y-93815253D01*
X135644902Y-93637596D01*
X135751738Y-93477706D01*
X135887706Y-93341738D01*
X136047596Y-93234902D01*
X136225253Y-93161315D01*
X136413852Y-93123800D01*
X136606148Y-93123800D01*
X136794747Y-93161315D01*
X136794747Y-93161315D01*
G37*
G36*
X116426200Y-95026200D02*
X114673800Y-95026200D01*
X114673800Y-94173800D01*
X116426200Y-94173800D01*
X116426200Y-95026200D01*
X116426200Y-95026200D01*
G37*
G36*
X132026200Y-94951200D02*
X131173800Y-94951200D01*
X131173800Y-93198800D01*
X132026200Y-93198800D01*
X132026200Y-94951200D01*
X132026200Y-94951200D01*
G37*
G36*
X127676200Y-94926200D02*
X125923800Y-94926200D01*
X125923800Y-94073800D01*
X127676200Y-94073800D01*
X127676200Y-94926200D01*
X127676200Y-94926200D01*
G37*
G36*
X133751200Y-94276200D02*
X132398800Y-94276200D01*
X132398800Y-92873800D01*
X133751200Y-92873800D01*
X133751200Y-94276200D01*
X133751200Y-94276200D01*
G37*
G36*
X99175950Y-93633450D02*
X98023550Y-93633450D01*
X98023550Y-92231050D01*
X99175950Y-92231050D01*
X99175950Y-93633450D01*
X99175950Y-93633450D01*
G37*
G36*
X101175950Y-93633450D02*
X100023550Y-93633450D01*
X100023550Y-92231050D01*
X101175950Y-92231050D01*
X101175950Y-93633450D01*
X101175950Y-93633450D01*
G37*
G36*
X113526200Y-93576200D02*
X111573800Y-93576200D01*
X111573800Y-91823800D01*
X113526200Y-91823800D01*
X113526200Y-93576200D01*
X113526200Y-93576200D01*
G37*
G36*
X114876200Y-93426200D02*
X113923800Y-93426200D01*
X113923800Y-92523800D01*
X114876200Y-92523800D01*
X114876200Y-93426200D01*
X114876200Y-93426200D01*
G37*
G36*
X116376200Y-93426200D02*
X115423800Y-93426200D01*
X115423800Y-92523800D01*
X116376200Y-92523800D01*
X116376200Y-93426200D01*
X116376200Y-93426200D01*
G37*
G36*
X109176200Y-92348800D02*
X109178602Y-92373186D01*
X109185715Y-92396635D01*
X109197266Y-92418246D01*
X109212812Y-92437188D01*
X109231754Y-92452734D01*
X109253365Y-92464285D01*
X109276814Y-92471398D01*
X109301200Y-92473800D01*
X110126200Y-92473800D01*
X110126200Y-93326200D01*
X106473800Y-93326200D01*
X106473800Y-92473800D01*
X107298800Y-92473800D01*
X107323186Y-92471398D01*
X107346635Y-92464285D01*
X107368246Y-92452734D01*
X107387188Y-92437188D01*
X107402734Y-92418246D01*
X107414285Y-92396635D01*
X107421398Y-92373186D01*
X107423800Y-92348800D01*
X107423800Y-91423800D01*
X109176200Y-91423800D01*
X109176200Y-92348800D01*
X109176200Y-92348800D01*
G37*
G36*
X129976200Y-93226200D02*
X128223800Y-93226200D01*
X128223800Y-92373800D01*
X129976200Y-92373800D01*
X129976200Y-93226200D01*
X129976200Y-93226200D01*
G37*
G36*
X127488700Y-91286300D02*
X127491102Y-91310686D01*
X127498215Y-91334135D01*
X127509766Y-91355746D01*
X127525312Y-91374688D01*
X127544254Y-91390234D01*
X127565865Y-91401785D01*
X127589314Y-91408898D01*
X127613700Y-91411300D01*
X127826200Y-91411300D01*
X127826200Y-92188700D01*
X127613700Y-92188700D01*
X127589314Y-92191102D01*
X127565865Y-92198215D01*
X127544254Y-92209766D01*
X127525312Y-92225312D01*
X127509766Y-92244254D01*
X127498215Y-92265865D01*
X127491102Y-92289314D01*
X127488700Y-92313700D01*
X127488700Y-92926200D01*
X126311300Y-92926200D01*
X126311300Y-92313700D01*
X126308898Y-92289314D01*
X126301785Y-92265865D01*
X126290234Y-92244254D01*
X126274688Y-92225312D01*
X126255746Y-92209766D01*
X126234135Y-92198215D01*
X126210686Y-92191102D01*
X126186300Y-92188700D01*
X125973800Y-92188700D01*
X125973800Y-91514200D01*
X126689200Y-91514200D01*
X126689200Y-91686300D01*
X126691602Y-91710686D01*
X126698715Y-91734135D01*
X126710266Y-91755746D01*
X126725812Y-91774688D01*
X126744754Y-91790234D01*
X126766365Y-91801785D01*
X126789200Y-91808712D01*
X126789200Y-92085800D01*
X126791602Y-92110186D01*
X126798715Y-92133635D01*
X126810266Y-92155246D01*
X126825812Y-92174188D01*
X126844754Y-92189734D01*
X126866365Y-92201285D01*
X126889814Y-92208398D01*
X126914200Y-92210800D01*
X126985800Y-92210800D01*
X127010186Y-92208398D01*
X127033635Y-92201285D01*
X127055246Y-92189734D01*
X127074188Y-92174188D01*
X127089734Y-92155246D01*
X127101285Y-92133635D01*
X127108398Y-92110186D01*
X127110800Y-92085800D01*
X127110800Y-91514200D01*
X127108398Y-91489814D01*
X127101285Y-91466365D01*
X127089734Y-91444754D01*
X127074188Y-91425812D01*
X127055246Y-91410266D01*
X127033635Y-91398715D01*
X127010186Y-91391602D01*
X126985800Y-91389200D01*
X126814200Y-91389200D01*
X126789814Y-91391602D01*
X126766365Y-91398715D01*
X126744754Y-91410266D01*
X126725812Y-91425812D01*
X126710266Y-91444754D01*
X126698715Y-91466365D01*
X126691602Y-91489814D01*
X126689200Y-91514200D01*
X125973800Y-91514200D01*
X125973800Y-91411300D01*
X126186300Y-91411300D01*
X126210686Y-91408898D01*
X126234135Y-91401785D01*
X126255746Y-91390234D01*
X126274688Y-91374688D01*
X126290234Y-91355746D01*
X126301785Y-91334135D01*
X126308898Y-91310686D01*
X126311300Y-91286300D01*
X126311300Y-90673800D01*
X127488700Y-90673800D01*
X127488700Y-91286300D01*
X127488700Y-91286300D01*
G37*
G36*
X135326200Y-92676200D02*
X134473800Y-92676200D01*
X134473800Y-90923800D01*
X135326200Y-90923800D01*
X135326200Y-92676200D01*
X135326200Y-92676200D01*
G37*
G36*
X101175950Y-91791950D02*
X100023550Y-91791950D01*
X100023550Y-90389550D01*
X101175950Y-90389550D01*
X101175950Y-91791950D01*
X101175950Y-91791950D01*
G37*
G36*
X99175950Y-91791950D02*
X98023550Y-91791950D01*
X98023550Y-90389550D01*
X99175950Y-90389550D01*
X99175950Y-91791950D01*
X99175950Y-91791950D01*
G37*
G36*
X106156141Y-87745253D02*
X106494436Y-87812544D01*
X106854082Y-87961514D01*
X107121555Y-88140234D01*
X107177757Y-88177787D01*
X107453013Y-88453043D01*
X107453015Y-88453046D01*
X107669286Y-88776718D01*
X107818256Y-89136364D01*
X107894200Y-89518161D01*
X107894200Y-89907439D01*
X107818256Y-90289236D01*
X107669286Y-90648882D01*
X107485591Y-90923800D01*
X107453013Y-90972557D01*
X107215158Y-91210412D01*
X107213019Y-91213019D01*
X107210412Y-91215158D01*
X107177757Y-91247813D01*
X107177754Y-91247815D01*
X106854082Y-91464086D01*
X106494436Y-91613056D01*
X106112640Y-91689000D01*
X105723360Y-91689000D01*
X105532463Y-91651028D01*
X105341564Y-91613056D01*
X104981918Y-91464086D01*
X104658246Y-91247815D01*
X104658243Y-91247813D01*
X104382987Y-90972557D01*
X104350409Y-90923800D01*
X104166714Y-90648882D01*
X104017744Y-90289236D01*
X103941800Y-89907439D01*
X103941800Y-89518161D01*
X104017744Y-89136364D01*
X104166714Y-88776718D01*
X104382985Y-88453046D01*
X104382987Y-88453043D01*
X104658243Y-88177787D01*
X104714445Y-88140234D01*
X104981918Y-87961514D01*
X105341564Y-87812544D01*
X105679859Y-87745253D01*
X105723360Y-87736600D01*
X106112640Y-87736600D01*
X106156141Y-87745253D01*
X106156141Y-87745253D01*
G37*
G36*
X140026200Y-90276200D02*
X138155858Y-90276200D01*
X138131472Y-90278602D01*
X138108023Y-90285715D01*
X138086412Y-90297266D01*
X138067470Y-90312812D01*
X138051924Y-90331754D01*
X138040373Y-90353365D01*
X138033260Y-90376814D01*
X138030858Y-90401200D01*
X138033260Y-90425586D01*
X138040374Y-90449037D01*
X138044498Y-90458993D01*
X138076250Y-90618620D01*
X138076250Y-90781380D01*
X138044498Y-90941007D01*
X137982214Y-91091375D01*
X137891788Y-91226707D01*
X137776707Y-91341788D01*
X137641375Y-91432214D01*
X137553292Y-91468699D01*
X137491008Y-91494498D01*
X137411193Y-91510374D01*
X137331380Y-91526250D01*
X137168620Y-91526250D01*
X137008992Y-91494498D01*
X136946708Y-91468699D01*
X136858625Y-91432214D01*
X136723293Y-91341788D01*
X136608212Y-91226707D01*
X136517786Y-91091375D01*
X136455502Y-90941007D01*
X136423750Y-90781380D01*
X136423750Y-90618620D01*
X136455502Y-90458993D01*
X136469340Y-90425586D01*
X136484266Y-90389550D01*
X136517786Y-90308625D01*
X136608212Y-90173293D01*
X136723293Y-90058212D01*
X136858625Y-89967786D01*
X136946708Y-89931301D01*
X137008992Y-89905502D01*
X137088807Y-89889626D01*
X137168620Y-89873750D01*
X137331380Y-89873750D01*
X137491008Y-89905502D01*
X137553292Y-89931301D01*
X137641375Y-89967786D01*
X137776707Y-90058212D01*
X137860412Y-90141917D01*
X137879354Y-90157463D01*
X137900965Y-90169014D01*
X137924414Y-90176127D01*
X137948800Y-90178529D01*
X137973186Y-90176127D01*
X137996635Y-90169014D01*
X138018246Y-90157463D01*
X138037188Y-90141917D01*
X138052734Y-90122975D01*
X138064285Y-90101364D01*
X138071398Y-90077915D01*
X138073800Y-90053529D01*
X138073800Y-88323800D01*
X140026200Y-88323800D01*
X140026200Y-90276200D01*
X140026200Y-90276200D01*
G37*
G36*
X122076200Y-90526200D02*
X121223800Y-90526200D01*
X121223800Y-88773800D01*
X122076200Y-88773800D01*
X122076200Y-90526200D01*
X122076200Y-90526200D01*
G37*
G36*
X133621200Y-90211200D02*
X132318800Y-90211200D01*
X132318800Y-89308800D01*
X133621200Y-89308800D01*
X133621200Y-90211200D01*
X133621200Y-90211200D01*
G37*
G36*
X101175950Y-89950450D02*
X100023550Y-89950450D01*
X100023550Y-88548050D01*
X101175950Y-88548050D01*
X101175950Y-89950450D01*
X101175950Y-89950450D01*
G37*
G36*
X99175950Y-89950450D02*
X98023550Y-89950450D01*
X98023550Y-88548050D01*
X99175950Y-88548050D01*
X99175950Y-89950450D01*
X99175950Y-89950450D01*
G37*
G36*
X129076200Y-89826200D02*
X128223800Y-89826200D01*
X128223800Y-88073800D01*
X129076200Y-88073800D01*
X129076200Y-89826200D01*
X129076200Y-89826200D01*
G37*
G36*
X127438700Y-88036300D02*
X127441102Y-88060686D01*
X127448215Y-88084135D01*
X127459766Y-88105746D01*
X127475312Y-88124688D01*
X127494254Y-88140234D01*
X127515865Y-88151785D01*
X127539314Y-88158898D01*
X127563700Y-88161300D01*
X127776200Y-88161300D01*
X127776200Y-88938700D01*
X127563700Y-88938700D01*
X127539314Y-88941102D01*
X127515865Y-88948215D01*
X127494254Y-88959766D01*
X127475312Y-88975312D01*
X127459766Y-88994254D01*
X127448215Y-89015865D01*
X127441102Y-89039314D01*
X127438700Y-89063700D01*
X127438700Y-89676200D01*
X126261300Y-89676200D01*
X126261300Y-89063700D01*
X126258898Y-89039314D01*
X126251785Y-89015865D01*
X126240234Y-88994254D01*
X126224688Y-88975312D01*
X126205746Y-88959766D01*
X126184135Y-88948215D01*
X126160686Y-88941102D01*
X126136300Y-88938700D01*
X125923800Y-88938700D01*
X125923800Y-88264200D01*
X126639200Y-88264200D01*
X126639200Y-88436300D01*
X126641602Y-88460686D01*
X126648715Y-88484135D01*
X126660266Y-88505746D01*
X126675812Y-88524688D01*
X126694754Y-88540234D01*
X126716365Y-88551785D01*
X126739200Y-88558712D01*
X126739200Y-88835800D01*
X126741602Y-88860186D01*
X126748715Y-88883635D01*
X126760266Y-88905246D01*
X126775812Y-88924188D01*
X126794754Y-88939734D01*
X126816365Y-88951285D01*
X126839814Y-88958398D01*
X126864200Y-88960800D01*
X126935800Y-88960800D01*
X126960186Y-88958398D01*
X126983635Y-88951285D01*
X127005246Y-88939734D01*
X127024188Y-88924188D01*
X127039734Y-88905246D01*
X127051285Y-88883635D01*
X127058398Y-88860186D01*
X127060800Y-88835800D01*
X127060800Y-88264200D01*
X127058398Y-88239814D01*
X127051285Y-88216365D01*
X127039734Y-88194754D01*
X127024188Y-88175812D01*
X127005246Y-88160266D01*
X126983635Y-88148715D01*
X126960186Y-88141602D01*
X126935800Y-88139200D01*
X126764200Y-88139200D01*
X126739814Y-88141602D01*
X126716365Y-88148715D01*
X126694754Y-88160266D01*
X126675812Y-88175812D01*
X126660266Y-88194754D01*
X126648715Y-88216365D01*
X126641602Y-88239814D01*
X126639200Y-88264200D01*
X125923800Y-88264200D01*
X125923800Y-88161300D01*
X126136300Y-88161300D01*
X126160686Y-88158898D01*
X126184135Y-88151785D01*
X126205746Y-88140234D01*
X126224688Y-88124688D01*
X126240234Y-88105746D01*
X126251785Y-88084135D01*
X126258898Y-88060686D01*
X126261300Y-88036300D01*
X126261300Y-87423800D01*
X127438700Y-87423800D01*
X127438700Y-88036300D01*
X127438700Y-88036300D01*
G37*
G36*
X119026200Y-89126200D02*
X117273800Y-89126200D01*
X117273800Y-87223800D01*
X119026200Y-87223800D01*
X119026200Y-89126200D01*
X119026200Y-89126200D01*
G37*
G36*
X136794747Y-87091315D02*
X136972404Y-87164902D01*
X137132294Y-87271738D01*
X137268262Y-87407706D01*
X137375098Y-87567596D01*
X137448685Y-87745253D01*
X137486200Y-87933852D01*
X137486200Y-88126148D01*
X137448685Y-88314747D01*
X137375098Y-88492404D01*
X137268262Y-88652294D01*
X137132294Y-88788262D01*
X136972404Y-88895098D01*
X136794747Y-88968685D01*
X136606148Y-89006200D01*
X136413852Y-89006200D01*
X136225253Y-88968685D01*
X136047596Y-88895098D01*
X135887706Y-88788262D01*
X135751738Y-88652294D01*
X135644902Y-88492404D01*
X135571315Y-88314747D01*
X135533800Y-88126148D01*
X135533800Y-87933852D01*
X135571315Y-87745253D01*
X135644902Y-87567596D01*
X135751738Y-87407706D01*
X135887706Y-87271738D01*
X136047596Y-87164902D01*
X136225253Y-87091315D01*
X136413852Y-87053800D01*
X136606148Y-87053800D01*
X136794747Y-87091315D01*
X136794747Y-87091315D01*
G37*
G36*
X133621200Y-88511200D02*
X132318800Y-88511200D01*
X132318800Y-87608800D01*
X133621200Y-87608800D01*
X133621200Y-88511200D01*
X133621200Y-88511200D01*
G37*
G36*
X121076200Y-88426200D02*
X119323800Y-88426200D01*
X119323800Y-87573800D01*
X121076200Y-87573800D01*
X121076200Y-88426200D01*
X121076200Y-88426200D01*
G37*
G36*
X99175950Y-88108950D02*
X98023550Y-88108950D01*
X98023550Y-86706550D01*
X99175950Y-86706550D01*
X99175950Y-88108950D01*
X99175950Y-88108950D01*
G37*
G36*
X101175950Y-88108950D02*
X100023550Y-88108950D01*
X100023550Y-86706550D01*
X101175950Y-86706550D01*
X101175950Y-88108950D01*
X101175950Y-88108950D01*
G37*
G36*
X139334747Y-85821315D02*
X139512404Y-85894902D01*
X139672294Y-86001738D01*
X139808262Y-86137706D01*
X139915098Y-86297596D01*
X139988685Y-86475253D01*
X140026200Y-86663852D01*
X140026200Y-86856148D01*
X139988685Y-87044747D01*
X139915098Y-87222404D01*
X139808262Y-87382294D01*
X139672294Y-87518262D01*
X139512404Y-87625098D01*
X139334747Y-87698685D01*
X139146148Y-87736200D01*
X138953852Y-87736200D01*
X138765253Y-87698685D01*
X138587596Y-87625098D01*
X138427706Y-87518262D01*
X138291738Y-87382294D01*
X138184902Y-87222404D01*
X138111315Y-87044747D01*
X138073800Y-86856148D01*
X138073800Y-86663852D01*
X138111315Y-86475253D01*
X138184902Y-86297596D01*
X138291738Y-86137706D01*
X138427706Y-86001738D01*
X138587596Y-85894902D01*
X138765253Y-85821315D01*
X138953852Y-85783800D01*
X139146148Y-85783800D01*
X139334747Y-85821315D01*
X139334747Y-85821315D01*
G37*
G36*
X132976200Y-86976200D02*
X131223800Y-86976200D01*
X131223800Y-86123800D01*
X132976200Y-86123800D01*
X132976200Y-86976200D01*
X132976200Y-86976200D01*
G37*
G36*
X136794747Y-84551315D02*
X136972404Y-84624902D01*
X137132294Y-84731738D01*
X137268262Y-84867706D01*
X137375098Y-85027596D01*
X137448685Y-85205253D01*
X137486200Y-85393852D01*
X137486200Y-85586148D01*
X137448685Y-85774747D01*
X137375098Y-85952404D01*
X137268262Y-86112294D01*
X137132294Y-86248262D01*
X136972404Y-86355098D01*
X136794747Y-86428685D01*
X136606148Y-86466200D01*
X136413852Y-86466200D01*
X136225253Y-86428685D01*
X136047596Y-86355098D01*
X135887706Y-86248262D01*
X135751738Y-86112294D01*
X135644902Y-85952404D01*
X135571315Y-85774747D01*
X135533800Y-85586148D01*
X135533800Y-85393852D01*
X135571315Y-85205253D01*
X135644902Y-85027596D01*
X135751738Y-84867706D01*
X135887706Y-84731738D01*
X136047596Y-84624902D01*
X136225253Y-84551315D01*
X136413852Y-84513800D01*
X136606148Y-84513800D01*
X136794747Y-84551315D01*
X136794747Y-84551315D01*
G37*
G36*
X101175950Y-86267450D02*
X100023550Y-86267450D01*
X100023550Y-84865050D01*
X101175950Y-84865050D01*
X101175950Y-86267450D01*
X101175950Y-86267450D01*
G37*
G36*
X99175950Y-86267450D02*
X98023550Y-86267450D01*
X98023550Y-84865050D01*
X99175950Y-84865050D01*
X99175950Y-86267450D01*
X99175950Y-86267450D01*
G37*
G36*
X110434747Y-83951315D02*
X110612404Y-84024902D01*
X110772294Y-84131738D01*
X110908262Y-84267706D01*
X111015098Y-84427596D01*
X111088685Y-84605253D01*
X111126200Y-84793852D01*
X111126200Y-84986148D01*
X111088685Y-85174747D01*
X111015098Y-85352404D01*
X110908262Y-85512294D01*
X110772294Y-85648262D01*
X110612404Y-85755098D01*
X110434747Y-85828685D01*
X110246148Y-85866200D01*
X110053852Y-85866200D01*
X109865253Y-85828685D01*
X109687596Y-85755098D01*
X109527706Y-85648262D01*
X109391738Y-85512294D01*
X109284902Y-85352404D01*
X109211315Y-85174747D01*
X109173800Y-84986148D01*
X109173800Y-84793852D01*
X109211315Y-84605253D01*
X109284902Y-84427596D01*
X109391738Y-84267706D01*
X109527706Y-84131738D01*
X109687596Y-84024902D01*
X109865253Y-83951315D01*
X110053852Y-83913800D01*
X110246148Y-83913800D01*
X110434747Y-83951315D01*
X110434747Y-83951315D01*
G37*
G36*
X115514747Y-83951315D02*
X115692404Y-84024902D01*
X115852294Y-84131738D01*
X115988262Y-84267706D01*
X116095098Y-84427596D01*
X116168685Y-84605253D01*
X116206200Y-84793852D01*
X116206200Y-84986148D01*
X116168685Y-85174747D01*
X116095098Y-85352404D01*
X115988262Y-85512294D01*
X115852294Y-85648262D01*
X115692404Y-85755098D01*
X115514747Y-85828685D01*
X115326148Y-85866200D01*
X115133852Y-85866200D01*
X114945253Y-85828685D01*
X114767596Y-85755098D01*
X114607706Y-85648262D01*
X114471738Y-85512294D01*
X114364902Y-85352404D01*
X114291315Y-85174747D01*
X114253800Y-84986148D01*
X114253800Y-84793852D01*
X114291315Y-84605253D01*
X114364902Y-84427596D01*
X114471738Y-84267706D01*
X114607706Y-84131738D01*
X114767596Y-84024902D01*
X114945253Y-83951315D01*
X115133852Y-83913800D01*
X115326148Y-83913800D01*
X115514747Y-83951315D01*
X115514747Y-83951315D01*
G37*
G36*
X112974747Y-83951315D02*
X113152404Y-84024902D01*
X113312294Y-84131738D01*
X113448262Y-84267706D01*
X113555098Y-84427596D01*
X113628685Y-84605253D01*
X113666200Y-84793852D01*
X113666200Y-84986148D01*
X113628685Y-85174747D01*
X113555098Y-85352404D01*
X113448262Y-85512294D01*
X113312294Y-85648262D01*
X113152404Y-85755098D01*
X112974747Y-85828685D01*
X112786148Y-85866200D01*
X112593852Y-85866200D01*
X112405253Y-85828685D01*
X112227596Y-85755098D01*
X112067706Y-85648262D01*
X111931738Y-85512294D01*
X111824902Y-85352404D01*
X111751315Y-85174747D01*
X111713800Y-84986148D01*
X111713800Y-84793852D01*
X111751315Y-84605253D01*
X111824902Y-84427596D01*
X111931738Y-84267706D01*
X112067706Y-84131738D01*
X112227596Y-84024902D01*
X112405253Y-83951315D01*
X112593852Y-83913800D01*
X112786148Y-83913800D01*
X112974747Y-83951315D01*
X112974747Y-83951315D01*
G37*
G36*
X121634747Y-83951315D02*
X121812404Y-84024902D01*
X121972294Y-84131738D01*
X122108262Y-84267706D01*
X122215098Y-84427596D01*
X122288685Y-84605253D01*
X122326200Y-84793852D01*
X122326200Y-84986148D01*
X122288685Y-85174747D01*
X122215098Y-85352404D01*
X122108262Y-85512294D01*
X121972294Y-85648262D01*
X121812404Y-85755098D01*
X121634747Y-85828685D01*
X121446148Y-85866200D01*
X121253852Y-85866200D01*
X121065253Y-85828685D01*
X120887596Y-85755098D01*
X120727706Y-85648262D01*
X120591738Y-85512294D01*
X120484902Y-85352404D01*
X120411315Y-85174747D01*
X120373800Y-84986148D01*
X120373800Y-84793852D01*
X120411315Y-84605253D01*
X120484902Y-84427596D01*
X120591738Y-84267706D01*
X120727706Y-84131738D01*
X120887596Y-84024902D01*
X121065253Y-83951315D01*
X121253852Y-83913800D01*
X121446148Y-83913800D01*
X121634747Y-83951315D01*
X121634747Y-83951315D01*
G37*
G36*
X126714747Y-83951315D02*
X126892404Y-84024902D01*
X127052294Y-84131738D01*
X127188262Y-84267706D01*
X127295098Y-84427596D01*
X127368685Y-84605253D01*
X127406200Y-84793852D01*
X127406200Y-84986148D01*
X127368685Y-85174747D01*
X127295098Y-85352404D01*
X127188262Y-85512294D01*
X127052294Y-85648262D01*
X126892404Y-85755098D01*
X126714747Y-85828685D01*
X126526148Y-85866200D01*
X126333852Y-85866200D01*
X126145253Y-85828685D01*
X125967596Y-85755098D01*
X125807706Y-85648262D01*
X125671738Y-85512294D01*
X125564902Y-85352404D01*
X125491315Y-85174747D01*
X125453800Y-84986148D01*
X125453800Y-84793852D01*
X125491315Y-84605253D01*
X125564902Y-84427596D01*
X125671738Y-84267706D01*
X125807706Y-84131738D01*
X125967596Y-84024902D01*
X126145253Y-83951315D01*
X126333852Y-83913800D01*
X126526148Y-83913800D01*
X126714747Y-83951315D01*
X126714747Y-83951315D01*
G37*
G36*
X124174747Y-83951315D02*
X124352404Y-84024902D01*
X124512294Y-84131738D01*
X124648262Y-84267706D01*
X124755098Y-84427596D01*
X124828685Y-84605253D01*
X124866200Y-84793852D01*
X124866200Y-84986148D01*
X124828685Y-85174747D01*
X124755098Y-85352404D01*
X124648262Y-85512294D01*
X124512294Y-85648262D01*
X124352404Y-85755098D01*
X124174747Y-85828685D01*
X123986148Y-85866200D01*
X123793852Y-85866200D01*
X123605253Y-85828685D01*
X123427596Y-85755098D01*
X123267706Y-85648262D01*
X123131738Y-85512294D01*
X123024902Y-85352404D01*
X122951315Y-85174747D01*
X122913800Y-84986148D01*
X122913800Y-84793852D01*
X122951315Y-84605253D01*
X123024902Y-84427596D01*
X123131738Y-84267706D01*
X123267706Y-84131738D01*
X123427596Y-84024902D01*
X123605253Y-83951315D01*
X123793852Y-83913800D01*
X123986148Y-83913800D01*
X124174747Y-83951315D01*
X124174747Y-83951315D01*
G37*
G36*
X139334747Y-83281315D02*
X139512404Y-83354902D01*
X139672294Y-83461738D01*
X139808262Y-83597706D01*
X139915098Y-83757596D01*
X139988685Y-83935253D01*
X140026200Y-84123852D01*
X140026200Y-84316148D01*
X139988685Y-84504747D01*
X139915098Y-84682404D01*
X139808262Y-84842294D01*
X139672294Y-84978262D01*
X139512404Y-85085098D01*
X139334747Y-85158685D01*
X139146148Y-85196200D01*
X138953852Y-85196200D01*
X138765253Y-85158685D01*
X138587596Y-85085098D01*
X138427706Y-84978262D01*
X138291738Y-84842294D01*
X138184902Y-84682404D01*
X138111315Y-84504747D01*
X138073800Y-84316148D01*
X138073800Y-84123852D01*
X138111315Y-83935253D01*
X138184902Y-83757596D01*
X138291738Y-83597706D01*
X138427706Y-83461738D01*
X138587596Y-83354902D01*
X138765253Y-83281315D01*
X138953852Y-83243800D01*
X139146148Y-83243800D01*
X139334747Y-83281315D01*
X139334747Y-83281315D01*
G37*
G36*
X128676200Y-83244142D02*
X128678602Y-83268528D01*
X128685715Y-83291977D01*
X128697266Y-83313588D01*
X128712812Y-83332530D01*
X128731754Y-83348076D01*
X128753365Y-83359627D01*
X128776814Y-83366740D01*
X128801200Y-83369142D01*
X128825586Y-83366740D01*
X128849033Y-83359627D01*
X128858992Y-83355502D01*
X129018620Y-83323750D01*
X129181380Y-83323750D01*
X129341008Y-83355502D01*
X129403292Y-83381301D01*
X129491375Y-83417786D01*
X129626707Y-83508212D01*
X129741788Y-83623293D01*
X129832214Y-83758625D01*
X129868699Y-83846708D01*
X129894498Y-83908992D01*
X129926250Y-84068621D01*
X129926250Y-84231379D01*
X129894498Y-84391008D01*
X129868699Y-84453292D01*
X129832214Y-84541375D01*
X129741788Y-84676707D01*
X129626707Y-84791788D01*
X129491375Y-84882214D01*
X129403292Y-84918699D01*
X129341008Y-84944498D01*
X129181380Y-84976250D01*
X129018620Y-84976250D01*
X128858992Y-84944498D01*
X128796708Y-84918699D01*
X128708625Y-84882214D01*
X128573293Y-84791788D01*
X128458212Y-84676707D01*
X128367786Y-84541375D01*
X128331301Y-84453292D01*
X128305502Y-84391008D01*
X128273750Y-84231379D01*
X128273750Y-84068621D01*
X128305502Y-83908992D01*
X128331301Y-83846708D01*
X128367786Y-83758625D01*
X128458212Y-83623293D01*
X128541917Y-83539588D01*
X128557463Y-83520646D01*
X128569014Y-83499035D01*
X128576127Y-83475586D01*
X128578529Y-83451200D01*
X128576127Y-83426814D01*
X128569014Y-83403365D01*
X128557463Y-83381754D01*
X128541917Y-83362812D01*
X128522975Y-83347266D01*
X128501364Y-83335715D01*
X128477915Y-83328602D01*
X128453529Y-83326200D01*
X126723800Y-83326200D01*
X126723800Y-81373800D01*
X128676200Y-81373800D01*
X128676200Y-83244142D01*
X128676200Y-83244142D01*
G37*
G36*
X117476200Y-83244142D02*
X117478602Y-83268528D01*
X117485715Y-83291977D01*
X117497266Y-83313588D01*
X117512812Y-83332530D01*
X117531754Y-83348076D01*
X117553365Y-83359627D01*
X117576814Y-83366740D01*
X117601200Y-83369142D01*
X117625586Y-83366740D01*
X117649033Y-83359627D01*
X117658992Y-83355502D01*
X117818620Y-83323750D01*
X117981380Y-83323750D01*
X118141008Y-83355502D01*
X118203292Y-83381301D01*
X118291375Y-83417786D01*
X118426707Y-83508212D01*
X118541788Y-83623293D01*
X118632214Y-83758625D01*
X118668699Y-83846708D01*
X118694498Y-83908992D01*
X118726250Y-84068621D01*
X118726250Y-84231379D01*
X118694498Y-84391008D01*
X118668699Y-84453292D01*
X118632214Y-84541375D01*
X118541788Y-84676707D01*
X118426707Y-84791788D01*
X118291375Y-84882214D01*
X118203292Y-84918699D01*
X118141008Y-84944498D01*
X117981380Y-84976250D01*
X117818620Y-84976250D01*
X117658992Y-84944498D01*
X117596708Y-84918699D01*
X117508625Y-84882214D01*
X117373293Y-84791788D01*
X117258212Y-84676707D01*
X117167786Y-84541375D01*
X117131301Y-84453292D01*
X117105502Y-84391008D01*
X117073750Y-84231379D01*
X117073750Y-84068621D01*
X117105502Y-83908992D01*
X117131301Y-83846708D01*
X117167786Y-83758625D01*
X117258212Y-83623293D01*
X117341917Y-83539588D01*
X117357463Y-83520646D01*
X117369014Y-83499035D01*
X117376127Y-83475586D01*
X117378529Y-83451200D01*
X117376127Y-83426814D01*
X117369014Y-83403365D01*
X117357463Y-83381754D01*
X117341917Y-83362812D01*
X117322975Y-83347266D01*
X117301364Y-83335715D01*
X117277915Y-83328602D01*
X117253529Y-83326200D01*
X115523800Y-83326200D01*
X115523800Y-81373800D01*
X117476200Y-81373800D01*
X117476200Y-83244142D01*
X117476200Y-83244142D01*
G37*
G36*
X99175950Y-84425950D02*
X98023550Y-84425950D01*
X98023550Y-83023550D01*
X99175950Y-83023550D01*
X99175950Y-84425950D01*
X99175950Y-84425950D01*
G37*
G36*
X101175950Y-84425950D02*
X100023550Y-84425950D01*
X100023550Y-83023550D01*
X101175950Y-83023550D01*
X101175950Y-84425950D01*
X101175950Y-84425950D01*
G37*
G36*
X136794747Y-82011315D02*
X136972404Y-82084902D01*
X137132294Y-82191738D01*
X137268262Y-82327706D01*
X137375098Y-82487596D01*
X137448685Y-82665253D01*
X137486200Y-82853852D01*
X137486200Y-83046148D01*
X137448685Y-83234747D01*
X137375098Y-83412404D01*
X137268262Y-83572294D01*
X137132294Y-83708262D01*
X136972404Y-83815098D01*
X136794747Y-83888685D01*
X136606148Y-83926200D01*
X136413852Y-83926200D01*
X136225253Y-83888685D01*
X136047596Y-83815098D01*
X135887706Y-83708262D01*
X135751738Y-83572294D01*
X135644902Y-83412404D01*
X135571315Y-83234747D01*
X135533800Y-83046148D01*
X135533800Y-82853852D01*
X135571315Y-82665253D01*
X135644902Y-82487596D01*
X135751738Y-82327706D01*
X135887706Y-82191738D01*
X136047596Y-82084902D01*
X136225253Y-82011315D01*
X136413852Y-81973800D01*
X136606148Y-81973800D01*
X136794747Y-82011315D01*
X136794747Y-82011315D01*
G37*
G36*
X134240994Y-82105550D02*
X134391353Y-82167831D01*
X134526672Y-82258248D01*
X134641752Y-82373328D01*
X134732169Y-82508647D01*
X134794450Y-82659006D01*
X134826200Y-82818626D01*
X134826200Y-82981374D01*
X134794450Y-83140994D01*
X134732169Y-83291353D01*
X134641752Y-83426672D01*
X134526672Y-83541752D01*
X134391353Y-83632169D01*
X134240994Y-83694450D01*
X134081374Y-83726200D01*
X133918626Y-83726200D01*
X133759006Y-83694450D01*
X133608647Y-83632169D01*
X133473328Y-83541752D01*
X133358248Y-83426672D01*
X133267831Y-83291353D01*
X133205550Y-83140994D01*
X133173800Y-82981374D01*
X133173800Y-82818626D01*
X133205550Y-82659006D01*
X133267831Y-82508647D01*
X133358248Y-82373328D01*
X133473328Y-82258248D01*
X133608647Y-82167831D01*
X133759006Y-82105550D01*
X133918626Y-82073800D01*
X134081374Y-82073800D01*
X134240994Y-82105550D01*
X134240994Y-82105550D01*
G37*
G36*
X131490994Y-82105550D02*
X131641353Y-82167831D01*
X131776672Y-82258248D01*
X131891752Y-82373328D01*
X131982169Y-82508647D01*
X132044450Y-82659006D01*
X132076200Y-82818626D01*
X132076200Y-82981374D01*
X132044450Y-83140994D01*
X131982169Y-83291353D01*
X131891752Y-83426672D01*
X131776672Y-83541752D01*
X131641353Y-83632169D01*
X131490994Y-83694450D01*
X131331374Y-83726200D01*
X131168626Y-83726200D01*
X131009006Y-83694450D01*
X130858647Y-83632169D01*
X130723328Y-83541752D01*
X130608248Y-83426672D01*
X130517831Y-83291353D01*
X130455550Y-83140994D01*
X130423800Y-82981374D01*
X130423800Y-82818626D01*
X130455550Y-82659006D01*
X130517831Y-82508647D01*
X130608248Y-82373328D01*
X130723328Y-82258248D01*
X130858647Y-82167831D01*
X131009006Y-82105550D01*
X131168626Y-82073800D01*
X131331374Y-82073800D01*
X131490994Y-82105550D01*
X131490994Y-82105550D01*
G37*
G36*
X114244747Y-81411315D02*
X114422404Y-81484902D01*
X114582294Y-81591738D01*
X114718262Y-81727706D01*
X114825098Y-81887596D01*
X114898685Y-82065253D01*
X114936200Y-82253852D01*
X114936200Y-82446148D01*
X114898685Y-82634747D01*
X114825098Y-82812404D01*
X114718262Y-82972294D01*
X114582294Y-83108262D01*
X114422404Y-83215098D01*
X114244747Y-83288685D01*
X114056148Y-83326200D01*
X113863852Y-83326200D01*
X113675253Y-83288685D01*
X113497596Y-83215098D01*
X113337706Y-83108262D01*
X113201738Y-82972294D01*
X113094902Y-82812404D01*
X113021315Y-82634747D01*
X112983800Y-82446148D01*
X112983800Y-82253852D01*
X113021315Y-82065253D01*
X113094902Y-81887596D01*
X113201738Y-81727706D01*
X113337706Y-81591738D01*
X113497596Y-81484902D01*
X113675253Y-81411315D01*
X113863852Y-81373800D01*
X114056148Y-81373800D01*
X114244747Y-81411315D01*
X114244747Y-81411315D01*
G37*
G36*
X122904747Y-81411315D02*
X123082404Y-81484902D01*
X123242294Y-81591738D01*
X123378262Y-81727706D01*
X123485098Y-81887596D01*
X123558685Y-82065253D01*
X123596200Y-82253852D01*
X123596200Y-82446148D01*
X123558685Y-82634747D01*
X123485098Y-82812404D01*
X123378262Y-82972294D01*
X123242294Y-83108262D01*
X123082404Y-83215098D01*
X122904747Y-83288685D01*
X122716148Y-83326200D01*
X122523852Y-83326200D01*
X122335253Y-83288685D01*
X122157596Y-83215098D01*
X121997706Y-83108262D01*
X121861738Y-82972294D01*
X121754902Y-82812404D01*
X121681315Y-82634747D01*
X121643800Y-82446148D01*
X121643800Y-82253852D01*
X121681315Y-82065253D01*
X121754902Y-81887596D01*
X121861738Y-81727706D01*
X121997706Y-81591738D01*
X122157596Y-81484902D01*
X122335253Y-81411315D01*
X122523852Y-81373800D01*
X122716148Y-81373800D01*
X122904747Y-81411315D01*
X122904747Y-81411315D01*
G37*
G36*
X125444747Y-81411315D02*
X125622404Y-81484902D01*
X125782294Y-81591738D01*
X125918262Y-81727706D01*
X126025098Y-81887596D01*
X126098685Y-82065253D01*
X126136200Y-82253852D01*
X126136200Y-82446148D01*
X126098685Y-82634747D01*
X126025098Y-82812404D01*
X125918262Y-82972294D01*
X125782294Y-83108262D01*
X125622404Y-83215098D01*
X125444747Y-83288685D01*
X125256148Y-83326200D01*
X125063852Y-83326200D01*
X124875253Y-83288685D01*
X124697596Y-83215098D01*
X124537706Y-83108262D01*
X124401738Y-82972294D01*
X124294902Y-82812404D01*
X124221315Y-82634747D01*
X124183800Y-82446148D01*
X124183800Y-82253852D01*
X124221315Y-82065253D01*
X124294902Y-81887596D01*
X124401738Y-81727706D01*
X124537706Y-81591738D01*
X124697596Y-81484902D01*
X124875253Y-81411315D01*
X125063852Y-81373800D01*
X125256148Y-81373800D01*
X125444747Y-81411315D01*
X125444747Y-81411315D01*
G37*
G36*
X111704747Y-81411315D02*
X111882404Y-81484902D01*
X112042294Y-81591738D01*
X112178262Y-81727706D01*
X112285098Y-81887596D01*
X112358685Y-82065253D01*
X112396200Y-82253852D01*
X112396200Y-82446148D01*
X112358685Y-82634747D01*
X112285098Y-82812404D01*
X112178262Y-82972294D01*
X112042294Y-83108262D01*
X111882404Y-83215098D01*
X111704747Y-83288685D01*
X111516148Y-83326200D01*
X111323852Y-83326200D01*
X111135253Y-83288685D01*
X110957596Y-83215098D01*
X110797706Y-83108262D01*
X110661738Y-82972294D01*
X110554902Y-82812404D01*
X110481315Y-82634747D01*
X110443800Y-82446148D01*
X110443800Y-82253852D01*
X110481315Y-82065253D01*
X110554902Y-81887596D01*
X110661738Y-81727706D01*
X110797706Y-81591738D01*
X110957596Y-81484902D01*
X111135253Y-81411315D01*
X111323852Y-81373800D01*
X111516148Y-81373800D01*
X111704747Y-81411315D01*
X111704747Y-81411315D01*
G37*
G36*
X119640994Y-81555550D02*
X119791353Y-81617831D01*
X119926672Y-81708248D01*
X120041752Y-81823328D01*
X120132169Y-81958647D01*
X120194450Y-82109006D01*
X120226200Y-82268626D01*
X120226200Y-82431374D01*
X120194450Y-82590994D01*
X120132169Y-82741353D01*
X120041752Y-82876672D01*
X119926672Y-82991752D01*
X119791353Y-83082169D01*
X119640994Y-83144450D01*
X119481374Y-83176200D01*
X119318626Y-83176200D01*
X119159006Y-83144450D01*
X119008647Y-83082169D01*
X118873328Y-82991752D01*
X118758248Y-82876672D01*
X118667831Y-82741353D01*
X118605550Y-82590994D01*
X118573800Y-82431374D01*
X118573800Y-82268626D01*
X118605550Y-82109006D01*
X118667831Y-81958647D01*
X118758248Y-81823328D01*
X118873328Y-81708248D01*
X119008647Y-81617831D01*
X119159006Y-81555550D01*
X119318626Y-81523800D01*
X119481374Y-81523800D01*
X119640994Y-81555550D01*
X119640994Y-81555550D01*
G37*
G36*
X106926200Y-83076200D02*
X104973800Y-83076200D01*
X104973800Y-81323800D01*
X106926200Y-81323800D01*
X106926200Y-83076200D01*
X106926200Y-83076200D01*
G37*
G36*
X110026200Y-82876200D02*
X108073800Y-82876200D01*
X108073800Y-81123800D01*
X110026200Y-81123800D01*
X110026200Y-82876200D01*
X110026200Y-82876200D01*
G37*
G36*
X101175950Y-82584450D02*
X100023550Y-82584450D01*
X100023550Y-81182050D01*
X101175950Y-81182050D01*
X101175950Y-82584450D01*
X101175950Y-82584450D01*
G37*
G36*
X99175950Y-82584450D02*
X98023550Y-82584450D01*
X98023550Y-81182050D01*
X99175950Y-81182050D01*
X99175950Y-82584450D01*
X99175950Y-82584450D01*
G37*
M02*
