G04 #@! TF.GenerationSoftware,KiCad,Pcbnew,(2018-01-21 revision 6b9866de8)-makepkg*
G04 #@! TF.CreationDate,2018-06-15T05:11:16+02:00*
G04 #@! TF.ProjectId,Roboy_motorboard,526F626F795F6D6F746F72626F617264,rev?*
G04 #@! TF.SameCoordinates,Original*
G04 #@! TF.FileFunction,Copper,L2,Inr,Signal*
G04 #@! TF.FilePolarity,Positive*
%FSLAX46Y46*%
G04 Gerber Fmt 4.6, Leading zero omitted, Abs format (unit mm)*
G04 Created by KiCad (PCBNEW (2018-01-21 revision 6b9866de8)-makepkg) date 06/15/18 05:11:16*
%MOMM*%
%LPD*%
G01*
G04 APERTURE LIST*
%ADD10C,0.500000*%
%ADD11C,3.800000*%
%ADD12C,1.800000*%
%ADD13R,1.800000X1.800000*%
%ADD14C,0.600000*%
%ADD15C,0.450000*%
%ADD16C,0.254000*%
%ADD17C,0.152400*%
G04 APERTURE END LIST*
D10*
X125725000Y-99375000D03*
X126075000Y-98625000D03*
X125375000Y-98625000D03*
X126075000Y-100125000D03*
X125375000Y-100125000D03*
D11*
X105918000Y-89712800D03*
D12*
X136510000Y-85490000D03*
X139050000Y-86760000D03*
X136510000Y-88030000D03*
D13*
X139050000Y-89300000D03*
D12*
X139050000Y-84220000D03*
X136510000Y-82950000D03*
X110150000Y-84890000D03*
X111420000Y-82350000D03*
D13*
X116500000Y-82350000D03*
D12*
X115230000Y-84890000D03*
X113960000Y-82350000D03*
X112690000Y-84890000D03*
X121350000Y-84890000D03*
X122620000Y-82350000D03*
D13*
X127700000Y-82350000D03*
D12*
X126430000Y-84890000D03*
X125160000Y-82350000D03*
X123890000Y-84890000D03*
X136510000Y-94100000D03*
X139050000Y-95370000D03*
D13*
X139050000Y-100450000D03*
D12*
X136510000Y-99180000D03*
X139050000Y-97910000D03*
X136510000Y-96640000D03*
D11*
X97850000Y-112600000D03*
X117800000Y-112600000D03*
X132000000Y-100550000D03*
D14*
X105750000Y-98750000D03*
X121100000Y-97950000D03*
X105600500Y-96329500D03*
X105600500Y-97218500D03*
X105600500Y-98107500D03*
X106489500Y-98488500D03*
X106489500Y-97663000D03*
X106489500Y-96774000D03*
X107378500Y-96329500D03*
X107378500Y-97218500D03*
X107378500Y-98107500D03*
X107378500Y-98869500D03*
X106807000Y-99568000D03*
X104394000Y-86106000D03*
X120247000Y-93017010D03*
X119167500Y-93017010D03*
X118024500Y-93017010D03*
X116881500Y-93017010D03*
X121100000Y-98950000D03*
X111000000Y-90075000D03*
X111000000Y-88575000D03*
X111000000Y-89325000D03*
X110034750Y-98725250D03*
X109084750Y-98725250D03*
X110034750Y-97505250D03*
X109084750Y-97505250D03*
X119739000Y-91211000D03*
X118596000Y-91211000D03*
X117453000Y-91211000D03*
X119167500Y-89687000D03*
X120247000Y-89687000D03*
X118024500Y-89687000D03*
X116881500Y-89687000D03*
X104394000Y-83439000D03*
X104394000Y-84328000D03*
X104394000Y-85217000D03*
X105283000Y-85661500D03*
X105283000Y-84772500D03*
X105283000Y-83883500D03*
X104394000Y-91757500D03*
X104394000Y-92646500D03*
X104394000Y-93535500D03*
X104394000Y-94424500D03*
X101854000Y-87757000D03*
X101854000Y-88646000D03*
X101854000Y-89535000D03*
X101854000Y-90424000D03*
X103505000Y-94869000D03*
X103505000Y-93980000D03*
X103505000Y-93091000D03*
X103505000Y-92202000D03*
X103505000Y-91313000D03*
X102616000Y-90868500D03*
X102616000Y-89979500D03*
X102616000Y-89090500D03*
X102616000Y-88201500D03*
X103505000Y-87757000D03*
X103505000Y-88646000D03*
X103505000Y-89535000D03*
X103505000Y-90424000D03*
X117850000Y-97950000D03*
X110034750Y-103805250D03*
X109084750Y-103805250D03*
X110034750Y-102585250D03*
X109084750Y-102585250D03*
X105410000Y-101536500D03*
X105410000Y-102425500D03*
X105410000Y-103314500D03*
X105410000Y-104203500D03*
X106299000Y-103759000D03*
X106299000Y-104648000D03*
X106299000Y-102870000D03*
X106299000Y-101981000D03*
X107188000Y-104203500D03*
X107188000Y-103314500D03*
X107188000Y-102425500D03*
X107188000Y-101536500D03*
X105450000Y-109200000D03*
X110800000Y-95900001D03*
X130048000Y-114427000D03*
X129159000Y-114427000D03*
X128270000Y-114427000D03*
X127381000Y-114427000D03*
X126492000Y-114490500D03*
X125603000Y-114490500D03*
X127825500Y-113728500D03*
X126936500Y-113728500D03*
X126047500Y-113728500D03*
X125158500Y-113728500D03*
X127381000Y-112966500D03*
X126936500Y-112204500D03*
X126492000Y-112966500D03*
X126047500Y-112204500D03*
X125603000Y-112966500D03*
X125158500Y-112204500D03*
X128270000Y-112966500D03*
X127952500Y-112204500D03*
X122936000Y-114490500D03*
X123825000Y-114490500D03*
X124714000Y-114490500D03*
X124714000Y-112966500D03*
D15*
X114290508Y-93715890D03*
D14*
X117850000Y-100200000D03*
X118146641Y-106896641D03*
X115890003Y-95850000D03*
X121100000Y-100275000D03*
X108000000Y-84400000D03*
D15*
X95700000Y-81100000D03*
D14*
X115050000Y-95850000D03*
X102087050Y-109430550D03*
X102552500Y-110045500D03*
X102087050Y-110650550D03*
X103037050Y-110650550D03*
X103037050Y-109430550D03*
D15*
X107650000Y-87550006D03*
X114350000Y-89800000D03*
X108000000Y-87003600D03*
X114349973Y-90402411D03*
X123950000Y-101675000D03*
X128725000Y-97750000D03*
X129700000Y-102300000D03*
X134310000Y-94200000D03*
X127500000Y-93650000D03*
X125600000Y-92000000D03*
X125500000Y-89150000D03*
X117053610Y-86900000D03*
X122850000Y-89100000D03*
X124176390Y-96000000D03*
X121404823Y-96017000D03*
X115100000Y-87100000D03*
X108850000Y-91100000D03*
X106900000Y-92050000D03*
X115100000Y-87750000D03*
D14*
X123550000Y-95550000D03*
X98200000Y-109800000D03*
X110900000Y-91350000D03*
X110250000Y-91350000D03*
X98200000Y-109150000D03*
X99314000Y-107505500D03*
X98425000Y-107505500D03*
X97536000Y-107505500D03*
X96647000Y-107505500D03*
X95758000Y-105727500D03*
X95758000Y-106616500D03*
X96647000Y-106616500D03*
X97536000Y-106616500D03*
X98425000Y-106616500D03*
X96647000Y-105727500D03*
X97536000Y-105727500D03*
X98425000Y-105727500D03*
X99314000Y-105727500D03*
X99314000Y-106616500D03*
X95758000Y-107505500D03*
D15*
X95650000Y-110450000D03*
X118794944Y-106490524D03*
X122900000Y-91077212D03*
X130400000Y-86350000D03*
X126200000Y-86649999D03*
X120100000Y-86900000D03*
X116100000Y-86900000D03*
X133210000Y-94780000D03*
X126300000Y-90200000D03*
X122850000Y-88400000D03*
X133160000Y-96300000D03*
X127500000Y-86650000D03*
X121900000Y-87350000D03*
X122600000Y-87350000D03*
X118328293Y-86469782D03*
X128050000Y-90950000D03*
X123383133Y-92667973D03*
X123349994Y-92000000D03*
X122844749Y-92397708D03*
X120799998Y-86900000D03*
X119400000Y-82350000D03*
X106400000Y-85250000D03*
X114400000Y-91147597D03*
X122900000Y-90170000D03*
X123700000Y-90450000D03*
X114400000Y-91750000D03*
X118754256Y-86895744D03*
X103400000Y-107800000D03*
D14*
X100650000Y-100650000D03*
X120799998Y-96800000D03*
X122999996Y-94150000D03*
X107450000Y-100650000D03*
X103400000Y-106700000D03*
X119465988Y-96800000D03*
X105878193Y-107836200D03*
X122150000Y-94750000D03*
X117932224Y-96546429D03*
X102000000Y-113650000D03*
X122300000Y-96000000D03*
X117200000Y-106900000D03*
D15*
X119275000Y-85975000D03*
X126500000Y-102400000D03*
X127500000Y-102400000D03*
X117708214Y-86241786D03*
X128647642Y-91750016D03*
X130399973Y-85349669D03*
X128050000Y-90300000D03*
X126850000Y-86650000D03*
X129250038Y-91745726D03*
X129050004Y-87650000D03*
X127000000Y-90200000D03*
D14*
X106850000Y-84400000D03*
D15*
X96450000Y-81100000D03*
X95749589Y-104962544D03*
X100250000Y-111803600D03*
X119397240Y-106501824D03*
X123375000Y-101125002D03*
X123525000Y-97550008D03*
X107850000Y-81600000D03*
X115720000Y-86309998D03*
X105000000Y-107800000D03*
X130150000Y-96600000D03*
X129900000Y-91749992D03*
X132240000Y-96340000D03*
X125850000Y-90950000D03*
X132060000Y-91450000D03*
X132830000Y-91380000D03*
X107850000Y-82250000D03*
X133910000Y-91060000D03*
X129837600Y-94580000D03*
X130500000Y-84400000D03*
X134380000Y-88060000D03*
X134750000Y-84400000D03*
X134380000Y-89760000D03*
D16*
X102650000Y-108056338D02*
X103793662Y-109200000D01*
X110800000Y-95900001D02*
X110375736Y-95900001D01*
X102650000Y-97848634D02*
X102650000Y-108056338D01*
X104836135Y-95662499D02*
X102650000Y-97848634D01*
X110138234Y-95662499D02*
X104836135Y-95662499D01*
X110375736Y-95900001D02*
X110138234Y-95662499D01*
X103793662Y-109200000D02*
X105025736Y-109200000D01*
X105025736Y-109200000D02*
X105450000Y-109200000D01*
X115890003Y-98240003D02*
X117850000Y-100200000D01*
X115890003Y-96274264D02*
X115890003Y-98240003D01*
X115890003Y-96274264D02*
X115890003Y-95850000D01*
X121073207Y-92350001D02*
X111900001Y-92350001D01*
X122073206Y-93350000D02*
X121073207Y-92350001D01*
X123300000Y-93350000D02*
X122073206Y-93350000D01*
X123849999Y-95250001D02*
X123849999Y-93899999D01*
X123849999Y-93899999D02*
X123300000Y-93350000D01*
X123550000Y-95550000D02*
X123849999Y-95250001D01*
X111900001Y-92350001D02*
X111199999Y-91649999D01*
X111199999Y-91649999D02*
X110900000Y-91350000D01*
X103600000Y-95700000D02*
X99982999Y-99317001D01*
X104100000Y-95700000D02*
X103600000Y-95700000D01*
X105800000Y-94000000D02*
X104100000Y-95700000D01*
X106922118Y-94000000D02*
X105800000Y-94000000D01*
X109572118Y-91350000D02*
X106922118Y-94000000D01*
X110250000Y-91350000D02*
X109572118Y-91350000D01*
X99982999Y-99317001D02*
X99982999Y-108317001D01*
X99982999Y-108317001D02*
X99150000Y-109150000D01*
X99150000Y-109150000D02*
X98677382Y-109150000D01*
X98200000Y-109800000D02*
X98499999Y-109500001D01*
X98499999Y-109500001D02*
X98499999Y-109327383D01*
X98499999Y-109327383D02*
X98677382Y-109150000D01*
X98200000Y-109800000D02*
X98200000Y-109150000D01*
X110250000Y-91350000D02*
X110900000Y-91350000D01*
X98200000Y-109150000D02*
X98677382Y-109150000D01*
D17*
X96350000Y-110450000D02*
X95650000Y-110450000D01*
X99750330Y-111350000D02*
X98850330Y-110450000D01*
X114605260Y-111350000D02*
X99750330Y-111350000D01*
X98850330Y-110450000D02*
X96350000Y-110450000D01*
X118794944Y-106490524D02*
X118794944Y-107160316D01*
X118794944Y-107160316D02*
X114605260Y-111350000D01*
X126200000Y-86649999D02*
X126724998Y-86125001D01*
X130175001Y-86125001D02*
X130400000Y-86350000D01*
X126724998Y-86125001D02*
X130175001Y-86125001D01*
X133210000Y-94038670D02*
X128831330Y-89660000D01*
X128831330Y-89660000D02*
X126840000Y-89660000D01*
X133210000Y-94780000D02*
X133210000Y-94038670D01*
X126524999Y-89975001D02*
X126300000Y-90200000D01*
X126840000Y-89660000D02*
X126524999Y-89975001D01*
X127500000Y-87897603D02*
X127500000Y-86968198D01*
X133663601Y-94061204D02*
X127500000Y-87897603D01*
X133160000Y-96300000D02*
X133663601Y-95796399D01*
X133663601Y-95796399D02*
X133663601Y-94061204D01*
X127500000Y-86968198D02*
X127500000Y-86650000D01*
X122363473Y-86442143D02*
X124800000Y-88878670D01*
X124800000Y-88878670D02*
X124800000Y-90550000D01*
X124800000Y-90550000D02*
X125653601Y-91403601D01*
X127596399Y-91403601D02*
X127825001Y-91174999D01*
X118536527Y-86442143D02*
X122363473Y-86442143D01*
X118328293Y-86469782D02*
X118508888Y-86469782D01*
X127825001Y-91174999D02*
X128050000Y-90950000D01*
X118508888Y-86469782D02*
X118536527Y-86442143D01*
X125653601Y-91403601D02*
X127596399Y-91403601D01*
X117166790Y-91906790D02*
X121256790Y-91906791D01*
X121256790Y-91906791D02*
X122242971Y-92892972D01*
X122242971Y-92892972D02*
X123158134Y-92892972D01*
X123158134Y-92892972D02*
X123383133Y-92667973D01*
X110150000Y-84890000D02*
X117166790Y-91906790D01*
X122000000Y-90900000D02*
X123100000Y-92000000D01*
X122000000Y-90650006D02*
X122000000Y-90900000D01*
X121599994Y-90250000D02*
X122000000Y-90650006D01*
X116662170Y-90250000D02*
X121599994Y-90250000D01*
X112690000Y-84890000D02*
X112690000Y-86277830D01*
X112690000Y-86277830D02*
X116662170Y-90250000D01*
X123100000Y-92000000D02*
X123349994Y-92000000D01*
X123350000Y-91999994D02*
X123349994Y-92000000D01*
X111420000Y-82350000D02*
X111420000Y-85438896D01*
X111420000Y-85438896D02*
X116663503Y-90682399D01*
X116663503Y-90682399D02*
X121129440Y-90682399D01*
X121129440Y-90682399D02*
X122619750Y-92172709D01*
X122619750Y-92172709D02*
X122844749Y-92397708D01*
X119800000Y-88950000D02*
X120574999Y-88175001D01*
X116600000Y-88950000D02*
X119800000Y-88950000D01*
X115600000Y-87950000D02*
X116600000Y-88950000D01*
X115600000Y-86930330D02*
X115600000Y-87950000D01*
X113960000Y-82350000D02*
X113960000Y-85290330D01*
X113960000Y-85290330D02*
X115600000Y-86930330D01*
X120574999Y-88175001D02*
X120574999Y-87124999D01*
X120574999Y-87124999D02*
X120799998Y-86900000D01*
X113896372Y-90643969D02*
X113896372Y-90396372D01*
X114400000Y-91147597D02*
X113896372Y-90643969D01*
X113896372Y-90396372D02*
X111503607Y-88003607D01*
X111503607Y-88003607D02*
X107353607Y-88003607D01*
X107353607Y-88003607D02*
X106400000Y-87050000D01*
X106400000Y-87050000D02*
X106400000Y-85250000D01*
D16*
X110849999Y-96949998D02*
X113394008Y-94405989D01*
X109097162Y-100650000D02*
X110849999Y-98897163D01*
X110849999Y-98897163D02*
X110849999Y-96949998D01*
X113394008Y-94405989D02*
X115145374Y-94405989D01*
X115145374Y-94405989D02*
X115701362Y-93850001D01*
X122699997Y-93850001D02*
X122999996Y-94150000D01*
X115701362Y-93850001D02*
X122699997Y-93850001D01*
X107450000Y-100650000D02*
X109097162Y-100650000D01*
X111344010Y-103483152D02*
X106987162Y-107840000D01*
X105878193Y-107836200D02*
X106302457Y-107836200D01*
X106302457Y-107836200D02*
X106306257Y-107840000D01*
X106306257Y-107840000D02*
X106987162Y-107840000D01*
X111344010Y-97154624D02*
X111344010Y-103483152D01*
X116250000Y-94900000D02*
X113598634Y-94900000D01*
X122150000Y-94750000D02*
X116400000Y-94750000D01*
X116400000Y-94750000D02*
X116250000Y-94900000D01*
X113598634Y-94900000D02*
X111344010Y-97154624D01*
X106350000Y-83900000D02*
X106350000Y-83400000D01*
X106850000Y-84400000D02*
X106350000Y-83900000D01*
X106350000Y-83400000D02*
X104050000Y-81100000D01*
X104050000Y-81100000D02*
X96450000Y-81100000D01*
D17*
X119397240Y-106989086D02*
X114582726Y-111803600D01*
X119397240Y-106501824D02*
X119397240Y-106989086D01*
X114582726Y-111803600D02*
X100250000Y-111803600D01*
X134380000Y-88060000D02*
X130720000Y-84400000D01*
X130720000Y-84400000D02*
X130500000Y-84400000D01*
X134974999Y-89165001D02*
X134974999Y-84624999D01*
X134974999Y-84624999D02*
X134750000Y-84400000D01*
X134380000Y-89760000D02*
X134974999Y-89165001D01*
G36*
X140594800Y-102773800D02*
X137842577Y-102773800D01*
X137861912Y-102765791D01*
X138165791Y-102461912D01*
X138330250Y-102064875D01*
X138330250Y-101635125D01*
X138165791Y-101238088D01*
X137861912Y-100934209D01*
X137464875Y-100769750D01*
X137035125Y-100769750D01*
X136638088Y-100934209D01*
X136334209Y-101238088D01*
X136169750Y-101635125D01*
X136169750Y-102064875D01*
X136334209Y-102461912D01*
X136638088Y-102765791D01*
X136657423Y-102773800D01*
X132459065Y-102773800D01*
X133263307Y-102440672D01*
X133890672Y-101813307D01*
X134230200Y-100993614D01*
X134230200Y-100106386D01*
X133890672Y-99286693D01*
X133539277Y-98935298D01*
X135279800Y-98935298D01*
X135279800Y-99424702D01*
X135467087Y-99876852D01*
X135813148Y-100222913D01*
X136265298Y-100410200D01*
X136754702Y-100410200D01*
X137206852Y-100222913D01*
X137552913Y-99876852D01*
X137740200Y-99424702D01*
X137740200Y-98935298D01*
X137552913Y-98483148D01*
X137206852Y-98137087D01*
X136754702Y-97949800D01*
X136265298Y-97949800D01*
X135813148Y-98137087D01*
X135467087Y-98483148D01*
X135279800Y-98935298D01*
X133539277Y-98935298D01*
X133263307Y-98659328D01*
X132443614Y-98319800D01*
X131556386Y-98319800D01*
X130736693Y-98659328D01*
X130109328Y-99286693D01*
X129769800Y-100106386D01*
X129769800Y-100993614D01*
X130109328Y-101813307D01*
X130736693Y-102440672D01*
X131540935Y-102773800D01*
X127911372Y-102773800D01*
X127970676Y-102714496D01*
X128055200Y-102510436D01*
X128055200Y-102289564D01*
X127970676Y-102085504D01*
X127814496Y-101929324D01*
X127610436Y-101844800D01*
X127389564Y-101844800D01*
X127185504Y-101929324D01*
X127029324Y-102085504D01*
X127000000Y-102156299D01*
X126970676Y-102085504D01*
X126814496Y-101929324D01*
X126610436Y-101844800D01*
X126389564Y-101844800D01*
X126185504Y-101929324D01*
X126029324Y-102085504D01*
X125944800Y-102289564D01*
X125944800Y-102510436D01*
X126029324Y-102714496D01*
X126088628Y-102773800D01*
X123476200Y-102773800D01*
X123476200Y-101680202D01*
X123485436Y-101680202D01*
X123678579Y-101600200D01*
X128170000Y-101600200D01*
X128296362Y-101575065D01*
X128403487Y-101503487D01*
X128475065Y-101396362D01*
X128500200Y-101270000D01*
X128500200Y-96489564D01*
X129594800Y-96489564D01*
X129594800Y-96710436D01*
X129679324Y-96914496D01*
X129835504Y-97070676D01*
X130039564Y-97155200D01*
X130260436Y-97155200D01*
X130464496Y-97070676D01*
X130620676Y-96914496D01*
X130705200Y-96710436D01*
X130705200Y-96489564D01*
X130620676Y-96285504D01*
X130464496Y-96129324D01*
X130260436Y-96044800D01*
X130039564Y-96044800D01*
X129835504Y-96129324D01*
X129679324Y-96285504D01*
X129594800Y-96489564D01*
X128500200Y-96489564D01*
X128500200Y-96170000D01*
X128475329Y-96044278D01*
X128403976Y-95937003D01*
X128297001Y-95865201D01*
X128170692Y-95839801D01*
X124707971Y-95832542D01*
X124647066Y-95685504D01*
X124490886Y-95529324D01*
X124286826Y-95444800D01*
X124259143Y-95444800D01*
X124272397Y-95424964D01*
X124307199Y-95250001D01*
X124307199Y-94469564D01*
X129282400Y-94469564D01*
X129282400Y-94690436D01*
X129366924Y-94894496D01*
X129523104Y-95050676D01*
X129727164Y-95135200D01*
X129948036Y-95135200D01*
X130152096Y-95050676D01*
X130308276Y-94894496D01*
X130392800Y-94690436D01*
X130392800Y-94469564D01*
X130308276Y-94265504D01*
X130152096Y-94109324D01*
X129948036Y-94024800D01*
X129727164Y-94024800D01*
X129523104Y-94109324D01*
X129366924Y-94265504D01*
X129282400Y-94469564D01*
X124307199Y-94469564D01*
X124307199Y-93899999D01*
X124272397Y-93725036D01*
X124173288Y-93576710D01*
X123716428Y-93119850D01*
X123853809Y-92982469D01*
X123938333Y-92778409D01*
X123938333Y-92557537D01*
X123853809Y-92353477D01*
X123817749Y-92317417D01*
X123820670Y-92314496D01*
X123905194Y-92110436D01*
X123905194Y-91889564D01*
X123820670Y-91685504D01*
X123664490Y-91529324D01*
X123476200Y-91451332D01*
X123476200Y-90958243D01*
X123589564Y-91005200D01*
X123810436Y-91005200D01*
X124014496Y-90920676D01*
X124170676Y-90764496D01*
X124255200Y-90560436D01*
X124255200Y-90339564D01*
X124170676Y-90135504D01*
X124014496Y-89979324D01*
X123810436Y-89894800D01*
X123589564Y-89894800D01*
X123476200Y-89941757D01*
X123476200Y-88129606D01*
X124393600Y-89047007D01*
X124393600Y-90550000D01*
X124424535Y-90705523D01*
X124504234Y-90824800D01*
X124512632Y-90837368D01*
X125366233Y-91690969D01*
X125498078Y-91779066D01*
X125653601Y-91810001D01*
X127596399Y-91810001D01*
X127751922Y-91779066D01*
X127883767Y-91690969D01*
X128069536Y-91505200D01*
X128148104Y-91505200D01*
X128092442Y-91639580D01*
X128092442Y-91860452D01*
X128176966Y-92064512D01*
X128333146Y-92220692D01*
X128537206Y-92305216D01*
X128758078Y-92305216D01*
X128954019Y-92224055D01*
X129139602Y-92300926D01*
X129360474Y-92300926D01*
X129564534Y-92216402D01*
X129572886Y-92208050D01*
X129585504Y-92220668D01*
X129789564Y-92305192D01*
X130010436Y-92305192D01*
X130214496Y-92220668D01*
X130370676Y-92064488D01*
X130455200Y-91860428D01*
X130455200Y-91858606D01*
X132803600Y-94207007D01*
X132803600Y-94401228D01*
X132739324Y-94465504D01*
X132654800Y-94669564D01*
X132654800Y-94890436D01*
X132739324Y-95094496D01*
X132895504Y-95250676D01*
X133099564Y-95335200D01*
X133257201Y-95335200D01*
X133257201Y-95628063D01*
X133140464Y-95744800D01*
X133049564Y-95744800D01*
X132845504Y-95829324D01*
X132689324Y-95985504D01*
X132683862Y-95998690D01*
X132554496Y-95869324D01*
X132350436Y-95784800D01*
X132129564Y-95784800D01*
X131925504Y-95869324D01*
X131769324Y-96025504D01*
X131684800Y-96229564D01*
X131684800Y-96450436D01*
X131769324Y-96654496D01*
X131925504Y-96810676D01*
X132129564Y-96895200D01*
X132350436Y-96895200D01*
X132554496Y-96810676D01*
X132710676Y-96654496D01*
X132716138Y-96641310D01*
X132845504Y-96770676D01*
X133049564Y-96855200D01*
X133270436Y-96855200D01*
X133474496Y-96770676D01*
X133630676Y-96614496D01*
X133715200Y-96410436D01*
X133715200Y-96395298D01*
X135279800Y-96395298D01*
X135279800Y-96884702D01*
X135467087Y-97336852D01*
X135813148Y-97682913D01*
X136265298Y-97870200D01*
X136754702Y-97870200D01*
X137206852Y-97682913D01*
X137224467Y-97665298D01*
X137819800Y-97665298D01*
X137819800Y-98154702D01*
X138007087Y-98606852D01*
X138353148Y-98952913D01*
X138805298Y-99140200D01*
X139294702Y-99140200D01*
X139746852Y-98952913D01*
X140092913Y-98606852D01*
X140280200Y-98154702D01*
X140280200Y-97665298D01*
X140092913Y-97213148D01*
X139746852Y-96867087D01*
X139294702Y-96679800D01*
X138805298Y-96679800D01*
X138353148Y-96867087D01*
X138007087Y-97213148D01*
X137819800Y-97665298D01*
X137224467Y-97665298D01*
X137552913Y-97336852D01*
X137740200Y-96884702D01*
X137740200Y-96395298D01*
X137552913Y-95943148D01*
X137206852Y-95597087D01*
X136754702Y-95409800D01*
X136265298Y-95409800D01*
X135813148Y-95597087D01*
X135467087Y-95943148D01*
X135279800Y-96395298D01*
X133715200Y-96395298D01*
X133715200Y-96319536D01*
X133950969Y-96083767D01*
X134039066Y-95951922D01*
X134040811Y-95943148D01*
X134070001Y-95796399D01*
X134070001Y-94061204D01*
X134039066Y-93905681D01*
X134005401Y-93855298D01*
X135279800Y-93855298D01*
X135279800Y-94344702D01*
X135467087Y-94796852D01*
X135813148Y-95142913D01*
X136265298Y-95330200D01*
X136754702Y-95330200D01*
X137206852Y-95142913D01*
X137224467Y-95125298D01*
X137819800Y-95125298D01*
X137819800Y-95614702D01*
X138007087Y-96066852D01*
X138353148Y-96412913D01*
X138805298Y-96600200D01*
X139294702Y-96600200D01*
X139746852Y-96412913D01*
X140092913Y-96066852D01*
X140280200Y-95614702D01*
X140280200Y-95125298D01*
X140092913Y-94673148D01*
X139746852Y-94327087D01*
X139294702Y-94139800D01*
X138805298Y-94139800D01*
X138353148Y-94327087D01*
X138007087Y-94673148D01*
X137819800Y-95125298D01*
X137224467Y-95125298D01*
X137552913Y-94796852D01*
X137740200Y-94344702D01*
X137740200Y-93855298D01*
X137552913Y-93403148D01*
X137206852Y-93057087D01*
X136754702Y-92869800D01*
X136265298Y-92869800D01*
X135813148Y-93057087D01*
X135467087Y-93403148D01*
X135279800Y-93855298D01*
X134005401Y-93855298D01*
X133950969Y-93773836D01*
X132178848Y-92001715D01*
X132374496Y-91920676D01*
X132480000Y-91815172D01*
X132515504Y-91850676D01*
X132719564Y-91935200D01*
X132940436Y-91935200D01*
X133144496Y-91850676D01*
X133300676Y-91694496D01*
X133385200Y-91490436D01*
X133385200Y-91269564D01*
X133300676Y-91065504D01*
X133184736Y-90949564D01*
X133354800Y-90949564D01*
X133354800Y-91170436D01*
X133439324Y-91374496D01*
X133595504Y-91530676D01*
X133799564Y-91615200D01*
X134020436Y-91615200D01*
X134224496Y-91530676D01*
X134380676Y-91374496D01*
X134465200Y-91170436D01*
X134465200Y-90949564D01*
X134380676Y-90745504D01*
X134224496Y-90589324D01*
X134020436Y-90504800D01*
X133799564Y-90504800D01*
X133595504Y-90589324D01*
X133439324Y-90745504D01*
X133354800Y-90949564D01*
X133184736Y-90949564D01*
X133144496Y-90909324D01*
X132940436Y-90824800D01*
X132719564Y-90824800D01*
X132515504Y-90909324D01*
X132410000Y-91014828D01*
X132374496Y-90979324D01*
X132170436Y-90894800D01*
X131949564Y-90894800D01*
X131745504Y-90979324D01*
X131589324Y-91135504D01*
X131508285Y-91331152D01*
X130662258Y-90485125D01*
X136169750Y-90485125D01*
X136169750Y-90914875D01*
X136334209Y-91311912D01*
X136638088Y-91615791D01*
X137035125Y-91780250D01*
X137464875Y-91780250D01*
X137861912Y-91615791D01*
X138165791Y-91311912D01*
X138330250Y-90914875D01*
X138330250Y-90485125D01*
X138165791Y-90088088D01*
X137861912Y-89784209D01*
X137464875Y-89619750D01*
X137035125Y-89619750D01*
X136638088Y-89784209D01*
X136334209Y-90088088D01*
X136169750Y-90485125D01*
X130662258Y-90485125D01*
X128941887Y-88764754D01*
X130409800Y-88764754D01*
X130409800Y-89055246D01*
X130520967Y-89323625D01*
X130726375Y-89529033D01*
X130994754Y-89640200D01*
X131285246Y-89640200D01*
X131553625Y-89529033D01*
X131759033Y-89323625D01*
X131870200Y-89055246D01*
X131870200Y-88764754D01*
X131759033Y-88496375D01*
X131553625Y-88290967D01*
X131285246Y-88179800D01*
X130994754Y-88179800D01*
X130726375Y-88290967D01*
X130520967Y-88496375D01*
X130409800Y-88764754D01*
X128941887Y-88764754D01*
X127906400Y-87729267D01*
X127906400Y-87539564D01*
X128494804Y-87539564D01*
X128494804Y-87760436D01*
X128579328Y-87964496D01*
X128735508Y-88120676D01*
X128939568Y-88205200D01*
X129160440Y-88205200D01*
X129364500Y-88120676D01*
X129520680Y-87964496D01*
X129605204Y-87760436D01*
X129605204Y-87539564D01*
X129520680Y-87335504D01*
X129364500Y-87179324D01*
X129160440Y-87094800D01*
X128939568Y-87094800D01*
X128735508Y-87179324D01*
X128579328Y-87335504D01*
X128494804Y-87539564D01*
X127906400Y-87539564D01*
X127906400Y-87028772D01*
X127970676Y-86964496D01*
X128055200Y-86760436D01*
X128055200Y-86539564D01*
X128051819Y-86531401D01*
X129874195Y-86531401D01*
X129929324Y-86664496D01*
X130085504Y-86820676D01*
X130289564Y-86905200D01*
X130510436Y-86905200D01*
X130714496Y-86820676D01*
X130870676Y-86664496D01*
X130955200Y-86460436D01*
X130955200Y-86239564D01*
X130870676Y-86035504D01*
X130714496Y-85879324D01*
X130643288Y-85849829D01*
X130714469Y-85820345D01*
X130870649Y-85664165D01*
X130955173Y-85460105D01*
X130955173Y-85239233D01*
X130934438Y-85189174D01*
X133824800Y-88079536D01*
X133824800Y-88170436D01*
X133909324Y-88374496D01*
X134065504Y-88530676D01*
X134269564Y-88615200D01*
X134490436Y-88615200D01*
X134568599Y-88582824D01*
X134568599Y-88996665D01*
X134360464Y-89204800D01*
X134269564Y-89204800D01*
X134065504Y-89289324D01*
X133909324Y-89445504D01*
X133824800Y-89649564D01*
X133824800Y-89870436D01*
X133909324Y-90074496D01*
X134065504Y-90230676D01*
X134269564Y-90315200D01*
X134490436Y-90315200D01*
X134694496Y-90230676D01*
X134850676Y-90074496D01*
X134935200Y-89870436D01*
X134935200Y-89779536D01*
X135262367Y-89452369D01*
X135266954Y-89445504D01*
X135350464Y-89320524D01*
X135381399Y-89165001D01*
X135381399Y-88519983D01*
X135467087Y-88726852D01*
X135813148Y-89072913D01*
X136265298Y-89260200D01*
X136754702Y-89260200D01*
X137206852Y-89072913D01*
X137552913Y-88726852D01*
X137740200Y-88274702D01*
X137740200Y-87785298D01*
X137552913Y-87333148D01*
X137206852Y-86987087D01*
X136754702Y-86799800D01*
X136265298Y-86799800D01*
X135813148Y-86987087D01*
X135467087Y-87333148D01*
X135381399Y-87540017D01*
X135381399Y-85979983D01*
X135467087Y-86186852D01*
X135813148Y-86532913D01*
X136265298Y-86720200D01*
X136754702Y-86720200D01*
X137206852Y-86532913D01*
X137224467Y-86515298D01*
X137819800Y-86515298D01*
X137819800Y-87004702D01*
X138007087Y-87456852D01*
X138353148Y-87802913D01*
X138805298Y-87990200D01*
X139294702Y-87990200D01*
X139746852Y-87802913D01*
X140092913Y-87456852D01*
X140280200Y-87004702D01*
X140280200Y-86515298D01*
X140092913Y-86063148D01*
X139746852Y-85717087D01*
X139294702Y-85529800D01*
X138805298Y-85529800D01*
X138353148Y-85717087D01*
X138007087Y-86063148D01*
X137819800Y-86515298D01*
X137224467Y-86515298D01*
X137552913Y-86186852D01*
X137740200Y-85734702D01*
X137740200Y-85245298D01*
X137552913Y-84793148D01*
X137206852Y-84447087D01*
X136754702Y-84259800D01*
X136265298Y-84259800D01*
X135813148Y-84447087D01*
X135467087Y-84793148D01*
X135381399Y-85000017D01*
X135381399Y-84624999D01*
X135350464Y-84469476D01*
X135305200Y-84401734D01*
X135305200Y-84289564D01*
X135220676Y-84085504D01*
X135064496Y-83929324D01*
X134860436Y-83844800D01*
X134639564Y-83844800D01*
X134435504Y-83929324D01*
X134279324Y-84085504D01*
X134194800Y-84289564D01*
X134194800Y-84510436D01*
X134279324Y-84714496D01*
X134435504Y-84870676D01*
X134568599Y-84925805D01*
X134568599Y-87537176D01*
X134490436Y-87504800D01*
X134399536Y-87504800D01*
X131007368Y-84112632D01*
X130972171Y-84089114D01*
X130970676Y-84085504D01*
X130814496Y-83929324D01*
X130610436Y-83844800D01*
X130389564Y-83844800D01*
X130185504Y-83929324D01*
X130180090Y-83934738D01*
X130015791Y-83538088D01*
X129711912Y-83234209D01*
X129314875Y-83069750D01*
X128885125Y-83069750D01*
X128488088Y-83234209D01*
X128184209Y-83538088D01*
X128019750Y-83935125D01*
X128019750Y-84364875D01*
X128184209Y-84761912D01*
X128488088Y-85065791D01*
X128885125Y-85230250D01*
X129314875Y-85230250D01*
X129711912Y-85065791D01*
X130015791Y-84761912D01*
X130033643Y-84718815D01*
X130162088Y-84847260D01*
X130085477Y-84878993D01*
X129929297Y-85035173D01*
X129844773Y-85239233D01*
X129844773Y-85460105D01*
X129929297Y-85664165D01*
X129983733Y-85718601D01*
X127341164Y-85718601D01*
X127472913Y-85586852D01*
X127660200Y-85134702D01*
X127660200Y-84645298D01*
X127472913Y-84193148D01*
X127126852Y-83847087D01*
X126674702Y-83659800D01*
X126185298Y-83659800D01*
X125733148Y-83847087D01*
X125387087Y-84193148D01*
X125199800Y-84645298D01*
X125199800Y-85134702D01*
X125387087Y-85586852D01*
X125733148Y-85932913D01*
X126123975Y-86094799D01*
X126089564Y-86094799D01*
X125885504Y-86179323D01*
X125729324Y-86335503D01*
X125644800Y-86539563D01*
X125644800Y-86760435D01*
X125729324Y-86964495D01*
X125885504Y-87120675D01*
X126089564Y-87205199D01*
X126310436Y-87205199D01*
X126514496Y-87120675D01*
X126525000Y-87110172D01*
X126535504Y-87120676D01*
X126739564Y-87205200D01*
X126960436Y-87205200D01*
X127093600Y-87150042D01*
X127093600Y-87897603D01*
X127124535Y-88053126D01*
X127202920Y-88170436D01*
X127212632Y-88184971D01*
X128281261Y-89253600D01*
X126840000Y-89253600D01*
X126684477Y-89284535D01*
X126576925Y-89356400D01*
X126552632Y-89372632D01*
X126280464Y-89644800D01*
X126189564Y-89644800D01*
X125985504Y-89729324D01*
X125829324Y-89885504D01*
X125744800Y-90089564D01*
X125744800Y-90310436D01*
X125779745Y-90394800D01*
X125739564Y-90394800D01*
X125535504Y-90479324D01*
X125419782Y-90595046D01*
X125206400Y-90381664D01*
X125206400Y-88878670D01*
X125204810Y-88870676D01*
X125175466Y-88723148D01*
X125087369Y-88591302D01*
X122650841Y-86154775D01*
X122615783Y-86131350D01*
X122518996Y-86066678D01*
X122363473Y-86035743D01*
X121798599Y-86035743D01*
X122046852Y-85932913D01*
X122392913Y-85586852D01*
X122580200Y-85134702D01*
X122580200Y-84645298D01*
X122659800Y-84645298D01*
X122659800Y-85134702D01*
X122847087Y-85586852D01*
X123193148Y-85932913D01*
X123645298Y-86120200D01*
X124134702Y-86120200D01*
X124586852Y-85932913D01*
X124932913Y-85586852D01*
X125120200Y-85134702D01*
X125120200Y-84645298D01*
X124932913Y-84193148D01*
X124586852Y-83847087D01*
X124134702Y-83659800D01*
X123645298Y-83659800D01*
X123193148Y-83847087D01*
X122847087Y-84193148D01*
X122659800Y-84645298D01*
X122580200Y-84645298D01*
X122392913Y-84193148D01*
X122046852Y-83847087D01*
X121594702Y-83659800D01*
X121105298Y-83659800D01*
X120653148Y-83847087D01*
X120307087Y-84193148D01*
X120119800Y-84645298D01*
X120119800Y-85134702D01*
X120307087Y-85586852D01*
X120653148Y-85932913D01*
X120901401Y-86035743D01*
X119830200Y-86035743D01*
X119830200Y-85864564D01*
X119745676Y-85660504D01*
X119589496Y-85504324D01*
X119385436Y-85419800D01*
X119164564Y-85419800D01*
X118960504Y-85504324D01*
X118804324Y-85660504D01*
X118719800Y-85864564D01*
X118719800Y-86035743D01*
X118679426Y-86035743D01*
X118642789Y-85999106D01*
X118438729Y-85914582D01*
X118217857Y-85914582D01*
X118180104Y-85930220D01*
X118178890Y-85927290D01*
X118022710Y-85771110D01*
X117818650Y-85686586D01*
X117597778Y-85686586D01*
X117393718Y-85771110D01*
X117237538Y-85927290D01*
X117153014Y-86131350D01*
X117153014Y-86344800D01*
X116943174Y-86344800D01*
X116739114Y-86429324D01*
X116582934Y-86585504D01*
X116576805Y-86600301D01*
X116570676Y-86585504D01*
X116414496Y-86429324D01*
X116275200Y-86371626D01*
X116275200Y-86199562D01*
X116190676Y-85995502D01*
X116034496Y-85839322D01*
X116024559Y-85835206D01*
X116272913Y-85586852D01*
X116460200Y-85134702D01*
X116460200Y-84645298D01*
X116272913Y-84193148D01*
X116014890Y-83935125D01*
X116819750Y-83935125D01*
X116819750Y-84364875D01*
X116984209Y-84761912D01*
X117288088Y-85065791D01*
X117685125Y-85230250D01*
X118114875Y-85230250D01*
X118511912Y-85065791D01*
X118815791Y-84761912D01*
X118980250Y-84364875D01*
X118980250Y-83935125D01*
X118815791Y-83538088D01*
X118511912Y-83234209D01*
X118114875Y-83069750D01*
X117685125Y-83069750D01*
X117288088Y-83234209D01*
X116984209Y-83538088D01*
X116819750Y-83935125D01*
X116014890Y-83935125D01*
X115926852Y-83847087D01*
X115474702Y-83659800D01*
X114985298Y-83659800D01*
X114533148Y-83847087D01*
X114366400Y-84013835D01*
X114366400Y-83513222D01*
X114656852Y-83392913D01*
X115002913Y-83046852D01*
X115190200Y-82594702D01*
X115190200Y-82239564D01*
X118844800Y-82239564D01*
X118844800Y-82460436D01*
X118929324Y-82664496D01*
X119085504Y-82820676D01*
X119289564Y-82905200D01*
X119510436Y-82905200D01*
X119714496Y-82820676D01*
X119870676Y-82664496D01*
X119955200Y-82460436D01*
X119955200Y-82239564D01*
X119899586Y-82105298D01*
X121389800Y-82105298D01*
X121389800Y-82594702D01*
X121577087Y-83046852D01*
X121923148Y-83392913D01*
X122375298Y-83580200D01*
X122864702Y-83580200D01*
X123316852Y-83392913D01*
X123662913Y-83046852D01*
X123850200Y-82594702D01*
X123850200Y-82105298D01*
X123929800Y-82105298D01*
X123929800Y-82594702D01*
X124117087Y-83046852D01*
X124463148Y-83392913D01*
X124915298Y-83580200D01*
X125404702Y-83580200D01*
X125856852Y-83392913D01*
X126202913Y-83046852D01*
X126344389Y-82705298D01*
X135279800Y-82705298D01*
X135279800Y-83194702D01*
X135467087Y-83646852D01*
X135813148Y-83992913D01*
X136265298Y-84180200D01*
X136754702Y-84180200D01*
X137206852Y-83992913D01*
X137224467Y-83975298D01*
X137819800Y-83975298D01*
X137819800Y-84464702D01*
X138007087Y-84916852D01*
X138353148Y-85262913D01*
X138805298Y-85450200D01*
X139294702Y-85450200D01*
X139746852Y-85262913D01*
X140092913Y-84916852D01*
X140280200Y-84464702D01*
X140280200Y-83975298D01*
X140092913Y-83523148D01*
X139746852Y-83177087D01*
X139294702Y-82989800D01*
X138805298Y-82989800D01*
X138353148Y-83177087D01*
X138007087Y-83523148D01*
X137819800Y-83975298D01*
X137224467Y-83975298D01*
X137552913Y-83646852D01*
X137740200Y-83194702D01*
X137740200Y-82705298D01*
X137552913Y-82253148D01*
X137206852Y-81907087D01*
X136754702Y-81719800D01*
X136265298Y-81719800D01*
X135813148Y-81907087D01*
X135467087Y-82253148D01*
X135279800Y-82705298D01*
X126344389Y-82705298D01*
X126390200Y-82594702D01*
X126390200Y-82105298D01*
X126202913Y-81653148D01*
X125856852Y-81307087D01*
X125404702Y-81119800D01*
X124915298Y-81119800D01*
X124463148Y-81307087D01*
X124117087Y-81653148D01*
X123929800Y-82105298D01*
X123850200Y-82105298D01*
X123662913Y-81653148D01*
X123316852Y-81307087D01*
X122864702Y-81119800D01*
X122375298Y-81119800D01*
X121923148Y-81307087D01*
X121577087Y-81653148D01*
X121389800Y-82105298D01*
X119899586Y-82105298D01*
X119870676Y-82035504D01*
X119714496Y-81879324D01*
X119510436Y-81794800D01*
X119289564Y-81794800D01*
X119085504Y-81879324D01*
X118929324Y-82035504D01*
X118844800Y-82239564D01*
X115190200Y-82239564D01*
X115190200Y-82105298D01*
X115002913Y-81653148D01*
X114656852Y-81307087D01*
X114204702Y-81119800D01*
X113715298Y-81119800D01*
X113263148Y-81307087D01*
X112917087Y-81653148D01*
X112729800Y-82105298D01*
X112729800Y-82594702D01*
X112917087Y-83046852D01*
X113263148Y-83392913D01*
X113553600Y-83513222D01*
X113553600Y-84013835D01*
X113386852Y-83847087D01*
X112934702Y-83659800D01*
X112445298Y-83659800D01*
X111993148Y-83847087D01*
X111826400Y-84013835D01*
X111826400Y-83513222D01*
X112116852Y-83392913D01*
X112462913Y-83046852D01*
X112650200Y-82594702D01*
X112650200Y-82105298D01*
X112462913Y-81653148D01*
X112116852Y-81307087D01*
X111664702Y-81119800D01*
X111175298Y-81119800D01*
X110723148Y-81307087D01*
X110377087Y-81653148D01*
X110189800Y-82105298D01*
X110189800Y-82594702D01*
X110377087Y-83046852D01*
X110723148Y-83392913D01*
X111013600Y-83513222D01*
X111013600Y-84013835D01*
X110846852Y-83847087D01*
X110394702Y-83659800D01*
X109905298Y-83659800D01*
X109453148Y-83847087D01*
X109107087Y-84193148D01*
X108919800Y-84645298D01*
X108919800Y-85134702D01*
X109107087Y-85586852D01*
X109453148Y-85932913D01*
X109905298Y-86120200D01*
X110394702Y-86120200D01*
X110685154Y-85999890D01*
X111909064Y-87223800D01*
X108108966Y-87223800D01*
X107964496Y-87079330D01*
X107760436Y-86994806D01*
X107539564Y-86994806D01*
X107335504Y-87079330D01*
X107191034Y-87223800D01*
X107148536Y-87223800D01*
X106806400Y-86881664D01*
X106806400Y-85628772D01*
X106870676Y-85564496D01*
X106955200Y-85360436D01*
X106955200Y-85139564D01*
X106909900Y-85030200D01*
X106975355Y-85030200D01*
X107206979Y-84934257D01*
X107384257Y-84756979D01*
X107425000Y-84658618D01*
X107465743Y-84756979D01*
X107643021Y-84934257D01*
X107874645Y-85030200D01*
X108125355Y-85030200D01*
X108356979Y-84934257D01*
X108534257Y-84756979D01*
X108630200Y-84525355D01*
X108630200Y-84274645D01*
X108534257Y-84043021D01*
X108356979Y-83865743D01*
X108125355Y-83769800D01*
X107874645Y-83769800D01*
X107643021Y-83865743D01*
X107465743Y-84043021D01*
X107425000Y-84141382D01*
X107384257Y-84043021D01*
X107206979Y-83865743D01*
X106975355Y-83769800D01*
X106866378Y-83769800D01*
X106807200Y-83710622D01*
X106807200Y-83400000D01*
X106772398Y-83225037D01*
X106673289Y-83076711D01*
X106476200Y-82879622D01*
X106476200Y-81489564D01*
X107294800Y-81489564D01*
X107294800Y-81710436D01*
X107379324Y-81914496D01*
X107389828Y-81925000D01*
X107379324Y-81935504D01*
X107294800Y-82139564D01*
X107294800Y-82360436D01*
X107379324Y-82564496D01*
X107535504Y-82720676D01*
X107739564Y-82805200D01*
X107960436Y-82805200D01*
X108164496Y-82720676D01*
X108320676Y-82564496D01*
X108405200Y-82360436D01*
X108405200Y-82139564D01*
X108320676Y-81935504D01*
X108310172Y-81925000D01*
X108320676Y-81914496D01*
X108405200Y-81710436D01*
X108405200Y-81489564D01*
X108320676Y-81285504D01*
X108164496Y-81129324D01*
X107960436Y-81044800D01*
X107739564Y-81044800D01*
X107535504Y-81129324D01*
X107379324Y-81285504D01*
X107294800Y-81489564D01*
X106476200Y-81489564D01*
X106476200Y-80805200D01*
X140594800Y-80805200D01*
X140594800Y-102773800D01*
X140594800Y-102773800D01*
G37*
X140594800Y-102773800D02*
X137842577Y-102773800D01*
X137861912Y-102765791D01*
X138165791Y-102461912D01*
X138330250Y-102064875D01*
X138330250Y-101635125D01*
X138165791Y-101238088D01*
X137861912Y-100934209D01*
X137464875Y-100769750D01*
X137035125Y-100769750D01*
X136638088Y-100934209D01*
X136334209Y-101238088D01*
X136169750Y-101635125D01*
X136169750Y-102064875D01*
X136334209Y-102461912D01*
X136638088Y-102765791D01*
X136657423Y-102773800D01*
X132459065Y-102773800D01*
X133263307Y-102440672D01*
X133890672Y-101813307D01*
X134230200Y-100993614D01*
X134230200Y-100106386D01*
X133890672Y-99286693D01*
X133539277Y-98935298D01*
X135279800Y-98935298D01*
X135279800Y-99424702D01*
X135467087Y-99876852D01*
X135813148Y-100222913D01*
X136265298Y-100410200D01*
X136754702Y-100410200D01*
X137206852Y-100222913D01*
X137552913Y-99876852D01*
X137740200Y-99424702D01*
X137740200Y-98935298D01*
X137552913Y-98483148D01*
X137206852Y-98137087D01*
X136754702Y-97949800D01*
X136265298Y-97949800D01*
X135813148Y-98137087D01*
X135467087Y-98483148D01*
X135279800Y-98935298D01*
X133539277Y-98935298D01*
X133263307Y-98659328D01*
X132443614Y-98319800D01*
X131556386Y-98319800D01*
X130736693Y-98659328D01*
X130109328Y-99286693D01*
X129769800Y-100106386D01*
X129769800Y-100993614D01*
X130109328Y-101813307D01*
X130736693Y-102440672D01*
X131540935Y-102773800D01*
X127911372Y-102773800D01*
X127970676Y-102714496D01*
X128055200Y-102510436D01*
X128055200Y-102289564D01*
X127970676Y-102085504D01*
X127814496Y-101929324D01*
X127610436Y-101844800D01*
X127389564Y-101844800D01*
X127185504Y-101929324D01*
X127029324Y-102085504D01*
X127000000Y-102156299D01*
X126970676Y-102085504D01*
X126814496Y-101929324D01*
X126610436Y-101844800D01*
X126389564Y-101844800D01*
X126185504Y-101929324D01*
X126029324Y-102085504D01*
X125944800Y-102289564D01*
X125944800Y-102510436D01*
X126029324Y-102714496D01*
X126088628Y-102773800D01*
X123476200Y-102773800D01*
X123476200Y-101680202D01*
X123485436Y-101680202D01*
X123678579Y-101600200D01*
X128170000Y-101600200D01*
X128296362Y-101575065D01*
X128403487Y-101503487D01*
X128475065Y-101396362D01*
X128500200Y-101270000D01*
X128500200Y-96489564D01*
X129594800Y-96489564D01*
X129594800Y-96710436D01*
X129679324Y-96914496D01*
X129835504Y-97070676D01*
X130039564Y-97155200D01*
X130260436Y-97155200D01*
X130464496Y-97070676D01*
X130620676Y-96914496D01*
X130705200Y-96710436D01*
X130705200Y-96489564D01*
X130620676Y-96285504D01*
X130464496Y-96129324D01*
X130260436Y-96044800D01*
X130039564Y-96044800D01*
X129835504Y-96129324D01*
X129679324Y-96285504D01*
X129594800Y-96489564D01*
X128500200Y-96489564D01*
X128500200Y-96170000D01*
X128475329Y-96044278D01*
X128403976Y-95937003D01*
X128297001Y-95865201D01*
X128170692Y-95839801D01*
X124707971Y-95832542D01*
X124647066Y-95685504D01*
X124490886Y-95529324D01*
X124286826Y-95444800D01*
X124259143Y-95444800D01*
X124272397Y-95424964D01*
X124307199Y-95250001D01*
X124307199Y-94469564D01*
X129282400Y-94469564D01*
X129282400Y-94690436D01*
X129366924Y-94894496D01*
X129523104Y-95050676D01*
X129727164Y-95135200D01*
X129948036Y-95135200D01*
X130152096Y-95050676D01*
X130308276Y-94894496D01*
X130392800Y-94690436D01*
X130392800Y-94469564D01*
X130308276Y-94265504D01*
X130152096Y-94109324D01*
X129948036Y-94024800D01*
X129727164Y-94024800D01*
X129523104Y-94109324D01*
X129366924Y-94265504D01*
X129282400Y-94469564D01*
X124307199Y-94469564D01*
X124307199Y-93899999D01*
X124272397Y-93725036D01*
X124173288Y-93576710D01*
X123716428Y-93119850D01*
X123853809Y-92982469D01*
X123938333Y-92778409D01*
X123938333Y-92557537D01*
X123853809Y-92353477D01*
X123817749Y-92317417D01*
X123820670Y-92314496D01*
X123905194Y-92110436D01*
X123905194Y-91889564D01*
X123820670Y-91685504D01*
X123664490Y-91529324D01*
X123476200Y-91451332D01*
X123476200Y-90958243D01*
X123589564Y-91005200D01*
X123810436Y-91005200D01*
X124014496Y-90920676D01*
X124170676Y-90764496D01*
X124255200Y-90560436D01*
X124255200Y-90339564D01*
X124170676Y-90135504D01*
X124014496Y-89979324D01*
X123810436Y-89894800D01*
X123589564Y-89894800D01*
X123476200Y-89941757D01*
X123476200Y-88129606D01*
X124393600Y-89047007D01*
X124393600Y-90550000D01*
X124424535Y-90705523D01*
X124504234Y-90824800D01*
X124512632Y-90837368D01*
X125366233Y-91690969D01*
X125498078Y-91779066D01*
X125653601Y-91810001D01*
X127596399Y-91810001D01*
X127751922Y-91779066D01*
X127883767Y-91690969D01*
X128069536Y-91505200D01*
X128148104Y-91505200D01*
X128092442Y-91639580D01*
X128092442Y-91860452D01*
X128176966Y-92064512D01*
X128333146Y-92220692D01*
X128537206Y-92305216D01*
X128758078Y-92305216D01*
X128954019Y-92224055D01*
X129139602Y-92300926D01*
X129360474Y-92300926D01*
X129564534Y-92216402D01*
X129572886Y-92208050D01*
X129585504Y-92220668D01*
X129789564Y-92305192D01*
X130010436Y-92305192D01*
X130214496Y-92220668D01*
X130370676Y-92064488D01*
X130455200Y-91860428D01*
X130455200Y-91858606D01*
X132803600Y-94207007D01*
X132803600Y-94401228D01*
X132739324Y-94465504D01*
X132654800Y-94669564D01*
X132654800Y-94890436D01*
X132739324Y-95094496D01*
X132895504Y-95250676D01*
X133099564Y-95335200D01*
X133257201Y-95335200D01*
X133257201Y-95628063D01*
X133140464Y-95744800D01*
X133049564Y-95744800D01*
X132845504Y-95829324D01*
X132689324Y-95985504D01*
X132683862Y-95998690D01*
X132554496Y-95869324D01*
X132350436Y-95784800D01*
X132129564Y-95784800D01*
X131925504Y-95869324D01*
X131769324Y-96025504D01*
X131684800Y-96229564D01*
X131684800Y-96450436D01*
X131769324Y-96654496D01*
X131925504Y-96810676D01*
X132129564Y-96895200D01*
X132350436Y-96895200D01*
X132554496Y-96810676D01*
X132710676Y-96654496D01*
X132716138Y-96641310D01*
X132845504Y-96770676D01*
X133049564Y-96855200D01*
X133270436Y-96855200D01*
X133474496Y-96770676D01*
X133630676Y-96614496D01*
X133715200Y-96410436D01*
X133715200Y-96395298D01*
X135279800Y-96395298D01*
X135279800Y-96884702D01*
X135467087Y-97336852D01*
X135813148Y-97682913D01*
X136265298Y-97870200D01*
X136754702Y-97870200D01*
X137206852Y-97682913D01*
X137224467Y-97665298D01*
X137819800Y-97665298D01*
X137819800Y-98154702D01*
X138007087Y-98606852D01*
X138353148Y-98952913D01*
X138805298Y-99140200D01*
X139294702Y-99140200D01*
X139746852Y-98952913D01*
X140092913Y-98606852D01*
X140280200Y-98154702D01*
X140280200Y-97665298D01*
X140092913Y-97213148D01*
X139746852Y-96867087D01*
X139294702Y-96679800D01*
X138805298Y-96679800D01*
X138353148Y-96867087D01*
X138007087Y-97213148D01*
X137819800Y-97665298D01*
X137224467Y-97665298D01*
X137552913Y-97336852D01*
X137740200Y-96884702D01*
X137740200Y-96395298D01*
X137552913Y-95943148D01*
X137206852Y-95597087D01*
X136754702Y-95409800D01*
X136265298Y-95409800D01*
X135813148Y-95597087D01*
X135467087Y-95943148D01*
X135279800Y-96395298D01*
X133715200Y-96395298D01*
X133715200Y-96319536D01*
X133950969Y-96083767D01*
X134039066Y-95951922D01*
X134040811Y-95943148D01*
X134070001Y-95796399D01*
X134070001Y-94061204D01*
X134039066Y-93905681D01*
X134005401Y-93855298D01*
X135279800Y-93855298D01*
X135279800Y-94344702D01*
X135467087Y-94796852D01*
X135813148Y-95142913D01*
X136265298Y-95330200D01*
X136754702Y-95330200D01*
X137206852Y-95142913D01*
X137224467Y-95125298D01*
X137819800Y-95125298D01*
X137819800Y-95614702D01*
X138007087Y-96066852D01*
X138353148Y-96412913D01*
X138805298Y-96600200D01*
X139294702Y-96600200D01*
X139746852Y-96412913D01*
X140092913Y-96066852D01*
X140280200Y-95614702D01*
X140280200Y-95125298D01*
X140092913Y-94673148D01*
X139746852Y-94327087D01*
X139294702Y-94139800D01*
X138805298Y-94139800D01*
X138353148Y-94327087D01*
X138007087Y-94673148D01*
X137819800Y-95125298D01*
X137224467Y-95125298D01*
X137552913Y-94796852D01*
X137740200Y-94344702D01*
X137740200Y-93855298D01*
X137552913Y-93403148D01*
X137206852Y-93057087D01*
X136754702Y-92869800D01*
X136265298Y-92869800D01*
X135813148Y-93057087D01*
X135467087Y-93403148D01*
X135279800Y-93855298D01*
X134005401Y-93855298D01*
X133950969Y-93773836D01*
X132178848Y-92001715D01*
X132374496Y-91920676D01*
X132480000Y-91815172D01*
X132515504Y-91850676D01*
X132719564Y-91935200D01*
X132940436Y-91935200D01*
X133144496Y-91850676D01*
X133300676Y-91694496D01*
X133385200Y-91490436D01*
X133385200Y-91269564D01*
X133300676Y-91065504D01*
X133184736Y-90949564D01*
X133354800Y-90949564D01*
X133354800Y-91170436D01*
X133439324Y-91374496D01*
X133595504Y-91530676D01*
X133799564Y-91615200D01*
X134020436Y-91615200D01*
X134224496Y-91530676D01*
X134380676Y-91374496D01*
X134465200Y-91170436D01*
X134465200Y-90949564D01*
X134380676Y-90745504D01*
X134224496Y-90589324D01*
X134020436Y-90504800D01*
X133799564Y-90504800D01*
X133595504Y-90589324D01*
X133439324Y-90745504D01*
X133354800Y-90949564D01*
X133184736Y-90949564D01*
X133144496Y-90909324D01*
X132940436Y-90824800D01*
X132719564Y-90824800D01*
X132515504Y-90909324D01*
X132410000Y-91014828D01*
X132374496Y-90979324D01*
X132170436Y-90894800D01*
X131949564Y-90894800D01*
X131745504Y-90979324D01*
X131589324Y-91135504D01*
X131508285Y-91331152D01*
X130662258Y-90485125D01*
X136169750Y-90485125D01*
X136169750Y-90914875D01*
X136334209Y-91311912D01*
X136638088Y-91615791D01*
X137035125Y-91780250D01*
X137464875Y-91780250D01*
X137861912Y-91615791D01*
X138165791Y-91311912D01*
X138330250Y-90914875D01*
X138330250Y-90485125D01*
X138165791Y-90088088D01*
X137861912Y-89784209D01*
X137464875Y-89619750D01*
X137035125Y-89619750D01*
X136638088Y-89784209D01*
X136334209Y-90088088D01*
X136169750Y-90485125D01*
X130662258Y-90485125D01*
X128941887Y-88764754D01*
X130409800Y-88764754D01*
X130409800Y-89055246D01*
X130520967Y-89323625D01*
X130726375Y-89529033D01*
X130994754Y-89640200D01*
X131285246Y-89640200D01*
X131553625Y-89529033D01*
X131759033Y-89323625D01*
X131870200Y-89055246D01*
X131870200Y-88764754D01*
X131759033Y-88496375D01*
X131553625Y-88290967D01*
X131285246Y-88179800D01*
X130994754Y-88179800D01*
X130726375Y-88290967D01*
X130520967Y-88496375D01*
X130409800Y-88764754D01*
X128941887Y-88764754D01*
X127906400Y-87729267D01*
X127906400Y-87539564D01*
X128494804Y-87539564D01*
X128494804Y-87760436D01*
X128579328Y-87964496D01*
X128735508Y-88120676D01*
X128939568Y-88205200D01*
X129160440Y-88205200D01*
X129364500Y-88120676D01*
X129520680Y-87964496D01*
X129605204Y-87760436D01*
X129605204Y-87539564D01*
X129520680Y-87335504D01*
X129364500Y-87179324D01*
X129160440Y-87094800D01*
X128939568Y-87094800D01*
X128735508Y-87179324D01*
X128579328Y-87335504D01*
X128494804Y-87539564D01*
X127906400Y-87539564D01*
X127906400Y-87028772D01*
X127970676Y-86964496D01*
X128055200Y-86760436D01*
X128055200Y-86539564D01*
X128051819Y-86531401D01*
X129874195Y-86531401D01*
X129929324Y-86664496D01*
X130085504Y-86820676D01*
X130289564Y-86905200D01*
X130510436Y-86905200D01*
X130714496Y-86820676D01*
X130870676Y-86664496D01*
X130955200Y-86460436D01*
X130955200Y-86239564D01*
X130870676Y-86035504D01*
X130714496Y-85879324D01*
X130643288Y-85849829D01*
X130714469Y-85820345D01*
X130870649Y-85664165D01*
X130955173Y-85460105D01*
X130955173Y-85239233D01*
X130934438Y-85189174D01*
X133824800Y-88079536D01*
X133824800Y-88170436D01*
X133909324Y-88374496D01*
X134065504Y-88530676D01*
X134269564Y-88615200D01*
X134490436Y-88615200D01*
X134568599Y-88582824D01*
X134568599Y-88996665D01*
X134360464Y-89204800D01*
X134269564Y-89204800D01*
X134065504Y-89289324D01*
X133909324Y-89445504D01*
X133824800Y-89649564D01*
X133824800Y-89870436D01*
X133909324Y-90074496D01*
X134065504Y-90230676D01*
X134269564Y-90315200D01*
X134490436Y-90315200D01*
X134694496Y-90230676D01*
X134850676Y-90074496D01*
X134935200Y-89870436D01*
X134935200Y-89779536D01*
X135262367Y-89452369D01*
X135266954Y-89445504D01*
X135350464Y-89320524D01*
X135381399Y-89165001D01*
X135381399Y-88519983D01*
X135467087Y-88726852D01*
X135813148Y-89072913D01*
X136265298Y-89260200D01*
X136754702Y-89260200D01*
X137206852Y-89072913D01*
X137552913Y-88726852D01*
X137740200Y-88274702D01*
X137740200Y-87785298D01*
X137552913Y-87333148D01*
X137206852Y-86987087D01*
X136754702Y-86799800D01*
X136265298Y-86799800D01*
X135813148Y-86987087D01*
X135467087Y-87333148D01*
X135381399Y-87540017D01*
X135381399Y-85979983D01*
X135467087Y-86186852D01*
X135813148Y-86532913D01*
X136265298Y-86720200D01*
X136754702Y-86720200D01*
X137206852Y-86532913D01*
X137224467Y-86515298D01*
X137819800Y-86515298D01*
X137819800Y-87004702D01*
X138007087Y-87456852D01*
X138353148Y-87802913D01*
X138805298Y-87990200D01*
X139294702Y-87990200D01*
X139746852Y-87802913D01*
X140092913Y-87456852D01*
X140280200Y-87004702D01*
X140280200Y-86515298D01*
X140092913Y-86063148D01*
X139746852Y-85717087D01*
X139294702Y-85529800D01*
X138805298Y-85529800D01*
X138353148Y-85717087D01*
X138007087Y-86063148D01*
X137819800Y-86515298D01*
X137224467Y-86515298D01*
X137552913Y-86186852D01*
X137740200Y-85734702D01*
X137740200Y-85245298D01*
X137552913Y-84793148D01*
X137206852Y-84447087D01*
X136754702Y-84259800D01*
X136265298Y-84259800D01*
X135813148Y-84447087D01*
X135467087Y-84793148D01*
X135381399Y-85000017D01*
X135381399Y-84624999D01*
X135350464Y-84469476D01*
X135305200Y-84401734D01*
X135305200Y-84289564D01*
X135220676Y-84085504D01*
X135064496Y-83929324D01*
X134860436Y-83844800D01*
X134639564Y-83844800D01*
X134435504Y-83929324D01*
X134279324Y-84085504D01*
X134194800Y-84289564D01*
X134194800Y-84510436D01*
X134279324Y-84714496D01*
X134435504Y-84870676D01*
X134568599Y-84925805D01*
X134568599Y-87537176D01*
X134490436Y-87504800D01*
X134399536Y-87504800D01*
X131007368Y-84112632D01*
X130972171Y-84089114D01*
X130970676Y-84085504D01*
X130814496Y-83929324D01*
X130610436Y-83844800D01*
X130389564Y-83844800D01*
X130185504Y-83929324D01*
X130180090Y-83934738D01*
X130015791Y-83538088D01*
X129711912Y-83234209D01*
X129314875Y-83069750D01*
X128885125Y-83069750D01*
X128488088Y-83234209D01*
X128184209Y-83538088D01*
X128019750Y-83935125D01*
X128019750Y-84364875D01*
X128184209Y-84761912D01*
X128488088Y-85065791D01*
X128885125Y-85230250D01*
X129314875Y-85230250D01*
X129711912Y-85065791D01*
X130015791Y-84761912D01*
X130033643Y-84718815D01*
X130162088Y-84847260D01*
X130085477Y-84878993D01*
X129929297Y-85035173D01*
X129844773Y-85239233D01*
X129844773Y-85460105D01*
X129929297Y-85664165D01*
X129983733Y-85718601D01*
X127341164Y-85718601D01*
X127472913Y-85586852D01*
X127660200Y-85134702D01*
X127660200Y-84645298D01*
X127472913Y-84193148D01*
X127126852Y-83847087D01*
X126674702Y-83659800D01*
X126185298Y-83659800D01*
X125733148Y-83847087D01*
X125387087Y-84193148D01*
X125199800Y-84645298D01*
X125199800Y-85134702D01*
X125387087Y-85586852D01*
X125733148Y-85932913D01*
X126123975Y-86094799D01*
X126089564Y-86094799D01*
X125885504Y-86179323D01*
X125729324Y-86335503D01*
X125644800Y-86539563D01*
X125644800Y-86760435D01*
X125729324Y-86964495D01*
X125885504Y-87120675D01*
X126089564Y-87205199D01*
X126310436Y-87205199D01*
X126514496Y-87120675D01*
X126525000Y-87110172D01*
X126535504Y-87120676D01*
X126739564Y-87205200D01*
X126960436Y-87205200D01*
X127093600Y-87150042D01*
X127093600Y-87897603D01*
X127124535Y-88053126D01*
X127202920Y-88170436D01*
X127212632Y-88184971D01*
X128281261Y-89253600D01*
X126840000Y-89253600D01*
X126684477Y-89284535D01*
X126576925Y-89356400D01*
X126552632Y-89372632D01*
X126280464Y-89644800D01*
X126189564Y-89644800D01*
X125985504Y-89729324D01*
X125829324Y-89885504D01*
X125744800Y-90089564D01*
X125744800Y-90310436D01*
X125779745Y-90394800D01*
X125739564Y-90394800D01*
X125535504Y-90479324D01*
X125419782Y-90595046D01*
X125206400Y-90381664D01*
X125206400Y-88878670D01*
X125204810Y-88870676D01*
X125175466Y-88723148D01*
X125087369Y-88591302D01*
X122650841Y-86154775D01*
X122615783Y-86131350D01*
X122518996Y-86066678D01*
X122363473Y-86035743D01*
X121798599Y-86035743D01*
X122046852Y-85932913D01*
X122392913Y-85586852D01*
X122580200Y-85134702D01*
X122580200Y-84645298D01*
X122659800Y-84645298D01*
X122659800Y-85134702D01*
X122847087Y-85586852D01*
X123193148Y-85932913D01*
X123645298Y-86120200D01*
X124134702Y-86120200D01*
X124586852Y-85932913D01*
X124932913Y-85586852D01*
X125120200Y-85134702D01*
X125120200Y-84645298D01*
X124932913Y-84193148D01*
X124586852Y-83847087D01*
X124134702Y-83659800D01*
X123645298Y-83659800D01*
X123193148Y-83847087D01*
X122847087Y-84193148D01*
X122659800Y-84645298D01*
X122580200Y-84645298D01*
X122392913Y-84193148D01*
X122046852Y-83847087D01*
X121594702Y-83659800D01*
X121105298Y-83659800D01*
X120653148Y-83847087D01*
X120307087Y-84193148D01*
X120119800Y-84645298D01*
X120119800Y-85134702D01*
X120307087Y-85586852D01*
X120653148Y-85932913D01*
X120901401Y-86035743D01*
X119830200Y-86035743D01*
X119830200Y-85864564D01*
X119745676Y-85660504D01*
X119589496Y-85504324D01*
X119385436Y-85419800D01*
X119164564Y-85419800D01*
X118960504Y-85504324D01*
X118804324Y-85660504D01*
X118719800Y-85864564D01*
X118719800Y-86035743D01*
X118679426Y-86035743D01*
X118642789Y-85999106D01*
X118438729Y-85914582D01*
X118217857Y-85914582D01*
X118180104Y-85930220D01*
X118178890Y-85927290D01*
X118022710Y-85771110D01*
X117818650Y-85686586D01*
X117597778Y-85686586D01*
X117393718Y-85771110D01*
X117237538Y-85927290D01*
X117153014Y-86131350D01*
X117153014Y-86344800D01*
X116943174Y-86344800D01*
X116739114Y-86429324D01*
X116582934Y-86585504D01*
X116576805Y-86600301D01*
X116570676Y-86585504D01*
X116414496Y-86429324D01*
X116275200Y-86371626D01*
X116275200Y-86199562D01*
X116190676Y-85995502D01*
X116034496Y-85839322D01*
X116024559Y-85835206D01*
X116272913Y-85586852D01*
X116460200Y-85134702D01*
X116460200Y-84645298D01*
X116272913Y-84193148D01*
X116014890Y-83935125D01*
X116819750Y-83935125D01*
X116819750Y-84364875D01*
X116984209Y-84761912D01*
X117288088Y-85065791D01*
X117685125Y-85230250D01*
X118114875Y-85230250D01*
X118511912Y-85065791D01*
X118815791Y-84761912D01*
X118980250Y-84364875D01*
X118980250Y-83935125D01*
X118815791Y-83538088D01*
X118511912Y-83234209D01*
X118114875Y-83069750D01*
X117685125Y-83069750D01*
X117288088Y-83234209D01*
X116984209Y-83538088D01*
X116819750Y-83935125D01*
X116014890Y-83935125D01*
X115926852Y-83847087D01*
X115474702Y-83659800D01*
X114985298Y-83659800D01*
X114533148Y-83847087D01*
X114366400Y-84013835D01*
X114366400Y-83513222D01*
X114656852Y-83392913D01*
X115002913Y-83046852D01*
X115190200Y-82594702D01*
X115190200Y-82239564D01*
X118844800Y-82239564D01*
X118844800Y-82460436D01*
X118929324Y-82664496D01*
X119085504Y-82820676D01*
X119289564Y-82905200D01*
X119510436Y-82905200D01*
X119714496Y-82820676D01*
X119870676Y-82664496D01*
X119955200Y-82460436D01*
X119955200Y-82239564D01*
X119899586Y-82105298D01*
X121389800Y-82105298D01*
X121389800Y-82594702D01*
X121577087Y-83046852D01*
X121923148Y-83392913D01*
X122375298Y-83580200D01*
X122864702Y-83580200D01*
X123316852Y-83392913D01*
X123662913Y-83046852D01*
X123850200Y-82594702D01*
X123850200Y-82105298D01*
X123929800Y-82105298D01*
X123929800Y-82594702D01*
X124117087Y-83046852D01*
X124463148Y-83392913D01*
X124915298Y-83580200D01*
X125404702Y-83580200D01*
X125856852Y-83392913D01*
X126202913Y-83046852D01*
X126344389Y-82705298D01*
X135279800Y-82705298D01*
X135279800Y-83194702D01*
X135467087Y-83646852D01*
X135813148Y-83992913D01*
X136265298Y-84180200D01*
X136754702Y-84180200D01*
X137206852Y-83992913D01*
X137224467Y-83975298D01*
X137819800Y-83975298D01*
X137819800Y-84464702D01*
X138007087Y-84916852D01*
X138353148Y-85262913D01*
X138805298Y-85450200D01*
X139294702Y-85450200D01*
X139746852Y-85262913D01*
X140092913Y-84916852D01*
X140280200Y-84464702D01*
X140280200Y-83975298D01*
X140092913Y-83523148D01*
X139746852Y-83177087D01*
X139294702Y-82989800D01*
X138805298Y-82989800D01*
X138353148Y-83177087D01*
X138007087Y-83523148D01*
X137819800Y-83975298D01*
X137224467Y-83975298D01*
X137552913Y-83646852D01*
X137740200Y-83194702D01*
X137740200Y-82705298D01*
X137552913Y-82253148D01*
X137206852Y-81907087D01*
X136754702Y-81719800D01*
X136265298Y-81719800D01*
X135813148Y-81907087D01*
X135467087Y-82253148D01*
X135279800Y-82705298D01*
X126344389Y-82705298D01*
X126390200Y-82594702D01*
X126390200Y-82105298D01*
X126202913Y-81653148D01*
X125856852Y-81307087D01*
X125404702Y-81119800D01*
X124915298Y-81119800D01*
X124463148Y-81307087D01*
X124117087Y-81653148D01*
X123929800Y-82105298D01*
X123850200Y-82105298D01*
X123662913Y-81653148D01*
X123316852Y-81307087D01*
X122864702Y-81119800D01*
X122375298Y-81119800D01*
X121923148Y-81307087D01*
X121577087Y-81653148D01*
X121389800Y-82105298D01*
X119899586Y-82105298D01*
X119870676Y-82035504D01*
X119714496Y-81879324D01*
X119510436Y-81794800D01*
X119289564Y-81794800D01*
X119085504Y-81879324D01*
X118929324Y-82035504D01*
X118844800Y-82239564D01*
X115190200Y-82239564D01*
X115190200Y-82105298D01*
X115002913Y-81653148D01*
X114656852Y-81307087D01*
X114204702Y-81119800D01*
X113715298Y-81119800D01*
X113263148Y-81307087D01*
X112917087Y-81653148D01*
X112729800Y-82105298D01*
X112729800Y-82594702D01*
X112917087Y-83046852D01*
X113263148Y-83392913D01*
X113553600Y-83513222D01*
X113553600Y-84013835D01*
X113386852Y-83847087D01*
X112934702Y-83659800D01*
X112445298Y-83659800D01*
X111993148Y-83847087D01*
X111826400Y-84013835D01*
X111826400Y-83513222D01*
X112116852Y-83392913D01*
X112462913Y-83046852D01*
X112650200Y-82594702D01*
X112650200Y-82105298D01*
X112462913Y-81653148D01*
X112116852Y-81307087D01*
X111664702Y-81119800D01*
X111175298Y-81119800D01*
X110723148Y-81307087D01*
X110377087Y-81653148D01*
X110189800Y-82105298D01*
X110189800Y-82594702D01*
X110377087Y-83046852D01*
X110723148Y-83392913D01*
X111013600Y-83513222D01*
X111013600Y-84013835D01*
X110846852Y-83847087D01*
X110394702Y-83659800D01*
X109905298Y-83659800D01*
X109453148Y-83847087D01*
X109107087Y-84193148D01*
X108919800Y-84645298D01*
X108919800Y-85134702D01*
X109107087Y-85586852D01*
X109453148Y-85932913D01*
X109905298Y-86120200D01*
X110394702Y-86120200D01*
X110685154Y-85999890D01*
X111909064Y-87223800D01*
X108108966Y-87223800D01*
X107964496Y-87079330D01*
X107760436Y-86994806D01*
X107539564Y-86994806D01*
X107335504Y-87079330D01*
X107191034Y-87223800D01*
X107148536Y-87223800D01*
X106806400Y-86881664D01*
X106806400Y-85628772D01*
X106870676Y-85564496D01*
X106955200Y-85360436D01*
X106955200Y-85139564D01*
X106909900Y-85030200D01*
X106975355Y-85030200D01*
X107206979Y-84934257D01*
X107384257Y-84756979D01*
X107425000Y-84658618D01*
X107465743Y-84756979D01*
X107643021Y-84934257D01*
X107874645Y-85030200D01*
X108125355Y-85030200D01*
X108356979Y-84934257D01*
X108534257Y-84756979D01*
X108630200Y-84525355D01*
X108630200Y-84274645D01*
X108534257Y-84043021D01*
X108356979Y-83865743D01*
X108125355Y-83769800D01*
X107874645Y-83769800D01*
X107643021Y-83865743D01*
X107465743Y-84043021D01*
X107425000Y-84141382D01*
X107384257Y-84043021D01*
X107206979Y-83865743D01*
X106975355Y-83769800D01*
X106866378Y-83769800D01*
X106807200Y-83710622D01*
X106807200Y-83400000D01*
X106772398Y-83225037D01*
X106673289Y-83076711D01*
X106476200Y-82879622D01*
X106476200Y-81489564D01*
X107294800Y-81489564D01*
X107294800Y-81710436D01*
X107379324Y-81914496D01*
X107389828Y-81925000D01*
X107379324Y-81935504D01*
X107294800Y-82139564D01*
X107294800Y-82360436D01*
X107379324Y-82564496D01*
X107535504Y-82720676D01*
X107739564Y-82805200D01*
X107960436Y-82805200D01*
X108164496Y-82720676D01*
X108320676Y-82564496D01*
X108405200Y-82360436D01*
X108405200Y-82139564D01*
X108320676Y-81935504D01*
X108310172Y-81925000D01*
X108320676Y-81914496D01*
X108405200Y-81710436D01*
X108405200Y-81489564D01*
X108320676Y-81285504D01*
X108164496Y-81129324D01*
X107960436Y-81044800D01*
X107739564Y-81044800D01*
X107535504Y-81129324D01*
X107379324Y-81285504D01*
X107294800Y-81489564D01*
X106476200Y-81489564D01*
X106476200Y-80805200D01*
X140594800Y-80805200D01*
X140594800Y-102773800D01*
G36*
X121793021Y-95284257D02*
X122024645Y-95380200D01*
X122149537Y-95380200D01*
X121943021Y-95465743D01*
X121790880Y-95617885D01*
X121719319Y-95546324D01*
X121515259Y-95461800D01*
X121294387Y-95461800D01*
X121090327Y-95546324D01*
X120934147Y-95702504D01*
X120849623Y-95906564D01*
X120849623Y-96127436D01*
X120867171Y-96169800D01*
X120674643Y-96169800D01*
X120443019Y-96265743D01*
X120265741Y-96443021D01*
X120169798Y-96674645D01*
X120169798Y-96925355D01*
X120265741Y-97156979D01*
X120443019Y-97334257D01*
X120674643Y-97430200D01*
X120728564Y-97430200D01*
X120565743Y-97593021D01*
X120469800Y-97824645D01*
X120469800Y-98075355D01*
X120565743Y-98306979D01*
X120708764Y-98450000D01*
X120565743Y-98593021D01*
X120469800Y-98824645D01*
X120469800Y-99075355D01*
X120565743Y-99306979D01*
X120743021Y-99484257D01*
X120974645Y-99580200D01*
X121225355Y-99580200D01*
X121456979Y-99484257D01*
X121634257Y-99306979D01*
X121730200Y-99075355D01*
X121730200Y-98824645D01*
X121634257Y-98593021D01*
X121491236Y-98450000D01*
X121634257Y-98306979D01*
X121730200Y-98075355D01*
X121730200Y-97824645D01*
X121634257Y-97593021D01*
X121456979Y-97415743D01*
X121225355Y-97319800D01*
X121171434Y-97319800D01*
X121334255Y-97156979D01*
X121430198Y-96925355D01*
X121430198Y-96674645D01*
X121387763Y-96572200D01*
X121515259Y-96572200D01*
X121719319Y-96487676D01*
X121807880Y-96399116D01*
X121943021Y-96534257D01*
X122174645Y-96630200D01*
X122273800Y-96630200D01*
X122273800Y-103650000D01*
X122279600Y-103679160D01*
X122296118Y-103703882D01*
X122320840Y-103720400D01*
X122350000Y-103726200D01*
X140594800Y-103726200D01*
X140594800Y-114794800D01*
X130571436Y-114794800D01*
X130582257Y-114783979D01*
X130678200Y-114552355D01*
X130678200Y-114301645D01*
X130582257Y-114070021D01*
X130404979Y-113892743D01*
X130173355Y-113796800D01*
X129922645Y-113796800D01*
X129691021Y-113892743D01*
X129603500Y-113980264D01*
X129515979Y-113892743D01*
X129284355Y-113796800D01*
X129033645Y-113796800D01*
X128802021Y-113892743D01*
X128714500Y-113980264D01*
X128626979Y-113892743D01*
X128455700Y-113821796D01*
X128455700Y-113603145D01*
X128444584Y-113576309D01*
X128626979Y-113500757D01*
X128804257Y-113323479D01*
X128900200Y-113091855D01*
X128900200Y-112841145D01*
X128804257Y-112609521D01*
X128626979Y-112432243D01*
X128552985Y-112401593D01*
X128582700Y-112329855D01*
X128582700Y-112079145D01*
X128486757Y-111847521D01*
X128309479Y-111670243D01*
X128077855Y-111574300D01*
X127827145Y-111574300D01*
X127595521Y-111670243D01*
X127444500Y-111821264D01*
X127293479Y-111670243D01*
X127061855Y-111574300D01*
X126811145Y-111574300D01*
X126579521Y-111670243D01*
X126492000Y-111757764D01*
X126404479Y-111670243D01*
X126172855Y-111574300D01*
X125922145Y-111574300D01*
X125690521Y-111670243D01*
X125603000Y-111757764D01*
X125515479Y-111670243D01*
X125283855Y-111574300D01*
X125033145Y-111574300D01*
X124801521Y-111670243D01*
X124624243Y-111847521D01*
X124528300Y-112079145D01*
X124528300Y-112329855D01*
X124539416Y-112356691D01*
X124357021Y-112432243D01*
X124179743Y-112609521D01*
X124083800Y-112841145D01*
X124083800Y-113091855D01*
X124179743Y-113323479D01*
X124357021Y-113500757D01*
X124539416Y-113576309D01*
X124528300Y-113603145D01*
X124528300Y-113853855D01*
X124539416Y-113880691D01*
X124357021Y-113956243D01*
X124269500Y-114043764D01*
X124181979Y-113956243D01*
X123950355Y-113860300D01*
X123699645Y-113860300D01*
X123468021Y-113956243D01*
X123380500Y-114043764D01*
X123292979Y-113956243D01*
X123061355Y-113860300D01*
X122810645Y-113860300D01*
X122579021Y-113956243D01*
X122401743Y-114133521D01*
X122305800Y-114365145D01*
X122305800Y-114615855D01*
X122379922Y-114794800D01*
X118329077Y-114794800D01*
X119063307Y-114490672D01*
X119690672Y-113863307D01*
X120030200Y-113043614D01*
X120030200Y-112156386D01*
X119690672Y-111336693D01*
X119063307Y-110709328D01*
X118243614Y-110369800D01*
X117356386Y-110369800D01*
X116536693Y-110709328D01*
X115909328Y-111336693D01*
X115569800Y-112156386D01*
X115569800Y-113043614D01*
X115909328Y-113863307D01*
X116536693Y-114490672D01*
X117270923Y-114794800D01*
X98379077Y-114794800D01*
X99113307Y-114490672D01*
X99740672Y-113863307D01*
X99880950Y-113524645D01*
X101369800Y-113524645D01*
X101369800Y-113775355D01*
X101465743Y-114006979D01*
X101643021Y-114184257D01*
X101874645Y-114280200D01*
X102125355Y-114280200D01*
X102356979Y-114184257D01*
X102534257Y-114006979D01*
X102630200Y-113775355D01*
X102630200Y-113524645D01*
X102534257Y-113293021D01*
X102356979Y-113115743D01*
X102125355Y-113019800D01*
X101874645Y-113019800D01*
X101643021Y-113115743D01*
X101465743Y-113293021D01*
X101369800Y-113524645D01*
X99880950Y-113524645D01*
X100080200Y-113043614D01*
X100080200Y-112334211D01*
X100139564Y-112358800D01*
X100360436Y-112358800D01*
X100564496Y-112274276D01*
X100628772Y-112210000D01*
X114582726Y-112210000D01*
X114738249Y-112179065D01*
X114870094Y-112090968D01*
X119684608Y-107276454D01*
X119731684Y-107206000D01*
X119772705Y-107144609D01*
X119803640Y-106989086D01*
X119803640Y-106880596D01*
X119867916Y-106816320D01*
X119952440Y-106612260D01*
X119952440Y-106391388D01*
X119867916Y-106187328D01*
X119711736Y-106031148D01*
X119507676Y-105946624D01*
X119286804Y-105946624D01*
X119109611Y-106020019D01*
X119109440Y-106019848D01*
X118905380Y-105935324D01*
X118684508Y-105935324D01*
X118480448Y-106019848D01*
X118324268Y-106176028D01*
X118284647Y-106271681D01*
X118271996Y-106266441D01*
X118021286Y-106266441D01*
X117789662Y-106362384D01*
X117671641Y-106480405D01*
X117556979Y-106365743D01*
X117325355Y-106269800D01*
X117074645Y-106269800D01*
X116843021Y-106365743D01*
X116665743Y-106543021D01*
X116569800Y-106774645D01*
X116569800Y-107025355D01*
X116665743Y-107256979D01*
X116843021Y-107434257D01*
X117074645Y-107530200D01*
X117325355Y-107530200D01*
X117556979Y-107434257D01*
X117675000Y-107316236D01*
X117789662Y-107430898D01*
X117902773Y-107477751D01*
X114436924Y-110943600D01*
X99918666Y-110943600D01*
X99137698Y-110162632D01*
X99129238Y-110156979D01*
X99005853Y-110074535D01*
X98850330Y-110043600D01*
X98781221Y-110043600D01*
X98830200Y-109925355D01*
X98830200Y-109812946D01*
X98922397Y-109674964D01*
X98935876Y-109607200D01*
X99150000Y-109607200D01*
X99324963Y-109572398D01*
X99473289Y-109473289D01*
X100306288Y-108640291D01*
X100405397Y-108491964D01*
X100410482Y-108466400D01*
X100440199Y-108317001D01*
X100440199Y-101245221D01*
X100524645Y-101280200D01*
X100775355Y-101280200D01*
X101006979Y-101184257D01*
X101184257Y-101006979D01*
X101280200Y-100775355D01*
X101280200Y-100524645D01*
X101184257Y-100293021D01*
X101006979Y-100115743D01*
X100775355Y-100019800D01*
X100524645Y-100019800D01*
X100440199Y-100054779D01*
X100440199Y-99506379D01*
X102216353Y-97730225D01*
X102192800Y-97848634D01*
X102192800Y-108056338D01*
X102227602Y-108231301D01*
X102326711Y-108379627D01*
X103470373Y-109523289D01*
X103618699Y-109622398D01*
X103793662Y-109657200D01*
X105015964Y-109657200D01*
X105093021Y-109734257D01*
X105324645Y-109830200D01*
X105575355Y-109830200D01*
X105806979Y-109734257D01*
X105984257Y-109556979D01*
X106080200Y-109325355D01*
X106080200Y-109074645D01*
X105984257Y-108843021D01*
X105806979Y-108665743D01*
X105575355Y-108569800D01*
X105324645Y-108569800D01*
X105093021Y-108665743D01*
X105015964Y-108742800D01*
X103983040Y-108742800D01*
X103570543Y-108330303D01*
X103714496Y-108270676D01*
X103870676Y-108114496D01*
X103955200Y-107910436D01*
X103955200Y-107689564D01*
X103870676Y-107485504D01*
X103714496Y-107329324D01*
X103620982Y-107290589D01*
X103756979Y-107234257D01*
X103934257Y-107056979D01*
X104030200Y-106825355D01*
X104030200Y-106574645D01*
X103934257Y-106343021D01*
X103756979Y-106165743D01*
X103525355Y-106069800D01*
X103274645Y-106069800D01*
X103107200Y-106139159D01*
X103107200Y-98038012D01*
X104990971Y-96154241D01*
X104970300Y-96204145D01*
X104970300Y-96454855D01*
X105066243Y-96686479D01*
X105153764Y-96774000D01*
X105066243Y-96861521D01*
X104970300Y-97093145D01*
X104970300Y-97343855D01*
X105066243Y-97575479D01*
X105153764Y-97663000D01*
X105066243Y-97750521D01*
X104970300Y-97982145D01*
X104970300Y-98232855D01*
X105066243Y-98464479D01*
X105151025Y-98549261D01*
X105119800Y-98624645D01*
X105119800Y-98875355D01*
X105215743Y-99106979D01*
X105393021Y-99284257D01*
X105624645Y-99380200D01*
X105875355Y-99380200D01*
X106106979Y-99284257D01*
X106284257Y-99106979D01*
X106291813Y-99088739D01*
X106364145Y-99118700D01*
X106365064Y-99118700D01*
X106272743Y-99211021D01*
X106176800Y-99442645D01*
X106176800Y-99693355D01*
X106272743Y-99924979D01*
X106450021Y-100102257D01*
X106681645Y-100198200D01*
X106932355Y-100198200D01*
X107065867Y-100142897D01*
X106915743Y-100293021D01*
X106819800Y-100524645D01*
X106819800Y-100775355D01*
X106901661Y-100972983D01*
X106831021Y-101002243D01*
X106653743Y-101179521D01*
X106559592Y-101406818D01*
X106424355Y-101350800D01*
X106173645Y-101350800D01*
X106038408Y-101406818D01*
X105944257Y-101179521D01*
X105766979Y-101002243D01*
X105535355Y-100906300D01*
X105284645Y-100906300D01*
X105053021Y-101002243D01*
X104875743Y-101179521D01*
X104779800Y-101411145D01*
X104779800Y-101661855D01*
X104875743Y-101893479D01*
X104963264Y-101981000D01*
X104875743Y-102068521D01*
X104779800Y-102300145D01*
X104779800Y-102550855D01*
X104875743Y-102782479D01*
X104963264Y-102870000D01*
X104875743Y-102957521D01*
X104779800Y-103189145D01*
X104779800Y-103439855D01*
X104875743Y-103671479D01*
X104963264Y-103759000D01*
X104875743Y-103846521D01*
X104779800Y-104078145D01*
X104779800Y-104328855D01*
X104875743Y-104560479D01*
X105053021Y-104737757D01*
X105284645Y-104833700D01*
X105535355Y-104833700D01*
X105670592Y-104777682D01*
X105764743Y-105004979D01*
X105942021Y-105182257D01*
X106173645Y-105278200D01*
X106424355Y-105278200D01*
X106655979Y-105182257D01*
X106833257Y-105004979D01*
X106927408Y-104777682D01*
X107062645Y-104833700D01*
X107313355Y-104833700D01*
X107544979Y-104737757D01*
X107722257Y-104560479D01*
X107818200Y-104328855D01*
X107818200Y-104078145D01*
X107722257Y-103846521D01*
X107634736Y-103759000D01*
X107722257Y-103671479D01*
X107818200Y-103439855D01*
X107818200Y-103189145D01*
X107722257Y-102957521D01*
X107634736Y-102870000D01*
X107722257Y-102782479D01*
X107818200Y-102550855D01*
X107818200Y-102300145D01*
X107722257Y-102068521D01*
X107634736Y-101981000D01*
X107722257Y-101893479D01*
X107818200Y-101661855D01*
X107818200Y-101411145D01*
X107736339Y-101213517D01*
X107806979Y-101184257D01*
X107884036Y-101107200D01*
X109097162Y-101107200D01*
X109272125Y-101072398D01*
X109420451Y-100973289D01*
X110886810Y-99506930D01*
X110886810Y-103293773D01*
X110616838Y-103563745D01*
X110569007Y-103448271D01*
X110391729Y-103270993D01*
X110208872Y-103195250D01*
X110391729Y-103119507D01*
X110569007Y-102942229D01*
X110664950Y-102710605D01*
X110664950Y-102459895D01*
X110569007Y-102228271D01*
X110391729Y-102050993D01*
X110160105Y-101955050D01*
X109909395Y-101955050D01*
X109677771Y-102050993D01*
X109559750Y-102169014D01*
X109441729Y-102050993D01*
X109210105Y-101955050D01*
X108959395Y-101955050D01*
X108727771Y-102050993D01*
X108550493Y-102228271D01*
X108454550Y-102459895D01*
X108454550Y-102710605D01*
X108550493Y-102942229D01*
X108727771Y-103119507D01*
X108910628Y-103195250D01*
X108727771Y-103270993D01*
X108550493Y-103448271D01*
X108454550Y-103679895D01*
X108454550Y-103930605D01*
X108550493Y-104162229D01*
X108727771Y-104339507D01*
X108959395Y-104435450D01*
X109210105Y-104435450D01*
X109441729Y-104339507D01*
X109559750Y-104221486D01*
X109677771Y-104339507D01*
X109793245Y-104387338D01*
X106797784Y-107382800D01*
X106321561Y-107382800D01*
X106314655Y-107381426D01*
X106235172Y-107301943D01*
X106003548Y-107206000D01*
X105752838Y-107206000D01*
X105521214Y-107301943D01*
X105404165Y-107418993D01*
X105314496Y-107329324D01*
X105110436Y-107244800D01*
X104889564Y-107244800D01*
X104685504Y-107329324D01*
X104529324Y-107485504D01*
X104444800Y-107689564D01*
X104444800Y-107910436D01*
X104529324Y-108114496D01*
X104685504Y-108270676D01*
X104889564Y-108355200D01*
X105110436Y-108355200D01*
X105314496Y-108270676D01*
X105367965Y-108217208D01*
X105521214Y-108370457D01*
X105752838Y-108466400D01*
X106003548Y-108466400D01*
X106235172Y-108370457D01*
X106308429Y-108297200D01*
X106987162Y-108297200D01*
X107162125Y-108262398D01*
X107310451Y-108163289D01*
X111667300Y-103806441D01*
X111766408Y-103658115D01*
X111801210Y-103483152D01*
X111801210Y-97344002D01*
X113788012Y-95357200D01*
X115491567Y-95357200D01*
X115355746Y-95493021D01*
X115259803Y-95724645D01*
X115259803Y-95975355D01*
X115355746Y-96206979D01*
X115432803Y-96284036D01*
X115432803Y-98240003D01*
X115467605Y-98414966D01*
X115566714Y-98563292D01*
X117219800Y-100216378D01*
X117219800Y-100325355D01*
X117315743Y-100556979D01*
X117493021Y-100734257D01*
X117724645Y-100830200D01*
X117975355Y-100830200D01*
X118206979Y-100734257D01*
X118384257Y-100556979D01*
X118480200Y-100325355D01*
X118480200Y-100074645D01*
X118384257Y-99843021D01*
X118206979Y-99665743D01*
X117975355Y-99569800D01*
X117866378Y-99569800D01*
X116347203Y-98050625D01*
X116347203Y-97824645D01*
X117219800Y-97824645D01*
X117219800Y-98075355D01*
X117315743Y-98306979D01*
X117493021Y-98484257D01*
X117724645Y-98580200D01*
X117975355Y-98580200D01*
X118206979Y-98484257D01*
X118384257Y-98306979D01*
X118480200Y-98075355D01*
X118480200Y-97824645D01*
X118384257Y-97593021D01*
X118206979Y-97415743D01*
X117975355Y-97319800D01*
X117724645Y-97319800D01*
X117493021Y-97415743D01*
X117315743Y-97593021D01*
X117219800Y-97824645D01*
X116347203Y-97824645D01*
X116347203Y-96421074D01*
X117302024Y-96421074D01*
X117302024Y-96671784D01*
X117397967Y-96903408D01*
X117575245Y-97080686D01*
X117806869Y-97176629D01*
X118057579Y-97176629D01*
X118289203Y-97080686D01*
X118466481Y-96903408D01*
X118561238Y-96674645D01*
X118835788Y-96674645D01*
X118835788Y-96925355D01*
X118931731Y-97156979D01*
X119109009Y-97334257D01*
X119340633Y-97430200D01*
X119591343Y-97430200D01*
X119822967Y-97334257D01*
X120000245Y-97156979D01*
X120096188Y-96925355D01*
X120096188Y-96674645D01*
X120000245Y-96443021D01*
X119822967Y-96265743D01*
X119591343Y-96169800D01*
X119340633Y-96169800D01*
X119109009Y-96265743D01*
X118931731Y-96443021D01*
X118835788Y-96674645D01*
X118561238Y-96674645D01*
X118562424Y-96671784D01*
X118562424Y-96421074D01*
X118466481Y-96189450D01*
X118289203Y-96012172D01*
X118057579Y-95916229D01*
X117806869Y-95916229D01*
X117575245Y-96012172D01*
X117397967Y-96189450D01*
X117302024Y-96421074D01*
X116347203Y-96421074D01*
X116347203Y-96284036D01*
X116424260Y-96206979D01*
X116520203Y-95975355D01*
X116520203Y-95724645D01*
X116424260Y-95493021D01*
X116282062Y-95350823D01*
X116424963Y-95322398D01*
X116573289Y-95223289D01*
X116589378Y-95207200D01*
X121715964Y-95207200D01*
X121793021Y-95284257D01*
X121793021Y-95284257D01*
G37*
X121793021Y-95284257D02*
X122024645Y-95380200D01*
X122149537Y-95380200D01*
X121943021Y-95465743D01*
X121790880Y-95617885D01*
X121719319Y-95546324D01*
X121515259Y-95461800D01*
X121294387Y-95461800D01*
X121090327Y-95546324D01*
X120934147Y-95702504D01*
X120849623Y-95906564D01*
X120849623Y-96127436D01*
X120867171Y-96169800D01*
X120674643Y-96169800D01*
X120443019Y-96265743D01*
X120265741Y-96443021D01*
X120169798Y-96674645D01*
X120169798Y-96925355D01*
X120265741Y-97156979D01*
X120443019Y-97334257D01*
X120674643Y-97430200D01*
X120728564Y-97430200D01*
X120565743Y-97593021D01*
X120469800Y-97824645D01*
X120469800Y-98075355D01*
X120565743Y-98306979D01*
X120708764Y-98450000D01*
X120565743Y-98593021D01*
X120469800Y-98824645D01*
X120469800Y-99075355D01*
X120565743Y-99306979D01*
X120743021Y-99484257D01*
X120974645Y-99580200D01*
X121225355Y-99580200D01*
X121456979Y-99484257D01*
X121634257Y-99306979D01*
X121730200Y-99075355D01*
X121730200Y-98824645D01*
X121634257Y-98593021D01*
X121491236Y-98450000D01*
X121634257Y-98306979D01*
X121730200Y-98075355D01*
X121730200Y-97824645D01*
X121634257Y-97593021D01*
X121456979Y-97415743D01*
X121225355Y-97319800D01*
X121171434Y-97319800D01*
X121334255Y-97156979D01*
X121430198Y-96925355D01*
X121430198Y-96674645D01*
X121387763Y-96572200D01*
X121515259Y-96572200D01*
X121719319Y-96487676D01*
X121807880Y-96399116D01*
X121943021Y-96534257D01*
X122174645Y-96630200D01*
X122273800Y-96630200D01*
X122273800Y-103650000D01*
X122279600Y-103679160D01*
X122296118Y-103703882D01*
X122320840Y-103720400D01*
X122350000Y-103726200D01*
X140594800Y-103726200D01*
X140594800Y-114794800D01*
X130571436Y-114794800D01*
X130582257Y-114783979D01*
X130678200Y-114552355D01*
X130678200Y-114301645D01*
X130582257Y-114070021D01*
X130404979Y-113892743D01*
X130173355Y-113796800D01*
X129922645Y-113796800D01*
X129691021Y-113892743D01*
X129603500Y-113980264D01*
X129515979Y-113892743D01*
X129284355Y-113796800D01*
X129033645Y-113796800D01*
X128802021Y-113892743D01*
X128714500Y-113980264D01*
X128626979Y-113892743D01*
X128455700Y-113821796D01*
X128455700Y-113603145D01*
X128444584Y-113576309D01*
X128626979Y-113500757D01*
X128804257Y-113323479D01*
X128900200Y-113091855D01*
X128900200Y-112841145D01*
X128804257Y-112609521D01*
X128626979Y-112432243D01*
X128552985Y-112401593D01*
X128582700Y-112329855D01*
X128582700Y-112079145D01*
X128486757Y-111847521D01*
X128309479Y-111670243D01*
X128077855Y-111574300D01*
X127827145Y-111574300D01*
X127595521Y-111670243D01*
X127444500Y-111821264D01*
X127293479Y-111670243D01*
X127061855Y-111574300D01*
X126811145Y-111574300D01*
X126579521Y-111670243D01*
X126492000Y-111757764D01*
X126404479Y-111670243D01*
X126172855Y-111574300D01*
X125922145Y-111574300D01*
X125690521Y-111670243D01*
X125603000Y-111757764D01*
X125515479Y-111670243D01*
X125283855Y-111574300D01*
X125033145Y-111574300D01*
X124801521Y-111670243D01*
X124624243Y-111847521D01*
X124528300Y-112079145D01*
X124528300Y-112329855D01*
X124539416Y-112356691D01*
X124357021Y-112432243D01*
X124179743Y-112609521D01*
X124083800Y-112841145D01*
X124083800Y-113091855D01*
X124179743Y-113323479D01*
X124357021Y-113500757D01*
X124539416Y-113576309D01*
X124528300Y-113603145D01*
X124528300Y-113853855D01*
X124539416Y-113880691D01*
X124357021Y-113956243D01*
X124269500Y-114043764D01*
X124181979Y-113956243D01*
X123950355Y-113860300D01*
X123699645Y-113860300D01*
X123468021Y-113956243D01*
X123380500Y-114043764D01*
X123292979Y-113956243D01*
X123061355Y-113860300D01*
X122810645Y-113860300D01*
X122579021Y-113956243D01*
X122401743Y-114133521D01*
X122305800Y-114365145D01*
X122305800Y-114615855D01*
X122379922Y-114794800D01*
X118329077Y-114794800D01*
X119063307Y-114490672D01*
X119690672Y-113863307D01*
X120030200Y-113043614D01*
X120030200Y-112156386D01*
X119690672Y-111336693D01*
X119063307Y-110709328D01*
X118243614Y-110369800D01*
X117356386Y-110369800D01*
X116536693Y-110709328D01*
X115909328Y-111336693D01*
X115569800Y-112156386D01*
X115569800Y-113043614D01*
X115909328Y-113863307D01*
X116536693Y-114490672D01*
X117270923Y-114794800D01*
X98379077Y-114794800D01*
X99113307Y-114490672D01*
X99740672Y-113863307D01*
X99880950Y-113524645D01*
X101369800Y-113524645D01*
X101369800Y-113775355D01*
X101465743Y-114006979D01*
X101643021Y-114184257D01*
X101874645Y-114280200D01*
X102125355Y-114280200D01*
X102356979Y-114184257D01*
X102534257Y-114006979D01*
X102630200Y-113775355D01*
X102630200Y-113524645D01*
X102534257Y-113293021D01*
X102356979Y-113115743D01*
X102125355Y-113019800D01*
X101874645Y-113019800D01*
X101643021Y-113115743D01*
X101465743Y-113293021D01*
X101369800Y-113524645D01*
X99880950Y-113524645D01*
X100080200Y-113043614D01*
X100080200Y-112334211D01*
X100139564Y-112358800D01*
X100360436Y-112358800D01*
X100564496Y-112274276D01*
X100628772Y-112210000D01*
X114582726Y-112210000D01*
X114738249Y-112179065D01*
X114870094Y-112090968D01*
X119684608Y-107276454D01*
X119731684Y-107206000D01*
X119772705Y-107144609D01*
X119803640Y-106989086D01*
X119803640Y-106880596D01*
X119867916Y-106816320D01*
X119952440Y-106612260D01*
X119952440Y-106391388D01*
X119867916Y-106187328D01*
X119711736Y-106031148D01*
X119507676Y-105946624D01*
X119286804Y-105946624D01*
X119109611Y-106020019D01*
X119109440Y-106019848D01*
X118905380Y-105935324D01*
X118684508Y-105935324D01*
X118480448Y-106019848D01*
X118324268Y-106176028D01*
X118284647Y-106271681D01*
X118271996Y-106266441D01*
X118021286Y-106266441D01*
X117789662Y-106362384D01*
X117671641Y-106480405D01*
X117556979Y-106365743D01*
X117325355Y-106269800D01*
X117074645Y-106269800D01*
X116843021Y-106365743D01*
X116665743Y-106543021D01*
X116569800Y-106774645D01*
X116569800Y-107025355D01*
X116665743Y-107256979D01*
X116843021Y-107434257D01*
X117074645Y-107530200D01*
X117325355Y-107530200D01*
X117556979Y-107434257D01*
X117675000Y-107316236D01*
X117789662Y-107430898D01*
X117902773Y-107477751D01*
X114436924Y-110943600D01*
X99918666Y-110943600D01*
X99137698Y-110162632D01*
X99129238Y-110156979D01*
X99005853Y-110074535D01*
X98850330Y-110043600D01*
X98781221Y-110043600D01*
X98830200Y-109925355D01*
X98830200Y-109812946D01*
X98922397Y-109674964D01*
X98935876Y-109607200D01*
X99150000Y-109607200D01*
X99324963Y-109572398D01*
X99473289Y-109473289D01*
X100306288Y-108640291D01*
X100405397Y-108491964D01*
X100410482Y-108466400D01*
X100440199Y-108317001D01*
X100440199Y-101245221D01*
X100524645Y-101280200D01*
X100775355Y-101280200D01*
X101006979Y-101184257D01*
X101184257Y-101006979D01*
X101280200Y-100775355D01*
X101280200Y-100524645D01*
X101184257Y-100293021D01*
X101006979Y-100115743D01*
X100775355Y-100019800D01*
X100524645Y-100019800D01*
X100440199Y-100054779D01*
X100440199Y-99506379D01*
X102216353Y-97730225D01*
X102192800Y-97848634D01*
X102192800Y-108056338D01*
X102227602Y-108231301D01*
X102326711Y-108379627D01*
X103470373Y-109523289D01*
X103618699Y-109622398D01*
X103793662Y-109657200D01*
X105015964Y-109657200D01*
X105093021Y-109734257D01*
X105324645Y-109830200D01*
X105575355Y-109830200D01*
X105806979Y-109734257D01*
X105984257Y-109556979D01*
X106080200Y-109325355D01*
X106080200Y-109074645D01*
X105984257Y-108843021D01*
X105806979Y-108665743D01*
X105575355Y-108569800D01*
X105324645Y-108569800D01*
X105093021Y-108665743D01*
X105015964Y-108742800D01*
X103983040Y-108742800D01*
X103570543Y-108330303D01*
X103714496Y-108270676D01*
X103870676Y-108114496D01*
X103955200Y-107910436D01*
X103955200Y-107689564D01*
X103870676Y-107485504D01*
X103714496Y-107329324D01*
X103620982Y-107290589D01*
X103756979Y-107234257D01*
X103934257Y-107056979D01*
X104030200Y-106825355D01*
X104030200Y-106574645D01*
X103934257Y-106343021D01*
X103756979Y-106165743D01*
X103525355Y-106069800D01*
X103274645Y-106069800D01*
X103107200Y-106139159D01*
X103107200Y-98038012D01*
X104990971Y-96154241D01*
X104970300Y-96204145D01*
X104970300Y-96454855D01*
X105066243Y-96686479D01*
X105153764Y-96774000D01*
X105066243Y-96861521D01*
X104970300Y-97093145D01*
X104970300Y-97343855D01*
X105066243Y-97575479D01*
X105153764Y-97663000D01*
X105066243Y-97750521D01*
X104970300Y-97982145D01*
X104970300Y-98232855D01*
X105066243Y-98464479D01*
X105151025Y-98549261D01*
X105119800Y-98624645D01*
X105119800Y-98875355D01*
X105215743Y-99106979D01*
X105393021Y-99284257D01*
X105624645Y-99380200D01*
X105875355Y-99380200D01*
X106106979Y-99284257D01*
X106284257Y-99106979D01*
X106291813Y-99088739D01*
X106364145Y-99118700D01*
X106365064Y-99118700D01*
X106272743Y-99211021D01*
X106176800Y-99442645D01*
X106176800Y-99693355D01*
X106272743Y-99924979D01*
X106450021Y-100102257D01*
X106681645Y-100198200D01*
X106932355Y-100198200D01*
X107065867Y-100142897D01*
X106915743Y-100293021D01*
X106819800Y-100524645D01*
X106819800Y-100775355D01*
X106901661Y-100972983D01*
X106831021Y-101002243D01*
X106653743Y-101179521D01*
X106559592Y-101406818D01*
X106424355Y-101350800D01*
X106173645Y-101350800D01*
X106038408Y-101406818D01*
X105944257Y-101179521D01*
X105766979Y-101002243D01*
X105535355Y-100906300D01*
X105284645Y-100906300D01*
X105053021Y-101002243D01*
X104875743Y-101179521D01*
X104779800Y-101411145D01*
X104779800Y-101661855D01*
X104875743Y-101893479D01*
X104963264Y-101981000D01*
X104875743Y-102068521D01*
X104779800Y-102300145D01*
X104779800Y-102550855D01*
X104875743Y-102782479D01*
X104963264Y-102870000D01*
X104875743Y-102957521D01*
X104779800Y-103189145D01*
X104779800Y-103439855D01*
X104875743Y-103671479D01*
X104963264Y-103759000D01*
X104875743Y-103846521D01*
X104779800Y-104078145D01*
X104779800Y-104328855D01*
X104875743Y-104560479D01*
X105053021Y-104737757D01*
X105284645Y-104833700D01*
X105535355Y-104833700D01*
X105670592Y-104777682D01*
X105764743Y-105004979D01*
X105942021Y-105182257D01*
X106173645Y-105278200D01*
X106424355Y-105278200D01*
X106655979Y-105182257D01*
X106833257Y-105004979D01*
X106927408Y-104777682D01*
X107062645Y-104833700D01*
X107313355Y-104833700D01*
X107544979Y-104737757D01*
X107722257Y-104560479D01*
X107818200Y-104328855D01*
X107818200Y-104078145D01*
X107722257Y-103846521D01*
X107634736Y-103759000D01*
X107722257Y-103671479D01*
X107818200Y-103439855D01*
X107818200Y-103189145D01*
X107722257Y-102957521D01*
X107634736Y-102870000D01*
X107722257Y-102782479D01*
X107818200Y-102550855D01*
X107818200Y-102300145D01*
X107722257Y-102068521D01*
X107634736Y-101981000D01*
X107722257Y-101893479D01*
X107818200Y-101661855D01*
X107818200Y-101411145D01*
X107736339Y-101213517D01*
X107806979Y-101184257D01*
X107884036Y-101107200D01*
X109097162Y-101107200D01*
X109272125Y-101072398D01*
X109420451Y-100973289D01*
X110886810Y-99506930D01*
X110886810Y-103293773D01*
X110616838Y-103563745D01*
X110569007Y-103448271D01*
X110391729Y-103270993D01*
X110208872Y-103195250D01*
X110391729Y-103119507D01*
X110569007Y-102942229D01*
X110664950Y-102710605D01*
X110664950Y-102459895D01*
X110569007Y-102228271D01*
X110391729Y-102050993D01*
X110160105Y-101955050D01*
X109909395Y-101955050D01*
X109677771Y-102050993D01*
X109559750Y-102169014D01*
X109441729Y-102050993D01*
X109210105Y-101955050D01*
X108959395Y-101955050D01*
X108727771Y-102050993D01*
X108550493Y-102228271D01*
X108454550Y-102459895D01*
X108454550Y-102710605D01*
X108550493Y-102942229D01*
X108727771Y-103119507D01*
X108910628Y-103195250D01*
X108727771Y-103270993D01*
X108550493Y-103448271D01*
X108454550Y-103679895D01*
X108454550Y-103930605D01*
X108550493Y-104162229D01*
X108727771Y-104339507D01*
X108959395Y-104435450D01*
X109210105Y-104435450D01*
X109441729Y-104339507D01*
X109559750Y-104221486D01*
X109677771Y-104339507D01*
X109793245Y-104387338D01*
X106797784Y-107382800D01*
X106321561Y-107382800D01*
X106314655Y-107381426D01*
X106235172Y-107301943D01*
X106003548Y-107206000D01*
X105752838Y-107206000D01*
X105521214Y-107301943D01*
X105404165Y-107418993D01*
X105314496Y-107329324D01*
X105110436Y-107244800D01*
X104889564Y-107244800D01*
X104685504Y-107329324D01*
X104529324Y-107485504D01*
X104444800Y-107689564D01*
X104444800Y-107910436D01*
X104529324Y-108114496D01*
X104685504Y-108270676D01*
X104889564Y-108355200D01*
X105110436Y-108355200D01*
X105314496Y-108270676D01*
X105367965Y-108217208D01*
X105521214Y-108370457D01*
X105752838Y-108466400D01*
X106003548Y-108466400D01*
X106235172Y-108370457D01*
X106308429Y-108297200D01*
X106987162Y-108297200D01*
X107162125Y-108262398D01*
X107310451Y-108163289D01*
X111667300Y-103806441D01*
X111766408Y-103658115D01*
X111801210Y-103483152D01*
X111801210Y-97344002D01*
X113788012Y-95357200D01*
X115491567Y-95357200D01*
X115355746Y-95493021D01*
X115259803Y-95724645D01*
X115259803Y-95975355D01*
X115355746Y-96206979D01*
X115432803Y-96284036D01*
X115432803Y-98240003D01*
X115467605Y-98414966D01*
X115566714Y-98563292D01*
X117219800Y-100216378D01*
X117219800Y-100325355D01*
X117315743Y-100556979D01*
X117493021Y-100734257D01*
X117724645Y-100830200D01*
X117975355Y-100830200D01*
X118206979Y-100734257D01*
X118384257Y-100556979D01*
X118480200Y-100325355D01*
X118480200Y-100074645D01*
X118384257Y-99843021D01*
X118206979Y-99665743D01*
X117975355Y-99569800D01*
X117866378Y-99569800D01*
X116347203Y-98050625D01*
X116347203Y-97824645D01*
X117219800Y-97824645D01*
X117219800Y-98075355D01*
X117315743Y-98306979D01*
X117493021Y-98484257D01*
X117724645Y-98580200D01*
X117975355Y-98580200D01*
X118206979Y-98484257D01*
X118384257Y-98306979D01*
X118480200Y-98075355D01*
X118480200Y-97824645D01*
X118384257Y-97593021D01*
X118206979Y-97415743D01*
X117975355Y-97319800D01*
X117724645Y-97319800D01*
X117493021Y-97415743D01*
X117315743Y-97593021D01*
X117219800Y-97824645D01*
X116347203Y-97824645D01*
X116347203Y-96421074D01*
X117302024Y-96421074D01*
X117302024Y-96671784D01*
X117397967Y-96903408D01*
X117575245Y-97080686D01*
X117806869Y-97176629D01*
X118057579Y-97176629D01*
X118289203Y-97080686D01*
X118466481Y-96903408D01*
X118561238Y-96674645D01*
X118835788Y-96674645D01*
X118835788Y-96925355D01*
X118931731Y-97156979D01*
X119109009Y-97334257D01*
X119340633Y-97430200D01*
X119591343Y-97430200D01*
X119822967Y-97334257D01*
X120000245Y-97156979D01*
X120096188Y-96925355D01*
X120096188Y-96674645D01*
X120000245Y-96443021D01*
X119822967Y-96265743D01*
X119591343Y-96169800D01*
X119340633Y-96169800D01*
X119109009Y-96265743D01*
X118931731Y-96443021D01*
X118835788Y-96674645D01*
X118561238Y-96674645D01*
X118562424Y-96671784D01*
X118562424Y-96421074D01*
X118466481Y-96189450D01*
X118289203Y-96012172D01*
X118057579Y-95916229D01*
X117806869Y-95916229D01*
X117575245Y-96012172D01*
X117397967Y-96189450D01*
X117302024Y-96421074D01*
X116347203Y-96421074D01*
X116347203Y-96284036D01*
X116424260Y-96206979D01*
X116520203Y-95975355D01*
X116520203Y-95724645D01*
X116424260Y-95493021D01*
X116282062Y-95350823D01*
X116424963Y-95322398D01*
X116573289Y-95223289D01*
X116589378Y-95207200D01*
X121715964Y-95207200D01*
X121793021Y-95284257D01*
G36*
X95894800Y-80989564D02*
X95894800Y-81210436D01*
X95979324Y-81414496D01*
X96135504Y-81570676D01*
X96339564Y-81655200D01*
X96560436Y-81655200D01*
X96764496Y-81570676D01*
X96777972Y-81557200D01*
X103860622Y-81557200D01*
X105773800Y-83470378D01*
X105773800Y-83483064D01*
X105639979Y-83349243D01*
X105408355Y-83253300D01*
X105157645Y-83253300D01*
X105022408Y-83309318D01*
X104928257Y-83082021D01*
X104750979Y-82904743D01*
X104519355Y-82808800D01*
X104268645Y-82808800D01*
X104037021Y-82904743D01*
X103859743Y-83082021D01*
X103763800Y-83313645D01*
X103763800Y-83564355D01*
X103859743Y-83795979D01*
X103947264Y-83883500D01*
X103859743Y-83971021D01*
X103763800Y-84202645D01*
X103763800Y-84453355D01*
X103859743Y-84684979D01*
X103947264Y-84772500D01*
X103859743Y-84860021D01*
X103763800Y-85091645D01*
X103763800Y-85342355D01*
X103859743Y-85573979D01*
X103947264Y-85661500D01*
X103859743Y-85749021D01*
X103763800Y-85980645D01*
X103763800Y-86231355D01*
X103859743Y-86462979D01*
X104037021Y-86640257D01*
X104268645Y-86736200D01*
X104519355Y-86736200D01*
X104750979Y-86640257D01*
X104928257Y-86462979D01*
X105022408Y-86235682D01*
X105157645Y-86291700D01*
X105408355Y-86291700D01*
X105639979Y-86195757D01*
X105773800Y-86061936D01*
X105773800Y-87482600D01*
X105474386Y-87482600D01*
X104654693Y-87822128D01*
X104082765Y-88394056D01*
X104039257Y-88289021D01*
X103951736Y-88201500D01*
X104039257Y-88113979D01*
X104135200Y-87882355D01*
X104135200Y-87631645D01*
X104039257Y-87400021D01*
X103861979Y-87222743D01*
X103630355Y-87126800D01*
X103379645Y-87126800D01*
X103148021Y-87222743D01*
X102970743Y-87400021D01*
X102876592Y-87627318D01*
X102741355Y-87571300D01*
X102490645Y-87571300D01*
X102463809Y-87582416D01*
X102388257Y-87400021D01*
X102210979Y-87222743D01*
X101979355Y-87126800D01*
X101728645Y-87126800D01*
X101497021Y-87222743D01*
X101319743Y-87400021D01*
X101223800Y-87631645D01*
X101223800Y-87882355D01*
X101319743Y-88113979D01*
X101407264Y-88201500D01*
X101319743Y-88289021D01*
X101223800Y-88520645D01*
X101223800Y-88771355D01*
X101319743Y-89002979D01*
X101407264Y-89090500D01*
X101319743Y-89178021D01*
X101223800Y-89409645D01*
X101223800Y-89660355D01*
X101319743Y-89891979D01*
X101407264Y-89979500D01*
X101319743Y-90067021D01*
X101223800Y-90298645D01*
X101223800Y-90549355D01*
X101319743Y-90780979D01*
X101497021Y-90958257D01*
X101728645Y-91054200D01*
X101979355Y-91054200D01*
X102006191Y-91043084D01*
X102081743Y-91225479D01*
X102259021Y-91402757D01*
X102490645Y-91498700D01*
X102741355Y-91498700D01*
X102876592Y-91442682D01*
X102970743Y-91669979D01*
X103058264Y-91757500D01*
X102970743Y-91845021D01*
X102874800Y-92076645D01*
X102874800Y-92327355D01*
X102970743Y-92558979D01*
X103058264Y-92646500D01*
X102970743Y-92734021D01*
X102874800Y-92965645D01*
X102874800Y-93216355D01*
X102970743Y-93447979D01*
X103058264Y-93535500D01*
X102970743Y-93623021D01*
X102874800Y-93854645D01*
X102874800Y-94105355D01*
X102970743Y-94336979D01*
X103058264Y-94424500D01*
X102970743Y-94512021D01*
X102874800Y-94743645D01*
X102874800Y-94994355D01*
X102970743Y-95225979D01*
X103148021Y-95403257D01*
X103220247Y-95433175D01*
X99659710Y-98993712D01*
X99560601Y-99142038D01*
X99525799Y-99317001D01*
X99525799Y-105133107D01*
X99439355Y-105097300D01*
X99188645Y-105097300D01*
X98957021Y-105193243D01*
X98869500Y-105280764D01*
X98781979Y-105193243D01*
X98550355Y-105097300D01*
X98299645Y-105097300D01*
X98068021Y-105193243D01*
X97980500Y-105280764D01*
X97892979Y-105193243D01*
X97661355Y-105097300D01*
X97410645Y-105097300D01*
X97179021Y-105193243D01*
X97091500Y-105280764D01*
X97003979Y-105193243D01*
X96772355Y-105097300D01*
X96521645Y-105097300D01*
X96290021Y-105193243D01*
X96230193Y-105253071D01*
X96304789Y-105072980D01*
X96304789Y-104852108D01*
X96220265Y-104648048D01*
X96064085Y-104491868D01*
X95860025Y-104407344D01*
X95639153Y-104407344D01*
X95435093Y-104491868D01*
X95405200Y-104521761D01*
X95405200Y-80805200D01*
X95971166Y-80805200D01*
X95894800Y-80989564D01*
X95894800Y-80989564D01*
G37*
X95894800Y-80989564D02*
X95894800Y-81210436D01*
X95979324Y-81414496D01*
X96135504Y-81570676D01*
X96339564Y-81655200D01*
X96560436Y-81655200D01*
X96764496Y-81570676D01*
X96777972Y-81557200D01*
X103860622Y-81557200D01*
X105773800Y-83470378D01*
X105773800Y-83483064D01*
X105639979Y-83349243D01*
X105408355Y-83253300D01*
X105157645Y-83253300D01*
X105022408Y-83309318D01*
X104928257Y-83082021D01*
X104750979Y-82904743D01*
X104519355Y-82808800D01*
X104268645Y-82808800D01*
X104037021Y-82904743D01*
X103859743Y-83082021D01*
X103763800Y-83313645D01*
X103763800Y-83564355D01*
X103859743Y-83795979D01*
X103947264Y-83883500D01*
X103859743Y-83971021D01*
X103763800Y-84202645D01*
X103763800Y-84453355D01*
X103859743Y-84684979D01*
X103947264Y-84772500D01*
X103859743Y-84860021D01*
X103763800Y-85091645D01*
X103763800Y-85342355D01*
X103859743Y-85573979D01*
X103947264Y-85661500D01*
X103859743Y-85749021D01*
X103763800Y-85980645D01*
X103763800Y-86231355D01*
X103859743Y-86462979D01*
X104037021Y-86640257D01*
X104268645Y-86736200D01*
X104519355Y-86736200D01*
X104750979Y-86640257D01*
X104928257Y-86462979D01*
X105022408Y-86235682D01*
X105157645Y-86291700D01*
X105408355Y-86291700D01*
X105639979Y-86195757D01*
X105773800Y-86061936D01*
X105773800Y-87482600D01*
X105474386Y-87482600D01*
X104654693Y-87822128D01*
X104082765Y-88394056D01*
X104039257Y-88289021D01*
X103951736Y-88201500D01*
X104039257Y-88113979D01*
X104135200Y-87882355D01*
X104135200Y-87631645D01*
X104039257Y-87400021D01*
X103861979Y-87222743D01*
X103630355Y-87126800D01*
X103379645Y-87126800D01*
X103148021Y-87222743D01*
X102970743Y-87400021D01*
X102876592Y-87627318D01*
X102741355Y-87571300D01*
X102490645Y-87571300D01*
X102463809Y-87582416D01*
X102388257Y-87400021D01*
X102210979Y-87222743D01*
X101979355Y-87126800D01*
X101728645Y-87126800D01*
X101497021Y-87222743D01*
X101319743Y-87400021D01*
X101223800Y-87631645D01*
X101223800Y-87882355D01*
X101319743Y-88113979D01*
X101407264Y-88201500D01*
X101319743Y-88289021D01*
X101223800Y-88520645D01*
X101223800Y-88771355D01*
X101319743Y-89002979D01*
X101407264Y-89090500D01*
X101319743Y-89178021D01*
X101223800Y-89409645D01*
X101223800Y-89660355D01*
X101319743Y-89891979D01*
X101407264Y-89979500D01*
X101319743Y-90067021D01*
X101223800Y-90298645D01*
X101223800Y-90549355D01*
X101319743Y-90780979D01*
X101497021Y-90958257D01*
X101728645Y-91054200D01*
X101979355Y-91054200D01*
X102006191Y-91043084D01*
X102081743Y-91225479D01*
X102259021Y-91402757D01*
X102490645Y-91498700D01*
X102741355Y-91498700D01*
X102876592Y-91442682D01*
X102970743Y-91669979D01*
X103058264Y-91757500D01*
X102970743Y-91845021D01*
X102874800Y-92076645D01*
X102874800Y-92327355D01*
X102970743Y-92558979D01*
X103058264Y-92646500D01*
X102970743Y-92734021D01*
X102874800Y-92965645D01*
X102874800Y-93216355D01*
X102970743Y-93447979D01*
X103058264Y-93535500D01*
X102970743Y-93623021D01*
X102874800Y-93854645D01*
X102874800Y-94105355D01*
X102970743Y-94336979D01*
X103058264Y-94424500D01*
X102970743Y-94512021D01*
X102874800Y-94743645D01*
X102874800Y-94994355D01*
X102970743Y-95225979D01*
X103148021Y-95403257D01*
X103220247Y-95433175D01*
X99659710Y-98993712D01*
X99560601Y-99142038D01*
X99525799Y-99317001D01*
X99525799Y-105133107D01*
X99439355Y-105097300D01*
X99188645Y-105097300D01*
X98957021Y-105193243D01*
X98869500Y-105280764D01*
X98781979Y-105193243D01*
X98550355Y-105097300D01*
X98299645Y-105097300D01*
X98068021Y-105193243D01*
X97980500Y-105280764D01*
X97892979Y-105193243D01*
X97661355Y-105097300D01*
X97410645Y-105097300D01*
X97179021Y-105193243D01*
X97091500Y-105280764D01*
X97003979Y-105193243D01*
X96772355Y-105097300D01*
X96521645Y-105097300D01*
X96290021Y-105193243D01*
X96230193Y-105253071D01*
X96304789Y-105072980D01*
X96304789Y-104852108D01*
X96220265Y-104648048D01*
X96064085Y-104491868D01*
X95860025Y-104407344D01*
X95639153Y-104407344D01*
X95435093Y-104491868D01*
X95405200Y-104521761D01*
X95405200Y-80805200D01*
X95971166Y-80805200D01*
X95894800Y-80989564D01*
D16*
G36*
X123639548Y-96287502D02*
X123662648Y-96343271D01*
X123833119Y-96513742D01*
X124055849Y-96606000D01*
X124296931Y-96606000D01*
X124519661Y-96513742D01*
X124690132Y-96343271D01*
X124712301Y-96289751D01*
X128043000Y-96296734D01*
X128043000Y-101143000D01*
X124249192Y-101143000D01*
X124070541Y-101069000D01*
X123981000Y-101069000D01*
X123981000Y-101004461D01*
X123888742Y-100781731D01*
X123718271Y-100611260D01*
X123518452Y-100528492D01*
X123523094Y-98156008D01*
X123645541Y-98156008D01*
X123868271Y-98063750D01*
X124038742Y-97893279D01*
X124131000Y-97670549D01*
X124131000Y-97429467D01*
X124038742Y-97206737D01*
X123868271Y-97036266D01*
X123645541Y-96944008D01*
X123525466Y-96944008D01*
X123526751Y-96287266D01*
X123639548Y-96287502D01*
X123639548Y-96287502D01*
G37*
X123639548Y-96287502D02*
X123662648Y-96343271D01*
X123833119Y-96513742D01*
X124055849Y-96606000D01*
X124296931Y-96606000D01*
X124519661Y-96513742D01*
X124690132Y-96343271D01*
X124712301Y-96289751D01*
X128043000Y-96296734D01*
X128043000Y-101143000D01*
X124249192Y-101143000D01*
X124070541Y-101069000D01*
X123981000Y-101069000D01*
X123981000Y-101004461D01*
X123888742Y-100781731D01*
X123718271Y-100611260D01*
X123518452Y-100528492D01*
X123523094Y-98156008D01*
X123645541Y-98156008D01*
X123868271Y-98063750D01*
X124038742Y-97893279D01*
X124131000Y-97670549D01*
X124131000Y-97429467D01*
X124038742Y-97206737D01*
X123868271Y-97036266D01*
X123645541Y-96944008D01*
X123525466Y-96944008D01*
X123526751Y-96287266D01*
X123639548Y-96287502D01*
M02*
