G04 #@! TF.GenerationSoftware,KiCad,Pcbnew,5.0.2-bee76a0~70~ubuntu18.04.1*
G04 #@! TF.CreationDate,2018-12-08T03:17:05+01:00*
G04 #@! TF.ProjectId,Roboy_motorboard,526f626f-795f-46d6-9f74-6f72626f6172,rev?*
G04 #@! TF.SameCoordinates,Original*
G04 #@! TF.FileFunction,Copper,L2,Inr*
G04 #@! TF.FilePolarity,Positive*
%FSLAX46Y46*%
G04 Gerber Fmt 4.6, Leading zero omitted, Abs format (unit mm)*
G04 Created by KiCad (PCBNEW 5.0.2-bee76a0~70~ubuntu18.04.1) date Sat 08 Dec 2018 03:17:05 CET*
%MOMM*%
%LPD*%
G01*
G04 APERTURE LIST*
G04 #@! TA.AperFunction,ViaPad*
%ADD10C,3.800000*%
G04 #@! TD*
G04 #@! TA.AperFunction,ViaPad*
%ADD11C,1.800000*%
G04 #@! TD*
G04 #@! TA.AperFunction,ViaPad*
%ADD12R,1.800000X1.800000*%
G04 #@! TD*
G04 #@! TA.AperFunction,ViaPad*
%ADD13C,0.600000*%
G04 #@! TD*
G04 #@! TA.AperFunction,ViaPad*
%ADD14C,0.450000*%
G04 #@! TD*
G04 #@! TA.AperFunction,Conductor*
%ADD15C,0.254000*%
G04 #@! TD*
G04 #@! TA.AperFunction,Conductor*
%ADD16C,0.152400*%
G04 #@! TD*
G04 APERTURE END LIST*
D10*
G04 #@! TO.N,GND*
G04 #@! TO.C,MK3*
X105918000Y-89712800D03*
G04 #@! TD*
G04 #@! TO.N,GND*
G04 #@! TO.C,MK1*
X97850000Y-112600000D03*
G04 #@! TD*
G04 #@! TO.N,GND*
G04 #@! TO.C,MK2*
X117800000Y-112600000D03*
G04 #@! TD*
G04 #@! TO.N,GND*
G04 #@! TO.C,MK4*
X132000000Y-100550000D03*
G04 #@! TD*
D11*
G04 #@! TO.N,/Comms/A+*
G04 #@! TO.C,J2*
X136510000Y-96640000D03*
G04 #@! TO.N,/Comms/A-*
X139050000Y-97910000D03*
G04 #@! TO.N,GNDD*
X136510000Y-99180000D03*
D12*
G04 #@! TO.N,/Vdd_Ext*
X139050000Y-100450000D03*
D11*
G04 #@! TO.N,/Comms/B-*
X139050000Y-95370000D03*
G04 #@! TO.N,/Comms/B+*
X136510000Y-94100000D03*
G04 #@! TD*
G04 #@! TO.N,GNDD*
G04 #@! TO.C,J3*
X136510000Y-82950000D03*
G04 #@! TO.N,/P2.2*
X139050000Y-84220000D03*
D12*
G04 #@! TO.N,/Vdd_Ext*
X139050000Y-89300000D03*
D11*
G04 #@! TO.N,GNDD*
X136510000Y-88030000D03*
G04 #@! TO.N,/P1.3*
X139050000Y-86760000D03*
G04 #@! TO.N,/P0.4*
X136510000Y-85490000D03*
G04 #@! TD*
G04 #@! TO.N,/P1.2*
G04 #@! TO.C,J6*
X112690000Y-84890000D03*
G04 #@! TO.N,/P1.4*
X113960000Y-82350000D03*
G04 #@! TO.N,GNDD*
X115230000Y-84890000D03*
D12*
G04 #@! TO.N,/Vdd_Ext*
X116500000Y-82350000D03*
D11*
G04 #@! TO.N,/P1.1*
X111420000Y-82350000D03*
G04 #@! TO.N,/P1.0*
X110150000Y-84890000D03*
G04 #@! TD*
G04 #@! TO.N,/P0.3*
G04 #@! TO.C,J7*
X121350000Y-84890000D03*
G04 #@! TO.N,/Comms/MOSI1/SDA/DispB-RST*
X122620000Y-82350000D03*
D12*
G04 #@! TO.N,/Vdd_Ext*
X127700000Y-82350000D03*
D11*
G04 #@! TO.N,GNDD*
X126430000Y-84890000D03*
G04 #@! TO.N,/Comms/SS1/DispAo/SWCLK*
X125160000Y-82350000D03*
G04 #@! TO.N,/Comms/MISO1/DispA-TMS*
X123890000Y-84890000D03*
G04 #@! TD*
D13*
G04 #@! TO.N,/Driver Bridge Single Mosfet/SH1*
X105750000Y-98750000D03*
X121100000Y-97950000D03*
X105600500Y-96329500D03*
X105600500Y-97218500D03*
X105600500Y-98107500D03*
X106489500Y-98488500D03*
X106489500Y-97663000D03*
X106489500Y-96774000D03*
X107378500Y-96329500D03*
X107378500Y-97218500D03*
X107378500Y-98107500D03*
X107378500Y-98869500D03*
X106807000Y-99568000D03*
X110034750Y-98725250D03*
X109084750Y-98725250D03*
X110034750Y-97505250D03*
X109084750Y-97505250D03*
D14*
G04 #@! TO.N,GND*
X121000000Y-93300000D03*
X116350000Y-91200000D03*
X120750000Y-91200000D03*
X116350000Y-89100000D03*
X119750000Y-89100000D03*
X120750000Y-89100000D03*
D13*
X104394000Y-86106000D03*
X120247000Y-93017010D03*
X119167500Y-93017010D03*
X118024500Y-93017010D03*
X116881500Y-93017010D03*
X121100000Y-98950000D03*
X111000000Y-90075000D03*
X111000000Y-88575000D03*
X111000000Y-89325000D03*
X119739000Y-91211000D03*
X118596000Y-91211000D03*
X117453000Y-91211000D03*
X119167500Y-89687000D03*
X120247000Y-89687000D03*
X118024500Y-89687000D03*
X116881500Y-89687000D03*
X104394000Y-83439000D03*
X104394000Y-84328000D03*
X104394000Y-85217000D03*
X105283000Y-85661500D03*
X105283000Y-84772500D03*
X105283000Y-83883500D03*
X104394000Y-91757500D03*
X104394000Y-92646500D03*
X104394000Y-93535500D03*
X104394000Y-94424500D03*
X101854000Y-87757000D03*
X101854000Y-88646000D03*
X101854000Y-89535000D03*
X101854000Y-90424000D03*
X103505000Y-94869000D03*
X103505000Y-93980000D03*
X103505000Y-93091000D03*
X103505000Y-92202000D03*
X103505000Y-91313000D03*
X102616000Y-90868500D03*
X102616000Y-89979500D03*
X102616000Y-89090500D03*
X102616000Y-88201500D03*
X103505000Y-87757000D03*
X103505000Y-88646000D03*
X103505000Y-89535000D03*
X103505000Y-90424000D03*
G04 #@! TO.N,/Driver Bridge Single Mosfet/SH2*
X117850000Y-97950000D03*
X110034750Y-103805250D03*
X109084750Y-103805250D03*
X110034750Y-102585250D03*
X109084750Y-102585250D03*
X105410000Y-101536500D03*
X105410000Y-102425500D03*
X105410000Y-103314500D03*
X105410000Y-104203500D03*
X106299000Y-103759000D03*
X106299000Y-104648000D03*
X106299000Y-102870000D03*
X106299000Y-101981000D03*
X107188000Y-104203500D03*
X107188000Y-103314500D03*
X107188000Y-102425500D03*
X107188000Y-101536500D03*
G04 #@! TO.N,/Driver Bridge Single Mosfet/SH3*
X105450000Y-109200000D03*
X110800000Y-95900001D03*
X130048000Y-114427000D03*
X129159000Y-114427000D03*
X128270000Y-114427000D03*
X127381000Y-114427000D03*
X126492000Y-114490500D03*
X125603000Y-114490500D03*
X127825500Y-113728500D03*
X126936500Y-113728500D03*
X126047500Y-113728500D03*
X125158500Y-113728500D03*
X127381000Y-112966500D03*
X126936500Y-112204500D03*
X126492000Y-112966500D03*
X126047500Y-112204500D03*
X125603000Y-112966500D03*
X125158500Y-112204500D03*
X128270000Y-112966500D03*
X127952500Y-112204500D03*
X122936000Y-114490500D03*
X123825000Y-114490500D03*
X124714000Y-114490500D03*
X124714000Y-112966500D03*
D14*
G04 #@! TO.N,Net-(C6-Pad1)*
X114290508Y-93715890D03*
D13*
G04 #@! TO.N,VCP*
X117850000Y-100200000D03*
X118146641Y-106896641D03*
X115890003Y-95850000D03*
G04 #@! TO.N,VDH*
X121100000Y-100275000D03*
D14*
X95700000Y-81100000D03*
D13*
X115050000Y-95850000D03*
X102087050Y-109430550D03*
X102552500Y-110045500D03*
X102087050Y-110650550D03*
X103037050Y-110650550D03*
X103037050Y-109430550D03*
X108200000Y-83500000D03*
D14*
G04 #@! TO.N,Net-(C8-Pad2)*
X107650000Y-87550006D03*
X114350000Y-89800000D03*
G04 #@! TO.N,Net-(C11-Pad1)*
X117053610Y-86900000D03*
G04 #@! TO.N,/RST*
X122850000Y-89100000D03*
X125750000Y-94500000D03*
G04 #@! TO.N,/SL*
X117600000Y-98950000D03*
X121404823Y-96017000D03*
G04 #@! TO.N,/OP2*
X115100000Y-87100000D03*
X108850000Y-91100000D03*
G04 #@! TO.N,/OP1*
X106900000Y-92050000D03*
X115100000Y-87750000D03*
D13*
G04 #@! TO.N,VS*
X123550000Y-95550000D03*
X98200000Y-109800000D03*
X110900000Y-91350000D03*
X110250000Y-91350000D03*
X98200000Y-109150000D03*
G04 #@! TO.N,Net-(D2-Pad1)*
X99314000Y-107505500D03*
X98425000Y-107505500D03*
X97536000Y-107505500D03*
X96647000Y-107505500D03*
X95758000Y-105727500D03*
X95758000Y-106616500D03*
X96647000Y-106616500D03*
X97536000Y-106616500D03*
X98425000Y-106616500D03*
X96647000Y-105727500D03*
X97536000Y-105727500D03*
X98425000Y-105727500D03*
X99314000Y-105727500D03*
X99314000Y-106616500D03*
X95758000Y-107505500D03*
D14*
G04 #@! TO.N,Net-(D2-Pad2)*
X95650000Y-110450000D03*
X118794944Y-106490524D03*
G04 #@! TO.N,/P0.4*
X122900000Y-91077212D03*
X130400000Y-86350000D03*
X126200000Y-86649999D03*
G04 #@! TO.N,/P1.4*
X120100000Y-86900000D03*
G04 #@! TO.N,/P2.3*
X116100000Y-86900000D03*
X103400000Y-107800000D03*
G04 #@! TO.N,/P0.1*
X127900000Y-89846390D03*
X122850000Y-88400000D03*
G04 #@! TO.N,/P0.2*
X133210000Y-94780000D03*
X127500000Y-86650000D03*
X121900000Y-87350000D03*
G04 #@! TO.N,/P0.3*
X133160000Y-96300000D03*
X122600000Y-87350000D03*
X125570000Y-86650000D03*
G04 #@! TO.N,/P2.5*
X118328293Y-86469782D03*
X128050000Y-90950000D03*
G04 #@! TO.N,/P1.0*
X123383133Y-92667973D03*
G04 #@! TO.N,/P1.2*
X123349994Y-92000000D03*
G04 #@! TO.N,/P1.1*
X122844749Y-92397708D03*
G04 #@! TO.N,/P1.3*
X120799998Y-86900000D03*
G04 #@! TO.N,/LIN*
X119400000Y-82350000D03*
X106400000Y-85250000D03*
X114400000Y-91147597D03*
G04 #@! TO.N,/P0.0*
X122900000Y-90170000D03*
G04 #@! TO.N,/TMS*
X123700000Y-90450000D03*
G04 #@! TO.N,Net-(R3-Pad1)*
X114400000Y-91750000D03*
G04 #@! TO.N,/P2.2*
X118754256Y-86895744D03*
D13*
G04 #@! TO.N,/GH1*
X100650000Y-100650000D03*
X120799998Y-96800000D03*
G04 #@! TO.N,/GL1*
X122999996Y-94150000D03*
X107450000Y-100650000D03*
G04 #@! TO.N,/GH2*
X103400000Y-106700000D03*
X119465988Y-96800000D03*
G04 #@! TO.N,/GL2*
X105878193Y-107836200D03*
X122185727Y-94714273D03*
G04 #@! TO.N,/GH3*
X117932224Y-96546429D03*
X102000000Y-113650000D03*
G04 #@! TO.N,/GL3*
X117200000Y-106900000D03*
X122300000Y-96066210D03*
D14*
G04 #@! TO.N,/P2.0*
X119275000Y-85975000D03*
X133920000Y-102160000D03*
G04 #@! TO.N,/P2.4*
X117708214Y-86241786D03*
X136725000Y-103675000D03*
G04 #@! TO.N,/Comms/LED*
X130399973Y-85349669D03*
X128642100Y-91747320D03*
G04 #@! TO.N,Net-(R22-Pad2)*
X128650000Y-90300000D03*
X126850000Y-86650000D03*
G04 #@! TO.N,Net-(R23-Pad2)*
X126899646Y-90308365D03*
X129250038Y-91745726D03*
X129050004Y-87650000D03*
G04 #@! TO.N,/Power in/VIN*
X96450000Y-81100000D03*
D13*
X107000002Y-83600000D03*
D14*
G04 #@! TO.N,Net-(Q7-Pad4)*
X95749589Y-104962544D03*
X100250000Y-111803600D03*
X119397240Y-106501824D03*
G04 #@! TO.N,Net-(D6-Pad2)*
X107400005Y-81400005D03*
G04 #@! TO.N,GNDA*
X115720000Y-86309998D03*
X105000000Y-107800000D03*
G04 #@! TO.N,GNDD*
X130150000Y-96600000D03*
X129900000Y-91749992D03*
X132240000Y-96340000D03*
X127600000Y-99200000D03*
G04 #@! TO.N,/Comms/SS1/DispAo/SWCLK*
X125850000Y-90950000D03*
G04 #@! TO.N,Net-(U5-Pad13)*
X132060000Y-91450000D03*
G04 #@! TO.N,Net-(U5-Pad14)*
X132830000Y-91380000D03*
G04 #@! TO.N,Net-(D6-Pad1)*
X107399875Y-82201783D03*
G04 #@! TO.N,/Comms/3V3*
X133910000Y-91060000D03*
X129837600Y-94580000D03*
G04 #@! TO.N,Net-(J8-Pad1)*
X130500000Y-84400000D03*
X134380000Y-88060000D03*
G04 #@! TO.N,Net-(J9-Pad1)*
X134750000Y-84400000D03*
X134380000Y-89760000D03*
G04 #@! TO.N,/Comms/MISO1/DispA-TMS*
X125700000Y-90200008D03*
G04 #@! TO.N,/Vdd_Ext_En*
X114349973Y-90402411D03*
X123100000Y-96600000D03*
G04 #@! TO.N,Net-(R30-Pad1)*
X127900000Y-100850004D03*
X123350000Y-98500000D03*
G04 #@! TO.N,/Vdd_Ext*
X134310000Y-94200000D03*
X127500000Y-93650000D03*
X124100000Y-96250000D03*
X124100000Y-96750000D03*
X124800006Y-92000000D03*
X124800022Y-89150000D03*
G04 #@! TD*
D15*
G04 #@! TO.N,/Driver Bridge Single Mosfet/SH3*
X102650000Y-108056338D02*
X103793662Y-109200000D01*
X110800000Y-95900001D02*
X110375736Y-95900001D01*
X102650000Y-97848634D02*
X102650000Y-108056338D01*
X104836135Y-95662499D02*
X102650000Y-97848634D01*
X110138234Y-95662499D02*
X104836135Y-95662499D01*
X110375736Y-95900001D02*
X110138234Y-95662499D01*
X103793662Y-109200000D02*
X105025736Y-109200000D01*
X105025736Y-109200000D02*
X105450000Y-109200000D01*
G04 #@! TO.N,VCP*
X115890003Y-98240003D02*
X117850000Y-100200000D01*
X115890003Y-96274264D02*
X115890003Y-98240003D01*
X115890003Y-96274264D02*
X115890003Y-95850000D01*
G04 #@! TO.N,VDH*
X121100000Y-100275000D02*
X120675736Y-100275000D01*
X120675736Y-100275000D02*
X119750736Y-101200000D01*
X119750736Y-101200000D02*
X115050000Y-101200000D01*
X103037050Y-110050000D02*
X106200000Y-110050000D01*
X103037050Y-110050000D02*
X103037050Y-110650550D01*
X103037050Y-109430550D02*
X103037050Y-110050000D01*
X115050000Y-101200000D02*
X115050000Y-95850000D01*
X106200000Y-110050000D02*
X115050000Y-101200000D01*
D16*
G04 #@! TO.N,Net-(C8-Pad2)*
X112100006Y-87550006D02*
X107650000Y-87550006D01*
X114350000Y-89800000D02*
X112100006Y-87550006D01*
G04 #@! TO.N,/SL*
X120569412Y-96017000D02*
X120150000Y-96436412D01*
X121404823Y-96017000D02*
X120569412Y-96017000D01*
X120150000Y-96436412D02*
X120150000Y-97027966D01*
X120150000Y-97027966D02*
X118227966Y-98950000D01*
X118227966Y-98950000D02*
X117600000Y-98950000D01*
D15*
G04 #@! TO.N,VS*
X121073207Y-92350001D02*
X111900001Y-92350001D01*
X122073206Y-93350000D02*
X121073207Y-92350001D01*
X123300000Y-93350000D02*
X122073206Y-93350000D01*
X123849999Y-95250001D02*
X123849999Y-93899999D01*
X123849999Y-93899999D02*
X123300000Y-93350000D01*
X123550000Y-95550000D02*
X123849999Y-95250001D01*
X111900001Y-92350001D02*
X111199999Y-91649999D01*
X111199999Y-91649999D02*
X110900000Y-91350000D01*
X103600000Y-95700000D02*
X99982999Y-99317001D01*
X104100000Y-95700000D02*
X103600000Y-95700000D01*
X105800000Y-94000000D02*
X104100000Y-95700000D01*
X106922118Y-94000000D02*
X105800000Y-94000000D01*
X109572118Y-91350000D02*
X106922118Y-94000000D01*
X110250000Y-91350000D02*
X109572118Y-91350000D01*
X99982999Y-99317001D02*
X99982999Y-108317001D01*
X99982999Y-108317001D02*
X99150000Y-109150000D01*
X99150000Y-109150000D02*
X98677382Y-109150000D01*
X98200000Y-109800000D02*
X98499999Y-109500001D01*
X98499999Y-109500001D02*
X98499999Y-109327383D01*
X98499999Y-109327383D02*
X98677382Y-109150000D01*
X98200000Y-109800000D02*
X98200000Y-109150000D01*
X110250000Y-91350000D02*
X110900000Y-91350000D01*
X98200000Y-109150000D02*
X98677382Y-109150000D01*
D16*
G04 #@! TO.N,Net-(D2-Pad2)*
X96350000Y-110450000D02*
X95650000Y-110450000D01*
X99750330Y-111350000D02*
X98850330Y-110450000D01*
X114605260Y-111350000D02*
X99750330Y-111350000D01*
X98850330Y-110450000D02*
X96350000Y-110450000D01*
X118794944Y-106490524D02*
X118794944Y-107160316D01*
X118794944Y-107160316D02*
X114605260Y-111350000D01*
G04 #@! TO.N,/P0.4*
X126200000Y-86649999D02*
X126724998Y-86125001D01*
X130175001Y-86125001D02*
X130400000Y-86350000D01*
X126724998Y-86125001D02*
X130175001Y-86125001D01*
G04 #@! TO.N,/P1.4*
X119600000Y-87900000D02*
X120100000Y-87400000D01*
X115600000Y-86930330D02*
X115600000Y-87300000D01*
X116200000Y-87900000D02*
X119600000Y-87900000D01*
X115600000Y-87300000D02*
X116200000Y-87900000D01*
X113960000Y-82350000D02*
X113960000Y-85290330D01*
X113960000Y-85290330D02*
X115600000Y-86930330D01*
X120100000Y-87400000D02*
X120100000Y-86900000D01*
G04 #@! TO.N,/P0.2*
X127724999Y-86874999D02*
X127500000Y-86650000D01*
X131634999Y-86874999D02*
X127724999Y-86874999D01*
X133210000Y-92790000D02*
X134363601Y-91636399D01*
X133210000Y-94780000D02*
X133210000Y-92790000D01*
X133910000Y-89150000D02*
X131634999Y-86874999D01*
X134363601Y-91636399D02*
X134363601Y-90493601D01*
X134363601Y-90493601D02*
X133910000Y-90040000D01*
X133910000Y-90040000D02*
X133910000Y-89150000D01*
G04 #@! TO.N,/P0.3*
X125570000Y-86968198D02*
X125570000Y-86650000D01*
X125781611Y-87179809D02*
X125570000Y-86968198D01*
X132756399Y-95896399D02*
X132756399Y-92812535D01*
X133160000Y-96300000D02*
X132756399Y-95896399D01*
X133450000Y-92118934D02*
X133450000Y-89240000D01*
X132756399Y-92812535D02*
X133450000Y-92118934D01*
X133450000Y-89240000D02*
X131389809Y-87179809D01*
X131389809Y-87179809D02*
X125781611Y-87179809D01*
G04 #@! TO.N,/P2.5*
X123550000Y-89300000D02*
X125653601Y-91403601D01*
X123550000Y-87628670D02*
X123550000Y-89300000D01*
X122363473Y-86442143D02*
X123550000Y-87628670D01*
X118536527Y-86442143D02*
X122363473Y-86442143D01*
X118508888Y-86469782D02*
X118536527Y-86442143D01*
X118328293Y-86469782D02*
X118508888Y-86469782D01*
X125653601Y-91403601D02*
X127596399Y-91403601D01*
X127596399Y-91403601D02*
X127825001Y-91174999D01*
X127825001Y-91174999D02*
X128050000Y-90950000D01*
G04 #@! TO.N,/P1.0*
X122242971Y-92892972D02*
X123158134Y-92892972D01*
X121256790Y-91906791D02*
X122242971Y-92892972D01*
X114910000Y-90960000D02*
X115856791Y-91906791D01*
X115856791Y-91906791D02*
X121256790Y-91906791D01*
X123158134Y-92892972D02*
X123383133Y-92667973D01*
X110150000Y-84890000D02*
X114910000Y-89650000D01*
X114910000Y-89650000D02*
X114910000Y-90960000D01*
G04 #@! TO.N,/P1.2*
X112690000Y-86277830D02*
X116662170Y-90250000D01*
X112690000Y-84890000D02*
X112690000Y-86277830D01*
X116662170Y-90250000D02*
X121350000Y-90250000D01*
X121350000Y-90250000D02*
X123100000Y-92000000D01*
X123100000Y-92000000D02*
X123349994Y-92000000D01*
X123350000Y-91999994D02*
X123349994Y-92000000D01*
G04 #@! TO.N,/P1.1*
X111420000Y-82350000D02*
X111420000Y-85438896D01*
X122619750Y-92172709D02*
X122844749Y-92397708D01*
X121129440Y-90682399D02*
X122619750Y-92172709D01*
X116663503Y-90682399D02*
X121129440Y-90682399D01*
X111420000Y-85438896D02*
X116663503Y-90682399D01*
G04 #@! TO.N,/LIN*
X106400000Y-87050000D02*
X106400000Y-85250000D01*
X107353607Y-88003607D02*
X106400000Y-87050000D01*
X114400000Y-91147597D02*
X111256010Y-88003607D01*
X111256010Y-88003607D02*
X107353607Y-88003607D01*
D15*
G04 #@! TO.N,/GL1*
X122749996Y-93900000D02*
X122999996Y-94150000D01*
X115651363Y-93900000D02*
X122749996Y-93900000D01*
X107450000Y-100650000D02*
X109097162Y-100650000D01*
X110849999Y-98897163D02*
X110849999Y-96949998D01*
X110849999Y-96949998D02*
X113394008Y-94405989D01*
X115145374Y-94405989D02*
X115651363Y-93900000D01*
X109097162Y-100650000D02*
X110849999Y-98897163D01*
X113394008Y-94405989D02*
X115145374Y-94405989D01*
G04 #@! TO.N,/GL2*
X121885728Y-95014272D02*
X122185727Y-94714273D01*
X111344010Y-97154624D02*
X113459362Y-95039272D01*
X105878193Y-107836200D02*
X106990962Y-107836200D01*
X121860728Y-95039272D02*
X121885728Y-95014272D01*
X106990962Y-107836200D02*
X111344010Y-103483152D01*
X113459362Y-95039272D02*
X121860728Y-95039272D01*
X111344010Y-103483152D02*
X111344010Y-97154624D01*
G04 #@! TO.N,/Power in/VIN*
X96450000Y-81100000D02*
X104500002Y-81100000D01*
X104500002Y-81100000D02*
X106700003Y-83300001D01*
X106700003Y-83300001D02*
X107000002Y-83600000D01*
D16*
G04 #@! TO.N,Net-(Q7-Pad4)*
X119397240Y-106989086D02*
X114582726Y-111803600D01*
X119397240Y-106501824D02*
X119397240Y-106989086D01*
X114582726Y-111803600D02*
X100250000Y-111803600D01*
G04 #@! TO.N,Net-(J8-Pad1)*
X134380000Y-88060000D02*
X130720000Y-84400000D01*
X130720000Y-84400000D02*
X130500000Y-84400000D01*
G04 #@! TO.N,Net-(J9-Pad1)*
X134974999Y-89165001D02*
X134974999Y-84624999D01*
X134974999Y-84624999D02*
X134750000Y-84400000D01*
X134380000Y-89760000D02*
X134974999Y-89165001D01*
G04 #@! TO.N,/Comms/MISO1/DispA-TMS*
X123890000Y-89090000D02*
X125000008Y-90200008D01*
X123890000Y-84890000D02*
X123890000Y-89090000D01*
X125000008Y-90200008D02*
X125700000Y-90200008D01*
G04 #@! TO.N,Net-(R30-Pad1)*
X127900000Y-100850004D02*
X125700004Y-100850004D01*
X125700004Y-100850004D02*
X123350000Y-98500000D01*
G04 #@! TD*
G04 #@! TO.N,/Vdd_Ext*
G36*
X140594801Y-102773800D02*
X137842577Y-102773800D01*
X137861912Y-102765791D01*
X138165791Y-102461912D01*
X138330250Y-102064875D01*
X138330250Y-101635125D01*
X138165791Y-101238088D01*
X137861912Y-100934209D01*
X137464875Y-100769750D01*
X137035125Y-100769750D01*
X136638088Y-100934209D01*
X136334209Y-101238088D01*
X136169750Y-101635125D01*
X136169750Y-102064875D01*
X136334209Y-102461912D01*
X136638088Y-102765791D01*
X136657423Y-102773800D01*
X132459065Y-102773800D01*
X133263307Y-102440672D01*
X133384934Y-102319045D01*
X133449324Y-102474496D01*
X133605504Y-102630676D01*
X133809564Y-102715200D01*
X134030436Y-102715200D01*
X134234496Y-102630676D01*
X134390676Y-102474496D01*
X134475200Y-102270436D01*
X134475200Y-102049564D01*
X134390676Y-101845504D01*
X134234496Y-101689324D01*
X134030436Y-101604800D01*
X133977038Y-101604800D01*
X134230200Y-100993614D01*
X134230200Y-100106386D01*
X133890672Y-99286693D01*
X133539277Y-98935298D01*
X135279800Y-98935298D01*
X135279800Y-99424702D01*
X135467087Y-99876852D01*
X135813148Y-100222913D01*
X136265298Y-100410200D01*
X136754702Y-100410200D01*
X137206852Y-100222913D01*
X137552913Y-99876852D01*
X137740200Y-99424702D01*
X137740200Y-98935298D01*
X137552913Y-98483148D01*
X137206852Y-98137087D01*
X136754702Y-97949800D01*
X136265298Y-97949800D01*
X135813148Y-98137087D01*
X135467087Y-98483148D01*
X135279800Y-98935298D01*
X133539277Y-98935298D01*
X133263307Y-98659328D01*
X132443614Y-98319800D01*
X131556386Y-98319800D01*
X130736693Y-98659328D01*
X130109328Y-99286693D01*
X129769800Y-100106386D01*
X129769800Y-100993614D01*
X130109328Y-101813307D01*
X130736693Y-102440672D01*
X131540935Y-102773800D01*
X123476200Y-102773800D01*
X123476200Y-99200935D01*
X125384338Y-101109075D01*
X125407007Y-101143001D01*
X125440933Y-101165670D01*
X125440936Y-101165673D01*
X125541434Y-101232824D01*
X125567899Y-101238088D01*
X125659981Y-101256404D01*
X125659984Y-101256404D01*
X125700004Y-101264364D01*
X125740023Y-101256404D01*
X127521228Y-101256404D01*
X127585504Y-101320680D01*
X127789564Y-101405204D01*
X128010436Y-101405204D01*
X128214496Y-101320680D01*
X128370676Y-101164500D01*
X128455200Y-100960440D01*
X128455200Y-100739568D01*
X128370676Y-100535508D01*
X128214496Y-100379328D01*
X128010436Y-100294804D01*
X127789564Y-100294804D01*
X127585504Y-100379328D01*
X127521228Y-100443604D01*
X125868341Y-100443604D01*
X124514300Y-99089564D01*
X127044800Y-99089564D01*
X127044800Y-99310436D01*
X127129324Y-99514496D01*
X127285504Y-99670676D01*
X127489564Y-99755200D01*
X127710436Y-99755200D01*
X127914496Y-99670676D01*
X128070676Y-99514496D01*
X128155200Y-99310436D01*
X128155200Y-99089564D01*
X128070676Y-98885504D01*
X127914496Y-98729324D01*
X127710436Y-98644800D01*
X127489564Y-98644800D01*
X127285504Y-98729324D01*
X127129324Y-98885504D01*
X127044800Y-99089564D01*
X124514300Y-99089564D01*
X123905200Y-98480465D01*
X123905200Y-98389564D01*
X123820676Y-98185504D01*
X123664496Y-98029324D01*
X123476200Y-97951330D01*
X123476200Y-97008972D01*
X123570676Y-96914496D01*
X123655200Y-96710436D01*
X123655200Y-96489564D01*
X129594800Y-96489564D01*
X129594800Y-96710436D01*
X129679324Y-96914496D01*
X129835504Y-97070676D01*
X130039564Y-97155200D01*
X130260436Y-97155200D01*
X130464496Y-97070676D01*
X130620676Y-96914496D01*
X130705200Y-96710436D01*
X130705200Y-96489564D01*
X130620676Y-96285504D01*
X130464496Y-96129324D01*
X130260436Y-96044800D01*
X130039564Y-96044800D01*
X129835504Y-96129324D01*
X129679324Y-96285504D01*
X129594800Y-96489564D01*
X123655200Y-96489564D01*
X123570676Y-96285504D01*
X123476200Y-96191028D01*
X123476200Y-96180200D01*
X123675355Y-96180200D01*
X123906979Y-96084257D01*
X124084257Y-95906979D01*
X124180200Y-95675355D01*
X124180200Y-95578759D01*
X124280672Y-95428392D01*
X124300100Y-95330721D01*
X124316156Y-95250001D01*
X124307199Y-95204971D01*
X124307199Y-94389564D01*
X125194800Y-94389564D01*
X125194800Y-94610436D01*
X125279324Y-94814496D01*
X125435504Y-94970676D01*
X125639564Y-95055200D01*
X125860436Y-95055200D01*
X126064496Y-94970676D01*
X126220676Y-94814496D01*
X126305200Y-94610436D01*
X126305200Y-94469564D01*
X129282400Y-94469564D01*
X129282400Y-94690436D01*
X129366924Y-94894496D01*
X129523104Y-95050676D01*
X129727164Y-95135200D01*
X129948036Y-95135200D01*
X130152096Y-95050676D01*
X130308276Y-94894496D01*
X130392800Y-94690436D01*
X130392800Y-94469564D01*
X130308276Y-94265504D01*
X130152096Y-94109324D01*
X129948036Y-94024800D01*
X129727164Y-94024800D01*
X129523104Y-94109324D01*
X129366924Y-94265504D01*
X129282400Y-94469564D01*
X126305200Y-94469564D01*
X126305200Y-94389564D01*
X126220676Y-94185504D01*
X126064496Y-94029324D01*
X125860436Y-93944800D01*
X125639564Y-93944800D01*
X125435504Y-94029324D01*
X125279324Y-94185504D01*
X125194800Y-94389564D01*
X124307199Y-94389564D01*
X124307199Y-93945028D01*
X124316156Y-93899998D01*
X124280672Y-93721608D01*
X124269662Y-93705130D01*
X124179622Y-93570376D01*
X124141448Y-93544869D01*
X123716428Y-93119850D01*
X123853809Y-92982469D01*
X123938333Y-92778409D01*
X123938333Y-92557537D01*
X123853809Y-92353477D01*
X123817749Y-92317417D01*
X123820670Y-92314496D01*
X123905194Y-92110436D01*
X123905194Y-91889564D01*
X123820670Y-91685504D01*
X123664490Y-91529324D01*
X123476200Y-91451332D01*
X123476200Y-90958243D01*
X123589564Y-91005200D01*
X123810436Y-91005200D01*
X124014496Y-90920676D01*
X124170676Y-90764496D01*
X124249489Y-90574224D01*
X125337933Y-91662669D01*
X125360604Y-91696598D01*
X125495032Y-91786421D01*
X125613578Y-91810001D01*
X125613582Y-91810001D01*
X125653600Y-91817961D01*
X125693618Y-91810001D01*
X127556381Y-91810001D01*
X127596399Y-91817961D01*
X127636417Y-91810001D01*
X127636422Y-91810001D01*
X127754968Y-91786421D01*
X127889396Y-91696598D01*
X127912069Y-91662666D01*
X128069535Y-91505200D01*
X128141445Y-91505200D01*
X128086900Y-91636884D01*
X128086900Y-91857756D01*
X128171424Y-92061816D01*
X128327604Y-92217996D01*
X128531664Y-92302520D01*
X128752536Y-92302520D01*
X128947993Y-92221559D01*
X129139602Y-92300926D01*
X129360474Y-92300926D01*
X129564534Y-92216402D01*
X129572886Y-92208050D01*
X129585504Y-92220668D01*
X129789564Y-92305192D01*
X130010436Y-92305192D01*
X130214496Y-92220668D01*
X130370676Y-92064488D01*
X130455200Y-91860428D01*
X130455200Y-91639556D01*
X130370676Y-91435496D01*
X130214496Y-91279316D01*
X130010436Y-91194792D01*
X129789564Y-91194792D01*
X129585504Y-91279316D01*
X129577152Y-91287668D01*
X129564534Y-91275050D01*
X129360474Y-91190526D01*
X129139602Y-91190526D01*
X128944145Y-91271487D01*
X128752536Y-91192120D01*
X128550655Y-91192120D01*
X128605200Y-91060436D01*
X128605200Y-90855200D01*
X128760436Y-90855200D01*
X128964496Y-90770676D01*
X129120676Y-90614496D01*
X129205200Y-90410436D01*
X129205200Y-90189564D01*
X129120676Y-89985504D01*
X128964496Y-89829324D01*
X128760436Y-89744800D01*
X128539564Y-89744800D01*
X128455200Y-89779745D01*
X128455200Y-89735954D01*
X128370676Y-89531894D01*
X128214496Y-89375714D01*
X128010436Y-89291190D01*
X127789564Y-89291190D01*
X127585504Y-89375714D01*
X127429324Y-89531894D01*
X127344800Y-89735954D01*
X127344800Y-89956826D01*
X127352947Y-89976494D01*
X127214142Y-89837689D01*
X127010082Y-89753165D01*
X126789210Y-89753165D01*
X126585150Y-89837689D01*
X126428970Y-89993869D01*
X126344446Y-90197929D01*
X126344446Y-90418801D01*
X126428970Y-90622861D01*
X126585150Y-90779041D01*
X126789210Y-90863565D01*
X127010082Y-90863565D01*
X127214142Y-90779041D01*
X127370322Y-90622861D01*
X127454846Y-90418801D01*
X127454846Y-90197929D01*
X127446699Y-90178261D01*
X127585504Y-90317066D01*
X127789564Y-90401590D01*
X127923171Y-90401590D01*
X127735504Y-90479324D01*
X127579324Y-90635504D01*
X127494800Y-90839564D01*
X127494800Y-90930465D01*
X127428064Y-90997201D01*
X126405200Y-90997201D01*
X126405200Y-90839564D01*
X126320676Y-90635504D01*
X126179170Y-90493998D01*
X126255200Y-90310444D01*
X126255200Y-90089572D01*
X126170676Y-89885512D01*
X126014496Y-89729332D01*
X125810436Y-89644808D01*
X125589564Y-89644808D01*
X125385504Y-89729332D01*
X125321228Y-89793608D01*
X125168344Y-89793608D01*
X124296400Y-88921665D01*
X124296400Y-88764754D01*
X130409800Y-88764754D01*
X130409800Y-89055246D01*
X130520967Y-89323625D01*
X130726375Y-89529033D01*
X130994754Y-89640200D01*
X131285246Y-89640200D01*
X131553625Y-89529033D01*
X131759033Y-89323625D01*
X131870200Y-89055246D01*
X131870200Y-88764754D01*
X131759033Y-88496375D01*
X131553625Y-88290967D01*
X131285246Y-88179800D01*
X130994754Y-88179800D01*
X130726375Y-88290967D01*
X130520967Y-88496375D01*
X130409800Y-88764754D01*
X124296400Y-88764754D01*
X124296400Y-86539564D01*
X125014800Y-86539564D01*
X125014800Y-86760436D01*
X125099324Y-86964496D01*
X125168703Y-87033875D01*
X125187180Y-87126766D01*
X125277003Y-87261195D01*
X125310935Y-87283868D01*
X125465941Y-87438874D01*
X125488614Y-87472806D01*
X125623042Y-87562629D01*
X125741588Y-87586209D01*
X125741592Y-87586209D01*
X125781610Y-87594169D01*
X125821628Y-87586209D01*
X128494804Y-87586209D01*
X128494804Y-87760436D01*
X128579328Y-87964496D01*
X128735508Y-88120676D01*
X128939568Y-88205200D01*
X129160440Y-88205200D01*
X129364500Y-88120676D01*
X129520680Y-87964496D01*
X129605204Y-87760436D01*
X129605204Y-87586209D01*
X131221474Y-87586209D01*
X133043601Y-89408337D01*
X133043600Y-90867532D01*
X132940436Y-90824800D01*
X132719564Y-90824800D01*
X132515504Y-90909324D01*
X132410000Y-91014828D01*
X132374496Y-90979324D01*
X132170436Y-90894800D01*
X131949564Y-90894800D01*
X131745504Y-90979324D01*
X131589324Y-91135504D01*
X131504800Y-91339564D01*
X131504800Y-91560436D01*
X131589324Y-91764496D01*
X131745504Y-91920676D01*
X131949564Y-92005200D01*
X132170436Y-92005200D01*
X132374496Y-91920676D01*
X132480000Y-91815172D01*
X132515504Y-91850676D01*
X132719564Y-91935200D01*
X132940436Y-91935200D01*
X133043600Y-91892468D01*
X133043600Y-91950598D01*
X132497331Y-92496867D01*
X132463403Y-92519538D01*
X132440732Y-92553467D01*
X132440731Y-92553468D01*
X132373580Y-92653966D01*
X132342039Y-92812535D01*
X132350000Y-92852558D01*
X132349999Y-95784800D01*
X132129564Y-95784800D01*
X131925504Y-95869324D01*
X131769324Y-96025504D01*
X131684800Y-96229564D01*
X131684800Y-96450436D01*
X131769324Y-96654496D01*
X131925504Y-96810676D01*
X132129564Y-96895200D01*
X132350436Y-96895200D01*
X132554496Y-96810676D01*
X132710676Y-96654496D01*
X132716138Y-96641310D01*
X132845504Y-96770676D01*
X133049564Y-96855200D01*
X133270436Y-96855200D01*
X133474496Y-96770676D01*
X133630676Y-96614496D01*
X133715200Y-96410436D01*
X133715200Y-96395298D01*
X135279800Y-96395298D01*
X135279800Y-96884702D01*
X135467087Y-97336852D01*
X135813148Y-97682913D01*
X136265298Y-97870200D01*
X136754702Y-97870200D01*
X137206852Y-97682913D01*
X137224467Y-97665298D01*
X137819800Y-97665298D01*
X137819800Y-98154702D01*
X138007087Y-98606852D01*
X138353148Y-98952913D01*
X138805298Y-99140200D01*
X139294702Y-99140200D01*
X139746852Y-98952913D01*
X140092913Y-98606852D01*
X140280200Y-98154702D01*
X140280200Y-97665298D01*
X140092913Y-97213148D01*
X139746852Y-96867087D01*
X139294702Y-96679800D01*
X138805298Y-96679800D01*
X138353148Y-96867087D01*
X138007087Y-97213148D01*
X137819800Y-97665298D01*
X137224467Y-97665298D01*
X137552913Y-97336852D01*
X137740200Y-96884702D01*
X137740200Y-96395298D01*
X137552913Y-95943148D01*
X137206852Y-95597087D01*
X136754702Y-95409800D01*
X136265298Y-95409800D01*
X135813148Y-95597087D01*
X135467087Y-95943148D01*
X135279800Y-96395298D01*
X133715200Y-96395298D01*
X133715200Y-96189564D01*
X133630676Y-95985504D01*
X133474496Y-95829324D01*
X133270436Y-95744800D01*
X133179535Y-95744800D01*
X133162799Y-95728064D01*
X133162799Y-95335200D01*
X133320436Y-95335200D01*
X133524496Y-95250676D01*
X133680676Y-95094496D01*
X133765200Y-94890436D01*
X133765200Y-94669564D01*
X133680676Y-94465504D01*
X133616400Y-94401228D01*
X133616400Y-93855298D01*
X135279800Y-93855298D01*
X135279800Y-94344702D01*
X135467087Y-94796852D01*
X135813148Y-95142913D01*
X136265298Y-95330200D01*
X136754702Y-95330200D01*
X137206852Y-95142913D01*
X137224467Y-95125298D01*
X137819800Y-95125298D01*
X137819800Y-95614702D01*
X138007087Y-96066852D01*
X138353148Y-96412913D01*
X138805298Y-96600200D01*
X139294702Y-96600200D01*
X139746852Y-96412913D01*
X140092913Y-96066852D01*
X140280200Y-95614702D01*
X140280200Y-95125298D01*
X140092913Y-94673148D01*
X139746852Y-94327087D01*
X139294702Y-94139800D01*
X138805298Y-94139800D01*
X138353148Y-94327087D01*
X138007087Y-94673148D01*
X137819800Y-95125298D01*
X137224467Y-95125298D01*
X137552913Y-94796852D01*
X137740200Y-94344702D01*
X137740200Y-93855298D01*
X137552913Y-93403148D01*
X137206852Y-93057087D01*
X136754702Y-92869800D01*
X136265298Y-92869800D01*
X135813148Y-93057087D01*
X135467087Y-93403148D01*
X135279800Y-93855298D01*
X133616400Y-93855298D01*
X133616400Y-92958335D01*
X134622670Y-91952066D01*
X134656598Y-91929396D01*
X134746421Y-91794968D01*
X134770001Y-91676422D01*
X134770001Y-91676418D01*
X134777961Y-91636400D01*
X134770001Y-91596382D01*
X134770001Y-90533620D01*
X134777961Y-90493601D01*
X134776276Y-90485125D01*
X136169750Y-90485125D01*
X136169750Y-90914875D01*
X136334209Y-91311912D01*
X136638088Y-91615791D01*
X137035125Y-91780250D01*
X137464875Y-91780250D01*
X137861912Y-91615791D01*
X138165791Y-91311912D01*
X138330250Y-90914875D01*
X138330250Y-90485125D01*
X138165791Y-90088088D01*
X137861912Y-89784209D01*
X137464875Y-89619750D01*
X137035125Y-89619750D01*
X136638088Y-89784209D01*
X136334209Y-90088088D01*
X136169750Y-90485125D01*
X134776276Y-90485125D01*
X134770001Y-90453581D01*
X134770001Y-90453578D01*
X134750433Y-90355200D01*
X134746421Y-90335031D01*
X134680551Y-90236452D01*
X134694496Y-90230676D01*
X134850676Y-90074496D01*
X134935200Y-89870436D01*
X134935200Y-89779535D01*
X135234068Y-89480668D01*
X135267996Y-89457998D01*
X135290667Y-89424069D01*
X135357819Y-89323571D01*
X135364631Y-89289324D01*
X135381399Y-89205024D01*
X135381399Y-89205021D01*
X135389359Y-89165001D01*
X135381399Y-89124982D01*
X135381399Y-88519983D01*
X135467087Y-88726852D01*
X135813148Y-89072913D01*
X136265298Y-89260200D01*
X136754702Y-89260200D01*
X137206852Y-89072913D01*
X137552913Y-88726852D01*
X137740200Y-88274702D01*
X137740200Y-87785298D01*
X137552913Y-87333148D01*
X137206852Y-86987087D01*
X136754702Y-86799800D01*
X136265298Y-86799800D01*
X135813148Y-86987087D01*
X135467087Y-87333148D01*
X135381399Y-87540017D01*
X135381399Y-85979983D01*
X135467087Y-86186852D01*
X135813148Y-86532913D01*
X136265298Y-86720200D01*
X136754702Y-86720200D01*
X137206852Y-86532913D01*
X137224467Y-86515298D01*
X137819800Y-86515298D01*
X137819800Y-87004702D01*
X138007087Y-87456852D01*
X138353148Y-87802913D01*
X138805298Y-87990200D01*
X139294702Y-87990200D01*
X139746852Y-87802913D01*
X140092913Y-87456852D01*
X140280200Y-87004702D01*
X140280200Y-86515298D01*
X140092913Y-86063148D01*
X139746852Y-85717087D01*
X139294702Y-85529800D01*
X138805298Y-85529800D01*
X138353148Y-85717087D01*
X138007087Y-86063148D01*
X137819800Y-86515298D01*
X137224467Y-86515298D01*
X137552913Y-86186852D01*
X137740200Y-85734702D01*
X137740200Y-85245298D01*
X137552913Y-84793148D01*
X137206852Y-84447087D01*
X136754702Y-84259800D01*
X136265298Y-84259800D01*
X135813148Y-84447087D01*
X135467087Y-84793148D01*
X135381399Y-85000017D01*
X135381399Y-84665018D01*
X135389359Y-84624999D01*
X135381399Y-84584979D01*
X135381399Y-84584976D01*
X135357819Y-84466430D01*
X135357819Y-84466429D01*
X135313431Y-84400000D01*
X135305200Y-84387681D01*
X135305200Y-84289564D01*
X135220676Y-84085504D01*
X135064496Y-83929324D01*
X134860436Y-83844800D01*
X134639564Y-83844800D01*
X134435504Y-83929324D01*
X134279324Y-84085504D01*
X134194800Y-84289564D01*
X134194800Y-84510436D01*
X134279324Y-84714496D01*
X134435504Y-84870676D01*
X134568600Y-84925806D01*
X134568599Y-87537176D01*
X134490436Y-87504800D01*
X134399536Y-87504800D01*
X131035670Y-84140935D01*
X131012997Y-84107003D01*
X130950245Y-84065073D01*
X130814496Y-83929324D01*
X130610436Y-83844800D01*
X130389564Y-83844800D01*
X130185504Y-83929324D01*
X130180090Y-83934738D01*
X130015791Y-83538088D01*
X129711912Y-83234209D01*
X129314875Y-83069750D01*
X128885125Y-83069750D01*
X128488088Y-83234209D01*
X128184209Y-83538088D01*
X128019750Y-83935125D01*
X128019750Y-84364875D01*
X128184209Y-84761912D01*
X128488088Y-85065791D01*
X128885125Y-85230250D01*
X129314875Y-85230250D01*
X129711912Y-85065791D01*
X130015791Y-84761912D01*
X130033643Y-84718815D01*
X130162088Y-84847260D01*
X130085477Y-84878993D01*
X129929297Y-85035173D01*
X129844773Y-85239233D01*
X129844773Y-85460105D01*
X129929297Y-85664165D01*
X129983733Y-85718601D01*
X127341164Y-85718601D01*
X127472913Y-85586852D01*
X127660200Y-85134702D01*
X127660200Y-84645298D01*
X127472913Y-84193148D01*
X127126852Y-83847087D01*
X126674702Y-83659800D01*
X126185298Y-83659800D01*
X125733148Y-83847087D01*
X125387087Y-84193148D01*
X125199800Y-84645298D01*
X125199800Y-85134702D01*
X125387087Y-85586852D01*
X125733148Y-85932913D01*
X126123975Y-86094799D01*
X126089564Y-86094799D01*
X125885504Y-86179323D01*
X125885000Y-86179828D01*
X125884496Y-86179324D01*
X125680436Y-86094800D01*
X125459564Y-86094800D01*
X125255504Y-86179324D01*
X125099324Y-86335504D01*
X125014800Y-86539564D01*
X124296400Y-86539564D01*
X124296400Y-86053222D01*
X124586852Y-85932913D01*
X124932913Y-85586852D01*
X125120200Y-85134702D01*
X125120200Y-84645298D01*
X124932913Y-84193148D01*
X124586852Y-83847087D01*
X124134702Y-83659800D01*
X123645298Y-83659800D01*
X123193148Y-83847087D01*
X122847087Y-84193148D01*
X122659800Y-84645298D01*
X122659800Y-85134702D01*
X122847087Y-85586852D01*
X123193148Y-85932913D01*
X123483600Y-86053222D01*
X123483600Y-86987534D01*
X122679143Y-86183077D01*
X122656470Y-86149146D01*
X122522042Y-86059323D01*
X122403496Y-86035743D01*
X122403491Y-86035743D01*
X122363473Y-86027783D01*
X122323455Y-86035743D01*
X121798599Y-86035743D01*
X122046852Y-85932913D01*
X122392913Y-85586852D01*
X122580200Y-85134702D01*
X122580200Y-84645298D01*
X122392913Y-84193148D01*
X122046852Y-83847087D01*
X121594702Y-83659800D01*
X121105298Y-83659800D01*
X120653148Y-83847087D01*
X120307087Y-84193148D01*
X120119800Y-84645298D01*
X120119800Y-85134702D01*
X120307087Y-85586852D01*
X120653148Y-85932913D01*
X120901401Y-86035743D01*
X119830200Y-86035743D01*
X119830200Y-85864564D01*
X119745676Y-85660504D01*
X119589496Y-85504324D01*
X119385436Y-85419800D01*
X119164564Y-85419800D01*
X118960504Y-85504324D01*
X118804324Y-85660504D01*
X118719800Y-85864564D01*
X118719800Y-86035743D01*
X118679426Y-86035743D01*
X118642789Y-85999106D01*
X118438729Y-85914582D01*
X118217857Y-85914582D01*
X118180104Y-85930220D01*
X118178890Y-85927290D01*
X118022710Y-85771110D01*
X117818650Y-85686586D01*
X117597778Y-85686586D01*
X117393718Y-85771110D01*
X117237538Y-85927290D01*
X117153014Y-86131350D01*
X117153014Y-86344800D01*
X116943174Y-86344800D01*
X116739114Y-86429324D01*
X116582934Y-86585504D01*
X116576805Y-86600301D01*
X116570676Y-86585504D01*
X116414496Y-86429324D01*
X116275200Y-86371626D01*
X116275200Y-86199562D01*
X116190676Y-85995502D01*
X116034496Y-85839322D01*
X116024559Y-85835206D01*
X116272913Y-85586852D01*
X116460200Y-85134702D01*
X116460200Y-84645298D01*
X116272913Y-84193148D01*
X116014890Y-83935125D01*
X116819750Y-83935125D01*
X116819750Y-84364875D01*
X116984209Y-84761912D01*
X117288088Y-85065791D01*
X117685125Y-85230250D01*
X118114875Y-85230250D01*
X118511912Y-85065791D01*
X118815791Y-84761912D01*
X118980250Y-84364875D01*
X118980250Y-83935125D01*
X118815791Y-83538088D01*
X118511912Y-83234209D01*
X118114875Y-83069750D01*
X117685125Y-83069750D01*
X117288088Y-83234209D01*
X116984209Y-83538088D01*
X116819750Y-83935125D01*
X116014890Y-83935125D01*
X115926852Y-83847087D01*
X115474702Y-83659800D01*
X114985298Y-83659800D01*
X114533148Y-83847087D01*
X114366400Y-84013835D01*
X114366400Y-83513222D01*
X114656852Y-83392913D01*
X115002913Y-83046852D01*
X115190200Y-82594702D01*
X115190200Y-82239564D01*
X118844800Y-82239564D01*
X118844800Y-82460436D01*
X118929324Y-82664496D01*
X119085504Y-82820676D01*
X119289564Y-82905200D01*
X119510436Y-82905200D01*
X119714496Y-82820676D01*
X119870676Y-82664496D01*
X119955200Y-82460436D01*
X119955200Y-82239564D01*
X119899586Y-82105298D01*
X121389800Y-82105298D01*
X121389800Y-82594702D01*
X121577087Y-83046852D01*
X121923148Y-83392913D01*
X122375298Y-83580200D01*
X122864702Y-83580200D01*
X123316852Y-83392913D01*
X123662913Y-83046852D01*
X123850200Y-82594702D01*
X123850200Y-82105298D01*
X123929800Y-82105298D01*
X123929800Y-82594702D01*
X124117087Y-83046852D01*
X124463148Y-83392913D01*
X124915298Y-83580200D01*
X125404702Y-83580200D01*
X125856852Y-83392913D01*
X126202913Y-83046852D01*
X126344389Y-82705298D01*
X135279800Y-82705298D01*
X135279800Y-83194702D01*
X135467087Y-83646852D01*
X135813148Y-83992913D01*
X136265298Y-84180200D01*
X136754702Y-84180200D01*
X137206852Y-83992913D01*
X137224467Y-83975298D01*
X137819800Y-83975298D01*
X137819800Y-84464702D01*
X138007087Y-84916852D01*
X138353148Y-85262913D01*
X138805298Y-85450200D01*
X139294702Y-85450200D01*
X139746852Y-85262913D01*
X140092913Y-84916852D01*
X140280200Y-84464702D01*
X140280200Y-83975298D01*
X140092913Y-83523148D01*
X139746852Y-83177087D01*
X139294702Y-82989800D01*
X138805298Y-82989800D01*
X138353148Y-83177087D01*
X138007087Y-83523148D01*
X137819800Y-83975298D01*
X137224467Y-83975298D01*
X137552913Y-83646852D01*
X137740200Y-83194702D01*
X137740200Y-82705298D01*
X137552913Y-82253148D01*
X137206852Y-81907087D01*
X136754702Y-81719800D01*
X136265298Y-81719800D01*
X135813148Y-81907087D01*
X135467087Y-82253148D01*
X135279800Y-82705298D01*
X126344389Y-82705298D01*
X126390200Y-82594702D01*
X126390200Y-82105298D01*
X126202913Y-81653148D01*
X125856852Y-81307087D01*
X125404702Y-81119800D01*
X124915298Y-81119800D01*
X124463148Y-81307087D01*
X124117087Y-81653148D01*
X123929800Y-82105298D01*
X123850200Y-82105298D01*
X123662913Y-81653148D01*
X123316852Y-81307087D01*
X122864702Y-81119800D01*
X122375298Y-81119800D01*
X121923148Y-81307087D01*
X121577087Y-81653148D01*
X121389800Y-82105298D01*
X119899586Y-82105298D01*
X119870676Y-82035504D01*
X119714496Y-81879324D01*
X119510436Y-81794800D01*
X119289564Y-81794800D01*
X119085504Y-81879324D01*
X118929324Y-82035504D01*
X118844800Y-82239564D01*
X115190200Y-82239564D01*
X115190200Y-82105298D01*
X115002913Y-81653148D01*
X114656852Y-81307087D01*
X114204702Y-81119800D01*
X113715298Y-81119800D01*
X113263148Y-81307087D01*
X112917087Y-81653148D01*
X112729800Y-82105298D01*
X112729800Y-82594702D01*
X112917087Y-83046852D01*
X113263148Y-83392913D01*
X113553600Y-83513223D01*
X113553601Y-84013836D01*
X113386852Y-83847087D01*
X112934702Y-83659800D01*
X112445298Y-83659800D01*
X111993148Y-83847087D01*
X111826400Y-84013835D01*
X111826400Y-83513222D01*
X112116852Y-83392913D01*
X112462913Y-83046852D01*
X112650200Y-82594702D01*
X112650200Y-82105298D01*
X112462913Y-81653148D01*
X112116852Y-81307087D01*
X111664702Y-81119800D01*
X111175298Y-81119800D01*
X110723148Y-81307087D01*
X110377087Y-81653148D01*
X110189800Y-82105298D01*
X110189800Y-82594702D01*
X110377087Y-83046852D01*
X110723148Y-83392913D01*
X111013600Y-83513223D01*
X111013601Y-84013836D01*
X110846852Y-83847087D01*
X110394702Y-83659800D01*
X109905298Y-83659800D01*
X109453148Y-83847087D01*
X109107087Y-84193148D01*
X108919800Y-84645298D01*
X108919800Y-85134702D01*
X109107087Y-85586852D01*
X109453148Y-85932913D01*
X109905298Y-86120200D01*
X110394702Y-86120200D01*
X110685155Y-85999890D01*
X111828870Y-87143606D01*
X108028772Y-87143606D01*
X107964496Y-87079330D01*
X107760436Y-86994806D01*
X107539564Y-86994806D01*
X107335504Y-87079330D01*
X107191034Y-87223800D01*
X107148535Y-87223800D01*
X106806400Y-86881665D01*
X106806400Y-85628772D01*
X106870676Y-85564496D01*
X106955200Y-85360436D01*
X106955200Y-85139564D01*
X106870676Y-84935504D01*
X106714496Y-84779324D01*
X106510436Y-84694800D01*
X106476200Y-84694800D01*
X106476200Y-83967434D01*
X106643023Y-84134257D01*
X106874647Y-84230200D01*
X107125357Y-84230200D01*
X107356981Y-84134257D01*
X107534259Y-83956979D01*
X107620712Y-83748266D01*
X107665743Y-83856979D01*
X107843021Y-84034257D01*
X108074645Y-84130200D01*
X108325355Y-84130200D01*
X108556979Y-84034257D01*
X108734257Y-83856979D01*
X108830200Y-83625355D01*
X108830200Y-83374645D01*
X108734257Y-83143021D01*
X108556979Y-82965743D01*
X108325355Y-82869800D01*
X108074645Y-82869800D01*
X107843021Y-82965743D01*
X107665743Y-83143021D01*
X107579290Y-83351734D01*
X107534259Y-83243021D01*
X107356981Y-83065743D01*
X107125357Y-82969800D01*
X107016381Y-82969800D01*
X106476200Y-82429619D01*
X106476200Y-82091347D01*
X106844675Y-82091347D01*
X106844675Y-82312219D01*
X106929199Y-82516279D01*
X107085379Y-82672459D01*
X107289439Y-82756983D01*
X107510311Y-82756983D01*
X107714371Y-82672459D01*
X107870551Y-82516279D01*
X107955075Y-82312219D01*
X107955075Y-82091347D01*
X107870551Y-81887287D01*
X107784223Y-81800959D01*
X107870681Y-81714501D01*
X107955205Y-81510441D01*
X107955205Y-81289569D01*
X107870681Y-81085509D01*
X107714501Y-80929329D01*
X107510441Y-80844805D01*
X107289569Y-80844805D01*
X107085509Y-80929329D01*
X106929329Y-81085509D01*
X106844805Y-81289569D01*
X106844805Y-81510441D01*
X106929329Y-81714501D01*
X107015657Y-81800829D01*
X106929199Y-81887287D01*
X106844675Y-82091347D01*
X106476200Y-82091347D01*
X106476200Y-80805200D01*
X140594800Y-80805200D01*
X140594801Y-102773800D01*
X140594801Y-102773800D01*
G37*
X140594801Y-102773800D02*
X137842577Y-102773800D01*
X137861912Y-102765791D01*
X138165791Y-102461912D01*
X138330250Y-102064875D01*
X138330250Y-101635125D01*
X138165791Y-101238088D01*
X137861912Y-100934209D01*
X137464875Y-100769750D01*
X137035125Y-100769750D01*
X136638088Y-100934209D01*
X136334209Y-101238088D01*
X136169750Y-101635125D01*
X136169750Y-102064875D01*
X136334209Y-102461912D01*
X136638088Y-102765791D01*
X136657423Y-102773800D01*
X132459065Y-102773800D01*
X133263307Y-102440672D01*
X133384934Y-102319045D01*
X133449324Y-102474496D01*
X133605504Y-102630676D01*
X133809564Y-102715200D01*
X134030436Y-102715200D01*
X134234496Y-102630676D01*
X134390676Y-102474496D01*
X134475200Y-102270436D01*
X134475200Y-102049564D01*
X134390676Y-101845504D01*
X134234496Y-101689324D01*
X134030436Y-101604800D01*
X133977038Y-101604800D01*
X134230200Y-100993614D01*
X134230200Y-100106386D01*
X133890672Y-99286693D01*
X133539277Y-98935298D01*
X135279800Y-98935298D01*
X135279800Y-99424702D01*
X135467087Y-99876852D01*
X135813148Y-100222913D01*
X136265298Y-100410200D01*
X136754702Y-100410200D01*
X137206852Y-100222913D01*
X137552913Y-99876852D01*
X137740200Y-99424702D01*
X137740200Y-98935298D01*
X137552913Y-98483148D01*
X137206852Y-98137087D01*
X136754702Y-97949800D01*
X136265298Y-97949800D01*
X135813148Y-98137087D01*
X135467087Y-98483148D01*
X135279800Y-98935298D01*
X133539277Y-98935298D01*
X133263307Y-98659328D01*
X132443614Y-98319800D01*
X131556386Y-98319800D01*
X130736693Y-98659328D01*
X130109328Y-99286693D01*
X129769800Y-100106386D01*
X129769800Y-100993614D01*
X130109328Y-101813307D01*
X130736693Y-102440672D01*
X131540935Y-102773800D01*
X123476200Y-102773800D01*
X123476200Y-99200935D01*
X125384338Y-101109075D01*
X125407007Y-101143001D01*
X125440933Y-101165670D01*
X125440936Y-101165673D01*
X125541434Y-101232824D01*
X125567899Y-101238088D01*
X125659981Y-101256404D01*
X125659984Y-101256404D01*
X125700004Y-101264364D01*
X125740023Y-101256404D01*
X127521228Y-101256404D01*
X127585504Y-101320680D01*
X127789564Y-101405204D01*
X128010436Y-101405204D01*
X128214496Y-101320680D01*
X128370676Y-101164500D01*
X128455200Y-100960440D01*
X128455200Y-100739568D01*
X128370676Y-100535508D01*
X128214496Y-100379328D01*
X128010436Y-100294804D01*
X127789564Y-100294804D01*
X127585504Y-100379328D01*
X127521228Y-100443604D01*
X125868341Y-100443604D01*
X124514300Y-99089564D01*
X127044800Y-99089564D01*
X127044800Y-99310436D01*
X127129324Y-99514496D01*
X127285504Y-99670676D01*
X127489564Y-99755200D01*
X127710436Y-99755200D01*
X127914496Y-99670676D01*
X128070676Y-99514496D01*
X128155200Y-99310436D01*
X128155200Y-99089564D01*
X128070676Y-98885504D01*
X127914496Y-98729324D01*
X127710436Y-98644800D01*
X127489564Y-98644800D01*
X127285504Y-98729324D01*
X127129324Y-98885504D01*
X127044800Y-99089564D01*
X124514300Y-99089564D01*
X123905200Y-98480465D01*
X123905200Y-98389564D01*
X123820676Y-98185504D01*
X123664496Y-98029324D01*
X123476200Y-97951330D01*
X123476200Y-97008972D01*
X123570676Y-96914496D01*
X123655200Y-96710436D01*
X123655200Y-96489564D01*
X129594800Y-96489564D01*
X129594800Y-96710436D01*
X129679324Y-96914496D01*
X129835504Y-97070676D01*
X130039564Y-97155200D01*
X130260436Y-97155200D01*
X130464496Y-97070676D01*
X130620676Y-96914496D01*
X130705200Y-96710436D01*
X130705200Y-96489564D01*
X130620676Y-96285504D01*
X130464496Y-96129324D01*
X130260436Y-96044800D01*
X130039564Y-96044800D01*
X129835504Y-96129324D01*
X129679324Y-96285504D01*
X129594800Y-96489564D01*
X123655200Y-96489564D01*
X123570676Y-96285504D01*
X123476200Y-96191028D01*
X123476200Y-96180200D01*
X123675355Y-96180200D01*
X123906979Y-96084257D01*
X124084257Y-95906979D01*
X124180200Y-95675355D01*
X124180200Y-95578759D01*
X124280672Y-95428392D01*
X124300100Y-95330721D01*
X124316156Y-95250001D01*
X124307199Y-95204971D01*
X124307199Y-94389564D01*
X125194800Y-94389564D01*
X125194800Y-94610436D01*
X125279324Y-94814496D01*
X125435504Y-94970676D01*
X125639564Y-95055200D01*
X125860436Y-95055200D01*
X126064496Y-94970676D01*
X126220676Y-94814496D01*
X126305200Y-94610436D01*
X126305200Y-94469564D01*
X129282400Y-94469564D01*
X129282400Y-94690436D01*
X129366924Y-94894496D01*
X129523104Y-95050676D01*
X129727164Y-95135200D01*
X129948036Y-95135200D01*
X130152096Y-95050676D01*
X130308276Y-94894496D01*
X130392800Y-94690436D01*
X130392800Y-94469564D01*
X130308276Y-94265504D01*
X130152096Y-94109324D01*
X129948036Y-94024800D01*
X129727164Y-94024800D01*
X129523104Y-94109324D01*
X129366924Y-94265504D01*
X129282400Y-94469564D01*
X126305200Y-94469564D01*
X126305200Y-94389564D01*
X126220676Y-94185504D01*
X126064496Y-94029324D01*
X125860436Y-93944800D01*
X125639564Y-93944800D01*
X125435504Y-94029324D01*
X125279324Y-94185504D01*
X125194800Y-94389564D01*
X124307199Y-94389564D01*
X124307199Y-93945028D01*
X124316156Y-93899998D01*
X124280672Y-93721608D01*
X124269662Y-93705130D01*
X124179622Y-93570376D01*
X124141448Y-93544869D01*
X123716428Y-93119850D01*
X123853809Y-92982469D01*
X123938333Y-92778409D01*
X123938333Y-92557537D01*
X123853809Y-92353477D01*
X123817749Y-92317417D01*
X123820670Y-92314496D01*
X123905194Y-92110436D01*
X123905194Y-91889564D01*
X123820670Y-91685504D01*
X123664490Y-91529324D01*
X123476200Y-91451332D01*
X123476200Y-90958243D01*
X123589564Y-91005200D01*
X123810436Y-91005200D01*
X124014496Y-90920676D01*
X124170676Y-90764496D01*
X124249489Y-90574224D01*
X125337933Y-91662669D01*
X125360604Y-91696598D01*
X125495032Y-91786421D01*
X125613578Y-91810001D01*
X125613582Y-91810001D01*
X125653600Y-91817961D01*
X125693618Y-91810001D01*
X127556381Y-91810001D01*
X127596399Y-91817961D01*
X127636417Y-91810001D01*
X127636422Y-91810001D01*
X127754968Y-91786421D01*
X127889396Y-91696598D01*
X127912069Y-91662666D01*
X128069535Y-91505200D01*
X128141445Y-91505200D01*
X128086900Y-91636884D01*
X128086900Y-91857756D01*
X128171424Y-92061816D01*
X128327604Y-92217996D01*
X128531664Y-92302520D01*
X128752536Y-92302520D01*
X128947993Y-92221559D01*
X129139602Y-92300926D01*
X129360474Y-92300926D01*
X129564534Y-92216402D01*
X129572886Y-92208050D01*
X129585504Y-92220668D01*
X129789564Y-92305192D01*
X130010436Y-92305192D01*
X130214496Y-92220668D01*
X130370676Y-92064488D01*
X130455200Y-91860428D01*
X130455200Y-91639556D01*
X130370676Y-91435496D01*
X130214496Y-91279316D01*
X130010436Y-91194792D01*
X129789564Y-91194792D01*
X129585504Y-91279316D01*
X129577152Y-91287668D01*
X129564534Y-91275050D01*
X129360474Y-91190526D01*
X129139602Y-91190526D01*
X128944145Y-91271487D01*
X128752536Y-91192120D01*
X128550655Y-91192120D01*
X128605200Y-91060436D01*
X128605200Y-90855200D01*
X128760436Y-90855200D01*
X128964496Y-90770676D01*
X129120676Y-90614496D01*
X129205200Y-90410436D01*
X129205200Y-90189564D01*
X129120676Y-89985504D01*
X128964496Y-89829324D01*
X128760436Y-89744800D01*
X128539564Y-89744800D01*
X128455200Y-89779745D01*
X128455200Y-89735954D01*
X128370676Y-89531894D01*
X128214496Y-89375714D01*
X128010436Y-89291190D01*
X127789564Y-89291190D01*
X127585504Y-89375714D01*
X127429324Y-89531894D01*
X127344800Y-89735954D01*
X127344800Y-89956826D01*
X127352947Y-89976494D01*
X127214142Y-89837689D01*
X127010082Y-89753165D01*
X126789210Y-89753165D01*
X126585150Y-89837689D01*
X126428970Y-89993869D01*
X126344446Y-90197929D01*
X126344446Y-90418801D01*
X126428970Y-90622861D01*
X126585150Y-90779041D01*
X126789210Y-90863565D01*
X127010082Y-90863565D01*
X127214142Y-90779041D01*
X127370322Y-90622861D01*
X127454846Y-90418801D01*
X127454846Y-90197929D01*
X127446699Y-90178261D01*
X127585504Y-90317066D01*
X127789564Y-90401590D01*
X127923171Y-90401590D01*
X127735504Y-90479324D01*
X127579324Y-90635504D01*
X127494800Y-90839564D01*
X127494800Y-90930465D01*
X127428064Y-90997201D01*
X126405200Y-90997201D01*
X126405200Y-90839564D01*
X126320676Y-90635504D01*
X126179170Y-90493998D01*
X126255200Y-90310444D01*
X126255200Y-90089572D01*
X126170676Y-89885512D01*
X126014496Y-89729332D01*
X125810436Y-89644808D01*
X125589564Y-89644808D01*
X125385504Y-89729332D01*
X125321228Y-89793608D01*
X125168344Y-89793608D01*
X124296400Y-88921665D01*
X124296400Y-88764754D01*
X130409800Y-88764754D01*
X130409800Y-89055246D01*
X130520967Y-89323625D01*
X130726375Y-89529033D01*
X130994754Y-89640200D01*
X131285246Y-89640200D01*
X131553625Y-89529033D01*
X131759033Y-89323625D01*
X131870200Y-89055246D01*
X131870200Y-88764754D01*
X131759033Y-88496375D01*
X131553625Y-88290967D01*
X131285246Y-88179800D01*
X130994754Y-88179800D01*
X130726375Y-88290967D01*
X130520967Y-88496375D01*
X130409800Y-88764754D01*
X124296400Y-88764754D01*
X124296400Y-86539564D01*
X125014800Y-86539564D01*
X125014800Y-86760436D01*
X125099324Y-86964496D01*
X125168703Y-87033875D01*
X125187180Y-87126766D01*
X125277003Y-87261195D01*
X125310935Y-87283868D01*
X125465941Y-87438874D01*
X125488614Y-87472806D01*
X125623042Y-87562629D01*
X125741588Y-87586209D01*
X125741592Y-87586209D01*
X125781610Y-87594169D01*
X125821628Y-87586209D01*
X128494804Y-87586209D01*
X128494804Y-87760436D01*
X128579328Y-87964496D01*
X128735508Y-88120676D01*
X128939568Y-88205200D01*
X129160440Y-88205200D01*
X129364500Y-88120676D01*
X129520680Y-87964496D01*
X129605204Y-87760436D01*
X129605204Y-87586209D01*
X131221474Y-87586209D01*
X133043601Y-89408337D01*
X133043600Y-90867532D01*
X132940436Y-90824800D01*
X132719564Y-90824800D01*
X132515504Y-90909324D01*
X132410000Y-91014828D01*
X132374496Y-90979324D01*
X132170436Y-90894800D01*
X131949564Y-90894800D01*
X131745504Y-90979324D01*
X131589324Y-91135504D01*
X131504800Y-91339564D01*
X131504800Y-91560436D01*
X131589324Y-91764496D01*
X131745504Y-91920676D01*
X131949564Y-92005200D01*
X132170436Y-92005200D01*
X132374496Y-91920676D01*
X132480000Y-91815172D01*
X132515504Y-91850676D01*
X132719564Y-91935200D01*
X132940436Y-91935200D01*
X133043600Y-91892468D01*
X133043600Y-91950598D01*
X132497331Y-92496867D01*
X132463403Y-92519538D01*
X132440732Y-92553467D01*
X132440731Y-92553468D01*
X132373580Y-92653966D01*
X132342039Y-92812535D01*
X132350000Y-92852558D01*
X132349999Y-95784800D01*
X132129564Y-95784800D01*
X131925504Y-95869324D01*
X131769324Y-96025504D01*
X131684800Y-96229564D01*
X131684800Y-96450436D01*
X131769324Y-96654496D01*
X131925504Y-96810676D01*
X132129564Y-96895200D01*
X132350436Y-96895200D01*
X132554496Y-96810676D01*
X132710676Y-96654496D01*
X132716138Y-96641310D01*
X132845504Y-96770676D01*
X133049564Y-96855200D01*
X133270436Y-96855200D01*
X133474496Y-96770676D01*
X133630676Y-96614496D01*
X133715200Y-96410436D01*
X133715200Y-96395298D01*
X135279800Y-96395298D01*
X135279800Y-96884702D01*
X135467087Y-97336852D01*
X135813148Y-97682913D01*
X136265298Y-97870200D01*
X136754702Y-97870200D01*
X137206852Y-97682913D01*
X137224467Y-97665298D01*
X137819800Y-97665298D01*
X137819800Y-98154702D01*
X138007087Y-98606852D01*
X138353148Y-98952913D01*
X138805298Y-99140200D01*
X139294702Y-99140200D01*
X139746852Y-98952913D01*
X140092913Y-98606852D01*
X140280200Y-98154702D01*
X140280200Y-97665298D01*
X140092913Y-97213148D01*
X139746852Y-96867087D01*
X139294702Y-96679800D01*
X138805298Y-96679800D01*
X138353148Y-96867087D01*
X138007087Y-97213148D01*
X137819800Y-97665298D01*
X137224467Y-97665298D01*
X137552913Y-97336852D01*
X137740200Y-96884702D01*
X137740200Y-96395298D01*
X137552913Y-95943148D01*
X137206852Y-95597087D01*
X136754702Y-95409800D01*
X136265298Y-95409800D01*
X135813148Y-95597087D01*
X135467087Y-95943148D01*
X135279800Y-96395298D01*
X133715200Y-96395298D01*
X133715200Y-96189564D01*
X133630676Y-95985504D01*
X133474496Y-95829324D01*
X133270436Y-95744800D01*
X133179535Y-95744800D01*
X133162799Y-95728064D01*
X133162799Y-95335200D01*
X133320436Y-95335200D01*
X133524496Y-95250676D01*
X133680676Y-95094496D01*
X133765200Y-94890436D01*
X133765200Y-94669564D01*
X133680676Y-94465504D01*
X133616400Y-94401228D01*
X133616400Y-93855298D01*
X135279800Y-93855298D01*
X135279800Y-94344702D01*
X135467087Y-94796852D01*
X135813148Y-95142913D01*
X136265298Y-95330200D01*
X136754702Y-95330200D01*
X137206852Y-95142913D01*
X137224467Y-95125298D01*
X137819800Y-95125298D01*
X137819800Y-95614702D01*
X138007087Y-96066852D01*
X138353148Y-96412913D01*
X138805298Y-96600200D01*
X139294702Y-96600200D01*
X139746852Y-96412913D01*
X140092913Y-96066852D01*
X140280200Y-95614702D01*
X140280200Y-95125298D01*
X140092913Y-94673148D01*
X139746852Y-94327087D01*
X139294702Y-94139800D01*
X138805298Y-94139800D01*
X138353148Y-94327087D01*
X138007087Y-94673148D01*
X137819800Y-95125298D01*
X137224467Y-95125298D01*
X137552913Y-94796852D01*
X137740200Y-94344702D01*
X137740200Y-93855298D01*
X137552913Y-93403148D01*
X137206852Y-93057087D01*
X136754702Y-92869800D01*
X136265298Y-92869800D01*
X135813148Y-93057087D01*
X135467087Y-93403148D01*
X135279800Y-93855298D01*
X133616400Y-93855298D01*
X133616400Y-92958335D01*
X134622670Y-91952066D01*
X134656598Y-91929396D01*
X134746421Y-91794968D01*
X134770001Y-91676422D01*
X134770001Y-91676418D01*
X134777961Y-91636400D01*
X134770001Y-91596382D01*
X134770001Y-90533620D01*
X134777961Y-90493601D01*
X134776276Y-90485125D01*
X136169750Y-90485125D01*
X136169750Y-90914875D01*
X136334209Y-91311912D01*
X136638088Y-91615791D01*
X137035125Y-91780250D01*
X137464875Y-91780250D01*
X137861912Y-91615791D01*
X138165791Y-91311912D01*
X138330250Y-90914875D01*
X138330250Y-90485125D01*
X138165791Y-90088088D01*
X137861912Y-89784209D01*
X137464875Y-89619750D01*
X137035125Y-89619750D01*
X136638088Y-89784209D01*
X136334209Y-90088088D01*
X136169750Y-90485125D01*
X134776276Y-90485125D01*
X134770001Y-90453581D01*
X134770001Y-90453578D01*
X134750433Y-90355200D01*
X134746421Y-90335031D01*
X134680551Y-90236452D01*
X134694496Y-90230676D01*
X134850676Y-90074496D01*
X134935200Y-89870436D01*
X134935200Y-89779535D01*
X135234068Y-89480668D01*
X135267996Y-89457998D01*
X135290667Y-89424069D01*
X135357819Y-89323571D01*
X135364631Y-89289324D01*
X135381399Y-89205024D01*
X135381399Y-89205021D01*
X135389359Y-89165001D01*
X135381399Y-89124982D01*
X135381399Y-88519983D01*
X135467087Y-88726852D01*
X135813148Y-89072913D01*
X136265298Y-89260200D01*
X136754702Y-89260200D01*
X137206852Y-89072913D01*
X137552913Y-88726852D01*
X137740200Y-88274702D01*
X137740200Y-87785298D01*
X137552913Y-87333148D01*
X137206852Y-86987087D01*
X136754702Y-86799800D01*
X136265298Y-86799800D01*
X135813148Y-86987087D01*
X135467087Y-87333148D01*
X135381399Y-87540017D01*
X135381399Y-85979983D01*
X135467087Y-86186852D01*
X135813148Y-86532913D01*
X136265298Y-86720200D01*
X136754702Y-86720200D01*
X137206852Y-86532913D01*
X137224467Y-86515298D01*
X137819800Y-86515298D01*
X137819800Y-87004702D01*
X138007087Y-87456852D01*
X138353148Y-87802913D01*
X138805298Y-87990200D01*
X139294702Y-87990200D01*
X139746852Y-87802913D01*
X140092913Y-87456852D01*
X140280200Y-87004702D01*
X140280200Y-86515298D01*
X140092913Y-86063148D01*
X139746852Y-85717087D01*
X139294702Y-85529800D01*
X138805298Y-85529800D01*
X138353148Y-85717087D01*
X138007087Y-86063148D01*
X137819800Y-86515298D01*
X137224467Y-86515298D01*
X137552913Y-86186852D01*
X137740200Y-85734702D01*
X137740200Y-85245298D01*
X137552913Y-84793148D01*
X137206852Y-84447087D01*
X136754702Y-84259800D01*
X136265298Y-84259800D01*
X135813148Y-84447087D01*
X135467087Y-84793148D01*
X135381399Y-85000017D01*
X135381399Y-84665018D01*
X135389359Y-84624999D01*
X135381399Y-84584979D01*
X135381399Y-84584976D01*
X135357819Y-84466430D01*
X135357819Y-84466429D01*
X135313431Y-84400000D01*
X135305200Y-84387681D01*
X135305200Y-84289564D01*
X135220676Y-84085504D01*
X135064496Y-83929324D01*
X134860436Y-83844800D01*
X134639564Y-83844800D01*
X134435504Y-83929324D01*
X134279324Y-84085504D01*
X134194800Y-84289564D01*
X134194800Y-84510436D01*
X134279324Y-84714496D01*
X134435504Y-84870676D01*
X134568600Y-84925806D01*
X134568599Y-87537176D01*
X134490436Y-87504800D01*
X134399536Y-87504800D01*
X131035670Y-84140935D01*
X131012997Y-84107003D01*
X130950245Y-84065073D01*
X130814496Y-83929324D01*
X130610436Y-83844800D01*
X130389564Y-83844800D01*
X130185504Y-83929324D01*
X130180090Y-83934738D01*
X130015791Y-83538088D01*
X129711912Y-83234209D01*
X129314875Y-83069750D01*
X128885125Y-83069750D01*
X128488088Y-83234209D01*
X128184209Y-83538088D01*
X128019750Y-83935125D01*
X128019750Y-84364875D01*
X128184209Y-84761912D01*
X128488088Y-85065791D01*
X128885125Y-85230250D01*
X129314875Y-85230250D01*
X129711912Y-85065791D01*
X130015791Y-84761912D01*
X130033643Y-84718815D01*
X130162088Y-84847260D01*
X130085477Y-84878993D01*
X129929297Y-85035173D01*
X129844773Y-85239233D01*
X129844773Y-85460105D01*
X129929297Y-85664165D01*
X129983733Y-85718601D01*
X127341164Y-85718601D01*
X127472913Y-85586852D01*
X127660200Y-85134702D01*
X127660200Y-84645298D01*
X127472913Y-84193148D01*
X127126852Y-83847087D01*
X126674702Y-83659800D01*
X126185298Y-83659800D01*
X125733148Y-83847087D01*
X125387087Y-84193148D01*
X125199800Y-84645298D01*
X125199800Y-85134702D01*
X125387087Y-85586852D01*
X125733148Y-85932913D01*
X126123975Y-86094799D01*
X126089564Y-86094799D01*
X125885504Y-86179323D01*
X125885000Y-86179828D01*
X125884496Y-86179324D01*
X125680436Y-86094800D01*
X125459564Y-86094800D01*
X125255504Y-86179324D01*
X125099324Y-86335504D01*
X125014800Y-86539564D01*
X124296400Y-86539564D01*
X124296400Y-86053222D01*
X124586852Y-85932913D01*
X124932913Y-85586852D01*
X125120200Y-85134702D01*
X125120200Y-84645298D01*
X124932913Y-84193148D01*
X124586852Y-83847087D01*
X124134702Y-83659800D01*
X123645298Y-83659800D01*
X123193148Y-83847087D01*
X122847087Y-84193148D01*
X122659800Y-84645298D01*
X122659800Y-85134702D01*
X122847087Y-85586852D01*
X123193148Y-85932913D01*
X123483600Y-86053222D01*
X123483600Y-86987534D01*
X122679143Y-86183077D01*
X122656470Y-86149146D01*
X122522042Y-86059323D01*
X122403496Y-86035743D01*
X122403491Y-86035743D01*
X122363473Y-86027783D01*
X122323455Y-86035743D01*
X121798599Y-86035743D01*
X122046852Y-85932913D01*
X122392913Y-85586852D01*
X122580200Y-85134702D01*
X122580200Y-84645298D01*
X122392913Y-84193148D01*
X122046852Y-83847087D01*
X121594702Y-83659800D01*
X121105298Y-83659800D01*
X120653148Y-83847087D01*
X120307087Y-84193148D01*
X120119800Y-84645298D01*
X120119800Y-85134702D01*
X120307087Y-85586852D01*
X120653148Y-85932913D01*
X120901401Y-86035743D01*
X119830200Y-86035743D01*
X119830200Y-85864564D01*
X119745676Y-85660504D01*
X119589496Y-85504324D01*
X119385436Y-85419800D01*
X119164564Y-85419800D01*
X118960504Y-85504324D01*
X118804324Y-85660504D01*
X118719800Y-85864564D01*
X118719800Y-86035743D01*
X118679426Y-86035743D01*
X118642789Y-85999106D01*
X118438729Y-85914582D01*
X118217857Y-85914582D01*
X118180104Y-85930220D01*
X118178890Y-85927290D01*
X118022710Y-85771110D01*
X117818650Y-85686586D01*
X117597778Y-85686586D01*
X117393718Y-85771110D01*
X117237538Y-85927290D01*
X117153014Y-86131350D01*
X117153014Y-86344800D01*
X116943174Y-86344800D01*
X116739114Y-86429324D01*
X116582934Y-86585504D01*
X116576805Y-86600301D01*
X116570676Y-86585504D01*
X116414496Y-86429324D01*
X116275200Y-86371626D01*
X116275200Y-86199562D01*
X116190676Y-85995502D01*
X116034496Y-85839322D01*
X116024559Y-85835206D01*
X116272913Y-85586852D01*
X116460200Y-85134702D01*
X116460200Y-84645298D01*
X116272913Y-84193148D01*
X116014890Y-83935125D01*
X116819750Y-83935125D01*
X116819750Y-84364875D01*
X116984209Y-84761912D01*
X117288088Y-85065791D01*
X117685125Y-85230250D01*
X118114875Y-85230250D01*
X118511912Y-85065791D01*
X118815791Y-84761912D01*
X118980250Y-84364875D01*
X118980250Y-83935125D01*
X118815791Y-83538088D01*
X118511912Y-83234209D01*
X118114875Y-83069750D01*
X117685125Y-83069750D01*
X117288088Y-83234209D01*
X116984209Y-83538088D01*
X116819750Y-83935125D01*
X116014890Y-83935125D01*
X115926852Y-83847087D01*
X115474702Y-83659800D01*
X114985298Y-83659800D01*
X114533148Y-83847087D01*
X114366400Y-84013835D01*
X114366400Y-83513222D01*
X114656852Y-83392913D01*
X115002913Y-83046852D01*
X115190200Y-82594702D01*
X115190200Y-82239564D01*
X118844800Y-82239564D01*
X118844800Y-82460436D01*
X118929324Y-82664496D01*
X119085504Y-82820676D01*
X119289564Y-82905200D01*
X119510436Y-82905200D01*
X119714496Y-82820676D01*
X119870676Y-82664496D01*
X119955200Y-82460436D01*
X119955200Y-82239564D01*
X119899586Y-82105298D01*
X121389800Y-82105298D01*
X121389800Y-82594702D01*
X121577087Y-83046852D01*
X121923148Y-83392913D01*
X122375298Y-83580200D01*
X122864702Y-83580200D01*
X123316852Y-83392913D01*
X123662913Y-83046852D01*
X123850200Y-82594702D01*
X123850200Y-82105298D01*
X123929800Y-82105298D01*
X123929800Y-82594702D01*
X124117087Y-83046852D01*
X124463148Y-83392913D01*
X124915298Y-83580200D01*
X125404702Y-83580200D01*
X125856852Y-83392913D01*
X126202913Y-83046852D01*
X126344389Y-82705298D01*
X135279800Y-82705298D01*
X135279800Y-83194702D01*
X135467087Y-83646852D01*
X135813148Y-83992913D01*
X136265298Y-84180200D01*
X136754702Y-84180200D01*
X137206852Y-83992913D01*
X137224467Y-83975298D01*
X137819800Y-83975298D01*
X137819800Y-84464702D01*
X138007087Y-84916852D01*
X138353148Y-85262913D01*
X138805298Y-85450200D01*
X139294702Y-85450200D01*
X139746852Y-85262913D01*
X140092913Y-84916852D01*
X140280200Y-84464702D01*
X140280200Y-83975298D01*
X140092913Y-83523148D01*
X139746852Y-83177087D01*
X139294702Y-82989800D01*
X138805298Y-82989800D01*
X138353148Y-83177087D01*
X138007087Y-83523148D01*
X137819800Y-83975298D01*
X137224467Y-83975298D01*
X137552913Y-83646852D01*
X137740200Y-83194702D01*
X137740200Y-82705298D01*
X137552913Y-82253148D01*
X137206852Y-81907087D01*
X136754702Y-81719800D01*
X136265298Y-81719800D01*
X135813148Y-81907087D01*
X135467087Y-82253148D01*
X135279800Y-82705298D01*
X126344389Y-82705298D01*
X126390200Y-82594702D01*
X126390200Y-82105298D01*
X126202913Y-81653148D01*
X125856852Y-81307087D01*
X125404702Y-81119800D01*
X124915298Y-81119800D01*
X124463148Y-81307087D01*
X124117087Y-81653148D01*
X123929800Y-82105298D01*
X123850200Y-82105298D01*
X123662913Y-81653148D01*
X123316852Y-81307087D01*
X122864702Y-81119800D01*
X122375298Y-81119800D01*
X121923148Y-81307087D01*
X121577087Y-81653148D01*
X121389800Y-82105298D01*
X119899586Y-82105298D01*
X119870676Y-82035504D01*
X119714496Y-81879324D01*
X119510436Y-81794800D01*
X119289564Y-81794800D01*
X119085504Y-81879324D01*
X118929324Y-82035504D01*
X118844800Y-82239564D01*
X115190200Y-82239564D01*
X115190200Y-82105298D01*
X115002913Y-81653148D01*
X114656852Y-81307087D01*
X114204702Y-81119800D01*
X113715298Y-81119800D01*
X113263148Y-81307087D01*
X112917087Y-81653148D01*
X112729800Y-82105298D01*
X112729800Y-82594702D01*
X112917087Y-83046852D01*
X113263148Y-83392913D01*
X113553600Y-83513223D01*
X113553601Y-84013836D01*
X113386852Y-83847087D01*
X112934702Y-83659800D01*
X112445298Y-83659800D01*
X111993148Y-83847087D01*
X111826400Y-84013835D01*
X111826400Y-83513222D01*
X112116852Y-83392913D01*
X112462913Y-83046852D01*
X112650200Y-82594702D01*
X112650200Y-82105298D01*
X112462913Y-81653148D01*
X112116852Y-81307087D01*
X111664702Y-81119800D01*
X111175298Y-81119800D01*
X110723148Y-81307087D01*
X110377087Y-81653148D01*
X110189800Y-82105298D01*
X110189800Y-82594702D01*
X110377087Y-83046852D01*
X110723148Y-83392913D01*
X111013600Y-83513223D01*
X111013601Y-84013836D01*
X110846852Y-83847087D01*
X110394702Y-83659800D01*
X109905298Y-83659800D01*
X109453148Y-83847087D01*
X109107087Y-84193148D01*
X108919800Y-84645298D01*
X108919800Y-85134702D01*
X109107087Y-85586852D01*
X109453148Y-85932913D01*
X109905298Y-86120200D01*
X110394702Y-86120200D01*
X110685155Y-85999890D01*
X111828870Y-87143606D01*
X108028772Y-87143606D01*
X107964496Y-87079330D01*
X107760436Y-86994806D01*
X107539564Y-86994806D01*
X107335504Y-87079330D01*
X107191034Y-87223800D01*
X107148535Y-87223800D01*
X106806400Y-86881665D01*
X106806400Y-85628772D01*
X106870676Y-85564496D01*
X106955200Y-85360436D01*
X106955200Y-85139564D01*
X106870676Y-84935504D01*
X106714496Y-84779324D01*
X106510436Y-84694800D01*
X106476200Y-84694800D01*
X106476200Y-83967434D01*
X106643023Y-84134257D01*
X106874647Y-84230200D01*
X107125357Y-84230200D01*
X107356981Y-84134257D01*
X107534259Y-83956979D01*
X107620712Y-83748266D01*
X107665743Y-83856979D01*
X107843021Y-84034257D01*
X108074645Y-84130200D01*
X108325355Y-84130200D01*
X108556979Y-84034257D01*
X108734257Y-83856979D01*
X108830200Y-83625355D01*
X108830200Y-83374645D01*
X108734257Y-83143021D01*
X108556979Y-82965743D01*
X108325355Y-82869800D01*
X108074645Y-82869800D01*
X107843021Y-82965743D01*
X107665743Y-83143021D01*
X107579290Y-83351734D01*
X107534259Y-83243021D01*
X107356981Y-83065743D01*
X107125357Y-82969800D01*
X107016381Y-82969800D01*
X106476200Y-82429619D01*
X106476200Y-82091347D01*
X106844675Y-82091347D01*
X106844675Y-82312219D01*
X106929199Y-82516279D01*
X107085379Y-82672459D01*
X107289439Y-82756983D01*
X107510311Y-82756983D01*
X107714371Y-82672459D01*
X107870551Y-82516279D01*
X107955075Y-82312219D01*
X107955075Y-82091347D01*
X107870551Y-81887287D01*
X107784223Y-81800959D01*
X107870681Y-81714501D01*
X107955205Y-81510441D01*
X107955205Y-81289569D01*
X107870681Y-81085509D01*
X107714501Y-80929329D01*
X107510441Y-80844805D01*
X107289569Y-80844805D01*
X107085509Y-80929329D01*
X106929329Y-81085509D01*
X106844805Y-81289569D01*
X106844805Y-81510441D01*
X106929329Y-81714501D01*
X107015657Y-81800829D01*
X106929199Y-81887287D01*
X106844675Y-82091347D01*
X106476200Y-82091347D01*
X106476200Y-80805200D01*
X140594800Y-80805200D01*
X140594801Y-102773800D01*
G04 #@! TO.N,GND*
G36*
X120573800Y-103650000D02*
X120579600Y-103679160D01*
X120596118Y-103703882D01*
X120620840Y-103720400D01*
X120650000Y-103726200D01*
X136169800Y-103726200D01*
X136169800Y-103785436D01*
X136254324Y-103989496D01*
X136410504Y-104145676D01*
X136614564Y-104230200D01*
X136835436Y-104230200D01*
X137039496Y-104145676D01*
X137195676Y-103989496D01*
X137280200Y-103785436D01*
X137280200Y-103726200D01*
X140594801Y-103726200D01*
X140594801Y-114794800D01*
X130571436Y-114794800D01*
X130582257Y-114783979D01*
X130678200Y-114552355D01*
X130678200Y-114301645D01*
X130582257Y-114070021D01*
X130404979Y-113892743D01*
X130173355Y-113796800D01*
X129922645Y-113796800D01*
X129691021Y-113892743D01*
X129603500Y-113980264D01*
X129515979Y-113892743D01*
X129284355Y-113796800D01*
X129033645Y-113796800D01*
X128802021Y-113892743D01*
X128714500Y-113980264D01*
X128626979Y-113892743D01*
X128455700Y-113821796D01*
X128455700Y-113603145D01*
X128444584Y-113576309D01*
X128626979Y-113500757D01*
X128804257Y-113323479D01*
X128900200Y-113091855D01*
X128900200Y-112841145D01*
X128804257Y-112609521D01*
X128626979Y-112432243D01*
X128552985Y-112401593D01*
X128582700Y-112329855D01*
X128582700Y-112079145D01*
X128486757Y-111847521D01*
X128309479Y-111670243D01*
X128077855Y-111574300D01*
X127827145Y-111574300D01*
X127595521Y-111670243D01*
X127444500Y-111821264D01*
X127293479Y-111670243D01*
X127061855Y-111574300D01*
X126811145Y-111574300D01*
X126579521Y-111670243D01*
X126492000Y-111757764D01*
X126404479Y-111670243D01*
X126172855Y-111574300D01*
X125922145Y-111574300D01*
X125690521Y-111670243D01*
X125603000Y-111757764D01*
X125515479Y-111670243D01*
X125283855Y-111574300D01*
X125033145Y-111574300D01*
X124801521Y-111670243D01*
X124624243Y-111847521D01*
X124528300Y-112079145D01*
X124528300Y-112329855D01*
X124539416Y-112356691D01*
X124357021Y-112432243D01*
X124179743Y-112609521D01*
X124083800Y-112841145D01*
X124083800Y-113091855D01*
X124179743Y-113323479D01*
X124357021Y-113500757D01*
X124539416Y-113576309D01*
X124528300Y-113603145D01*
X124528300Y-113853855D01*
X124539416Y-113880691D01*
X124357021Y-113956243D01*
X124269500Y-114043764D01*
X124181979Y-113956243D01*
X123950355Y-113860300D01*
X123699645Y-113860300D01*
X123468021Y-113956243D01*
X123380500Y-114043764D01*
X123292979Y-113956243D01*
X123061355Y-113860300D01*
X122810645Y-113860300D01*
X122579021Y-113956243D01*
X122401743Y-114133521D01*
X122305800Y-114365145D01*
X122305800Y-114615855D01*
X122379922Y-114794800D01*
X95405200Y-114794800D01*
X95405200Y-113524645D01*
X101369800Y-113524645D01*
X101369800Y-113775355D01*
X101465743Y-114006979D01*
X101643021Y-114184257D01*
X101874645Y-114280200D01*
X102125355Y-114280200D01*
X102356979Y-114184257D01*
X102534257Y-114006979D01*
X102630200Y-113775355D01*
X102630200Y-113524645D01*
X102534257Y-113293021D01*
X102356979Y-113115743D01*
X102125355Y-113019800D01*
X101874645Y-113019800D01*
X101643021Y-113115743D01*
X101465743Y-113293021D01*
X101369800Y-113524645D01*
X95405200Y-113524645D01*
X95405200Y-110949545D01*
X95539564Y-111005200D01*
X95760436Y-111005200D01*
X95964496Y-110920676D01*
X96028772Y-110856400D01*
X98681995Y-110856400D01*
X99434662Y-111609068D01*
X99457333Y-111642997D01*
X99591761Y-111732820D01*
X99694800Y-111753316D01*
X99694800Y-111914036D01*
X99779324Y-112118096D01*
X99935504Y-112274276D01*
X100139564Y-112358800D01*
X100360436Y-112358800D01*
X100564496Y-112274276D01*
X100628772Y-112210000D01*
X114542708Y-112210000D01*
X114582726Y-112217960D01*
X114622744Y-112210000D01*
X114622749Y-112210000D01*
X114741295Y-112186420D01*
X114875723Y-112096597D01*
X114898396Y-112062665D01*
X119656308Y-107304754D01*
X119690237Y-107282083D01*
X119713880Y-107246700D01*
X119780059Y-107147656D01*
X119780060Y-107147655D01*
X119803640Y-107029109D01*
X119803640Y-107029104D01*
X119811600Y-106989086D01*
X119803640Y-106949068D01*
X119803640Y-106880596D01*
X119867916Y-106816320D01*
X119952440Y-106612260D01*
X119952440Y-106391388D01*
X119867916Y-106187328D01*
X119711736Y-106031148D01*
X119507676Y-105946624D01*
X119286804Y-105946624D01*
X119109611Y-106020019D01*
X119109440Y-106019848D01*
X118905380Y-105935324D01*
X118684508Y-105935324D01*
X118480448Y-106019848D01*
X118324268Y-106176028D01*
X118284647Y-106271681D01*
X118271996Y-106266441D01*
X118021286Y-106266441D01*
X117789662Y-106362384D01*
X117671641Y-106480405D01*
X117556979Y-106365743D01*
X117325355Y-106269800D01*
X117074645Y-106269800D01*
X116843021Y-106365743D01*
X116665743Y-106543021D01*
X116569800Y-106774645D01*
X116569800Y-107025355D01*
X116665743Y-107256979D01*
X116843021Y-107434257D01*
X117074645Y-107530200D01*
X117325355Y-107530200D01*
X117556979Y-107434257D01*
X117675000Y-107316236D01*
X117789662Y-107430898D01*
X117902773Y-107477751D01*
X114436925Y-110943600D01*
X103597788Y-110943600D01*
X103667250Y-110775905D01*
X103667250Y-110525195D01*
X103659796Y-110507200D01*
X106154970Y-110507200D01*
X106200000Y-110516157D01*
X106245030Y-110507200D01*
X106378391Y-110480673D01*
X106529623Y-110379623D01*
X106555132Y-110341446D01*
X115239379Y-101657200D01*
X119705706Y-101657200D01*
X119750736Y-101666157D01*
X119795766Y-101657200D01*
X119929127Y-101630673D01*
X120080359Y-101529623D01*
X120105868Y-101491446D01*
X120573800Y-101023514D01*
X120573800Y-103650000D01*
X120573800Y-103650000D01*
G37*
X120573800Y-103650000D02*
X120579600Y-103679160D01*
X120596118Y-103703882D01*
X120620840Y-103720400D01*
X120650000Y-103726200D01*
X136169800Y-103726200D01*
X136169800Y-103785436D01*
X136254324Y-103989496D01*
X136410504Y-104145676D01*
X136614564Y-104230200D01*
X136835436Y-104230200D01*
X137039496Y-104145676D01*
X137195676Y-103989496D01*
X137280200Y-103785436D01*
X137280200Y-103726200D01*
X140594801Y-103726200D01*
X140594801Y-114794800D01*
X130571436Y-114794800D01*
X130582257Y-114783979D01*
X130678200Y-114552355D01*
X130678200Y-114301645D01*
X130582257Y-114070021D01*
X130404979Y-113892743D01*
X130173355Y-113796800D01*
X129922645Y-113796800D01*
X129691021Y-113892743D01*
X129603500Y-113980264D01*
X129515979Y-113892743D01*
X129284355Y-113796800D01*
X129033645Y-113796800D01*
X128802021Y-113892743D01*
X128714500Y-113980264D01*
X128626979Y-113892743D01*
X128455700Y-113821796D01*
X128455700Y-113603145D01*
X128444584Y-113576309D01*
X128626979Y-113500757D01*
X128804257Y-113323479D01*
X128900200Y-113091855D01*
X128900200Y-112841145D01*
X128804257Y-112609521D01*
X128626979Y-112432243D01*
X128552985Y-112401593D01*
X128582700Y-112329855D01*
X128582700Y-112079145D01*
X128486757Y-111847521D01*
X128309479Y-111670243D01*
X128077855Y-111574300D01*
X127827145Y-111574300D01*
X127595521Y-111670243D01*
X127444500Y-111821264D01*
X127293479Y-111670243D01*
X127061855Y-111574300D01*
X126811145Y-111574300D01*
X126579521Y-111670243D01*
X126492000Y-111757764D01*
X126404479Y-111670243D01*
X126172855Y-111574300D01*
X125922145Y-111574300D01*
X125690521Y-111670243D01*
X125603000Y-111757764D01*
X125515479Y-111670243D01*
X125283855Y-111574300D01*
X125033145Y-111574300D01*
X124801521Y-111670243D01*
X124624243Y-111847521D01*
X124528300Y-112079145D01*
X124528300Y-112329855D01*
X124539416Y-112356691D01*
X124357021Y-112432243D01*
X124179743Y-112609521D01*
X124083800Y-112841145D01*
X124083800Y-113091855D01*
X124179743Y-113323479D01*
X124357021Y-113500757D01*
X124539416Y-113576309D01*
X124528300Y-113603145D01*
X124528300Y-113853855D01*
X124539416Y-113880691D01*
X124357021Y-113956243D01*
X124269500Y-114043764D01*
X124181979Y-113956243D01*
X123950355Y-113860300D01*
X123699645Y-113860300D01*
X123468021Y-113956243D01*
X123380500Y-114043764D01*
X123292979Y-113956243D01*
X123061355Y-113860300D01*
X122810645Y-113860300D01*
X122579021Y-113956243D01*
X122401743Y-114133521D01*
X122305800Y-114365145D01*
X122305800Y-114615855D01*
X122379922Y-114794800D01*
X95405200Y-114794800D01*
X95405200Y-113524645D01*
X101369800Y-113524645D01*
X101369800Y-113775355D01*
X101465743Y-114006979D01*
X101643021Y-114184257D01*
X101874645Y-114280200D01*
X102125355Y-114280200D01*
X102356979Y-114184257D01*
X102534257Y-114006979D01*
X102630200Y-113775355D01*
X102630200Y-113524645D01*
X102534257Y-113293021D01*
X102356979Y-113115743D01*
X102125355Y-113019800D01*
X101874645Y-113019800D01*
X101643021Y-113115743D01*
X101465743Y-113293021D01*
X101369800Y-113524645D01*
X95405200Y-113524645D01*
X95405200Y-110949545D01*
X95539564Y-111005200D01*
X95760436Y-111005200D01*
X95964496Y-110920676D01*
X96028772Y-110856400D01*
X98681995Y-110856400D01*
X99434662Y-111609068D01*
X99457333Y-111642997D01*
X99591761Y-111732820D01*
X99694800Y-111753316D01*
X99694800Y-111914036D01*
X99779324Y-112118096D01*
X99935504Y-112274276D01*
X100139564Y-112358800D01*
X100360436Y-112358800D01*
X100564496Y-112274276D01*
X100628772Y-112210000D01*
X114542708Y-112210000D01*
X114582726Y-112217960D01*
X114622744Y-112210000D01*
X114622749Y-112210000D01*
X114741295Y-112186420D01*
X114875723Y-112096597D01*
X114898396Y-112062665D01*
X119656308Y-107304754D01*
X119690237Y-107282083D01*
X119713880Y-107246700D01*
X119780059Y-107147656D01*
X119780060Y-107147655D01*
X119803640Y-107029109D01*
X119803640Y-107029104D01*
X119811600Y-106989086D01*
X119803640Y-106949068D01*
X119803640Y-106880596D01*
X119867916Y-106816320D01*
X119952440Y-106612260D01*
X119952440Y-106391388D01*
X119867916Y-106187328D01*
X119711736Y-106031148D01*
X119507676Y-105946624D01*
X119286804Y-105946624D01*
X119109611Y-106020019D01*
X119109440Y-106019848D01*
X118905380Y-105935324D01*
X118684508Y-105935324D01*
X118480448Y-106019848D01*
X118324268Y-106176028D01*
X118284647Y-106271681D01*
X118271996Y-106266441D01*
X118021286Y-106266441D01*
X117789662Y-106362384D01*
X117671641Y-106480405D01*
X117556979Y-106365743D01*
X117325355Y-106269800D01*
X117074645Y-106269800D01*
X116843021Y-106365743D01*
X116665743Y-106543021D01*
X116569800Y-106774645D01*
X116569800Y-107025355D01*
X116665743Y-107256979D01*
X116843021Y-107434257D01*
X117074645Y-107530200D01*
X117325355Y-107530200D01*
X117556979Y-107434257D01*
X117675000Y-107316236D01*
X117789662Y-107430898D01*
X117902773Y-107477751D01*
X114436925Y-110943600D01*
X103597788Y-110943600D01*
X103667250Y-110775905D01*
X103667250Y-110525195D01*
X103659796Y-110507200D01*
X106154970Y-110507200D01*
X106200000Y-110516157D01*
X106245030Y-110507200D01*
X106378391Y-110480673D01*
X106529623Y-110379623D01*
X106555132Y-110341446D01*
X115239379Y-101657200D01*
X119705706Y-101657200D01*
X119750736Y-101666157D01*
X119795766Y-101657200D01*
X119929127Y-101630673D01*
X120080359Y-101529623D01*
X120105868Y-101491446D01*
X120573800Y-101023514D01*
X120573800Y-103650000D01*
G36*
X96135504Y-81570676D02*
X96339564Y-81655200D01*
X96560436Y-81655200D01*
X96764496Y-81570676D01*
X96777972Y-81557200D01*
X104310624Y-81557200D01*
X105773800Y-83020377D01*
X105773800Y-87850000D01*
X105779600Y-87879160D01*
X105796118Y-87903882D01*
X105820840Y-87920400D01*
X105850383Y-87926199D01*
X106697208Y-87921944D01*
X107037938Y-88262674D01*
X107060610Y-88296604D01*
X107195038Y-88386427D01*
X107313584Y-88410007D01*
X107313589Y-88410007D01*
X107353607Y-88417967D01*
X107393625Y-88410007D01*
X111087675Y-88410007D01*
X113844800Y-91167133D01*
X113844800Y-91258033D01*
X113923817Y-91448799D01*
X113844800Y-91639564D01*
X113844800Y-91860436D01*
X113858206Y-91892801D01*
X112089380Y-91892801D01*
X111530200Y-91333622D01*
X111530200Y-91224645D01*
X111434257Y-90993021D01*
X111256979Y-90815743D01*
X111025355Y-90719800D01*
X110774645Y-90719800D01*
X110575000Y-90802497D01*
X110375355Y-90719800D01*
X110124645Y-90719800D01*
X109893021Y-90815743D01*
X109815964Y-90892800D01*
X109617148Y-90892800D01*
X109572118Y-90883843D01*
X109527088Y-90892800D01*
X109393727Y-90919327D01*
X109379927Y-90928548D01*
X109320676Y-90785504D01*
X109164496Y-90629324D01*
X108960436Y-90544800D01*
X108739564Y-90544800D01*
X108535504Y-90629324D01*
X108379324Y-90785504D01*
X108294800Y-90989564D01*
X108294800Y-91210436D01*
X108379324Y-91414496D01*
X108535504Y-91570676D01*
X108655259Y-91620280D01*
X106732740Y-93542800D01*
X105845029Y-93542800D01*
X105799999Y-93533843D01*
X105744563Y-93544870D01*
X105621609Y-93569327D01*
X105470377Y-93670377D01*
X105444870Y-93708551D01*
X103910622Y-95242800D01*
X103645030Y-95242800D01*
X103600000Y-95233843D01*
X103554970Y-95242800D01*
X103421609Y-95269327D01*
X103270377Y-95370377D01*
X103244870Y-95408551D01*
X99691553Y-98961869D01*
X99653376Y-98987378D01*
X99608059Y-99055200D01*
X99552326Y-99138611D01*
X99516842Y-99317001D01*
X99525799Y-99362031D01*
X99525800Y-105133107D01*
X99439355Y-105097300D01*
X99188645Y-105097300D01*
X98957021Y-105193243D01*
X98869500Y-105280764D01*
X98781979Y-105193243D01*
X98550355Y-105097300D01*
X98299645Y-105097300D01*
X98068021Y-105193243D01*
X97980500Y-105280764D01*
X97892979Y-105193243D01*
X97661355Y-105097300D01*
X97410645Y-105097300D01*
X97179021Y-105193243D01*
X97091500Y-105280764D01*
X97003979Y-105193243D01*
X96772355Y-105097300D01*
X96521645Y-105097300D01*
X96290021Y-105193243D01*
X96230193Y-105253071D01*
X96304789Y-105072980D01*
X96304789Y-104852108D01*
X96220265Y-104648048D01*
X96064085Y-104491868D01*
X95860025Y-104407344D01*
X95639153Y-104407344D01*
X95435093Y-104491868D01*
X95405200Y-104521761D01*
X95405200Y-91939564D01*
X106344800Y-91939564D01*
X106344800Y-92160436D01*
X106429324Y-92364496D01*
X106585504Y-92520676D01*
X106789564Y-92605200D01*
X107010436Y-92605200D01*
X107214496Y-92520676D01*
X107370676Y-92364496D01*
X107455200Y-92160436D01*
X107455200Y-91939564D01*
X107370676Y-91735504D01*
X107214496Y-91579324D01*
X107010436Y-91494800D01*
X106789564Y-91494800D01*
X106585504Y-91579324D01*
X106429324Y-91735504D01*
X106344800Y-91939564D01*
X95405200Y-91939564D01*
X95405200Y-81578834D01*
X95589564Y-81655200D01*
X95810436Y-81655200D01*
X96014496Y-81570676D01*
X96075000Y-81510172D01*
X96135504Y-81570676D01*
X96135504Y-81570676D01*
G37*
X96135504Y-81570676D02*
X96339564Y-81655200D01*
X96560436Y-81655200D01*
X96764496Y-81570676D01*
X96777972Y-81557200D01*
X104310624Y-81557200D01*
X105773800Y-83020377D01*
X105773800Y-87850000D01*
X105779600Y-87879160D01*
X105796118Y-87903882D01*
X105820840Y-87920400D01*
X105850383Y-87926199D01*
X106697208Y-87921944D01*
X107037938Y-88262674D01*
X107060610Y-88296604D01*
X107195038Y-88386427D01*
X107313584Y-88410007D01*
X107313589Y-88410007D01*
X107353607Y-88417967D01*
X107393625Y-88410007D01*
X111087675Y-88410007D01*
X113844800Y-91167133D01*
X113844800Y-91258033D01*
X113923817Y-91448799D01*
X113844800Y-91639564D01*
X113844800Y-91860436D01*
X113858206Y-91892801D01*
X112089380Y-91892801D01*
X111530200Y-91333622D01*
X111530200Y-91224645D01*
X111434257Y-90993021D01*
X111256979Y-90815743D01*
X111025355Y-90719800D01*
X110774645Y-90719800D01*
X110575000Y-90802497D01*
X110375355Y-90719800D01*
X110124645Y-90719800D01*
X109893021Y-90815743D01*
X109815964Y-90892800D01*
X109617148Y-90892800D01*
X109572118Y-90883843D01*
X109527088Y-90892800D01*
X109393727Y-90919327D01*
X109379927Y-90928548D01*
X109320676Y-90785504D01*
X109164496Y-90629324D01*
X108960436Y-90544800D01*
X108739564Y-90544800D01*
X108535504Y-90629324D01*
X108379324Y-90785504D01*
X108294800Y-90989564D01*
X108294800Y-91210436D01*
X108379324Y-91414496D01*
X108535504Y-91570676D01*
X108655259Y-91620280D01*
X106732740Y-93542800D01*
X105845029Y-93542800D01*
X105799999Y-93533843D01*
X105744563Y-93544870D01*
X105621609Y-93569327D01*
X105470377Y-93670377D01*
X105444870Y-93708551D01*
X103910622Y-95242800D01*
X103645030Y-95242800D01*
X103600000Y-95233843D01*
X103554970Y-95242800D01*
X103421609Y-95269327D01*
X103270377Y-95370377D01*
X103244870Y-95408551D01*
X99691553Y-98961869D01*
X99653376Y-98987378D01*
X99608059Y-99055200D01*
X99552326Y-99138611D01*
X99516842Y-99317001D01*
X99525799Y-99362031D01*
X99525800Y-105133107D01*
X99439355Y-105097300D01*
X99188645Y-105097300D01*
X98957021Y-105193243D01*
X98869500Y-105280764D01*
X98781979Y-105193243D01*
X98550355Y-105097300D01*
X98299645Y-105097300D01*
X98068021Y-105193243D01*
X97980500Y-105280764D01*
X97892979Y-105193243D01*
X97661355Y-105097300D01*
X97410645Y-105097300D01*
X97179021Y-105193243D01*
X97091500Y-105280764D01*
X97003979Y-105193243D01*
X96772355Y-105097300D01*
X96521645Y-105097300D01*
X96290021Y-105193243D01*
X96230193Y-105253071D01*
X96304789Y-105072980D01*
X96304789Y-104852108D01*
X96220265Y-104648048D01*
X96064085Y-104491868D01*
X95860025Y-104407344D01*
X95639153Y-104407344D01*
X95435093Y-104491868D01*
X95405200Y-104521761D01*
X95405200Y-91939564D01*
X106344800Y-91939564D01*
X106344800Y-92160436D01*
X106429324Y-92364496D01*
X106585504Y-92520676D01*
X106789564Y-92605200D01*
X107010436Y-92605200D01*
X107214496Y-92520676D01*
X107370676Y-92364496D01*
X107455200Y-92160436D01*
X107455200Y-91939564D01*
X107370676Y-91735504D01*
X107214496Y-91579324D01*
X107010436Y-91494800D01*
X106789564Y-91494800D01*
X106585504Y-91579324D01*
X106429324Y-91735504D01*
X106344800Y-91939564D01*
X95405200Y-91939564D01*
X95405200Y-81578834D01*
X95589564Y-81655200D01*
X95810436Y-81655200D01*
X96014496Y-81570676D01*
X96075000Y-81510172D01*
X96135504Y-81570676D01*
G04 #@! TD*
M02*
