G04 #@! TF.GenerationSoftware,KiCad,Pcbnew,(2018-01-21 revision 6b9866de8)-makepkg*
G04 #@! TF.CreationDate,2018-06-15T05:11:16+02:00*
G04 #@! TF.ProjectId,Roboy_motorboard,526F626F795F6D6F746F72626F617264,rev?*
G04 #@! TF.SameCoordinates,Original*
G04 #@! TF.FileFunction,Legend,Bot*
G04 #@! TF.FilePolarity,Positive*
%FSLAX46Y46*%
G04 Gerber Fmt 4.6, Leading zero omitted, Abs format (unit mm)*
G04 Created by KiCad (PCBNEW (2018-01-21 revision 6b9866de8)-makepkg) date 06/15/18 05:11:16*
%MOMM*%
%LPD*%
G01*
G04 APERTURE LIST*
%ADD10C,0.200000*%
%ADD11C,0.150000*%
%ADD12C,0.120000*%
%ADD13C,0.010000*%
G04 APERTURE END LIST*
D10*
X113300000Y-100800000D02*
X117100000Y-100800000D01*
X113300000Y-101300000D02*
X113300000Y-100800000D01*
D11*
X134476190Y-81435714D02*
X134514285Y-81473809D01*
X134628571Y-81511904D01*
X134704761Y-81511904D01*
X134819047Y-81473809D01*
X134895238Y-81397619D01*
X134933333Y-81321428D01*
X134971428Y-81169047D01*
X134971428Y-81054761D01*
X134933333Y-80902380D01*
X134895238Y-80826190D01*
X134819047Y-80750000D01*
X134704761Y-80711904D01*
X134628571Y-80711904D01*
X134514285Y-80750000D01*
X134476190Y-80788095D01*
X133752380Y-81511904D02*
X134133333Y-81511904D01*
X134133333Y-80711904D01*
X133485714Y-81511904D02*
X133485714Y-80711904D01*
X133028571Y-81511904D02*
X133371428Y-81054761D01*
X133028571Y-80711904D02*
X133485714Y-81169047D01*
X132450000Y-81511904D02*
X132450000Y-80711904D01*
X132259523Y-80711904D01*
X132145238Y-80750000D01*
X132069047Y-80826190D01*
X132030952Y-80902380D01*
X131992857Y-81054761D01*
X131992857Y-81169047D01*
X132030952Y-81321428D01*
X132069047Y-81397619D01*
X132145238Y-81473809D01*
X132259523Y-81511904D01*
X132450000Y-81511904D01*
X131688095Y-81283333D02*
X131307142Y-81283333D01*
X131764285Y-81511904D02*
X131497619Y-80711904D01*
X131230952Y-81511904D01*
X131078571Y-80711904D02*
X130621428Y-80711904D01*
X130850000Y-81511904D02*
X130850000Y-80711904D01*
X130392857Y-81283333D02*
X130011904Y-81283333D01*
X130469047Y-81511904D02*
X130202380Y-80711904D01*
X129935714Y-81511904D01*
X119861904Y-84088095D02*
X119861904Y-83707142D01*
X119061904Y-83707142D01*
X119861904Y-84354761D02*
X119061904Y-84354761D01*
X119861904Y-84735714D02*
X119061904Y-84735714D01*
X119861904Y-85192857D01*
X119061904Y-85192857D01*
D10*
X113300000Y-101300000D02*
X112200000Y-101300000D01*
X99900000Y-101000000D02*
X100800000Y-101000000D01*
X99900000Y-99250000D02*
X99900000Y-101000000D01*
X95900000Y-99250000D02*
X99900000Y-99250000D01*
D11*
X134120000Y-87110000D02*
X133620000Y-87110000D01*
X134120000Y-87610000D02*
X134120000Y-87110000D01*
X129520000Y-87110000D02*
X130020000Y-87110000D01*
X129520000Y-87110000D02*
X129520000Y-87610000D01*
X129520000Y-90710000D02*
X129520000Y-90210000D01*
X129520000Y-90710000D02*
X130020000Y-90710000D01*
X134120000Y-90710000D02*
X133620000Y-90710000D01*
X134120000Y-90710000D02*
X134120000Y-90210000D01*
X134120000Y-87610000D02*
X133620000Y-87110000D01*
X126775000Y-101000000D02*
X124675000Y-101000000D01*
X127550000Y-97750000D02*
X124675000Y-97750000D01*
D12*
X96117000Y-104417500D02*
X96117000Y-101957500D01*
X99717000Y-105087500D02*
X99717000Y-101957500D01*
X118940000Y-105580000D02*
X118940000Y-104650000D01*
X118940000Y-102420000D02*
X118940000Y-103350000D01*
X118940000Y-102420000D02*
X121100000Y-102420000D01*
X118940000Y-105580000D02*
X120400000Y-105580000D01*
X107331200Y-95734000D02*
X109331200Y-95734000D01*
X109331200Y-93594000D02*
X107331200Y-93594000D01*
X114800000Y-93575000D02*
X115500000Y-93575000D01*
X115500000Y-92375000D02*
X114800000Y-92375000D01*
X100099750Y-82733250D02*
X99099750Y-82733250D01*
X99099750Y-81033250D02*
X100099750Y-81033250D01*
X100099750Y-84574750D02*
X99099750Y-84574750D01*
X99099750Y-82874750D02*
X100099750Y-82874750D01*
X100099750Y-91940750D02*
X99099750Y-91940750D01*
X99099750Y-90240750D02*
X100099750Y-90240750D01*
X100099750Y-88257750D02*
X99099750Y-88257750D01*
X99099750Y-86557750D02*
X100099750Y-86557750D01*
X100099750Y-90099250D02*
X99099750Y-90099250D01*
X99099750Y-88399250D02*
X100099750Y-88399250D01*
X100099750Y-95623750D02*
X99099750Y-95623750D01*
X99099750Y-93923750D02*
X100099750Y-93923750D01*
X100099750Y-86416250D02*
X99099750Y-86416250D01*
X99099750Y-84716250D02*
X100099750Y-84716250D01*
X100099750Y-93782250D02*
X99099750Y-93782250D01*
X99099750Y-92082250D02*
X100099750Y-92082250D01*
D11*
X128725000Y-108875000D02*
X128725000Y-108825000D01*
X132875000Y-108875000D02*
X132875000Y-108730000D01*
X132875000Y-103725000D02*
X132875000Y-103870000D01*
X128725000Y-103725000D02*
X128725000Y-103870000D01*
X128725000Y-108875000D02*
X132875000Y-108875000D01*
X128725000Y-103725000D02*
X132875000Y-103725000D01*
X128725000Y-108825000D02*
X127325000Y-108825000D01*
D12*
X104253250Y-99915250D02*
X101793250Y-99915250D01*
X104923250Y-96315250D02*
X101793250Y-96315250D01*
X111174750Y-99915250D02*
X108714750Y-99915250D01*
X111844750Y-96315250D02*
X108714750Y-96315250D01*
X104189750Y-104995250D02*
X101729750Y-104995250D01*
X104859750Y-101395250D02*
X101729750Y-101395250D01*
X111174750Y-104995250D02*
X108714750Y-104995250D01*
X111844750Y-101395250D02*
X108714750Y-101395250D01*
X104177050Y-111840550D02*
X101717050Y-111840550D01*
X104847050Y-108240550D02*
X101717050Y-108240550D01*
X111705800Y-108802800D02*
X111705800Y-111262800D01*
X108105800Y-108132800D02*
X108105800Y-111262800D01*
X127610000Y-88975000D02*
X127610000Y-89510000D01*
X127610000Y-87590000D02*
X127610000Y-88125000D01*
X127610000Y-87590000D02*
X127475000Y-87590000D01*
X126225000Y-87590000D02*
X126090000Y-87590000D01*
X127610000Y-89510000D02*
X127475000Y-89510000D01*
X126090000Y-87590000D02*
X126090000Y-88125000D01*
X127660000Y-92225000D02*
X127660000Y-92760000D01*
X127660000Y-90840000D02*
X127660000Y-91375000D01*
X127660000Y-90840000D02*
X127525000Y-90840000D01*
X126275000Y-90840000D02*
X126140000Y-90840000D01*
X127660000Y-92760000D02*
X127525000Y-92760000D01*
X126140000Y-90840000D02*
X126140000Y-91375000D01*
X133575000Y-92775000D02*
X132575000Y-92775000D01*
X133575000Y-94375000D02*
X132375000Y-94375000D01*
X132200000Y-82900000D02*
G75*
G03X132200000Y-82900000I-950000J0D01*
G01*
X134950000Y-82900000D02*
G75*
G03X134950000Y-82900000I-950000J0D01*
G01*
D13*
G36*
X112621799Y-102979738D02*
X112601652Y-102981965D01*
X112584137Y-102985564D01*
X112568812Y-102991308D01*
X112555234Y-102999971D01*
X112542961Y-103012324D01*
X112531550Y-103029140D01*
X112520560Y-103051193D01*
X112509547Y-103079255D01*
X112498069Y-103114099D01*
X112485684Y-103156498D01*
X112471950Y-103207225D01*
X112456423Y-103267052D01*
X112455701Y-103269867D01*
X112438494Y-103342474D01*
X112424460Y-103414276D01*
X112413311Y-103487443D01*
X112404762Y-103564150D01*
X112398526Y-103646569D01*
X112394391Y-103734760D01*
X112393283Y-103768405D01*
X112392778Y-103794525D01*
X112393067Y-103815749D01*
X112394342Y-103834703D01*
X112396792Y-103854014D01*
X112400609Y-103876309D01*
X112405984Y-103904217D01*
X112407128Y-103910020D01*
X112423609Y-103988711D01*
X112441135Y-104063406D01*
X112459454Y-104133339D01*
X112478313Y-104197741D01*
X112497459Y-104255845D01*
X112516641Y-104306882D01*
X112535606Y-104350085D01*
X112554100Y-104384686D01*
X112571343Y-104409293D01*
X112582047Y-104422749D01*
X112596323Y-104441717D01*
X112612025Y-104463311D01*
X112622513Y-104478152D01*
X112648014Y-104512275D01*
X112671778Y-104539201D01*
X112693078Y-104558184D01*
X112710177Y-104568106D01*
X112722152Y-104570698D01*
X112739851Y-104572358D01*
X112754361Y-104572712D01*
X112770951Y-104571866D01*
X112786231Y-104569024D01*
X112803254Y-104563303D01*
X112825071Y-104553818D01*
X112834040Y-104549618D01*
X112856808Y-104537894D01*
X112878294Y-104525181D01*
X112895348Y-104513418D01*
X112901801Y-104507955D01*
X112924702Y-104479710D01*
X112944772Y-104441883D01*
X112962028Y-104394420D01*
X112976493Y-104337269D01*
X112985041Y-104291020D01*
X112987558Y-104273764D01*
X112989578Y-104255587D01*
X112991152Y-104235174D01*
X112992328Y-104211208D01*
X112993157Y-104182375D01*
X112993688Y-104147359D01*
X112993971Y-104104844D01*
X112994055Y-104053516D01*
X112994055Y-104052260D01*
X112993932Y-103995778D01*
X112993486Y-103947431D01*
X112992597Y-103905192D01*
X112991143Y-103867037D01*
X112989003Y-103830942D01*
X112986058Y-103794882D01*
X112982186Y-103756833D01*
X112977266Y-103714769D01*
X112971177Y-103666667D01*
X112970932Y-103664778D01*
X112961874Y-103607754D01*
X112949024Y-103545299D01*
X112932969Y-103479301D01*
X112914294Y-103411648D01*
X112893587Y-103344227D01*
X112871435Y-103278927D01*
X112848423Y-103217635D01*
X112825138Y-103162239D01*
X112802168Y-103114626D01*
X112796970Y-103104937D01*
X112769103Y-103060835D01*
X112738017Y-103023517D01*
X112737412Y-103022896D01*
X112714620Y-103001619D01*
X112693932Y-102987902D01*
X112672237Y-102980583D01*
X112646425Y-102978502D01*
X112621799Y-102979738D01*
X112621799Y-102979738D01*
G37*
X112621799Y-102979738D02*
X112601652Y-102981965D01*
X112584137Y-102985564D01*
X112568812Y-102991308D01*
X112555234Y-102999971D01*
X112542961Y-103012324D01*
X112531550Y-103029140D01*
X112520560Y-103051193D01*
X112509547Y-103079255D01*
X112498069Y-103114099D01*
X112485684Y-103156498D01*
X112471950Y-103207225D01*
X112456423Y-103267052D01*
X112455701Y-103269867D01*
X112438494Y-103342474D01*
X112424460Y-103414276D01*
X112413311Y-103487443D01*
X112404762Y-103564150D01*
X112398526Y-103646569D01*
X112394391Y-103734760D01*
X112393283Y-103768405D01*
X112392778Y-103794525D01*
X112393067Y-103815749D01*
X112394342Y-103834703D01*
X112396792Y-103854014D01*
X112400609Y-103876309D01*
X112405984Y-103904217D01*
X112407128Y-103910020D01*
X112423609Y-103988711D01*
X112441135Y-104063406D01*
X112459454Y-104133339D01*
X112478313Y-104197741D01*
X112497459Y-104255845D01*
X112516641Y-104306882D01*
X112535606Y-104350085D01*
X112554100Y-104384686D01*
X112571343Y-104409293D01*
X112582047Y-104422749D01*
X112596323Y-104441717D01*
X112612025Y-104463311D01*
X112622513Y-104478152D01*
X112648014Y-104512275D01*
X112671778Y-104539201D01*
X112693078Y-104558184D01*
X112710177Y-104568106D01*
X112722152Y-104570698D01*
X112739851Y-104572358D01*
X112754361Y-104572712D01*
X112770951Y-104571866D01*
X112786231Y-104569024D01*
X112803254Y-104563303D01*
X112825071Y-104553818D01*
X112834040Y-104549618D01*
X112856808Y-104537894D01*
X112878294Y-104525181D01*
X112895348Y-104513418D01*
X112901801Y-104507955D01*
X112924702Y-104479710D01*
X112944772Y-104441883D01*
X112962028Y-104394420D01*
X112976493Y-104337269D01*
X112985041Y-104291020D01*
X112987558Y-104273764D01*
X112989578Y-104255587D01*
X112991152Y-104235174D01*
X112992328Y-104211208D01*
X112993157Y-104182375D01*
X112993688Y-104147359D01*
X112993971Y-104104844D01*
X112994055Y-104053516D01*
X112994055Y-104052260D01*
X112993932Y-103995778D01*
X112993486Y-103947431D01*
X112992597Y-103905192D01*
X112991143Y-103867037D01*
X112989003Y-103830942D01*
X112986058Y-103794882D01*
X112982186Y-103756833D01*
X112977266Y-103714769D01*
X112971177Y-103666667D01*
X112970932Y-103664778D01*
X112961874Y-103607754D01*
X112949024Y-103545299D01*
X112932969Y-103479301D01*
X112914294Y-103411648D01*
X112893587Y-103344227D01*
X112871435Y-103278927D01*
X112848423Y-103217635D01*
X112825138Y-103162239D01*
X112802168Y-103114626D01*
X112796970Y-103104937D01*
X112769103Y-103060835D01*
X112738017Y-103023517D01*
X112737412Y-103022896D01*
X112714620Y-103001619D01*
X112693932Y-102987902D01*
X112672237Y-102980583D01*
X112646425Y-102978502D01*
X112621799Y-102979738D01*
D11*
X134809523Y-86011904D02*
X134809523Y-86659523D01*
X134771428Y-86735714D01*
X134733333Y-86773809D01*
X134657142Y-86811904D01*
X134504761Y-86811904D01*
X134428571Y-86773809D01*
X134390476Y-86735714D01*
X134352380Y-86659523D01*
X134352380Y-86011904D01*
X133857142Y-86354761D02*
X133933333Y-86316666D01*
X133971428Y-86278571D01*
X134009523Y-86202380D01*
X134009523Y-86164285D01*
X133971428Y-86088095D01*
X133933333Y-86050000D01*
X133857142Y-86011904D01*
X133704761Y-86011904D01*
X133628571Y-86050000D01*
X133590476Y-86088095D01*
X133552380Y-86164285D01*
X133552380Y-86202380D01*
X133590476Y-86278571D01*
X133628571Y-86316666D01*
X133704761Y-86354761D01*
X133857142Y-86354761D01*
X133933333Y-86392857D01*
X133971428Y-86430952D01*
X134009523Y-86507142D01*
X134009523Y-86659523D01*
X133971428Y-86735714D01*
X133933333Y-86773809D01*
X133857142Y-86811904D01*
X133704761Y-86811904D01*
X133628571Y-86773809D01*
X133590476Y-86735714D01*
X133552380Y-86659523D01*
X133552380Y-86507142D01*
X133590476Y-86430952D01*
X133628571Y-86392857D01*
X133704761Y-86354761D01*
X127459523Y-101311904D02*
X127459523Y-101959523D01*
X127421428Y-102035714D01*
X127383333Y-102073809D01*
X127307142Y-102111904D01*
X127154761Y-102111904D01*
X127078571Y-102073809D01*
X127040476Y-102035714D01*
X127002380Y-101959523D01*
X127002380Y-101311904D01*
X126583333Y-102111904D02*
X126430952Y-102111904D01*
X126354761Y-102073809D01*
X126316666Y-102035714D01*
X126240476Y-101921428D01*
X126202380Y-101769047D01*
X126202380Y-101464285D01*
X126240476Y-101388095D01*
X126278571Y-101350000D01*
X126354761Y-101311904D01*
X126507142Y-101311904D01*
X126583333Y-101350000D01*
X126621428Y-101388095D01*
X126659523Y-101464285D01*
X126659523Y-101654761D01*
X126621428Y-101730952D01*
X126583333Y-101769047D01*
X126507142Y-101807142D01*
X126354761Y-101807142D01*
X126278571Y-101769047D01*
X126240476Y-101730952D01*
X126202380Y-101654761D01*
X97976190Y-100888095D02*
X98052380Y-100850000D01*
X98128571Y-100773809D01*
X98242857Y-100659523D01*
X98319047Y-100621428D01*
X98395238Y-100621428D01*
X98357142Y-100811904D02*
X98433333Y-100773809D01*
X98509523Y-100697619D01*
X98547619Y-100545238D01*
X98547619Y-100278571D01*
X98509523Y-100126190D01*
X98433333Y-100050000D01*
X98357142Y-100011904D01*
X98204761Y-100011904D01*
X98128571Y-100050000D01*
X98052380Y-100126190D01*
X98014285Y-100278571D01*
X98014285Y-100545238D01*
X98052380Y-100697619D01*
X98128571Y-100773809D01*
X98204761Y-100811904D01*
X98357142Y-100811904D01*
X97747619Y-100011904D02*
X97214285Y-100011904D01*
X97557142Y-100811904D01*
X119776190Y-102038095D02*
X119852380Y-102000000D01*
X119928571Y-101923809D01*
X120042857Y-101809523D01*
X120119047Y-101771428D01*
X120195238Y-101771428D01*
X120157142Y-101961904D02*
X120233333Y-101923809D01*
X120309523Y-101847619D01*
X120347619Y-101695238D01*
X120347619Y-101428571D01*
X120309523Y-101276190D01*
X120233333Y-101200000D01*
X120157142Y-101161904D01*
X120004761Y-101161904D01*
X119928571Y-101200000D01*
X119852380Y-101276190D01*
X119814285Y-101428571D01*
X119814285Y-101695238D01*
X119852380Y-101847619D01*
X119928571Y-101923809D01*
X120004761Y-101961904D01*
X120157142Y-101961904D01*
X119357142Y-101504761D02*
X119433333Y-101466666D01*
X119471428Y-101428571D01*
X119509523Y-101352380D01*
X119509523Y-101314285D01*
X119471428Y-101238095D01*
X119433333Y-101200000D01*
X119357142Y-101161904D01*
X119204761Y-101161904D01*
X119128571Y-101200000D01*
X119090476Y-101238095D01*
X119052380Y-101314285D01*
X119052380Y-101352380D01*
X119090476Y-101428571D01*
X119128571Y-101466666D01*
X119204761Y-101504761D01*
X119357142Y-101504761D01*
X119433333Y-101542857D01*
X119471428Y-101580952D01*
X119509523Y-101657142D01*
X119509523Y-101809523D01*
X119471428Y-101885714D01*
X119433333Y-101923809D01*
X119357142Y-101961904D01*
X119204761Y-101961904D01*
X119128571Y-101923809D01*
X119090476Y-101885714D01*
X119052380Y-101809523D01*
X119052380Y-101657142D01*
X119090476Y-101580952D01*
X119128571Y-101542857D01*
X119204761Y-101504761D01*
X112314285Y-95061904D02*
X112580952Y-94680952D01*
X112771428Y-95061904D02*
X112771428Y-94261904D01*
X112466666Y-94261904D01*
X112390476Y-94300000D01*
X112352380Y-94338095D01*
X112314285Y-94414285D01*
X112314285Y-94528571D01*
X112352380Y-94604761D01*
X112390476Y-94642857D01*
X112466666Y-94680952D01*
X112771428Y-94680952D01*
X111552380Y-95061904D02*
X112009523Y-95061904D01*
X111780952Y-95061904D02*
X111780952Y-94261904D01*
X111857142Y-94376190D01*
X111933333Y-94452380D01*
X112009523Y-94490476D01*
X110828571Y-94261904D02*
X111209523Y-94261904D01*
X111247619Y-94642857D01*
X111209523Y-94604761D01*
X111133333Y-94566666D01*
X110942857Y-94566666D01*
X110866666Y-94604761D01*
X110828571Y-94642857D01*
X110790476Y-94719047D01*
X110790476Y-94909523D01*
X110828571Y-94985714D01*
X110866666Y-95023809D01*
X110942857Y-95061904D01*
X111133333Y-95061904D01*
X111209523Y-95023809D01*
X111247619Y-94985714D01*
X115933333Y-92035714D02*
X115971428Y-92073809D01*
X116085714Y-92111904D01*
X116161904Y-92111904D01*
X116276190Y-92073809D01*
X116352380Y-91997619D01*
X116390476Y-91921428D01*
X116428571Y-91769047D01*
X116428571Y-91654761D01*
X116390476Y-91502380D01*
X116352380Y-91426190D01*
X116276190Y-91350000D01*
X116161904Y-91311904D01*
X116085714Y-91311904D01*
X115971428Y-91350000D01*
X115933333Y-91388095D01*
X115247619Y-91311904D02*
X115400000Y-91311904D01*
X115476190Y-91350000D01*
X115514285Y-91388095D01*
X115590476Y-91502380D01*
X115628571Y-91654761D01*
X115628571Y-91959523D01*
X115590476Y-92035714D01*
X115552380Y-92073809D01*
X115476190Y-92111904D01*
X115323809Y-92111904D01*
X115247619Y-92073809D01*
X115209523Y-92035714D01*
X115171428Y-91959523D01*
X115171428Y-91769047D01*
X115209523Y-91692857D01*
X115247619Y-91654761D01*
X115323809Y-91616666D01*
X115476190Y-91616666D01*
X115552380Y-91654761D01*
X115590476Y-91692857D01*
X115628571Y-91769047D01*
X97064285Y-82185714D02*
X97102380Y-82223809D01*
X97216666Y-82261904D01*
X97292857Y-82261904D01*
X97407142Y-82223809D01*
X97483333Y-82147619D01*
X97521428Y-82071428D01*
X97559523Y-81919047D01*
X97559523Y-81804761D01*
X97521428Y-81652380D01*
X97483333Y-81576190D01*
X97407142Y-81500000D01*
X97292857Y-81461904D01*
X97216666Y-81461904D01*
X97102380Y-81500000D01*
X97064285Y-81538095D01*
X96759523Y-81538095D02*
X96721428Y-81500000D01*
X96645238Y-81461904D01*
X96454761Y-81461904D01*
X96378571Y-81500000D01*
X96340476Y-81538095D01*
X96302380Y-81614285D01*
X96302380Y-81690476D01*
X96340476Y-81804761D01*
X96797619Y-82261904D01*
X96302380Y-82261904D01*
X95578571Y-81461904D02*
X95959523Y-81461904D01*
X95997619Y-81842857D01*
X95959523Y-81804761D01*
X95883333Y-81766666D01*
X95692857Y-81766666D01*
X95616666Y-81804761D01*
X95578571Y-81842857D01*
X95540476Y-81919047D01*
X95540476Y-82109523D01*
X95578571Y-82185714D01*
X95616666Y-82223809D01*
X95692857Y-82261904D01*
X95883333Y-82261904D01*
X95959523Y-82223809D01*
X95997619Y-82185714D01*
X97064285Y-83985714D02*
X97102380Y-84023809D01*
X97216666Y-84061904D01*
X97292857Y-84061904D01*
X97407142Y-84023809D01*
X97483333Y-83947619D01*
X97521428Y-83871428D01*
X97559523Y-83719047D01*
X97559523Y-83604761D01*
X97521428Y-83452380D01*
X97483333Y-83376190D01*
X97407142Y-83300000D01*
X97292857Y-83261904D01*
X97216666Y-83261904D01*
X97102380Y-83300000D01*
X97064285Y-83338095D01*
X96759523Y-83338095D02*
X96721428Y-83300000D01*
X96645238Y-83261904D01*
X96454761Y-83261904D01*
X96378571Y-83300000D01*
X96340476Y-83338095D01*
X96302380Y-83414285D01*
X96302380Y-83490476D01*
X96340476Y-83604761D01*
X96797619Y-84061904D01*
X96302380Y-84061904D01*
X95616666Y-83261904D02*
X95769047Y-83261904D01*
X95845238Y-83300000D01*
X95883333Y-83338095D01*
X95959523Y-83452380D01*
X95997619Y-83604761D01*
X95997619Y-83909523D01*
X95959523Y-83985714D01*
X95921428Y-84023809D01*
X95845238Y-84061904D01*
X95692857Y-84061904D01*
X95616666Y-84023809D01*
X95578571Y-83985714D01*
X95540476Y-83909523D01*
X95540476Y-83719047D01*
X95578571Y-83642857D01*
X95616666Y-83604761D01*
X95692857Y-83566666D01*
X95845238Y-83566666D01*
X95921428Y-83604761D01*
X95959523Y-83642857D01*
X95997619Y-83719047D01*
X97064285Y-91385714D02*
X97102380Y-91423809D01*
X97216666Y-91461904D01*
X97292857Y-91461904D01*
X97407142Y-91423809D01*
X97483333Y-91347619D01*
X97521428Y-91271428D01*
X97559523Y-91119047D01*
X97559523Y-91004761D01*
X97521428Y-90852380D01*
X97483333Y-90776190D01*
X97407142Y-90700000D01*
X97292857Y-90661904D01*
X97216666Y-90661904D01*
X97102380Y-90700000D01*
X97064285Y-90738095D01*
X96759523Y-90738095D02*
X96721428Y-90700000D01*
X96645238Y-90661904D01*
X96454761Y-90661904D01*
X96378571Y-90700000D01*
X96340476Y-90738095D01*
X96302380Y-90814285D01*
X96302380Y-90890476D01*
X96340476Y-91004761D01*
X96797619Y-91461904D01*
X96302380Y-91461904D01*
X96035714Y-90661904D02*
X95502380Y-90661904D01*
X95845238Y-91461904D01*
X97064285Y-87685714D02*
X97102380Y-87723809D01*
X97216666Y-87761904D01*
X97292857Y-87761904D01*
X97407142Y-87723809D01*
X97483333Y-87647619D01*
X97521428Y-87571428D01*
X97559523Y-87419047D01*
X97559523Y-87304761D01*
X97521428Y-87152380D01*
X97483333Y-87076190D01*
X97407142Y-87000000D01*
X97292857Y-86961904D01*
X97216666Y-86961904D01*
X97102380Y-87000000D01*
X97064285Y-87038095D01*
X96759523Y-87038095D02*
X96721428Y-87000000D01*
X96645238Y-86961904D01*
X96454761Y-86961904D01*
X96378571Y-87000000D01*
X96340476Y-87038095D01*
X96302380Y-87114285D01*
X96302380Y-87190476D01*
X96340476Y-87304761D01*
X96797619Y-87761904D01*
X96302380Y-87761904D01*
X95845238Y-87304761D02*
X95921428Y-87266666D01*
X95959523Y-87228571D01*
X95997619Y-87152380D01*
X95997619Y-87114285D01*
X95959523Y-87038095D01*
X95921428Y-87000000D01*
X95845238Y-86961904D01*
X95692857Y-86961904D01*
X95616666Y-87000000D01*
X95578571Y-87038095D01*
X95540476Y-87114285D01*
X95540476Y-87152380D01*
X95578571Y-87228571D01*
X95616666Y-87266666D01*
X95692857Y-87304761D01*
X95845238Y-87304761D01*
X95921428Y-87342857D01*
X95959523Y-87380952D01*
X95997619Y-87457142D01*
X95997619Y-87609523D01*
X95959523Y-87685714D01*
X95921428Y-87723809D01*
X95845238Y-87761904D01*
X95692857Y-87761904D01*
X95616666Y-87723809D01*
X95578571Y-87685714D01*
X95540476Y-87609523D01*
X95540476Y-87457142D01*
X95578571Y-87380952D01*
X95616666Y-87342857D01*
X95692857Y-87304761D01*
X97064285Y-89535714D02*
X97102380Y-89573809D01*
X97216666Y-89611904D01*
X97292857Y-89611904D01*
X97407142Y-89573809D01*
X97483333Y-89497619D01*
X97521428Y-89421428D01*
X97559523Y-89269047D01*
X97559523Y-89154761D01*
X97521428Y-89002380D01*
X97483333Y-88926190D01*
X97407142Y-88850000D01*
X97292857Y-88811904D01*
X97216666Y-88811904D01*
X97102380Y-88850000D01*
X97064285Y-88888095D01*
X96759523Y-88888095D02*
X96721428Y-88850000D01*
X96645238Y-88811904D01*
X96454761Y-88811904D01*
X96378571Y-88850000D01*
X96340476Y-88888095D01*
X96302380Y-88964285D01*
X96302380Y-89040476D01*
X96340476Y-89154761D01*
X96797619Y-89611904D01*
X96302380Y-89611904D01*
X95921428Y-89611904D02*
X95769047Y-89611904D01*
X95692857Y-89573809D01*
X95654761Y-89535714D01*
X95578571Y-89421428D01*
X95540476Y-89269047D01*
X95540476Y-88964285D01*
X95578571Y-88888095D01*
X95616666Y-88850000D01*
X95692857Y-88811904D01*
X95845238Y-88811904D01*
X95921428Y-88850000D01*
X95959523Y-88888095D01*
X95997619Y-88964285D01*
X95997619Y-89154761D01*
X95959523Y-89230952D01*
X95921428Y-89269047D01*
X95845238Y-89307142D01*
X95692857Y-89307142D01*
X95616666Y-89269047D01*
X95578571Y-89230952D01*
X95540476Y-89154761D01*
X97064285Y-95035714D02*
X97102380Y-95073809D01*
X97216666Y-95111904D01*
X97292857Y-95111904D01*
X97407142Y-95073809D01*
X97483333Y-94997619D01*
X97521428Y-94921428D01*
X97559523Y-94769047D01*
X97559523Y-94654761D01*
X97521428Y-94502380D01*
X97483333Y-94426190D01*
X97407142Y-94350000D01*
X97292857Y-94311904D01*
X97216666Y-94311904D01*
X97102380Y-94350000D01*
X97064285Y-94388095D01*
X96797619Y-94311904D02*
X96302380Y-94311904D01*
X96569047Y-94616666D01*
X96454761Y-94616666D01*
X96378571Y-94654761D01*
X96340476Y-94692857D01*
X96302380Y-94769047D01*
X96302380Y-94959523D01*
X96340476Y-95035714D01*
X96378571Y-95073809D01*
X96454761Y-95111904D01*
X96683333Y-95111904D01*
X96759523Y-95073809D01*
X96797619Y-95035714D01*
X95807142Y-94311904D02*
X95730952Y-94311904D01*
X95654761Y-94350000D01*
X95616666Y-94388095D01*
X95578571Y-94464285D01*
X95540476Y-94616666D01*
X95540476Y-94807142D01*
X95578571Y-94959523D01*
X95616666Y-95035714D01*
X95654761Y-95073809D01*
X95730952Y-95111904D01*
X95807142Y-95111904D01*
X95883333Y-95073809D01*
X95921428Y-95035714D01*
X95959523Y-94959523D01*
X95997619Y-94807142D01*
X95997619Y-94616666D01*
X95959523Y-94464285D01*
X95921428Y-94388095D01*
X95883333Y-94350000D01*
X95807142Y-94311904D01*
X97064285Y-85835714D02*
X97102380Y-85873809D01*
X97216666Y-85911904D01*
X97292857Y-85911904D01*
X97407142Y-85873809D01*
X97483333Y-85797619D01*
X97521428Y-85721428D01*
X97559523Y-85569047D01*
X97559523Y-85454761D01*
X97521428Y-85302380D01*
X97483333Y-85226190D01*
X97407142Y-85150000D01*
X97292857Y-85111904D01*
X97216666Y-85111904D01*
X97102380Y-85150000D01*
X97064285Y-85188095D01*
X96797619Y-85111904D02*
X96302380Y-85111904D01*
X96569047Y-85416666D01*
X96454761Y-85416666D01*
X96378571Y-85454761D01*
X96340476Y-85492857D01*
X96302380Y-85569047D01*
X96302380Y-85759523D01*
X96340476Y-85835714D01*
X96378571Y-85873809D01*
X96454761Y-85911904D01*
X96683333Y-85911904D01*
X96759523Y-85873809D01*
X96797619Y-85835714D01*
X95540476Y-85911904D02*
X95997619Y-85911904D01*
X95769047Y-85911904D02*
X95769047Y-85111904D01*
X95845238Y-85226190D01*
X95921428Y-85302380D01*
X95997619Y-85340476D01*
X97064285Y-93235714D02*
X97102380Y-93273809D01*
X97216666Y-93311904D01*
X97292857Y-93311904D01*
X97407142Y-93273809D01*
X97483333Y-93197619D01*
X97521428Y-93121428D01*
X97559523Y-92969047D01*
X97559523Y-92854761D01*
X97521428Y-92702380D01*
X97483333Y-92626190D01*
X97407142Y-92550000D01*
X97292857Y-92511904D01*
X97216666Y-92511904D01*
X97102380Y-92550000D01*
X97064285Y-92588095D01*
X96797619Y-92511904D02*
X96302380Y-92511904D01*
X96569047Y-92816666D01*
X96454761Y-92816666D01*
X96378571Y-92854761D01*
X96340476Y-92892857D01*
X96302380Y-92969047D01*
X96302380Y-93159523D01*
X96340476Y-93235714D01*
X96378571Y-93273809D01*
X96454761Y-93311904D01*
X96683333Y-93311904D01*
X96759523Y-93273809D01*
X96797619Y-93235714D01*
X95997619Y-92588095D02*
X95959523Y-92550000D01*
X95883333Y-92511904D01*
X95692857Y-92511904D01*
X95616666Y-92550000D01*
X95578571Y-92588095D01*
X95540476Y-92664285D01*
X95540476Y-92740476D01*
X95578571Y-92854761D01*
X96035714Y-93311904D01*
X95540476Y-93311904D01*
X131409523Y-109361904D02*
X131409523Y-110009523D01*
X131371428Y-110085714D01*
X131333333Y-110123809D01*
X131257142Y-110161904D01*
X131104761Y-110161904D01*
X131028571Y-110123809D01*
X130990476Y-110085714D01*
X130952380Y-110009523D01*
X130952380Y-109361904D01*
X130609523Y-109438095D02*
X130571428Y-109400000D01*
X130495238Y-109361904D01*
X130304761Y-109361904D01*
X130228571Y-109400000D01*
X130190476Y-109438095D01*
X130152380Y-109514285D01*
X130152380Y-109590476D01*
X130190476Y-109704761D01*
X130647619Y-110161904D01*
X130152380Y-110161904D01*
X100838095Y-98023809D02*
X100800000Y-97947619D01*
X100723809Y-97871428D01*
X100609523Y-97757142D01*
X100571428Y-97680952D01*
X100571428Y-97604761D01*
X100761904Y-97642857D02*
X100723809Y-97566666D01*
X100647619Y-97490476D01*
X100495238Y-97452380D01*
X100228571Y-97452380D01*
X100076190Y-97490476D01*
X100000000Y-97566666D01*
X99961904Y-97642857D01*
X99961904Y-97795238D01*
X100000000Y-97871428D01*
X100076190Y-97947619D01*
X100228571Y-97985714D01*
X100495238Y-97985714D01*
X100647619Y-97947619D01*
X100723809Y-97871428D01*
X100761904Y-97795238D01*
X100761904Y-97642857D01*
X100761904Y-98747619D02*
X100761904Y-98290476D01*
X100761904Y-98519047D02*
X99961904Y-98519047D01*
X100076190Y-98442857D01*
X100152380Y-98366666D01*
X100190476Y-98290476D01*
X113038095Y-98023809D02*
X113000000Y-97947619D01*
X112923809Y-97871428D01*
X112809523Y-97757142D01*
X112771428Y-97680952D01*
X112771428Y-97604761D01*
X112961904Y-97642857D02*
X112923809Y-97566666D01*
X112847619Y-97490476D01*
X112695238Y-97452380D01*
X112428571Y-97452380D01*
X112276190Y-97490476D01*
X112200000Y-97566666D01*
X112161904Y-97642857D01*
X112161904Y-97795238D01*
X112200000Y-97871428D01*
X112276190Y-97947619D01*
X112428571Y-97985714D01*
X112695238Y-97985714D01*
X112847619Y-97947619D01*
X112923809Y-97871428D01*
X112961904Y-97795238D01*
X112961904Y-97642857D01*
X112238095Y-98290476D02*
X112200000Y-98328571D01*
X112161904Y-98404761D01*
X112161904Y-98595238D01*
X112200000Y-98671428D01*
X112238095Y-98709523D01*
X112314285Y-98747619D01*
X112390476Y-98747619D01*
X112504761Y-98709523D01*
X112961904Y-98252380D01*
X112961904Y-98747619D01*
X100838095Y-103123809D02*
X100800000Y-103047619D01*
X100723809Y-102971428D01*
X100609523Y-102857142D01*
X100571428Y-102780952D01*
X100571428Y-102704761D01*
X100761904Y-102742857D02*
X100723809Y-102666666D01*
X100647619Y-102590476D01*
X100495238Y-102552380D01*
X100228571Y-102552380D01*
X100076190Y-102590476D01*
X100000000Y-102666666D01*
X99961904Y-102742857D01*
X99961904Y-102895238D01*
X100000000Y-102971428D01*
X100076190Y-103047619D01*
X100228571Y-103085714D01*
X100495238Y-103085714D01*
X100647619Y-103047619D01*
X100723809Y-102971428D01*
X100761904Y-102895238D01*
X100761904Y-102742857D01*
X99961904Y-103352380D02*
X99961904Y-103847619D01*
X100266666Y-103580952D01*
X100266666Y-103695238D01*
X100304761Y-103771428D01*
X100342857Y-103809523D01*
X100419047Y-103847619D01*
X100609523Y-103847619D01*
X100685714Y-103809523D01*
X100723809Y-103771428D01*
X100761904Y-103695238D01*
X100761904Y-103466666D01*
X100723809Y-103390476D01*
X100685714Y-103352380D01*
X111928571Y-105642857D02*
X111900000Y-105585714D01*
X111842857Y-105528571D01*
X111757142Y-105442857D01*
X111728571Y-105385714D01*
X111728571Y-105328571D01*
X111871428Y-105357142D02*
X111842857Y-105300000D01*
X111785714Y-105242857D01*
X111671428Y-105214285D01*
X111471428Y-105214285D01*
X111357142Y-105242857D01*
X111300000Y-105300000D01*
X111271428Y-105357142D01*
X111271428Y-105471428D01*
X111300000Y-105528571D01*
X111357142Y-105585714D01*
X111471428Y-105614285D01*
X111671428Y-105614285D01*
X111785714Y-105585714D01*
X111842857Y-105528571D01*
X111871428Y-105471428D01*
X111871428Y-105357142D01*
X111471428Y-106128571D02*
X111871428Y-106128571D01*
X111242857Y-105985714D02*
X111671428Y-105842857D01*
X111671428Y-106214285D01*
X100738095Y-109973809D02*
X100700000Y-109897619D01*
X100623809Y-109821428D01*
X100509523Y-109707142D01*
X100471428Y-109630952D01*
X100471428Y-109554761D01*
X100661904Y-109592857D02*
X100623809Y-109516666D01*
X100547619Y-109440476D01*
X100395238Y-109402380D01*
X100128571Y-109402380D01*
X99976190Y-109440476D01*
X99900000Y-109516666D01*
X99861904Y-109592857D01*
X99861904Y-109745238D01*
X99900000Y-109821428D01*
X99976190Y-109897619D01*
X100128571Y-109935714D01*
X100395238Y-109935714D01*
X100547619Y-109897619D01*
X100623809Y-109821428D01*
X100661904Y-109745238D01*
X100661904Y-109592857D01*
X99861904Y-110659523D02*
X99861904Y-110278571D01*
X100242857Y-110240476D01*
X100204761Y-110278571D01*
X100166666Y-110354761D01*
X100166666Y-110545238D01*
X100204761Y-110621428D01*
X100242857Y-110659523D01*
X100319047Y-110697619D01*
X100509523Y-110697619D01*
X100585714Y-110659523D01*
X100623809Y-110621428D01*
X100661904Y-110545238D01*
X100661904Y-110354761D01*
X100623809Y-110278571D01*
X100585714Y-110240476D01*
X109976190Y-113238095D02*
X110052380Y-113200000D01*
X110128571Y-113123809D01*
X110242857Y-113009523D01*
X110319047Y-112971428D01*
X110395238Y-112971428D01*
X110357142Y-113161904D02*
X110433333Y-113123809D01*
X110509523Y-113047619D01*
X110547619Y-112895238D01*
X110547619Y-112628571D01*
X110509523Y-112476190D01*
X110433333Y-112400000D01*
X110357142Y-112361904D01*
X110204761Y-112361904D01*
X110128571Y-112400000D01*
X110052380Y-112476190D01*
X110014285Y-112628571D01*
X110014285Y-112895238D01*
X110052380Y-113047619D01*
X110128571Y-113123809D01*
X110204761Y-113161904D01*
X110357142Y-113161904D01*
X109328571Y-112361904D02*
X109480952Y-112361904D01*
X109557142Y-112400000D01*
X109595238Y-112438095D01*
X109671428Y-112552380D01*
X109709523Y-112704761D01*
X109709523Y-113009523D01*
X109671428Y-113085714D01*
X109633333Y-113123809D01*
X109557142Y-113161904D01*
X109404761Y-113161904D01*
X109328571Y-113123809D01*
X109290476Y-113085714D01*
X109252380Y-113009523D01*
X109252380Y-112819047D01*
X109290476Y-112742857D01*
X109328571Y-112704761D01*
X109404761Y-112666666D01*
X109557142Y-112666666D01*
X109633333Y-112704761D01*
X109671428Y-112742857D01*
X109709523Y-112819047D01*
X125409523Y-87311904D02*
X125409523Y-87959523D01*
X125371428Y-88035714D01*
X125333333Y-88073809D01*
X125257142Y-88111904D01*
X125104761Y-88111904D01*
X125028571Y-88073809D01*
X124990476Y-88035714D01*
X124952380Y-87959523D01*
X124952380Y-87311904D01*
X124647619Y-87311904D02*
X124152380Y-87311904D01*
X124419047Y-87616666D01*
X124304761Y-87616666D01*
X124228571Y-87654761D01*
X124190476Y-87692857D01*
X124152380Y-87769047D01*
X124152380Y-87959523D01*
X124190476Y-88035714D01*
X124228571Y-88073809D01*
X124304761Y-88111904D01*
X124533333Y-88111904D01*
X124609523Y-88073809D01*
X124647619Y-88035714D01*
X125359523Y-90561904D02*
X125359523Y-91209523D01*
X125321428Y-91285714D01*
X125283333Y-91323809D01*
X125207142Y-91361904D01*
X125054761Y-91361904D01*
X124978571Y-91323809D01*
X124940476Y-91285714D01*
X124902380Y-91209523D01*
X124902380Y-90561904D01*
X124178571Y-90828571D02*
X124178571Y-91361904D01*
X124369047Y-90523809D02*
X124559523Y-91095238D01*
X124064285Y-91095238D01*
X117633333Y-94885714D02*
X117671428Y-94923809D01*
X117785714Y-94961904D01*
X117861904Y-94961904D01*
X117976190Y-94923809D01*
X118052380Y-94847619D01*
X118090476Y-94771428D01*
X118128571Y-94619047D01*
X118128571Y-94504761D01*
X118090476Y-94352380D01*
X118052380Y-94276190D01*
X117976190Y-94200000D01*
X117861904Y-94161904D01*
X117785714Y-94161904D01*
X117671428Y-94200000D01*
X117633333Y-94238095D01*
X117366666Y-94161904D02*
X116833333Y-94161904D01*
X117176190Y-94961904D01*
X116214285Y-88985714D02*
X116252380Y-89023809D01*
X116366666Y-89061904D01*
X116442857Y-89061904D01*
X116557142Y-89023809D01*
X116633333Y-88947619D01*
X116671428Y-88871428D01*
X116709523Y-88719047D01*
X116709523Y-88604761D01*
X116671428Y-88452380D01*
X116633333Y-88376190D01*
X116557142Y-88300000D01*
X116442857Y-88261904D01*
X116366666Y-88261904D01*
X116252380Y-88300000D01*
X116214285Y-88338095D01*
X115452380Y-89061904D02*
X115909523Y-89061904D01*
X115680952Y-89061904D02*
X115680952Y-88261904D01*
X115757142Y-88376190D01*
X115833333Y-88452380D01*
X115909523Y-88490476D01*
X114690476Y-89061904D02*
X115147619Y-89061904D01*
X114919047Y-89061904D02*
X114919047Y-88261904D01*
X114995238Y-88376190D01*
X115071428Y-88452380D01*
X115147619Y-88490476D01*
X123014285Y-97085714D02*
X123052380Y-97123809D01*
X123166666Y-97161904D01*
X123242857Y-97161904D01*
X123357142Y-97123809D01*
X123433333Y-97047619D01*
X123471428Y-96971428D01*
X123509523Y-96819047D01*
X123509523Y-96704761D01*
X123471428Y-96552380D01*
X123433333Y-96476190D01*
X123357142Y-96400000D01*
X123242857Y-96361904D01*
X123166666Y-96361904D01*
X123052380Y-96400000D01*
X123014285Y-96438095D01*
X122252380Y-97161904D02*
X122709523Y-97161904D01*
X122480952Y-97161904D02*
X122480952Y-96361904D01*
X122557142Y-96476190D01*
X122633333Y-96552380D01*
X122709523Y-96590476D01*
X121947619Y-96438095D02*
X121909523Y-96400000D01*
X121833333Y-96361904D01*
X121642857Y-96361904D01*
X121566666Y-96400000D01*
X121528571Y-96438095D01*
X121490476Y-96514285D01*
X121490476Y-96590476D01*
X121528571Y-96704761D01*
X121985714Y-97161904D01*
X121490476Y-97161904D01*
X99164285Y-98935714D02*
X99202380Y-98973809D01*
X99316666Y-99011904D01*
X99392857Y-99011904D01*
X99507142Y-98973809D01*
X99583333Y-98897619D01*
X99621428Y-98821428D01*
X99659523Y-98669047D01*
X99659523Y-98554761D01*
X99621428Y-98402380D01*
X99583333Y-98326190D01*
X99507142Y-98250000D01*
X99392857Y-98211904D01*
X99316666Y-98211904D01*
X99202380Y-98250000D01*
X99164285Y-98288095D01*
X98402380Y-99011904D02*
X98859523Y-99011904D01*
X98630952Y-99011904D02*
X98630952Y-98211904D01*
X98707142Y-98326190D01*
X98783333Y-98402380D01*
X98859523Y-98440476D01*
X98135714Y-98211904D02*
X97640476Y-98211904D01*
X97907142Y-98516666D01*
X97792857Y-98516666D01*
X97716666Y-98554761D01*
X97678571Y-98592857D01*
X97640476Y-98669047D01*
X97640476Y-98859523D01*
X97678571Y-98935714D01*
X97716666Y-98973809D01*
X97792857Y-99011904D01*
X98021428Y-99011904D01*
X98097619Y-98973809D01*
X98135714Y-98935714D01*
X115785714Y-100514285D02*
X115814285Y-100542857D01*
X115900000Y-100571428D01*
X115957142Y-100571428D01*
X116042857Y-100542857D01*
X116100000Y-100485714D01*
X116128571Y-100428571D01*
X116157142Y-100314285D01*
X116157142Y-100228571D01*
X116128571Y-100114285D01*
X116100000Y-100057142D01*
X116042857Y-100000000D01*
X115957142Y-99971428D01*
X115900000Y-99971428D01*
X115814285Y-100000000D01*
X115785714Y-100028571D01*
X115214285Y-100571428D02*
X115557142Y-100571428D01*
X115385714Y-100571428D02*
X115385714Y-99971428D01*
X115442857Y-100057142D01*
X115500000Y-100114285D01*
X115557142Y-100142857D01*
X114700000Y-100171428D02*
X114700000Y-100571428D01*
X114842857Y-99942857D02*
X114985714Y-100371428D01*
X114614285Y-100371428D01*
X106914285Y-104935714D02*
X106952380Y-104973809D01*
X107066666Y-105011904D01*
X107142857Y-105011904D01*
X107257142Y-104973809D01*
X107333333Y-104897619D01*
X107371428Y-104821428D01*
X107409523Y-104669047D01*
X107409523Y-104554761D01*
X107371428Y-104402380D01*
X107333333Y-104326190D01*
X107257142Y-104250000D01*
X107142857Y-104211904D01*
X107066666Y-104211904D01*
X106952380Y-104250000D01*
X106914285Y-104288095D01*
X106152380Y-105011904D02*
X106609523Y-105011904D01*
X106380952Y-105011904D02*
X106380952Y-104211904D01*
X106457142Y-104326190D01*
X106533333Y-104402380D01*
X106609523Y-104440476D01*
X105428571Y-104211904D02*
X105809523Y-104211904D01*
X105847619Y-104592857D01*
X105809523Y-104554761D01*
X105733333Y-104516666D01*
X105542857Y-104516666D01*
X105466666Y-104554761D01*
X105428571Y-104592857D01*
X105390476Y-104669047D01*
X105390476Y-104859523D01*
X105428571Y-104935714D01*
X105466666Y-104973809D01*
X105542857Y-105011904D01*
X105733333Y-105011904D01*
X105809523Y-104973809D01*
X105847619Y-104935714D01*
X110585714Y-106264285D02*
X110614285Y-106292857D01*
X110700000Y-106321428D01*
X110757142Y-106321428D01*
X110842857Y-106292857D01*
X110900000Y-106235714D01*
X110928571Y-106178571D01*
X110957142Y-106064285D01*
X110957142Y-105978571D01*
X110928571Y-105864285D01*
X110900000Y-105807142D01*
X110842857Y-105750000D01*
X110757142Y-105721428D01*
X110700000Y-105721428D01*
X110614285Y-105750000D01*
X110585714Y-105778571D01*
X110014285Y-106321428D02*
X110357142Y-106321428D01*
X110185714Y-106321428D02*
X110185714Y-105721428D01*
X110242857Y-105807142D01*
X110300000Y-105864285D01*
X110357142Y-105892857D01*
X109500000Y-105721428D02*
X109614285Y-105721428D01*
X109671428Y-105750000D01*
X109700000Y-105778571D01*
X109757142Y-105864285D01*
X109785714Y-105978571D01*
X109785714Y-106207142D01*
X109757142Y-106264285D01*
X109728571Y-106292857D01*
X109671428Y-106321428D01*
X109557142Y-106321428D01*
X109500000Y-106292857D01*
X109471428Y-106264285D01*
X109442857Y-106207142D01*
X109442857Y-106064285D01*
X109471428Y-106007142D01*
X109500000Y-105978571D01*
X109557142Y-105950000D01*
X109671428Y-105950000D01*
X109728571Y-105978571D01*
X109757142Y-106007142D01*
X109785714Y-106064285D01*
X109235714Y-90564285D02*
X109264285Y-90592857D01*
X109350000Y-90621428D01*
X109407142Y-90621428D01*
X109492857Y-90592857D01*
X109550000Y-90535714D01*
X109578571Y-90478571D01*
X109607142Y-90364285D01*
X109607142Y-90278571D01*
X109578571Y-90164285D01*
X109550000Y-90107142D01*
X109492857Y-90050000D01*
X109407142Y-90021428D01*
X109350000Y-90021428D01*
X109264285Y-90050000D01*
X109235714Y-90078571D01*
X108664285Y-90621428D02*
X109007142Y-90621428D01*
X108835714Y-90621428D02*
X108835714Y-90021428D01*
X108892857Y-90107142D01*
X108950000Y-90164285D01*
X109007142Y-90192857D01*
X108464285Y-90021428D02*
X108064285Y-90021428D01*
X108321428Y-90621428D01*
X107164285Y-112885714D02*
X107202380Y-112923809D01*
X107316666Y-112961904D01*
X107392857Y-112961904D01*
X107507142Y-112923809D01*
X107583333Y-112847619D01*
X107621428Y-112771428D01*
X107659523Y-112619047D01*
X107659523Y-112504761D01*
X107621428Y-112352380D01*
X107583333Y-112276190D01*
X107507142Y-112200000D01*
X107392857Y-112161904D01*
X107316666Y-112161904D01*
X107202380Y-112200000D01*
X107164285Y-112238095D01*
X106402380Y-112961904D02*
X106859523Y-112961904D01*
X106630952Y-112961904D02*
X106630952Y-112161904D01*
X106707142Y-112276190D01*
X106783333Y-112352380D01*
X106859523Y-112390476D01*
X105945238Y-112504761D02*
X106021428Y-112466666D01*
X106059523Y-112428571D01*
X106097619Y-112352380D01*
X106097619Y-112314285D01*
X106059523Y-112238095D01*
X106021428Y-112200000D01*
X105945238Y-112161904D01*
X105792857Y-112161904D01*
X105716666Y-112200000D01*
X105678571Y-112238095D01*
X105640476Y-112314285D01*
X105640476Y-112352380D01*
X105678571Y-112428571D01*
X105716666Y-112466666D01*
X105792857Y-112504761D01*
X105945238Y-112504761D01*
X106021428Y-112542857D01*
X106059523Y-112580952D01*
X106097619Y-112657142D01*
X106097619Y-112809523D01*
X106059523Y-112885714D01*
X106021428Y-112923809D01*
X105945238Y-112961904D01*
X105792857Y-112961904D01*
X105716666Y-112923809D01*
X105678571Y-112885714D01*
X105640476Y-112809523D01*
X105640476Y-112657142D01*
X105678571Y-112580952D01*
X105716666Y-112542857D01*
X105792857Y-112504761D01*
X112685714Y-109935714D02*
X112723809Y-109897619D01*
X112761904Y-109783333D01*
X112761904Y-109707142D01*
X112723809Y-109592857D01*
X112647619Y-109516666D01*
X112571428Y-109478571D01*
X112419047Y-109440476D01*
X112304761Y-109440476D01*
X112152380Y-109478571D01*
X112076190Y-109516666D01*
X112000000Y-109592857D01*
X111961904Y-109707142D01*
X111961904Y-109783333D01*
X112000000Y-109897619D01*
X112038095Y-109935714D01*
X112761904Y-110697619D02*
X112761904Y-110240476D01*
X112761904Y-110469047D02*
X111961904Y-110469047D01*
X112076190Y-110392857D01*
X112152380Y-110316666D01*
X112190476Y-110240476D01*
X112761904Y-111078571D02*
X112761904Y-111230952D01*
X112723809Y-111307142D01*
X112685714Y-111345238D01*
X112571428Y-111421428D01*
X112419047Y-111459523D01*
X112114285Y-111459523D01*
X112038095Y-111421428D01*
X112000000Y-111383333D01*
X111961904Y-111307142D01*
X111961904Y-111154761D01*
X112000000Y-111078571D01*
X112038095Y-111040476D01*
X112114285Y-111002380D01*
X112304761Y-111002380D01*
X112380952Y-111040476D01*
X112419047Y-111078571D01*
X112457142Y-111154761D01*
X112457142Y-111307142D01*
X112419047Y-111383333D01*
X112380952Y-111421428D01*
X112304761Y-111459523D01*
X123314285Y-104314285D02*
X123342857Y-104285714D01*
X123371428Y-104200000D01*
X123371428Y-104142857D01*
X123342857Y-104057142D01*
X123285714Y-104000000D01*
X123228571Y-103971428D01*
X123114285Y-103942857D01*
X123028571Y-103942857D01*
X122914285Y-103971428D01*
X122857142Y-104000000D01*
X122800000Y-104057142D01*
X122771428Y-104142857D01*
X122771428Y-104200000D01*
X122800000Y-104285714D01*
X122828571Y-104314285D01*
X122828571Y-104542857D02*
X122800000Y-104571428D01*
X122771428Y-104628571D01*
X122771428Y-104771428D01*
X122800000Y-104828571D01*
X122828571Y-104857142D01*
X122885714Y-104885714D01*
X122942857Y-104885714D01*
X123028571Y-104857142D01*
X123371428Y-104514285D01*
X123371428Y-104885714D01*
X122828571Y-105114285D02*
X122800000Y-105142857D01*
X122771428Y-105200000D01*
X122771428Y-105342857D01*
X122800000Y-105400000D01*
X122828571Y-105428571D01*
X122885714Y-105457142D01*
X122942857Y-105457142D01*
X123028571Y-105428571D01*
X123371428Y-105085714D01*
X123371428Y-105457142D01*
X113461904Y-90666666D02*
X113080952Y-90400000D01*
X113461904Y-90209523D02*
X112661904Y-90209523D01*
X112661904Y-90514285D01*
X112700000Y-90590476D01*
X112738095Y-90628571D01*
X112814285Y-90666666D01*
X112928571Y-90666666D01*
X113004761Y-90628571D01*
X113042857Y-90590476D01*
X113080952Y-90514285D01*
X113080952Y-90209523D01*
X112738095Y-90971428D02*
X112700000Y-91009523D01*
X112661904Y-91085714D01*
X112661904Y-91276190D01*
X112700000Y-91352380D01*
X112738095Y-91390476D01*
X112814285Y-91428571D01*
X112890476Y-91428571D01*
X113004761Y-91390476D01*
X113461904Y-90933333D01*
X113461904Y-91428571D01*
X112361904Y-90666666D02*
X111980952Y-90400000D01*
X112361904Y-90209523D02*
X111561904Y-90209523D01*
X111561904Y-90514285D01*
X111600000Y-90590476D01*
X111638095Y-90628571D01*
X111714285Y-90666666D01*
X111828571Y-90666666D01*
X111904761Y-90628571D01*
X111942857Y-90590476D01*
X111980952Y-90514285D01*
X111980952Y-90209523D01*
X111561904Y-90933333D02*
X111561904Y-91428571D01*
X111866666Y-91161904D01*
X111866666Y-91276190D01*
X111904761Y-91352380D01*
X111942857Y-91390476D01*
X112019047Y-91428571D01*
X112209523Y-91428571D01*
X112285714Y-91390476D01*
X112323809Y-91352380D01*
X112361904Y-91276190D01*
X112361904Y-91047619D01*
X112323809Y-90971428D01*
X112285714Y-90933333D01*
X116233333Y-87961904D02*
X116500000Y-87580952D01*
X116690476Y-87961904D02*
X116690476Y-87161904D01*
X116385714Y-87161904D01*
X116309523Y-87200000D01*
X116271428Y-87238095D01*
X116233333Y-87314285D01*
X116233333Y-87428571D01*
X116271428Y-87504761D01*
X116309523Y-87542857D01*
X116385714Y-87580952D01*
X116690476Y-87580952D01*
X115547619Y-87428571D02*
X115547619Y-87961904D01*
X115738095Y-87123809D02*
X115928571Y-87695238D01*
X115433333Y-87695238D01*
X96733333Y-99011904D02*
X97000000Y-98630952D01*
X97190476Y-99011904D02*
X97190476Y-98211904D01*
X96885714Y-98211904D01*
X96809523Y-98250000D01*
X96771428Y-98288095D01*
X96733333Y-98364285D01*
X96733333Y-98478571D01*
X96771428Y-98554761D01*
X96809523Y-98592857D01*
X96885714Y-98630952D01*
X97190476Y-98630952D01*
X96009523Y-98211904D02*
X96390476Y-98211904D01*
X96428571Y-98592857D01*
X96390476Y-98554761D01*
X96314285Y-98516666D01*
X96123809Y-98516666D01*
X96047619Y-98554761D01*
X96009523Y-98592857D01*
X95971428Y-98669047D01*
X95971428Y-98859523D01*
X96009523Y-98935714D01*
X96047619Y-98973809D01*
X96123809Y-99011904D01*
X96314285Y-99011904D01*
X96390476Y-98973809D01*
X96428571Y-98935714D01*
X113900000Y-100571428D02*
X114100000Y-100285714D01*
X114242857Y-100571428D02*
X114242857Y-99971428D01*
X114014285Y-99971428D01*
X113957142Y-100000000D01*
X113928571Y-100028571D01*
X113900000Y-100085714D01*
X113900000Y-100171428D01*
X113928571Y-100228571D01*
X113957142Y-100257142D01*
X114014285Y-100285714D01*
X114242857Y-100285714D01*
X113385714Y-99971428D02*
X113500000Y-99971428D01*
X113557142Y-100000000D01*
X113585714Y-100028571D01*
X113642857Y-100114285D01*
X113671428Y-100228571D01*
X113671428Y-100457142D01*
X113642857Y-100514285D01*
X113614285Y-100542857D01*
X113557142Y-100571428D01*
X113442857Y-100571428D01*
X113385714Y-100542857D01*
X113357142Y-100514285D01*
X113328571Y-100457142D01*
X113328571Y-100314285D01*
X113357142Y-100257142D01*
X113385714Y-100228571D01*
X113442857Y-100200000D01*
X113557142Y-100200000D01*
X113614285Y-100228571D01*
X113642857Y-100257142D01*
X113671428Y-100314285D01*
X107211904Y-100006166D02*
X106830952Y-99739500D01*
X107211904Y-99549023D02*
X106411904Y-99549023D01*
X106411904Y-99853785D01*
X106450000Y-99929976D01*
X106488095Y-99968071D01*
X106564285Y-100006166D01*
X106678571Y-100006166D01*
X106754761Y-99968071D01*
X106792857Y-99929976D01*
X106830952Y-99853785D01*
X106830952Y-99549023D01*
X106411904Y-100272833D02*
X106411904Y-100806166D01*
X107211904Y-100463309D01*
X117121428Y-100000000D02*
X116835714Y-99800000D01*
X117121428Y-99657142D02*
X116521428Y-99657142D01*
X116521428Y-99885714D01*
X116550000Y-99942857D01*
X116578571Y-99971428D01*
X116635714Y-100000000D01*
X116721428Y-100000000D01*
X116778571Y-99971428D01*
X116807142Y-99942857D01*
X116835714Y-99885714D01*
X116835714Y-99657142D01*
X116778571Y-100342857D02*
X116750000Y-100285714D01*
X116721428Y-100257142D01*
X116664285Y-100228571D01*
X116635714Y-100228571D01*
X116578571Y-100257142D01*
X116550000Y-100285714D01*
X116521428Y-100342857D01*
X116521428Y-100457142D01*
X116550000Y-100514285D01*
X116578571Y-100542857D01*
X116635714Y-100571428D01*
X116664285Y-100571428D01*
X116721428Y-100542857D01*
X116750000Y-100514285D01*
X116778571Y-100457142D01*
X116778571Y-100342857D01*
X116807142Y-100285714D01*
X116835714Y-100257142D01*
X116892857Y-100228571D01*
X117007142Y-100228571D01*
X117064285Y-100257142D01*
X117092857Y-100285714D01*
X117121428Y-100342857D01*
X117121428Y-100457142D01*
X117092857Y-100514285D01*
X117064285Y-100542857D01*
X117007142Y-100571428D01*
X116892857Y-100571428D01*
X116835714Y-100542857D01*
X116807142Y-100514285D01*
X116778571Y-100457142D01*
X101883333Y-106061904D02*
X102150000Y-105680952D01*
X102340476Y-106061904D02*
X102340476Y-105261904D01*
X102035714Y-105261904D01*
X101959523Y-105300000D01*
X101921428Y-105338095D01*
X101883333Y-105414285D01*
X101883333Y-105528571D01*
X101921428Y-105604761D01*
X101959523Y-105642857D01*
X102035714Y-105680952D01*
X102340476Y-105680952D01*
X101502380Y-106061904D02*
X101350000Y-106061904D01*
X101273809Y-106023809D01*
X101235714Y-105985714D01*
X101159523Y-105871428D01*
X101121428Y-105719047D01*
X101121428Y-105414285D01*
X101159523Y-105338095D01*
X101197619Y-105300000D01*
X101273809Y-105261904D01*
X101426190Y-105261904D01*
X101502380Y-105300000D01*
X101540476Y-105338095D01*
X101578571Y-105414285D01*
X101578571Y-105604761D01*
X101540476Y-105680952D01*
X101502380Y-105719047D01*
X101426190Y-105757142D01*
X101273809Y-105757142D01*
X101197619Y-105719047D01*
X101159523Y-105680952D01*
X101121428Y-105604761D01*
X107161904Y-108985714D02*
X106780952Y-108719047D01*
X107161904Y-108528571D02*
X106361904Y-108528571D01*
X106361904Y-108833333D01*
X106400000Y-108909523D01*
X106438095Y-108947619D01*
X106514285Y-108985714D01*
X106628571Y-108985714D01*
X106704761Y-108947619D01*
X106742857Y-108909523D01*
X106780952Y-108833333D01*
X106780952Y-108528571D01*
X107161904Y-109747619D02*
X107161904Y-109290476D01*
X107161904Y-109519047D02*
X106361904Y-109519047D01*
X106476190Y-109442857D01*
X106552380Y-109366666D01*
X106590476Y-109290476D01*
X106361904Y-110242857D02*
X106361904Y-110319047D01*
X106400000Y-110395238D01*
X106438095Y-110433333D01*
X106514285Y-110471428D01*
X106666666Y-110509523D01*
X106857142Y-110509523D01*
X107009523Y-110471428D01*
X107085714Y-110433333D01*
X107123809Y-110395238D01*
X107161904Y-110319047D01*
X107161904Y-110242857D01*
X107123809Y-110166666D01*
X107085714Y-110128571D01*
X107009523Y-110090476D01*
X106857142Y-110052380D01*
X106666666Y-110052380D01*
X106514285Y-110090476D01*
X106438095Y-110128571D01*
X106400000Y-110166666D01*
X106361904Y-110242857D01*
X102264285Y-107161904D02*
X102530952Y-106780952D01*
X102721428Y-107161904D02*
X102721428Y-106361904D01*
X102416666Y-106361904D01*
X102340476Y-106400000D01*
X102302380Y-106438095D01*
X102264285Y-106514285D01*
X102264285Y-106628571D01*
X102302380Y-106704761D01*
X102340476Y-106742857D01*
X102416666Y-106780952D01*
X102721428Y-106780952D01*
X101502380Y-107161904D02*
X101959523Y-107161904D01*
X101730952Y-107161904D02*
X101730952Y-106361904D01*
X101807142Y-106476190D01*
X101883333Y-106552380D01*
X101959523Y-106590476D01*
X100740476Y-107161904D02*
X101197619Y-107161904D01*
X100969047Y-107161904D02*
X100969047Y-106361904D01*
X101045238Y-106476190D01*
X101121428Y-106552380D01*
X101197619Y-106590476D01*
X110585714Y-107471428D02*
X110785714Y-107185714D01*
X110928571Y-107471428D02*
X110928571Y-106871428D01*
X110700000Y-106871428D01*
X110642857Y-106900000D01*
X110614285Y-106928571D01*
X110585714Y-106985714D01*
X110585714Y-107071428D01*
X110614285Y-107128571D01*
X110642857Y-107157142D01*
X110700000Y-107185714D01*
X110928571Y-107185714D01*
X110014285Y-107471428D02*
X110357142Y-107471428D01*
X110185714Y-107471428D02*
X110185714Y-106871428D01*
X110242857Y-106957142D01*
X110300000Y-107014285D01*
X110357142Y-107042857D01*
X109785714Y-106928571D02*
X109757142Y-106900000D01*
X109700000Y-106871428D01*
X109557142Y-106871428D01*
X109500000Y-106900000D01*
X109471428Y-106928571D01*
X109442857Y-106985714D01*
X109442857Y-107042857D01*
X109471428Y-107128571D01*
X109814285Y-107471428D01*
X109442857Y-107471428D01*
X110685714Y-92221428D02*
X110885714Y-91935714D01*
X111028571Y-92221428D02*
X111028571Y-91621428D01*
X110800000Y-91621428D01*
X110742857Y-91650000D01*
X110714285Y-91678571D01*
X110685714Y-91735714D01*
X110685714Y-91821428D01*
X110714285Y-91878571D01*
X110742857Y-91907142D01*
X110800000Y-91935714D01*
X111028571Y-91935714D01*
X110114285Y-92221428D02*
X110457142Y-92221428D01*
X110285714Y-92221428D02*
X110285714Y-91621428D01*
X110342857Y-91707142D01*
X110400000Y-91764285D01*
X110457142Y-91792857D01*
X109914285Y-91621428D02*
X109542857Y-91621428D01*
X109742857Y-91850000D01*
X109657142Y-91850000D01*
X109600000Y-91878571D01*
X109571428Y-91907142D01*
X109542857Y-91964285D01*
X109542857Y-92107142D01*
X109571428Y-92164285D01*
X109600000Y-92192857D01*
X109657142Y-92221428D01*
X109828571Y-92221428D01*
X109885714Y-92192857D01*
X109914285Y-92164285D01*
X105885714Y-93171428D02*
X106085714Y-92885714D01*
X106228571Y-93171428D02*
X106228571Y-92571428D01*
X106000000Y-92571428D01*
X105942857Y-92600000D01*
X105914285Y-92628571D01*
X105885714Y-92685714D01*
X105885714Y-92771428D01*
X105914285Y-92828571D01*
X105942857Y-92857142D01*
X106000000Y-92885714D01*
X106228571Y-92885714D01*
X105314285Y-93171428D02*
X105657142Y-93171428D01*
X105485714Y-93171428D02*
X105485714Y-92571428D01*
X105542857Y-92657142D01*
X105600000Y-92714285D01*
X105657142Y-92742857D01*
X104800000Y-92771428D02*
X104800000Y-93171428D01*
X104942857Y-92542857D02*
X105085714Y-92971428D01*
X104714285Y-92971428D01*
X102714285Y-114761904D02*
X102980952Y-114380952D01*
X103171428Y-114761904D02*
X103171428Y-113961904D01*
X102866666Y-113961904D01*
X102790476Y-114000000D01*
X102752380Y-114038095D01*
X102714285Y-114114285D01*
X102714285Y-114228571D01*
X102752380Y-114304761D01*
X102790476Y-114342857D01*
X102866666Y-114380952D01*
X103171428Y-114380952D01*
X101952380Y-114761904D02*
X102409523Y-114761904D01*
X102180952Y-114761904D02*
X102180952Y-113961904D01*
X102257142Y-114076190D01*
X102333333Y-114152380D01*
X102409523Y-114190476D01*
X101266666Y-113961904D02*
X101419047Y-113961904D01*
X101495238Y-114000000D01*
X101533333Y-114038095D01*
X101609523Y-114152380D01*
X101647619Y-114304761D01*
X101647619Y-114609523D01*
X101609523Y-114685714D01*
X101571428Y-114723809D01*
X101495238Y-114761904D01*
X101342857Y-114761904D01*
X101266666Y-114723809D01*
X101228571Y-114685714D01*
X101190476Y-114609523D01*
X101190476Y-114419047D01*
X101228571Y-114342857D01*
X101266666Y-114304761D01*
X101342857Y-114266666D01*
X101495238Y-114266666D01*
X101571428Y-114304761D01*
X101609523Y-114342857D01*
X101647619Y-114419047D01*
X115111904Y-109935714D02*
X114730952Y-109669047D01*
X115111904Y-109478571D02*
X114311904Y-109478571D01*
X114311904Y-109783333D01*
X114350000Y-109859523D01*
X114388095Y-109897619D01*
X114464285Y-109935714D01*
X114578571Y-109935714D01*
X114654761Y-109897619D01*
X114692857Y-109859523D01*
X114730952Y-109783333D01*
X114730952Y-109478571D01*
X115111904Y-110697619D02*
X115111904Y-110240476D01*
X115111904Y-110469047D02*
X114311904Y-110469047D01*
X114426190Y-110392857D01*
X114502380Y-110316666D01*
X114540476Y-110240476D01*
X114311904Y-110964285D02*
X114311904Y-111497619D01*
X115111904Y-111154761D01*
X107164285Y-114061904D02*
X107430952Y-113680952D01*
X107621428Y-114061904D02*
X107621428Y-113261904D01*
X107316666Y-113261904D01*
X107240476Y-113300000D01*
X107202380Y-113338095D01*
X107164285Y-113414285D01*
X107164285Y-113528571D01*
X107202380Y-113604761D01*
X107240476Y-113642857D01*
X107316666Y-113680952D01*
X107621428Y-113680952D01*
X106402380Y-114061904D02*
X106859523Y-114061904D01*
X106630952Y-114061904D02*
X106630952Y-113261904D01*
X106707142Y-113376190D01*
X106783333Y-113452380D01*
X106859523Y-113490476D01*
X105945238Y-113604761D02*
X106021428Y-113566666D01*
X106059523Y-113528571D01*
X106097619Y-113452380D01*
X106097619Y-113414285D01*
X106059523Y-113338095D01*
X106021428Y-113300000D01*
X105945238Y-113261904D01*
X105792857Y-113261904D01*
X105716666Y-113300000D01*
X105678571Y-113338095D01*
X105640476Y-113414285D01*
X105640476Y-113452380D01*
X105678571Y-113528571D01*
X105716666Y-113566666D01*
X105792857Y-113604761D01*
X105945238Y-113604761D01*
X106021428Y-113642857D01*
X106059523Y-113680952D01*
X106097619Y-113757142D01*
X106097619Y-113909523D01*
X106059523Y-113985714D01*
X106021428Y-114023809D01*
X105945238Y-114061904D01*
X105792857Y-114061904D01*
X105716666Y-114023809D01*
X105678571Y-113985714D01*
X105640476Y-113909523D01*
X105640476Y-113757142D01*
X105678571Y-113680952D01*
X105716666Y-113642857D01*
X105792857Y-113604761D01*
X113911904Y-109935714D02*
X113530952Y-109669047D01*
X113911904Y-109478571D02*
X113111904Y-109478571D01*
X113111904Y-109783333D01*
X113150000Y-109859523D01*
X113188095Y-109897619D01*
X113264285Y-109935714D01*
X113378571Y-109935714D01*
X113454761Y-109897619D01*
X113492857Y-109859523D01*
X113530952Y-109783333D01*
X113530952Y-109478571D01*
X113911904Y-110697619D02*
X113911904Y-110240476D01*
X113911904Y-110469047D02*
X113111904Y-110469047D01*
X113226190Y-110392857D01*
X113302380Y-110316666D01*
X113340476Y-110240476D01*
X113911904Y-111078571D02*
X113911904Y-111230952D01*
X113873809Y-111307142D01*
X113835714Y-111345238D01*
X113721428Y-111421428D01*
X113569047Y-111459523D01*
X113264285Y-111459523D01*
X113188095Y-111421428D01*
X113150000Y-111383333D01*
X113111904Y-111307142D01*
X113111904Y-111154761D01*
X113150000Y-111078571D01*
X113188095Y-111040476D01*
X113264285Y-111002380D01*
X113454761Y-111002380D01*
X113530952Y-111040476D01*
X113569047Y-111078571D01*
X113607142Y-111154761D01*
X113607142Y-111307142D01*
X113569047Y-111383333D01*
X113530952Y-111421428D01*
X113454761Y-111459523D01*
X121814285Y-107961904D02*
X122080952Y-107580952D01*
X122271428Y-107961904D02*
X122271428Y-107161904D01*
X121966666Y-107161904D01*
X121890476Y-107200000D01*
X121852380Y-107238095D01*
X121814285Y-107314285D01*
X121814285Y-107428571D01*
X121852380Y-107504761D01*
X121890476Y-107542857D01*
X121966666Y-107580952D01*
X122271428Y-107580952D01*
X121509523Y-107238095D02*
X121471428Y-107200000D01*
X121395238Y-107161904D01*
X121204761Y-107161904D01*
X121128571Y-107200000D01*
X121090476Y-107238095D01*
X121052380Y-107314285D01*
X121052380Y-107390476D01*
X121090476Y-107504761D01*
X121547619Y-107961904D01*
X121052380Y-107961904D01*
X120557142Y-107161904D02*
X120480952Y-107161904D01*
X120404761Y-107200000D01*
X120366666Y-107238095D01*
X120328571Y-107314285D01*
X120290476Y-107466666D01*
X120290476Y-107657142D01*
X120328571Y-107809523D01*
X120366666Y-107885714D01*
X120404761Y-107923809D01*
X120480952Y-107961904D01*
X120557142Y-107961904D01*
X120633333Y-107923809D01*
X120671428Y-107885714D01*
X120709523Y-107809523D01*
X120747619Y-107657142D01*
X120747619Y-107466666D01*
X120709523Y-107314285D01*
X120671428Y-107238095D01*
X120633333Y-107200000D01*
X120557142Y-107161904D01*
X123321428Y-102114285D02*
X123035714Y-101914285D01*
X123321428Y-101771428D02*
X122721428Y-101771428D01*
X122721428Y-102000000D01*
X122750000Y-102057142D01*
X122778571Y-102085714D01*
X122835714Y-102114285D01*
X122921428Y-102114285D01*
X122978571Y-102085714D01*
X123007142Y-102057142D01*
X123035714Y-102000000D01*
X123035714Y-101771428D01*
X122778571Y-102342857D02*
X122750000Y-102371428D01*
X122721428Y-102428571D01*
X122721428Y-102571428D01*
X122750000Y-102628571D01*
X122778571Y-102657142D01*
X122835714Y-102685714D01*
X122892857Y-102685714D01*
X122978571Y-102657142D01*
X123321428Y-102314285D01*
X123321428Y-102685714D01*
X123321428Y-103257142D02*
X123321428Y-102914285D01*
X123321428Y-103085714D02*
X122721428Y-103085714D01*
X122807142Y-103028571D01*
X122864285Y-102971428D01*
X122892857Y-102914285D01*
X128921428Y-86214285D02*
X128635714Y-86014285D01*
X128921428Y-85871428D02*
X128321428Y-85871428D01*
X128321428Y-86100000D01*
X128350000Y-86157142D01*
X128378571Y-86185714D01*
X128435714Y-86214285D01*
X128521428Y-86214285D01*
X128578571Y-86185714D01*
X128607142Y-86157142D01*
X128635714Y-86100000D01*
X128635714Y-85871428D01*
X128378571Y-86442857D02*
X128350000Y-86471428D01*
X128321428Y-86528571D01*
X128321428Y-86671428D01*
X128350000Y-86728571D01*
X128378571Y-86757142D01*
X128435714Y-86785714D01*
X128492857Y-86785714D01*
X128578571Y-86757142D01*
X128921428Y-86414285D01*
X128921428Y-86785714D01*
X128378571Y-87014285D02*
X128350000Y-87042857D01*
X128321428Y-87100000D01*
X128321428Y-87242857D01*
X128350000Y-87300000D01*
X128378571Y-87328571D01*
X128435714Y-87357142D01*
X128492857Y-87357142D01*
X128578571Y-87328571D01*
X128921428Y-86985714D01*
X128921428Y-87357142D01*
X129485714Y-94121428D02*
X129685714Y-93835714D01*
X129828571Y-94121428D02*
X129828571Y-93521428D01*
X129600000Y-93521428D01*
X129542857Y-93550000D01*
X129514285Y-93578571D01*
X129485714Y-93635714D01*
X129485714Y-93721428D01*
X129514285Y-93778571D01*
X129542857Y-93807142D01*
X129600000Y-93835714D01*
X129828571Y-93835714D01*
X129257142Y-93578571D02*
X129228571Y-93550000D01*
X129171428Y-93521428D01*
X129028571Y-93521428D01*
X128971428Y-93550000D01*
X128942857Y-93578571D01*
X128914285Y-93635714D01*
X128914285Y-93692857D01*
X128942857Y-93778571D01*
X129285714Y-94121428D01*
X128914285Y-94121428D01*
X128714285Y-93521428D02*
X128342857Y-93521428D01*
X128542857Y-93750000D01*
X128457142Y-93750000D01*
X128400000Y-93778571D01*
X128371428Y-93807142D01*
X128342857Y-93864285D01*
X128342857Y-94007142D01*
X128371428Y-94064285D01*
X128400000Y-94092857D01*
X128457142Y-94121428D01*
X128628571Y-94121428D01*
X128685714Y-94092857D01*
X128714285Y-94064285D01*
X122011904Y-91335714D02*
X121630952Y-91069047D01*
X122011904Y-90878571D02*
X121211904Y-90878571D01*
X121211904Y-91183333D01*
X121250000Y-91259523D01*
X121288095Y-91297619D01*
X121364285Y-91335714D01*
X121478571Y-91335714D01*
X121554761Y-91297619D01*
X121592857Y-91259523D01*
X121630952Y-91183333D01*
X121630952Y-90878571D01*
X121288095Y-91640476D02*
X121250000Y-91678571D01*
X121211904Y-91754761D01*
X121211904Y-91945238D01*
X121250000Y-92021428D01*
X121288095Y-92059523D01*
X121364285Y-92097619D01*
X121440476Y-92097619D01*
X121554761Y-92059523D01*
X122011904Y-91602380D01*
X122011904Y-92097619D01*
X121478571Y-92783333D02*
X122011904Y-92783333D01*
X121173809Y-92592857D02*
X121745238Y-92402380D01*
X121745238Y-92897619D01*
X120585714Y-89271428D02*
X120785714Y-88985714D01*
X120928571Y-89271428D02*
X120928571Y-88671428D01*
X120700000Y-88671428D01*
X120642857Y-88700000D01*
X120614285Y-88728571D01*
X120585714Y-88785714D01*
X120585714Y-88871428D01*
X120614285Y-88928571D01*
X120642857Y-88957142D01*
X120700000Y-88985714D01*
X120928571Y-88985714D01*
X120357142Y-88728571D02*
X120328571Y-88700000D01*
X120271428Y-88671428D01*
X120128571Y-88671428D01*
X120071428Y-88700000D01*
X120042857Y-88728571D01*
X120014285Y-88785714D01*
X120014285Y-88842857D01*
X120042857Y-88928571D01*
X120385714Y-89271428D01*
X120014285Y-89271428D01*
X119471428Y-88671428D02*
X119757142Y-88671428D01*
X119785714Y-88957142D01*
X119757142Y-88928571D01*
X119700000Y-88900000D01*
X119557142Y-88900000D01*
X119500000Y-88928571D01*
X119471428Y-88957142D01*
X119442857Y-89014285D01*
X119442857Y-89157142D01*
X119471428Y-89214285D01*
X119500000Y-89242857D01*
X119557142Y-89271428D01*
X119700000Y-89271428D01*
X119757142Y-89242857D01*
X119785714Y-89214285D01*
X124835714Y-103821428D02*
X125035714Y-103535714D01*
X125178571Y-103821428D02*
X125178571Y-103221428D01*
X124950000Y-103221428D01*
X124892857Y-103250000D01*
X124864285Y-103278571D01*
X124835714Y-103335714D01*
X124835714Y-103421428D01*
X124864285Y-103478571D01*
X124892857Y-103507142D01*
X124950000Y-103535714D01*
X125178571Y-103535714D01*
X124607142Y-103278571D02*
X124578571Y-103250000D01*
X124521428Y-103221428D01*
X124378571Y-103221428D01*
X124321428Y-103250000D01*
X124292857Y-103278571D01*
X124264285Y-103335714D01*
X124264285Y-103392857D01*
X124292857Y-103478571D01*
X124635714Y-103821428D01*
X124264285Y-103821428D01*
X123750000Y-103221428D02*
X123864285Y-103221428D01*
X123921428Y-103250000D01*
X123950000Y-103278571D01*
X124007142Y-103364285D01*
X124035714Y-103478571D01*
X124035714Y-103707142D01*
X124007142Y-103764285D01*
X123978571Y-103792857D01*
X123921428Y-103821428D01*
X123807142Y-103821428D01*
X123750000Y-103792857D01*
X123721428Y-103764285D01*
X123692857Y-103707142D01*
X123692857Y-103564285D01*
X123721428Y-103507142D01*
X123750000Y-103478571D01*
X123807142Y-103450000D01*
X123921428Y-103450000D01*
X123978571Y-103478571D01*
X124007142Y-103507142D01*
X124035714Y-103564285D01*
X105564285Y-83611904D02*
X105830952Y-83230952D01*
X106021428Y-83611904D02*
X106021428Y-82811904D01*
X105716666Y-82811904D01*
X105640476Y-82850000D01*
X105602380Y-82888095D01*
X105564285Y-82964285D01*
X105564285Y-83078571D01*
X105602380Y-83154761D01*
X105640476Y-83192857D01*
X105716666Y-83230952D01*
X106021428Y-83230952D01*
X105259523Y-82888095D02*
X105221428Y-82850000D01*
X105145238Y-82811904D01*
X104954761Y-82811904D01*
X104878571Y-82850000D01*
X104840476Y-82888095D01*
X104802380Y-82964285D01*
X104802380Y-83040476D01*
X104840476Y-83154761D01*
X105297619Y-83611904D01*
X104802380Y-83611904D01*
X104535714Y-82811904D02*
X104002380Y-82811904D01*
X104345238Y-83611904D01*
X107471428Y-81364285D02*
X107185714Y-81164285D01*
X107471428Y-81021428D02*
X106871428Y-81021428D01*
X106871428Y-81250000D01*
X106900000Y-81307142D01*
X106928571Y-81335714D01*
X106985714Y-81364285D01*
X107071428Y-81364285D01*
X107128571Y-81335714D01*
X107157142Y-81307142D01*
X107185714Y-81250000D01*
X107185714Y-81021428D01*
X106928571Y-81592857D02*
X106900000Y-81621428D01*
X106871428Y-81678571D01*
X106871428Y-81821428D01*
X106900000Y-81878571D01*
X106928571Y-81907142D01*
X106985714Y-81935714D01*
X107042857Y-81935714D01*
X107128571Y-81907142D01*
X107471428Y-81564285D01*
X107471428Y-81935714D01*
X107128571Y-82278571D02*
X107100000Y-82221428D01*
X107071428Y-82192857D01*
X107014285Y-82164285D01*
X106985714Y-82164285D01*
X106928571Y-82192857D01*
X106900000Y-82221428D01*
X106871428Y-82278571D01*
X106871428Y-82392857D01*
X106900000Y-82450000D01*
X106928571Y-82478571D01*
X106985714Y-82507142D01*
X107014285Y-82507142D01*
X107071428Y-82478571D01*
X107100000Y-82450000D01*
X107128571Y-82392857D01*
X107128571Y-82278571D01*
X107157142Y-82221428D01*
X107185714Y-82192857D01*
X107242857Y-82164285D01*
X107357142Y-82164285D01*
X107414285Y-82192857D01*
X107442857Y-82221428D01*
X107471428Y-82278571D01*
X107471428Y-82392857D01*
X107442857Y-82450000D01*
X107414285Y-82478571D01*
X107357142Y-82507142D01*
X107242857Y-82507142D01*
X107185714Y-82478571D01*
X107157142Y-82450000D01*
X107128571Y-82392857D01*
X136221428Y-91414285D02*
X135935714Y-91214285D01*
X136221428Y-91071428D02*
X135621428Y-91071428D01*
X135621428Y-91300000D01*
X135650000Y-91357142D01*
X135678571Y-91385714D01*
X135735714Y-91414285D01*
X135821428Y-91414285D01*
X135878571Y-91385714D01*
X135907142Y-91357142D01*
X135935714Y-91300000D01*
X135935714Y-91071428D01*
X135621428Y-91614285D02*
X135621428Y-91985714D01*
X135850000Y-91785714D01*
X135850000Y-91871428D01*
X135878571Y-91928571D01*
X135907142Y-91957142D01*
X135964285Y-91985714D01*
X136107142Y-91985714D01*
X136164285Y-91957142D01*
X136192857Y-91928571D01*
X136221428Y-91871428D01*
X136221428Y-91700000D01*
X136192857Y-91642857D01*
X136164285Y-91614285D01*
X135678571Y-92214285D02*
X135650000Y-92242857D01*
X135621428Y-92300000D01*
X135621428Y-92442857D01*
X135650000Y-92500000D01*
X135678571Y-92528571D01*
X135735714Y-92557142D01*
X135792857Y-92557142D01*
X135878571Y-92528571D01*
X136221428Y-92185714D01*
X136221428Y-92557142D01*
X132009523Y-91961904D02*
X132009523Y-92609523D01*
X131971428Y-92685714D01*
X131933333Y-92723809D01*
X131857142Y-92761904D01*
X131704761Y-92761904D01*
X131628571Y-92723809D01*
X131590476Y-92685714D01*
X131552380Y-92609523D01*
X131552380Y-91961904D01*
X130828571Y-91961904D02*
X130980952Y-91961904D01*
X131057142Y-92000000D01*
X131095238Y-92038095D01*
X131171428Y-92152380D01*
X131209523Y-92304761D01*
X131209523Y-92609523D01*
X131171428Y-92685714D01*
X131133333Y-92723809D01*
X131057142Y-92761904D01*
X130904761Y-92761904D01*
X130828571Y-92723809D01*
X130790476Y-92685714D01*
X130752380Y-92609523D01*
X130752380Y-92419047D01*
X130790476Y-92342857D01*
X130828571Y-92304761D01*
X130904761Y-92266666D01*
X131057142Y-92266666D01*
X131133333Y-92304761D01*
X131171428Y-92342857D01*
X131209523Y-92419047D01*
X126234285Y-94835714D02*
X126272380Y-94873809D01*
X126386666Y-94911904D01*
X126462857Y-94911904D01*
X126577142Y-94873809D01*
X126653333Y-94797619D01*
X126691428Y-94721428D01*
X126729523Y-94569047D01*
X126729523Y-94454761D01*
X126691428Y-94302380D01*
X126653333Y-94226190D01*
X126577142Y-94150000D01*
X126462857Y-94111904D01*
X126386666Y-94111904D01*
X126272380Y-94150000D01*
X126234285Y-94188095D01*
X125967619Y-94111904D02*
X125472380Y-94111904D01*
X125739047Y-94416666D01*
X125624761Y-94416666D01*
X125548571Y-94454761D01*
X125510476Y-94492857D01*
X125472380Y-94569047D01*
X125472380Y-94759523D01*
X125510476Y-94835714D01*
X125548571Y-94873809D01*
X125624761Y-94911904D01*
X125853333Y-94911904D01*
X125929523Y-94873809D01*
X125967619Y-94835714D01*
X124748571Y-94111904D02*
X125129523Y-94111904D01*
X125167619Y-94492857D01*
X125129523Y-94454761D01*
X125053333Y-94416666D01*
X124862857Y-94416666D01*
X124786666Y-94454761D01*
X124748571Y-94492857D01*
X124710476Y-94569047D01*
X124710476Y-94759523D01*
X124748571Y-94835714D01*
X124786666Y-94873809D01*
X124862857Y-94911904D01*
X125053333Y-94911904D01*
X125129523Y-94873809D01*
X125167619Y-94835714D01*
X131014285Y-95714285D02*
X131042857Y-95685714D01*
X131071428Y-95600000D01*
X131071428Y-95542857D01*
X131042857Y-95457142D01*
X130985714Y-95400000D01*
X130928571Y-95371428D01*
X130814285Y-95342857D01*
X130728571Y-95342857D01*
X130614285Y-95371428D01*
X130557142Y-95400000D01*
X130500000Y-95457142D01*
X130471428Y-95542857D01*
X130471428Y-95600000D01*
X130500000Y-95685714D01*
X130528571Y-95714285D01*
X130471428Y-95914285D02*
X130471428Y-96285714D01*
X130700000Y-96085714D01*
X130700000Y-96171428D01*
X130728571Y-96228571D01*
X130757142Y-96257142D01*
X130814285Y-96285714D01*
X130957142Y-96285714D01*
X131014285Y-96257142D01*
X131042857Y-96228571D01*
X131071428Y-96171428D01*
X131071428Y-96000000D01*
X131042857Y-95942857D01*
X131014285Y-95914285D01*
X130471428Y-96800000D02*
X130471428Y-96685714D01*
X130500000Y-96628571D01*
X130528571Y-96600000D01*
X130614285Y-96542857D01*
X130728571Y-96514285D01*
X130957142Y-96514285D01*
X131014285Y-96542857D01*
X131042857Y-96571428D01*
X131071428Y-96628571D01*
X131071428Y-96742857D01*
X131042857Y-96800000D01*
X131014285Y-96828571D01*
X130957142Y-96857142D01*
X130814285Y-96857142D01*
X130757142Y-96828571D01*
X130728571Y-96800000D01*
X130700000Y-96742857D01*
X130700000Y-96628571D01*
X130728571Y-96571428D01*
X130757142Y-96542857D01*
X130814285Y-96514285D01*
X128207142Y-94321428D02*
X128207142Y-94807142D01*
X128178571Y-94864285D01*
X128150000Y-94892857D01*
X128092857Y-94921428D01*
X127978571Y-94921428D01*
X127921428Y-94892857D01*
X127892857Y-94864285D01*
X127864285Y-94807142D01*
X127864285Y-94321428D01*
X127635714Y-94321428D02*
X127235714Y-94321428D01*
X127492857Y-94921428D01*
X132485714Y-85764285D02*
X132514285Y-85792857D01*
X132600000Y-85821428D01*
X132657142Y-85821428D01*
X132742857Y-85792857D01*
X132800000Y-85735714D01*
X132828571Y-85678571D01*
X132857142Y-85564285D01*
X132857142Y-85478571D01*
X132828571Y-85364285D01*
X132800000Y-85307142D01*
X132742857Y-85250000D01*
X132657142Y-85221428D01*
X132600000Y-85221428D01*
X132514285Y-85250000D01*
X132485714Y-85278571D01*
X132285714Y-85221428D02*
X131914285Y-85221428D01*
X132114285Y-85450000D01*
X132028571Y-85450000D01*
X131971428Y-85478571D01*
X131942857Y-85507142D01*
X131914285Y-85564285D01*
X131914285Y-85707142D01*
X131942857Y-85764285D01*
X131971428Y-85792857D01*
X132028571Y-85821428D01*
X132200000Y-85821428D01*
X132257142Y-85792857D01*
X132285714Y-85764285D01*
X131714285Y-85221428D02*
X131314285Y-85221428D01*
X131571428Y-85821428D01*
X130864285Y-93664285D02*
X130892857Y-93635714D01*
X130921428Y-93550000D01*
X130921428Y-93492857D01*
X130892857Y-93407142D01*
X130835714Y-93350000D01*
X130778571Y-93321428D01*
X130664285Y-93292857D01*
X130578571Y-93292857D01*
X130464285Y-93321428D01*
X130407142Y-93350000D01*
X130350000Y-93407142D01*
X130321428Y-93492857D01*
X130321428Y-93550000D01*
X130350000Y-93635714D01*
X130378571Y-93664285D01*
X130321428Y-93864285D02*
X130321428Y-94235714D01*
X130550000Y-94035714D01*
X130550000Y-94121428D01*
X130578571Y-94178571D01*
X130607142Y-94207142D01*
X130664285Y-94235714D01*
X130807142Y-94235714D01*
X130864285Y-94207142D01*
X130892857Y-94178571D01*
X130921428Y-94121428D01*
X130921428Y-93950000D01*
X130892857Y-93892857D01*
X130864285Y-93864285D01*
X130578571Y-94578571D02*
X130550000Y-94521428D01*
X130521428Y-94492857D01*
X130464285Y-94464285D01*
X130435714Y-94464285D01*
X130378571Y-94492857D01*
X130350000Y-94521428D01*
X130321428Y-94578571D01*
X130321428Y-94692857D01*
X130350000Y-94750000D01*
X130378571Y-94778571D01*
X130435714Y-94807142D01*
X130464285Y-94807142D01*
X130521428Y-94778571D01*
X130550000Y-94750000D01*
X130578571Y-94692857D01*
X130578571Y-94578571D01*
X130607142Y-94521428D01*
X130635714Y-94492857D01*
X130692857Y-94464285D01*
X130807142Y-94464285D01*
X130864285Y-94492857D01*
X130892857Y-94521428D01*
X130921428Y-94578571D01*
X130921428Y-94692857D01*
X130892857Y-94750000D01*
X130864285Y-94778571D01*
X130807142Y-94807142D01*
X130692857Y-94807142D01*
X130635714Y-94778571D01*
X130607142Y-94750000D01*
X130578571Y-94692857D01*
X135214285Y-95389285D02*
X135242857Y-95360714D01*
X135271428Y-95275000D01*
X135271428Y-95217857D01*
X135242857Y-95132142D01*
X135185714Y-95075000D01*
X135128571Y-95046428D01*
X135014285Y-95017857D01*
X134928571Y-95017857D01*
X134814285Y-95046428D01*
X134757142Y-95075000D01*
X134700000Y-95132142D01*
X134671428Y-95217857D01*
X134671428Y-95275000D01*
X134700000Y-95360714D01*
X134728571Y-95389285D01*
X134671428Y-95589285D02*
X134671428Y-95960714D01*
X134900000Y-95760714D01*
X134900000Y-95846428D01*
X134928571Y-95903571D01*
X134957142Y-95932142D01*
X135014285Y-95960714D01*
X135157142Y-95960714D01*
X135214285Y-95932142D01*
X135242857Y-95903571D01*
X135271428Y-95846428D01*
X135271428Y-95675000D01*
X135242857Y-95617857D01*
X135214285Y-95589285D01*
X135271428Y-96246428D02*
X135271428Y-96360714D01*
X135242857Y-96417857D01*
X135214285Y-96446428D01*
X135128571Y-96503571D01*
X135014285Y-96532142D01*
X134785714Y-96532142D01*
X134728571Y-96503571D01*
X134700000Y-96475000D01*
X134671428Y-96417857D01*
X134671428Y-96303571D01*
X134700000Y-96246428D01*
X134728571Y-96217857D01*
X134785714Y-96189285D01*
X134928571Y-96189285D01*
X134985714Y-96217857D01*
X135014285Y-96246428D01*
X135042857Y-96303571D01*
X135042857Y-96417857D01*
X135014285Y-96475000D01*
X134985714Y-96503571D01*
X134928571Y-96532142D01*
X120535714Y-98710714D02*
X120573809Y-98672619D01*
X120611904Y-98558333D01*
X120611904Y-98482142D01*
X120573809Y-98367857D01*
X120497619Y-98291666D01*
X120421428Y-98253571D01*
X120269047Y-98215476D01*
X120154761Y-98215476D01*
X120002380Y-98253571D01*
X119926190Y-98291666D01*
X119850000Y-98367857D01*
X119811904Y-98482142D01*
X119811904Y-98558333D01*
X119850000Y-98672619D01*
X119888095Y-98710714D01*
X120078571Y-99396428D02*
X120611904Y-99396428D01*
X119773809Y-99205952D02*
X120345238Y-99015476D01*
X120345238Y-99510714D01*
X119811904Y-99967857D02*
X119811904Y-100044047D01*
X119850000Y-100120238D01*
X119888095Y-100158333D01*
X119964285Y-100196428D01*
X120116666Y-100234523D01*
X120307142Y-100234523D01*
X120459523Y-100196428D01*
X120535714Y-100158333D01*
X120573809Y-100120238D01*
X120611904Y-100044047D01*
X120611904Y-99967857D01*
X120573809Y-99891666D01*
X120535714Y-99853571D01*
X120459523Y-99815476D01*
X120307142Y-99777380D01*
X120116666Y-99777380D01*
X119964285Y-99815476D01*
X119888095Y-99853571D01*
X119850000Y-99891666D01*
X119811904Y-99967857D01*
X129035714Y-100835714D02*
X129073809Y-100797619D01*
X129111904Y-100683333D01*
X129111904Y-100607142D01*
X129073809Y-100492857D01*
X128997619Y-100416666D01*
X128921428Y-100378571D01*
X128769047Y-100340476D01*
X128654761Y-100340476D01*
X128502380Y-100378571D01*
X128426190Y-100416666D01*
X128350000Y-100492857D01*
X128311904Y-100607142D01*
X128311904Y-100683333D01*
X128350000Y-100797619D01*
X128388095Y-100835714D01*
X128578571Y-101521428D02*
X129111904Y-101521428D01*
X128273809Y-101330952D02*
X128845238Y-101140476D01*
X128845238Y-101635714D01*
X129111904Y-102359523D02*
X129111904Y-101902380D01*
X129111904Y-102130952D02*
X128311904Y-102130952D01*
X128426190Y-102054761D01*
X128502380Y-101978571D01*
X128540476Y-101902380D01*
M02*
