M48
METRIC,TZ
T1C0.300
T2C0.400
T3C0.800
T4C2.200
T5C0.800
T6C1.500
%
G90
G05
T1
X95650Y-110450
X95700Y-81100
X95750Y-104963
X96450Y-81100
X100250Y-111804
X103400Y-107800
X105000Y-107800
X106400Y-85250
X106900Y-92050
X107650Y-87550
X107850Y-81600
X107850Y-82250
X108000Y-87004
X108850Y-91100
X114291Y-93716
X114350Y-90402
X114350Y-89800
X114400Y-91148
X114400Y-91750
X115100Y-87100
X115100Y-87750
X115720Y-86310
X116100Y-86900
X117054Y-86900
X117708Y-86242
X118328Y-86470
X118754Y-86896
X118795Y-106491
X119275Y-85975
X119397Y-106502
X119400Y-82350
X120100Y-86900
X120800Y-86900
X121405Y-96017
X121900Y-87350
X122600Y-87350
X122845Y-92398
X122850Y-88400
X122850Y-89100
X122900Y-90170
X122900Y-91077
X123350Y-92000
X123375Y-101125
X123383Y-92668
X123525Y-97550
X123700Y-90450
X123950Y-101675
X124176Y-96000
X125500Y-89150
X125600Y-92000
X125850Y-90950
X126200Y-86650
X126300Y-90200
X126500Y-102400
X126850Y-86650
X127000Y-90200
X127500Y-86650
X127500Y-93650
X127500Y-102400
X128050Y-90300
X128050Y-90950
X128648Y-91750
X128725Y-97750
X129050Y-87650
X129250Y-91746
X129700Y-102300
X129838Y-94580
X129900Y-91750
X130150Y-96600
X130400Y-85350
X130400Y-86350
X130500Y-84400
X132060Y-91450
X132240Y-96340
X132830Y-91380
X133160Y-96300
X133210Y-94780
X133910Y-91060
X134310Y-94200
X134380Y-88060
X134380Y-89760
X134750Y-84400
X125375Y-98625
X125375Y-100125
X125725Y-99375
X126075Y-98625
X126075Y-100125
T2
X95758Y-105727
X95758Y-106617
X95758Y-107506
X96647Y-105727
X96647Y-106617
X96647Y-107506
X97536Y-105727
X97536Y-106617
X97536Y-107506
X98200Y-109150
X98200Y-109800
X98425Y-105727
X98425Y-106617
X98425Y-107506
X99314Y-105727
X99314Y-106617
X99314Y-107506
X100650Y-100650
X101854Y-87757
X101854Y-88646
X101854Y-89535
X101854Y-90424
X102000Y-113650
X102087Y-109431
X102087Y-110651
X102552Y-110046
X102616Y-88202
X102616Y-89091
X102616Y-89980
X102616Y-90868
X103037Y-109431
X103037Y-110651
X103400Y-106700
X103505Y-87757
X103505Y-88646
X103505Y-89535
X103505Y-90424
X103505Y-91313
X103505Y-92202
X103505Y-93091
X103505Y-93980
X103505Y-94869
X104394Y-83439
X104394Y-84328
X104394Y-85217
X104394Y-86106
X104394Y-91758
X104394Y-92647
X104394Y-93536
X104394Y-94424
X105283Y-83884
X105283Y-84773
X105283Y-85662
X105410Y-101537
X105410Y-102426
X105410Y-103315
X105410Y-104203
X105450Y-109200
X105601Y-96329
X105601Y-97218
X105601Y-98108
X105750Y-98750
X105878Y-107836
X106299Y-101981
X106299Y-102870
X106299Y-103759
X106299Y-104648
X106490Y-96774
X106490Y-97663
X106490Y-98489
X106807Y-99568
X106850Y-84400
X107188Y-101537
X107188Y-102426
X107188Y-103315
X107188Y-104203
X107378Y-96329
X107378Y-97218
X107378Y-98108
X107378Y-98870
X107450Y-100650
X108000Y-84400
X109085Y-97505
X109085Y-98725
X109085Y-102585
X109085Y-103805
X110035Y-97505
X110035Y-98725
X110035Y-102585
X110035Y-103805
X110250Y-91350
X110800Y-95900
X110900Y-91350
X111000Y-88575
X111000Y-89325
X111000Y-90075
X115050Y-95850
X115890Y-95850
X116881Y-89687
X116881Y-93017
X117200Y-106900
X117453Y-91211
X117850Y-97950
X117850Y-100200
X117932Y-96546
X118024Y-89687
X118024Y-93017
X118147Y-106897
X118596Y-91211
X119168Y-89687
X119168Y-93017
X119466Y-96800
X119739Y-91211
X120247Y-89687
X120247Y-93017
X120800Y-96800
X121100Y-97950
X121100Y-98950
X121100Y-100275
X122150Y-94750
X122300Y-96000
X122936Y-114491
X123000Y-94150
X123550Y-95550
X123825Y-114491
X124714Y-112967
X124714Y-114491
X125158Y-112205
X125158Y-113728
X125603Y-112967
X125603Y-114491
X126048Y-112205
X126048Y-113728
X126492Y-112967
X126492Y-114491
X126937Y-112205
X126937Y-113728
X127381Y-112967
X127381Y-114427
X127826Y-113728
X127953Y-112205
X128270Y-112967
X128270Y-114427
X129159Y-114427
X130048Y-114427
T3
X121350Y-84890
X122620Y-82350
X123890Y-84890
X110150Y-84890
X111420Y-82350
X112690Y-84890
X113960Y-82350
X115230Y-84890
X116500Y-82350
X136510Y-82950
X136510Y-85490
X136510Y-88030
X139050Y-84220
X139050Y-86760
X139050Y-89300
X125160Y-82350
X126430Y-84890
X127700Y-82350
X136510Y-94100
X136510Y-96640
X136510Y-99180
X139050Y-95370
X139050Y-97910
X139050Y-100450
T4
X97850Y-112600
X105918Y-89713
X132000Y-100550
X117800Y-112600
T5
X131140Y-88910
T6
X129100Y-84150
X117900Y-84150
X137250Y-90700
X137250Y-101850
T0
M30
