G04 #@! TF.GenerationSoftware,KiCad,Pcbnew,(2018-01-21 revision 6b9866de8)-makepkg*
G04 #@! TF.CreationDate,2018-06-15T05:11:16+02:00*
G04 #@! TF.ProjectId,Roboy_motorboard,526F626F795F6D6F746F72626F617264,rev?*
G04 #@! TF.SameCoordinates,Original*
G04 #@! TF.FileFunction,Paste,Top*
G04 #@! TF.FilePolarity,Positive*
%FSLAX46Y46*%
G04 Gerber Fmt 4.6, Leading zero omitted, Abs format (unit mm)*
G04 Created by KiCad (PCBNEW (2018-01-21 revision 6b9866de8)-makepkg) date 06/15/18 05:11:16*
%MOMM*%
%LPD*%
G01*
G04 APERTURE LIST*
%ADD10R,0.350000X1.950000*%
%ADD11R,0.650000X0.550000*%
%ADD12R,0.950000X0.950000*%
%ADD13R,0.550000X0.750000*%
%ADD14R,1.450000X2.150000*%
%ADD15R,0.850000X1.650000*%
%ADD16R,0.200000X0.650000*%
%ADD17R,0.650000X0.200000*%
%ADD18R,0.722500X0.722500*%
%ADD19R,1.200000X0.950000*%
%ADD20R,3.450000X1.950000*%
%ADD21R,5.950000X1.950000*%
%ADD22R,1.950000X3.450000*%
%ADD23R,1.950000X5.950000*%
%ADD24R,0.650000X1.250000*%
%ADD25R,3.450000X1.550000*%
%ADD26R,1.550000X2.550000*%
%ADD27R,0.300000X0.550000*%
%ADD28R,0.250000X0.500000*%
%ADD29R,0.550000X0.650000*%
%ADD30R,0.200000X0.625000*%
%ADD31R,0.625000X0.200000*%
%ADD32R,0.950000X0.620000*%
%ADD33R,0.550000X0.400000*%
G04 APERTURE END LIST*
D10*
X108050000Y-89350000D03*
X108650000Y-89350000D03*
D11*
X113840000Y-95440000D03*
X113840000Y-94440000D03*
D12*
X133275000Y-81850000D03*
X131525000Y-81850000D03*
X133275000Y-85350000D03*
X131525000Y-85350000D03*
D13*
X98781500Y-96329500D03*
X100481500Y-96329500D03*
D14*
X96431500Y-103187500D03*
X102831500Y-103187500D03*
D15*
X125750000Y-95950000D03*
X129150000Y-95950000D03*
D16*
X115782500Y-94547500D03*
X116282500Y-94547500D03*
X116782500Y-94547500D03*
X117282500Y-94547500D03*
X117782500Y-94547500D03*
X118282500Y-94547500D03*
X118782500Y-94547500D03*
X119282500Y-94547500D03*
X119782500Y-94547500D03*
X120282500Y-94547500D03*
X120782500Y-94547500D03*
X121282500Y-94547500D03*
D17*
X121932500Y-93897500D03*
X121932500Y-93397500D03*
X121932500Y-92897500D03*
X121932500Y-92397500D03*
X121932500Y-91897500D03*
X121932500Y-91397500D03*
X121932500Y-90897500D03*
X121932500Y-90397500D03*
X121932500Y-89897500D03*
X121932500Y-89397500D03*
X121932500Y-88897500D03*
X121932500Y-88397500D03*
D16*
X121282500Y-87747500D03*
X120782500Y-87747500D03*
X120282500Y-87747500D03*
X119782500Y-87747500D03*
X119282500Y-87747500D03*
X118782500Y-87747500D03*
X118282500Y-87747500D03*
X117782500Y-87747500D03*
X117282500Y-87747500D03*
X116782500Y-87747500D03*
X116282500Y-87747500D03*
X115782500Y-87747500D03*
D17*
X115132500Y-88397500D03*
X115132500Y-88897500D03*
X115132500Y-89397500D03*
X115132500Y-89897500D03*
X115132500Y-90397500D03*
X115132500Y-90897500D03*
X115132500Y-91397500D03*
X115132500Y-91897500D03*
X115132500Y-92397500D03*
X115132500Y-92897500D03*
X115132500Y-93397500D03*
X115132500Y-93897500D03*
D18*
X120463750Y-89216250D03*
X119176250Y-89216250D03*
X117888750Y-89216250D03*
X116601250Y-89216250D03*
X120463750Y-90503750D03*
X119176250Y-90503750D03*
X117888750Y-90503750D03*
X116601250Y-90503750D03*
X120463750Y-91791250D03*
X119176250Y-91791250D03*
X117888750Y-91791250D03*
X116601250Y-91791250D03*
X120463750Y-93078750D03*
X119176250Y-93078750D03*
X117888750Y-93078750D03*
X116601250Y-93078750D03*
D19*
X102171500Y-98409000D03*
X102171500Y-96409000D03*
D20*
X122500000Y-105000000D03*
D21*
X131750000Y-105000000D03*
X131750000Y-109000000D03*
D20*
X122500000Y-109000000D03*
D21*
X131750000Y-113000000D03*
D20*
X122500000Y-113000000D03*
D22*
X101631500Y-93261000D03*
D23*
X101631500Y-84011000D03*
X97631500Y-84011000D03*
D22*
X97631500Y-93261000D03*
D24*
X98359000Y-98298000D03*
X96459000Y-98298000D03*
D25*
X104025000Y-111400000D03*
X109425000Y-111400000D03*
D26*
X110600000Y-92800000D03*
X110600000Y-89200000D03*
D27*
X96385500Y-109664500D03*
D28*
X97035500Y-109664500D03*
D27*
X99625000Y-109400000D03*
D28*
X98975000Y-109400000D03*
D11*
X120150000Y-98950000D03*
X120150000Y-97950000D03*
X118750000Y-97950000D03*
X118750000Y-98950000D03*
D29*
X111625000Y-95050000D03*
X112625000Y-95050000D03*
X116050000Y-96850000D03*
X117050000Y-96850000D03*
D11*
X107150000Y-85850000D03*
X107150000Y-86850000D03*
X113575000Y-87400000D03*
X113575000Y-88400000D03*
X113575000Y-89400000D03*
X113575000Y-90400000D03*
D29*
X99639500Y-97599500D03*
X100639500Y-97599500D03*
D11*
X113575000Y-91450000D03*
X113575000Y-92450000D03*
D29*
X131550000Y-95450000D03*
X132550000Y-95450000D03*
D11*
X124000000Y-93450000D03*
X124000000Y-94450000D03*
D29*
X105846500Y-106616500D03*
X104846500Y-106616500D03*
D30*
X132050000Y-92237500D03*
X131550000Y-92237500D03*
X132550000Y-92237500D03*
X131550000Y-94262500D03*
X132050000Y-94262500D03*
X132550000Y-94262500D03*
D31*
X130787500Y-92500000D03*
X130787500Y-93000000D03*
X130787500Y-93500000D03*
X130787500Y-94000000D03*
X133312500Y-94000000D03*
X133312500Y-93500000D03*
X133312500Y-93000000D03*
X133312500Y-92500000D03*
D32*
X122600000Y-99300000D03*
X122600000Y-97550000D03*
D33*
X105100000Y-81600000D03*
X106700000Y-81600000D03*
X106700000Y-82200000D03*
X105100000Y-82200000D03*
M02*
