G04 #@! TF.GenerationSoftware,KiCad,Pcbnew,(2018-01-21 revision 6b9866de8)-makepkg*
G04 #@! TF.CreationDate,2018-06-15T05:11:16+02:00*
G04 #@! TF.ProjectId,Roboy_motorboard,526F626F795F6D6F746F72626F617264,rev?*
G04 #@! TF.SameCoordinates,Original*
G04 #@! TF.FileFunction,Soldermask,Top*
G04 #@! TF.FilePolarity,Negative*
%FSLAX46Y46*%
G04 Gerber Fmt 4.6, Leading zero omitted, Abs format (unit mm)*
G04 Created by KiCad (PCBNEW (2018-01-21 revision 6b9866de8)-makepkg) date 06/15/18 05:11:16*
%MOMM*%
%LPD*%
G01*
G04 APERTURE LIST*
%ADD10C,0.150000*%
%ADD11C,0.820000*%
%ADD12C,0.652400*%
%ADD13C,3.952400*%
%ADD14R,0.852400X0.752400*%
%ADD15R,1.152400X1.152400*%
%ADD16R,0.752400X0.952400*%
%ADD17R,1.652400X2.352400*%
%ADD18R,1.052400X1.852400*%
%ADD19R,0.402400X0.852400*%
%ADD20R,0.852400X0.402400*%
%ADD21R,1.439900X1.439900*%
%ADD22C,1.652500*%
%ADD23C,1.952400*%
%ADD24R,1.952400X1.952400*%
%ADD25R,1.402400X1.152400*%
%ADD26R,3.652400X2.152400*%
%ADD27R,6.152400X2.152400*%
%ADD28R,2.152400X3.652400*%
%ADD29R,2.152400X6.152400*%
%ADD30R,0.852400X1.452400*%
%ADD31R,0.912400X1.752400*%
%ADD32R,3.652400X1.752400*%
%ADD33R,1.752400X2.752400*%
%ADD34R,0.502400X0.752400*%
%ADD35R,0.752400X0.852400*%
%ADD36R,0.402400X0.827400*%
%ADD37R,0.827400X0.402400*%
%ADD38R,1.152400X0.822400*%
%ADD39R,0.752400X0.602400*%
G04 APERTURE END LIST*
D10*
G36*
X136000000Y-113650000D02*
X136000000Y-104400000D01*
X140500000Y-104400000D01*
X140500000Y-113650000D01*
X136000000Y-113650000D01*
G37*
X136000000Y-113650000D02*
X136000000Y-104400000D01*
X140500000Y-104400000D01*
X140500000Y-113650000D01*
X136000000Y-113650000D01*
D11*
X131140000Y-88910000D03*
D12*
X125725000Y-99375000D03*
X126075000Y-98625000D03*
X125375000Y-98625000D03*
X126075000Y-100125000D03*
X125375000Y-100125000D03*
D13*
X105918000Y-89712800D03*
D14*
X113840000Y-95440000D03*
X113840000Y-94440000D03*
D15*
X133275000Y-81850000D03*
X131525000Y-81850000D03*
X133275000Y-85350000D03*
X131525000Y-85350000D03*
D16*
X98781500Y-96329500D03*
X100481500Y-96329500D03*
D17*
X96431500Y-103187500D03*
X102831500Y-103187500D03*
D18*
X125750000Y-95950000D03*
X129150000Y-95950000D03*
D19*
X115782500Y-94547500D03*
X116282500Y-94547500D03*
X116782500Y-94547500D03*
X117282500Y-94547500D03*
X117782500Y-94547500D03*
X118282500Y-94547500D03*
X118782500Y-94547500D03*
X119282500Y-94547500D03*
X119782500Y-94547500D03*
X120282500Y-94547500D03*
X120782500Y-94547500D03*
X121282500Y-94547500D03*
D20*
X121932500Y-93897500D03*
X121932500Y-93397500D03*
X121932500Y-92897500D03*
X121932500Y-92397500D03*
X121932500Y-91897500D03*
X121932500Y-91397500D03*
X121932500Y-90897500D03*
X121932500Y-90397500D03*
X121932500Y-89897500D03*
X121932500Y-89397500D03*
X121932500Y-88897500D03*
X121932500Y-88397500D03*
D19*
X121282500Y-87747500D03*
X120782500Y-87747500D03*
X120282500Y-87747500D03*
X119782500Y-87747500D03*
X119282500Y-87747500D03*
X118782500Y-87747500D03*
X118282500Y-87747500D03*
X117782500Y-87747500D03*
X117282500Y-87747500D03*
X116782500Y-87747500D03*
X116282500Y-87747500D03*
X115782500Y-87747500D03*
D20*
X115132500Y-88397500D03*
X115132500Y-88897500D03*
X115132500Y-89397500D03*
X115132500Y-89897500D03*
X115132500Y-90397500D03*
X115132500Y-90897500D03*
X115132500Y-91397500D03*
X115132500Y-91897500D03*
X115132500Y-92397500D03*
X115132500Y-92897500D03*
X115132500Y-93397500D03*
X115132500Y-93897500D03*
D21*
X120463750Y-89216250D03*
X119176250Y-89216250D03*
X117888750Y-89216250D03*
X116601250Y-89216250D03*
X120463750Y-90503750D03*
X119176250Y-90503750D03*
X117888750Y-90503750D03*
X116601250Y-90503750D03*
X120463750Y-91791250D03*
X119176250Y-91791250D03*
X117888750Y-91791250D03*
X116601250Y-91791250D03*
X120463750Y-93078750D03*
X119176250Y-93078750D03*
X117888750Y-93078750D03*
X116601250Y-93078750D03*
D22*
X137250000Y-90700000D03*
D23*
X136510000Y-85490000D03*
X139050000Y-86760000D03*
X136510000Y-88030000D03*
D24*
X139050000Y-89300000D03*
D23*
X139050000Y-84220000D03*
X136510000Y-82950000D03*
X110150000Y-84890000D03*
X111420000Y-82350000D03*
D24*
X116500000Y-82350000D03*
D23*
X115230000Y-84890000D03*
X113960000Y-82350000D03*
X112690000Y-84890000D03*
D22*
X117900000Y-84150000D03*
D23*
X121350000Y-84890000D03*
X122620000Y-82350000D03*
D24*
X127700000Y-82350000D03*
D23*
X126430000Y-84890000D03*
X125160000Y-82350000D03*
X123890000Y-84890000D03*
D22*
X129100000Y-84150000D03*
D25*
X102171500Y-98409000D03*
X102171500Y-96409000D03*
D23*
X136510000Y-94100000D03*
X139050000Y-95370000D03*
D24*
X139050000Y-100450000D03*
D23*
X136510000Y-99180000D03*
X139050000Y-97910000D03*
X136510000Y-96640000D03*
D22*
X137250000Y-101850000D03*
D26*
X122500000Y-105000000D03*
D27*
X131750000Y-105000000D03*
X131750000Y-109000000D03*
D26*
X122500000Y-109000000D03*
D27*
X131750000Y-113000000D03*
D26*
X122500000Y-113000000D03*
D28*
X101631500Y-93261000D03*
D29*
X101631500Y-84011000D03*
X97631500Y-84011000D03*
D28*
X97631500Y-93261000D03*
D30*
X98359000Y-98298000D03*
X96459000Y-98298000D03*
D31*
X126865000Y-93090000D03*
X128135000Y-88010000D03*
X128135000Y-93090000D03*
X126865000Y-88010000D03*
D32*
X104025000Y-111400000D03*
X109425000Y-111400000D03*
D33*
X110600000Y-92800000D03*
X110600000Y-89200000D03*
D34*
X96385500Y-109664500D03*
X97035500Y-109664500D03*
X99625000Y-109400000D03*
X98975000Y-109400000D03*
D14*
X120150000Y-98950000D03*
X120150000Y-97950000D03*
X118750000Y-97950000D03*
X118750000Y-98950000D03*
D35*
X111625000Y-95050000D03*
X112625000Y-95050000D03*
X116050000Y-96850000D03*
X117050000Y-96850000D03*
D14*
X107150000Y-85850000D03*
X107150000Y-86850000D03*
X113575000Y-87400000D03*
X113575000Y-88400000D03*
X113575000Y-89400000D03*
X113575000Y-90400000D03*
D35*
X99639500Y-97599500D03*
X100639500Y-97599500D03*
D14*
X113575000Y-91450000D03*
X113575000Y-92450000D03*
D35*
X131550000Y-95450000D03*
X132550000Y-95450000D03*
D13*
X97850000Y-112600000D03*
X117800000Y-112600000D03*
X132000000Y-100550000D03*
D14*
X124000000Y-93450000D03*
X124000000Y-94450000D03*
D35*
X105846500Y-106616500D03*
X104846500Y-106616500D03*
D36*
X132050000Y-92237500D03*
X131550000Y-92237500D03*
X132550000Y-92237500D03*
X131550000Y-94262500D03*
X132050000Y-94262500D03*
X132550000Y-94262500D03*
D37*
X130787500Y-92500000D03*
X130787500Y-93000000D03*
X130787500Y-93500000D03*
X130787500Y-94000000D03*
X133312500Y-94000000D03*
X133312500Y-93500000D03*
X133312500Y-93000000D03*
X133312500Y-92500000D03*
D38*
X122600000Y-99300000D03*
X122600000Y-97550000D03*
D39*
X105100000Y-81600000D03*
X106700000Y-81600000D03*
X106700000Y-82200000D03*
X105100000Y-82200000D03*
M02*
