G04 #@! TF.GenerationSoftware,KiCad,Pcbnew,5.0.2-bee76a0~70~ubuntu18.04.1*
G04 #@! TF.CreationDate,2019-02-13T09:30:15+01:00*
G04 #@! TF.ProjectId,motorboard_panel_x3,6d6f746f-7262-46f6-9172-645f70616e65,rev?*
G04 #@! TF.SameCoordinates,Original*
G04 #@! TF.FileFunction,Legend,Top*
G04 #@! TF.FilePolarity,Positive*
%FSLAX46Y46*%
G04 Gerber Fmt 4.6, Leading zero omitted, Abs format (unit mm)*
G04 Created by KiCad (PCBNEW 5.0.2-bee76a0~70~ubuntu18.04.1) date Wed 13 Feb 2019 09:30:15 CET*
%MOMM*%
%LPD*%
G01*
G04 APERTURE LIST*
%ADD10C,0.150000*%
%ADD11C,0.200000*%
%ADD12C,0.120000*%
%ADD13C,0.100000*%
G04 APERTURE END LIST*
D10*
X103438095Y-129538095D02*
X103704761Y-129919047D01*
X103895238Y-129538095D02*
X103895238Y-130338095D01*
X103590476Y-130338095D01*
X103514285Y-130300000D01*
X103476190Y-130261904D01*
X103438095Y-130185714D01*
X103438095Y-130071428D01*
X103476190Y-129995238D01*
X103514285Y-129957142D01*
X103590476Y-129919047D01*
X103895238Y-129919047D01*
X103133333Y-129576190D02*
X103019047Y-129538095D01*
X102828571Y-129538095D01*
X102752380Y-129576190D01*
X102714285Y-129614285D01*
X102676190Y-129690476D01*
X102676190Y-129766666D01*
X102714285Y-129842857D01*
X102752380Y-129880952D01*
X102828571Y-129919047D01*
X102980952Y-129957142D01*
X103057142Y-129995238D01*
X103095238Y-130033333D01*
X103133333Y-130109523D01*
X103133333Y-130185714D01*
X103095238Y-130261904D01*
X103057142Y-130300000D01*
X102980952Y-130338095D01*
X102790476Y-130338095D01*
X102676190Y-130300000D01*
X102447619Y-130338095D02*
X101990476Y-130338095D01*
X102219047Y-129538095D02*
X102219047Y-130338095D01*
X113161904Y-124297619D02*
X113161904Y-125297619D01*
X112780952Y-125297619D01*
X112685714Y-125250000D01*
X112638095Y-125202380D01*
X112590476Y-125107142D01*
X112590476Y-124964285D01*
X112638095Y-124869047D01*
X112685714Y-124821428D01*
X112780952Y-124773809D01*
X113161904Y-124773809D01*
X112161904Y-124297619D02*
X112161904Y-125297619D01*
X112161904Y-124821428D02*
X111590476Y-124821428D01*
X111590476Y-124297619D02*
X111590476Y-125297619D01*
X110590476Y-124297619D02*
X111161904Y-124297619D01*
X110876190Y-124297619D02*
X110876190Y-125297619D01*
X110971428Y-125154761D01*
X111066666Y-125059523D01*
X111161904Y-125011904D01*
X113211904Y-120097619D02*
X113211904Y-121097619D01*
X112830952Y-121097619D01*
X112735714Y-121050000D01*
X112688095Y-121002380D01*
X112640476Y-120907142D01*
X112640476Y-120764285D01*
X112688095Y-120669047D01*
X112735714Y-120621428D01*
X112830952Y-120573809D01*
X113211904Y-120573809D01*
X112211904Y-120097619D02*
X112211904Y-121097619D01*
X112211904Y-120621428D02*
X111640476Y-120621428D01*
X111640476Y-120097619D02*
X111640476Y-121097619D01*
X111211904Y-121002380D02*
X111164285Y-121050000D01*
X111069047Y-121097619D01*
X110830952Y-121097619D01*
X110735714Y-121050000D01*
X110688095Y-121002380D01*
X110640476Y-120907142D01*
X110640476Y-120811904D01*
X110688095Y-120669047D01*
X111259523Y-120097619D01*
X110640476Y-120097619D01*
X113261904Y-116247619D02*
X113261904Y-117247619D01*
X112880952Y-117247619D01*
X112785714Y-117200000D01*
X112738095Y-117152380D01*
X112690476Y-117057142D01*
X112690476Y-116914285D01*
X112738095Y-116819047D01*
X112785714Y-116771428D01*
X112880952Y-116723809D01*
X113261904Y-116723809D01*
X112261904Y-116247619D02*
X112261904Y-117247619D01*
X112261904Y-116771428D02*
X111690476Y-116771428D01*
X111690476Y-116247619D02*
X111690476Y-117247619D01*
X111309523Y-117247619D02*
X110690476Y-117247619D01*
X111023809Y-116866666D01*
X110880952Y-116866666D01*
X110785714Y-116819047D01*
X110738095Y-116771428D01*
X110690476Y-116676190D01*
X110690476Y-116438095D01*
X110738095Y-116342857D01*
X110785714Y-116295238D01*
X110880952Y-116247619D01*
X111166666Y-116247619D01*
X111261904Y-116295238D01*
X111309523Y-116342857D01*
X99726190Y-130338095D02*
X100107142Y-130338095D01*
X100145238Y-129957142D01*
X100107142Y-129995238D01*
X100030952Y-130033333D01*
X99840476Y-130033333D01*
X99764285Y-129995238D01*
X99726190Y-129957142D01*
X99688095Y-129880952D01*
X99688095Y-129690476D01*
X99726190Y-129614285D01*
X99764285Y-129576190D01*
X99840476Y-129538095D01*
X100030952Y-129538095D01*
X100107142Y-129576190D01*
X100145238Y-129614285D01*
X99459523Y-130338095D02*
X99192857Y-129538095D01*
X98926190Y-130338095D01*
X97897619Y-130338095D02*
X97745238Y-130338095D01*
X97669047Y-130300000D01*
X97592857Y-130223809D01*
X97554761Y-130071428D01*
X97554761Y-129804761D01*
X97592857Y-129652380D01*
X97669047Y-129576190D01*
X97745238Y-129538095D01*
X97897619Y-129538095D01*
X97973809Y-129576190D01*
X98050000Y-129652380D01*
X98088095Y-129804761D01*
X98088095Y-130071428D01*
X98050000Y-130223809D01*
X97973809Y-130300000D01*
X97897619Y-130338095D01*
X97211904Y-129538095D02*
X97211904Y-130338095D01*
X96754761Y-129538095D02*
X97097619Y-129995238D01*
X96754761Y-130338095D02*
X97211904Y-129880952D01*
D11*
X110200000Y-124800000D02*
X106250000Y-124800000D01*
X110200000Y-116450000D02*
X110200000Y-115200000D01*
X104250000Y-132750000D02*
X100550000Y-132750000D01*
X104250000Y-129550000D02*
X104250000Y-132750000D01*
X110200000Y-120600000D02*
X106250000Y-120600000D01*
X110200000Y-115200000D02*
X106250000Y-115200000D01*
D10*
X147738095Y-117561904D02*
X148119047Y-117295238D01*
X147738095Y-117104761D02*
X148538095Y-117104761D01*
X148538095Y-117409523D01*
X148500000Y-117485714D01*
X148461904Y-117523809D01*
X148385714Y-117561904D01*
X148271428Y-117561904D01*
X148195238Y-117523809D01*
X148157142Y-117485714D01*
X148119047Y-117409523D01*
X148119047Y-117104761D01*
X147776190Y-117866666D02*
X147738095Y-117980952D01*
X147738095Y-118171428D01*
X147776190Y-118247619D01*
X147814285Y-118285714D01*
X147890476Y-118323809D01*
X147966666Y-118323809D01*
X148042857Y-118285714D01*
X148080952Y-118247619D01*
X148119047Y-118171428D01*
X148157142Y-118019047D01*
X148195238Y-117942857D01*
X148233333Y-117904761D01*
X148309523Y-117866666D01*
X148385714Y-117866666D01*
X148461904Y-117904761D01*
X148500000Y-117942857D01*
X148538095Y-118019047D01*
X148538095Y-118209523D01*
X148500000Y-118323809D01*
X148538095Y-118552380D02*
X148538095Y-119009523D01*
X147738095Y-118780952D02*
X148538095Y-118780952D01*
X142497619Y-107838095D02*
X143497619Y-107838095D01*
X143497619Y-108219047D01*
X143450000Y-108314285D01*
X143402380Y-108361904D01*
X143307142Y-108409523D01*
X143164285Y-108409523D01*
X143069047Y-108361904D01*
X143021428Y-108314285D01*
X142973809Y-108219047D01*
X142973809Y-107838095D01*
X142497619Y-108838095D02*
X143497619Y-108838095D01*
X143021428Y-108838095D02*
X143021428Y-109409523D01*
X142497619Y-109409523D02*
X143497619Y-109409523D01*
X142497619Y-110409523D02*
X142497619Y-109838095D01*
X142497619Y-110123809D02*
X143497619Y-110123809D01*
X143354761Y-110028571D01*
X143259523Y-109933333D01*
X143211904Y-109838095D01*
X138297619Y-107788095D02*
X139297619Y-107788095D01*
X139297619Y-108169047D01*
X139250000Y-108264285D01*
X139202380Y-108311904D01*
X139107142Y-108359523D01*
X138964285Y-108359523D01*
X138869047Y-108311904D01*
X138821428Y-108264285D01*
X138773809Y-108169047D01*
X138773809Y-107788095D01*
X138297619Y-108788095D02*
X139297619Y-108788095D01*
X138821428Y-108788095D02*
X138821428Y-109359523D01*
X138297619Y-109359523D02*
X139297619Y-109359523D01*
X139202380Y-109788095D02*
X139250000Y-109835714D01*
X139297619Y-109930952D01*
X139297619Y-110169047D01*
X139250000Y-110264285D01*
X139202380Y-110311904D01*
X139107142Y-110359523D01*
X139011904Y-110359523D01*
X138869047Y-110311904D01*
X138297619Y-109740476D01*
X138297619Y-110359523D01*
X134447619Y-107738095D02*
X135447619Y-107738095D01*
X135447619Y-108119047D01*
X135400000Y-108214285D01*
X135352380Y-108261904D01*
X135257142Y-108309523D01*
X135114285Y-108309523D01*
X135019047Y-108261904D01*
X134971428Y-108214285D01*
X134923809Y-108119047D01*
X134923809Y-107738095D01*
X134447619Y-108738095D02*
X135447619Y-108738095D01*
X134971428Y-108738095D02*
X134971428Y-109309523D01*
X134447619Y-109309523D02*
X135447619Y-109309523D01*
X135447619Y-109690476D02*
X135447619Y-110309523D01*
X135066666Y-109976190D01*
X135066666Y-110119047D01*
X135019047Y-110214285D01*
X134971428Y-110261904D01*
X134876190Y-110309523D01*
X134638095Y-110309523D01*
X134542857Y-110261904D01*
X134495238Y-110214285D01*
X134447619Y-110119047D01*
X134447619Y-109833333D01*
X134495238Y-109738095D01*
X134542857Y-109690476D01*
X148538095Y-121273809D02*
X148538095Y-120892857D01*
X148157142Y-120854761D01*
X148195238Y-120892857D01*
X148233333Y-120969047D01*
X148233333Y-121159523D01*
X148195238Y-121235714D01*
X148157142Y-121273809D01*
X148080952Y-121311904D01*
X147890476Y-121311904D01*
X147814285Y-121273809D01*
X147776190Y-121235714D01*
X147738095Y-121159523D01*
X147738095Y-120969047D01*
X147776190Y-120892857D01*
X147814285Y-120854761D01*
X148538095Y-121540476D02*
X147738095Y-121807142D01*
X148538095Y-122073809D01*
X148538095Y-123102380D02*
X148538095Y-123254761D01*
X148500000Y-123330952D01*
X148423809Y-123407142D01*
X148271428Y-123445238D01*
X148004761Y-123445238D01*
X147852380Y-123407142D01*
X147776190Y-123330952D01*
X147738095Y-123254761D01*
X147738095Y-123102380D01*
X147776190Y-123026190D01*
X147852380Y-122950000D01*
X148004761Y-122911904D01*
X148271428Y-122911904D01*
X148423809Y-122950000D01*
X148500000Y-123026190D01*
X148538095Y-123102380D01*
X147738095Y-123788095D02*
X148538095Y-123788095D01*
X147738095Y-124245238D02*
X148195238Y-123902380D01*
X148538095Y-124245238D02*
X148080952Y-123788095D01*
D11*
X143000000Y-110800000D02*
X143000000Y-114750000D01*
X134650000Y-110800000D02*
X133400000Y-110800000D01*
X150950000Y-116750000D02*
X150950000Y-120450000D01*
X147750000Y-116750000D02*
X150950000Y-116750000D01*
X138800000Y-110800000D02*
X138800000Y-114750000D01*
X133400000Y-110800000D02*
X133400000Y-114750000D01*
X111750000Y-94850000D02*
X115450000Y-94850000D01*
X111750000Y-98050000D02*
X111750000Y-94850000D01*
D10*
X112561904Y-98061904D02*
X112295238Y-97680952D01*
X112104761Y-98061904D02*
X112104761Y-97261904D01*
X112409523Y-97261904D01*
X112485714Y-97300000D01*
X112523809Y-97338095D01*
X112561904Y-97414285D01*
X112561904Y-97528571D01*
X112523809Y-97604761D01*
X112485714Y-97642857D01*
X112409523Y-97680952D01*
X112104761Y-97680952D01*
X112866666Y-98023809D02*
X112980952Y-98061904D01*
X113171428Y-98061904D01*
X113247619Y-98023809D01*
X113285714Y-97985714D01*
X113323809Y-97909523D01*
X113323809Y-97833333D01*
X113285714Y-97757142D01*
X113247619Y-97719047D01*
X113171428Y-97680952D01*
X113019047Y-97642857D01*
X112942857Y-97604761D01*
X112904761Y-97566666D01*
X112866666Y-97490476D01*
X112866666Y-97414285D01*
X112904761Y-97338095D01*
X112942857Y-97300000D01*
X113019047Y-97261904D01*
X113209523Y-97261904D01*
X113323809Y-97300000D01*
X113552380Y-97261904D02*
X114009523Y-97261904D01*
X113780952Y-98061904D02*
X113780952Y-97261904D01*
D11*
X105800000Y-112400000D02*
X109750000Y-112400000D01*
X105800000Y-111150000D02*
X105800000Y-112400000D01*
X105800000Y-107000000D02*
X109750000Y-107000000D01*
X105800000Y-102800000D02*
X109750000Y-102800000D01*
D10*
X102738095Y-111352380D02*
X102738095Y-110352380D01*
X103119047Y-110352380D01*
X103214285Y-110400000D01*
X103261904Y-110447619D01*
X103309523Y-110542857D01*
X103309523Y-110685714D01*
X103261904Y-110780952D01*
X103214285Y-110828571D01*
X103119047Y-110876190D01*
X102738095Y-110876190D01*
X103738095Y-111352380D02*
X103738095Y-110352380D01*
X103738095Y-110828571D02*
X104309523Y-110828571D01*
X104309523Y-111352380D02*
X104309523Y-110352380D01*
X104690476Y-110352380D02*
X105309523Y-110352380D01*
X104976190Y-110733333D01*
X105119047Y-110733333D01*
X105214285Y-110780952D01*
X105261904Y-110828571D01*
X105309523Y-110923809D01*
X105309523Y-111161904D01*
X105261904Y-111257142D01*
X105214285Y-111304761D01*
X105119047Y-111352380D01*
X104833333Y-111352380D01*
X104738095Y-111304761D01*
X104690476Y-111257142D01*
X102788095Y-107502380D02*
X102788095Y-106502380D01*
X103169047Y-106502380D01*
X103264285Y-106550000D01*
X103311904Y-106597619D01*
X103359523Y-106692857D01*
X103359523Y-106835714D01*
X103311904Y-106930952D01*
X103264285Y-106978571D01*
X103169047Y-107026190D01*
X102788095Y-107026190D01*
X103788095Y-107502380D02*
X103788095Y-106502380D01*
X103788095Y-106978571D02*
X104359523Y-106978571D01*
X104359523Y-107502380D02*
X104359523Y-106502380D01*
X104788095Y-106597619D02*
X104835714Y-106550000D01*
X104930952Y-106502380D01*
X105169047Y-106502380D01*
X105264285Y-106550000D01*
X105311904Y-106597619D01*
X105359523Y-106692857D01*
X105359523Y-106788095D01*
X105311904Y-106930952D01*
X104740476Y-107502380D01*
X105359523Y-107502380D01*
X102838095Y-103302380D02*
X102838095Y-102302380D01*
X103219047Y-102302380D01*
X103314285Y-102350000D01*
X103361904Y-102397619D01*
X103409523Y-102492857D01*
X103409523Y-102635714D01*
X103361904Y-102730952D01*
X103314285Y-102778571D01*
X103219047Y-102826190D01*
X102838095Y-102826190D01*
X103838095Y-103302380D02*
X103838095Y-102302380D01*
X103838095Y-102778571D02*
X104409523Y-102778571D01*
X104409523Y-103302380D02*
X104409523Y-102302380D01*
X105409523Y-103302380D02*
X104838095Y-103302380D01*
X105123809Y-103302380D02*
X105123809Y-102302380D01*
X105028571Y-102445238D01*
X104933333Y-102540476D01*
X104838095Y-102588095D01*
X116273809Y-97261904D02*
X115892857Y-97261904D01*
X115854761Y-97642857D01*
X115892857Y-97604761D01*
X115969047Y-97566666D01*
X116159523Y-97566666D01*
X116235714Y-97604761D01*
X116273809Y-97642857D01*
X116311904Y-97719047D01*
X116311904Y-97909523D01*
X116273809Y-97985714D01*
X116235714Y-98023809D01*
X116159523Y-98061904D01*
X115969047Y-98061904D01*
X115892857Y-98023809D01*
X115854761Y-97985714D01*
X116540476Y-97261904D02*
X116807142Y-98061904D01*
X117073809Y-97261904D01*
X118102380Y-97261904D02*
X118254761Y-97261904D01*
X118330952Y-97300000D01*
X118407142Y-97376190D01*
X118445238Y-97528571D01*
X118445238Y-97795238D01*
X118407142Y-97947619D01*
X118330952Y-98023809D01*
X118254761Y-98061904D01*
X118102380Y-98061904D01*
X118026190Y-98023809D01*
X117950000Y-97947619D01*
X117911904Y-97795238D01*
X117911904Y-97528571D01*
X117950000Y-97376190D01*
X118026190Y-97300000D01*
X118102380Y-97261904D01*
X118788095Y-98061904D02*
X118788095Y-97261904D01*
X119245238Y-98061904D02*
X118902380Y-97604761D01*
X119245238Y-97261904D02*
X118788095Y-97719047D01*
D12*
G04 #@! TO.C,D6*
X118230000Y-148860000D02*
X120500000Y-148860000D01*
X118230000Y-147340000D02*
X118230000Y-148860000D01*
X120500000Y-147340000D02*
X118230000Y-147340000D01*
G04 #@! TO.C,C21*
X122600000Y-132091000D02*
X122600000Y-133091000D01*
X124300000Y-133091000D02*
X124300000Y-132091000D01*
G04 #@! TO.C,D2*
X129939500Y-120785500D02*
X128639500Y-120785500D01*
X129939500Y-119885500D02*
X128639500Y-119885500D01*
X128639500Y-119885500D02*
X128639500Y-120785500D01*
G04 #@! TO.C,D3*
X127350000Y-121050000D02*
X127350000Y-120150000D01*
X126050000Y-121050000D02*
X127350000Y-121050000D01*
X126050000Y-120150000D02*
X127350000Y-120150000D01*
G04 #@! TO.C,D4*
X95500000Y-144500000D02*
X95250000Y-144500000D01*
X95500000Y-148150000D02*
X95500000Y-144500000D01*
X91700000Y-148150000D02*
X91700000Y-144650000D01*
D10*
G04 #@! TO.C,J1*
X105750000Y-115000000D02*
X90750000Y-115000000D01*
X105750000Y-127000000D02*
X105750000Y-115000000D01*
X90750000Y-127000000D02*
X105750000Y-127000000D01*
X90750000Y-115000000D02*
X90750000Y-127000000D01*
X93750000Y-127000000D02*
X93750000Y-126400000D01*
X93750000Y-123600000D02*
X93750000Y-122400000D01*
X93750000Y-119600000D02*
X93750000Y-118400000D01*
X93750000Y-115000000D02*
X93750000Y-115600000D01*
D12*
G04 #@! TO.C,L1*
X122668500Y-130512500D02*
X122668500Y-128212500D01*
X130068500Y-130512500D02*
X122668500Y-130512500D01*
X130068500Y-128212500D02*
X130068500Y-130512500D01*
X130068500Y-123112500D02*
X130068500Y-125412500D01*
X122668500Y-123112500D02*
X130068500Y-123112500D01*
X122668500Y-125412500D02*
X122668500Y-123112500D01*
D13*
G04 #@! TO.C,U5*
X92350000Y-138100000D02*
X92350000Y-137880000D01*
X93070000Y-138100000D02*
X92350000Y-138100000D01*
X92350000Y-135400000D02*
X93070000Y-135400000D01*
X92350000Y-135620000D02*
X92350000Y-135400000D01*
X95550000Y-135400000D02*
X95550000Y-135620000D01*
X95550000Y-135400000D02*
X94830000Y-135400000D01*
X95650000Y-138100000D02*
X94830000Y-138100000D01*
D12*
G04 #@! TO.C,J2*
X85420000Y-132090000D02*
X85420000Y-137775000D01*
X85420000Y-137775000D02*
X91020000Y-137775000D01*
X91020000Y-127675000D02*
X91020000Y-137775000D01*
X89490000Y-127675000D02*
X91020000Y-127675000D01*
X88220000Y-128950000D02*
X88220000Y-130820000D01*
X88220000Y-130820000D02*
X86350000Y-130820000D01*
X85420000Y-129550000D02*
X85420000Y-127675000D01*
X85420000Y-127675000D02*
X86950000Y-127675000D01*
G04 #@! TO.C,J3*
X85420000Y-138825000D02*
X86950000Y-138825000D01*
X85420000Y-140700000D02*
X85420000Y-138825000D01*
X88220000Y-141970000D02*
X86350000Y-141970000D01*
X88220000Y-140100000D02*
X88220000Y-141970000D01*
X89490000Y-138825000D02*
X91020000Y-138825000D01*
X91020000Y-138825000D02*
X91020000Y-148925000D01*
X85420000Y-148925000D02*
X91020000Y-148925000D01*
X85420000Y-143240000D02*
X85420000Y-148925000D01*
D10*
G04 #@! TO.C,U1*
X111092500Y-142477500D02*
X111092500Y-141952500D01*
X103842500Y-142477500D02*
X103842500Y-141952500D01*
X103842500Y-135227500D02*
X103842500Y-135752500D01*
X111092500Y-135227500D02*
X111092500Y-135752500D01*
X103842500Y-142477500D02*
X104367500Y-142477500D01*
X103842500Y-135227500D02*
X104367500Y-135227500D01*
X111092500Y-142477500D02*
X110567500Y-142477500D01*
D12*
G04 #@! TO.C,SW2*
X96475000Y-136750000D02*
X96475000Y-142150000D01*
X100525000Y-136110000D02*
X100525000Y-142150000D01*
G04 #@! TO.C,C23*
X113130000Y-137480000D02*
X113890000Y-136710000D01*
X113130000Y-137480000D02*
X113130000Y-141290000D01*
X117700000Y-137480000D02*
X116940000Y-136710000D01*
X117700000Y-137480000D02*
X117700000Y-141290000D01*
X116940000Y-136710000D02*
X116530000Y-136710000D01*
X113890000Y-136710000D02*
X114300000Y-136710000D01*
X113130000Y-141290000D02*
X114300000Y-141290000D01*
X117700000Y-141290000D02*
X116530000Y-141290000D01*
G04 #@! TO.C,D5*
X96930000Y-132410000D02*
X99200000Y-132410000D01*
X96930000Y-130890000D02*
X96930000Y-132410000D01*
X99200000Y-130890000D02*
X96930000Y-130890000D01*
G04 #@! TO.C,C33*
X121815000Y-121900000D02*
X115975000Y-121900000D01*
X122575000Y-121140000D02*
X121815000Y-121900000D01*
X121815000Y-115300000D02*
X122575000Y-116060000D01*
X115975000Y-115300000D02*
X121815000Y-115300000D01*
X122575000Y-121140000D02*
X122575000Y-119720000D01*
X122575000Y-116060000D02*
X122575000Y-117480000D01*
X115975000Y-121900000D02*
X115975000Y-119720000D01*
X115975000Y-115300000D02*
X115975000Y-117480000D01*
G04 #@! TO.C,D1*
X127668500Y-134240500D02*
X125568500Y-134240500D01*
X127668500Y-133100500D02*
X125568500Y-133100500D01*
X127668500Y-134240500D02*
X127668500Y-133100500D01*
D10*
G04 #@! TO.C,J10*
X122368500Y-134489000D02*
X122368500Y-149489000D01*
X130368500Y-134489000D02*
X122368500Y-134489000D01*
X130368500Y-149489000D02*
X130368500Y-134489000D01*
X122368500Y-149489000D02*
X130368500Y-149489000D01*
X130368500Y-146489000D02*
X129768500Y-146489000D01*
X126968500Y-146489000D02*
X125768500Y-146489000D01*
X122368500Y-146489000D02*
X122968500Y-146489000D01*
D12*
G04 #@! TO.C,SW1*
X96900000Y-135450000D02*
X96900000Y-135150000D01*
X100200000Y-135450000D02*
X96900000Y-135450000D01*
X100200000Y-135150000D02*
X100200000Y-135450000D01*
X96900000Y-132650000D02*
X96900000Y-132950000D01*
X100200000Y-132650000D02*
X96900000Y-132650000D01*
X100200000Y-132950000D02*
X100200000Y-132650000D01*
G04 #@! TO.C,F1*
X127997936Y-132760000D02*
X129202064Y-132760000D01*
X127997936Y-130940000D02*
X129202064Y-130940000D01*
G04 #@! TO.C,J6*
X112040000Y-149180000D02*
X117725000Y-149180000D01*
X117725000Y-149180000D02*
X117725000Y-143580000D01*
X107625000Y-143580000D02*
X117725000Y-143580000D01*
X107625000Y-145110000D02*
X107625000Y-143580000D01*
X108900000Y-146380000D02*
X110770000Y-146380000D01*
X110770000Y-146380000D02*
X110770000Y-148250000D01*
X109500000Y-149180000D02*
X107625000Y-149180000D01*
X107625000Y-149180000D02*
X107625000Y-147650000D01*
G04 #@! TO.C,J7*
X96425000Y-149180000D02*
X96425000Y-147650000D01*
X98300000Y-149180000D02*
X96425000Y-149180000D01*
X99570000Y-146380000D02*
X99570000Y-148250000D01*
X97700000Y-146380000D02*
X99570000Y-146380000D01*
X96425000Y-145110000D02*
X96425000Y-143580000D01*
X96425000Y-143580000D02*
X106525000Y-143580000D01*
X106525000Y-149180000D02*
X106525000Y-143580000D01*
X100840000Y-149180000D02*
X106525000Y-149180000D01*
G04 #@! TO.C,D6*
X167060000Y-102770000D02*
X167060000Y-100500000D01*
X165540000Y-102770000D02*
X167060000Y-102770000D01*
X165540000Y-100500000D02*
X165540000Y-102770000D01*
G04 #@! TO.C,C21*
X150291000Y-98400000D02*
X151291000Y-98400000D01*
X151291000Y-96700000D02*
X150291000Y-96700000D01*
G04 #@! TO.C,D2*
X138985500Y-91060500D02*
X138985500Y-92360500D01*
X138085500Y-91060500D02*
X138085500Y-92360500D01*
X138085500Y-92360500D02*
X138985500Y-92360500D01*
G04 #@! TO.C,D3*
X139250000Y-93650000D02*
X138350000Y-93650000D01*
X139250000Y-94950000D02*
X139250000Y-93650000D01*
X138350000Y-94950000D02*
X138350000Y-93650000D01*
G04 #@! TO.C,D4*
X162700000Y-125500000D02*
X162700000Y-125750000D01*
X166350000Y-125500000D02*
X162700000Y-125500000D01*
X166350000Y-129300000D02*
X162850000Y-129300000D01*
D10*
G04 #@! TO.C,J1*
X133200000Y-115250000D02*
X133200000Y-130250000D01*
X145200000Y-115250000D02*
X133200000Y-115250000D01*
X145200000Y-130250000D02*
X145200000Y-115250000D01*
X133200000Y-130250000D02*
X145200000Y-130250000D01*
X145200000Y-127250000D02*
X144600000Y-127250000D01*
X141800000Y-127250000D02*
X140600000Y-127250000D01*
X137800000Y-127250000D02*
X136600000Y-127250000D01*
X133200000Y-127250000D02*
X133800000Y-127250000D01*
D12*
G04 #@! TO.C,L1*
X148712500Y-98331500D02*
X146412500Y-98331500D01*
X148712500Y-90931500D02*
X148712500Y-98331500D01*
X146412500Y-90931500D02*
X148712500Y-90931500D01*
X141312500Y-90931500D02*
X143612500Y-90931500D01*
X141312500Y-98331500D02*
X141312500Y-90931500D01*
X143612500Y-98331500D02*
X141312500Y-98331500D01*
D13*
G04 #@! TO.C,U5*
X156300000Y-128650000D02*
X156080000Y-128650000D01*
X156300000Y-127930000D02*
X156300000Y-128650000D01*
X153600000Y-128650000D02*
X153600000Y-127930000D01*
X153820000Y-128650000D02*
X153600000Y-128650000D01*
X153600000Y-125450000D02*
X153820000Y-125450000D01*
X153600000Y-125450000D02*
X153600000Y-126170000D01*
X156300000Y-125350000D02*
X156300000Y-126170000D01*
D12*
G04 #@! TO.C,J2*
X150290000Y-135580000D02*
X155975000Y-135580000D01*
X155975000Y-135580000D02*
X155975000Y-129980000D01*
X145875000Y-129980000D02*
X155975000Y-129980000D01*
X145875000Y-131510000D02*
X145875000Y-129980000D01*
X147150000Y-132780000D02*
X149020000Y-132780000D01*
X149020000Y-132780000D02*
X149020000Y-134650000D01*
X147750000Y-135580000D02*
X145875000Y-135580000D01*
X145875000Y-135580000D02*
X145875000Y-134050000D01*
G04 #@! TO.C,J3*
X157025000Y-135580000D02*
X157025000Y-134050000D01*
X158900000Y-135580000D02*
X157025000Y-135580000D01*
X160170000Y-132780000D02*
X160170000Y-134650000D01*
X158300000Y-132780000D02*
X160170000Y-132780000D01*
X157025000Y-131510000D02*
X157025000Y-129980000D01*
X157025000Y-129980000D02*
X167125000Y-129980000D01*
X167125000Y-135580000D02*
X167125000Y-129980000D01*
X161440000Y-135580000D02*
X167125000Y-135580000D01*
D10*
G04 #@! TO.C,U1*
X160677500Y-109907500D02*
X160152500Y-109907500D01*
X160677500Y-117157500D02*
X160152500Y-117157500D01*
X153427500Y-117157500D02*
X153952500Y-117157500D01*
X153427500Y-109907500D02*
X153952500Y-109907500D01*
X160677500Y-117157500D02*
X160677500Y-116632500D01*
X153427500Y-117157500D02*
X153427500Y-116632500D01*
X160677500Y-109907500D02*
X160677500Y-110432500D01*
D12*
G04 #@! TO.C,SW2*
X154950000Y-124525000D02*
X160350000Y-124525000D01*
X154310000Y-120475000D02*
X160350000Y-120475000D01*
G04 #@! TO.C,C23*
X155680000Y-107870000D02*
X154910000Y-107110000D01*
X155680000Y-107870000D02*
X159490000Y-107870000D01*
X155680000Y-103300000D02*
X154910000Y-104060000D01*
X155680000Y-103300000D02*
X159490000Y-103300000D01*
X154910000Y-104060000D02*
X154910000Y-104470000D01*
X154910000Y-107110000D02*
X154910000Y-106700000D01*
X159490000Y-107870000D02*
X159490000Y-106700000D01*
X159490000Y-103300000D02*
X159490000Y-104470000D01*
G04 #@! TO.C,D5*
X150610000Y-124070000D02*
X150610000Y-121800000D01*
X149090000Y-124070000D02*
X150610000Y-124070000D01*
X149090000Y-121800000D02*
X149090000Y-124070000D01*
G04 #@! TO.C,C33*
X140100000Y-99185000D02*
X140100000Y-105025000D01*
X139340000Y-98425000D02*
X140100000Y-99185000D01*
X133500000Y-99185000D02*
X134260000Y-98425000D01*
X133500000Y-105025000D02*
X133500000Y-99185000D01*
X139340000Y-98425000D02*
X137920000Y-98425000D01*
X134260000Y-98425000D02*
X135680000Y-98425000D01*
X140100000Y-105025000D02*
X137920000Y-105025000D01*
X133500000Y-105025000D02*
X135680000Y-105025000D01*
G04 #@! TO.C,D1*
X152440500Y-93331500D02*
X152440500Y-95431500D01*
X151300500Y-93331500D02*
X151300500Y-95431500D01*
X152440500Y-93331500D02*
X151300500Y-93331500D01*
D10*
G04 #@! TO.C,J10*
X152689000Y-98631500D02*
X167689000Y-98631500D01*
X152689000Y-90631500D02*
X152689000Y-98631500D01*
X167689000Y-90631500D02*
X152689000Y-90631500D01*
X167689000Y-98631500D02*
X167689000Y-90631500D01*
X164689000Y-90631500D02*
X164689000Y-91231500D01*
X164689000Y-94031500D02*
X164689000Y-95231500D01*
X164689000Y-98631500D02*
X164689000Y-98031500D01*
D12*
G04 #@! TO.C,SW1*
X153650000Y-124100000D02*
X153350000Y-124100000D01*
X153650000Y-120800000D02*
X153650000Y-124100000D01*
X153350000Y-120800000D02*
X153650000Y-120800000D01*
X150850000Y-124100000D02*
X151150000Y-124100000D01*
X150850000Y-120800000D02*
X150850000Y-124100000D01*
X151150000Y-120800000D02*
X150850000Y-120800000D01*
G04 #@! TO.C,F1*
X150960000Y-93002064D02*
X150960000Y-91797936D01*
X149140000Y-93002064D02*
X149140000Y-91797936D01*
G04 #@! TO.C,J6*
X167380000Y-108960000D02*
X167380000Y-103275000D01*
X167380000Y-103275000D02*
X161780000Y-103275000D01*
X161780000Y-113375000D02*
X161780000Y-103275000D01*
X163310000Y-113375000D02*
X161780000Y-113375000D01*
X164580000Y-112100000D02*
X164580000Y-110230000D01*
X164580000Y-110230000D02*
X166450000Y-110230000D01*
X167380000Y-111500000D02*
X167380000Y-113375000D01*
X167380000Y-113375000D02*
X165850000Y-113375000D01*
G04 #@! TO.C,J7*
X167380000Y-124575000D02*
X165850000Y-124575000D01*
X167380000Y-122700000D02*
X167380000Y-124575000D01*
X164580000Y-121430000D02*
X166450000Y-121430000D01*
X164580000Y-123300000D02*
X164580000Y-121430000D01*
X163310000Y-124575000D02*
X161780000Y-124575000D01*
X161780000Y-124575000D02*
X161780000Y-114475000D01*
X167380000Y-114475000D02*
X161780000Y-114475000D01*
X167380000Y-120160000D02*
X167380000Y-114475000D01*
G04 #@! TO.C,D6*
X95500000Y-80260000D02*
X97770000Y-80260000D01*
X97770000Y-80260000D02*
X97770000Y-78740000D01*
X97770000Y-78740000D02*
X95500000Y-78740000D01*
G04 #@! TO.C,D1*
X88331500Y-93359500D02*
X88331500Y-94499500D01*
X88331500Y-94499500D02*
X90431500Y-94499500D01*
X88331500Y-93359500D02*
X90431500Y-93359500D01*
G04 #@! TO.C,L1*
X93331500Y-102187500D02*
X93331500Y-104487500D01*
X93331500Y-104487500D02*
X85931500Y-104487500D01*
X85931500Y-104487500D02*
X85931500Y-102187500D01*
X85931500Y-99387500D02*
X85931500Y-97087500D01*
X85931500Y-97087500D02*
X93331500Y-97087500D01*
X93331500Y-97087500D02*
X93331500Y-99387500D01*
G04 #@! TO.C,SW1*
X115800000Y-94650000D02*
X115800000Y-94950000D01*
X115800000Y-94950000D02*
X119100000Y-94950000D01*
X119100000Y-94950000D02*
X119100000Y-94650000D01*
X115800000Y-92450000D02*
X115800000Y-92150000D01*
X115800000Y-92150000D02*
X119100000Y-92150000D01*
X119100000Y-92150000D02*
X119100000Y-92450000D01*
D10*
G04 #@! TO.C,U1*
X104907500Y-85122500D02*
X105432500Y-85122500D01*
X112157500Y-92372500D02*
X111632500Y-92372500D01*
X112157500Y-85122500D02*
X111632500Y-85122500D01*
X104907500Y-92372500D02*
X104907500Y-91847500D01*
X112157500Y-92372500D02*
X112157500Y-91847500D01*
X112157500Y-85122500D02*
X112157500Y-85647500D01*
X104907500Y-85122500D02*
X104907500Y-85647500D01*
D12*
G04 #@! TO.C,C21*
X91700000Y-94509000D02*
X91700000Y-95509000D01*
X93400000Y-95509000D02*
X93400000Y-94509000D01*
G04 #@! TO.C,SW2*
X115475000Y-91490000D02*
X115475000Y-85450000D01*
X119525000Y-90850000D02*
X119525000Y-85450000D01*
G04 #@! TO.C,C33*
X100025000Y-112300000D02*
X100025000Y-110120000D01*
X100025000Y-105700000D02*
X100025000Y-107880000D01*
X93425000Y-111540000D02*
X93425000Y-110120000D01*
X93425000Y-106460000D02*
X93425000Y-107880000D01*
X100025000Y-112300000D02*
X94185000Y-112300000D01*
X94185000Y-112300000D02*
X93425000Y-111540000D01*
X93425000Y-106460000D02*
X94185000Y-105700000D01*
X94185000Y-105700000D02*
X100025000Y-105700000D01*
G04 #@! TO.C,C23*
X98300000Y-86310000D02*
X99470000Y-86310000D01*
X102870000Y-86310000D02*
X101700000Y-86310000D01*
X102110000Y-90890000D02*
X101700000Y-90890000D01*
X99060000Y-90890000D02*
X99470000Y-90890000D01*
X98300000Y-90120000D02*
X98300000Y-86310000D01*
X98300000Y-90120000D02*
X99060000Y-90890000D01*
X102870000Y-90120000D02*
X102870000Y-86310000D01*
X102870000Y-90120000D02*
X102110000Y-90890000D01*
D13*
G04 #@! TO.C,U5*
X120350000Y-89500000D02*
X121170000Y-89500000D01*
X120450000Y-92200000D02*
X121170000Y-92200000D01*
X120450000Y-92200000D02*
X120450000Y-91980000D01*
X123650000Y-91980000D02*
X123650000Y-92200000D01*
X123650000Y-92200000D02*
X122930000Y-92200000D01*
X122930000Y-89500000D02*
X123650000Y-89500000D01*
X123650000Y-89500000D02*
X123650000Y-89720000D01*
D12*
G04 #@! TO.C,D5*
X116800000Y-96710000D02*
X119070000Y-96710000D01*
X119070000Y-96710000D02*
X119070000Y-95190000D01*
X119070000Y-95190000D02*
X116800000Y-95190000D01*
G04 #@! TO.C,D2*
X87360500Y-107714500D02*
X87360500Y-106814500D01*
X86060500Y-107714500D02*
X87360500Y-107714500D01*
X86060500Y-106814500D02*
X87360500Y-106814500D01*
G04 #@! TO.C,D3*
X89950000Y-107450000D02*
X88650000Y-107450000D01*
X89950000Y-106550000D02*
X88650000Y-106550000D01*
X88650000Y-106550000D02*
X88650000Y-107450000D01*
G04 #@! TO.C,D4*
X124300000Y-79450000D02*
X124300000Y-82950000D01*
X120500000Y-79450000D02*
X120500000Y-83100000D01*
X120500000Y-83100000D02*
X120750000Y-83100000D01*
D10*
G04 #@! TO.C,J1*
X122250000Y-112600000D02*
X122250000Y-112000000D01*
X122250000Y-108000000D02*
X122250000Y-109200000D01*
X122250000Y-104000000D02*
X122250000Y-105200000D01*
X122250000Y-100600000D02*
X122250000Y-101200000D01*
X125250000Y-112600000D02*
X125250000Y-100600000D01*
X125250000Y-100600000D02*
X110250000Y-100600000D01*
X110250000Y-100600000D02*
X110250000Y-112600000D01*
X110250000Y-112600000D02*
X125250000Y-112600000D01*
D12*
G04 #@! TO.C,J2*
X130580000Y-99925000D02*
X129050000Y-99925000D01*
X130580000Y-98050000D02*
X130580000Y-99925000D01*
X127780000Y-96780000D02*
X129650000Y-96780000D01*
X127780000Y-98650000D02*
X127780000Y-96780000D01*
X126510000Y-99925000D02*
X124980000Y-99925000D01*
X124980000Y-99925000D02*
X124980000Y-89825000D01*
X130580000Y-89825000D02*
X124980000Y-89825000D01*
X130580000Y-95510000D02*
X130580000Y-89825000D01*
G04 #@! TO.C,J3*
X130580000Y-84360000D02*
X130580000Y-78675000D01*
X130580000Y-78675000D02*
X124980000Y-78675000D01*
X124980000Y-88775000D02*
X124980000Y-78675000D01*
X126510000Y-88775000D02*
X124980000Y-88775000D01*
X127780000Y-87500000D02*
X127780000Y-85630000D01*
X127780000Y-85630000D02*
X129650000Y-85630000D01*
X130580000Y-86900000D02*
X130580000Y-88775000D01*
X130580000Y-88775000D02*
X129050000Y-88775000D01*
G04 #@! TO.C,J6*
X108375000Y-78420000D02*
X108375000Y-79950000D01*
X106500000Y-78420000D02*
X108375000Y-78420000D01*
X105230000Y-81220000D02*
X105230000Y-79350000D01*
X107100000Y-81220000D02*
X105230000Y-81220000D01*
X108375000Y-82490000D02*
X108375000Y-84020000D01*
X108375000Y-84020000D02*
X98275000Y-84020000D01*
X98275000Y-78420000D02*
X98275000Y-84020000D01*
X103960000Y-78420000D02*
X98275000Y-78420000D01*
G04 #@! TO.C,J7*
X115160000Y-78420000D02*
X109475000Y-78420000D01*
X109475000Y-78420000D02*
X109475000Y-84020000D01*
X119575000Y-84020000D02*
X109475000Y-84020000D01*
X119575000Y-82490000D02*
X119575000Y-84020000D01*
X118300000Y-81220000D02*
X116430000Y-81220000D01*
X116430000Y-81220000D02*
X116430000Y-79350000D01*
X117700000Y-78420000D02*
X119575000Y-78420000D01*
X119575000Y-78420000D02*
X119575000Y-79950000D01*
D10*
G04 #@! TO.C,J10*
X93631500Y-81111000D02*
X93031500Y-81111000D01*
X89031500Y-81111000D02*
X90231500Y-81111000D01*
X85631500Y-81111000D02*
X86231500Y-81111000D01*
X93631500Y-78111000D02*
X85631500Y-78111000D01*
X85631500Y-78111000D02*
X85631500Y-93111000D01*
X85631500Y-93111000D02*
X93631500Y-93111000D01*
X93631500Y-93111000D02*
X93631500Y-78111000D01*
D12*
G04 #@! TO.C,F1*
X88002064Y-96660000D02*
X86797936Y-96660000D01*
X88002064Y-94840000D02*
X86797936Y-94840000D01*
G04 #@! TO.C,D6*
D10*
X118709523Y-146961904D02*
X118709523Y-146161904D01*
X118900000Y-146161904D01*
X119014285Y-146200000D01*
X119090476Y-146276190D01*
X119128571Y-146352380D01*
X119166666Y-146504761D01*
X119166666Y-146619047D01*
X119128571Y-146771428D01*
X119090476Y-146847619D01*
X119014285Y-146923809D01*
X118900000Y-146961904D01*
X118709523Y-146961904D01*
X119852380Y-146161904D02*
X119700000Y-146161904D01*
X119623809Y-146200000D01*
X119585714Y-146238095D01*
X119509523Y-146352380D01*
X119471428Y-146504761D01*
X119471428Y-146809523D01*
X119509523Y-146885714D01*
X119547619Y-146923809D01*
X119623809Y-146961904D01*
X119776190Y-146961904D01*
X119852380Y-146923809D01*
X119890476Y-146885714D01*
X119928571Y-146809523D01*
X119928571Y-146619047D01*
X119890476Y-146542857D01*
X119852380Y-146504761D01*
X119776190Y-146466666D01*
X119623809Y-146466666D01*
X119547619Y-146504761D01*
X119509523Y-146542857D01*
X119471428Y-146619047D01*
G04 #@! TO.C,C21*
X122057214Y-133114285D02*
X122095309Y-133152380D01*
X122133404Y-133266666D01*
X122133404Y-133342857D01*
X122095309Y-133457142D01*
X122019119Y-133533333D01*
X121942928Y-133571428D01*
X121790547Y-133609523D01*
X121676261Y-133609523D01*
X121523880Y-133571428D01*
X121447690Y-133533333D01*
X121371500Y-133457142D01*
X121333404Y-133342857D01*
X121333404Y-133266666D01*
X121371500Y-133152380D01*
X121409595Y-133114285D01*
X121409595Y-132809523D02*
X121371500Y-132771428D01*
X121333404Y-132695238D01*
X121333404Y-132504761D01*
X121371500Y-132428571D01*
X121409595Y-132390476D01*
X121485785Y-132352380D01*
X121561976Y-132352380D01*
X121676261Y-132390476D01*
X122133404Y-132847619D01*
X122133404Y-132352380D01*
X122133404Y-131590476D02*
X122133404Y-132047619D01*
X122133404Y-131819047D02*
X121333404Y-131819047D01*
X121447690Y-131895238D01*
X121523880Y-131971428D01*
X121561976Y-132047619D01*
G04 #@! TO.C,TH1*
X117271428Y-122961904D02*
X117728571Y-122961904D01*
X117500000Y-123761904D02*
X117500000Y-122961904D01*
X117995238Y-123761904D02*
X117995238Y-122961904D01*
X117995238Y-123342857D02*
X118452380Y-123342857D01*
X118452380Y-123761904D02*
X118452380Y-122961904D01*
X119252380Y-123761904D02*
X118795238Y-123761904D01*
X119023809Y-123761904D02*
X119023809Y-122961904D01*
X118947619Y-123076190D01*
X118871428Y-123152380D01*
X118795238Y-123190476D01*
G04 #@! TO.C,C44*
X102464285Y-141385714D02*
X102492857Y-141414285D01*
X102521428Y-141500000D01*
X102521428Y-141557142D01*
X102492857Y-141642857D01*
X102435714Y-141700000D01*
X102378571Y-141728571D01*
X102264285Y-141757142D01*
X102178571Y-141757142D01*
X102064285Y-141728571D01*
X102007142Y-141700000D01*
X101950000Y-141642857D01*
X101921428Y-141557142D01*
X101921428Y-141500000D01*
X101950000Y-141414285D01*
X101978571Y-141385714D01*
X102121428Y-140871428D02*
X102521428Y-140871428D01*
X101892857Y-141014285D02*
X102321428Y-141157142D01*
X102321428Y-140785714D01*
X102121428Y-140300000D02*
X102521428Y-140300000D01*
X101892857Y-140442857D02*
X102321428Y-140585714D01*
X102321428Y-140214285D01*
G04 #@! TO.C,C24*
X113914285Y-138585714D02*
X113942857Y-138614285D01*
X113971428Y-138700000D01*
X113971428Y-138757142D01*
X113942857Y-138842857D01*
X113885714Y-138900000D01*
X113828571Y-138928571D01*
X113714285Y-138957142D01*
X113628571Y-138957142D01*
X113514285Y-138928571D01*
X113457142Y-138900000D01*
X113400000Y-138842857D01*
X113371428Y-138757142D01*
X113371428Y-138700000D01*
X113400000Y-138614285D01*
X113428571Y-138585714D01*
X113428571Y-138357142D02*
X113400000Y-138328571D01*
X113371428Y-138271428D01*
X113371428Y-138128571D01*
X113400000Y-138071428D01*
X113428571Y-138042857D01*
X113485714Y-138014285D01*
X113542857Y-138014285D01*
X113628571Y-138042857D01*
X113971428Y-138385714D01*
X113971428Y-138014285D01*
X113571428Y-137500000D02*
X113971428Y-137500000D01*
X113342857Y-137642857D02*
X113771428Y-137785714D01*
X113771428Y-137414285D01*
G04 #@! TO.C,D2*
X128699023Y-121861904D02*
X128699023Y-121061904D01*
X128889500Y-121061904D01*
X129003785Y-121100000D01*
X129079976Y-121176190D01*
X129118071Y-121252380D01*
X129156166Y-121404761D01*
X129156166Y-121519047D01*
X129118071Y-121671428D01*
X129079976Y-121747619D01*
X129003785Y-121823809D01*
X128889500Y-121861904D01*
X128699023Y-121861904D01*
X129460928Y-121138095D02*
X129499023Y-121100000D01*
X129575214Y-121061904D01*
X129765690Y-121061904D01*
X129841880Y-121100000D01*
X129879976Y-121138095D01*
X129918071Y-121214285D01*
X129918071Y-121290476D01*
X129879976Y-121404761D01*
X129422833Y-121861904D01*
X129918071Y-121861904D01*
G04 #@! TO.C,D3*
X124459523Y-120911904D02*
X124459523Y-120111904D01*
X124650000Y-120111904D01*
X124764285Y-120150000D01*
X124840476Y-120226190D01*
X124878571Y-120302380D01*
X124916666Y-120454761D01*
X124916666Y-120569047D01*
X124878571Y-120721428D01*
X124840476Y-120797619D01*
X124764285Y-120873809D01*
X124650000Y-120911904D01*
X124459523Y-120911904D01*
X125183333Y-120111904D02*
X125678571Y-120111904D01*
X125411904Y-120416666D01*
X125526190Y-120416666D01*
X125602380Y-120454761D01*
X125640476Y-120492857D01*
X125678571Y-120569047D01*
X125678571Y-120759523D01*
X125640476Y-120835714D01*
X125602380Y-120873809D01*
X125526190Y-120911904D01*
X125297619Y-120911904D01*
X125221428Y-120873809D01*
X125183333Y-120835714D01*
G04 #@! TO.C,D4*
X93009523Y-143311904D02*
X93009523Y-142511904D01*
X93200000Y-142511904D01*
X93314285Y-142550000D01*
X93390476Y-142626190D01*
X93428571Y-142702380D01*
X93466666Y-142854761D01*
X93466666Y-142969047D01*
X93428571Y-143121428D01*
X93390476Y-143197619D01*
X93314285Y-143273809D01*
X93200000Y-143311904D01*
X93009523Y-143311904D01*
X94152380Y-142778571D02*
X94152380Y-143311904D01*
X93961904Y-142473809D02*
X93771428Y-143045238D01*
X94266666Y-143045238D01*
G04 #@! TO.C,J1*
X106433333Y-126061904D02*
X106433333Y-126633333D01*
X106395238Y-126747619D01*
X106319047Y-126823809D01*
X106204761Y-126861904D01*
X106128571Y-126861904D01*
X107233333Y-126861904D02*
X106776190Y-126861904D01*
X107004761Y-126861904D02*
X107004761Y-126061904D01*
X106928571Y-126176190D01*
X106852380Y-126252380D01*
X106776190Y-126290476D01*
G04 #@! TO.C,L1*
X121516666Y-130161904D02*
X121135714Y-130161904D01*
X121135714Y-129361904D01*
X122202380Y-130161904D02*
X121745238Y-130161904D01*
X121973809Y-130161904D02*
X121973809Y-129361904D01*
X121897619Y-129476190D01*
X121821428Y-129552380D01*
X121745238Y-129590476D01*
G04 #@! TO.C,C5*
X109866666Y-132085714D02*
X109828571Y-132123809D01*
X109714285Y-132161904D01*
X109638095Y-132161904D01*
X109523809Y-132123809D01*
X109447619Y-132047619D01*
X109409523Y-131971428D01*
X109371428Y-131819047D01*
X109371428Y-131704761D01*
X109409523Y-131552380D01*
X109447619Y-131476190D01*
X109523809Y-131400000D01*
X109638095Y-131361904D01*
X109714285Y-131361904D01*
X109828571Y-131400000D01*
X109866666Y-131438095D01*
X110590476Y-131361904D02*
X110209523Y-131361904D01*
X110171428Y-131742857D01*
X110209523Y-131704761D01*
X110285714Y-131666666D01*
X110476190Y-131666666D01*
X110552380Y-131704761D01*
X110590476Y-131742857D01*
X110628571Y-131819047D01*
X110628571Y-132009523D01*
X110590476Y-132085714D01*
X110552380Y-132123809D01*
X110476190Y-132161904D01*
X110285714Y-132161904D01*
X110209523Y-132123809D01*
X110171428Y-132085714D01*
G04 #@! TO.C,C3*
X113741666Y-133835714D02*
X113703571Y-133873809D01*
X113589285Y-133911904D01*
X113513095Y-133911904D01*
X113398809Y-133873809D01*
X113322619Y-133797619D01*
X113284523Y-133721428D01*
X113246428Y-133569047D01*
X113246428Y-133454761D01*
X113284523Y-133302380D01*
X113322619Y-133226190D01*
X113398809Y-133150000D01*
X113513095Y-133111904D01*
X113589285Y-133111904D01*
X113703571Y-133150000D01*
X113741666Y-133188095D01*
X114008333Y-133111904D02*
X114503571Y-133111904D01*
X114236904Y-133416666D01*
X114351190Y-133416666D01*
X114427380Y-133454761D01*
X114465476Y-133492857D01*
X114503571Y-133569047D01*
X114503571Y-133759523D01*
X114465476Y-133835714D01*
X114427380Y-133873809D01*
X114351190Y-133911904D01*
X114122619Y-133911904D01*
X114046428Y-133873809D01*
X114008333Y-133835714D01*
G04 #@! TO.C,U5*
X93340476Y-138811904D02*
X93340476Y-139459523D01*
X93378571Y-139535714D01*
X93416666Y-139573809D01*
X93492857Y-139611904D01*
X93645238Y-139611904D01*
X93721428Y-139573809D01*
X93759523Y-139535714D01*
X93797619Y-139459523D01*
X93797619Y-138811904D01*
X94559523Y-138811904D02*
X94178571Y-138811904D01*
X94140476Y-139192857D01*
X94178571Y-139154761D01*
X94254761Y-139116666D01*
X94445238Y-139116666D01*
X94521428Y-139154761D01*
X94559523Y-139192857D01*
X94597619Y-139269047D01*
X94597619Y-139459523D01*
X94559523Y-139535714D01*
X94521428Y-139573809D01*
X94445238Y-139611904D01*
X94254761Y-139611904D01*
X94178571Y-139573809D01*
X94140476Y-139535714D01*
G04 #@! TO.C,C2*
X107535714Y-129833333D02*
X107573809Y-129871428D01*
X107611904Y-129985714D01*
X107611904Y-130061904D01*
X107573809Y-130176190D01*
X107497619Y-130252380D01*
X107421428Y-130290476D01*
X107269047Y-130328571D01*
X107154761Y-130328571D01*
X107002380Y-130290476D01*
X106926190Y-130252380D01*
X106850000Y-130176190D01*
X106811904Y-130061904D01*
X106811904Y-129985714D01*
X106850000Y-129871428D01*
X106888095Y-129833333D01*
X106888095Y-129528571D02*
X106850000Y-129490476D01*
X106811904Y-129414285D01*
X106811904Y-129223809D01*
X106850000Y-129147619D01*
X106888095Y-129109523D01*
X106964285Y-129071428D01*
X107040476Y-129071428D01*
X107154761Y-129109523D01*
X107611904Y-129566666D01*
X107611904Y-129071428D01*
G04 #@! TO.C,J2*
X86233333Y-136361904D02*
X86233333Y-136933333D01*
X86195238Y-137047619D01*
X86119047Y-137123809D01*
X86004761Y-137161904D01*
X85928571Y-137161904D01*
X86576190Y-136438095D02*
X86614285Y-136400000D01*
X86690476Y-136361904D01*
X86880952Y-136361904D01*
X86957142Y-136400000D01*
X86995238Y-136438095D01*
X87033333Y-136514285D01*
X87033333Y-136590476D01*
X86995238Y-136704761D01*
X86538095Y-137161904D01*
X87033333Y-137161904D01*
G04 #@! TO.C,C9*
X113835714Y-142683333D02*
X113873809Y-142721428D01*
X113911904Y-142835714D01*
X113911904Y-142911904D01*
X113873809Y-143026190D01*
X113797619Y-143102380D01*
X113721428Y-143140476D01*
X113569047Y-143178571D01*
X113454761Y-143178571D01*
X113302380Y-143140476D01*
X113226190Y-143102380D01*
X113150000Y-143026190D01*
X113111904Y-142911904D01*
X113111904Y-142835714D01*
X113150000Y-142721428D01*
X113188095Y-142683333D01*
X113911904Y-142302380D02*
X113911904Y-142150000D01*
X113873809Y-142073809D01*
X113835714Y-142035714D01*
X113721428Y-141959523D01*
X113569047Y-141921428D01*
X113264285Y-141921428D01*
X113188095Y-141959523D01*
X113150000Y-141997619D01*
X113111904Y-142073809D01*
X113111904Y-142226190D01*
X113150000Y-142302380D01*
X113188095Y-142340476D01*
X113264285Y-142378571D01*
X113454761Y-142378571D01*
X113530952Y-142340476D01*
X113569047Y-142302380D01*
X113607142Y-142226190D01*
X113607142Y-142073809D01*
X113569047Y-141997619D01*
X113530952Y-141959523D01*
X113454761Y-141921428D01*
G04 #@! TO.C,J3*
X86233333Y-147561904D02*
X86233333Y-148133333D01*
X86195238Y-148247619D01*
X86119047Y-148323809D01*
X86004761Y-148361904D01*
X85928571Y-148361904D01*
X86538095Y-147561904D02*
X87033333Y-147561904D01*
X86766666Y-147866666D01*
X86880952Y-147866666D01*
X86957142Y-147904761D01*
X86995238Y-147942857D01*
X87033333Y-148019047D01*
X87033333Y-148209523D01*
X86995238Y-148285714D01*
X86957142Y-148323809D01*
X86880952Y-148361904D01*
X86652380Y-148361904D01*
X86576190Y-148323809D01*
X86538095Y-148285714D01*
G04 #@! TO.C,C8*
X119685714Y-143550000D02*
X119657142Y-143521428D01*
X119628571Y-143435714D01*
X119628571Y-143378571D01*
X119657142Y-143292857D01*
X119714285Y-143235714D01*
X119771428Y-143207142D01*
X119885714Y-143178571D01*
X119971428Y-143178571D01*
X120085714Y-143207142D01*
X120142857Y-143235714D01*
X120200000Y-143292857D01*
X120228571Y-143378571D01*
X120228571Y-143435714D01*
X120200000Y-143521428D01*
X120171428Y-143550000D01*
X119971428Y-143892857D02*
X120000000Y-143835714D01*
X120028571Y-143807142D01*
X120085714Y-143778571D01*
X120114285Y-143778571D01*
X120171428Y-143807142D01*
X120200000Y-143835714D01*
X120228571Y-143892857D01*
X120228571Y-144007142D01*
X120200000Y-144064285D01*
X120171428Y-144092857D01*
X120114285Y-144121428D01*
X120085714Y-144121428D01*
X120028571Y-144092857D01*
X120000000Y-144064285D01*
X119971428Y-144007142D01*
X119971428Y-143892857D01*
X119942857Y-143835714D01*
X119914285Y-143807142D01*
X119857142Y-143778571D01*
X119742857Y-143778571D01*
X119685714Y-143807142D01*
X119657142Y-143835714D01*
X119628571Y-143892857D01*
X119628571Y-144007142D01*
X119657142Y-144064285D01*
X119685714Y-144092857D01*
X119742857Y-144121428D01*
X119857142Y-144121428D01*
X119914285Y-144092857D01*
X119942857Y-144064285D01*
X119971428Y-144007142D01*
G04 #@! TO.C,C10*
X113914285Y-140385714D02*
X113942857Y-140414285D01*
X113971428Y-140500000D01*
X113971428Y-140557142D01*
X113942857Y-140642857D01*
X113885714Y-140700000D01*
X113828571Y-140728571D01*
X113714285Y-140757142D01*
X113628571Y-140757142D01*
X113514285Y-140728571D01*
X113457142Y-140700000D01*
X113400000Y-140642857D01*
X113371428Y-140557142D01*
X113371428Y-140500000D01*
X113400000Y-140414285D01*
X113428571Y-140385714D01*
X113971428Y-139814285D02*
X113971428Y-140157142D01*
X113971428Y-139985714D02*
X113371428Y-139985714D01*
X113457142Y-140042857D01*
X113514285Y-140100000D01*
X113542857Y-140157142D01*
X113371428Y-139442857D02*
X113371428Y-139385714D01*
X113400000Y-139328571D01*
X113428571Y-139300000D01*
X113485714Y-139271428D01*
X113600000Y-139242857D01*
X113742857Y-139242857D01*
X113857142Y-139271428D01*
X113914285Y-139300000D01*
X113942857Y-139328571D01*
X113971428Y-139385714D01*
X113971428Y-139442857D01*
X113942857Y-139500000D01*
X113914285Y-139528571D01*
X113857142Y-139557142D01*
X113742857Y-139585714D01*
X113600000Y-139585714D01*
X113485714Y-139557142D01*
X113428571Y-139528571D01*
X113400000Y-139500000D01*
X113371428Y-139442857D01*
G04 #@! TO.C,U1*
X101590476Y-142311904D02*
X101590476Y-142959523D01*
X101628571Y-143035714D01*
X101666666Y-143073809D01*
X101742857Y-143111904D01*
X101895238Y-143111904D01*
X101971428Y-143073809D01*
X102009523Y-143035714D01*
X102047619Y-142959523D01*
X102047619Y-142311904D01*
X102847619Y-143111904D02*
X102390476Y-143111904D01*
X102619047Y-143111904D02*
X102619047Y-142311904D01*
X102542857Y-142426190D01*
X102466666Y-142502380D01*
X102390476Y-142540476D01*
G04 #@! TO.C,SW2*
X96083333Y-140383333D02*
X96116666Y-140283333D01*
X96116666Y-140116666D01*
X96083333Y-140050000D01*
X96050000Y-140016666D01*
X95983333Y-139983333D01*
X95916666Y-139983333D01*
X95850000Y-140016666D01*
X95816666Y-140050000D01*
X95783333Y-140116666D01*
X95750000Y-140250000D01*
X95716666Y-140316666D01*
X95683333Y-140350000D01*
X95616666Y-140383333D01*
X95550000Y-140383333D01*
X95483333Y-140350000D01*
X95450000Y-140316666D01*
X95416666Y-140250000D01*
X95416666Y-140083333D01*
X95450000Y-139983333D01*
X95416666Y-139750000D02*
X96116666Y-139583333D01*
X95616666Y-139450000D01*
X96116666Y-139316666D01*
X95416666Y-139150000D01*
X95483333Y-138916666D02*
X95450000Y-138883333D01*
X95416666Y-138816666D01*
X95416666Y-138650000D01*
X95450000Y-138583333D01*
X95483333Y-138550000D01*
X95550000Y-138516666D01*
X95616666Y-138516666D01*
X95716666Y-138550000D01*
X96116666Y-138950000D01*
X96116666Y-138516666D01*
G04 #@! TO.C,C23*
X117385714Y-136085714D02*
X117347619Y-136123809D01*
X117233333Y-136161904D01*
X117157142Y-136161904D01*
X117042857Y-136123809D01*
X116966666Y-136047619D01*
X116928571Y-135971428D01*
X116890476Y-135819047D01*
X116890476Y-135704761D01*
X116928571Y-135552380D01*
X116966666Y-135476190D01*
X117042857Y-135400000D01*
X117157142Y-135361904D01*
X117233333Y-135361904D01*
X117347619Y-135400000D01*
X117385714Y-135438095D01*
X117690476Y-135438095D02*
X117728571Y-135400000D01*
X117804761Y-135361904D01*
X117995238Y-135361904D01*
X118071428Y-135400000D01*
X118109523Y-135438095D01*
X118147619Y-135514285D01*
X118147619Y-135590476D01*
X118109523Y-135704761D01*
X117652380Y-136161904D01*
X118147619Y-136161904D01*
X118414285Y-135361904D02*
X118909523Y-135361904D01*
X118642857Y-135666666D01*
X118757142Y-135666666D01*
X118833333Y-135704761D01*
X118871428Y-135742857D01*
X118909523Y-135819047D01*
X118909523Y-136009523D01*
X118871428Y-136085714D01*
X118833333Y-136123809D01*
X118757142Y-136161904D01*
X118528571Y-136161904D01*
X118452380Y-136123809D01*
X118414285Y-136085714D01*
X113481428Y-136600952D02*
X113481428Y-135839047D01*
X113862380Y-136220000D02*
X113100476Y-136220000D01*
G04 #@! TO.C,C4*
X112435714Y-133283333D02*
X112473809Y-133321428D01*
X112511904Y-133435714D01*
X112511904Y-133511904D01*
X112473809Y-133626190D01*
X112397619Y-133702380D01*
X112321428Y-133740476D01*
X112169047Y-133778571D01*
X112054761Y-133778571D01*
X111902380Y-133740476D01*
X111826190Y-133702380D01*
X111750000Y-133626190D01*
X111711904Y-133511904D01*
X111711904Y-133435714D01*
X111750000Y-133321428D01*
X111788095Y-133283333D01*
X111978571Y-132597619D02*
X112511904Y-132597619D01*
X111673809Y-132788095D02*
X112245238Y-132978571D01*
X112245238Y-132483333D01*
G04 #@! TO.C,C1*
X106135714Y-129833333D02*
X106173809Y-129871428D01*
X106211904Y-129985714D01*
X106211904Y-130061904D01*
X106173809Y-130176190D01*
X106097619Y-130252380D01*
X106021428Y-130290476D01*
X105869047Y-130328571D01*
X105754761Y-130328571D01*
X105602380Y-130290476D01*
X105526190Y-130252380D01*
X105450000Y-130176190D01*
X105411904Y-130061904D01*
X105411904Y-129985714D01*
X105450000Y-129871428D01*
X105488095Y-129833333D01*
X106211904Y-129071428D02*
X106211904Y-129528571D01*
X106211904Y-129300000D02*
X105411904Y-129300000D01*
X105526190Y-129376190D01*
X105602380Y-129452380D01*
X105640476Y-129528571D01*
G04 #@! TO.C,C45*
X102264285Y-138885714D02*
X102292857Y-138914285D01*
X102321428Y-139000000D01*
X102321428Y-139057142D01*
X102292857Y-139142857D01*
X102235714Y-139200000D01*
X102178571Y-139228571D01*
X102064285Y-139257142D01*
X101978571Y-139257142D01*
X101864285Y-139228571D01*
X101807142Y-139200000D01*
X101750000Y-139142857D01*
X101721428Y-139057142D01*
X101721428Y-139000000D01*
X101750000Y-138914285D01*
X101778571Y-138885714D01*
X101921428Y-138371428D02*
X102321428Y-138371428D01*
X101692857Y-138514285D02*
X102121428Y-138657142D01*
X102121428Y-138285714D01*
X101721428Y-137771428D02*
X101721428Y-138057142D01*
X102007142Y-138085714D01*
X101978571Y-138057142D01*
X101950000Y-138000000D01*
X101950000Y-137857142D01*
X101978571Y-137800000D01*
X102007142Y-137771428D01*
X102064285Y-137742857D01*
X102207142Y-137742857D01*
X102264285Y-137771428D01*
X102292857Y-137800000D01*
X102321428Y-137857142D01*
X102321428Y-138000000D01*
X102292857Y-138057142D01*
X102264285Y-138085714D01*
G04 #@! TO.C,R26*
X102564285Y-131921428D02*
X102364285Y-131635714D01*
X102221428Y-131921428D02*
X102221428Y-131321428D01*
X102450000Y-131321428D01*
X102507142Y-131350000D01*
X102535714Y-131378571D01*
X102564285Y-131435714D01*
X102564285Y-131521428D01*
X102535714Y-131578571D01*
X102507142Y-131607142D01*
X102450000Y-131635714D01*
X102221428Y-131635714D01*
X102792857Y-131378571D02*
X102821428Y-131350000D01*
X102878571Y-131321428D01*
X103021428Y-131321428D01*
X103078571Y-131350000D01*
X103107142Y-131378571D01*
X103135714Y-131435714D01*
X103135714Y-131492857D01*
X103107142Y-131578571D01*
X102764285Y-131921428D01*
X103135714Y-131921428D01*
X103650000Y-131321428D02*
X103535714Y-131321428D01*
X103478571Y-131350000D01*
X103450000Y-131378571D01*
X103392857Y-131464285D01*
X103364285Y-131578571D01*
X103364285Y-131807142D01*
X103392857Y-131864285D01*
X103421428Y-131892857D01*
X103478571Y-131921428D01*
X103592857Y-131921428D01*
X103650000Y-131892857D01*
X103678571Y-131864285D01*
X103707142Y-131807142D01*
X103707142Y-131664285D01*
X103678571Y-131607142D01*
X103650000Y-131578571D01*
X103592857Y-131550000D01*
X103478571Y-131550000D01*
X103421428Y-131578571D01*
X103392857Y-131607142D01*
X103364285Y-131664285D01*
G04 #@! TO.C,D5*
X96411904Y-132240476D02*
X95611904Y-132240476D01*
X95611904Y-132050000D01*
X95650000Y-131935714D01*
X95726190Y-131859523D01*
X95802380Y-131821428D01*
X95954761Y-131783333D01*
X96069047Y-131783333D01*
X96221428Y-131821428D01*
X96297619Y-131859523D01*
X96373809Y-131935714D01*
X96411904Y-132050000D01*
X96411904Y-132240476D01*
X95611904Y-131059523D02*
X95611904Y-131440476D01*
X95992857Y-131478571D01*
X95954761Y-131440476D01*
X95916666Y-131364285D01*
X95916666Y-131173809D01*
X95954761Y-131097619D01*
X95992857Y-131059523D01*
X96069047Y-131021428D01*
X96259523Y-131021428D01*
X96335714Y-131059523D01*
X96373809Y-131097619D01*
X96411904Y-131173809D01*
X96411904Y-131364285D01*
X96373809Y-131440476D01*
X96335714Y-131478571D01*
G04 #@! TO.C,C33*
X115385714Y-121414285D02*
X115423809Y-121452380D01*
X115461904Y-121566666D01*
X115461904Y-121642857D01*
X115423809Y-121757142D01*
X115347619Y-121833333D01*
X115271428Y-121871428D01*
X115119047Y-121909523D01*
X115004761Y-121909523D01*
X114852380Y-121871428D01*
X114776190Y-121833333D01*
X114700000Y-121757142D01*
X114661904Y-121642857D01*
X114661904Y-121566666D01*
X114700000Y-121452380D01*
X114738095Y-121414285D01*
X114661904Y-121147619D02*
X114661904Y-120652380D01*
X114966666Y-120919047D01*
X114966666Y-120804761D01*
X115004761Y-120728571D01*
X115042857Y-120690476D01*
X115119047Y-120652380D01*
X115309523Y-120652380D01*
X115385714Y-120690476D01*
X115423809Y-120728571D01*
X115461904Y-120804761D01*
X115461904Y-121033333D01*
X115423809Y-121109523D01*
X115385714Y-121147619D01*
X114661904Y-120385714D02*
X114661904Y-119890476D01*
X114966666Y-120157142D01*
X114966666Y-120042857D01*
X115004761Y-119966666D01*
X115042857Y-119928571D01*
X115119047Y-119890476D01*
X115309523Y-119890476D01*
X115385714Y-119928571D01*
X115423809Y-119966666D01*
X115461904Y-120042857D01*
X115461904Y-120271428D01*
X115423809Y-120347619D01*
X115385714Y-120385714D01*
X123174047Y-115711428D02*
X123935952Y-115711428D01*
X123555000Y-116092380D02*
X123555000Y-115330476D01*
G04 #@! TO.C,D1*
X127957142Y-133921428D02*
X127957142Y-133321428D01*
X128100000Y-133321428D01*
X128185714Y-133350000D01*
X128242857Y-133407142D01*
X128271428Y-133464285D01*
X128300000Y-133578571D01*
X128300000Y-133664285D01*
X128271428Y-133778571D01*
X128242857Y-133835714D01*
X128185714Y-133892857D01*
X128100000Y-133921428D01*
X127957142Y-133921428D01*
X128871428Y-133921428D02*
X128528571Y-133921428D01*
X128700000Y-133921428D02*
X128700000Y-133321428D01*
X128642857Y-133407142D01*
X128585714Y-133464285D01*
X128528571Y-133492857D01*
G04 #@! TO.C,J10*
X120261904Y-136397619D02*
X120833333Y-136397619D01*
X120947619Y-136435714D01*
X121023809Y-136511904D01*
X121061904Y-136626190D01*
X121061904Y-136702380D01*
X121061904Y-135597619D02*
X121061904Y-136054761D01*
X121061904Y-135826190D02*
X120261904Y-135826190D01*
X120376190Y-135902380D01*
X120452380Y-135978571D01*
X120490476Y-136054761D01*
X120261904Y-135102380D02*
X120261904Y-135026190D01*
X120300000Y-134950000D01*
X120338095Y-134911904D01*
X120414285Y-134873809D01*
X120566666Y-134835714D01*
X120757142Y-134835714D01*
X120909523Y-134873809D01*
X120985714Y-134911904D01*
X121023809Y-134950000D01*
X121061904Y-135026190D01*
X121061904Y-135102380D01*
X121023809Y-135178571D01*
X120985714Y-135216666D01*
X120909523Y-135254761D01*
X120757142Y-135292857D01*
X120566666Y-135292857D01*
X120414285Y-135254761D01*
X120338095Y-135216666D01*
X120300000Y-135178571D01*
X120261904Y-135102380D01*
G04 #@! TO.C,C20*
X124903785Y-131663785D02*
X124875214Y-131692357D01*
X124789500Y-131720928D01*
X124732357Y-131720928D01*
X124646642Y-131692357D01*
X124589500Y-131635214D01*
X124560928Y-131578071D01*
X124532357Y-131463785D01*
X124532357Y-131378071D01*
X124560928Y-131263785D01*
X124589500Y-131206642D01*
X124646642Y-131149500D01*
X124732357Y-131120928D01*
X124789500Y-131120928D01*
X124875214Y-131149500D01*
X124903785Y-131178071D01*
X125132357Y-131178071D02*
X125160928Y-131149500D01*
X125218071Y-131120928D01*
X125360928Y-131120928D01*
X125418071Y-131149500D01*
X125446642Y-131178071D01*
X125475214Y-131235214D01*
X125475214Y-131292357D01*
X125446642Y-131378071D01*
X125103785Y-131720928D01*
X125475214Y-131720928D01*
X125846642Y-131120928D02*
X125903785Y-131120928D01*
X125960928Y-131149500D01*
X125989500Y-131178071D01*
X126018071Y-131235214D01*
X126046642Y-131349500D01*
X126046642Y-131492357D01*
X126018071Y-131606642D01*
X125989500Y-131663785D01*
X125960928Y-131692357D01*
X125903785Y-131720928D01*
X125846642Y-131720928D01*
X125789500Y-131692357D01*
X125760928Y-131663785D01*
X125732357Y-131606642D01*
X125703785Y-131492357D01*
X125703785Y-131349500D01*
X125732357Y-131235214D01*
X125760928Y-131178071D01*
X125789500Y-131149500D01*
X125846642Y-131120928D01*
G04 #@! TO.C,SW1*
X101492857Y-134850000D02*
X101521428Y-134764285D01*
X101521428Y-134621428D01*
X101492857Y-134564285D01*
X101464285Y-134535714D01*
X101407142Y-134507142D01*
X101350000Y-134507142D01*
X101292857Y-134535714D01*
X101264285Y-134564285D01*
X101235714Y-134621428D01*
X101207142Y-134735714D01*
X101178571Y-134792857D01*
X101150000Y-134821428D01*
X101092857Y-134850000D01*
X101035714Y-134850000D01*
X100978571Y-134821428D01*
X100950000Y-134792857D01*
X100921428Y-134735714D01*
X100921428Y-134592857D01*
X100950000Y-134507142D01*
X100921428Y-134307142D02*
X101521428Y-134164285D01*
X101092857Y-134050000D01*
X101521428Y-133935714D01*
X100921428Y-133792857D01*
X101521428Y-133250000D02*
X101521428Y-133592857D01*
X101521428Y-133421428D02*
X100921428Y-133421428D01*
X101007142Y-133478571D01*
X101064285Y-133535714D01*
X101092857Y-133592857D01*
G04 #@! TO.C,F1*
X128266666Y-129958571D02*
X127933333Y-129958571D01*
X127933333Y-130482380D02*
X127933333Y-129482380D01*
X128409523Y-129482380D01*
X129314285Y-130482380D02*
X128742857Y-130482380D01*
X129028571Y-130482380D02*
X129028571Y-129482380D01*
X128933333Y-129625238D01*
X128838095Y-129720476D01*
X128742857Y-129768095D01*
G04 #@! TO.C,C34*
X93435714Y-133435714D02*
X93397619Y-133473809D01*
X93283333Y-133511904D01*
X93207142Y-133511904D01*
X93092857Y-133473809D01*
X93016666Y-133397619D01*
X92978571Y-133321428D01*
X92940476Y-133169047D01*
X92940476Y-133054761D01*
X92978571Y-132902380D01*
X93016666Y-132826190D01*
X93092857Y-132750000D01*
X93207142Y-132711904D01*
X93283333Y-132711904D01*
X93397619Y-132750000D01*
X93435714Y-132788095D01*
X93702380Y-132711904D02*
X94197619Y-132711904D01*
X93930952Y-133016666D01*
X94045238Y-133016666D01*
X94121428Y-133054761D01*
X94159523Y-133092857D01*
X94197619Y-133169047D01*
X94197619Y-133359523D01*
X94159523Y-133435714D01*
X94121428Y-133473809D01*
X94045238Y-133511904D01*
X93816666Y-133511904D01*
X93740476Y-133473809D01*
X93702380Y-133435714D01*
X94883333Y-132978571D02*
X94883333Y-133511904D01*
X94692857Y-132673809D02*
X94502380Y-133245238D01*
X94997619Y-133245238D01*
G04 #@! TO.C,J6*
X116433333Y-147861904D02*
X116433333Y-148433333D01*
X116395238Y-148547619D01*
X116319047Y-148623809D01*
X116204761Y-148661904D01*
X116128571Y-148661904D01*
X117157142Y-147861904D02*
X117004761Y-147861904D01*
X116928571Y-147900000D01*
X116890476Y-147938095D01*
X116814285Y-148052380D01*
X116776190Y-148204761D01*
X116776190Y-148509523D01*
X116814285Y-148585714D01*
X116852380Y-148623809D01*
X116928571Y-148661904D01*
X117080952Y-148661904D01*
X117157142Y-148623809D01*
X117195238Y-148585714D01*
X117233333Y-148509523D01*
X117233333Y-148319047D01*
X117195238Y-148242857D01*
X117157142Y-148204761D01*
X117080952Y-148166666D01*
X116928571Y-148166666D01*
X116852380Y-148204761D01*
X116814285Y-148242857D01*
X116776190Y-148319047D01*
G04 #@! TO.C,R1*
X101321428Y-136150000D02*
X101035714Y-136350000D01*
X101321428Y-136492857D02*
X100721428Y-136492857D01*
X100721428Y-136264285D01*
X100750000Y-136207142D01*
X100778571Y-136178571D01*
X100835714Y-136150000D01*
X100921428Y-136150000D01*
X100978571Y-136178571D01*
X101007142Y-136207142D01*
X101035714Y-136264285D01*
X101035714Y-136492857D01*
X101321428Y-135578571D02*
X101321428Y-135921428D01*
X101321428Y-135750000D02*
X100721428Y-135750000D01*
X100807142Y-135807142D01*
X100864285Y-135864285D01*
X100892857Y-135921428D01*
G04 #@! TO.C,J7*
X105233333Y-147861904D02*
X105233333Y-148433333D01*
X105195238Y-148547619D01*
X105119047Y-148623809D01*
X105004761Y-148661904D01*
X104928571Y-148661904D01*
X105538095Y-147861904D02*
X106071428Y-147861904D01*
X105728571Y-148661904D01*
G04 #@! TO.C,D6*
X165161904Y-102290476D02*
X164361904Y-102290476D01*
X164361904Y-102100000D01*
X164400000Y-101985714D01*
X164476190Y-101909523D01*
X164552380Y-101871428D01*
X164704761Y-101833333D01*
X164819047Y-101833333D01*
X164971428Y-101871428D01*
X165047619Y-101909523D01*
X165123809Y-101985714D01*
X165161904Y-102100000D01*
X165161904Y-102290476D01*
X164361904Y-101147619D02*
X164361904Y-101300000D01*
X164400000Y-101376190D01*
X164438095Y-101414285D01*
X164552380Y-101490476D01*
X164704761Y-101528571D01*
X165009523Y-101528571D01*
X165085714Y-101490476D01*
X165123809Y-101452380D01*
X165161904Y-101376190D01*
X165161904Y-101223809D01*
X165123809Y-101147619D01*
X165085714Y-101109523D01*
X165009523Y-101071428D01*
X164819047Y-101071428D01*
X164742857Y-101109523D01*
X164704761Y-101147619D01*
X164666666Y-101223809D01*
X164666666Y-101376190D01*
X164704761Y-101452380D01*
X164742857Y-101490476D01*
X164819047Y-101528571D01*
G04 #@! TO.C,C21*
X150285714Y-99514214D02*
X150247619Y-99552309D01*
X150133333Y-99590404D01*
X150057142Y-99590404D01*
X149942857Y-99552309D01*
X149866666Y-99476119D01*
X149828571Y-99399928D01*
X149790476Y-99247547D01*
X149790476Y-99133261D01*
X149828571Y-98980880D01*
X149866666Y-98904690D01*
X149942857Y-98828500D01*
X150057142Y-98790404D01*
X150133333Y-98790404D01*
X150247619Y-98828500D01*
X150285714Y-98866595D01*
X150590476Y-98866595D02*
X150628571Y-98828500D01*
X150704761Y-98790404D01*
X150895238Y-98790404D01*
X150971428Y-98828500D01*
X151009523Y-98866595D01*
X151047619Y-98942785D01*
X151047619Y-99018976D01*
X151009523Y-99133261D01*
X150552380Y-99590404D01*
X151047619Y-99590404D01*
X151809523Y-99590404D02*
X151352380Y-99590404D01*
X151580952Y-99590404D02*
X151580952Y-98790404D01*
X151504761Y-98904690D01*
X151428571Y-98980880D01*
X151352380Y-99018976D01*
G04 #@! TO.C,TH1*
X141161904Y-103728571D02*
X141161904Y-103271428D01*
X141961904Y-103500000D02*
X141161904Y-103500000D01*
X141961904Y-103004761D02*
X141161904Y-103004761D01*
X141542857Y-103004761D02*
X141542857Y-102547619D01*
X141961904Y-102547619D02*
X141161904Y-102547619D01*
X141961904Y-101747619D02*
X141961904Y-102204761D01*
X141961904Y-101976190D02*
X141161904Y-101976190D01*
X141276190Y-102052380D01*
X141352380Y-102128571D01*
X141390476Y-102204761D01*
G04 #@! TO.C,C44*
X158814285Y-118964285D02*
X158785714Y-118992857D01*
X158700000Y-119021428D01*
X158642857Y-119021428D01*
X158557142Y-118992857D01*
X158500000Y-118935714D01*
X158471428Y-118878571D01*
X158442857Y-118764285D01*
X158442857Y-118678571D01*
X158471428Y-118564285D01*
X158500000Y-118507142D01*
X158557142Y-118450000D01*
X158642857Y-118421428D01*
X158700000Y-118421428D01*
X158785714Y-118450000D01*
X158814285Y-118478571D01*
X159328571Y-118621428D02*
X159328571Y-119021428D01*
X159185714Y-118392857D02*
X159042857Y-118821428D01*
X159414285Y-118821428D01*
X159900000Y-118621428D02*
X159900000Y-119021428D01*
X159757142Y-118392857D02*
X159614285Y-118821428D01*
X159985714Y-118821428D01*
G04 #@! TO.C,C24*
X156014285Y-107514285D02*
X155985714Y-107542857D01*
X155900000Y-107571428D01*
X155842857Y-107571428D01*
X155757142Y-107542857D01*
X155700000Y-107485714D01*
X155671428Y-107428571D01*
X155642857Y-107314285D01*
X155642857Y-107228571D01*
X155671428Y-107114285D01*
X155700000Y-107057142D01*
X155757142Y-107000000D01*
X155842857Y-106971428D01*
X155900000Y-106971428D01*
X155985714Y-107000000D01*
X156014285Y-107028571D01*
X156242857Y-107028571D02*
X156271428Y-107000000D01*
X156328571Y-106971428D01*
X156471428Y-106971428D01*
X156528571Y-107000000D01*
X156557142Y-107028571D01*
X156585714Y-107085714D01*
X156585714Y-107142857D01*
X156557142Y-107228571D01*
X156214285Y-107571428D01*
X156585714Y-107571428D01*
X157100000Y-107171428D02*
X157100000Y-107571428D01*
X156957142Y-106942857D02*
X156814285Y-107371428D01*
X157185714Y-107371428D01*
G04 #@! TO.C,D2*
X140061904Y-92300976D02*
X139261904Y-92300976D01*
X139261904Y-92110500D01*
X139300000Y-91996214D01*
X139376190Y-91920023D01*
X139452380Y-91881928D01*
X139604761Y-91843833D01*
X139719047Y-91843833D01*
X139871428Y-91881928D01*
X139947619Y-91920023D01*
X140023809Y-91996214D01*
X140061904Y-92110500D01*
X140061904Y-92300976D01*
X139338095Y-91539071D02*
X139300000Y-91500976D01*
X139261904Y-91424785D01*
X139261904Y-91234309D01*
X139300000Y-91158119D01*
X139338095Y-91120023D01*
X139414285Y-91081928D01*
X139490476Y-91081928D01*
X139604761Y-91120023D01*
X140061904Y-91577166D01*
X140061904Y-91081928D01*
G04 #@! TO.C,D3*
X139111904Y-96540476D02*
X138311904Y-96540476D01*
X138311904Y-96350000D01*
X138350000Y-96235714D01*
X138426190Y-96159523D01*
X138502380Y-96121428D01*
X138654761Y-96083333D01*
X138769047Y-96083333D01*
X138921428Y-96121428D01*
X138997619Y-96159523D01*
X139073809Y-96235714D01*
X139111904Y-96350000D01*
X139111904Y-96540476D01*
X138311904Y-95816666D02*
X138311904Y-95321428D01*
X138616666Y-95588095D01*
X138616666Y-95473809D01*
X138654761Y-95397619D01*
X138692857Y-95359523D01*
X138769047Y-95321428D01*
X138959523Y-95321428D01*
X139035714Y-95359523D01*
X139073809Y-95397619D01*
X139111904Y-95473809D01*
X139111904Y-95702380D01*
X139073809Y-95778571D01*
X139035714Y-95816666D01*
G04 #@! TO.C,D4*
X161511904Y-127990476D02*
X160711904Y-127990476D01*
X160711904Y-127800000D01*
X160750000Y-127685714D01*
X160826190Y-127609523D01*
X160902380Y-127571428D01*
X161054761Y-127533333D01*
X161169047Y-127533333D01*
X161321428Y-127571428D01*
X161397619Y-127609523D01*
X161473809Y-127685714D01*
X161511904Y-127800000D01*
X161511904Y-127990476D01*
X160978571Y-126847619D02*
X161511904Y-126847619D01*
X160673809Y-127038095D02*
X161245238Y-127228571D01*
X161245238Y-126733333D01*
G04 #@! TO.C,J1*
X145138095Y-114033333D02*
X144566666Y-114033333D01*
X144452380Y-113995238D01*
X144376190Y-113919047D01*
X144338095Y-113804761D01*
X144338095Y-113728571D01*
X144338095Y-114833333D02*
X144338095Y-114376190D01*
X144338095Y-114604761D02*
X145138095Y-114604761D01*
X145023809Y-114528571D01*
X144947619Y-114452380D01*
X144909523Y-114376190D01*
G04 #@! TO.C,L1*
X148361904Y-99483333D02*
X148361904Y-99864285D01*
X147561904Y-99864285D01*
X148361904Y-98797619D02*
X148361904Y-99254761D01*
X148361904Y-99026190D02*
X147561904Y-99026190D01*
X147676190Y-99102380D01*
X147752380Y-99178571D01*
X147790476Y-99254761D01*
G04 #@! TO.C,C5*
X150285714Y-111133333D02*
X150323809Y-111171428D01*
X150361904Y-111285714D01*
X150361904Y-111361904D01*
X150323809Y-111476190D01*
X150247619Y-111552380D01*
X150171428Y-111590476D01*
X150019047Y-111628571D01*
X149904761Y-111628571D01*
X149752380Y-111590476D01*
X149676190Y-111552380D01*
X149600000Y-111476190D01*
X149561904Y-111361904D01*
X149561904Y-111285714D01*
X149600000Y-111171428D01*
X149638095Y-111133333D01*
X149561904Y-110409523D02*
X149561904Y-110790476D01*
X149942857Y-110828571D01*
X149904761Y-110790476D01*
X149866666Y-110714285D01*
X149866666Y-110523809D01*
X149904761Y-110447619D01*
X149942857Y-110409523D01*
X150019047Y-110371428D01*
X150209523Y-110371428D01*
X150285714Y-110409523D01*
X150323809Y-110447619D01*
X150361904Y-110523809D01*
X150361904Y-110714285D01*
X150323809Y-110790476D01*
X150285714Y-110828571D01*
G04 #@! TO.C,C3*
X152035714Y-107258333D02*
X152073809Y-107296428D01*
X152111904Y-107410714D01*
X152111904Y-107486904D01*
X152073809Y-107601190D01*
X151997619Y-107677380D01*
X151921428Y-107715476D01*
X151769047Y-107753571D01*
X151654761Y-107753571D01*
X151502380Y-107715476D01*
X151426190Y-107677380D01*
X151350000Y-107601190D01*
X151311904Y-107486904D01*
X151311904Y-107410714D01*
X151350000Y-107296428D01*
X151388095Y-107258333D01*
X151311904Y-106991666D02*
X151311904Y-106496428D01*
X151616666Y-106763095D01*
X151616666Y-106648809D01*
X151654761Y-106572619D01*
X151692857Y-106534523D01*
X151769047Y-106496428D01*
X151959523Y-106496428D01*
X152035714Y-106534523D01*
X152073809Y-106572619D01*
X152111904Y-106648809D01*
X152111904Y-106877380D01*
X152073809Y-106953571D01*
X152035714Y-106991666D01*
G04 #@! TO.C,U5*
X157011904Y-127659523D02*
X157659523Y-127659523D01*
X157735714Y-127621428D01*
X157773809Y-127583333D01*
X157811904Y-127507142D01*
X157811904Y-127354761D01*
X157773809Y-127278571D01*
X157735714Y-127240476D01*
X157659523Y-127202380D01*
X157011904Y-127202380D01*
X157011904Y-126440476D02*
X157011904Y-126821428D01*
X157392857Y-126859523D01*
X157354761Y-126821428D01*
X157316666Y-126745238D01*
X157316666Y-126554761D01*
X157354761Y-126478571D01*
X157392857Y-126440476D01*
X157469047Y-126402380D01*
X157659523Y-126402380D01*
X157735714Y-126440476D01*
X157773809Y-126478571D01*
X157811904Y-126554761D01*
X157811904Y-126745238D01*
X157773809Y-126821428D01*
X157735714Y-126859523D01*
G04 #@! TO.C,C2*
X147766666Y-114035714D02*
X147728571Y-114073809D01*
X147614285Y-114111904D01*
X147538095Y-114111904D01*
X147423809Y-114073809D01*
X147347619Y-113997619D01*
X147309523Y-113921428D01*
X147271428Y-113769047D01*
X147271428Y-113654761D01*
X147309523Y-113502380D01*
X147347619Y-113426190D01*
X147423809Y-113350000D01*
X147538095Y-113311904D01*
X147614285Y-113311904D01*
X147728571Y-113350000D01*
X147766666Y-113388095D01*
X148071428Y-113388095D02*
X148109523Y-113350000D01*
X148185714Y-113311904D01*
X148376190Y-113311904D01*
X148452380Y-113350000D01*
X148490476Y-113388095D01*
X148528571Y-113464285D01*
X148528571Y-113540476D01*
X148490476Y-113654761D01*
X148033333Y-114111904D01*
X148528571Y-114111904D01*
G04 #@! TO.C,J2*
X155438095Y-134233333D02*
X154866666Y-134233333D01*
X154752380Y-134195238D01*
X154676190Y-134119047D01*
X154638095Y-134004761D01*
X154638095Y-133928571D01*
X155361904Y-134576190D02*
X155400000Y-134614285D01*
X155438095Y-134690476D01*
X155438095Y-134880952D01*
X155400000Y-134957142D01*
X155361904Y-134995238D01*
X155285714Y-135033333D01*
X155209523Y-135033333D01*
X155095238Y-134995238D01*
X154638095Y-134538095D01*
X154638095Y-135033333D01*
G04 #@! TO.C,C9*
X160616666Y-107735714D02*
X160578571Y-107773809D01*
X160464285Y-107811904D01*
X160388095Y-107811904D01*
X160273809Y-107773809D01*
X160197619Y-107697619D01*
X160159523Y-107621428D01*
X160121428Y-107469047D01*
X160121428Y-107354761D01*
X160159523Y-107202380D01*
X160197619Y-107126190D01*
X160273809Y-107050000D01*
X160388095Y-107011904D01*
X160464285Y-107011904D01*
X160578571Y-107050000D01*
X160616666Y-107088095D01*
X160997619Y-107811904D02*
X161150000Y-107811904D01*
X161226190Y-107773809D01*
X161264285Y-107735714D01*
X161340476Y-107621428D01*
X161378571Y-107469047D01*
X161378571Y-107164285D01*
X161340476Y-107088095D01*
X161302380Y-107050000D01*
X161226190Y-107011904D01*
X161073809Y-107011904D01*
X160997619Y-107050000D01*
X160959523Y-107088095D01*
X160921428Y-107164285D01*
X160921428Y-107354761D01*
X160959523Y-107430952D01*
X160997619Y-107469047D01*
X161073809Y-107507142D01*
X161226190Y-107507142D01*
X161302380Y-107469047D01*
X161340476Y-107430952D01*
X161378571Y-107354761D01*
G04 #@! TO.C,J3*
X165761904Y-134766666D02*
X166333333Y-134766666D01*
X166447619Y-134804761D01*
X166523809Y-134880952D01*
X166561904Y-134995238D01*
X166561904Y-135071428D01*
X165761904Y-134461904D02*
X165761904Y-133966666D01*
X166066666Y-134233333D01*
X166066666Y-134119047D01*
X166104761Y-134042857D01*
X166142857Y-134004761D01*
X166219047Y-133966666D01*
X166409523Y-133966666D01*
X166485714Y-134004761D01*
X166523809Y-134042857D01*
X166561904Y-134119047D01*
X166561904Y-134347619D01*
X166523809Y-134423809D01*
X166485714Y-134461904D01*
G04 #@! TO.C,C8*
X161750000Y-101314285D02*
X161721428Y-101342857D01*
X161635714Y-101371428D01*
X161578571Y-101371428D01*
X161492857Y-101342857D01*
X161435714Y-101285714D01*
X161407142Y-101228571D01*
X161378571Y-101114285D01*
X161378571Y-101028571D01*
X161407142Y-100914285D01*
X161435714Y-100857142D01*
X161492857Y-100800000D01*
X161578571Y-100771428D01*
X161635714Y-100771428D01*
X161721428Y-100800000D01*
X161750000Y-100828571D01*
X162092857Y-101028571D02*
X162035714Y-101000000D01*
X162007142Y-100971428D01*
X161978571Y-100914285D01*
X161978571Y-100885714D01*
X162007142Y-100828571D01*
X162035714Y-100800000D01*
X162092857Y-100771428D01*
X162207142Y-100771428D01*
X162264285Y-100800000D01*
X162292857Y-100828571D01*
X162321428Y-100885714D01*
X162321428Y-100914285D01*
X162292857Y-100971428D01*
X162264285Y-101000000D01*
X162207142Y-101028571D01*
X162092857Y-101028571D01*
X162035714Y-101057142D01*
X162007142Y-101085714D01*
X161978571Y-101142857D01*
X161978571Y-101257142D01*
X162007142Y-101314285D01*
X162035714Y-101342857D01*
X162092857Y-101371428D01*
X162207142Y-101371428D01*
X162264285Y-101342857D01*
X162292857Y-101314285D01*
X162321428Y-101257142D01*
X162321428Y-101142857D01*
X162292857Y-101085714D01*
X162264285Y-101057142D01*
X162207142Y-101028571D01*
G04 #@! TO.C,C10*
X157814285Y-107514285D02*
X157785714Y-107542857D01*
X157700000Y-107571428D01*
X157642857Y-107571428D01*
X157557142Y-107542857D01*
X157500000Y-107485714D01*
X157471428Y-107428571D01*
X157442857Y-107314285D01*
X157442857Y-107228571D01*
X157471428Y-107114285D01*
X157500000Y-107057142D01*
X157557142Y-107000000D01*
X157642857Y-106971428D01*
X157700000Y-106971428D01*
X157785714Y-107000000D01*
X157814285Y-107028571D01*
X158385714Y-107571428D02*
X158042857Y-107571428D01*
X158214285Y-107571428D02*
X158214285Y-106971428D01*
X158157142Y-107057142D01*
X158100000Y-107114285D01*
X158042857Y-107142857D01*
X158757142Y-106971428D02*
X158814285Y-106971428D01*
X158871428Y-107000000D01*
X158900000Y-107028571D01*
X158928571Y-107085714D01*
X158957142Y-107200000D01*
X158957142Y-107342857D01*
X158928571Y-107457142D01*
X158900000Y-107514285D01*
X158871428Y-107542857D01*
X158814285Y-107571428D01*
X158757142Y-107571428D01*
X158700000Y-107542857D01*
X158671428Y-107514285D01*
X158642857Y-107457142D01*
X158614285Y-107342857D01*
X158614285Y-107200000D01*
X158642857Y-107085714D01*
X158671428Y-107028571D01*
X158700000Y-107000000D01*
X158757142Y-106971428D01*
G04 #@! TO.C,U1*
X160511904Y-119409523D02*
X161159523Y-119409523D01*
X161235714Y-119371428D01*
X161273809Y-119333333D01*
X161311904Y-119257142D01*
X161311904Y-119104761D01*
X161273809Y-119028571D01*
X161235714Y-118990476D01*
X161159523Y-118952380D01*
X160511904Y-118952380D01*
X161311904Y-118152380D02*
X161311904Y-118609523D01*
X161311904Y-118380952D02*
X160511904Y-118380952D01*
X160626190Y-118457142D01*
X160702380Y-118533333D01*
X160740476Y-118609523D01*
G04 #@! TO.C,SW2*
X156716666Y-125483333D02*
X156816666Y-125516666D01*
X156983333Y-125516666D01*
X157050000Y-125483333D01*
X157083333Y-125450000D01*
X157116666Y-125383333D01*
X157116666Y-125316666D01*
X157083333Y-125250000D01*
X157050000Y-125216666D01*
X156983333Y-125183333D01*
X156850000Y-125150000D01*
X156783333Y-125116666D01*
X156750000Y-125083333D01*
X156716666Y-125016666D01*
X156716666Y-124950000D01*
X156750000Y-124883333D01*
X156783333Y-124850000D01*
X156850000Y-124816666D01*
X157016666Y-124816666D01*
X157116666Y-124850000D01*
X157350000Y-124816666D02*
X157516666Y-125516666D01*
X157650000Y-125016666D01*
X157783333Y-125516666D01*
X157950000Y-124816666D01*
X158183333Y-124883333D02*
X158216666Y-124850000D01*
X158283333Y-124816666D01*
X158450000Y-124816666D01*
X158516666Y-124850000D01*
X158550000Y-124883333D01*
X158583333Y-124950000D01*
X158583333Y-125016666D01*
X158550000Y-125116666D01*
X158150000Y-125516666D01*
X158583333Y-125516666D01*
G04 #@! TO.C,C23*
X153714285Y-102585714D02*
X153676190Y-102547619D01*
X153638095Y-102433333D01*
X153638095Y-102357142D01*
X153676190Y-102242857D01*
X153752380Y-102166666D01*
X153828571Y-102128571D01*
X153980952Y-102090476D01*
X154095238Y-102090476D01*
X154247619Y-102128571D01*
X154323809Y-102166666D01*
X154400000Y-102242857D01*
X154438095Y-102357142D01*
X154438095Y-102433333D01*
X154400000Y-102547619D01*
X154361904Y-102585714D01*
X154361904Y-102890476D02*
X154400000Y-102928571D01*
X154438095Y-103004761D01*
X154438095Y-103195238D01*
X154400000Y-103271428D01*
X154361904Y-103309523D01*
X154285714Y-103347619D01*
X154209523Y-103347619D01*
X154095238Y-103309523D01*
X153638095Y-102852380D01*
X153638095Y-103347619D01*
X154438095Y-103614285D02*
X154438095Y-104109523D01*
X154133333Y-103842857D01*
X154133333Y-103957142D01*
X154095238Y-104033333D01*
X154057142Y-104071428D01*
X153980952Y-104109523D01*
X153790476Y-104109523D01*
X153714285Y-104071428D01*
X153676190Y-104033333D01*
X153638095Y-103957142D01*
X153638095Y-103728571D01*
X153676190Y-103652380D01*
X153714285Y-103614285D01*
X154039047Y-107661428D02*
X154800952Y-107661428D01*
X154420000Y-108042380D02*
X154420000Y-107280476D01*
G04 #@! TO.C,C4*
X151216666Y-109135714D02*
X151178571Y-109173809D01*
X151064285Y-109211904D01*
X150988095Y-109211904D01*
X150873809Y-109173809D01*
X150797619Y-109097619D01*
X150759523Y-109021428D01*
X150721428Y-108869047D01*
X150721428Y-108754761D01*
X150759523Y-108602380D01*
X150797619Y-108526190D01*
X150873809Y-108450000D01*
X150988095Y-108411904D01*
X151064285Y-108411904D01*
X151178571Y-108450000D01*
X151216666Y-108488095D01*
X151902380Y-108678571D02*
X151902380Y-109211904D01*
X151711904Y-108373809D02*
X151521428Y-108945238D01*
X152016666Y-108945238D01*
G04 #@! TO.C,C1*
X147766666Y-115435714D02*
X147728571Y-115473809D01*
X147614285Y-115511904D01*
X147538095Y-115511904D01*
X147423809Y-115473809D01*
X147347619Y-115397619D01*
X147309523Y-115321428D01*
X147271428Y-115169047D01*
X147271428Y-115054761D01*
X147309523Y-114902380D01*
X147347619Y-114826190D01*
X147423809Y-114750000D01*
X147538095Y-114711904D01*
X147614285Y-114711904D01*
X147728571Y-114750000D01*
X147766666Y-114788095D01*
X148528571Y-115511904D02*
X148071428Y-115511904D01*
X148300000Y-115511904D02*
X148300000Y-114711904D01*
X148223809Y-114826190D01*
X148147619Y-114902380D01*
X148071428Y-114940476D01*
G04 #@! TO.C,C45*
X156314285Y-119164285D02*
X156285714Y-119192857D01*
X156200000Y-119221428D01*
X156142857Y-119221428D01*
X156057142Y-119192857D01*
X156000000Y-119135714D01*
X155971428Y-119078571D01*
X155942857Y-118964285D01*
X155942857Y-118878571D01*
X155971428Y-118764285D01*
X156000000Y-118707142D01*
X156057142Y-118650000D01*
X156142857Y-118621428D01*
X156200000Y-118621428D01*
X156285714Y-118650000D01*
X156314285Y-118678571D01*
X156828571Y-118821428D02*
X156828571Y-119221428D01*
X156685714Y-118592857D02*
X156542857Y-119021428D01*
X156914285Y-119021428D01*
X157428571Y-118621428D02*
X157142857Y-118621428D01*
X157114285Y-118907142D01*
X157142857Y-118878571D01*
X157200000Y-118850000D01*
X157342857Y-118850000D01*
X157400000Y-118878571D01*
X157428571Y-118907142D01*
X157457142Y-118964285D01*
X157457142Y-119107142D01*
X157428571Y-119164285D01*
X157400000Y-119192857D01*
X157342857Y-119221428D01*
X157200000Y-119221428D01*
X157142857Y-119192857D01*
X157114285Y-119164285D01*
G04 #@! TO.C,R26*
X150121428Y-118435714D02*
X149835714Y-118635714D01*
X150121428Y-118778571D02*
X149521428Y-118778571D01*
X149521428Y-118550000D01*
X149550000Y-118492857D01*
X149578571Y-118464285D01*
X149635714Y-118435714D01*
X149721428Y-118435714D01*
X149778571Y-118464285D01*
X149807142Y-118492857D01*
X149835714Y-118550000D01*
X149835714Y-118778571D01*
X149578571Y-118207142D02*
X149550000Y-118178571D01*
X149521428Y-118121428D01*
X149521428Y-117978571D01*
X149550000Y-117921428D01*
X149578571Y-117892857D01*
X149635714Y-117864285D01*
X149692857Y-117864285D01*
X149778571Y-117892857D01*
X150121428Y-118235714D01*
X150121428Y-117864285D01*
X149521428Y-117350000D02*
X149521428Y-117464285D01*
X149550000Y-117521428D01*
X149578571Y-117550000D01*
X149664285Y-117607142D01*
X149778571Y-117635714D01*
X150007142Y-117635714D01*
X150064285Y-117607142D01*
X150092857Y-117578571D01*
X150121428Y-117521428D01*
X150121428Y-117407142D01*
X150092857Y-117350000D01*
X150064285Y-117321428D01*
X150007142Y-117292857D01*
X149864285Y-117292857D01*
X149807142Y-117321428D01*
X149778571Y-117350000D01*
X149750000Y-117407142D01*
X149750000Y-117521428D01*
X149778571Y-117578571D01*
X149807142Y-117607142D01*
X149864285Y-117635714D01*
G04 #@! TO.C,D5*
X149259523Y-125311904D02*
X149259523Y-124511904D01*
X149450000Y-124511904D01*
X149564285Y-124550000D01*
X149640476Y-124626190D01*
X149678571Y-124702380D01*
X149716666Y-124854761D01*
X149716666Y-124969047D01*
X149678571Y-125121428D01*
X149640476Y-125197619D01*
X149564285Y-125273809D01*
X149450000Y-125311904D01*
X149259523Y-125311904D01*
X150440476Y-124511904D02*
X150059523Y-124511904D01*
X150021428Y-124892857D01*
X150059523Y-124854761D01*
X150135714Y-124816666D01*
X150326190Y-124816666D01*
X150402380Y-124854761D01*
X150440476Y-124892857D01*
X150478571Y-124969047D01*
X150478571Y-125159523D01*
X150440476Y-125235714D01*
X150402380Y-125273809D01*
X150326190Y-125311904D01*
X150135714Y-125311904D01*
X150059523Y-125273809D01*
X150021428Y-125235714D01*
G04 #@! TO.C,C33*
X138585714Y-106185714D02*
X138547619Y-106223809D01*
X138433333Y-106261904D01*
X138357142Y-106261904D01*
X138242857Y-106223809D01*
X138166666Y-106147619D01*
X138128571Y-106071428D01*
X138090476Y-105919047D01*
X138090476Y-105804761D01*
X138128571Y-105652380D01*
X138166666Y-105576190D01*
X138242857Y-105500000D01*
X138357142Y-105461904D01*
X138433333Y-105461904D01*
X138547619Y-105500000D01*
X138585714Y-105538095D01*
X138852380Y-105461904D02*
X139347619Y-105461904D01*
X139080952Y-105766666D01*
X139195238Y-105766666D01*
X139271428Y-105804761D01*
X139309523Y-105842857D01*
X139347619Y-105919047D01*
X139347619Y-106109523D01*
X139309523Y-106185714D01*
X139271428Y-106223809D01*
X139195238Y-106261904D01*
X138966666Y-106261904D01*
X138890476Y-106223809D01*
X138852380Y-106185714D01*
X139614285Y-105461904D02*
X140109523Y-105461904D01*
X139842857Y-105766666D01*
X139957142Y-105766666D01*
X140033333Y-105804761D01*
X140071428Y-105842857D01*
X140109523Y-105919047D01*
X140109523Y-106109523D01*
X140071428Y-106185714D01*
X140033333Y-106223809D01*
X139957142Y-106261904D01*
X139728571Y-106261904D01*
X139652380Y-106223809D01*
X139614285Y-106185714D01*
X133911428Y-97825952D02*
X133911428Y-97064047D01*
X134292380Y-97445000D02*
X133530476Y-97445000D01*
G04 #@! TO.C,D1*
X152121428Y-93042857D02*
X151521428Y-93042857D01*
X151521428Y-92900000D01*
X151550000Y-92814285D01*
X151607142Y-92757142D01*
X151664285Y-92728571D01*
X151778571Y-92700000D01*
X151864285Y-92700000D01*
X151978571Y-92728571D01*
X152035714Y-92757142D01*
X152092857Y-92814285D01*
X152121428Y-92900000D01*
X152121428Y-93042857D01*
X152121428Y-92128571D02*
X152121428Y-92471428D01*
X152121428Y-92300000D02*
X151521428Y-92300000D01*
X151607142Y-92357142D01*
X151664285Y-92414285D01*
X151692857Y-92471428D01*
G04 #@! TO.C,J10*
X153302380Y-99861904D02*
X153302380Y-100433333D01*
X153264285Y-100547619D01*
X153188095Y-100623809D01*
X153073809Y-100661904D01*
X152997619Y-100661904D01*
X154102380Y-100661904D02*
X153645238Y-100661904D01*
X153873809Y-100661904D02*
X153873809Y-99861904D01*
X153797619Y-99976190D01*
X153721428Y-100052380D01*
X153645238Y-100090476D01*
X154597619Y-99861904D02*
X154673809Y-99861904D01*
X154750000Y-99900000D01*
X154788095Y-99938095D01*
X154826190Y-100014285D01*
X154864285Y-100166666D01*
X154864285Y-100357142D01*
X154826190Y-100509523D01*
X154788095Y-100585714D01*
X154750000Y-100623809D01*
X154673809Y-100661904D01*
X154597619Y-100661904D01*
X154521428Y-100623809D01*
X154483333Y-100585714D01*
X154445238Y-100509523D01*
X154407142Y-100357142D01*
X154407142Y-100166666D01*
X154445238Y-100014285D01*
X154483333Y-99938095D01*
X154521428Y-99900000D01*
X154597619Y-99861904D01*
G04 #@! TO.C,C20*
X149863785Y-96096214D02*
X149892357Y-96124785D01*
X149920928Y-96210500D01*
X149920928Y-96267642D01*
X149892357Y-96353357D01*
X149835214Y-96410500D01*
X149778071Y-96439071D01*
X149663785Y-96467642D01*
X149578071Y-96467642D01*
X149463785Y-96439071D01*
X149406642Y-96410500D01*
X149349500Y-96353357D01*
X149320928Y-96267642D01*
X149320928Y-96210500D01*
X149349500Y-96124785D01*
X149378071Y-96096214D01*
X149378071Y-95867642D02*
X149349500Y-95839071D01*
X149320928Y-95781928D01*
X149320928Y-95639071D01*
X149349500Y-95581928D01*
X149378071Y-95553357D01*
X149435214Y-95524785D01*
X149492357Y-95524785D01*
X149578071Y-95553357D01*
X149920928Y-95896214D01*
X149920928Y-95524785D01*
X149320928Y-95153357D02*
X149320928Y-95096214D01*
X149349500Y-95039071D01*
X149378071Y-95010500D01*
X149435214Y-94981928D01*
X149549500Y-94953357D01*
X149692357Y-94953357D01*
X149806642Y-94981928D01*
X149863785Y-95010500D01*
X149892357Y-95039071D01*
X149920928Y-95096214D01*
X149920928Y-95153357D01*
X149892357Y-95210500D01*
X149863785Y-95239071D01*
X149806642Y-95267642D01*
X149692357Y-95296214D01*
X149549500Y-95296214D01*
X149435214Y-95267642D01*
X149378071Y-95239071D01*
X149349500Y-95210500D01*
X149320928Y-95153357D01*
G04 #@! TO.C,SW1*
X151450000Y-119992857D02*
X151535714Y-120021428D01*
X151678571Y-120021428D01*
X151735714Y-119992857D01*
X151764285Y-119964285D01*
X151792857Y-119907142D01*
X151792857Y-119850000D01*
X151764285Y-119792857D01*
X151735714Y-119764285D01*
X151678571Y-119735714D01*
X151564285Y-119707142D01*
X151507142Y-119678571D01*
X151478571Y-119650000D01*
X151450000Y-119592857D01*
X151450000Y-119535714D01*
X151478571Y-119478571D01*
X151507142Y-119450000D01*
X151564285Y-119421428D01*
X151707142Y-119421428D01*
X151792857Y-119450000D01*
X151992857Y-119421428D02*
X152135714Y-120021428D01*
X152250000Y-119592857D01*
X152364285Y-120021428D01*
X152507142Y-119421428D01*
X153050000Y-120021428D02*
X152707142Y-120021428D01*
X152878571Y-120021428D02*
X152878571Y-119421428D01*
X152821428Y-119507142D01*
X152764285Y-119564285D01*
X152707142Y-119592857D01*
G04 #@! TO.C,F1*
X148158571Y-92733333D02*
X148158571Y-93066666D01*
X148682380Y-93066666D02*
X147682380Y-93066666D01*
X147682380Y-92590476D01*
X148682380Y-91685714D02*
X148682380Y-92257142D01*
X148682380Y-91971428D02*
X147682380Y-91971428D01*
X147825238Y-92066666D01*
X147920476Y-92161904D01*
X147968095Y-92257142D01*
G04 #@! TO.C,C34*
X151635714Y-127564285D02*
X151673809Y-127602380D01*
X151711904Y-127716666D01*
X151711904Y-127792857D01*
X151673809Y-127907142D01*
X151597619Y-127983333D01*
X151521428Y-128021428D01*
X151369047Y-128059523D01*
X151254761Y-128059523D01*
X151102380Y-128021428D01*
X151026190Y-127983333D01*
X150950000Y-127907142D01*
X150911904Y-127792857D01*
X150911904Y-127716666D01*
X150950000Y-127602380D01*
X150988095Y-127564285D01*
X150911904Y-127297619D02*
X150911904Y-126802380D01*
X151216666Y-127069047D01*
X151216666Y-126954761D01*
X151254761Y-126878571D01*
X151292857Y-126840476D01*
X151369047Y-126802380D01*
X151559523Y-126802380D01*
X151635714Y-126840476D01*
X151673809Y-126878571D01*
X151711904Y-126954761D01*
X151711904Y-127183333D01*
X151673809Y-127259523D01*
X151635714Y-127297619D01*
X151178571Y-126116666D02*
X151711904Y-126116666D01*
X150873809Y-126307142D02*
X151445238Y-126497619D01*
X151445238Y-126002380D01*
G04 #@! TO.C,J6*
X166938095Y-104033333D02*
X166366666Y-104033333D01*
X166252380Y-103995238D01*
X166176190Y-103919047D01*
X166138095Y-103804761D01*
X166138095Y-103728571D01*
X166938095Y-104757142D02*
X166938095Y-104604761D01*
X166900000Y-104528571D01*
X166861904Y-104490476D01*
X166747619Y-104414285D01*
X166595238Y-104376190D01*
X166290476Y-104376190D01*
X166214285Y-104414285D01*
X166176190Y-104452380D01*
X166138095Y-104528571D01*
X166138095Y-104680952D01*
X166176190Y-104757142D01*
X166214285Y-104795238D01*
X166290476Y-104833333D01*
X166480952Y-104833333D01*
X166557142Y-104795238D01*
X166595238Y-104757142D01*
X166633333Y-104680952D01*
X166633333Y-104528571D01*
X166595238Y-104452380D01*
X166557142Y-104414285D01*
X166480952Y-104376190D01*
G04 #@! TO.C,R1*
X154150000Y-120221428D02*
X153950000Y-119935714D01*
X153807142Y-120221428D02*
X153807142Y-119621428D01*
X154035714Y-119621428D01*
X154092857Y-119650000D01*
X154121428Y-119678571D01*
X154150000Y-119735714D01*
X154150000Y-119821428D01*
X154121428Y-119878571D01*
X154092857Y-119907142D01*
X154035714Y-119935714D01*
X153807142Y-119935714D01*
X154721428Y-120221428D02*
X154378571Y-120221428D01*
X154550000Y-120221428D02*
X154550000Y-119621428D01*
X154492857Y-119707142D01*
X154435714Y-119764285D01*
X154378571Y-119792857D01*
G04 #@! TO.C,J7*
X166938095Y-115233333D02*
X166366666Y-115233333D01*
X166252380Y-115195238D01*
X166176190Y-115119047D01*
X166138095Y-115004761D01*
X166138095Y-114928571D01*
X166938095Y-115538095D02*
X166938095Y-116071428D01*
X166138095Y-115728571D01*
G04 #@! TO.C,D6*
X96109523Y-81361904D02*
X96109523Y-80561904D01*
X96300000Y-80561904D01*
X96414285Y-80600000D01*
X96490476Y-80676190D01*
X96528571Y-80752380D01*
X96566666Y-80904761D01*
X96566666Y-81019047D01*
X96528571Y-81171428D01*
X96490476Y-81247619D01*
X96414285Y-81323809D01*
X96300000Y-81361904D01*
X96109523Y-81361904D01*
X97252380Y-80561904D02*
X97100000Y-80561904D01*
X97023809Y-80600000D01*
X96985714Y-80638095D01*
X96909523Y-80752380D01*
X96871428Y-80904761D01*
X96871428Y-81209523D01*
X96909523Y-81285714D01*
X96947619Y-81323809D01*
X97023809Y-81361904D01*
X97176190Y-81361904D01*
X97252380Y-81323809D01*
X97290476Y-81285714D01*
X97328571Y-81209523D01*
X97328571Y-81019047D01*
X97290476Y-80942857D01*
X97252380Y-80904761D01*
X97176190Y-80866666D01*
X97023809Y-80866666D01*
X96947619Y-80904761D01*
X96909523Y-80942857D01*
X96871428Y-81019047D01*
G04 #@! TO.C,D1*
X87157142Y-94221428D02*
X87157142Y-93621428D01*
X87300000Y-93621428D01*
X87385714Y-93650000D01*
X87442857Y-93707142D01*
X87471428Y-93764285D01*
X87500000Y-93878571D01*
X87500000Y-93964285D01*
X87471428Y-94078571D01*
X87442857Y-94135714D01*
X87385714Y-94192857D01*
X87300000Y-94221428D01*
X87157142Y-94221428D01*
X88071428Y-94221428D02*
X87728571Y-94221428D01*
X87900000Y-94221428D02*
X87900000Y-93621428D01*
X87842857Y-93707142D01*
X87785714Y-93764285D01*
X87728571Y-93792857D01*
G04 #@! TO.C,L1*
X94216666Y-98161904D02*
X93835714Y-98161904D01*
X93835714Y-97361904D01*
X94902380Y-98161904D02*
X94445238Y-98161904D01*
X94673809Y-98161904D02*
X94673809Y-97361904D01*
X94597619Y-97476190D01*
X94521428Y-97552380D01*
X94445238Y-97590476D01*
G04 #@! TO.C,SW1*
X114992857Y-94350000D02*
X115021428Y-94264285D01*
X115021428Y-94121428D01*
X114992857Y-94064285D01*
X114964285Y-94035714D01*
X114907142Y-94007142D01*
X114850000Y-94007142D01*
X114792857Y-94035714D01*
X114764285Y-94064285D01*
X114735714Y-94121428D01*
X114707142Y-94235714D01*
X114678571Y-94292857D01*
X114650000Y-94321428D01*
X114592857Y-94350000D01*
X114535714Y-94350000D01*
X114478571Y-94321428D01*
X114450000Y-94292857D01*
X114421428Y-94235714D01*
X114421428Y-94092857D01*
X114450000Y-94007142D01*
X114421428Y-93807142D02*
X115021428Y-93664285D01*
X114592857Y-93550000D01*
X115021428Y-93435714D01*
X114421428Y-93292857D01*
X115021428Y-92750000D02*
X115021428Y-93092857D01*
X115021428Y-92921428D02*
X114421428Y-92921428D01*
X114507142Y-92978571D01*
X114564285Y-93035714D01*
X114592857Y-93092857D01*
G04 #@! TO.C,U1*
X113190476Y-84411904D02*
X113190476Y-85059523D01*
X113228571Y-85135714D01*
X113266666Y-85173809D01*
X113342857Y-85211904D01*
X113495238Y-85211904D01*
X113571428Y-85173809D01*
X113609523Y-85135714D01*
X113647619Y-85059523D01*
X113647619Y-84411904D01*
X114447619Y-85211904D02*
X113990476Y-85211904D01*
X114219047Y-85211904D02*
X114219047Y-84411904D01*
X114142857Y-84526190D01*
X114066666Y-84602380D01*
X113990476Y-84640476D01*
G04 #@! TO.C,C21*
X94514214Y-95514285D02*
X94552309Y-95552380D01*
X94590404Y-95666666D01*
X94590404Y-95742857D01*
X94552309Y-95857142D01*
X94476119Y-95933333D01*
X94399928Y-95971428D01*
X94247547Y-96009523D01*
X94133261Y-96009523D01*
X93980880Y-95971428D01*
X93904690Y-95933333D01*
X93828500Y-95857142D01*
X93790404Y-95742857D01*
X93790404Y-95666666D01*
X93828500Y-95552380D01*
X93866595Y-95514285D01*
X93866595Y-95209523D02*
X93828500Y-95171428D01*
X93790404Y-95095238D01*
X93790404Y-94904761D01*
X93828500Y-94828571D01*
X93866595Y-94790476D01*
X93942785Y-94752380D01*
X94018976Y-94752380D01*
X94133261Y-94790476D01*
X94590404Y-95247619D01*
X94590404Y-94752380D01*
X94590404Y-93990476D02*
X94590404Y-94447619D01*
X94590404Y-94219047D02*
X93790404Y-94219047D01*
X93904690Y-94295238D01*
X93980880Y-94371428D01*
X94018976Y-94447619D01*
G04 #@! TO.C,SW2*
X120483333Y-89083333D02*
X120516666Y-88983333D01*
X120516666Y-88816666D01*
X120483333Y-88750000D01*
X120450000Y-88716666D01*
X120383333Y-88683333D01*
X120316666Y-88683333D01*
X120250000Y-88716666D01*
X120216666Y-88750000D01*
X120183333Y-88816666D01*
X120150000Y-88950000D01*
X120116666Y-89016666D01*
X120083333Y-89050000D01*
X120016666Y-89083333D01*
X119950000Y-89083333D01*
X119883333Y-89050000D01*
X119850000Y-89016666D01*
X119816666Y-88950000D01*
X119816666Y-88783333D01*
X119850000Y-88683333D01*
X119816666Y-88450000D02*
X120516666Y-88283333D01*
X120016666Y-88150000D01*
X120516666Y-88016666D01*
X119816666Y-87850000D01*
X119883333Y-87616666D02*
X119850000Y-87583333D01*
X119816666Y-87516666D01*
X119816666Y-87350000D01*
X119850000Y-87283333D01*
X119883333Y-87250000D01*
X119950000Y-87216666D01*
X120016666Y-87216666D01*
X120116666Y-87250000D01*
X120516666Y-87650000D01*
X120516666Y-87216666D01*
G04 #@! TO.C,C33*
X101185714Y-107214285D02*
X101223809Y-107252380D01*
X101261904Y-107366666D01*
X101261904Y-107442857D01*
X101223809Y-107557142D01*
X101147619Y-107633333D01*
X101071428Y-107671428D01*
X100919047Y-107709523D01*
X100804761Y-107709523D01*
X100652380Y-107671428D01*
X100576190Y-107633333D01*
X100500000Y-107557142D01*
X100461904Y-107442857D01*
X100461904Y-107366666D01*
X100500000Y-107252380D01*
X100538095Y-107214285D01*
X100461904Y-106947619D02*
X100461904Y-106452380D01*
X100766666Y-106719047D01*
X100766666Y-106604761D01*
X100804761Y-106528571D01*
X100842857Y-106490476D01*
X100919047Y-106452380D01*
X101109523Y-106452380D01*
X101185714Y-106490476D01*
X101223809Y-106528571D01*
X101261904Y-106604761D01*
X101261904Y-106833333D01*
X101223809Y-106909523D01*
X101185714Y-106947619D01*
X100461904Y-106185714D02*
X100461904Y-105690476D01*
X100766666Y-105957142D01*
X100766666Y-105842857D01*
X100804761Y-105766666D01*
X100842857Y-105728571D01*
X100919047Y-105690476D01*
X101109523Y-105690476D01*
X101185714Y-105728571D01*
X101223809Y-105766666D01*
X101261904Y-105842857D01*
X101261904Y-106071428D01*
X101223809Y-106147619D01*
X101185714Y-106185714D01*
X92064047Y-112031428D02*
X92825952Y-112031428D01*
X92445000Y-112412380D02*
X92445000Y-111650476D01*
G04 #@! TO.C,C23*
X97585714Y-92085714D02*
X97547619Y-92123809D01*
X97433333Y-92161904D01*
X97357142Y-92161904D01*
X97242857Y-92123809D01*
X97166666Y-92047619D01*
X97128571Y-91971428D01*
X97090476Y-91819047D01*
X97090476Y-91704761D01*
X97128571Y-91552380D01*
X97166666Y-91476190D01*
X97242857Y-91400000D01*
X97357142Y-91361904D01*
X97433333Y-91361904D01*
X97547619Y-91400000D01*
X97585714Y-91438095D01*
X97890476Y-91438095D02*
X97928571Y-91400000D01*
X98004761Y-91361904D01*
X98195238Y-91361904D01*
X98271428Y-91400000D01*
X98309523Y-91438095D01*
X98347619Y-91514285D01*
X98347619Y-91590476D01*
X98309523Y-91704761D01*
X97852380Y-92161904D01*
X98347619Y-92161904D01*
X98614285Y-91361904D02*
X99109523Y-91361904D01*
X98842857Y-91666666D01*
X98957142Y-91666666D01*
X99033333Y-91704761D01*
X99071428Y-91742857D01*
X99109523Y-91819047D01*
X99109523Y-92009523D01*
X99071428Y-92085714D01*
X99033333Y-92123809D01*
X98957142Y-92161904D01*
X98728571Y-92161904D01*
X98652380Y-92123809D01*
X98614285Y-92085714D01*
X102661428Y-91760952D02*
X102661428Y-90999047D01*
X103042380Y-91380000D02*
X102280476Y-91380000D01*
G04 #@! TO.C,U5*
X121440476Y-87911904D02*
X121440476Y-88559523D01*
X121478571Y-88635714D01*
X121516666Y-88673809D01*
X121592857Y-88711904D01*
X121745238Y-88711904D01*
X121821428Y-88673809D01*
X121859523Y-88635714D01*
X121897619Y-88559523D01*
X121897619Y-87911904D01*
X122659523Y-87911904D02*
X122278571Y-87911904D01*
X122240476Y-88292857D01*
X122278571Y-88254761D01*
X122354761Y-88216666D01*
X122545238Y-88216666D01*
X122621428Y-88254761D01*
X122659523Y-88292857D01*
X122697619Y-88369047D01*
X122697619Y-88559523D01*
X122659523Y-88635714D01*
X122621428Y-88673809D01*
X122545238Y-88711904D01*
X122354761Y-88711904D01*
X122278571Y-88673809D01*
X122240476Y-88635714D01*
G04 #@! TO.C,D5*
X120311904Y-96540476D02*
X119511904Y-96540476D01*
X119511904Y-96350000D01*
X119550000Y-96235714D01*
X119626190Y-96159523D01*
X119702380Y-96121428D01*
X119854761Y-96083333D01*
X119969047Y-96083333D01*
X120121428Y-96121428D01*
X120197619Y-96159523D01*
X120273809Y-96235714D01*
X120311904Y-96350000D01*
X120311904Y-96540476D01*
X119511904Y-95359523D02*
X119511904Y-95740476D01*
X119892857Y-95778571D01*
X119854761Y-95740476D01*
X119816666Y-95664285D01*
X119816666Y-95473809D01*
X119854761Y-95397619D01*
X119892857Y-95359523D01*
X119969047Y-95321428D01*
X120159523Y-95321428D01*
X120235714Y-95359523D01*
X120273809Y-95397619D01*
X120311904Y-95473809D01*
X120311904Y-95664285D01*
X120273809Y-95740476D01*
X120235714Y-95778571D01*
G04 #@! TO.C,C1*
X110435714Y-98033333D02*
X110473809Y-98071428D01*
X110511904Y-98185714D01*
X110511904Y-98261904D01*
X110473809Y-98376190D01*
X110397619Y-98452380D01*
X110321428Y-98490476D01*
X110169047Y-98528571D01*
X110054761Y-98528571D01*
X109902380Y-98490476D01*
X109826190Y-98452380D01*
X109750000Y-98376190D01*
X109711904Y-98261904D01*
X109711904Y-98185714D01*
X109750000Y-98071428D01*
X109788095Y-98033333D01*
X110511904Y-97271428D02*
X110511904Y-97728571D01*
X110511904Y-97500000D02*
X109711904Y-97500000D01*
X109826190Y-97576190D01*
X109902380Y-97652380D01*
X109940476Y-97728571D01*
G04 #@! TO.C,C2*
X109035714Y-98033333D02*
X109073809Y-98071428D01*
X109111904Y-98185714D01*
X109111904Y-98261904D01*
X109073809Y-98376190D01*
X108997619Y-98452380D01*
X108921428Y-98490476D01*
X108769047Y-98528571D01*
X108654761Y-98528571D01*
X108502380Y-98490476D01*
X108426190Y-98452380D01*
X108350000Y-98376190D01*
X108311904Y-98261904D01*
X108311904Y-98185714D01*
X108350000Y-98071428D01*
X108388095Y-98033333D01*
X108388095Y-97728571D02*
X108350000Y-97690476D01*
X108311904Y-97614285D01*
X108311904Y-97423809D01*
X108350000Y-97347619D01*
X108388095Y-97309523D01*
X108464285Y-97271428D01*
X108540476Y-97271428D01*
X108654761Y-97309523D01*
X109111904Y-97766666D01*
X109111904Y-97271428D01*
G04 #@! TO.C,C3*
X101991666Y-94335714D02*
X101953571Y-94373809D01*
X101839285Y-94411904D01*
X101763095Y-94411904D01*
X101648809Y-94373809D01*
X101572619Y-94297619D01*
X101534523Y-94221428D01*
X101496428Y-94069047D01*
X101496428Y-93954761D01*
X101534523Y-93802380D01*
X101572619Y-93726190D01*
X101648809Y-93650000D01*
X101763095Y-93611904D01*
X101839285Y-93611904D01*
X101953571Y-93650000D01*
X101991666Y-93688095D01*
X102258333Y-93611904D02*
X102753571Y-93611904D01*
X102486904Y-93916666D01*
X102601190Y-93916666D01*
X102677380Y-93954761D01*
X102715476Y-93992857D01*
X102753571Y-94069047D01*
X102753571Y-94259523D01*
X102715476Y-94335714D01*
X102677380Y-94373809D01*
X102601190Y-94411904D01*
X102372619Y-94411904D01*
X102296428Y-94373809D01*
X102258333Y-94335714D01*
G04 #@! TO.C,C4*
X104135714Y-94583333D02*
X104173809Y-94621428D01*
X104211904Y-94735714D01*
X104211904Y-94811904D01*
X104173809Y-94926190D01*
X104097619Y-95002380D01*
X104021428Y-95040476D01*
X103869047Y-95078571D01*
X103754761Y-95078571D01*
X103602380Y-95040476D01*
X103526190Y-95002380D01*
X103450000Y-94926190D01*
X103411904Y-94811904D01*
X103411904Y-94735714D01*
X103450000Y-94621428D01*
X103488095Y-94583333D01*
X103678571Y-93897619D02*
X104211904Y-93897619D01*
X103373809Y-94088095D02*
X103945238Y-94278571D01*
X103945238Y-93783333D01*
G04 #@! TO.C,C5*
X105866666Y-96085714D02*
X105828571Y-96123809D01*
X105714285Y-96161904D01*
X105638095Y-96161904D01*
X105523809Y-96123809D01*
X105447619Y-96047619D01*
X105409523Y-95971428D01*
X105371428Y-95819047D01*
X105371428Y-95704761D01*
X105409523Y-95552380D01*
X105447619Y-95476190D01*
X105523809Y-95400000D01*
X105638095Y-95361904D01*
X105714285Y-95361904D01*
X105828571Y-95400000D01*
X105866666Y-95438095D01*
X106590476Y-95361904D02*
X106209523Y-95361904D01*
X106171428Y-95742857D01*
X106209523Y-95704761D01*
X106285714Y-95666666D01*
X106476190Y-95666666D01*
X106552380Y-95704761D01*
X106590476Y-95742857D01*
X106628571Y-95819047D01*
X106628571Y-96009523D01*
X106590476Y-96085714D01*
X106552380Y-96123809D01*
X106476190Y-96161904D01*
X106285714Y-96161904D01*
X106209523Y-96123809D01*
X106171428Y-96085714D01*
G04 #@! TO.C,C8*
X96314285Y-84050000D02*
X96342857Y-84078571D01*
X96371428Y-84164285D01*
X96371428Y-84221428D01*
X96342857Y-84307142D01*
X96285714Y-84364285D01*
X96228571Y-84392857D01*
X96114285Y-84421428D01*
X96028571Y-84421428D01*
X95914285Y-84392857D01*
X95857142Y-84364285D01*
X95800000Y-84307142D01*
X95771428Y-84221428D01*
X95771428Y-84164285D01*
X95800000Y-84078571D01*
X95828571Y-84050000D01*
X96028571Y-83707142D02*
X96000000Y-83764285D01*
X95971428Y-83792857D01*
X95914285Y-83821428D01*
X95885714Y-83821428D01*
X95828571Y-83792857D01*
X95800000Y-83764285D01*
X95771428Y-83707142D01*
X95771428Y-83592857D01*
X95800000Y-83535714D01*
X95828571Y-83507142D01*
X95885714Y-83478571D01*
X95914285Y-83478571D01*
X95971428Y-83507142D01*
X96000000Y-83535714D01*
X96028571Y-83592857D01*
X96028571Y-83707142D01*
X96057142Y-83764285D01*
X96085714Y-83792857D01*
X96142857Y-83821428D01*
X96257142Y-83821428D01*
X96314285Y-83792857D01*
X96342857Y-83764285D01*
X96371428Y-83707142D01*
X96371428Y-83592857D01*
X96342857Y-83535714D01*
X96314285Y-83507142D01*
X96257142Y-83478571D01*
X96142857Y-83478571D01*
X96085714Y-83507142D01*
X96057142Y-83535714D01*
X96028571Y-83592857D01*
G04 #@! TO.C,C9*
X102735714Y-85183333D02*
X102773809Y-85221428D01*
X102811904Y-85335714D01*
X102811904Y-85411904D01*
X102773809Y-85526190D01*
X102697619Y-85602380D01*
X102621428Y-85640476D01*
X102469047Y-85678571D01*
X102354761Y-85678571D01*
X102202380Y-85640476D01*
X102126190Y-85602380D01*
X102050000Y-85526190D01*
X102011904Y-85411904D01*
X102011904Y-85335714D01*
X102050000Y-85221428D01*
X102088095Y-85183333D01*
X102811904Y-84802380D02*
X102811904Y-84650000D01*
X102773809Y-84573809D01*
X102735714Y-84535714D01*
X102621428Y-84459523D01*
X102469047Y-84421428D01*
X102164285Y-84421428D01*
X102088095Y-84459523D01*
X102050000Y-84497619D01*
X102011904Y-84573809D01*
X102011904Y-84726190D01*
X102050000Y-84802380D01*
X102088095Y-84840476D01*
X102164285Y-84878571D01*
X102354761Y-84878571D01*
X102430952Y-84840476D01*
X102469047Y-84802380D01*
X102507142Y-84726190D01*
X102507142Y-84573809D01*
X102469047Y-84497619D01*
X102430952Y-84459523D01*
X102354761Y-84421428D01*
G04 #@! TO.C,C10*
X102514285Y-87985714D02*
X102542857Y-88014285D01*
X102571428Y-88100000D01*
X102571428Y-88157142D01*
X102542857Y-88242857D01*
X102485714Y-88300000D01*
X102428571Y-88328571D01*
X102314285Y-88357142D01*
X102228571Y-88357142D01*
X102114285Y-88328571D01*
X102057142Y-88300000D01*
X102000000Y-88242857D01*
X101971428Y-88157142D01*
X101971428Y-88100000D01*
X102000000Y-88014285D01*
X102028571Y-87985714D01*
X102571428Y-87414285D02*
X102571428Y-87757142D01*
X102571428Y-87585714D02*
X101971428Y-87585714D01*
X102057142Y-87642857D01*
X102114285Y-87700000D01*
X102142857Y-87757142D01*
X101971428Y-87042857D02*
X101971428Y-86985714D01*
X102000000Y-86928571D01*
X102028571Y-86900000D01*
X102085714Y-86871428D01*
X102200000Y-86842857D01*
X102342857Y-86842857D01*
X102457142Y-86871428D01*
X102514285Y-86900000D01*
X102542857Y-86928571D01*
X102571428Y-86985714D01*
X102571428Y-87042857D01*
X102542857Y-87100000D01*
X102514285Y-87128571D01*
X102457142Y-87157142D01*
X102342857Y-87185714D01*
X102200000Y-87185714D01*
X102085714Y-87157142D01*
X102028571Y-87128571D01*
X102000000Y-87100000D01*
X101971428Y-87042857D01*
G04 #@! TO.C,C20*
X90324785Y-96364785D02*
X90296214Y-96393357D01*
X90210500Y-96421928D01*
X90153357Y-96421928D01*
X90067642Y-96393357D01*
X90010500Y-96336214D01*
X89981928Y-96279071D01*
X89953357Y-96164785D01*
X89953357Y-96079071D01*
X89981928Y-95964785D01*
X90010500Y-95907642D01*
X90067642Y-95850500D01*
X90153357Y-95821928D01*
X90210500Y-95821928D01*
X90296214Y-95850500D01*
X90324785Y-95879071D01*
X90553357Y-95879071D02*
X90581928Y-95850500D01*
X90639071Y-95821928D01*
X90781928Y-95821928D01*
X90839071Y-95850500D01*
X90867642Y-95879071D01*
X90896214Y-95936214D01*
X90896214Y-95993357D01*
X90867642Y-96079071D01*
X90524785Y-96421928D01*
X90896214Y-96421928D01*
X91267642Y-95821928D02*
X91324785Y-95821928D01*
X91381928Y-95850500D01*
X91410500Y-95879071D01*
X91439071Y-95936214D01*
X91467642Y-96050500D01*
X91467642Y-96193357D01*
X91439071Y-96307642D01*
X91410500Y-96364785D01*
X91381928Y-96393357D01*
X91324785Y-96421928D01*
X91267642Y-96421928D01*
X91210500Y-96393357D01*
X91181928Y-96364785D01*
X91153357Y-96307642D01*
X91124785Y-96193357D01*
X91124785Y-96050500D01*
X91153357Y-95936214D01*
X91181928Y-95879071D01*
X91210500Y-95850500D01*
X91267642Y-95821928D01*
G04 #@! TO.C,C24*
X102514285Y-89785714D02*
X102542857Y-89814285D01*
X102571428Y-89900000D01*
X102571428Y-89957142D01*
X102542857Y-90042857D01*
X102485714Y-90100000D01*
X102428571Y-90128571D01*
X102314285Y-90157142D01*
X102228571Y-90157142D01*
X102114285Y-90128571D01*
X102057142Y-90100000D01*
X102000000Y-90042857D01*
X101971428Y-89957142D01*
X101971428Y-89900000D01*
X102000000Y-89814285D01*
X102028571Y-89785714D01*
X102028571Y-89557142D02*
X102000000Y-89528571D01*
X101971428Y-89471428D01*
X101971428Y-89328571D01*
X102000000Y-89271428D01*
X102028571Y-89242857D01*
X102085714Y-89214285D01*
X102142857Y-89214285D01*
X102228571Y-89242857D01*
X102571428Y-89585714D01*
X102571428Y-89214285D01*
X102171428Y-88700000D02*
X102571428Y-88700000D01*
X101942857Y-88842857D02*
X102371428Y-88985714D01*
X102371428Y-88614285D01*
G04 #@! TO.C,C34*
X121535714Y-94735714D02*
X121497619Y-94773809D01*
X121383333Y-94811904D01*
X121307142Y-94811904D01*
X121192857Y-94773809D01*
X121116666Y-94697619D01*
X121078571Y-94621428D01*
X121040476Y-94469047D01*
X121040476Y-94354761D01*
X121078571Y-94202380D01*
X121116666Y-94126190D01*
X121192857Y-94050000D01*
X121307142Y-94011904D01*
X121383333Y-94011904D01*
X121497619Y-94050000D01*
X121535714Y-94088095D01*
X121802380Y-94011904D02*
X122297619Y-94011904D01*
X122030952Y-94316666D01*
X122145238Y-94316666D01*
X122221428Y-94354761D01*
X122259523Y-94392857D01*
X122297619Y-94469047D01*
X122297619Y-94659523D01*
X122259523Y-94735714D01*
X122221428Y-94773809D01*
X122145238Y-94811904D01*
X121916666Y-94811904D01*
X121840476Y-94773809D01*
X121802380Y-94735714D01*
X122983333Y-94278571D02*
X122983333Y-94811904D01*
X122792857Y-93973809D02*
X122602380Y-94545238D01*
X123097619Y-94545238D01*
G04 #@! TO.C,D2*
X86120023Y-106461904D02*
X86120023Y-105661904D01*
X86310500Y-105661904D01*
X86424785Y-105700000D01*
X86500976Y-105776190D01*
X86539071Y-105852380D01*
X86577166Y-106004761D01*
X86577166Y-106119047D01*
X86539071Y-106271428D01*
X86500976Y-106347619D01*
X86424785Y-106423809D01*
X86310500Y-106461904D01*
X86120023Y-106461904D01*
X86881928Y-105738095D02*
X86920023Y-105700000D01*
X86996214Y-105661904D01*
X87186690Y-105661904D01*
X87262880Y-105700000D01*
X87300976Y-105738095D01*
X87339071Y-105814285D01*
X87339071Y-105890476D01*
X87300976Y-106004761D01*
X86843833Y-106461904D01*
X87339071Y-106461904D01*
G04 #@! TO.C,D3*
X90359523Y-107411904D02*
X90359523Y-106611904D01*
X90550000Y-106611904D01*
X90664285Y-106650000D01*
X90740476Y-106726190D01*
X90778571Y-106802380D01*
X90816666Y-106954761D01*
X90816666Y-107069047D01*
X90778571Y-107221428D01*
X90740476Y-107297619D01*
X90664285Y-107373809D01*
X90550000Y-107411904D01*
X90359523Y-107411904D01*
X91083333Y-106611904D02*
X91578571Y-106611904D01*
X91311904Y-106916666D01*
X91426190Y-106916666D01*
X91502380Y-106954761D01*
X91540476Y-106992857D01*
X91578571Y-107069047D01*
X91578571Y-107259523D01*
X91540476Y-107335714D01*
X91502380Y-107373809D01*
X91426190Y-107411904D01*
X91197619Y-107411904D01*
X91121428Y-107373809D01*
X91083333Y-107335714D01*
G04 #@! TO.C,D4*
X121809523Y-85011904D02*
X121809523Y-84211904D01*
X122000000Y-84211904D01*
X122114285Y-84250000D01*
X122190476Y-84326190D01*
X122228571Y-84402380D01*
X122266666Y-84554761D01*
X122266666Y-84669047D01*
X122228571Y-84821428D01*
X122190476Y-84897619D01*
X122114285Y-84973809D01*
X122000000Y-85011904D01*
X121809523Y-85011904D01*
X122952380Y-84478571D02*
X122952380Y-85011904D01*
X122761904Y-84173809D02*
X122571428Y-84745238D01*
X123066666Y-84745238D01*
G04 #@! TO.C,J1*
X109033333Y-100661904D02*
X109033333Y-101233333D01*
X108995238Y-101347619D01*
X108919047Y-101423809D01*
X108804761Y-101461904D01*
X108728571Y-101461904D01*
X109833333Y-101461904D02*
X109376190Y-101461904D01*
X109604761Y-101461904D02*
X109604761Y-100661904D01*
X109528571Y-100776190D01*
X109452380Y-100852380D01*
X109376190Y-100890476D01*
G04 #@! TO.C,J2*
X129233333Y-90361904D02*
X129233333Y-90933333D01*
X129195238Y-91047619D01*
X129119047Y-91123809D01*
X129004761Y-91161904D01*
X128928571Y-91161904D01*
X129576190Y-90438095D02*
X129614285Y-90400000D01*
X129690476Y-90361904D01*
X129880952Y-90361904D01*
X129957142Y-90400000D01*
X129995238Y-90438095D01*
X130033333Y-90514285D01*
X130033333Y-90590476D01*
X129995238Y-90704761D01*
X129538095Y-91161904D01*
X130033333Y-91161904D01*
G04 #@! TO.C,J3*
X129233333Y-79161904D02*
X129233333Y-79733333D01*
X129195238Y-79847619D01*
X129119047Y-79923809D01*
X129004761Y-79961904D01*
X128928571Y-79961904D01*
X129538095Y-79161904D02*
X130033333Y-79161904D01*
X129766666Y-79466666D01*
X129880952Y-79466666D01*
X129957142Y-79504761D01*
X129995238Y-79542857D01*
X130033333Y-79619047D01*
X130033333Y-79809523D01*
X129995238Y-79885714D01*
X129957142Y-79923809D01*
X129880952Y-79961904D01*
X129652380Y-79961904D01*
X129576190Y-79923809D01*
X129538095Y-79885714D01*
G04 #@! TO.C,J6*
X99033333Y-78861904D02*
X99033333Y-79433333D01*
X98995238Y-79547619D01*
X98919047Y-79623809D01*
X98804761Y-79661904D01*
X98728571Y-79661904D01*
X99757142Y-78861904D02*
X99604761Y-78861904D01*
X99528571Y-78900000D01*
X99490476Y-78938095D01*
X99414285Y-79052380D01*
X99376190Y-79204761D01*
X99376190Y-79509523D01*
X99414285Y-79585714D01*
X99452380Y-79623809D01*
X99528571Y-79661904D01*
X99680952Y-79661904D01*
X99757142Y-79623809D01*
X99795238Y-79585714D01*
X99833333Y-79509523D01*
X99833333Y-79319047D01*
X99795238Y-79242857D01*
X99757142Y-79204761D01*
X99680952Y-79166666D01*
X99528571Y-79166666D01*
X99452380Y-79204761D01*
X99414285Y-79242857D01*
X99376190Y-79319047D01*
G04 #@! TO.C,J7*
X110233333Y-78861904D02*
X110233333Y-79433333D01*
X110195238Y-79547619D01*
X110119047Y-79623809D01*
X110004761Y-79661904D01*
X109928571Y-79661904D01*
X110538095Y-78861904D02*
X111071428Y-78861904D01*
X110728571Y-79661904D01*
G04 #@! TO.C,J10*
X94861904Y-92497619D02*
X95433333Y-92497619D01*
X95547619Y-92535714D01*
X95623809Y-92611904D01*
X95661904Y-92726190D01*
X95661904Y-92802380D01*
X95661904Y-91697619D02*
X95661904Y-92154761D01*
X95661904Y-91926190D02*
X94861904Y-91926190D01*
X94976190Y-92002380D01*
X95052380Y-92078571D01*
X95090476Y-92154761D01*
X94861904Y-91202380D02*
X94861904Y-91126190D01*
X94900000Y-91050000D01*
X94938095Y-91011904D01*
X95014285Y-90973809D01*
X95166666Y-90935714D01*
X95357142Y-90935714D01*
X95509523Y-90973809D01*
X95585714Y-91011904D01*
X95623809Y-91050000D01*
X95661904Y-91126190D01*
X95661904Y-91202380D01*
X95623809Y-91278571D01*
X95585714Y-91316666D01*
X95509523Y-91354761D01*
X95357142Y-91392857D01*
X95166666Y-91392857D01*
X95014285Y-91354761D01*
X94938095Y-91316666D01*
X94900000Y-91278571D01*
X94861904Y-91202380D01*
G04 #@! TO.C,R1*
X115221428Y-91650000D02*
X114935714Y-91850000D01*
X115221428Y-91992857D02*
X114621428Y-91992857D01*
X114621428Y-91764285D01*
X114650000Y-91707142D01*
X114678571Y-91678571D01*
X114735714Y-91650000D01*
X114821428Y-91650000D01*
X114878571Y-91678571D01*
X114907142Y-91707142D01*
X114935714Y-91764285D01*
X114935714Y-91992857D01*
X115221428Y-91078571D02*
X115221428Y-91421428D01*
X115221428Y-91250000D02*
X114621428Y-91250000D01*
X114707142Y-91307142D01*
X114764285Y-91364285D01*
X114792857Y-91421428D01*
G04 #@! TO.C,R26*
X112664285Y-96221428D02*
X112464285Y-95935714D01*
X112321428Y-96221428D02*
X112321428Y-95621428D01*
X112550000Y-95621428D01*
X112607142Y-95650000D01*
X112635714Y-95678571D01*
X112664285Y-95735714D01*
X112664285Y-95821428D01*
X112635714Y-95878571D01*
X112607142Y-95907142D01*
X112550000Y-95935714D01*
X112321428Y-95935714D01*
X112892857Y-95678571D02*
X112921428Y-95650000D01*
X112978571Y-95621428D01*
X113121428Y-95621428D01*
X113178571Y-95650000D01*
X113207142Y-95678571D01*
X113235714Y-95735714D01*
X113235714Y-95792857D01*
X113207142Y-95878571D01*
X112864285Y-96221428D01*
X113235714Y-96221428D01*
X113750000Y-95621428D02*
X113635714Y-95621428D01*
X113578571Y-95650000D01*
X113550000Y-95678571D01*
X113492857Y-95764285D01*
X113464285Y-95878571D01*
X113464285Y-96107142D01*
X113492857Y-96164285D01*
X113521428Y-96192857D01*
X113578571Y-96221428D01*
X113692857Y-96221428D01*
X113750000Y-96192857D01*
X113778571Y-96164285D01*
X113807142Y-96107142D01*
X113807142Y-95964285D01*
X113778571Y-95907142D01*
X113750000Y-95878571D01*
X113692857Y-95850000D01*
X113578571Y-95850000D01*
X113521428Y-95878571D01*
X113492857Y-95907142D01*
X113464285Y-95964285D01*
G04 #@! TO.C,TH1*
X96671428Y-103761904D02*
X97128571Y-103761904D01*
X96900000Y-104561904D02*
X96900000Y-103761904D01*
X97395238Y-104561904D02*
X97395238Y-103761904D01*
X97395238Y-104142857D02*
X97852380Y-104142857D01*
X97852380Y-104561904D02*
X97852380Y-103761904D01*
X98652380Y-104561904D02*
X98195238Y-104561904D01*
X98423809Y-104561904D02*
X98423809Y-103761904D01*
X98347619Y-103876190D01*
X98271428Y-103952380D01*
X98195238Y-103990476D01*
G04 #@! TO.C,C44*
X113964285Y-86985714D02*
X113992857Y-87014285D01*
X114021428Y-87100000D01*
X114021428Y-87157142D01*
X113992857Y-87242857D01*
X113935714Y-87300000D01*
X113878571Y-87328571D01*
X113764285Y-87357142D01*
X113678571Y-87357142D01*
X113564285Y-87328571D01*
X113507142Y-87300000D01*
X113450000Y-87242857D01*
X113421428Y-87157142D01*
X113421428Y-87100000D01*
X113450000Y-87014285D01*
X113478571Y-86985714D01*
X113621428Y-86471428D02*
X114021428Y-86471428D01*
X113392857Y-86614285D02*
X113821428Y-86757142D01*
X113821428Y-86385714D01*
X113621428Y-85900000D02*
X114021428Y-85900000D01*
X113392857Y-86042857D02*
X113821428Y-86185714D01*
X113821428Y-85814285D01*
G04 #@! TO.C,C45*
X114164285Y-89485714D02*
X114192857Y-89514285D01*
X114221428Y-89600000D01*
X114221428Y-89657142D01*
X114192857Y-89742857D01*
X114135714Y-89800000D01*
X114078571Y-89828571D01*
X113964285Y-89857142D01*
X113878571Y-89857142D01*
X113764285Y-89828571D01*
X113707142Y-89800000D01*
X113650000Y-89742857D01*
X113621428Y-89657142D01*
X113621428Y-89600000D01*
X113650000Y-89514285D01*
X113678571Y-89485714D01*
X113821428Y-88971428D02*
X114221428Y-88971428D01*
X113592857Y-89114285D02*
X114021428Y-89257142D01*
X114021428Y-88885714D01*
X113621428Y-88371428D02*
X113621428Y-88657142D01*
X113907142Y-88685714D01*
X113878571Y-88657142D01*
X113850000Y-88600000D01*
X113850000Y-88457142D01*
X113878571Y-88400000D01*
X113907142Y-88371428D01*
X113964285Y-88342857D01*
X114107142Y-88342857D01*
X114164285Y-88371428D01*
X114192857Y-88400000D01*
X114221428Y-88457142D01*
X114221428Y-88600000D01*
X114192857Y-88657142D01*
X114164285Y-88685714D01*
G04 #@! TO.C,F1*
X87066666Y-97498571D02*
X86733333Y-97498571D01*
X86733333Y-98022380D02*
X86733333Y-97022380D01*
X87209523Y-97022380D01*
X88114285Y-98022380D02*
X87542857Y-98022380D01*
X87828571Y-98022380D02*
X87828571Y-97022380D01*
X87733333Y-97165238D01*
X87638095Y-97260476D01*
X87542857Y-97308095D01*
G04 #@! TD*
M02*
