M48
METRIC,TZ
T1C0.300
T2C0.400
T3C0.800
T4C0.800
T5C2.200
T6C1.500
%
G90
G05
T1
X85650Y-108050
X85700Y-78700
X85750Y-102563
X86200Y-121600
X86400Y-127150
X86450Y-78700
X86800Y-127950
X87500Y-127950
X90204Y-128200
X90250Y-109404
X90800Y-128350
X90850Y-112900
X90850Y-114700
X91250Y-145600
X91300Y-112900
X91300Y-112900
X91300Y-114700
X91300Y-114700
X91620Y-140240
X91620Y-141940
X91690Y-135800
X91750Y-112900
X91750Y-112900
X91750Y-114700
X91750Y-114700
X92090Y-138940
X92200Y-112900
X92200Y-112900
X92200Y-114700
X92200Y-114700
X92600Y-134550
X92650Y-112900
X92650Y-112900
X92650Y-114700
X92650Y-114700
X92790Y-135220
X93100Y-112900
X93100Y-112900
X93100Y-114700
X93100Y-114700
X93170Y-138620
X93400Y-105400
X93550Y-112900
X93550Y-112900
X93550Y-114700
X93550Y-114700
X93940Y-138550
X94000Y-112900
X94000Y-112900
X94000Y-114700
X94000Y-114700
X94400Y-133400
X95000Y-105400
X95500Y-145600
X95600Y-143650
X95600Y-144650
X95850Y-133400
X96100Y-138250
X96162Y-135420
X96400Y-82850
X96750Y-138254
X96900Y-89650
X96950Y-142350
X97350Y-139700
X97358Y-138253
X97650Y-85150
X97700Y-130800
X97787Y-79504
X97800Y-78900
X97950Y-139050
X98100Y-140154
X98218Y-129157
X98400Y-130800
X98500Y-136350
X98500Y-143350
X98850Y-88700
X99100Y-139692
X99150Y-143350
X99800Y-143350
X100150Y-139050
X100250Y-135500
X100300Y-139800
X100430Y-143350
X101200Y-140850
X101200Y-138000
X101900Y-133250
X101900Y-133750
X102300Y-139550
X102617Y-137332
X102650Y-131500
X102650Y-138000
X102900Y-133400
X103100Y-138923
X103100Y-139830
X103150Y-140900
X103150Y-141600
X103155Y-137602
X103400Y-142650
X104100Y-142650
X104291Y-91316
X104350Y-88002
X104350Y-87400
X104400Y-88748
X104400Y-89350
X104595Y-133983
X105000Y-136700
X105100Y-84700
X105100Y-85350
X105200Y-143100
X105250Y-138800
X105250Y-140900
X105720Y-83910
X105900Y-143100
X106100Y-84500
X106250Y-140900
X106350Y-86700
X106350Y-88800
X106600Y-147650
X106603Y-123498
X106725Y-144025
X107054Y-84500
X107205Y-123509
X107246Y-143104
X107600Y-96550
X107672Y-143530
X107708Y-83842
X108292Y-143758
X108328Y-84070
X108400Y-131050
X108754Y-84496
X108795Y-104091
X108946Y-143100
X109275Y-83575
X109397Y-104102
X109400Y-79950
X109650Y-138800
X109650Y-140900
X109750Y-86700
X109900Y-143100
X110100Y-84500
X110280Y-143690
X110750Y-86700
X110750Y-88800
X110800Y-84500
X110900Y-142250
X110900Y-142900
X111000Y-90900
X111405Y-93617
X111600Y-138250
X111600Y-138852
X111650Y-140200
X111650Y-139598
X111709Y-136284
X111900Y-84950
X112600Y-84950
X112845Y-89998
X112850Y-86000
X112850Y-86700
X112900Y-87770
X112900Y-88677
X113100Y-94200
X113350Y-89600
X113350Y-96100
X113383Y-90268
X113700Y-88050
X114100Y-93850
X114100Y-94350
X114800Y-89600
X114800Y-86750
X115570Y-84250
X115700Y-87800
X115750Y-92100
X115850Y-88550
X116200Y-84250
X116850Y-84250
X116900Y-87908
X117150Y-138900
X117500Y-84250
X117500Y-91250
X117600Y-96800
X117782Y-98443
X117900Y-87446
X118050Y-88550
X118200Y-148700
X118213Y-148096
X118300Y-96800
X118350Y-142450
X118642Y-89347
X118650Y-87900
X119050Y-85250
X119100Y-137950
X119250Y-89346
X119600Y-144750
X119838Y-92180
X119900Y-89350
X120150Y-94200
X120400Y-82950
X120400Y-83950
X120500Y-82000
X121000Y-122200
X121500Y-112900
X121500Y-114700
X121600Y-94200
X121950Y-112900
X121950Y-112900
X121950Y-114700
X121950Y-114700
X122060Y-89050
X122400Y-112900
X122400Y-112900
X122400Y-114700
X122400Y-114700
X122600Y-122200
X122830Y-88980
X122850Y-112900
X122850Y-112900
X122850Y-114700
X122850Y-114700
X123210Y-92380
X123300Y-112900
X123300Y-112900
X123300Y-114700
X123300Y-114700
X123400Y-93050
X123750Y-112900
X123750Y-112900
X123750Y-114700
X123750Y-114700
X123910Y-88660
X124200Y-112900
X124200Y-112900
X124200Y-114700
X124200Y-114700
X124310Y-91800
X124380Y-85660
X124380Y-87360
X124650Y-112900
X124650Y-112900
X124650Y-114700
X124650Y-114700
X124750Y-82000
X125200Y-99250
X125750Y-118196
X125796Y-99400
X128500Y-99650
X129200Y-99650
X129550Y-148900
X129600Y-100450
X129800Y-106000
X130250Y-125037
X130300Y-148900
X130350Y-119550
X131100Y-95850
X131100Y-95850
X131100Y-96300
X131100Y-96300
X131100Y-96750
X131100Y-96750
X131100Y-97200
X131100Y-97200
X131100Y-97650
X131100Y-97650
X131100Y-98100
X131100Y-98100
X131100Y-98550
X131100Y-98550
X131100Y-99000
X131100Y-126500
X131100Y-126500
X131100Y-126950
X131100Y-126950
X131100Y-127400
X131100Y-127400
X131100Y-127850
X131100Y-127850
X131100Y-128300
X131100Y-128300
X131100Y-128750
X131100Y-128750
X131100Y-129200
X131100Y-129200
X131100Y-129650
X132900Y-95850
X132900Y-95850
X132900Y-96300
X132900Y-96300
X132900Y-96750
X132900Y-96750
X132900Y-97200
X132900Y-97200
X132900Y-97650
X132900Y-97650
X132900Y-98100
X132900Y-98100
X132900Y-98550
X132900Y-98550
X132900Y-99000
X132900Y-126500
X132900Y-126500
X132900Y-126950
X132900Y-126950
X132900Y-127400
X132900Y-127400
X132900Y-127850
X132900Y-127850
X132900Y-128300
X132900Y-128300
X132900Y-128750
X132900Y-128750
X132900Y-129200
X132900Y-129200
X132900Y-129650
X136396Y-95250
X137750Y-90650
X139800Y-134800
X140400Y-98400
X140400Y-100000
X141698Y-114397
X141709Y-113795
X143237Y-90750
X145350Y-134600
X146150Y-133500
X146150Y-134200
X146400Y-130796
X146550Y-130200
X147357Y-122782
X149000Y-122600
X149000Y-123300
X149250Y-112600
X149700Y-118350
X151450Y-119100
X151600Y-118100
X151600Y-125150
X151600Y-126600
X151950Y-119100
X152183Y-116405
X152750Y-128400
X153420Y-128210
X153620Y-124838
X153700Y-120750
X154000Y-129310
X154484Y-109291
X154550Y-122500
X154900Y-116000
X155532Y-118383
X155802Y-117845
X156150Y-101900
X156200Y-118350
X156200Y-119800
X156450Y-109400
X156450Y-124900
X156453Y-123642
X156454Y-124250
X156750Y-127060
X156820Y-127830
X157000Y-111350
X157000Y-115750
X157052Y-109400
X157100Y-103850
X157123Y-117900
X157140Y-128910
X157250Y-120850
X157250Y-123050
X157750Y-118700
X157798Y-109350
X157892Y-121900
X157900Y-123650
X158000Y-120700
X158030Y-117900
X158354Y-122900
X158400Y-109350
X158440Y-129380
X159050Y-119800
X159100Y-111350
X159100Y-114750
X159100Y-115750
X159100Y-117850
X159800Y-117850
X160140Y-129380
X160450Y-110100
X160550Y-124050
X160650Y-102650
X160850Y-116900
X160850Y-117600
X161100Y-110100
X161300Y-111100
X161300Y-112054
X161300Y-115100
X161300Y-115800
X161304Y-113754
X161550Y-120570
X161550Y-121850
X161550Y-122500
X161550Y-121200
X161730Y-113328
X161850Y-125400
X161890Y-110720
X161958Y-112708
X162225Y-114275
X162850Y-125400
X162950Y-101400
X163800Y-125500
X163800Y-129750
X165850Y-114400
X166296Y-102787
X166900Y-102800
X167100Y-90700
X167100Y-91450
T2
X85758Y-103328
X85758Y-104217
X85758Y-105106
X86647Y-103328
X86647Y-104217
X86647Y-105106
X87536Y-103328
X87536Y-104217
X87536Y-105106
X88200Y-106750
X88200Y-107400
X88425Y-103328
X88425Y-104217
X88425Y-105106
X89314Y-103328
X89314Y-104217
X89314Y-105106
X90650Y-98250
X91854Y-85357
X91854Y-86246
X91854Y-87135
X91854Y-88024
X92000Y-111250
X92087Y-107031
X92087Y-108251
X92553Y-107646
X92616Y-85801
X92616Y-86691
X92616Y-87579
X92616Y-88468
X93037Y-107031
X93037Y-108251
X93400Y-104300
X93505Y-85357
X93505Y-86246
X93505Y-87135
X93505Y-88024
X93505Y-88913
X93505Y-89802
X93505Y-90691
X93505Y-91580
X93505Y-92469
X94394Y-81039
X94394Y-81928
X94394Y-82817
X94394Y-83706
X94394Y-89358
X94394Y-90247
X94394Y-91136
X94394Y-92024
X95283Y-81484
X95283Y-82373
X95283Y-83262
X95410Y-99137
X95410Y-100026
X95410Y-100914
X95410Y-101804
X95450Y-106800
X95601Y-93929
X95601Y-94818
X95601Y-95708
X95750Y-96350
X95878Y-105436
X95952Y-115573
X96299Y-99581
X96299Y-100470
X96299Y-101359
X96299Y-102248
X96490Y-94374
X96490Y-95263
X96490Y-96089
X96807Y-97168
X96841Y-115573
X97000Y-81100
X97188Y-99137
X97188Y-100026
X97188Y-100914
X97188Y-101804
X97379Y-93929
X97379Y-94818
X97379Y-95708
X97379Y-96469
X97450Y-98250
X97730Y-115573
X97730Y-117033
X98048Y-117796
X98174Y-116272
X98200Y-81100
X98619Y-115573
X98619Y-117033
X99063Y-116272
X99063Y-117796
X99085Y-95105
X99085Y-96325
X99085Y-100185
X99085Y-101405
X99508Y-115509
X99508Y-117033
X99953Y-116272
X99953Y-117796
X100035Y-95105
X100035Y-96325
X100035Y-100185
X100035Y-101405
X100250Y-88950
X100397Y-115509
X100397Y-117033
X100800Y-93500
X100842Y-116272
X100842Y-117796
X100900Y-88950
X101000Y-86175
X101000Y-86925
X101000Y-87675
X101286Y-115509
X101286Y-117033
X102175Y-115509
X102450Y-134450
X103000Y-135850
X103064Y-115509
X103700Y-133934
X103814Y-135286
X104900Y-129725
X104900Y-131050
X104900Y-132050
X105050Y-93450
X105200Y-133200
X105753Y-136983
X105753Y-140313
X105890Y-93450
X106261Y-138789
X106534Y-133200
X106833Y-136983
X106833Y-140313
X106881Y-87287
X106881Y-90617
X107200Y-104500
X107404Y-138789
X107453Y-88811
X107850Y-95550
X107850Y-97800
X107853Y-123103
X107932Y-94146
X107976Y-136983
X107976Y-140313
X108024Y-87287
X108024Y-90617
X108068Y-133454
X108147Y-104497
X108150Y-129800
X108150Y-132050
X108547Y-138789
X108596Y-88811
X108800Y-123100
X109118Y-136983
X109118Y-140313
X109168Y-87287
X109168Y-90617
X109466Y-94400
X109739Y-88811
X110110Y-134150
X110247Y-87287
X110247Y-90617
X110800Y-94400
X110950Y-134150
X111100Y-95550
X111100Y-96550
X111100Y-97875
X112186Y-92314
X112300Y-93666
X112936Y-112091
X113000Y-91750
X113550Y-93150
X113825Y-112091
X114714Y-110567
X114714Y-112091
X115000Y-139925
X115000Y-140675
X115000Y-141425
X115100Y-138650
X115158Y-109804
X115158Y-111328
X115200Y-134100
X115603Y-110567
X115603Y-112091
X115750Y-138650
X115965Y-126195
X115965Y-127415
X115965Y-131275
X115965Y-132495
X116048Y-109804
X116048Y-111328
X116492Y-110567
X116492Y-112091
X116915Y-126195
X116915Y-127415
X116915Y-131275
X116915Y-132495
X116937Y-109804
X116937Y-111328
X117381Y-110567
X117381Y-112027
X117800Y-146500
X117826Y-111328
X117953Y-109804
X118270Y-110567
X118270Y-112027
X118550Y-129350
X118622Y-131131
X118622Y-131892
X118622Y-132782
X118622Y-133671
X118812Y-125797
X118812Y-126686
X118812Y-127574
X118812Y-128463
X119000Y-146500
X119159Y-112027
X119193Y-130432
X119511Y-131511
X119511Y-132337
X119511Y-133226
X119701Y-125352
X119701Y-126241
X119701Y-127130
X119701Y-128019
X120048Y-112027
X120122Y-122164
X120250Y-131250
X120399Y-131892
X120399Y-132782
X120399Y-133671
X120550Y-120800
X120590Y-125797
X120590Y-126686
X120590Y-127574
X120590Y-128463
X120717Y-144339
X120717Y-145227
X120717Y-146117
X121606Y-135576
X121606Y-136465
X121606Y-137354
X121606Y-138243
X121606Y-143894
X121606Y-144783
X121606Y-145672
X121606Y-146561
X122495Y-135131
X122495Y-136020
X122495Y-136909
X122495Y-137798
X122495Y-138687
X122495Y-139576
X122495Y-140465
X122495Y-141354
X122495Y-142243
X122600Y-123300
X122963Y-119349
X122963Y-120569
X123384Y-139131
X123384Y-140021
X123384Y-140909
X123384Y-141799
X123448Y-119955
X123913Y-119349
X123913Y-120569
X124000Y-116350
X124146Y-139576
X124146Y-140465
X124146Y-141354
X124146Y-142243
X125350Y-129350
X126686Y-122494
X126686Y-123384
X126686Y-124273
X127575Y-122494
X127575Y-123384
X127575Y-124273
X127800Y-120200
X127800Y-120850
X128464Y-122494
X128464Y-123384
X128464Y-124273
X129353Y-122494
X129353Y-123384
X129353Y-124273
X130242Y-122494
X130242Y-123384
X130242Y-124273
X133709Y-117936
X133709Y-118825
X133709Y-119714
X133709Y-120603
X133709Y-121492
X133773Y-122381
X133773Y-123270
X133773Y-124159
X133773Y-125048
X134472Y-120158
X134472Y-121048
X134472Y-121937
X134472Y-122826
X134550Y-97000
X135234Y-119714
X135234Y-120603
X135234Y-121492
X135234Y-122381
X135234Y-123270
X135996Y-120158
X135996Y-121048
X135996Y-121937
X135996Y-122953
X137549Y-97087
X137549Y-98037
X138155Y-97553
X138400Y-93200
X138769Y-97087
X138769Y-98037
X139000Y-100450
X139050Y-93200
X140364Y-100878
X140695Y-90758
X140695Y-91647
X140695Y-92536
X140695Y-93425
X140695Y-94314
X141300Y-112200
X141303Y-113147
X141500Y-98400
X141584Y-90758
X141584Y-91647
X141584Y-92536
X141584Y-93425
X141584Y-94314
X142473Y-90758
X142473Y-91647
X142473Y-92536
X142473Y-93425
X142473Y-94314
X143552Y-101299
X143997Y-100410
X143997Y-102188
X144395Y-104085
X144395Y-105035
X144441Y-101299
X144886Y-100410
X144886Y-102188
X145330Y-101299
X145615Y-104085
X145615Y-105035
X145775Y-100410
X145775Y-102188
X146219Y-101299
X146664Y-100410
X146664Y-102188
X147550Y-95650
X147550Y-102450
X147925Y-116100
X148000Y-112850
X148632Y-101807
X149250Y-116100
X149331Y-102378
X149450Y-100750
X149475Y-104085
X149475Y-105035
X149712Y-101490
X150093Y-100601
X150093Y-102378
X150250Y-112850
X150250Y-116100
X150537Y-101490
X150695Y-104085
X150695Y-105035
X150981Y-100601
X150981Y-102378
X151400Y-114466
X151400Y-115800
X151426Y-101490
X151654Y-112932
X151871Y-100601
X151871Y-102378
X152134Y-117300
X152300Y-105800
X152350Y-110050
X152350Y-110890
X152650Y-118550
X153331Y-98505
X153486Y-117186
X153776Y-99394
X154050Y-118000
X154220Y-98505
X154665Y-99394
X155109Y-98505
X155183Y-111881
X155183Y-113024
X155183Y-114168
X155183Y-115247
X155554Y-99394
X155998Y-98505
X156443Y-99394
X156850Y-105250
X156850Y-105900
X156887Y-98505
X156989Y-112453
X156989Y-113596
X156989Y-114739
X157332Y-97616
X157776Y-96854
X157776Y-98505
X158125Y-106000
X158221Y-97616
X158513Y-111881
X158513Y-113024
X158513Y-114168
X158513Y-115247
X158665Y-96854
X158665Y-98505
X158875Y-106000
X159110Y-97616
X159554Y-96854
X159554Y-98505
X159625Y-106000
X159998Y-97616
X160443Y-96854
X160443Y-98505
X162094Y-99394
X162539Y-100283
X162983Y-99394
X163427Y-100283
X163872Y-99394
X164317Y-100283
X164700Y-103200
X164700Y-102000
X164761Y-99394
T3
X159290Y-126140
X121140Y-86510
X94860Y-141090
T4
X158900Y-134050
X160170Y-131510
X161440Y-134050
X162710Y-131510
X163980Y-134050
X165250Y-131510
X126510Y-91700
X126510Y-94240
X126510Y-96780
X129050Y-92970
X129050Y-95510
X129050Y-98050
X163310Y-105150
X163310Y-107690
X163310Y-110230
X165850Y-106420
X165850Y-108960
X165850Y-111500
X86950Y-140700
X86950Y-143240
X86950Y-145780
X89490Y-141970
X89490Y-144510
X89490Y-147050
X100150Y-82490
X101420Y-79950
X102690Y-82490
X103960Y-79950
X105230Y-82490
X106500Y-79950
X109500Y-147650
X110770Y-145110
X112040Y-147650
X113310Y-145110
X114580Y-147650
X115850Y-145110
X147750Y-134050
X149020Y-131510
X150290Y-134050
X151560Y-131510
X152830Y-134050
X154100Y-131510
X86950Y-129550
X86950Y-132090
X86950Y-134630
X89490Y-130820
X89490Y-133360
X89490Y-135900
X163310Y-116350
X163310Y-118890
X163310Y-121430
X165850Y-117620
X165850Y-120160
X165850Y-122700
X126510Y-80550
X126510Y-83090
X126510Y-85630
X129050Y-81820
X129050Y-84360
X129050Y-86900
X111350Y-82490
X112620Y-79950
X113890Y-82490
X115160Y-79950
X116430Y-82490
X117700Y-79950
X98300Y-147650
X99570Y-145110
X100840Y-147650
X102110Y-145110
X103380Y-147650
X104650Y-145110
T5
X108200Y-117400
X128150Y-117400
X135600Y-112800
X147650Y-127000
X122000Y-98150
X107800Y-110200
X135600Y-92850
X158487Y-100918
X95918Y-87313
X120082Y-140287
X87850Y-110200
X94000Y-129450
T6
X108100Y-145850
X146350Y-132250
X88750Y-128150
X164050Y-124100
X127250Y-88300
X119100Y-81750
X96900Y-145850
X157500Y-132250
X127250Y-99450
X164050Y-112900
X88750Y-139300
X107900Y-81750
T0
M30
