G04 #@! TF.GenerationSoftware,KiCad,Pcbnew,5.0.2-bee76a0~70~ubuntu18.04.1*
G04 #@! TF.CreationDate,2019-02-13T09:30:15+01:00*
G04 #@! TF.ProjectId,motorboard_panel_x3,6d6f746f-7262-46f6-9172-645f70616e65,rev?*
G04 #@! TF.SameCoordinates,Original*
G04 #@! TF.FileFunction,Paste,Bot*
G04 #@! TF.FilePolarity,Positive*
%FSLAX46Y46*%
G04 Gerber Fmt 4.6, Leading zero omitted, Abs format (unit mm)*
G04 Created by KiCad (PCBNEW 5.0.2-bee76a0~70~ubuntu18.04.1) date Wed 13 Feb 2019 09:30:15 CET*
%MOMM*%
%LPD*%
G01*
G04 APERTURE LIST*
%ADD10C,0.450000*%
%ADD11R,0.550000X0.650000*%
%ADD12R,0.650000X0.550000*%
%ADD13R,1.050000X0.350000*%
%ADD14R,0.450000X0.580000*%
%ADD15R,0.688000X0.520000*%
%ADD16R,0.250000X0.500000*%
%ADD17R,0.300000X0.550000*%
%ADD18R,0.850000X0.750000*%
%ADD19R,0.950000X1.200000*%
%ADD20R,0.520000X0.688000*%
%ADD21R,0.580000X0.450000*%
%ADD22R,0.400000X0.700000*%
%ADD23C,0.150000*%
%ADD24C,0.100000*%
%ADD25C,0.430000*%
%ADD26C,0.925000*%
%ADD27R,1.010000X0.600000*%
%ADD28R,0.480000X0.150000*%
%ADD29R,0.500000X0.250000*%
%ADD30R,0.550000X0.300000*%
%ADD31R,0.513000X0.175000*%
%ADD32R,0.175000X0.513000*%
%ADD33R,0.613000X0.175000*%
%ADD34R,0.750000X0.700000*%
%ADD35R,0.850000X1.650000*%
%ADD36R,0.350000X1.050000*%
%ADD37R,0.750000X0.850000*%
%ADD38R,1.200000X0.950000*%
%ADD39R,0.700000X0.400000*%
%ADD40R,0.600000X1.010000*%
%ADD41R,0.150000X0.480000*%
%ADD42R,0.175000X0.613000*%
%ADD43R,0.700000X0.750000*%
%ADD44R,1.650000X0.850000*%
G04 APERTURE END LIST*
D10*
G04 #@! TO.C,U8*
X94720213Y-141882770D02*
G75*
G02X94457500Y-141787150I139787J792770D01*
G01*
X95476666Y-141607444D02*
G75*
G02X95262500Y-141787150I-616666J517444D01*
G01*
X95616453Y-140814674D02*
G75*
G02X95665000Y-141090000I-756453J-275326D01*
G01*
X94999787Y-140297230D02*
G75*
G02X95262500Y-140392850I-139787J-792770D01*
G01*
X94243334Y-140572556D02*
G75*
G02X94457500Y-140392850I616666J-517444D01*
G01*
X94103547Y-141365326D02*
G75*
G02X94055000Y-141090000I756453J275326D01*
G01*
X160082770Y-126279787D02*
G75*
G02X159987150Y-126542500I-792770J139787D01*
G01*
X159807444Y-125523334D02*
G75*
G02X159987150Y-125737500I-517444J-616666D01*
G01*
X159014674Y-125383547D02*
G75*
G02X159290000Y-125335000I275326J-756453D01*
G01*
X158497230Y-126000213D02*
G75*
G02X158592850Y-125737500I792770J-139787D01*
G01*
X158772556Y-126756666D02*
G75*
G02X158592850Y-126542500I517444J616666D01*
G01*
X159565326Y-126896453D02*
G75*
G02X159290000Y-126945000I-275326J756453D01*
G01*
X121896453Y-86234674D02*
G75*
G02X121945000Y-86510000I-756453J-275326D01*
G01*
X121756666Y-87027444D02*
G75*
G02X121542500Y-87207150I-616666J517444D01*
G01*
X121000213Y-87302770D02*
G75*
G02X120737500Y-87207150I139787J792770D01*
G01*
X120383547Y-86785326D02*
G75*
G02X120335000Y-86510000I756453J275326D01*
G01*
X120523334Y-85992556D02*
G75*
G02X120737500Y-85812850I616666J-517444D01*
G01*
X121279787Y-85717230D02*
G75*
G02X121542500Y-85812850I-139787J-792770D01*
G01*
G04 #@! TD*
D11*
G04 #@! TO.C,R12*
X118164500Y-122800000D03*
X117164500Y-122800000D03*
G04 #@! TD*
G04 #@! TO.C,R14*
X118150000Y-137100000D03*
X119150000Y-137100000D03*
G04 #@! TD*
D12*
G04 #@! TO.C,R22*
X97350000Y-140550000D03*
X97350000Y-141550000D03*
G04 #@! TD*
D11*
G04 #@! TO.C,R23*
X96400000Y-137200000D03*
X97400000Y-137200000D03*
G04 #@! TD*
G04 #@! TO.C,R20*
X105200000Y-123600000D03*
X104200000Y-123600000D03*
G04 #@! TD*
D12*
G04 #@! TO.C,R30*
X101500000Y-127250000D03*
X101500000Y-126250000D03*
G04 #@! TD*
G04 #@! TO.C,R21*
X103950000Y-127000000D03*
X103950000Y-128000000D03*
G04 #@! TD*
G04 #@! TO.C,R32*
X91100000Y-137700000D03*
X91100000Y-138700000D03*
G04 #@! TD*
G04 #@! TO.C,R49*
X88400000Y-121550000D03*
X88400000Y-122550000D03*
G04 #@! TD*
G04 #@! TO.C,R34*
X120250000Y-147500000D03*
X120250000Y-148500000D03*
G04 #@! TD*
G04 #@! TO.C,R43*
X86400000Y-123700000D03*
X86400000Y-124700000D03*
G04 #@! TD*
G04 #@! TO.C,R36*
X92350000Y-131850000D03*
X92350000Y-132850000D03*
G04 #@! TD*
D11*
G04 #@! TO.C,C47*
X90300000Y-129150000D03*
X91300000Y-129150000D03*
G04 #@! TD*
D13*
G04 #@! TO.C,U2*
X89700000Y-122375000D03*
X89700000Y-123025000D03*
X89700000Y-123675000D03*
X89700000Y-124325000D03*
X94000000Y-124325000D03*
X94000000Y-123675000D03*
X94000000Y-123025000D03*
X94000000Y-122375000D03*
G04 #@! TD*
D12*
G04 #@! TO.C,C49*
X86400000Y-126600000D03*
X86400000Y-125600000D03*
G04 #@! TD*
D11*
G04 #@! TO.C,C46*
X94450000Y-132250000D03*
X93450000Y-132250000D03*
G04 #@! TD*
G04 #@! TO.C,C43*
X87450000Y-121600000D03*
X86450000Y-121600000D03*
G04 #@! TD*
D12*
G04 #@! TO.C,R42*
X87400000Y-124700000D03*
X87400000Y-123700000D03*
G04 #@! TD*
D14*
G04 #@! TO.C,Q7*
X127113000Y-125372500D03*
X127753000Y-125372500D03*
X128413000Y-125372500D03*
X129053000Y-125372500D03*
X129053000Y-128252500D03*
X128413000Y-128252500D03*
X127753000Y-128252500D03*
X127113000Y-128252500D03*
D15*
X128693000Y-127672500D03*
X127473000Y-127672500D03*
X128693000Y-126722500D03*
X127473000Y-126722500D03*
G04 #@! TD*
D12*
G04 #@! TO.C,R39*
X87400000Y-126600000D03*
X87400000Y-125600000D03*
G04 #@! TD*
G04 #@! TO.C,C22*
X103950000Y-124800000D03*
X103950000Y-125800000D03*
G04 #@! TD*
D16*
G04 #@! TO.C,D7*
X99825000Y-130750000D03*
D17*
X99175000Y-130750000D03*
G04 #@! TD*
D11*
G04 #@! TO.C,C15*
X120630000Y-124270000D03*
X119630000Y-124270000D03*
G04 #@! TD*
D12*
G04 #@! TO.C,R38*
X88400000Y-125600000D03*
X88400000Y-126600000D03*
G04 #@! TD*
D11*
G04 #@! TO.C,R9*
X121590000Y-124270000D03*
X122590000Y-124270000D03*
G04 #@! TD*
D12*
G04 #@! TO.C,R8*
X113400000Y-130300000D03*
X113400000Y-129300000D03*
G04 #@! TD*
D18*
G04 #@! TO.C,Q8*
X107300000Y-126000000D03*
X105300000Y-125050000D03*
X105300000Y-126950000D03*
G04 #@! TD*
D19*
G04 #@! TO.C,C26*
X125400250Y-146275250D03*
X127400250Y-146275250D03*
G04 #@! TD*
G04 #@! TO.C,C25*
X125400250Y-148116750D03*
X127400250Y-148116750D03*
G04 #@! TD*
G04 #@! TO.C,C28*
X125400250Y-142592250D03*
X127400250Y-142592250D03*
G04 #@! TD*
G04 #@! TO.C,C31*
X125400250Y-144433750D03*
X127400250Y-144433750D03*
G04 #@! TD*
D11*
G04 #@! TO.C,C11*
X108350000Y-142350000D03*
X107350000Y-142350000D03*
G04 #@! TD*
D12*
G04 #@! TO.C,R2*
X112900000Y-136800000D03*
X112900000Y-137800000D03*
G04 #@! TD*
G04 #@! TO.C,C35*
X99650000Y-133400000D03*
X99650000Y-134400000D03*
G04 #@! TD*
G04 #@! TO.C,R45*
X88400000Y-123450000D03*
X88400000Y-124450000D03*
G04 #@! TD*
D11*
G04 #@! TO.C,C7*
X109950000Y-135400000D03*
X110950000Y-135400000D03*
G04 #@! TD*
D20*
G04 #@! TO.C,Q1*
X122886750Y-132494750D03*
X122886750Y-131274750D03*
X123836750Y-132494750D03*
X123836750Y-131274750D03*
D21*
X124416750Y-132854750D03*
X124416750Y-132214750D03*
X124416750Y-131554750D03*
X124416750Y-130914750D03*
X121536750Y-130914750D03*
X121536750Y-131554750D03*
X121536750Y-132214750D03*
X121536750Y-132854750D03*
G04 #@! TD*
D20*
G04 #@! TO.C,Q2*
X115965250Y-132494750D03*
X115965250Y-131274750D03*
X116915250Y-132494750D03*
X116915250Y-131274750D03*
D21*
X117495250Y-132854750D03*
X117495250Y-132214750D03*
X117495250Y-131554750D03*
X117495250Y-130914750D03*
X114615250Y-130914750D03*
X114615250Y-131554750D03*
X114615250Y-132214750D03*
X114615250Y-132854750D03*
G04 #@! TD*
D11*
G04 #@! TO.C,C18*
X122106000Y-117414500D03*
X121106000Y-117414500D03*
G04 #@! TD*
D22*
G04 #@! TO.C,U8*
X93380000Y-141940000D03*
X93380000Y-140240000D03*
X92680000Y-140240000D03*
X92680000Y-141940000D03*
G04 #@! TD*
D11*
G04 #@! TO.C,C14*
X114539250Y-129344750D03*
X115539250Y-129344750D03*
G04 #@! TD*
G04 #@! TO.C,C17*
X117200000Y-138150000D03*
X118200000Y-138150000D03*
G04 #@! TD*
G04 #@! TO.C,C16*
X117164500Y-123950000D03*
X118164500Y-123950000D03*
G04 #@! TD*
D12*
G04 #@! TO.C,R35*
X116400000Y-148500000D03*
X116400000Y-147500000D03*
G04 #@! TD*
G04 #@! TO.C,C48*
X89400000Y-126600000D03*
X89400000Y-125600000D03*
G04 #@! TD*
D11*
G04 #@! TO.C,R25*
X105300000Y-142000000D03*
X106300000Y-142000000D03*
G04 #@! TD*
G04 #@! TO.C,R48*
X87450000Y-120600000D03*
X88450000Y-120600000D03*
G04 #@! TD*
D12*
G04 #@! TO.C,R28*
X117500000Y-147500000D03*
X117500000Y-148500000D03*
G04 #@! TD*
G04 #@! TO.C,R40*
X93100000Y-125600000D03*
X93100000Y-126600000D03*
G04 #@! TD*
D23*
G04 #@! TO.C,U7*
X97710000Y-134610000D03*
D24*
G36*
X97635000Y-134685000D02*
X97635000Y-134485000D01*
X97819644Y-134485000D01*
X98019644Y-134685000D01*
X97635000Y-134685000D01*
X97635000Y-134685000D01*
G37*
D23*
X98810000Y-133910000D03*
D24*
G36*
X98885000Y-133835000D02*
X98885000Y-134035000D01*
X98700356Y-134035000D01*
X98535000Y-133869644D01*
X98535000Y-133835000D01*
X98885000Y-133835000D01*
X98885000Y-133835000D01*
G37*
D23*
X97710000Y-133910000D03*
D24*
G36*
X97819644Y-134035000D02*
X97635000Y-134035000D01*
X97635000Y-133835000D01*
X97985000Y-133835000D01*
X97985000Y-133869644D01*
X97819644Y-134035000D01*
X97819644Y-134035000D01*
G37*
D25*
X98260000Y-134260000D03*
D24*
G36*
X98564056Y-134260000D02*
X98260000Y-134564056D01*
X97955944Y-134260000D01*
X98260000Y-133955944D01*
X98564056Y-134260000D01*
X98564056Y-134260000D01*
G37*
D23*
X98810000Y-134610000D03*
D24*
G36*
X98700356Y-134485000D02*
X98885000Y-134485000D01*
X98885000Y-134685000D01*
X98535000Y-134685000D01*
X98535000Y-134650356D01*
X98700356Y-134485000D01*
X98700356Y-134485000D01*
G37*
G04 #@! TD*
D12*
G04 #@! TO.C,R27*
X119150000Y-147500000D03*
X119150000Y-148500000D03*
G04 #@! TD*
D11*
G04 #@! TO.C,R31*
X97700000Y-132400000D03*
X96700000Y-132400000D03*
G04 #@! TD*
D24*
G04 #@! TO.C,L2*
G36*
X101816416Y-131326114D02*
X101838865Y-131329443D01*
X101860878Y-131334958D01*
X101882246Y-131342603D01*
X101902760Y-131352306D01*
X101922226Y-131363973D01*
X101940453Y-131377491D01*
X101957268Y-131392732D01*
X101972509Y-131409547D01*
X101986027Y-131427774D01*
X101997694Y-131447240D01*
X102007397Y-131467754D01*
X102015042Y-131489122D01*
X102020557Y-131511135D01*
X102023886Y-131533584D01*
X102025000Y-131556250D01*
X102025000Y-132018750D01*
X102023886Y-132041416D01*
X102020557Y-132063865D01*
X102015042Y-132085878D01*
X102007397Y-132107246D01*
X101997694Y-132127760D01*
X101986027Y-132147226D01*
X101972509Y-132165453D01*
X101957268Y-132182268D01*
X101940453Y-132197509D01*
X101922226Y-132211027D01*
X101902760Y-132222694D01*
X101882246Y-132232397D01*
X101860878Y-132240042D01*
X101838865Y-132245557D01*
X101816416Y-132248886D01*
X101793750Y-132250000D01*
X100906250Y-132250000D01*
X100883584Y-132248886D01*
X100861135Y-132245557D01*
X100839122Y-132240042D01*
X100817754Y-132232397D01*
X100797240Y-132222694D01*
X100777774Y-132211027D01*
X100759547Y-132197509D01*
X100742732Y-132182268D01*
X100727491Y-132165453D01*
X100713973Y-132147226D01*
X100702306Y-132127760D01*
X100692603Y-132107246D01*
X100684958Y-132085878D01*
X100679443Y-132063865D01*
X100676114Y-132041416D01*
X100675000Y-132018750D01*
X100675000Y-131556250D01*
X100676114Y-131533584D01*
X100679443Y-131511135D01*
X100684958Y-131489122D01*
X100692603Y-131467754D01*
X100702306Y-131447240D01*
X100713973Y-131427774D01*
X100727491Y-131409547D01*
X100742732Y-131392732D01*
X100759547Y-131377491D01*
X100777774Y-131363973D01*
X100797240Y-131352306D01*
X100817754Y-131342603D01*
X100839122Y-131334958D01*
X100861135Y-131329443D01*
X100883584Y-131326114D01*
X100906250Y-131325000D01*
X101793750Y-131325000D01*
X101816416Y-131326114D01*
X101816416Y-131326114D01*
G37*
D26*
X101350000Y-131787500D03*
D24*
G36*
X101816416Y-129451114D02*
X101838865Y-129454443D01*
X101860878Y-129459958D01*
X101882246Y-129467603D01*
X101902760Y-129477306D01*
X101922226Y-129488973D01*
X101940453Y-129502491D01*
X101957268Y-129517732D01*
X101972509Y-129534547D01*
X101986027Y-129552774D01*
X101997694Y-129572240D01*
X102007397Y-129592754D01*
X102015042Y-129614122D01*
X102020557Y-129636135D01*
X102023886Y-129658584D01*
X102025000Y-129681250D01*
X102025000Y-130143750D01*
X102023886Y-130166416D01*
X102020557Y-130188865D01*
X102015042Y-130210878D01*
X102007397Y-130232246D01*
X101997694Y-130252760D01*
X101986027Y-130272226D01*
X101972509Y-130290453D01*
X101957268Y-130307268D01*
X101940453Y-130322509D01*
X101922226Y-130336027D01*
X101902760Y-130347694D01*
X101882246Y-130357397D01*
X101860878Y-130365042D01*
X101838865Y-130370557D01*
X101816416Y-130373886D01*
X101793750Y-130375000D01*
X100906250Y-130375000D01*
X100883584Y-130373886D01*
X100861135Y-130370557D01*
X100839122Y-130365042D01*
X100817754Y-130357397D01*
X100797240Y-130347694D01*
X100777774Y-130336027D01*
X100759547Y-130322509D01*
X100742732Y-130307268D01*
X100727491Y-130290453D01*
X100713973Y-130272226D01*
X100702306Y-130252760D01*
X100692603Y-130232246D01*
X100684958Y-130210878D01*
X100679443Y-130188865D01*
X100676114Y-130166416D01*
X100675000Y-130143750D01*
X100675000Y-129681250D01*
X100676114Y-129658584D01*
X100679443Y-129636135D01*
X100684958Y-129614122D01*
X100692603Y-129592754D01*
X100702306Y-129572240D01*
X100713973Y-129552774D01*
X100727491Y-129534547D01*
X100742732Y-129517732D01*
X100759547Y-129502491D01*
X100777774Y-129488973D01*
X100797240Y-129477306D01*
X100817754Y-129467603D01*
X100839122Y-129459958D01*
X100861135Y-129454443D01*
X100883584Y-129451114D01*
X100906250Y-129450000D01*
X101793750Y-129450000D01*
X101816416Y-129451114D01*
X101816416Y-129451114D01*
G37*
D26*
X101350000Y-129912500D03*
G04 #@! TD*
D17*
G04 #@! TO.C,D8*
X103425000Y-132550000D03*
D16*
X102775000Y-132550000D03*
G04 #@! TD*
D27*
G04 #@! TO.C,U9*
X100150000Y-127250000D03*
X100150000Y-128200000D03*
X100150000Y-126300000D03*
X97950000Y-126300000D03*
X97950000Y-127250000D03*
X97950000Y-128200000D03*
G04 #@! TD*
D19*
G04 #@! TO.C,C30*
X125400250Y-135226250D03*
X127400250Y-135226250D03*
G04 #@! TD*
D11*
G04 #@! TO.C,R29*
X96700000Y-131400000D03*
X97700000Y-131400000D03*
G04 #@! TD*
D12*
G04 #@! TO.C,R33*
X103500000Y-130450000D03*
X103500000Y-131450000D03*
G04 #@! TD*
G04 #@! TO.C,R41*
X92100000Y-125600000D03*
X92100000Y-126600000D03*
G04 #@! TD*
G04 #@! TO.C,R37*
X91200000Y-132100000D03*
X91200000Y-131100000D03*
G04 #@! TD*
G04 #@! TO.C,R24*
X104350000Y-140850000D03*
X104350000Y-139850000D03*
G04 #@! TD*
D19*
G04 #@! TO.C,C29*
X125400250Y-140750750D03*
X127400250Y-140750750D03*
G04 #@! TD*
D12*
G04 #@! TO.C,R44*
X95300000Y-122800000D03*
X95300000Y-123800000D03*
G04 #@! TD*
G04 #@! TO.C,R47*
X90400000Y-126600000D03*
X90400000Y-125600000D03*
G04 #@! TD*
D28*
G04 #@! TO.C,U6*
X92590000Y-135900000D03*
X92590000Y-136250000D03*
X92590000Y-136600000D03*
X92590000Y-136950000D03*
X93260000Y-136950000D03*
X93260000Y-136600000D03*
X93260000Y-136250000D03*
X93260000Y-135900000D03*
G04 #@! TD*
D29*
G04 #@! TO.C,D9*
X100900000Y-133975000D03*
D30*
X100900000Y-133325000D03*
G04 #@! TD*
D31*
G04 #@! TO.C,U3*
X99718500Y-141650000D03*
D32*
X99550000Y-142218500D03*
X99150000Y-142218500D03*
X98750000Y-142218500D03*
D31*
X98581500Y-141650000D03*
X98581500Y-141250000D03*
D32*
X98750000Y-140681500D03*
X99150000Y-140681500D03*
X99550000Y-140681500D03*
D33*
X99668500Y-141250000D03*
G04 #@! TD*
D31*
G04 #@! TO.C,U4*
X99668500Y-138400000D03*
D32*
X99500000Y-138968500D03*
X99100000Y-138968500D03*
X98700000Y-138968500D03*
D31*
X98531500Y-138400000D03*
X98531500Y-138000000D03*
D32*
X98700000Y-137431500D03*
X99100000Y-137431500D03*
X99500000Y-137431500D03*
D33*
X99618500Y-138000000D03*
G04 #@! TD*
D19*
G04 #@! TO.C,C27*
X125400250Y-138909250D03*
X127400250Y-138909250D03*
G04 #@! TD*
D20*
G04 #@! TO.C,Q3*
X122950250Y-127414750D03*
X122950250Y-126194750D03*
X123900250Y-127414750D03*
X123900250Y-126194750D03*
D21*
X124480250Y-127774750D03*
X124480250Y-127134750D03*
X124480250Y-126474750D03*
X124480250Y-125834750D03*
X121600250Y-125834750D03*
X121600250Y-126474750D03*
X121600250Y-127134750D03*
X121600250Y-127774750D03*
G04 #@! TD*
D20*
G04 #@! TO.C,Q4*
X115965250Y-127414750D03*
X115965250Y-126194750D03*
X116915250Y-127414750D03*
X116915250Y-126194750D03*
D21*
X117495250Y-127774750D03*
X117495250Y-127134750D03*
X117495250Y-126474750D03*
X117495250Y-125834750D03*
X114615250Y-125834750D03*
X114615250Y-126474750D03*
X114615250Y-127134750D03*
X114615250Y-127774750D03*
G04 #@! TD*
D19*
G04 #@! TO.C,C32*
X125400250Y-137067750D03*
X127400250Y-137067750D03*
G04 #@! TD*
D20*
G04 #@! TO.C,Q5*
X122962950Y-120569450D03*
X122962950Y-119349450D03*
X123912950Y-120569450D03*
X123912950Y-119349450D03*
D21*
X124492950Y-120929450D03*
X124492950Y-120289450D03*
X124492950Y-119629450D03*
X124492950Y-118989450D03*
X121612950Y-118989450D03*
X121612950Y-119629450D03*
X121612950Y-120289450D03*
X121612950Y-120929450D03*
G04 #@! TD*
D12*
G04 #@! TO.C,R10*
X119230000Y-122250000D03*
X119230000Y-123250000D03*
G04 #@! TD*
G04 #@! TO.C,R7*
X120336000Y-129360500D03*
X120336000Y-130360500D03*
G04 #@! TD*
G04 #@! TO.C,R19*
X112450000Y-122250000D03*
X112450000Y-121250000D03*
G04 #@! TD*
G04 #@! TO.C,C40*
X102600000Y-126250000D03*
X102600000Y-127250000D03*
G04 #@! TD*
D11*
G04 #@! TO.C,R18*
X121106000Y-116271500D03*
X122106000Y-116271500D03*
G04 #@! TD*
G04 #@! TO.C,R6*
X117634750Y-129344750D03*
X116634750Y-129344750D03*
G04 #@! TD*
G04 #@! TO.C,C37*
X94400000Y-143450000D03*
X93400000Y-143450000D03*
G04 #@! TD*
D12*
G04 #@! TO.C,R3*
X114000000Y-136800000D03*
X114000000Y-137800000D03*
G04 #@! TD*
D11*
G04 #@! TO.C,C12*
X99700000Y-135500000D03*
X98700000Y-135500000D03*
G04 #@! TD*
D12*
G04 #@! TO.C,R17*
X111250000Y-121250000D03*
X111250000Y-122250000D03*
G04 #@! TD*
D34*
G04 #@! TO.C,C6*
X110100000Y-137025000D03*
X111600000Y-137025000D03*
G04 #@! TD*
D12*
G04 #@! TO.C,C36*
X96730000Y-134400000D03*
X96730000Y-133400000D03*
G04 #@! TD*
D15*
G04 #@! TO.C,Q6*
X116704200Y-120057200D03*
X115484200Y-120057200D03*
X116704200Y-119107200D03*
X115484200Y-119107200D03*
D14*
X117064200Y-118527200D03*
X116424200Y-118527200D03*
X115764200Y-118527200D03*
X115124200Y-118527200D03*
X115124200Y-121407200D03*
X115764200Y-121407200D03*
X116424200Y-121407200D03*
X117064200Y-121407200D03*
G04 #@! TD*
D11*
G04 #@! TO.C,R11*
X121650000Y-123200000D03*
X120650000Y-123200000D03*
G04 #@! TD*
G04 #@! TO.C,R13*
X116250000Y-137100000D03*
X117250000Y-137100000D03*
G04 #@! TD*
D12*
G04 #@! TO.C,R46*
X96300000Y-123800000D03*
X96300000Y-122800000D03*
G04 #@! TD*
D11*
G04 #@! TO.C,R4*
X107350000Y-141300000D03*
X108350000Y-141300000D03*
G04 #@! TD*
D12*
G04 #@! TO.C,C38*
X94400000Y-136425000D03*
X94400000Y-135425000D03*
G04 #@! TD*
D11*
G04 #@! TO.C,C41*
X99750000Y-131850000D03*
X98750000Y-131850000D03*
G04 #@! TD*
G04 #@! TO.C,R5*
X123455500Y-129352500D03*
X124455500Y-129352500D03*
G04 #@! TD*
G04 #@! TO.C,C42*
X99850000Y-129700000D03*
X98850000Y-129700000D03*
G04 #@! TD*
G04 #@! TO.C,R16*
X123011000Y-117351000D03*
X124011000Y-117351000D03*
G04 #@! TD*
D12*
G04 #@! TO.C,C39*
X91700000Y-133950000D03*
X91700000Y-134950000D03*
G04 #@! TD*
D35*
G04 #@! TO.C,R15*
X119118800Y-135336000D03*
X116218800Y-135336000D03*
G04 #@! TD*
D11*
G04 #@! TO.C,C13*
X122550500Y-129352500D03*
X121550500Y-129352500D03*
G04 #@! TD*
D12*
G04 #@! TO.C,C19*
X113600000Y-121250000D03*
X113600000Y-122250000D03*
G04 #@! TD*
G04 #@! TO.C,R12*
X141000000Y-102835500D03*
X141000000Y-103835500D03*
G04 #@! TD*
G04 #@! TO.C,R14*
X155300000Y-102850000D03*
X155300000Y-101850000D03*
G04 #@! TD*
D11*
G04 #@! TO.C,R22*
X158750000Y-123650000D03*
X159750000Y-123650000D03*
G04 #@! TD*
D12*
G04 #@! TO.C,R23*
X155400000Y-124600000D03*
X155400000Y-123600000D03*
G04 #@! TD*
G04 #@! TO.C,R20*
X141800000Y-115800000D03*
X141800000Y-116800000D03*
G04 #@! TD*
D11*
G04 #@! TO.C,R30*
X145450000Y-119500000D03*
X144450000Y-119500000D03*
G04 #@! TD*
G04 #@! TO.C,R21*
X145200000Y-117050000D03*
X146200000Y-117050000D03*
G04 #@! TD*
G04 #@! TO.C,R32*
X155900000Y-129900000D03*
X156900000Y-129900000D03*
G04 #@! TD*
G04 #@! TO.C,R49*
X139750000Y-132600000D03*
X140750000Y-132600000D03*
G04 #@! TD*
G04 #@! TO.C,R34*
X165700000Y-100750000D03*
X166700000Y-100750000D03*
G04 #@! TD*
G04 #@! TO.C,R43*
X141900000Y-134600000D03*
X142900000Y-134600000D03*
G04 #@! TD*
G04 #@! TO.C,R36*
X150050000Y-128650000D03*
X151050000Y-128650000D03*
G04 #@! TD*
D12*
G04 #@! TO.C,C47*
X147350000Y-130700000D03*
X147350000Y-129700000D03*
G04 #@! TD*
D36*
G04 #@! TO.C,U2*
X140575000Y-131300000D03*
X141225000Y-131300000D03*
X141875000Y-131300000D03*
X142525000Y-131300000D03*
X142525000Y-127000000D03*
X141875000Y-127000000D03*
X141225000Y-127000000D03*
X140575000Y-127000000D03*
G04 #@! TD*
D11*
G04 #@! TO.C,C49*
X144800000Y-134600000D03*
X143800000Y-134600000D03*
G04 #@! TD*
D12*
G04 #@! TO.C,C46*
X150450000Y-126550000D03*
X150450000Y-127550000D03*
G04 #@! TD*
G04 #@! TO.C,C43*
X139800000Y-133550000D03*
X139800000Y-134550000D03*
G04 #@! TD*
D11*
G04 #@! TO.C,R42*
X142900000Y-133600000D03*
X141900000Y-133600000D03*
G04 #@! TD*
D21*
G04 #@! TO.C,Q7*
X143572500Y-93887000D03*
X143572500Y-93247000D03*
X143572500Y-92587000D03*
X143572500Y-91947000D03*
X146452500Y-91947000D03*
X146452500Y-92587000D03*
X146452500Y-93247000D03*
X146452500Y-93887000D03*
D20*
X145872500Y-92307000D03*
X145872500Y-93527000D03*
X144922500Y-92307000D03*
X144922500Y-93527000D03*
G04 #@! TD*
D11*
G04 #@! TO.C,R39*
X144800000Y-133600000D03*
X143800000Y-133600000D03*
G04 #@! TD*
G04 #@! TO.C,C22*
X143000000Y-117050000D03*
X144000000Y-117050000D03*
G04 #@! TD*
D29*
G04 #@! TO.C,D7*
X148950000Y-121175000D03*
D30*
X148950000Y-121825000D03*
G04 #@! TD*
D12*
G04 #@! TO.C,C15*
X142470000Y-100370000D03*
X142470000Y-101370000D03*
G04 #@! TD*
D11*
G04 #@! TO.C,R38*
X143800000Y-132600000D03*
X144800000Y-132600000D03*
G04 #@! TD*
D12*
G04 #@! TO.C,R9*
X142470000Y-99410000D03*
X142470000Y-98410000D03*
G04 #@! TD*
D11*
G04 #@! TO.C,R8*
X148500000Y-107600000D03*
X147500000Y-107600000D03*
G04 #@! TD*
D37*
G04 #@! TO.C,Q8*
X144200000Y-113700000D03*
X143250000Y-115700000D03*
X145150000Y-115700000D03*
G04 #@! TD*
D38*
G04 #@! TO.C,C26*
X164475250Y-95599750D03*
X164475250Y-93599750D03*
G04 #@! TD*
G04 #@! TO.C,C25*
X166316750Y-95599750D03*
X166316750Y-93599750D03*
G04 #@! TD*
G04 #@! TO.C,C28*
X160792250Y-95599750D03*
X160792250Y-93599750D03*
G04 #@! TD*
G04 #@! TO.C,C31*
X162633750Y-95599750D03*
X162633750Y-93599750D03*
G04 #@! TD*
D12*
G04 #@! TO.C,C11*
X160550000Y-112650000D03*
X160550000Y-113650000D03*
G04 #@! TD*
D11*
G04 #@! TO.C,R2*
X155000000Y-108100000D03*
X156000000Y-108100000D03*
G04 #@! TD*
G04 #@! TO.C,C35*
X151600000Y-121350000D03*
X152600000Y-121350000D03*
G04 #@! TD*
G04 #@! TO.C,R45*
X141650000Y-132600000D03*
X142650000Y-132600000D03*
G04 #@! TD*
D12*
G04 #@! TO.C,C7*
X153600000Y-111050000D03*
X153600000Y-110050000D03*
G04 #@! TD*
D15*
G04 #@! TO.C,Q1*
X150694750Y-98113250D03*
X149474750Y-98113250D03*
X150694750Y-97163250D03*
X149474750Y-97163250D03*
D14*
X151054750Y-96583250D03*
X150414750Y-96583250D03*
X149754750Y-96583250D03*
X149114750Y-96583250D03*
X149114750Y-99463250D03*
X149754750Y-99463250D03*
X150414750Y-99463250D03*
X151054750Y-99463250D03*
G04 #@! TD*
D15*
G04 #@! TO.C,Q2*
X150694750Y-105034750D03*
X149474750Y-105034750D03*
X150694750Y-104084750D03*
X149474750Y-104084750D03*
D14*
X151054750Y-103504750D03*
X150414750Y-103504750D03*
X149754750Y-103504750D03*
X149114750Y-103504750D03*
X149114750Y-106384750D03*
X149754750Y-106384750D03*
X150414750Y-106384750D03*
X151054750Y-106384750D03*
G04 #@! TD*
D12*
G04 #@! TO.C,C18*
X135614500Y-98894000D03*
X135614500Y-99894000D03*
G04 #@! TD*
D39*
G04 #@! TO.C,U8*
X160140000Y-127620000D03*
X158440000Y-127620000D03*
X158440000Y-128320000D03*
X160140000Y-128320000D03*
G04 #@! TD*
D12*
G04 #@! TO.C,C14*
X147544750Y-106460750D03*
X147544750Y-105460750D03*
G04 #@! TD*
G04 #@! TO.C,C17*
X156350000Y-103800000D03*
X156350000Y-102800000D03*
G04 #@! TD*
G04 #@! TO.C,C16*
X142150000Y-103835500D03*
X142150000Y-102835500D03*
G04 #@! TD*
D11*
G04 #@! TO.C,R35*
X166700000Y-104600000D03*
X165700000Y-104600000D03*
G04 #@! TD*
G04 #@! TO.C,C48*
X144800000Y-131600000D03*
X143800000Y-131600000D03*
G04 #@! TD*
D12*
G04 #@! TO.C,R25*
X160200000Y-115700000D03*
X160200000Y-114700000D03*
G04 #@! TD*
G04 #@! TO.C,R48*
X138800000Y-133550000D03*
X138800000Y-132550000D03*
G04 #@! TD*
D11*
G04 #@! TO.C,R28*
X165700000Y-103500000D03*
X166700000Y-103500000D03*
G04 #@! TD*
G04 #@! TO.C,R40*
X143800000Y-127900000D03*
X144800000Y-127900000D03*
G04 #@! TD*
D23*
G04 #@! TO.C,U7*
X152810000Y-123290000D03*
D24*
G36*
X152885000Y-123365000D02*
X152685000Y-123365000D01*
X152685000Y-123180356D01*
X152885000Y-122980356D01*
X152885000Y-123365000D01*
X152885000Y-123365000D01*
G37*
D23*
X152110000Y-122190000D03*
D24*
G36*
X152035000Y-122115000D02*
X152235000Y-122115000D01*
X152235000Y-122299644D01*
X152069644Y-122465000D01*
X152035000Y-122465000D01*
X152035000Y-122115000D01*
X152035000Y-122115000D01*
G37*
D23*
X152110000Y-123290000D03*
D24*
G36*
X152235000Y-123180356D02*
X152235000Y-123365000D01*
X152035000Y-123365000D01*
X152035000Y-123015000D01*
X152069644Y-123015000D01*
X152235000Y-123180356D01*
X152235000Y-123180356D01*
G37*
D25*
X152460000Y-122740000D03*
D24*
G36*
X152460000Y-122435944D02*
X152764056Y-122740000D01*
X152460000Y-123044056D01*
X152155944Y-122740000D01*
X152460000Y-122435944D01*
X152460000Y-122435944D01*
G37*
D23*
X152810000Y-122190000D03*
D24*
G36*
X152685000Y-122299644D02*
X152685000Y-122115000D01*
X152885000Y-122115000D01*
X152885000Y-122465000D01*
X152850356Y-122465000D01*
X152685000Y-122299644D01*
X152685000Y-122299644D01*
G37*
G04 #@! TD*
D11*
G04 #@! TO.C,R27*
X165700000Y-101850000D03*
X166700000Y-101850000D03*
G04 #@! TD*
D12*
G04 #@! TO.C,R31*
X150600000Y-123300000D03*
X150600000Y-124300000D03*
G04 #@! TD*
D24*
G04 #@! TO.C,L2*
G36*
X150241416Y-118976114D02*
X150263865Y-118979443D01*
X150285878Y-118984958D01*
X150307246Y-118992603D01*
X150327760Y-119002306D01*
X150347226Y-119013973D01*
X150365453Y-119027491D01*
X150382268Y-119042732D01*
X150397509Y-119059547D01*
X150411027Y-119077774D01*
X150422694Y-119097240D01*
X150432397Y-119117754D01*
X150440042Y-119139122D01*
X150445557Y-119161135D01*
X150448886Y-119183584D01*
X150450000Y-119206250D01*
X150450000Y-120093750D01*
X150448886Y-120116416D01*
X150445557Y-120138865D01*
X150440042Y-120160878D01*
X150432397Y-120182246D01*
X150422694Y-120202760D01*
X150411027Y-120222226D01*
X150397509Y-120240453D01*
X150382268Y-120257268D01*
X150365453Y-120272509D01*
X150347226Y-120286027D01*
X150327760Y-120297694D01*
X150307246Y-120307397D01*
X150285878Y-120315042D01*
X150263865Y-120320557D01*
X150241416Y-120323886D01*
X150218750Y-120325000D01*
X149756250Y-120325000D01*
X149733584Y-120323886D01*
X149711135Y-120320557D01*
X149689122Y-120315042D01*
X149667754Y-120307397D01*
X149647240Y-120297694D01*
X149627774Y-120286027D01*
X149609547Y-120272509D01*
X149592732Y-120257268D01*
X149577491Y-120240453D01*
X149563973Y-120222226D01*
X149552306Y-120202760D01*
X149542603Y-120182246D01*
X149534958Y-120160878D01*
X149529443Y-120138865D01*
X149526114Y-120116416D01*
X149525000Y-120093750D01*
X149525000Y-119206250D01*
X149526114Y-119183584D01*
X149529443Y-119161135D01*
X149534958Y-119139122D01*
X149542603Y-119117754D01*
X149552306Y-119097240D01*
X149563973Y-119077774D01*
X149577491Y-119059547D01*
X149592732Y-119042732D01*
X149609547Y-119027491D01*
X149627774Y-119013973D01*
X149647240Y-119002306D01*
X149667754Y-118992603D01*
X149689122Y-118984958D01*
X149711135Y-118979443D01*
X149733584Y-118976114D01*
X149756250Y-118975000D01*
X150218750Y-118975000D01*
X150241416Y-118976114D01*
X150241416Y-118976114D01*
G37*
D26*
X149987500Y-119650000D03*
D24*
G36*
X148366416Y-118976114D02*
X148388865Y-118979443D01*
X148410878Y-118984958D01*
X148432246Y-118992603D01*
X148452760Y-119002306D01*
X148472226Y-119013973D01*
X148490453Y-119027491D01*
X148507268Y-119042732D01*
X148522509Y-119059547D01*
X148536027Y-119077774D01*
X148547694Y-119097240D01*
X148557397Y-119117754D01*
X148565042Y-119139122D01*
X148570557Y-119161135D01*
X148573886Y-119183584D01*
X148575000Y-119206250D01*
X148575000Y-120093750D01*
X148573886Y-120116416D01*
X148570557Y-120138865D01*
X148565042Y-120160878D01*
X148557397Y-120182246D01*
X148547694Y-120202760D01*
X148536027Y-120222226D01*
X148522509Y-120240453D01*
X148507268Y-120257268D01*
X148490453Y-120272509D01*
X148472226Y-120286027D01*
X148452760Y-120297694D01*
X148432246Y-120307397D01*
X148410878Y-120315042D01*
X148388865Y-120320557D01*
X148366416Y-120323886D01*
X148343750Y-120325000D01*
X147881250Y-120325000D01*
X147858584Y-120323886D01*
X147836135Y-120320557D01*
X147814122Y-120315042D01*
X147792754Y-120307397D01*
X147772240Y-120297694D01*
X147752774Y-120286027D01*
X147734547Y-120272509D01*
X147717732Y-120257268D01*
X147702491Y-120240453D01*
X147688973Y-120222226D01*
X147677306Y-120202760D01*
X147667603Y-120182246D01*
X147659958Y-120160878D01*
X147654443Y-120138865D01*
X147651114Y-120116416D01*
X147650000Y-120093750D01*
X147650000Y-119206250D01*
X147651114Y-119183584D01*
X147654443Y-119161135D01*
X147659958Y-119139122D01*
X147667603Y-119117754D01*
X147677306Y-119097240D01*
X147688973Y-119077774D01*
X147702491Y-119059547D01*
X147717732Y-119042732D01*
X147734547Y-119027491D01*
X147752774Y-119013973D01*
X147772240Y-119002306D01*
X147792754Y-118992603D01*
X147814122Y-118984958D01*
X147836135Y-118979443D01*
X147858584Y-118976114D01*
X147881250Y-118975000D01*
X148343750Y-118975000D01*
X148366416Y-118976114D01*
X148366416Y-118976114D01*
G37*
D26*
X148112500Y-119650000D03*
G04 #@! TD*
D30*
G04 #@! TO.C,D8*
X150750000Y-117575000D03*
D29*
X150750000Y-118225000D03*
G04 #@! TD*
D40*
G04 #@! TO.C,U9*
X145450000Y-120850000D03*
X146400000Y-120850000D03*
X144500000Y-120850000D03*
X144500000Y-123050000D03*
X145450000Y-123050000D03*
X146400000Y-123050000D03*
G04 #@! TD*
D38*
G04 #@! TO.C,C30*
X153426250Y-95599750D03*
X153426250Y-93599750D03*
G04 #@! TD*
D12*
G04 #@! TO.C,R29*
X149600000Y-124300000D03*
X149600000Y-123300000D03*
G04 #@! TD*
D11*
G04 #@! TO.C,R33*
X148650000Y-117500000D03*
X149650000Y-117500000D03*
G04 #@! TD*
G04 #@! TO.C,R41*
X143800000Y-128900000D03*
X144800000Y-128900000D03*
G04 #@! TD*
G04 #@! TO.C,R37*
X150300000Y-129800000D03*
X149300000Y-129800000D03*
G04 #@! TD*
G04 #@! TO.C,R24*
X159050000Y-116650000D03*
X158050000Y-116650000D03*
G04 #@! TD*
D38*
G04 #@! TO.C,C29*
X158950750Y-95599750D03*
X158950750Y-93599750D03*
G04 #@! TD*
D11*
G04 #@! TO.C,R44*
X141000000Y-125700000D03*
X142000000Y-125700000D03*
G04 #@! TD*
G04 #@! TO.C,R47*
X144800000Y-130600000D03*
X143800000Y-130600000D03*
G04 #@! TD*
D41*
G04 #@! TO.C,U6*
X154100000Y-128410000D03*
X154450000Y-128410000D03*
X154800000Y-128410000D03*
X155150000Y-128410000D03*
X155150000Y-127740000D03*
X154800000Y-127740000D03*
X154450000Y-127740000D03*
X154100000Y-127740000D03*
G04 #@! TD*
D16*
G04 #@! TO.C,D9*
X152175000Y-120100000D03*
D17*
X151525000Y-120100000D03*
G04 #@! TD*
D32*
G04 #@! TO.C,U3*
X159850000Y-121281500D03*
D31*
X160418500Y-121450000D03*
X160418500Y-121850000D03*
X160418500Y-122250000D03*
D32*
X159850000Y-122418500D03*
X159450000Y-122418500D03*
D31*
X158881500Y-122250000D03*
X158881500Y-121850000D03*
X158881500Y-121450000D03*
D42*
X159450000Y-121331500D03*
G04 #@! TD*
D32*
G04 #@! TO.C,U4*
X156600000Y-121331500D03*
D31*
X157168500Y-121500000D03*
X157168500Y-121900000D03*
X157168500Y-122300000D03*
D32*
X156600000Y-122468500D03*
X156200000Y-122468500D03*
D31*
X155631500Y-122300000D03*
X155631500Y-121900000D03*
X155631500Y-121500000D03*
D42*
X156200000Y-121381500D03*
G04 #@! TD*
D38*
G04 #@! TO.C,C27*
X157109250Y-95599750D03*
X157109250Y-93599750D03*
G04 #@! TD*
D15*
G04 #@! TO.C,Q3*
X145614750Y-98049750D03*
X144394750Y-98049750D03*
X145614750Y-97099750D03*
X144394750Y-97099750D03*
D14*
X145974750Y-96519750D03*
X145334750Y-96519750D03*
X144674750Y-96519750D03*
X144034750Y-96519750D03*
X144034750Y-99399750D03*
X144674750Y-99399750D03*
X145334750Y-99399750D03*
X145974750Y-99399750D03*
G04 #@! TD*
D15*
G04 #@! TO.C,Q4*
X145614750Y-105034750D03*
X144394750Y-105034750D03*
X145614750Y-104084750D03*
X144394750Y-104084750D03*
D14*
X145974750Y-103504750D03*
X145334750Y-103504750D03*
X144674750Y-103504750D03*
X144034750Y-103504750D03*
X144034750Y-106384750D03*
X144674750Y-106384750D03*
X145334750Y-106384750D03*
X145974750Y-106384750D03*
G04 #@! TD*
D38*
G04 #@! TO.C,C32*
X155267750Y-95599750D03*
X155267750Y-93599750D03*
G04 #@! TD*
D15*
G04 #@! TO.C,Q5*
X138769450Y-98037050D03*
X137549450Y-98037050D03*
X138769450Y-97087050D03*
X137549450Y-97087050D03*
D14*
X139129450Y-96507050D03*
X138489450Y-96507050D03*
X137829450Y-96507050D03*
X137189450Y-96507050D03*
X137189450Y-99387050D03*
X137829450Y-99387050D03*
X138489450Y-99387050D03*
X139129450Y-99387050D03*
G04 #@! TD*
D11*
G04 #@! TO.C,R10*
X140450000Y-101770000D03*
X141450000Y-101770000D03*
G04 #@! TD*
G04 #@! TO.C,R7*
X147560500Y-100664000D03*
X148560500Y-100664000D03*
G04 #@! TD*
G04 #@! TO.C,R19*
X140450000Y-108550000D03*
X139450000Y-108550000D03*
G04 #@! TD*
G04 #@! TO.C,C40*
X144450000Y-118400000D03*
X145450000Y-118400000D03*
G04 #@! TD*
D12*
G04 #@! TO.C,R18*
X134471500Y-99894000D03*
X134471500Y-98894000D03*
G04 #@! TD*
G04 #@! TO.C,R6*
X147544750Y-103365250D03*
X147544750Y-104365250D03*
G04 #@! TD*
G04 #@! TO.C,C37*
X161650000Y-126600000D03*
X161650000Y-127600000D03*
G04 #@! TD*
D11*
G04 #@! TO.C,R3*
X155000000Y-107000000D03*
X156000000Y-107000000D03*
G04 #@! TD*
D12*
G04 #@! TO.C,C12*
X153700000Y-121300000D03*
X153700000Y-122300000D03*
G04 #@! TD*
D11*
G04 #@! TO.C,R17*
X139450000Y-109750000D03*
X140450000Y-109750000D03*
G04 #@! TD*
D43*
G04 #@! TO.C,C6*
X155225000Y-110900000D03*
X155225000Y-109400000D03*
G04 #@! TD*
D11*
G04 #@! TO.C,C36*
X152600000Y-124270000D03*
X151600000Y-124270000D03*
G04 #@! TD*
D20*
G04 #@! TO.C,Q6*
X138257200Y-104295800D03*
X138257200Y-105515800D03*
X137307200Y-104295800D03*
X137307200Y-105515800D03*
D21*
X136727200Y-103935800D03*
X136727200Y-104575800D03*
X136727200Y-105235800D03*
X136727200Y-105875800D03*
X139607200Y-105875800D03*
X139607200Y-105235800D03*
X139607200Y-104575800D03*
X139607200Y-103935800D03*
G04 #@! TD*
D12*
G04 #@! TO.C,R11*
X141400000Y-99350000D03*
X141400000Y-100350000D03*
G04 #@! TD*
G04 #@! TO.C,R13*
X155300000Y-104750000D03*
X155300000Y-103750000D03*
G04 #@! TD*
D11*
G04 #@! TO.C,R46*
X142000000Y-124700000D03*
X141000000Y-124700000D03*
G04 #@! TD*
D12*
G04 #@! TO.C,R4*
X159500000Y-113650000D03*
X159500000Y-112650000D03*
G04 #@! TD*
D11*
G04 #@! TO.C,C38*
X154625000Y-126600000D03*
X153625000Y-126600000D03*
G04 #@! TD*
D12*
G04 #@! TO.C,C41*
X150050000Y-121250000D03*
X150050000Y-122250000D03*
G04 #@! TD*
G04 #@! TO.C,R5*
X147552500Y-97544500D03*
X147552500Y-96544500D03*
G04 #@! TD*
G04 #@! TO.C,C42*
X147900000Y-121150000D03*
X147900000Y-122150000D03*
G04 #@! TD*
G04 #@! TO.C,R16*
X135551000Y-97989000D03*
X135551000Y-96989000D03*
G04 #@! TD*
D11*
G04 #@! TO.C,C39*
X152150000Y-129300000D03*
X153150000Y-129300000D03*
G04 #@! TD*
D44*
G04 #@! TO.C,R15*
X153536000Y-101881200D03*
X153536000Y-104781200D03*
G04 #@! TD*
D12*
G04 #@! TO.C,C13*
X147552500Y-98449500D03*
X147552500Y-99449500D03*
G04 #@! TD*
D11*
G04 #@! TO.C,C19*
X139450000Y-107400000D03*
X140450000Y-107400000D03*
G04 #@! TD*
D15*
G04 #@! TO.C,Q7*
X88527000Y-100877500D03*
X87307000Y-100877500D03*
X88527000Y-99927500D03*
X87307000Y-99927500D03*
D14*
X88887000Y-99347500D03*
X88247000Y-99347500D03*
X87587000Y-99347500D03*
X86947000Y-99347500D03*
X86947000Y-102227500D03*
X87587000Y-102227500D03*
X88247000Y-102227500D03*
X88887000Y-102227500D03*
G04 #@! TD*
D18*
G04 #@! TO.C,Q8*
X110700000Y-100650000D03*
X110700000Y-102550000D03*
X108700000Y-101600000D03*
G04 #@! TD*
D35*
G04 #@! TO.C,R15*
X99781200Y-92264000D03*
X96881200Y-92264000D03*
G04 #@! TD*
D34*
G04 #@! TO.C,C6*
X104400000Y-90575000D03*
X105900000Y-90575000D03*
G04 #@! TD*
D19*
G04 #@! TO.C,C25*
X88599750Y-79483250D03*
X90599750Y-79483250D03*
G04 #@! TD*
G04 #@! TO.C,C26*
X88599750Y-81324750D03*
X90599750Y-81324750D03*
G04 #@! TD*
G04 #@! TO.C,C27*
X88599750Y-88690750D03*
X90599750Y-88690750D03*
G04 #@! TD*
G04 #@! TO.C,C28*
X88599750Y-85007750D03*
X90599750Y-85007750D03*
G04 #@! TD*
G04 #@! TO.C,C29*
X88599750Y-86849250D03*
X90599750Y-86849250D03*
G04 #@! TD*
G04 #@! TO.C,C30*
X88599750Y-92373750D03*
X90599750Y-92373750D03*
G04 #@! TD*
G04 #@! TO.C,C31*
X88599750Y-83166250D03*
X90599750Y-83166250D03*
G04 #@! TD*
G04 #@! TO.C,C32*
X88599750Y-90532250D03*
X90599750Y-90532250D03*
G04 #@! TD*
D21*
G04 #@! TO.C,Q1*
X94463250Y-94745250D03*
X94463250Y-95385250D03*
X94463250Y-96045250D03*
X94463250Y-96685250D03*
X91583250Y-96685250D03*
X91583250Y-96045250D03*
X91583250Y-95385250D03*
X91583250Y-94745250D03*
D20*
X92163250Y-96325250D03*
X92163250Y-95105250D03*
X93113250Y-96325250D03*
X93113250Y-95105250D03*
G04 #@! TD*
D21*
G04 #@! TO.C,Q2*
X101384750Y-94745250D03*
X101384750Y-95385250D03*
X101384750Y-96045250D03*
X101384750Y-96685250D03*
X98504750Y-96685250D03*
X98504750Y-96045250D03*
X98504750Y-95385250D03*
X98504750Y-94745250D03*
D20*
X99084750Y-96325250D03*
X99084750Y-95105250D03*
X100034750Y-96325250D03*
X100034750Y-95105250D03*
G04 #@! TD*
D21*
G04 #@! TO.C,Q3*
X94399750Y-99825250D03*
X94399750Y-100465250D03*
X94399750Y-101125250D03*
X94399750Y-101765250D03*
X91519750Y-101765250D03*
X91519750Y-101125250D03*
X91519750Y-100465250D03*
X91519750Y-99825250D03*
D20*
X92099750Y-101405250D03*
X92099750Y-100185250D03*
X93049750Y-101405250D03*
X93049750Y-100185250D03*
G04 #@! TD*
D21*
G04 #@! TO.C,Q4*
X101384750Y-99825250D03*
X101384750Y-100465250D03*
X101384750Y-101125250D03*
X101384750Y-101765250D03*
X98504750Y-101765250D03*
X98504750Y-101125250D03*
X98504750Y-100465250D03*
X98504750Y-99825250D03*
D20*
X99084750Y-101405250D03*
X99084750Y-100185250D03*
X100034750Y-101405250D03*
X100034750Y-100185250D03*
G04 #@! TD*
D21*
G04 #@! TO.C,Q5*
X94387050Y-106670550D03*
X94387050Y-107310550D03*
X94387050Y-107970550D03*
X94387050Y-108610550D03*
X91507050Y-108610550D03*
X91507050Y-107970550D03*
X91507050Y-107310550D03*
X91507050Y-106670550D03*
D20*
X92087050Y-108250550D03*
X92087050Y-107030550D03*
X93037050Y-108250550D03*
X93037050Y-107030550D03*
G04 #@! TD*
D14*
G04 #@! TO.C,Q6*
X98935800Y-106192800D03*
X99575800Y-106192800D03*
X100235800Y-106192800D03*
X100875800Y-106192800D03*
X100875800Y-109072800D03*
X100235800Y-109072800D03*
X99575800Y-109072800D03*
X98935800Y-109072800D03*
D15*
X100515800Y-108492800D03*
X99295800Y-108492800D03*
X100515800Y-107542800D03*
X99295800Y-107542800D03*
G04 #@! TD*
D33*
G04 #@! TO.C,U3*
X116331500Y-86350000D03*
D32*
X116450000Y-86918500D03*
X116850000Y-86918500D03*
X117250000Y-86918500D03*
D31*
X117418500Y-86350000D03*
X117418500Y-85950000D03*
D32*
X117250000Y-85381500D03*
X116850000Y-85381500D03*
X116450000Y-85381500D03*
D31*
X116281500Y-85950000D03*
G04 #@! TD*
D33*
G04 #@! TO.C,U4*
X116381500Y-89600000D03*
D32*
X116500000Y-90168500D03*
X116900000Y-90168500D03*
X117300000Y-90168500D03*
D31*
X117468500Y-89600000D03*
X117468500Y-89200000D03*
D32*
X117300000Y-88631500D03*
X116900000Y-88631500D03*
X116500000Y-88631500D03*
D31*
X116331500Y-89200000D03*
G04 #@! TD*
D28*
G04 #@! TO.C,U6*
X122740000Y-91700000D03*
X122740000Y-91350000D03*
X122740000Y-91000000D03*
X122740000Y-90650000D03*
X123410000Y-90650000D03*
X123410000Y-91000000D03*
X123410000Y-91350000D03*
X123410000Y-91700000D03*
G04 #@! TD*
D11*
G04 #@! TO.C,C7*
X105050000Y-92200000D03*
X106050000Y-92200000D03*
G04 #@! TD*
G04 #@! TO.C,C11*
X108650000Y-85250000D03*
X107650000Y-85250000D03*
G04 #@! TD*
G04 #@! TO.C,C12*
X117300000Y-92100000D03*
X116300000Y-92100000D03*
G04 #@! TD*
G04 #@! TO.C,C13*
X94449500Y-98247500D03*
X93449500Y-98247500D03*
G04 #@! TD*
G04 #@! TO.C,C14*
X100460750Y-98255250D03*
X101460750Y-98255250D03*
G04 #@! TD*
G04 #@! TO.C,C15*
X96370000Y-103330000D03*
X95370000Y-103330000D03*
G04 #@! TD*
G04 #@! TO.C,C16*
X97835500Y-103650000D03*
X98835500Y-103650000D03*
G04 #@! TD*
G04 #@! TO.C,C17*
X97800000Y-89450000D03*
X98800000Y-89450000D03*
G04 #@! TD*
G04 #@! TO.C,C18*
X94894000Y-110185500D03*
X93894000Y-110185500D03*
G04 #@! TD*
D12*
G04 #@! TO.C,C19*
X102400000Y-105350000D03*
X102400000Y-106350000D03*
G04 #@! TD*
G04 #@! TO.C,C22*
X112050000Y-101800000D03*
X112050000Y-102800000D03*
G04 #@! TD*
G04 #@! TO.C,C35*
X116350000Y-93200000D03*
X116350000Y-94200000D03*
G04 #@! TD*
G04 #@! TO.C,C36*
X119270000Y-94200000D03*
X119270000Y-93200000D03*
G04 #@! TD*
D11*
G04 #@! TO.C,C37*
X122600000Y-84150000D03*
X121600000Y-84150000D03*
G04 #@! TD*
D12*
G04 #@! TO.C,C38*
X121600000Y-92175000D03*
X121600000Y-91175000D03*
G04 #@! TD*
G04 #@! TO.C,C39*
X124300000Y-92650000D03*
X124300000Y-93650000D03*
G04 #@! TD*
G04 #@! TO.C,C40*
X113400000Y-100350000D03*
X113400000Y-101350000D03*
G04 #@! TD*
D11*
G04 #@! TO.C,C41*
X117250000Y-95750000D03*
X116250000Y-95750000D03*
G04 #@! TD*
G04 #@! TO.C,C42*
X117150000Y-97900000D03*
X116150000Y-97900000D03*
G04 #@! TD*
D17*
G04 #@! TO.C,D7*
X116825000Y-96850000D03*
D16*
X116175000Y-96850000D03*
G04 #@! TD*
D12*
G04 #@! TO.C,R2*
X103100000Y-89800000D03*
X103100000Y-90800000D03*
G04 #@! TD*
G04 #@! TO.C,R3*
X102000000Y-89800000D03*
X102000000Y-90800000D03*
G04 #@! TD*
D11*
G04 #@! TO.C,R4*
X107650000Y-86300000D03*
X108650000Y-86300000D03*
G04 #@! TD*
G04 #@! TO.C,R5*
X91544500Y-98247500D03*
X92544500Y-98247500D03*
G04 #@! TD*
G04 #@! TO.C,R6*
X99365250Y-98255250D03*
X98365250Y-98255250D03*
G04 #@! TD*
D12*
G04 #@! TO.C,R7*
X95664000Y-97239500D03*
X95664000Y-98239500D03*
G04 #@! TD*
G04 #@! TO.C,R8*
X102600000Y-98300000D03*
X102600000Y-97300000D03*
G04 #@! TD*
D11*
G04 #@! TO.C,R9*
X93410000Y-103330000D03*
X94410000Y-103330000D03*
G04 #@! TD*
D12*
G04 #@! TO.C,R10*
X96770000Y-104350000D03*
X96770000Y-105350000D03*
G04 #@! TD*
D11*
G04 #@! TO.C,R11*
X95350000Y-104400000D03*
X94350000Y-104400000D03*
G04 #@! TD*
G04 #@! TO.C,R12*
X98835500Y-104800000D03*
X97835500Y-104800000D03*
G04 #@! TD*
G04 #@! TO.C,R13*
X98750000Y-90500000D03*
X99750000Y-90500000D03*
G04 #@! TD*
G04 #@! TO.C,R14*
X96850000Y-90500000D03*
X97850000Y-90500000D03*
G04 #@! TD*
G04 #@! TO.C,R16*
X91989000Y-110249000D03*
X92989000Y-110249000D03*
G04 #@! TD*
D12*
G04 #@! TO.C,R17*
X104750000Y-105350000D03*
X104750000Y-106350000D03*
G04 #@! TD*
D11*
G04 #@! TO.C,R18*
X93894000Y-111328500D03*
X94894000Y-111328500D03*
G04 #@! TD*
D12*
G04 #@! TO.C,R19*
X103550000Y-106350000D03*
X103550000Y-105350000D03*
G04 #@! TD*
D11*
G04 #@! TO.C,R20*
X111800000Y-104000000D03*
X110800000Y-104000000D03*
G04 #@! TD*
D12*
G04 #@! TO.C,R21*
X112050000Y-99600000D03*
X112050000Y-100600000D03*
G04 #@! TD*
G04 #@! TO.C,R22*
X118650000Y-86050000D03*
X118650000Y-87050000D03*
G04 #@! TD*
D11*
G04 #@! TO.C,R23*
X118600000Y-90400000D03*
X119600000Y-90400000D03*
G04 #@! TD*
D12*
G04 #@! TO.C,R24*
X111650000Y-87750000D03*
X111650000Y-86750000D03*
G04 #@! TD*
D11*
G04 #@! TO.C,R25*
X109700000Y-85600000D03*
X110700000Y-85600000D03*
G04 #@! TD*
D12*
G04 #@! TO.C,R27*
X96850000Y-79100000D03*
X96850000Y-80100000D03*
G04 #@! TD*
G04 #@! TO.C,R28*
X98500000Y-79100000D03*
X98500000Y-80100000D03*
G04 #@! TD*
D11*
G04 #@! TO.C,R29*
X118300000Y-96200000D03*
X119300000Y-96200000D03*
G04 #@! TD*
G04 #@! TO.C,R31*
X119300000Y-95200000D03*
X118300000Y-95200000D03*
G04 #@! TD*
D12*
G04 #@! TO.C,R32*
X124900000Y-88900000D03*
X124900000Y-89900000D03*
G04 #@! TD*
D23*
G04 #@! TO.C,U7*
X117190000Y-92990000D03*
D24*
G36*
X117299644Y-93115000D02*
X117115000Y-93115000D01*
X117115000Y-92915000D01*
X117465000Y-92915000D01*
X117465000Y-92949644D01*
X117299644Y-93115000D01*
X117299644Y-93115000D01*
G37*
D25*
X117740000Y-93340000D03*
D24*
G36*
X117435944Y-93340000D02*
X117740000Y-93035944D01*
X118044056Y-93340000D01*
X117740000Y-93644056D01*
X117435944Y-93340000D01*
X117435944Y-93340000D01*
G37*
D23*
X118290000Y-93690000D03*
D24*
G36*
X118180356Y-93565000D02*
X118365000Y-93565000D01*
X118365000Y-93765000D01*
X118015000Y-93765000D01*
X118015000Y-93730356D01*
X118180356Y-93565000D01*
X118180356Y-93565000D01*
G37*
D23*
X117190000Y-93690000D03*
D24*
G36*
X117115000Y-93765000D02*
X117115000Y-93565000D01*
X117299644Y-93565000D01*
X117465000Y-93730356D01*
X117465000Y-93765000D01*
X117115000Y-93765000D01*
X117115000Y-93765000D01*
G37*
D23*
X118290000Y-92990000D03*
D24*
G36*
X118365000Y-92915000D02*
X118365000Y-93115000D01*
X118180356Y-93115000D01*
X117980356Y-92915000D01*
X118365000Y-92915000D01*
X118365000Y-92915000D01*
G37*
G04 #@! TD*
D22*
G04 #@! TO.C,U8*
X123320000Y-85660000D03*
X123320000Y-87360000D03*
X122620000Y-87360000D03*
X122620000Y-85660000D03*
G04 #@! TD*
D27*
G04 #@! TO.C,U9*
X118050000Y-99400000D03*
X118050000Y-100350000D03*
X118050000Y-101300000D03*
X115850000Y-101300000D03*
X115850000Y-99400000D03*
X115850000Y-100350000D03*
G04 #@! TD*
D24*
G04 #@! TO.C,L2*
G36*
X115116416Y-97226114D02*
X115138865Y-97229443D01*
X115160878Y-97234958D01*
X115182246Y-97242603D01*
X115202760Y-97252306D01*
X115222226Y-97263973D01*
X115240453Y-97277491D01*
X115257268Y-97292732D01*
X115272509Y-97309547D01*
X115286027Y-97327774D01*
X115297694Y-97347240D01*
X115307397Y-97367754D01*
X115315042Y-97389122D01*
X115320557Y-97411135D01*
X115323886Y-97433584D01*
X115325000Y-97456250D01*
X115325000Y-97918750D01*
X115323886Y-97941416D01*
X115320557Y-97963865D01*
X115315042Y-97985878D01*
X115307397Y-98007246D01*
X115297694Y-98027760D01*
X115286027Y-98047226D01*
X115272509Y-98065453D01*
X115257268Y-98082268D01*
X115240453Y-98097509D01*
X115222226Y-98111027D01*
X115202760Y-98122694D01*
X115182246Y-98132397D01*
X115160878Y-98140042D01*
X115138865Y-98145557D01*
X115116416Y-98148886D01*
X115093750Y-98150000D01*
X114206250Y-98150000D01*
X114183584Y-98148886D01*
X114161135Y-98145557D01*
X114139122Y-98140042D01*
X114117754Y-98132397D01*
X114097240Y-98122694D01*
X114077774Y-98111027D01*
X114059547Y-98097509D01*
X114042732Y-98082268D01*
X114027491Y-98065453D01*
X114013973Y-98047226D01*
X114002306Y-98027760D01*
X113992603Y-98007246D01*
X113984958Y-97985878D01*
X113979443Y-97963865D01*
X113976114Y-97941416D01*
X113975000Y-97918750D01*
X113975000Y-97456250D01*
X113976114Y-97433584D01*
X113979443Y-97411135D01*
X113984958Y-97389122D01*
X113992603Y-97367754D01*
X114002306Y-97347240D01*
X114013973Y-97327774D01*
X114027491Y-97309547D01*
X114042732Y-97292732D01*
X114059547Y-97277491D01*
X114077774Y-97263973D01*
X114097240Y-97252306D01*
X114117754Y-97242603D01*
X114139122Y-97234958D01*
X114161135Y-97229443D01*
X114183584Y-97226114D01*
X114206250Y-97225000D01*
X115093750Y-97225000D01*
X115116416Y-97226114D01*
X115116416Y-97226114D01*
G37*
D26*
X114650000Y-97687500D03*
D24*
G36*
X115116416Y-95351114D02*
X115138865Y-95354443D01*
X115160878Y-95359958D01*
X115182246Y-95367603D01*
X115202760Y-95377306D01*
X115222226Y-95388973D01*
X115240453Y-95402491D01*
X115257268Y-95417732D01*
X115272509Y-95434547D01*
X115286027Y-95452774D01*
X115297694Y-95472240D01*
X115307397Y-95492754D01*
X115315042Y-95514122D01*
X115320557Y-95536135D01*
X115323886Y-95558584D01*
X115325000Y-95581250D01*
X115325000Y-96043750D01*
X115323886Y-96066416D01*
X115320557Y-96088865D01*
X115315042Y-96110878D01*
X115307397Y-96132246D01*
X115297694Y-96152760D01*
X115286027Y-96172226D01*
X115272509Y-96190453D01*
X115257268Y-96207268D01*
X115240453Y-96222509D01*
X115222226Y-96236027D01*
X115202760Y-96247694D01*
X115182246Y-96257397D01*
X115160878Y-96265042D01*
X115138865Y-96270557D01*
X115116416Y-96273886D01*
X115093750Y-96275000D01*
X114206250Y-96275000D01*
X114183584Y-96273886D01*
X114161135Y-96270557D01*
X114139122Y-96265042D01*
X114117754Y-96257397D01*
X114097240Y-96247694D01*
X114077774Y-96236027D01*
X114059547Y-96222509D01*
X114042732Y-96207268D01*
X114027491Y-96190453D01*
X114013973Y-96172226D01*
X114002306Y-96152760D01*
X113992603Y-96132246D01*
X113984958Y-96110878D01*
X113979443Y-96088865D01*
X113976114Y-96066416D01*
X113975000Y-96043750D01*
X113975000Y-95581250D01*
X113976114Y-95558584D01*
X113979443Y-95536135D01*
X113984958Y-95514122D01*
X113992603Y-95492754D01*
X114002306Y-95472240D01*
X114013973Y-95452774D01*
X114027491Y-95434547D01*
X114042732Y-95417732D01*
X114059547Y-95402491D01*
X114077774Y-95388973D01*
X114097240Y-95377306D01*
X114117754Y-95367603D01*
X114139122Y-95359958D01*
X114161135Y-95354443D01*
X114183584Y-95351114D01*
X114206250Y-95350000D01*
X115093750Y-95350000D01*
X115116416Y-95351114D01*
X115116416Y-95351114D01*
G37*
D26*
X114650000Y-95812500D03*
G04 #@! TD*
D16*
G04 #@! TO.C,D8*
X113225000Y-95050000D03*
D17*
X112575000Y-95050000D03*
G04 #@! TD*
D30*
G04 #@! TO.C,D9*
X115100000Y-94275000D03*
D29*
X115100000Y-93625000D03*
G04 #@! TD*
D12*
G04 #@! TO.C,R30*
X114500000Y-101350000D03*
X114500000Y-100350000D03*
G04 #@! TD*
G04 #@! TO.C,R33*
X112500000Y-96150000D03*
X112500000Y-97150000D03*
G04 #@! TD*
D11*
G04 #@! TO.C,C43*
X129550000Y-106000000D03*
X128550000Y-106000000D03*
G04 #@! TD*
D12*
G04 #@! TO.C,R34*
X95750000Y-79100000D03*
X95750000Y-80100000D03*
G04 #@! TD*
G04 #@! TO.C,R35*
X99600000Y-80100000D03*
X99600000Y-79100000D03*
G04 #@! TD*
D11*
G04 #@! TO.C,C46*
X122550000Y-95350000D03*
X121550000Y-95350000D03*
G04 #@! TD*
G04 #@! TO.C,C47*
X124700000Y-98450000D03*
X125700000Y-98450000D03*
G04 #@! TD*
D12*
G04 #@! TO.C,C48*
X126600000Y-102000000D03*
X126600000Y-101000000D03*
G04 #@! TD*
G04 #@! TO.C,C49*
X129600000Y-102000000D03*
X129600000Y-101000000D03*
G04 #@! TD*
G04 #@! TO.C,R36*
X123650000Y-94750000D03*
X123650000Y-95750000D03*
G04 #@! TD*
G04 #@! TO.C,R37*
X124800000Y-96500000D03*
X124800000Y-95500000D03*
G04 #@! TD*
G04 #@! TO.C,R38*
X127600000Y-101000000D03*
X127600000Y-102000000D03*
G04 #@! TD*
G04 #@! TO.C,R39*
X128600000Y-102000000D03*
X128600000Y-101000000D03*
G04 #@! TD*
G04 #@! TO.C,R40*
X122900000Y-101000000D03*
X122900000Y-102000000D03*
G04 #@! TD*
G04 #@! TO.C,R41*
X123900000Y-101000000D03*
X123900000Y-102000000D03*
G04 #@! TD*
G04 #@! TO.C,R42*
X128600000Y-103900000D03*
X128600000Y-102900000D03*
G04 #@! TD*
G04 #@! TO.C,R43*
X129600000Y-102900000D03*
X129600000Y-103900000D03*
G04 #@! TD*
G04 #@! TO.C,R44*
X120700000Y-103800000D03*
X120700000Y-104800000D03*
G04 #@! TD*
G04 #@! TO.C,R45*
X127600000Y-103150000D03*
X127600000Y-104150000D03*
G04 #@! TD*
G04 #@! TO.C,R46*
X119700000Y-104800000D03*
X119700000Y-103800000D03*
G04 #@! TD*
G04 #@! TO.C,R47*
X125600000Y-102000000D03*
X125600000Y-101000000D03*
G04 #@! TD*
D11*
G04 #@! TO.C,R48*
X127550000Y-107000000D03*
X128550000Y-107000000D03*
G04 #@! TD*
D12*
G04 #@! TO.C,R49*
X127600000Y-105050000D03*
X127600000Y-106050000D03*
G04 #@! TD*
D13*
G04 #@! TO.C,U2*
X122000000Y-105225000D03*
X122000000Y-104575000D03*
X122000000Y-103925000D03*
X122000000Y-103275000D03*
X126300000Y-103275000D03*
X126300000Y-103925000D03*
X126300000Y-104575000D03*
X126300000Y-105225000D03*
G04 #@! TD*
M02*
