G04 #@! TF.GenerationSoftware,KiCad,Pcbnew,5.0.2-bee76a0~70~ubuntu18.04.1*
G04 #@! TF.CreationDate,2019-02-13T09:30:15+01:00*
G04 #@! TF.ProjectId,motorboard_panel_x3,6d6f746f-7262-46f6-9172-645f70616e65,rev?*
G04 #@! TF.SameCoordinates,Original*
G04 #@! TF.FileFunction,Paste,Top*
G04 #@! TF.FilePolarity,Positive*
%FSLAX46Y46*%
G04 Gerber Fmt 4.6, Leading zero omitted, Abs format (unit mm)*
G04 Created by KiCad (PCBNEW 5.0.2-bee76a0~70~ubuntu18.04.1) date Wed 13 Feb 2019 09:30:15 CET*
%MOMM*%
%LPD*%
G01*
G04 APERTURE LIST*
%ADD10R,0.550000X0.400000*%
%ADD11R,1.200000X0.950000*%
%ADD12R,0.550000X0.650000*%
%ADD13R,0.650000X0.550000*%
%ADD14R,0.250000X0.500000*%
%ADD15R,0.300000X0.550000*%
%ADD16R,0.950000X0.950000*%
%ADD17R,3.450000X1.950000*%
%ADD18R,5.950000X1.950000*%
%ADD19R,1.450000X2.150000*%
%ADD20R,0.625000X0.200000*%
%ADD21R,0.200000X0.625000*%
%ADD22R,0.722500X0.722500*%
%ADD23R,0.650000X0.200000*%
%ADD24R,0.200000X0.650000*%
%ADD25R,0.710000X1.550000*%
%ADD26R,1.550000X2.550000*%
%ADD27R,0.620000X0.950000*%
%ADD28R,3.450000X1.550000*%
%ADD29R,0.550000X0.750000*%
%ADD30R,1.950000X3.450000*%
%ADD31R,1.950000X5.950000*%
%ADD32R,0.850000X1.650000*%
%ADD33C,0.100000*%
%ADD34C,1.200000*%
%ADD35R,0.400000X0.550000*%
%ADD36R,0.950000X1.200000*%
%ADD37R,0.500000X0.250000*%
%ADD38R,0.550000X0.300000*%
%ADD39R,2.150000X1.450000*%
%ADD40R,1.550000X0.710000*%
%ADD41R,2.550000X1.550000*%
%ADD42R,0.950000X0.620000*%
%ADD43R,1.550000X3.450000*%
%ADD44R,0.750000X0.550000*%
%ADD45R,1.650000X0.850000*%
G04 APERTURE END LIST*
D10*
G04 #@! TO.C,D6*
X120500000Y-147800000D03*
X118900000Y-147800000D03*
X118900000Y-148400000D03*
X120500000Y-148400000D03*
G04 #@! TD*
D11*
G04 #@! TO.C,C21*
X123450000Y-133591000D03*
X123450000Y-131591000D03*
G04 #@! TD*
D12*
G04 #@! TO.C,TH1*
X121153500Y-123383500D03*
X120153500Y-123383500D03*
G04 #@! TD*
D13*
G04 #@! TO.C,C44*
X101200000Y-141850000D03*
X101200000Y-140850000D03*
G04 #@! TD*
G04 #@! TO.C,C24*
X112425000Y-137550000D03*
X112425000Y-138550000D03*
G04 #@! TD*
D14*
G04 #@! TO.C,D2*
X128964500Y-120335500D03*
D15*
X129614500Y-120335500D03*
G04 #@! TD*
G04 #@! TO.C,D3*
X126375000Y-120600000D03*
D14*
X127025000Y-120600000D03*
G04 #@! TD*
D16*
G04 #@! TO.C,D4*
X92725000Y-148150000D03*
X94475000Y-148150000D03*
X92725000Y-144650000D03*
X94475000Y-144650000D03*
G04 #@! TD*
D17*
G04 #@! TO.C,J1*
X103500000Y-125000000D03*
D18*
X94250000Y-125000000D03*
X94250000Y-121000000D03*
D17*
X103500000Y-121000000D03*
D18*
X94250000Y-117000000D03*
D17*
X103500000Y-117000000D03*
G04 #@! TD*
D19*
G04 #@! TO.C,L1*
X123168500Y-126812500D03*
X129568500Y-126812500D03*
G04 #@! TD*
D12*
G04 #@! TO.C,C5*
X108950000Y-133150000D03*
X109950000Y-133150000D03*
G04 #@! TD*
G04 #@! TO.C,C3*
X114375000Y-134950000D03*
X113375000Y-134950000D03*
G04 #@! TD*
D20*
G04 #@! TO.C,U5*
X92687500Y-137500000D03*
X92687500Y-137000000D03*
X92687500Y-136500000D03*
X92687500Y-136000000D03*
X95212500Y-136000000D03*
X95212500Y-136500000D03*
X95212500Y-137000000D03*
X95212500Y-137500000D03*
D21*
X93450000Y-135737500D03*
X93950000Y-135737500D03*
X94450000Y-135737500D03*
X93450000Y-137762500D03*
X94450000Y-137762500D03*
X93950000Y-137762500D03*
G04 #@! TD*
D13*
G04 #@! TO.C,C2*
X107250000Y-131050000D03*
X107250000Y-132050000D03*
G04 #@! TD*
G04 #@! TO.C,C9*
X112450000Y-142050000D03*
X112450000Y-143050000D03*
G04 #@! TD*
G04 #@! TO.C,C8*
X118850000Y-143150000D03*
X118850000Y-144150000D03*
G04 #@! TD*
G04 #@! TO.C,C10*
X112425000Y-139600000D03*
X112425000Y-140600000D03*
G04 #@! TD*
D22*
G04 #@! TO.C,U1*
X109398750Y-136921250D03*
X108111250Y-136921250D03*
X106823750Y-136921250D03*
X105536250Y-136921250D03*
X109398750Y-138208750D03*
X108111250Y-138208750D03*
X106823750Y-138208750D03*
X105536250Y-138208750D03*
X109398750Y-139496250D03*
X108111250Y-139496250D03*
X106823750Y-139496250D03*
X105536250Y-139496250D03*
X109398750Y-140783750D03*
X108111250Y-140783750D03*
X106823750Y-140783750D03*
X105536250Y-140783750D03*
D23*
X110867500Y-136102500D03*
X110867500Y-136602500D03*
X110867500Y-137102500D03*
X110867500Y-137602500D03*
X110867500Y-138102500D03*
X110867500Y-138602500D03*
X110867500Y-139102500D03*
X110867500Y-139602500D03*
X110867500Y-140102500D03*
X110867500Y-140602500D03*
X110867500Y-141102500D03*
X110867500Y-141602500D03*
D24*
X110217500Y-142252500D03*
X109717500Y-142252500D03*
X109217500Y-142252500D03*
X108717500Y-142252500D03*
X108217500Y-142252500D03*
X107717500Y-142252500D03*
X107217500Y-142252500D03*
X106717500Y-142252500D03*
X106217500Y-142252500D03*
X105717500Y-142252500D03*
X105217500Y-142252500D03*
X104717500Y-142252500D03*
D23*
X104067500Y-141602500D03*
X104067500Y-141102500D03*
X104067500Y-140602500D03*
X104067500Y-140102500D03*
X104067500Y-139602500D03*
X104067500Y-139102500D03*
X104067500Y-138602500D03*
X104067500Y-138102500D03*
X104067500Y-137602500D03*
X104067500Y-137102500D03*
X104067500Y-136602500D03*
X104067500Y-136102500D03*
D24*
X104717500Y-135452500D03*
X105217500Y-135452500D03*
X105717500Y-135452500D03*
X106217500Y-135452500D03*
X106717500Y-135452500D03*
X107217500Y-135452500D03*
X107717500Y-135452500D03*
X108217500Y-135452500D03*
X108717500Y-135452500D03*
X109217500Y-135452500D03*
X109717500Y-135452500D03*
X110217500Y-135452500D03*
G04 #@! TD*
D25*
G04 #@! TO.C,SW2*
X99135000Y-141990000D03*
X97865000Y-136910000D03*
X97865000Y-141990000D03*
X99135000Y-136910000D03*
G04 #@! TD*
D26*
G04 #@! TO.C,C23*
X115400000Y-140800000D03*
X115400000Y-137200000D03*
G04 #@! TD*
D13*
G04 #@! TO.C,C4*
X112160000Y-135560000D03*
X112160000Y-134560000D03*
G04 #@! TD*
G04 #@! TO.C,C1*
X105850000Y-132050000D03*
X105850000Y-131050000D03*
G04 #@! TD*
G04 #@! TO.C,C45*
X101200000Y-138000000D03*
X101200000Y-139000000D03*
G04 #@! TD*
D12*
G04 #@! TO.C,R26*
X101450000Y-131650000D03*
X100450000Y-131650000D03*
G04 #@! TD*
D27*
G04 #@! TO.C,D5*
X99275000Y-131650000D03*
X97525000Y-131650000D03*
G04 #@! TD*
D28*
G04 #@! TO.C,C33*
X116575000Y-118600000D03*
X121975000Y-118600000D03*
G04 #@! TD*
D29*
G04 #@! TO.C,D1*
X125518500Y-133670500D03*
X127218500Y-133670500D03*
G04 #@! TD*
D30*
G04 #@! TO.C,J10*
X128368500Y-136739000D03*
D31*
X128368500Y-145989000D03*
X124368500Y-145989000D03*
D30*
X124368500Y-136739000D03*
G04 #@! TD*
D12*
G04 #@! TO.C,C20*
X124800000Y-132500000D03*
X125800000Y-132500000D03*
G04 #@! TD*
D32*
G04 #@! TO.C,SW1*
X96850000Y-134050000D03*
X100250000Y-134050000D03*
G04 #@! TD*
D33*
G04 #@! TO.C,F1*
G36*
X130383524Y-131001156D02*
X130406822Y-131004612D01*
X130429668Y-131010334D01*
X130451844Y-131018269D01*
X130473135Y-131028339D01*
X130493337Y-131040447D01*
X130512254Y-131054477D01*
X130529706Y-131070294D01*
X130545523Y-131087746D01*
X130559553Y-131106663D01*
X130571661Y-131126865D01*
X130581731Y-131148156D01*
X130589666Y-131170332D01*
X130595388Y-131193178D01*
X130598844Y-131216476D01*
X130600000Y-131240000D01*
X130600000Y-132460000D01*
X130598844Y-132483524D01*
X130595388Y-132506822D01*
X130589666Y-132529668D01*
X130581731Y-132551844D01*
X130571661Y-132573135D01*
X130559553Y-132593337D01*
X130545523Y-132612254D01*
X130529706Y-132629706D01*
X130512254Y-132645523D01*
X130493337Y-132659553D01*
X130473135Y-132671661D01*
X130451844Y-132681731D01*
X130429668Y-132689666D01*
X130406822Y-132695388D01*
X130383524Y-132698844D01*
X130360000Y-132700000D01*
X129640000Y-132700000D01*
X129616476Y-132698844D01*
X129593178Y-132695388D01*
X129570332Y-132689666D01*
X129548156Y-132681731D01*
X129526865Y-132671661D01*
X129506663Y-132659553D01*
X129487746Y-132645523D01*
X129470294Y-132629706D01*
X129454477Y-132612254D01*
X129440447Y-132593337D01*
X129428339Y-132573135D01*
X129418269Y-132551844D01*
X129410334Y-132529668D01*
X129404612Y-132506822D01*
X129401156Y-132483524D01*
X129400000Y-132460000D01*
X129400000Y-131240000D01*
X129401156Y-131216476D01*
X129404612Y-131193178D01*
X129410334Y-131170332D01*
X129418269Y-131148156D01*
X129428339Y-131126865D01*
X129440447Y-131106663D01*
X129454477Y-131087746D01*
X129470294Y-131070294D01*
X129487746Y-131054477D01*
X129506663Y-131040447D01*
X129526865Y-131028339D01*
X129548156Y-131018269D01*
X129570332Y-131010334D01*
X129593178Y-131004612D01*
X129616476Y-131001156D01*
X129640000Y-131000000D01*
X130360000Y-131000000D01*
X130383524Y-131001156D01*
X130383524Y-131001156D01*
G37*
D34*
X130000000Y-131850000D03*
D33*
G36*
X127583524Y-131001156D02*
X127606822Y-131004612D01*
X127629668Y-131010334D01*
X127651844Y-131018269D01*
X127673135Y-131028339D01*
X127693337Y-131040447D01*
X127712254Y-131054477D01*
X127729706Y-131070294D01*
X127745523Y-131087746D01*
X127759553Y-131106663D01*
X127771661Y-131126865D01*
X127781731Y-131148156D01*
X127789666Y-131170332D01*
X127795388Y-131193178D01*
X127798844Y-131216476D01*
X127800000Y-131240000D01*
X127800000Y-132460000D01*
X127798844Y-132483524D01*
X127795388Y-132506822D01*
X127789666Y-132529668D01*
X127781731Y-132551844D01*
X127771661Y-132573135D01*
X127759553Y-132593337D01*
X127745523Y-132612254D01*
X127729706Y-132629706D01*
X127712254Y-132645523D01*
X127693337Y-132659553D01*
X127673135Y-132671661D01*
X127651844Y-132681731D01*
X127629668Y-132689666D01*
X127606822Y-132695388D01*
X127583524Y-132698844D01*
X127560000Y-132700000D01*
X126840000Y-132700000D01*
X126816476Y-132698844D01*
X126793178Y-132695388D01*
X126770332Y-132689666D01*
X126748156Y-132681731D01*
X126726865Y-132671661D01*
X126706663Y-132659553D01*
X126687746Y-132645523D01*
X126670294Y-132629706D01*
X126654477Y-132612254D01*
X126640447Y-132593337D01*
X126628339Y-132573135D01*
X126618269Y-132551844D01*
X126610334Y-132529668D01*
X126604612Y-132506822D01*
X126601156Y-132483524D01*
X126600000Y-132460000D01*
X126600000Y-131240000D01*
X126601156Y-131216476D01*
X126604612Y-131193178D01*
X126610334Y-131170332D01*
X126618269Y-131148156D01*
X126628339Y-131126865D01*
X126640447Y-131106663D01*
X126654477Y-131087746D01*
X126670294Y-131070294D01*
X126687746Y-131054477D01*
X126706663Y-131040447D01*
X126726865Y-131028339D01*
X126748156Y-131018269D01*
X126770332Y-131010334D01*
X126793178Y-131004612D01*
X126816476Y-131001156D01*
X126840000Y-131000000D01*
X127560000Y-131000000D01*
X127583524Y-131001156D01*
X127583524Y-131001156D01*
G37*
D34*
X127200000Y-131850000D03*
G04 #@! TD*
D12*
G04 #@! TO.C,C34*
X94450000Y-134550000D03*
X93450000Y-134550000D03*
G04 #@! TD*
D13*
G04 #@! TO.C,R1*
X102000000Y-135550000D03*
X102000000Y-136550000D03*
G04 #@! TD*
D35*
G04 #@! TO.C,D6*
X166000000Y-100500000D03*
X166000000Y-102100000D03*
X166600000Y-102100000D03*
X166600000Y-100500000D03*
G04 #@! TD*
D36*
G04 #@! TO.C,C21*
X151791000Y-97550000D03*
X149791000Y-97550000D03*
G04 #@! TD*
D13*
G04 #@! TO.C,TH1*
X141583500Y-99846500D03*
X141583500Y-100846500D03*
G04 #@! TD*
D12*
G04 #@! TO.C,C44*
X160050000Y-119800000D03*
X159050000Y-119800000D03*
G04 #@! TD*
G04 #@! TO.C,C24*
X155750000Y-108575000D03*
X156750000Y-108575000D03*
G04 #@! TD*
D37*
G04 #@! TO.C,D2*
X138535500Y-92035500D03*
D38*
X138535500Y-91385500D03*
G04 #@! TD*
G04 #@! TO.C,D3*
X138800000Y-94625000D03*
D37*
X138800000Y-93975000D03*
G04 #@! TD*
D16*
G04 #@! TO.C,D4*
X166350000Y-128275000D03*
X166350000Y-126525000D03*
X162850000Y-128275000D03*
X162850000Y-126525000D03*
G04 #@! TD*
D30*
G04 #@! TO.C,J1*
X143200000Y-117500000D03*
D31*
X143200000Y-126750000D03*
X139200000Y-126750000D03*
D30*
X139200000Y-117500000D03*
D31*
X135200000Y-126750000D03*
D30*
X135200000Y-117500000D03*
G04 #@! TD*
D39*
G04 #@! TO.C,L1*
X145012500Y-97831500D03*
X145012500Y-91431500D03*
G04 #@! TD*
D13*
G04 #@! TO.C,C5*
X151350000Y-112050000D03*
X151350000Y-111050000D03*
G04 #@! TD*
G04 #@! TO.C,C3*
X153150000Y-106625000D03*
X153150000Y-107625000D03*
G04 #@! TD*
D21*
G04 #@! TO.C,U5*
X155700000Y-128312500D03*
X155200000Y-128312500D03*
X154700000Y-128312500D03*
X154200000Y-128312500D03*
X154200000Y-125787500D03*
X154700000Y-125787500D03*
X155200000Y-125787500D03*
X155700000Y-125787500D03*
D20*
X153937500Y-127550000D03*
X153937500Y-127050000D03*
X153937500Y-126550000D03*
X155962500Y-127550000D03*
X155962500Y-126550000D03*
X155962500Y-127050000D03*
G04 #@! TD*
D12*
G04 #@! TO.C,C2*
X149250000Y-113750000D03*
X150250000Y-113750000D03*
G04 #@! TD*
G04 #@! TO.C,C9*
X160250000Y-108550000D03*
X161250000Y-108550000D03*
G04 #@! TD*
G04 #@! TO.C,C8*
X161350000Y-102150000D03*
X162350000Y-102150000D03*
G04 #@! TD*
G04 #@! TO.C,C10*
X157800000Y-108575000D03*
X158800000Y-108575000D03*
G04 #@! TD*
D22*
G04 #@! TO.C,U1*
X155121250Y-111601250D03*
X155121250Y-112888750D03*
X155121250Y-114176250D03*
X155121250Y-115463750D03*
X156408750Y-111601250D03*
X156408750Y-112888750D03*
X156408750Y-114176250D03*
X156408750Y-115463750D03*
X157696250Y-111601250D03*
X157696250Y-112888750D03*
X157696250Y-114176250D03*
X157696250Y-115463750D03*
X158983750Y-111601250D03*
X158983750Y-112888750D03*
X158983750Y-114176250D03*
X158983750Y-115463750D03*
D24*
X154302500Y-110132500D03*
X154802500Y-110132500D03*
X155302500Y-110132500D03*
X155802500Y-110132500D03*
X156302500Y-110132500D03*
X156802500Y-110132500D03*
X157302500Y-110132500D03*
X157802500Y-110132500D03*
X158302500Y-110132500D03*
X158802500Y-110132500D03*
X159302500Y-110132500D03*
X159802500Y-110132500D03*
D23*
X160452500Y-110782500D03*
X160452500Y-111282500D03*
X160452500Y-111782500D03*
X160452500Y-112282500D03*
X160452500Y-112782500D03*
X160452500Y-113282500D03*
X160452500Y-113782500D03*
X160452500Y-114282500D03*
X160452500Y-114782500D03*
X160452500Y-115282500D03*
X160452500Y-115782500D03*
X160452500Y-116282500D03*
D24*
X159802500Y-116932500D03*
X159302500Y-116932500D03*
X158802500Y-116932500D03*
X158302500Y-116932500D03*
X157802500Y-116932500D03*
X157302500Y-116932500D03*
X156802500Y-116932500D03*
X156302500Y-116932500D03*
X155802500Y-116932500D03*
X155302500Y-116932500D03*
X154802500Y-116932500D03*
X154302500Y-116932500D03*
D23*
X153652500Y-116282500D03*
X153652500Y-115782500D03*
X153652500Y-115282500D03*
X153652500Y-114782500D03*
X153652500Y-114282500D03*
X153652500Y-113782500D03*
X153652500Y-113282500D03*
X153652500Y-112782500D03*
X153652500Y-112282500D03*
X153652500Y-111782500D03*
X153652500Y-111282500D03*
X153652500Y-110782500D03*
G04 #@! TD*
D40*
G04 #@! TO.C,SW2*
X160190000Y-121865000D03*
X155110000Y-123135000D03*
X160190000Y-123135000D03*
X155110000Y-121865000D03*
G04 #@! TD*
D41*
G04 #@! TO.C,C23*
X159000000Y-105600000D03*
X155400000Y-105600000D03*
G04 #@! TD*
D12*
G04 #@! TO.C,C4*
X153760000Y-108840000D03*
X152760000Y-108840000D03*
G04 #@! TD*
G04 #@! TO.C,C1*
X150250000Y-115150000D03*
X149250000Y-115150000D03*
G04 #@! TD*
G04 #@! TO.C,C45*
X156200000Y-119800000D03*
X157200000Y-119800000D03*
G04 #@! TD*
D13*
G04 #@! TO.C,R26*
X149850000Y-119550000D03*
X149850000Y-120550000D03*
G04 #@! TD*
D42*
G04 #@! TO.C,D5*
X149850000Y-121725000D03*
X149850000Y-123475000D03*
G04 #@! TD*
D43*
G04 #@! TO.C,C33*
X136800000Y-104425000D03*
X136800000Y-99025000D03*
G04 #@! TD*
D44*
G04 #@! TO.C,D1*
X151870500Y-95481500D03*
X151870500Y-93781500D03*
G04 #@! TD*
D17*
G04 #@! TO.C,J10*
X154939000Y-92631500D03*
D18*
X164189000Y-92631500D03*
X164189000Y-96631500D03*
D17*
X154939000Y-96631500D03*
G04 #@! TD*
D13*
G04 #@! TO.C,C20*
X150700000Y-96200000D03*
X150700000Y-95200000D03*
G04 #@! TD*
D45*
G04 #@! TO.C,SW1*
X152250000Y-124150000D03*
X152250000Y-120750000D03*
G04 #@! TD*
D33*
G04 #@! TO.C,F1*
G36*
X150683524Y-90401156D02*
X150706822Y-90404612D01*
X150729668Y-90410334D01*
X150751844Y-90418269D01*
X150773135Y-90428339D01*
X150793337Y-90440447D01*
X150812254Y-90454477D01*
X150829706Y-90470294D01*
X150845523Y-90487746D01*
X150859553Y-90506663D01*
X150871661Y-90526865D01*
X150881731Y-90548156D01*
X150889666Y-90570332D01*
X150895388Y-90593178D01*
X150898844Y-90616476D01*
X150900000Y-90640000D01*
X150900000Y-91360000D01*
X150898844Y-91383524D01*
X150895388Y-91406822D01*
X150889666Y-91429668D01*
X150881731Y-91451844D01*
X150871661Y-91473135D01*
X150859553Y-91493337D01*
X150845523Y-91512254D01*
X150829706Y-91529706D01*
X150812254Y-91545523D01*
X150793337Y-91559553D01*
X150773135Y-91571661D01*
X150751844Y-91581731D01*
X150729668Y-91589666D01*
X150706822Y-91595388D01*
X150683524Y-91598844D01*
X150660000Y-91600000D01*
X149440000Y-91600000D01*
X149416476Y-91598844D01*
X149393178Y-91595388D01*
X149370332Y-91589666D01*
X149348156Y-91581731D01*
X149326865Y-91571661D01*
X149306663Y-91559553D01*
X149287746Y-91545523D01*
X149270294Y-91529706D01*
X149254477Y-91512254D01*
X149240447Y-91493337D01*
X149228339Y-91473135D01*
X149218269Y-91451844D01*
X149210334Y-91429668D01*
X149204612Y-91406822D01*
X149201156Y-91383524D01*
X149200000Y-91360000D01*
X149200000Y-90640000D01*
X149201156Y-90616476D01*
X149204612Y-90593178D01*
X149210334Y-90570332D01*
X149218269Y-90548156D01*
X149228339Y-90526865D01*
X149240447Y-90506663D01*
X149254477Y-90487746D01*
X149270294Y-90470294D01*
X149287746Y-90454477D01*
X149306663Y-90440447D01*
X149326865Y-90428339D01*
X149348156Y-90418269D01*
X149370332Y-90410334D01*
X149393178Y-90404612D01*
X149416476Y-90401156D01*
X149440000Y-90400000D01*
X150660000Y-90400000D01*
X150683524Y-90401156D01*
X150683524Y-90401156D01*
G37*
D34*
X150050000Y-91000000D03*
D33*
G36*
X150683524Y-93201156D02*
X150706822Y-93204612D01*
X150729668Y-93210334D01*
X150751844Y-93218269D01*
X150773135Y-93228339D01*
X150793337Y-93240447D01*
X150812254Y-93254477D01*
X150829706Y-93270294D01*
X150845523Y-93287746D01*
X150859553Y-93306663D01*
X150871661Y-93326865D01*
X150881731Y-93348156D01*
X150889666Y-93370332D01*
X150895388Y-93393178D01*
X150898844Y-93416476D01*
X150900000Y-93440000D01*
X150900000Y-94160000D01*
X150898844Y-94183524D01*
X150895388Y-94206822D01*
X150889666Y-94229668D01*
X150881731Y-94251844D01*
X150871661Y-94273135D01*
X150859553Y-94293337D01*
X150845523Y-94312254D01*
X150829706Y-94329706D01*
X150812254Y-94345523D01*
X150793337Y-94359553D01*
X150773135Y-94371661D01*
X150751844Y-94381731D01*
X150729668Y-94389666D01*
X150706822Y-94395388D01*
X150683524Y-94398844D01*
X150660000Y-94400000D01*
X149440000Y-94400000D01*
X149416476Y-94398844D01*
X149393178Y-94395388D01*
X149370332Y-94389666D01*
X149348156Y-94381731D01*
X149326865Y-94371661D01*
X149306663Y-94359553D01*
X149287746Y-94345523D01*
X149270294Y-94329706D01*
X149254477Y-94312254D01*
X149240447Y-94293337D01*
X149228339Y-94273135D01*
X149218269Y-94251844D01*
X149210334Y-94229668D01*
X149204612Y-94206822D01*
X149201156Y-94183524D01*
X149200000Y-94160000D01*
X149200000Y-93440000D01*
X149201156Y-93416476D01*
X149204612Y-93393178D01*
X149210334Y-93370332D01*
X149218269Y-93348156D01*
X149228339Y-93326865D01*
X149240447Y-93306663D01*
X149254477Y-93287746D01*
X149270294Y-93270294D01*
X149287746Y-93254477D01*
X149306663Y-93240447D01*
X149326865Y-93228339D01*
X149348156Y-93218269D01*
X149370332Y-93210334D01*
X149393178Y-93204612D01*
X149416476Y-93201156D01*
X149440000Y-93200000D01*
X150660000Y-93200000D01*
X150683524Y-93201156D01*
X150683524Y-93201156D01*
G37*
D34*
X150050000Y-93800000D03*
G04 #@! TD*
D13*
G04 #@! TO.C,C34*
X152750000Y-126550000D03*
X152750000Y-127550000D03*
G04 #@! TD*
D12*
G04 #@! TO.C,R1*
X153750000Y-119000000D03*
X154750000Y-119000000D03*
G04 #@! TD*
D10*
G04 #@! TO.C,D6*
X95500000Y-79200000D03*
X97100000Y-79200000D03*
X97100000Y-79800000D03*
X95500000Y-79800000D03*
G04 #@! TD*
D29*
G04 #@! TO.C,D1*
X88781500Y-93929500D03*
X90481500Y-93929500D03*
G04 #@! TD*
D19*
G04 #@! TO.C,L1*
X86431500Y-100787500D03*
X92831500Y-100787500D03*
G04 #@! TD*
D32*
G04 #@! TO.C,SW1*
X115750000Y-93550000D03*
X119150000Y-93550000D03*
G04 #@! TD*
D24*
G04 #@! TO.C,U1*
X105782500Y-92147500D03*
X106282500Y-92147500D03*
X106782500Y-92147500D03*
X107282500Y-92147500D03*
X107782500Y-92147500D03*
X108282500Y-92147500D03*
X108782500Y-92147500D03*
X109282500Y-92147500D03*
X109782500Y-92147500D03*
X110282500Y-92147500D03*
X110782500Y-92147500D03*
X111282500Y-92147500D03*
D23*
X111932500Y-91497500D03*
X111932500Y-90997500D03*
X111932500Y-90497500D03*
X111932500Y-89997500D03*
X111932500Y-89497500D03*
X111932500Y-88997500D03*
X111932500Y-88497500D03*
X111932500Y-87997500D03*
X111932500Y-87497500D03*
X111932500Y-86997500D03*
X111932500Y-86497500D03*
X111932500Y-85997500D03*
D24*
X111282500Y-85347500D03*
X110782500Y-85347500D03*
X110282500Y-85347500D03*
X109782500Y-85347500D03*
X109282500Y-85347500D03*
X108782500Y-85347500D03*
X108282500Y-85347500D03*
X107782500Y-85347500D03*
X107282500Y-85347500D03*
X106782500Y-85347500D03*
X106282500Y-85347500D03*
X105782500Y-85347500D03*
D23*
X105132500Y-85997500D03*
X105132500Y-86497500D03*
X105132500Y-86997500D03*
X105132500Y-87497500D03*
X105132500Y-87997500D03*
X105132500Y-88497500D03*
X105132500Y-88997500D03*
X105132500Y-89497500D03*
X105132500Y-89997500D03*
X105132500Y-90497500D03*
X105132500Y-90997500D03*
X105132500Y-91497500D03*
D22*
X110463750Y-86816250D03*
X109176250Y-86816250D03*
X107888750Y-86816250D03*
X106601250Y-86816250D03*
X110463750Y-88103750D03*
X109176250Y-88103750D03*
X107888750Y-88103750D03*
X106601250Y-88103750D03*
X110463750Y-89391250D03*
X109176250Y-89391250D03*
X107888750Y-89391250D03*
X106601250Y-89391250D03*
X110463750Y-90678750D03*
X109176250Y-90678750D03*
X107888750Y-90678750D03*
X106601250Y-90678750D03*
G04 #@! TD*
D11*
G04 #@! TO.C,C21*
X92550000Y-96009000D03*
X92550000Y-94009000D03*
G04 #@! TD*
D25*
G04 #@! TO.C,SW2*
X116865000Y-90690000D03*
X118135000Y-85610000D03*
X118135000Y-90690000D03*
X116865000Y-85610000D03*
G04 #@! TD*
D28*
G04 #@! TO.C,C33*
X94025000Y-109000000D03*
X99425000Y-109000000D03*
G04 #@! TD*
D26*
G04 #@! TO.C,C23*
X100600000Y-90400000D03*
X100600000Y-86800000D03*
G04 #@! TD*
D21*
G04 #@! TO.C,U5*
X122050000Y-89837500D03*
X121550000Y-89837500D03*
X122550000Y-89837500D03*
X121550000Y-91862500D03*
X122050000Y-91862500D03*
X122550000Y-91862500D03*
D20*
X120787500Y-90100000D03*
X120787500Y-90600000D03*
X120787500Y-91100000D03*
X120787500Y-91600000D03*
X123312500Y-91600000D03*
X123312500Y-91100000D03*
X123312500Y-90600000D03*
X123312500Y-90100000D03*
G04 #@! TD*
D27*
G04 #@! TO.C,D5*
X118475000Y-95950000D03*
X116725000Y-95950000D03*
G04 #@! TD*
D13*
G04 #@! TO.C,C1*
X110150000Y-96550000D03*
X110150000Y-95550000D03*
G04 #@! TD*
G04 #@! TO.C,C2*
X108750000Y-95550000D03*
X108750000Y-96550000D03*
G04 #@! TD*
D12*
G04 #@! TO.C,C3*
X102625000Y-92650000D03*
X101625000Y-92650000D03*
G04 #@! TD*
D13*
G04 #@! TO.C,C4*
X103840000Y-93040000D03*
X103840000Y-92040000D03*
G04 #@! TD*
D12*
G04 #@! TO.C,C5*
X106050000Y-94450000D03*
X107050000Y-94450000D03*
G04 #@! TD*
D13*
G04 #@! TO.C,C8*
X97150000Y-83450000D03*
X97150000Y-84450000D03*
G04 #@! TD*
G04 #@! TO.C,C9*
X103550000Y-84550000D03*
X103550000Y-85550000D03*
G04 #@! TD*
G04 #@! TO.C,C10*
X103575000Y-87000000D03*
X103575000Y-88000000D03*
G04 #@! TD*
D12*
G04 #@! TO.C,C20*
X90200000Y-95100000D03*
X91200000Y-95100000D03*
G04 #@! TD*
D13*
G04 #@! TO.C,C24*
X103575000Y-89050000D03*
X103575000Y-90050000D03*
G04 #@! TD*
D12*
G04 #@! TO.C,C34*
X122550000Y-93050000D03*
X121550000Y-93050000D03*
G04 #@! TD*
D15*
G04 #@! TO.C,D2*
X86385500Y-107264500D03*
D14*
X87035500Y-107264500D03*
G04 #@! TD*
G04 #@! TO.C,D3*
X88975000Y-107000000D03*
D15*
X89625000Y-107000000D03*
G04 #@! TD*
D16*
G04 #@! TO.C,D4*
X121525000Y-82950000D03*
X123275000Y-82950000D03*
X121525000Y-79450000D03*
X123275000Y-79450000D03*
G04 #@! TD*
D17*
G04 #@! TO.C,J1*
X112500000Y-110600000D03*
D18*
X121750000Y-110600000D03*
D17*
X112500000Y-106600000D03*
D18*
X121750000Y-106600000D03*
X121750000Y-102600000D03*
D17*
X112500000Y-102600000D03*
G04 #@! TD*
D30*
G04 #@! TO.C,J10*
X91631500Y-90861000D03*
D31*
X91631500Y-81611000D03*
X87631500Y-81611000D03*
D30*
X87631500Y-90861000D03*
G04 #@! TD*
D13*
G04 #@! TO.C,R1*
X114000000Y-91050000D03*
X114000000Y-92050000D03*
G04 #@! TD*
D12*
G04 #@! TO.C,R26*
X115550000Y-95950000D03*
X114550000Y-95950000D03*
G04 #@! TD*
G04 #@! TO.C,TH1*
X95846500Y-104216500D03*
X94846500Y-104216500D03*
G04 #@! TD*
D13*
G04 #@! TO.C,C44*
X114800000Y-86750000D03*
X114800000Y-85750000D03*
G04 #@! TD*
G04 #@! TO.C,C45*
X114800000Y-88600000D03*
X114800000Y-89600000D03*
G04 #@! TD*
D33*
G04 #@! TO.C,F1*
G36*
X89183524Y-94901156D02*
X89206822Y-94904612D01*
X89229668Y-94910334D01*
X89251844Y-94918269D01*
X89273135Y-94928339D01*
X89293337Y-94940447D01*
X89312254Y-94954477D01*
X89329706Y-94970294D01*
X89345523Y-94987746D01*
X89359553Y-95006663D01*
X89371661Y-95026865D01*
X89381731Y-95048156D01*
X89389666Y-95070332D01*
X89395388Y-95093178D01*
X89398844Y-95116476D01*
X89400000Y-95140000D01*
X89400000Y-96360000D01*
X89398844Y-96383524D01*
X89395388Y-96406822D01*
X89389666Y-96429668D01*
X89381731Y-96451844D01*
X89371661Y-96473135D01*
X89359553Y-96493337D01*
X89345523Y-96512254D01*
X89329706Y-96529706D01*
X89312254Y-96545523D01*
X89293337Y-96559553D01*
X89273135Y-96571661D01*
X89251844Y-96581731D01*
X89229668Y-96589666D01*
X89206822Y-96595388D01*
X89183524Y-96598844D01*
X89160000Y-96600000D01*
X88440000Y-96600000D01*
X88416476Y-96598844D01*
X88393178Y-96595388D01*
X88370332Y-96589666D01*
X88348156Y-96581731D01*
X88326865Y-96571661D01*
X88306663Y-96559553D01*
X88287746Y-96545523D01*
X88270294Y-96529706D01*
X88254477Y-96512254D01*
X88240447Y-96493337D01*
X88228339Y-96473135D01*
X88218269Y-96451844D01*
X88210334Y-96429668D01*
X88204612Y-96406822D01*
X88201156Y-96383524D01*
X88200000Y-96360000D01*
X88200000Y-95140000D01*
X88201156Y-95116476D01*
X88204612Y-95093178D01*
X88210334Y-95070332D01*
X88218269Y-95048156D01*
X88228339Y-95026865D01*
X88240447Y-95006663D01*
X88254477Y-94987746D01*
X88270294Y-94970294D01*
X88287746Y-94954477D01*
X88306663Y-94940447D01*
X88326865Y-94928339D01*
X88348156Y-94918269D01*
X88370332Y-94910334D01*
X88393178Y-94904612D01*
X88416476Y-94901156D01*
X88440000Y-94900000D01*
X89160000Y-94900000D01*
X89183524Y-94901156D01*
X89183524Y-94901156D01*
G37*
D34*
X88800000Y-95750000D03*
D33*
G36*
X86383524Y-94901156D02*
X86406822Y-94904612D01*
X86429668Y-94910334D01*
X86451844Y-94918269D01*
X86473135Y-94928339D01*
X86493337Y-94940447D01*
X86512254Y-94954477D01*
X86529706Y-94970294D01*
X86545523Y-94987746D01*
X86559553Y-95006663D01*
X86571661Y-95026865D01*
X86581731Y-95048156D01*
X86589666Y-95070332D01*
X86595388Y-95093178D01*
X86598844Y-95116476D01*
X86600000Y-95140000D01*
X86600000Y-96360000D01*
X86598844Y-96383524D01*
X86595388Y-96406822D01*
X86589666Y-96429668D01*
X86581731Y-96451844D01*
X86571661Y-96473135D01*
X86559553Y-96493337D01*
X86545523Y-96512254D01*
X86529706Y-96529706D01*
X86512254Y-96545523D01*
X86493337Y-96559553D01*
X86473135Y-96571661D01*
X86451844Y-96581731D01*
X86429668Y-96589666D01*
X86406822Y-96595388D01*
X86383524Y-96598844D01*
X86360000Y-96600000D01*
X85640000Y-96600000D01*
X85616476Y-96598844D01*
X85593178Y-96595388D01*
X85570332Y-96589666D01*
X85548156Y-96581731D01*
X85526865Y-96571661D01*
X85506663Y-96559553D01*
X85487746Y-96545523D01*
X85470294Y-96529706D01*
X85454477Y-96512254D01*
X85440447Y-96493337D01*
X85428339Y-96473135D01*
X85418269Y-96451844D01*
X85410334Y-96429668D01*
X85404612Y-96406822D01*
X85401156Y-96383524D01*
X85400000Y-96360000D01*
X85400000Y-95140000D01*
X85401156Y-95116476D01*
X85404612Y-95093178D01*
X85410334Y-95070332D01*
X85418269Y-95048156D01*
X85428339Y-95026865D01*
X85440447Y-95006663D01*
X85454477Y-94987746D01*
X85470294Y-94970294D01*
X85487746Y-94954477D01*
X85506663Y-94940447D01*
X85526865Y-94928339D01*
X85548156Y-94918269D01*
X85570332Y-94910334D01*
X85593178Y-94904612D01*
X85616476Y-94901156D01*
X85640000Y-94900000D01*
X86360000Y-94900000D01*
X86383524Y-94901156D01*
X86383524Y-94901156D01*
G37*
D34*
X86000000Y-95750000D03*
G04 #@! TD*
M02*
